<svg width="119" height="130" viewBox="0 0 119 130" fill="none" xmlns="http://www.w3.org/2000/svg">
<path d="M7.99232 94.9722L6.49831 94.1351M7.99232 94.9722L17.9131 89.0245M7.99232 94.9722C7.49935 95.5449 7.27605 96.2299 7.18912 97.3852M6.49831 94.1351L2.11397 91.6786C0.879883 91.1783 0.879883 90.011 0.879883 88.5527V44.412C0.879861 40.3994 1.50537 38.3681 5.73788 36.2305L65.2496 1.77185C66.5281 0.872615 67.4727 0.968328 68.3278 1.77185L72.7938 4.76158M6.49831 94.1351V45.1521C6.49831 43.4424 6.95006 41.5663 9.3681 40.3994L70.2362 5.04546C71.2537 4.41635 72.1588 4.32757 72.7938 4.76158M66.6091 61.1996L70.528 58.8232C70.6315 58.7672 70.7316 58.7101 70.8286 58.652M66.6091 61.1996C67.2754 62.267 67.4772 62.7757 67.6513 63.6593L54.9358 71.1219M66.6091 61.1996C65.9008 60.3345 65.543 59.9405 64.9415 59.3235C60.8419 61.6443 52.5427 66.3609 52.1425 66.661M54.9358 71.1219C54.591 70.0398 54.2597 69.2151 53.8568 68.5355C53.4112 67.784 52.8782 67.2098 52.1425 66.661M54.9358 71.1219L51.4938 69.8856M52.1425 66.661L51.4938 69.8856M33.1702 80.3556C32.6548 79.5817 32.2346 79.1411 31.3126 78.498L18.7114 85.7698M33.1702 80.3556C33.7531 81.6875 33.8728 82.2238 33.9102 83.0371L21.4441 90.3755M33.1702 80.3556L51.4938 69.8856M21.4441 90.3755C20.7472 88.1266 20.122 87.1419 18.7114 85.7698M21.4441 90.3755L17.9131 89.0245M18.7114 85.7698L17.9131 89.0245M72.7938 4.76158C73.3817 5.16334 73.7382 6.01311 73.7382 7.29697V51.8192C73.7382 54.5967 73.5438 57.0244 70.8286 58.652M117.86 85.5003V90.2648C117.86 91.0451 117.362 91.8387 116.69 92.1835L55.4173 127.603C53.6525 128.92 50.985 129.482 48.4911 127.603L8.70338 104.597C7.5896 103.764 7.14173 103.479 7.14173 102.12V98.9962C7.14173 98.3711 7.15479 97.8415 7.18912 97.3852M117.86 85.5003C117.86 84.4111 117.711 83.6685 116.152 82.5299L75.5312 59.113C73.8975 58.1724 72.1647 58.0239 70.8286 58.652M117.86 85.5003L55.4173 121.408C53.3975 122.567 50.9641 122.525 49.0174 121.408L7.18912 97.3852M24.968 95.5325C23.205 96.8147 22.6842 98.5776 24.6475 99.9399L36.5875 106.631C39.2319 107.833 41.5959 107.993 43.8797 106.631L91.4795 79.0649C94.0439 77.6225 94.0591 75.9832 91.8402 74.5774L80.0203 67.806C77.9583 66.661 75.7331 66.4437 72.8483 67.806L24.968 95.5325ZM65.1907 100.17C64.0131 100.801 64.2558 101.772 65.1907 102.237L69.5215 104.5C71.0283 105.301 71.6848 104.999 73.0649 104.205L90.8802 93.9196C91.847 93.2457 91.8834 92.8167 90.5849 91.951L86.4017 89.5888C85.3516 88.9736 84.6882 88.8814 83.2029 89.8349L65.1907 100.17Z" stroke="white"/>
<path d="M10.8857 53.7118V46.0857C10.8857 45.4271 11.1857 44.8997 11.7804 44.5294L18.3226 40.7814C19.052 40.2871 19.8936 40.512 19.8936 41.3087V49.3771C19.8936 49.8821 19.8039 50.2748 19.2652 50.589L12.2031 54.6485C11.4213 55.2235 10.8857 54.7073 10.8857 53.7118Z" stroke="white"/>
<path d="M12.791 49.9297C12.9258 49.9024 14.7333 50.0747 15.6202 50.1645L17.0347 43.5972" stroke="white"/>
<path d="M23.7725 46.5277V38.9016C23.7725 38.243 24.0724 37.7156 24.6671 37.3453L31.2093 33.5973C31.9387 33.103 32.7803 33.328 32.7803 34.1247V42.193C32.7803 42.698 32.6906 43.0907 32.1519 43.4049L25.0898 47.4645C24.308 48.0395 23.7725 47.5233 23.7725 46.5277Z" stroke="white"/>
<path d="M11.4834 68.9039V61.2779C11.4834 60.6192 11.7833 60.0918 12.3781 59.7215L18.9203 55.9735C19.6497 55.4792 20.4913 55.7042 20.4913 56.5009V64.5692C20.4913 65.0742 20.4015 65.4669 19.8629 65.7812L12.8008 69.8407C12.019 70.4157 11.4834 69.8995 11.4834 68.9039Z" stroke="white"/>
<path d="M36.6592 39.3436V31.7176C36.6592 31.0589 36.9591 30.5315 37.5538 30.1612L44.096 26.4132C44.8254 25.9189 45.6671 26.1439 45.6671 26.9406V35.0089C45.6671 35.5139 45.5773 35.9066 45.0387 36.2208L37.9765 40.2804C37.1947 40.8554 36.6592 40.3392 36.6592 39.3436Z" stroke="white"/>
<path d="M24.3701 61.7199V54.0938C24.3701 53.4352 24.67 52.9077 25.2648 52.5374L31.807 48.7894C32.5364 48.2951 33.378 48.5201 33.378 49.3168V57.3851C33.378 57.8901 33.2882 58.2829 32.7496 58.5971L25.6875 62.6566C24.9057 63.2316 24.3701 62.7154 24.3701 61.7199Z" stroke="white"/>
<path d="M48.9473 31.3358V23.7097C48.9473 23.0511 49.2472 22.5237 49.8419 22.1534L56.3841 18.4054C57.1135 17.9111 57.9552 18.1361 57.9552 18.9328V27.0011C57.9552 27.5061 57.8654 27.8988 57.3267 28.213L50.2646 32.2726C49.4828 32.8476 48.9473 32.3314 48.9473 31.3358Z" stroke="white"/>
<path d="M36.6582 53.7118V46.0857C36.6582 45.4271 36.9581 44.8997 37.5529 44.5294L44.0951 40.7814C44.8245 40.2871 45.6661 40.512 45.6661 41.3087V49.3771C45.6661 49.8821 45.5763 50.2748 45.0377 50.589L37.9756 54.6485C37.1938 55.2235 36.6582 54.7073 36.6582 53.7118Z" stroke="white"/>
<path d="M61.2363 24.1517V16.5257C61.2363 15.867 61.5362 15.3396 62.131 14.9693L68.6732 11.2213C69.4026 10.727 70.2442 10.952 70.2442 11.7487V19.817C70.2442 20.322 70.1544 20.7147 69.6158 21.029L62.5537 25.0885C61.7719 25.6635 61.2363 25.1473 61.2363 24.1517Z" stroke="white"/>
<path d="M48.9473 46.5277V38.9016C48.9473 38.243 49.2472 37.7156 49.8419 37.3453L56.3841 33.5973C57.1135 33.103 57.9552 33.328 57.9552 34.1247V42.193C57.9552 42.698 57.8654 43.0907 57.3267 43.4049L50.2646 47.4645C49.4828 48.0395 48.9473 47.5233 48.9473 46.5277Z" stroke="white"/>
<path d="M25.6777 42.7456C25.8125 42.7183 27.62 42.8906 28.5069 42.9804L29.9214 36.4131" stroke="white"/>
<path d="M13.3887 65.1218C13.5235 65.0946 15.331 65.2668 16.2178 65.3566L17.6323 58.7893" stroke="white"/>
<path d="M38.5635 35.5615C38.6983 35.5343 40.5058 35.7065 41.3926 35.7963L42.8071 29.229" stroke="white"/>
<path d="M26.2754 57.9377C26.4102 57.9105 28.2177 58.0827 29.1046 58.1726L30.519 51.6052" stroke="white"/>
<path d="M50.8525 27.5537C50.9874 27.5264 52.7948 27.6987 53.6817 27.7885L55.0962 21.2212" stroke="white"/>
<path d="M63.1416 20.3696C63.2764 20.3424 65.0839 20.5146 65.9708 20.6044L67.3852 14.0371" stroke="white"/>
</svg>
