<svg width="22" height="23" viewBox="0 0 22 23" fill="none" xmlns="http://www.w3.org/2000/svg">
<path fill-rule="evenodd" clip-rule="evenodd" d="M7.49823 5.72082L7.4918 6.55804L6.6668 6.56447L5.8418 6.57092V11.985V17.3991H6.67291H7.50402V18.2303V19.0614H8.33513H9.16624V18.2303V17.3991H9.99735H10.8285V18.2303V19.0614H11.6593H12.4901L12.4965 18.1879L12.5029 17.3144L12.8085 17.2839C13.2376 17.2411 13.7201 17.0724 14.2691 16.7732C14.8595 16.4513 15.4369 15.7772 15.6278 15.1869C15.7466 14.8194 15.7853 14.1037 15.7064 13.7325C15.5962 13.214 15.3262 12.6582 15.0208 12.3211C14.7283 11.9982 14.2481 11.7028 13.7985 11.5689C13.6775 11.5329 13.5622 11.4983 13.5422 11.4921C13.5216 11.4856 13.6112 11.4257 13.75 11.3529C14.1092 11.1647 14.286 11.0374 14.5333 10.7892C14.7893 10.5323 14.9263 10.3153 15.0309 10.0011C15.2338 9.3912 15.1843 8.5067 14.9169 7.96501C14.7981 7.7245 14.5757 7.4308 14.4151 7.30254C14.2457 7.16734 13.8168 6.95397 13.5035 6.84915C13.3097 6.7843 12.6322 6.64433 12.509 6.64369C12.4989 6.64364 12.4907 6.24745 12.4907 5.76328V4.88293L11.6657 4.88939L10.8407 4.89582L10.8343 5.73304L10.8278 6.57026H9.99704H9.16624V5.72693V4.88359H8.33545H7.50465L7.49823 5.72082ZM8.33513 9.47915V10.7258L9.78346 10.7253C10.6143 10.7251 11.3037 10.7145 11.4004 10.7005C11.6492 10.6645 11.8834 10.5744 12.1033 10.43C12.4413 10.2081 12.5236 10.0687 12.5635 9.65026C12.6035 9.23099 12.5104 8.85386 12.3233 8.67818C12.2264 8.5872 11.7527 8.36204 11.5922 8.3307C11.515 8.31562 11.3851 8.28736 11.3036 8.26788C11.1831 8.23911 10.8918 8.23248 9.74523 8.23248H8.33513V9.47915ZM8.33513 14.0609V15.7369L9.88124 15.7363C10.7316 15.7359 11.5336 15.7253 11.6635 15.7127C11.9189 15.6878 12.297 15.5651 12.6247 15.4007C12.8402 15.2926 13.1026 15.0368 13.1868 14.8527C13.2756 14.6587 13.3241 14.3899 13.3236 14.095C13.3226 13.5979 13.1937 13.2101 12.9477 12.9641C12.7498 12.7662 12.3334 12.5723 11.8551 12.4552C11.6574 12.4068 11.5674 12.4039 9.99124 12.3947L8.33513 12.385V14.0609Z" fill="#F73737"/>
</svg>
