<svg width="22" height="23" viewBox="0 0 22 23" fill="none" xmlns="http://www.w3.org/2000/svg">
<path fill-rule="evenodd" clip-rule="evenodd" d="M10.1847 3.08916C8.53086 3.24687 6.97515 3.86783 5.62489 4.90927C5.25413 5.19524 4.44678 6.00259 4.16082 6.37334C3.44348 7.30342 2.91664 8.34432 2.62504 9.4076C1.88862 12.0931 2.44146 14.8573 4.16082 17.0865C4.44678 17.4572 5.25413 18.2646 5.62489 18.5505C6.55496 19.2679 7.59586 19.7947 8.65914 20.0863C11.3446 20.8227 14.1088 20.2699 16.338 18.5505C16.7088 18.2646 17.5161 17.4572 17.8021 17.0865C18.842 15.7381 19.5057 14.0719 19.6156 12.5339C19.6273 12.3701 19.6498 12.2281 19.6656 12.2183C19.6814 12.2085 19.6943 11.9717 19.6943 11.692C19.6943 11.4123 19.6813 11.1915 19.6654 11.2013C19.6496 11.2112 19.627 11.0862 19.6154 10.9236C19.5057 9.388 18.8414 7.72082 17.8021 6.37334C17.5161 6.00259 16.7088 5.19524 16.338 4.90927C14.5517 3.53155 12.3563 2.88212 10.1847 3.08916ZM10.6669 7.36108C10.4667 7.51042 10.4729 7.43462 10.4729 9.72967C10.4729 11.493 10.4808 11.8498 10.5215 11.9265C10.5483 11.9769 11.0327 12.4795 11.5981 13.0436C12.6989 14.1418 12.7352 14.1694 12.9858 14.1019C13.2834 14.0218 13.3857 13.67 13.1886 13.4047C13.1345 13.332 12.6998 12.8835 12.2223 12.4082L11.3544 11.5439V9.59941C11.3544 7.88392 11.348 7.64142 11.2999 7.54016C11.1892 7.30684 10.8632 7.21466 10.6669 7.36108ZM2.31609 11.7299C2.31609 12.0189 2.32131 12.1371 2.32765 11.9926C2.33403 11.8482 2.33403 11.6117 2.32765 11.4672C2.32131 11.3227 2.31609 11.4409 2.31609 11.7299Z" fill="#F73737"/>
</svg>
