<svg width="22" height="23" viewBox="0 0 22 23" fill="none" xmlns="http://www.w3.org/2000/svg">
<g clip-path="url(#clip0_0_216)">
<path fill-rule="evenodd" clip-rule="evenodd" d="M3.61825 0.418917C2.88538 0.612062 2.28227 1.0958 1.94745 1.75898C1.65875 2.33081 1.67598 1.83736 1.67598 9.53753C1.67598 16.4164 1.67718 16.5163 1.76329 16.827C1.87041 17.2136 1.95437 17.3816 2.21111 17.7231C2.62739 18.2769 3.45093 18.7196 4.07002 18.7225L4.20817 18.7231L4.22115 12.353L4.23412 5.9829L4.32771 5.65212C4.72727 4.24026 5.79204 3.23556 7.16902 2.97117C7.42812 2.92142 8.30833 2.91063 12.1059 2.91063H16.7275L16.703 2.6178C16.6217 1.64873 15.9627 0.84594 14.9222 0.448737L14.674 0.353991L9.30293 0.34514C4.12481 0.336546 3.92058 0.33921 3.61825 0.418917ZM7.21895 4.00891C6.33422 4.2418 5.616 4.94873 5.34443 5.85399C5.27165 6.09664 5.26627 6.50875 5.25347 12.857C5.24513 16.9785 5.25588 19.7458 5.28106 19.9715C5.40154 21.0507 6.00744 21.8075 7.07822 22.2163L7.32637 22.311L12.6545 22.3232C18.5246 22.3366 18.2818 22.3465 18.8633 22.0714C19.5375 21.7526 20.065 21.1085 20.2562 20.3705C20.3172 20.1353 20.3244 19.3644 20.3244 13.1339C20.3244 6.17944 20.3242 6.15971 20.234 5.82542C20.0189 5.0286 19.4072 4.3735 18.6047 4.08063L18.2834 3.96337L12.8693 3.95503C8.26223 3.94794 7.42004 3.95598 7.21895 4.00891Z" fill="#F73737"/>
</g>
<defs>
<clipPath id="clip0_0_216">
<rect width="22" height="22" fill="white" transform="translate(0 0.332031)"/>
</clipPath>
</defs>
</svg>
