<?xml version="1.0" encoding="UTF-8"?>
<svg xmlns="http://www.w3.org/2000/svg" xmlns:xlink="http://www.w3.org/1999/xlink" width="20px" height="20px" viewBox="0 0 20 20" version="1.1">
<g id="surface1">
<path style=" stroke:none;fill-rule:nonzero;fill:rgb(100%,100%,100%);fill-opacity:1;" d="M 17.089844 2.550781 C 17.316406 2.496094 17.484375 2.292969 17.484375 2.054688 L 17.484375 0.511719 C 17.484375 0.226562 17.253906 0 16.972656 0 L 3.027344 0 C 2.746094 0 2.515625 0.226562 2.515625 0.511719 L 2.515625 2.054688 C 2.515625 2.296875 2.683594 2.496094 2.910156 2.550781 C 3.0625 5.296875 4.488281 7.8125 6.792969 9.355469 L 7.753906 10 L 6.792969 10.644531 C 4.488281 12.1875 3.0625 14.703125 2.910156 17.449219 C 2.683594 17.503906 2.515625 17.707031 2.515625 17.945312 L 2.515625 19.488281 C 2.515625 19.773438 2.746094 20 3.027344 20 L 16.972656 20 C 17.253906 20 17.484375 19.773438 17.484375 19.488281 L 17.484375 17.945312 C 17.484375 17.707031 17.316406 17.503906 17.089844 17.449219 C 16.9375 14.703125 15.511719 12.1875 13.207031 10.644531 L 12.246094 10 L 13.207031 9.355469 C 15.511719 7.8125 16.9375 5.296875 17.089844 2.550781 Z M 3.535156 1.019531 L 16.464844 1.019531 L 16.464844 1.542969 L 3.535156 1.542969 Z M 16.464844 18.980469 L 3.535156 18.980469 L 3.535156 18.457031 L 16.464844 18.457031 Z M 11.046875 9.578125 C 10.90625 9.671875 10.820312 9.828125 10.820312 10 C 10.820312 10.171875 10.90625 10.328125 11.046875 10.421875 L 12.640625 11.492188 C 14.65625 12.84375 15.914062 15.035156 16.070312 17.4375 L 3.929688 17.4375 C 4.085938 15.035156 5.34375 12.84375 7.359375 11.492188 L 8.953125 10.421875 C 9.09375 10.328125 9.179688 10.171875 9.179688 10 C 9.179688 9.828125 9.09375 9.671875 8.953125 9.578125 L 7.359375 8.507812 C 5.34375 7.15625 4.085938 4.964844 3.929688 2.5625 L 16.070312 2.5625 C 15.914062 4.964844 14.65625 7.15625 12.640625 8.507812 Z M 11.046875 9.578125 "/>
<path style=" stroke:none;fill-rule:nonzero;fill:rgb(100%,100%,100%);fill-opacity:1;" d="M 11.328125 7.023438 L 8.671875 7.023438 C 8.457031 7.023438 8.269531 7.15625 8.195312 7.351562 C 8.117188 7.550781 8.171875 7.773438 8.328125 7.914062 L 9.660156 9.105469 C 9.757812 9.191406 9.878906 9.234375 10 9.234375 C 10.121094 9.234375 10.242188 9.191406 10.339844 9.105469 L 11.667969 7.914062 C 11.828125 7.773438 11.882812 7.550781 11.804688 7.351562 C 11.730469 7.15625 11.542969 7.023438 11.328125 7.023438 Z M 11.328125 7.023438 "/>
<path style=" stroke:none;fill-rule:nonzero;fill:rgb(100%,100%,100%);fill-opacity:1;" d="M 9.980469 11.949219 L 8.6875 12.777344 C 7.554688 13.535156 6.875 14.808594 6.875 16.167969 L 13.378906 16.167969 C 13.378906 14.808594 12.699219 13.535156 11.570312 12.777344 L 10.277344 11.949219 C 10.183594 11.894531 10.070312 11.894531 9.980469 11.949219 Z M 9.980469 11.949219 "/>
</g>
</svg>
