<svg width="14" height="15" viewBox="0 0 14 15" fill="none" xmlns="http://www.w3.org/2000/svg">
<g clip-path="url(#clip0_26_3886)">
<path fill-rule="evenodd" clip-rule="evenodd" d="M5.28181 0.835493C4.92787 1.05118 4.59286 1.55824 4.59286 1.87795C4.59286 1.97354 4.48436 2.19863 4.35169 2.37801C4.16684 2.62804 4.08973 2.93976 4.02137 3.71337C3.90041 5.08285 3.90008 5.20437 4.01689 5.70706C4.18205 6.41843 4.42431 6.77379 5.12945 7.33937C6.02491 8.05763 6.00894 8.21929 5.02784 8.36498C3.83686 8.54173 3.26384 8.97988 3.05691 9.87173C2.92533 10.4394 2.92675 14.0833 3.05877 14.2921C3.14091 14.4221 3.18958 14.4275 3.29764 14.3195C3.46619 14.1509 4.72181 14.1376 4.88675 14.3025C4.97239 14.3881 5.0262 14.3881 5.07914 14.3025C5.18009 14.1393 8.77044 14.1393 8.93362 14.3025C9.01926 14.3881 9.07308 14.3881 9.12601 14.3025C9.22839 14.1368 10.5319 14.1508 10.7006 14.3195C10.8086 14.4275 10.8573 14.4221 10.9395 14.2921C11.0715 14.0833 11.0729 10.4394 10.9413 9.87173C10.7344 8.97988 10.1614 8.54173 8.97037 8.36498C7.98928 8.21929 7.97331 8.05763 8.86876 7.33937C9.57391 6.77379 9.81617 6.41843 9.98133 5.70706C10.0981 5.20437 10.0978 5.08285 9.97684 3.71337C9.90815 2.93582 9.8317 2.62848 9.64391 2.37451C9.40612 2.05284 9.40448 2.03195 9.57905 1.49831C9.87184 0.60318 9.91155 0.621009 7.63141 0.621555C5.84126 0.621884 5.59528 0.644305 5.28181 0.835493Z" fill="white"/>
</g>
<defs>
<clipPath id="clip0_26_3886">
<rect width="14" height="14" fill="white" transform="translate(0 0.4021)"/>
</clipPath>
</defs>
</svg>
