<svg width="20" height="20" viewBox="0 0 20 20" fill="none" xmlns="http://www.w3.org/2000/svg">
<path fill-rule="evenodd" clip-rule="evenodd" d="M9.31006 2.31914C6.30126 2.6363 3.84818 4.92668 3.34121 7.89209C3.29853 8.14185 3.26358 8.42216 3.26358 8.51505C3.26358 8.60789 3.25252 8.76461 3.23901 8.86328C3.2144 9.04251 3.21428 9.04266 3.02792 9.06739C2.59489 9.12481 2.11371 9.51814 1.96916 9.93278C1.90187 10.1258 1.89648 10.3133 1.89648 12.4594V14.7775L2.00229 15.0032C2.20537 15.4365 2.59192 15.7203 3.07381 15.79C3.42062 15.8401 5.15877 15.8367 5.39795 15.7854C5.67153 15.7268 5.85789 15.5402 5.91891 15.264C5.95176 15.1154 5.96044 14.5334 5.94903 13.2519C5.92826 10.9289 5.97692 11.1196 5.04924 9.72673L4.58637 9.03177L4.61423 8.63226C4.73505 6.90037 5.70877 5.32496 7.22878 4.40215C8.49016 3.63638 10.1006 3.43643 11.5566 3.86491C12.3888 4.10975 13.1839 4.58744 13.8289 5.22998C14.7454 6.14296 15.3448 7.48652 15.3945 8.73913L15.4065 9.04092L14.8844 9.82991C14.0235 11.1307 14.0705 10.9296 14.0515 13.397L14.0365 15.345L13.7519 15.6224C13.2827 16.0797 12.9688 16.3038 12.3974 16.5899C11.5521 17.013 10.981 17.1323 9.65326 17.163L8.6527 17.1862V17.8542V18.5222H9.44102C10.6722 18.5222 11.3656 18.4258 12.1956 18.1394C13.2972 17.7592 14.3427 17.0532 15.093 16.183L15.3994 15.8276L16.0382 15.8268C16.79 15.8259 17.1074 15.7868 17.361 15.6641C17.6133 15.5419 17.8701 15.2753 17.9977 15.0032L18.1035 14.7775V12.4594C18.1035 9.80273 18.1142 9.89506 17.762 9.5097C17.5397 9.26647 17.2482 9.104 16.9673 9.06676C16.8621 9.05277 16.7757 9.0303 16.7754 9.01675C16.7691 8.76929 16.6827 7.98739 16.6359 7.75443C15.9452 4.31426 12.7652 1.95494 9.31006 2.31914ZM9.2669 4.71635C9.09255 4.74726 8.83399 4.80741 8.69233 4.85004C8.15147 5.01279 7.39058 5.45125 7.05816 5.79171L6.90999 5.94344L7.26385 6.29564L7.61771 6.64787L7.77023 6.51009C8.72335 5.64902 10.2215 5.42922 11.4064 5.97665C11.7273 6.12489 11.9963 6.29924 12.2297 6.51009L12.3823 6.64787L12.7361 6.29564L13.09 5.94344L12.9418 5.79171C12.7479 5.59315 12.3109 5.2937 11.9521 5.1136C11.1481 4.71001 10.1426 4.56125 9.2669 4.71635Z" fill="white"/>
</svg>
