<svg width="27" height="27" viewBox="0 0 27 27" fill="none" xmlns="http://www.w3.org/2000/svg">
<path fill-rule="evenodd" clip-rule="evenodd" d="M8.19757 3.5417C6.19704 4.58838 5.66717 5.40491 6.08967 6.78972C6.60626 8.48355 6.62124 9.19968 6.14937 9.67155C5.9127 9.90822 5.35772 10.1578 4.91623 10.2259C2.86127 10.5434 2.29153 11.126 2.1521 13.0535C1.99643 15.207 2.84482 16.6645 4.2541 16.6645C4.59012 16.6645 5.19108 16.8006 5.58933 16.967C6.47274 17.3362 6.71342 18.0768 6.34364 19.2886C5.62751 21.6353 5.93421 22.3101 8.24946 23.4842C9.65895 24.1988 9.87452 24.2515 10.494 24.0349C10.906 23.8908 11.4135 23.4468 11.7658 22.9222C12.8198 21.3531 14.1412 21.3387 15.2309 22.8849C16.2094 24.2731 16.8658 24.4245 18.4736 23.6331C19.1845 23.2831 20.0139 22.802 20.3166 22.5638C21.0542 21.9835 21.2409 20.9071 20.8026 19.7596C20.1269 17.9903 20.5467 17.0124 22.084 16.7751C24.3235 16.4291 24.7853 15.8695 24.7853 13.5005C24.7853 11.1314 24.3235 10.5718 22.084 10.2259C21.6425 10.1578 21.0968 9.9175 20.8711 9.6918C20.3809 9.20158 20.3343 7.94756 20.7775 7.17236C21.564 5.7962 20.9063 4.60989 18.7508 3.51681C17.3369 2.80005 17.1272 2.74879 16.5007 2.96795C16.0788 3.1154 15.562 3.56976 15.1733 4.13444C14.1357 5.64285 12.8755 5.65298 11.7955 4.16207C10.6641 2.59987 10.1631 2.51338 8.19757 3.5417ZM11.8042 10.4003C10.7276 10.9697 9.91418 12.3036 9.91418 13.5005C9.91418 15.3344 11.6662 17.0864 13.5001 17.0864C15.334 17.0864 17.0861 15.3344 17.0861 13.5005C17.0861 12.3036 16.2727 10.9697 15.1961 10.4003C14.6909 10.1331 13.9277 9.91455 13.5001 9.91455C13.0725 9.91455 12.3094 10.1331 11.8042 10.4003Z" fill="#F73737"/>
</svg>
