<svg width="99" height="103" fill="none" xmlns="http://www.w3.org/2000/svg"><path d="M36.104 56.924v37.722m0-37.722 30.948-18.597M36.104 56.924 5.409 38.327m30.695 56.32 30.948-18.334M36.104 94.646l-18.89-12.928M98 19.729v38.25L67.052 76.313M98 19.729 67.052 38.327M98 19.729 67.052 1 36.104 19.73m30.948 18.597v37.986m0-37.986L36.104 19.729m0 0L5.409 38.327m0 0v35.311m1.268 18.898V81.985c0-1.972.703-4.186 2.187-5.983M6.677 92.536v1.055c0 2.11-3.805 2.11-3.805 0v-1.055m3.805 0c7.103 5.803-11.415 6.067-3.805 0m0 0V81.984c0-3.148.565-6.004 2.537-8.346m10.147-6.904.507-.313c2.283-1.056 3.777 2.112 2.537 3.165l-.761.452m-2.283-3.304c2.283-5.326 7.61 3.907 2.283 3.304m-2.283-3.304L13.78 67.83m4.059 2.208-1.015.603m-1.268 26.907V86.997c0-1.721.535-3.627 1.658-5.28m-1.658 15.831v1.055c0 2.11-3.805 2.11-3.805 0v-1.055m3.805 0c7.103 5.803-11.415 6.067-3.805 0m0 0V86.996c0-2.842.46-5.445 2-7.648m10.684-7.602.507-.313c2.283-1.056 3.777 2.112 2.537 3.165l-.761.452m-2.284-3.304c2.284-5.325 7.61 3.907 2.284 3.304m-2.284-3.304-3.297 2.036m5.58 1.268-1.585.942m-13.128-7.066-4.058 2.507c-1.031.67-1.866 1.408-2.537 2.205m6.596-4.712 1.775-1.096m-1.775 1.097c-3.16-4.21-2.323-8.182 0-8.737m11.542 16.745-3.171 1.884a9.302 9.302 0 0 0-3.162 2.899m6.333-4.784 4.439 2.94c2.155.934 3.61.188 4.277-1.32m-8.716-1.62 1.585-.942m7.131 2.563c1.217-2.751-.195-8.04-4.784-10.288l-13.191-7.65c-.843-.467-1.623-.585-2.284-.427m20.26 18.365c-1.995.791-3.517 0-7.132-2.563m-3.995-2.21-4.313-3.14m4.313 3.14-1.322.816m-2.99-3.957-1.523.905m4.513 3.052-2.99 1.847c-1.326.86-2.327 1.835-3.074 2.903m6.064-4.75-4.513-3.052m0 0-3.805 2.26a9.29 9.29 0 0 0-2.633 2.196m4.916-8.172c-2.114-2.46-3.297-4.575-1.775-7.64m1.746 19.158-4.887-3.346m53.368-28.31v25.587L41.177 85.15V60.09l21.055-12.398ZM50.817 59.297c12.43-6.858 9.893 11.87 0 17.015-9.64 5.407-8.371-12.396 0-17.015Zm.76 7.123c1.015-.528 1.523 1.055 0 1.846-.76.396-1.014-1.055 0-1.846Zm.508-2.638c.033-1.346.274-2.095 1.015-3.43-2.625.939-3.652 1.943-3.298 6.068-.908-.41-1.258-.76-1.268-1.847-2.03 2.11-3.044 5.803.76 5.012-.846 1.09-1.357 1.61-2.536 1.847-.254 2.374 2.537 3.165 4.82-.961-.01 1.388-.17 2.17-1.776 3.599 2.752-.959 4.417-1.34 4.059-6.332.691.053 1.043.344 1.522 1.847 2.283-3.165 2.283-6.067-1.776-4.748.948-1.135 1.594-1.665 3.298-2.11-.761-2.639-2.79-2.639-4.82 1.055Zm29.937-23.214c12.43-6.859 9.893 11.87 0 17.014-9.64 5.408-8.372-12.395 0-17.014Zm.76 7.122c1.015-.527 1.523 1.055 0 1.847-.76.396-1.014-1.055 0-1.847Zm.508-2.638c.033-1.345.274-2.094 1.015-3.429-2.625.938-3.652 1.942-3.298 6.067-.908-.41-1.259-.759-1.269-1.846-2.029 2.11-3.044 5.803.761 5.012-.846 1.09-1.358 1.61-2.536 1.846-.254 2.374 2.537 3.166 4.82-.96-.01 1.387-.17 2.17-1.776 3.598 2.752-.958 4.417-1.34 4.059-6.33.691.052 1.043.343 1.522 1.846 2.283-3.166 2.283-6.068-1.776-4.748.948-1.135 1.594-1.665 3.298-2.11-.761-2.639-2.79-2.639-4.82 1.054Zm9.64-15.827v25.588l-21.054 11.87v-25.06L92.93 29.226Z" stroke="#fff" stroke-width=".8"/></svg>