<svg width="138" height="137" fill="none" xmlns="http://www.w3.org/2000/svg"><path d="M50.217 75.75v50.421m0-50.421L93.61 50.892M50.217 75.75 7.182 50.892m43.035 75.279 43.392-24.506m-43.392 24.506L23.734 108.89M137 26.034V77.16l-43.391 24.505M137 26.035 93.609 50.891M137 26.034 93.609 1 50.217 26.034M93.61 50.892v50.773m0-50.773L50.217 26.034m0 0L7.182 50.892m0 0v47.199M8.96 123.35v-14.104c0-2.634.985-5.594 3.065-7.995M8.96 123.35v1.41c0 2.821-5.335 2.821-5.335 0v-1.41m5.335 0c9.959 7.757-16.005 8.11-5.335 0m0 0v-14.104c0-4.208.792-8.025 3.557-11.155m14.226-9.23.712-.418c3.2-1.41 5.295 2.824 3.556 4.231l-1.067.605m-3.2-4.417c3.2-7.118 10.67 5.223 3.2 4.417m-3.2-4.417-2.49 1.465m5.69 2.952-1.422.806m-1.779 35.964v-14.103c0-2.3.75-4.848 2.325-7.056m-2.325 21.159v1.411c0 2.82-5.335 2.82-5.335 0v-1.411m5.335 0c9.959 7.757-16.005 8.11-5.335 0m0 0v-14.103c0-3.8.646-7.279 2.805-10.224m14.979-10.16.711-.42c3.201-1.41 5.295 2.824 3.557 4.232l-1.067.604m-3.201-4.417c3.2-7.118 10.67 5.223 3.2 4.417m-3.2-4.417-4.624 2.722m7.825 1.695-2.223 1.259m-18.406-9.444-5.69 3.35c-1.446.895-2.616 1.882-3.557 2.948m9.247-6.298 2.49-1.466m-2.49 1.466c-4.43-5.628-3.256-10.935 0-11.678m16.183 22.382-4.446 2.518a12.837 12.837 0 0 0-4.433 3.875m8.879-6.393 6.224 3.928c3.021 1.248 5.062.252 5.997-1.762m-12.221-2.166 2.223-1.26m9.998 3.426c1.706-3.678-.274-10.748-6.708-13.752L19.63 80.686c-1.181-.624-2.275-.782-3.201-.571m28.404 24.548c-2.796 1.057-4.93 0-9.998-3.426m-5.602-2.954-6.046-4.198m6.046 4.198-1.853 1.09m-4.193-5.288-2.134 1.209m6.327 4.08-4.193 2.468c-1.859 1.151-3.262 2.453-4.309 3.88m8.502-6.348-6.327-4.08m0 0-5.335 3.022a12.898 12.898 0 0 0-3.693 2.935m6.894-10.924c-2.964-3.288-4.624-6.115-2.49-10.212m2.45 25.607-6.854-4.471m74.826-37.842v34.202l-29.52 15.866V79.981l29.52-16.572ZM70.846 78.923c17.428-9.167 13.871 15.867 0 22.742-13.515 7.229-11.737-16.568 0-22.742Zm1.067 9.52c1.423-.705 2.134 1.41 0 2.468-1.067.53-1.422-1.41 0-2.468Zm.712-3.526c.045-1.798.384-2.799 1.422-4.583-3.68 1.254-5.12 2.596-4.623 8.11-1.273-.548-1.765-1.015-1.779-2.469-2.845 2.82-4.268 7.757 1.067 6.7-1.187 1.456-1.904 2.15-3.557 2.468-.355 3.173 3.557 4.23 6.758-1.285-.014 1.855-.237 2.9-2.49 4.81 3.86-1.28 6.194-1.79 5.691-8.462.97.07 1.463.46 2.134 2.468 3.201-4.23 3.201-8.11-2.49-6.346 1.33-1.517 2.235-2.225 4.624-2.821-1.067-3.526-3.912-3.526-6.758 1.41Zm41.972-31.028c17.428-9.167 13.871 15.867 0 22.742-13.515 7.228-11.737-16.568 0-22.742Zm1.067 9.52c1.423-.705 2.134 1.41 0 2.468-1.067.53-1.422-1.41 0-2.468Zm.712-3.526c.045-1.798.384-2.799 1.422-4.584-3.68 1.255-5.119 2.597-4.623 8.11-1.273-.547-1.765-1.015-1.779-2.468-2.845 2.82-4.268 7.757 1.067 6.7-1.187 1.456-1.904 2.15-3.556 2.467-.356 3.174 3.556 4.231 6.757-1.284-.014 1.855-.237 2.9-2.489 4.81 3.859-1.28 6.193-1.79 5.69-8.462.97.07 1.463.46 2.134 2.468 3.201-4.23 3.201-8.11-2.489-6.346 1.328-1.517 2.234-2.226 4.623-2.821-1.067-3.526-3.912-3.526-6.757 1.41Zm13.516-21.156V72.93l-29.52 15.867V55.299l29.52-16.572Z" stroke="#fff"/></svg>