<svg width="95" height="92" fill="none" xmlns="http://www.w3.org/2000/svg"><path d="m29.749 91 .579-.288v-5.763M29.749 91l-6.464-3.746V70.253M29.75 91V61.032l-5.113 2.978m-1.35-.769 1.35.769m-1.35-.769v.96m0-.96-3.474-2.128m4.824 2.897v-.769m5.692-3.17-5.692 3.17m5.692-3.17-6.56-3.553-.29.156m6.85 3.398v24.877M24.636 63.24l-6.367-3.746m0 0v.673l1.543.945m-1.543-1.618.868-.47m5.017 7.386 4.63 2.593m0 .96-4.63-2.689m0 .865 4.63 2.69m0 .864-4.63-2.69m-.676-12.33-.482.261m.482-.26v-2.559m0-6.82 7.622 4.419m-7.622-4.418v4.802m0-4.802 1.93-1.104m5.692 5.522v33.81m0-33.81L94 15.6M31.1 85.525l-.772-.576m.772.576L94 49.41V15.6m0 0-7.814-4.419-6.753 3.843m0 0-.676-.48-1.93 1.112m2.606-.633 5.98 3.554M33.127 40.861l-.58 1.249m.58-1.249 6.463 3.938m-6.463-3.938 3.376-1.947m-3.955 3.196 6.753 3.842m-6.753-3.842-1.008.576m53.875-24.109L39.589 44.8m45.825-26.222.675.577L39.3 45.952m.29-1.153-.29 1.153m-2.75 24.013c-2.707-5.73.956-18.347 11.626-24.59 4.881-2.55 8.098-1.526 9.556 1.345M36.55 69.965c1.625 3.439 5.547 4.396 11.626 0 9.155-7.083 12.162-18.114 9.556-23.245M36.55 69.965c4.777 14.023 29.474-8.453 21.182-23.245m-3.06 8.645c.554 1.723.004 3.356-2.154 7.108-.382-1.367-.702-2.205-1.544-3.362-.75-1.03-1.158-.096-.965.384.59 1.111.642 1.86.58 3.266-.5 4.008-2.337 4.828-5.982 5.955 1.695-2.597 2.1-3.931 2.508-6.243-1.158 2.017-2.241 3.55-4.148 5.187-2.123 1.536-3.67-1.416-3.57-3.17 2.343-.449 3.408-1.071 4.92-2.786-1.736.48-2.315.577-3.473.48-2.315-.384-1.447-4.61 1.254-7.972.563 2.311 1.087 3.003 2.22 3.65.578 0-.194-1.056-.29-1.92-.318-2.848.326-4.058 1.64-5.572 1.91-1.865 2.79-2.05 4.341-2.305-1.663 2.71-2.199 4.113-2.508 6.436 1.831-3.325 2.746-4.422 4.245-5.475 2.11-1.288 3.183.96 3.57 3.17-2.313.725-3.35 1.238-4.824 2.305-.483.384-.29.864.386.576 1.694-.942 3.454-.769 3.794.288Zm0 0c-.01-.032.011.032 0 0Zm11.972-3.074c-2.707-5.729.957-18.347 11.627-24.589 4.88-2.55 8.097-1.527 9.556 1.345M66.643 52.291c1.626 3.44 5.547 4.396 11.627 0 9.154-7.082 12.162-18.113 9.556-23.244M66.643 52.291c4.777 14.024 29.474-8.452 21.183-23.244m-3.06 8.645c.554 1.722.003 3.355-2.155 7.107-.381-1.366-.702-2.205-1.544-3.361-.75-1.031-1.157-.096-.964.384.59 1.11.642 1.86.579 3.265-.499 4.009-2.337 4.829-5.982 5.956 1.695-2.597 2.1-3.932 2.509-6.244-1.158 2.017-2.242 3.55-4.149 5.187-2.122 1.537-3.67-1.415-3.57-3.17 2.343-.448 3.408-1.07 4.92-2.785-1.736.48-2.314.576-3.472.48-2.316-.384-1.447-4.61 1.254-7.972.562 2.31 1.086 3.002 2.219 3.65.579 0-.193-1.057-.29-1.921-.317-2.847.326-4.058 1.64-5.571 1.91-1.865 2.79-2.05 4.342-2.305-1.663 2.71-2.2 4.113-2.508 6.435 1.831-3.324 2.746-4.422 4.244-5.475 2.11-1.287 3.184.96 3.57 3.17-2.313.726-3.35 1.238-4.824 2.305-.482.384-.29.865.386.576 1.694-.941 3.454-.768 3.794.289Zm0 0c-.01-.032.01.032 0 0ZM12.48 80.915l.58-.289v-5.763m-.58 6.052-6.463-3.746V53.156m6.463 27.759V50.947l-5.113 2.977m-1.35-.768 1.35.768m-1.35-.768L1 50.082v-.672m6.367 4.514v-.768m5.692-3.17-5.692 3.17m5.692-3.17L6.5 46.432l-.193.105m6.753 3.45v24.876M7.367 53.156 1 49.41m0 0 5.21-2.821.096-.052m.579 9.788 4.63 2.594m0 .96-4.63-2.689m0 .864 4.63 2.69m0 .864-4.63-2.69m6.174 15.945.868.577M6.306 37.115l7.621 4.419m-7.621-4.419 9.069-5.187m-9.069 5.187v9.422m7.621-5.003 62.9-36.116m-62.9 36.116V75.44m62.9-70.022L69.014 1 62.26 4.842m14.568.576v10.238M62.26 4.842l-.675-.48L15.953 30.68M62.26 4.842l5.982 3.554M15.953 30.68l-.579 1.248m.58-1.248 6.463 3.938m-7.043-2.69 6.754 3.842M68.242 8.396 22.417 34.618M68.242 8.396l.675.576-46.79 26.798m.29-1.152-.29 1.152m-8.2 39.67 9.358-5.187m0 0v-6.051m17.168-27.567c-1.057-2.785-5.524-3.595-10.222-.864-4.92 2.86-8.103 7.3-10.708 14.407-1.061 3.362-1.254 6.496-.386 8.847m21.316-22.39-3.95 2.279m3.95-2.279 9.845-5.678M19.137 59.025l3.859-2.09m.29 7.267c-1.688-.67-2.454-1.357-3.474-3.089m3.184-4.178c-.607-.809-.837-1.33-.965-2.434.593-.06.912-.134 1.447-.385m0 0V52.1m0 0c-2.07-1.312-1.209-3.411 1.544-7.972.111.86.193 1.317.386 2.066m0 0 1.429-.817m0 0c-.01-3.98 1.175-6.34 6.096-7.3-1.125 1.81-1.777 2.832-2.401 5.187m-3.695 2.113 3.695-2.113m0 0 1.007-.577m0 0c.983-2.143 3.516-4.994 4.963-3.772m13.796-7.957c2.605-8.826 15.05-19.295 20.355-11.74m-20.355 11.74 3.473-2.003m16.882-9.737-4.148 2.393m4.148-2.393 6.175-3.561M53.77 28.954c.446-1.028.745-1.493 1.35-2.116-.025.576-.009.862.097 1.281m-1.447.835 1.447-.835m0 0 1.736-1.001m0 0c.051-3.362 1.64-5.37 6.078-6.427-.918 1.319-1.43 2.078-2.219 4.201m-3.859 2.226 3.86-2.226m0 0 1.543-.89m0 0c1.986-2.295 3.183-3.407 4.148-2.392m-4.148 2.392 4.148-2.392M26.47 71.31c-.965-.48-.965 1.056 0 1.728.827.577 1.061-1.056 0-1.728Zm-1.254 3.361c0-2.017 2.508-.768 2.508 1.345v5.379c.097 1.92-2.508.672-2.508-1.249v-5.475Zm1.254 8.549c-.965-.48-.965 1.056 0 1.729.827.576 1.061-1.057 0-1.73ZM47.21 56.998c-1.833 1.056-1.207 3.349 0 2.881 1.736-.672 1.833-3.65 0-2.881Zm0-1.537c-3.184 1.921-3.666 7.78 0 5.86 3.482-1.826 3.502-7.973 0-5.86Zm30.094-16.137c-1.833 1.057-1.206 3.349 0 2.882 1.736-.672 1.833-3.65 0-2.882Zm0-1.536c-3.184 1.92-3.666 7.78 0 5.859 3.483-1.825 3.502-7.972 0-5.86ZM9.2 61.224c-.965-.48-.965 1.057 0 1.729.827.576 1.061-1.056 0-1.729Zm-1.254 3.362c0-2.017 2.508-.768 2.508 1.345v5.379c.097 1.92-2.508.672-2.508-1.25v-5.474ZM9.2 73.135c-.965-.48-.965 1.056 0 1.728.827.577 1.061-1.056 0-1.728Z" stroke="#fff" stroke-width=".6"/></svg>