<svg xmlns="http://www.w3.org/2000/svg" width="552" height="748" fill="none"><style>.B{fill:#fff}.C{color-interpolation-filters:sRGB}.D{flood-opacity:0}</style><g opacity=".3"><g stroke="#fff" stroke-width=".5"><path d="M515.937 729.337 127.06 802.124m.331-.994 220.053-212.957M347.444 588.173l118.779 180.973M466.223 769.146 402.76 471.773 218.284 179.429m0-.001 248.376 97.031M403.093 474.093l92.989-385.637m0 0-277.799 90.972m251.694 100.345 28.095-190.655m-30.084 189.993-64.564 193.987m64.232-192.992 39.562 233.063m0 0-103.463-41.065M508.544 512.505 50.397 637.378M348.439 588.504l55.647-117.395m-55.647 117.395L50.396 637.378M515.606 730.331 347.444 588.172M514.942 729.006 50.397 637.378M50.397 637.378l416.158 134.088m0 0 47.393-42.792m-386.888 73.45L50.396 637.378"/></g><g filter="url(#A)" class="B"><circle cx="50.373" cy="637.677" r="7" transform="rotate(198.409 50.373 637.677)"/></g><g filter="url(#B)" class="B"><circle cx="466.117" cy="769.36" r="7" transform="rotate(198.409 466.117 769.36)"/></g><g filter="url(#C)" class="B"><circle cx="513.752" cy="727.636" r="7" transform="rotate(198.409 513.752 727.636)"/></g><g filter="url(#D)" class="B"><circle cx="348.596" cy="588.81" r="7" transform="rotate(198.409 348.596 588.81)"/></g><g filter="url(#E)" class="B"><circle cx="404.128" cy="473.414" r="7" transform="rotate(198.409 404.128 473.414)"/></g><g filter="url(#F)" class="B"><circle cx="468.529" cy="279.441" r="7" transform="rotate(198.409 468.529 279.441)"/></g><g filter="url(#G)" class="B"><circle cx="497.555" cy="88.029" r="7" transform="rotate(198.409 497.555 88.029)"/></g><g filter="url(#H)" class="B"><circle cx="216.967" cy="180.566" r="7" transform="rotate(198.409 216.967 180.566)"/></g></g><defs><filter id="A" x="23.371" y="610.675" width="54.004" height="54.004" filterUnits="userSpaceOnUse" class="C"><feFlood result="A" class="D"/><feColorMatrix in="SourceAlpha" values="0 0 0 0 0 0 0 0 0 0 0 0 0 0 0 0 0 0 127 0" result="B"/><feOffset/><feGaussianBlur stdDeviation="10"/><feComposite in2="B" operator="out"/><feColorMatrix values="0 0 0 0 1 0 0 0 0 1 0 0 0 0 1 0 0 0 0.02 0"/><feBlend in2="A"/><feBlend in="SourceGraphic"/><feGaussianBlur stdDeviation="5"/></filter><filter id="B" x="439.115" y="742.357" width="54.004" height="54.004" filterUnits="userSpaceOnUse" class="C"><feFlood result="A" class="D"/><feColorMatrix in="SourceAlpha" values="0 0 0 0 0 0 0 0 0 0 0 0 0 0 0 0 0 0 127 0" result="B"/><feOffset/><feGaussianBlur stdDeviation="10"/><feComposite in2="B" operator="out"/><feColorMatrix values="0 0 0 0 1 0 0 0 0 1 0 0 0 0 1 0 0 0 0.02 0"/><feBlend in2="A"/><feBlend in="SourceGraphic"/></filter><filter id="C" x="486.75" y="700.634" width="54.004" height="54.004" filterUnits="userSpaceOnUse" class="C"><feFlood result="A" class="D"/><feColorMatrix in="SourceAlpha" values="0 0 0 0 0 0 0 0 0 0 0 0 0 0 0 0 0 0 127 0" result="B"/><feOffset/><feGaussianBlur stdDeviation="10"/><feComposite in2="B" operator="out"/><feColorMatrix values="0 0 0 0 1 0 0 0 0 1 0 0 0 0 1 0 0 0 0.02 0"/><feBlend in2="A"/><feBlend in="SourceGraphic"/><feGaussianBlur stdDeviation="5"/></filter><filter id="D" x="321.594" y="561.808" width="54.004" height="54.004" filterUnits="userSpaceOnUse" class="C"><feFlood result="A" class="D"/><feColorMatrix in="SourceAlpha" values="0 0 0 0 0 0 0 0 0 0 0 0 0 0 0 0 0 0 127 0" result="B"/><feOffset/><feGaussianBlur stdDeviation="10"/><feComposite in2="B" operator="out"/><feColorMatrix values="0 0 0 0 1 0 0 0 0 1 0 0 0 0 1 0 0 0 0.02 0"/><feBlend in2="A"/><feBlend in="SourceGraphic"/><feGaussianBlur stdDeviation="5"/></filter><filter id="E" x="377.126" y="446.412" width="54.004" height="54.004" filterUnits="userSpaceOnUse" class="C"><feFlood result="A" class="D"/><feColorMatrix in="SourceAlpha" values="0 0 0 0 0 0 0 0 0 0 0 0 0 0 0 0 0 0 127 0" result="B"/><feOffset/><feGaussianBlur stdDeviation="10"/><feComposite in2="B" operator="out"/><feColorMatrix values="0 0 0 0 1 0 0 0 0 1 0 0 0 0 1 0 0 0 0.02 0"/><feBlend in2="A"/><feBlend in="SourceGraphic"/><feGaussianBlur stdDeviation="5"/></filter><filter id="F" x="441.527" y="252.439" width="54.004" height="54.004" filterUnits="userSpaceOnUse" class="C"><feFlood result="A" class="D"/><feColorMatrix in="SourceAlpha" values="0 0 0 0 0 0 0 0 0 0 0 0 0 0 0 0 0 0 127 0" result="B"/><feOffset/><feGaussianBlur stdDeviation="10"/><feComposite in2="B" operator="out"/><feColorMatrix values="0 0 0 0 1 0 0 0 0 1 0 0 0 0 1 0 0 0 0.02 0"/><feBlend in2="A"/><feBlend in="SourceGraphic"/><feGaussianBlur stdDeviation="5"/></filter><filter id="G" x="470.553" y="61.027" width="54.004" height="54.004" filterUnits="userSpaceOnUse" class="C"><feFlood result="A" class="D"/><feColorMatrix in="SourceAlpha" values="0 0 0 0 0 0 0 0 0 0 0 0 0 0 0 0 0 0 127 0" result="B"/><feOffset/><feGaussianBlur stdDeviation="10"/><feComposite in2="B" operator="out"/><feColorMatrix values="0 0 0 0 1 0 0 0 0 1 0 0 0 0 1 0 0 0 0.02 0"/><feBlend in2="A"/><feBlend in="SourceGraphic"/><feGaussianBlur stdDeviation="5"/></filter><filter id="H" x="189.965" y="153.564" width="54.004" height="54.004" filterUnits="userSpaceOnUse" class="C"><feFlood result="A" class="D"/><feColorMatrix in="SourceAlpha" values="0 0 0 0 0 0 0 0 0 0 0 0 0 0 0 0 0 0 127 0" result="B"/><feOffset/><feGaussianBlur stdDeviation="10"/><feComposite in2="B" operator="out"/><feColorMatrix values="0 0 0 0 1 0 0 0 0 1 0 0 0 0 1 0 0 0 0.02 0"/><feBlend in2="A"/><feBlend in="SourceGraphic"/><feGaussianBlur stdDeviation="5"/></filter></defs></svg>