<svg width="120" height="120" fill="none" xmlns="http://www.w3.org/2000/svg"><path d="M43.703 66.337v44.071m0-44.071 37.649-21.728M43.703 66.337 6.363 44.609m37.34 65.799 37.649-21.419m-37.649 21.419L20.725 95.304M119 22.882V67.57L81.352 88.99M119 22.881 81.352 44.609M119 22.882 81.352 1 43.703 22.882m37.649 21.727v44.38m0-44.38L43.703 22.882m0 0L6.363 44.609m0 0v41.255m1.543 22.079V95.616c0-2.303.855-4.89 2.66-6.99m-2.66 19.317v1.233c0 2.465-4.628 2.465-4.628 0v-1.233m4.629 0c8.64 6.78-13.887 7.088-4.63 0m0 0V95.615c0-3.678.688-7.014 3.087-9.75m12.343-8.067.617-.366c2.778-1.233 4.595 2.468 3.086 3.698l-.925.529m-2.778-3.861c2.778-6.222 9.258 4.565 2.778 3.86m-2.778-3.86-2.16 1.28m4.938 2.58-1.235.705m-1.543 31.436v-12.328c0-2.01.651-4.237 2.018-6.167M18.707 113.8v1.232c0 2.466-4.629 2.466-4.629 0v-1.232m4.63 0c8.64 6.78-13.887 7.088-4.63 0m0 0v-12.328c0-3.321.56-6.362 2.434-8.936m12.996-8.882.617-.366c2.778-1.232 4.595 2.468 3.086 3.699l-.926.528m-2.777-3.86c2.777-6.222 9.258 4.565 2.777 3.86m-2.777-3.86-4.012 2.378m6.79 1.482-1.93 1.1m-15.97-8.254L9.45 83.287c-1.254.783-2.269 1.645-3.085 2.577m8.023-5.504 2.16-1.281m-2.16 1.28c-3.844-4.918-2.825-9.557 0-10.207m14.04 19.564-3.857 2.2a11.158 11.158 0 0 0-3.845 3.388m7.703-5.588 5.4 3.434c2.622 1.09 4.392.22 5.203-1.541m-10.603-1.893 1.929-1.101m8.674 2.994c1.48-3.215-.237-9.394-5.82-12.02l-16.047-8.937c-1.025-.546-1.974-.684-2.777-.5M39.03 91.61c-2.425.924-4.277 0-8.674-2.994m-4.86-2.583-5.247-3.67m5.246 3.67-1.608.954m-3.638-4.623L18.4 83.42m5.49 3.566-3.639 2.157c-1.612 1.007-2.83 2.144-3.738 3.392m7.376-5.55-5.49-3.565m0 0L13.77 86.06a11.206 11.206 0 0 0-3.204 2.566m5.981-9.548c-2.571-2.874-4.012-5.345-2.16-8.927m2.125 22.383-5.946-3.908M75.488 55.55v29.895L49.876 99.314V70.035L75.49 55.55ZM61.603 69.11c15.12-8.012 12.035 13.87 0 19.88-11.727 6.317-10.184-14.483 0-19.88Zm.926 8.322c1.234-.617 1.851 1.233 0 2.157-.926.463-1.235-1.233 0-2.157Zm.617-3.082c.04-1.572.333-2.447 1.234-4.007-3.193 1.097-4.442 2.27-4.012 7.089-1.104-.479-1.53-.887-1.543-2.157-2.468 2.465-3.703 6.78.926 5.855-1.03 1.273-1.652 1.88-3.086 2.157-.308 2.774 3.086 3.699 5.864-1.122-.013 1.621-.206 2.535-2.16 4.204 3.348-1.12 5.373-1.564 4.937-7.396.841.062 1.27.401 1.851 2.157 2.778-3.698 2.778-7.088-2.16-5.547 1.153-1.326 1.94-1.945 4.012-2.466-.926-3.082-3.394-3.082-5.863 1.233Zm36.417-27.121c15.121-8.013 12.035 13.869 0 19.878-11.726 6.318-10.183-14.481 0-19.878Zm.926 8.321c1.234-.616 1.852 1.233 0 2.158-.926.462-1.234-1.233 0-2.158Zm.617-3.082c.04-1.572.334-2.446 1.235-4.006-3.193 1.096-4.442 2.269-4.012 7.088-1.104-.478-1.531-.887-1.543-2.157-2.469 2.465-3.703 6.78.926 5.855-1.03 1.274-1.652 1.881-3.086 2.158-.309 2.774 3.086 3.698 5.863-1.123-.012 1.622-.206 2.536-2.16 4.205 3.348-1.12 5.374-1.565 4.937-7.397.842.062 1.27.402 1.852 2.157 2.777-3.698 2.777-7.088-2.16-5.547 1.153-1.325 1.939-1.945 4.011-2.466-.925-3.081-3.394-3.081-5.863 1.233Zm11.728-18.491V63.87L87.22 77.74V48.462l25.613-14.485Z" stroke="#fff"/></svg>