<svg xmlns="http://www.w3.org/2000/svg" width="461" height="512" fill="none"><style>.B{color-interpolation-filters:sRGB}.C{flood-opacity:0}</style><g opacity=".3"><g stroke="#fff" stroke-width=".5"><path d="m263.937 321.336-388.877 72.788m.331-.995L95.444 180.173M95.444 180.173l118.779 180.973M214.223 361.146 150.76 63.773-33.716-228.571M151.093 66.093l92.989-385.637m-28.094 190.655L151.424 65.098m64.232-192.992 39.562 233.063m0 0L151.755 64.104M256.543 104.505l-458.147 124.873M96.439 180.504l55.647-117.395M96.439 180.504l-298.043 48.874M263.606 322.331 95.444 180.173M262.942 321.005l-464.546-91.627M-201.603 229.378l416.158 134.088m0 0 47.392-42.792"/></g><g filter="url(#A)"><circle cx="214.116" cy="361.359" r="7" transform="rotate(198.409 214.116 361.359)" fill="#fff"/></g><g filter="url(#B)"><circle cx="261.752" cy="319.636" r="7" transform="rotate(198.409 261.752 319.636)" fill="#fff"/></g><g filter="url(#C)"><circle cx="96.596" cy="180.81" r="7" transform="rotate(198.409 96.596 180.81)" fill="#fff"/></g><g filter="url(#D)"><circle cx="152.128" cy="65.414" r="7" transform="rotate(198.409 152.128 65.414)" fill="#fff"/></g></g><defs><filter id="A" x="187.115" y="334.357" width="54.004" height="54.004" filterUnits="userSpaceOnUse" class="B"><feFlood result="A" class="C"/><feColorMatrix in="SourceAlpha" values="0 0 0 0 0 0 0 0 0 0 0 0 0 0 0 0 0 0 127 0" result="B"/><feOffset/><feGaussianBlur stdDeviation="10"/><feComposite in2="B" operator="out"/><feColorMatrix values="0 0 0 0 1 0 0 0 0 1 0 0 0 0 1 0 0 0 0.02 0"/><feBlend in2="A"/><feBlend in="SourceGraphic"/><feGaussianBlur stdDeviation="5"/></filter><filter id="B" x="234.75" y="292.634" width="54.004" height="54.004" filterUnits="userSpaceOnUse" class="B"><feFlood result="A" class="C"/><feColorMatrix in="SourceAlpha" values="0 0 0 0 0 0 0 0 0 0 0 0 0 0 0 0 0 0 127 0" result="B"/><feOffset/><feGaussianBlur stdDeviation="10"/><feComposite in2="B" operator="out"/><feColorMatrix values="0 0 0 0 1 0 0 0 0 1 0 0 0 0 1 0 0 0 0.02 0"/><feBlend in2="A"/><feBlend in="SourceGraphic"/><feGaussianBlur stdDeviation="5"/></filter><filter id="C" x="69.594" y="153.808" width="54.004" height="54.004" filterUnits="userSpaceOnUse" class="B"><feFlood result="A" class="C"/><feColorMatrix in="SourceAlpha" values="0 0 0 0 0 0 0 0 0 0 0 0 0 0 0 0 0 0 127 0" result="B"/><feOffset/><feGaussianBlur stdDeviation="10"/><feComposite in2="B" operator="out"/><feColorMatrix values="0 0 0 0 1 0 0 0 0 1 0 0 0 0 1 0 0 0 0.02 0"/><feBlend in2="A"/><feBlend in="SourceGraphic"/><feGaussianBlur stdDeviation="5"/></filter><filter id="D" x="125.126" y="38.412" width="54.004" height="54.004" filterUnits="userSpaceOnUse" class="B"><feFlood result="A" class="C"/><feColorMatrix in="SourceAlpha" values="0 0 0 0 0 0 0 0 0 0 0 0 0 0 0 0 0 0 127 0" result="B"/><feOffset/><feGaussianBlur stdDeviation="10"/><feComposite in2="B" operator="out"/><feColorMatrix values="0 0 0 0 1 0 0 0 0 1 0 0 0 0 1 0 0 0 0.02 0"/><feBlend in2="A"/><feBlend in="SourceGraphic"/><feGaussianBlur stdDeviation="5"/></filter></defs></svg>