<svg xmlns="http://www.w3.org/2000/svg" width="152" height="148" fill="none"><path d="M26.529 82.562 1 97.132v33.496l28.701 15.921 27.644-15.921m1.359-22.832V97.132l-10.725-6.158m-18.278 21.63 22.659-12.317m-22.659 12.317L8.1 100.286m21.601 12.317v26.136m-6.646-4.356L8.1 125.971v-3.154m0-3.605v-3.905m0-3.305v-3.905m53.172 11.716H46.468m37.462 0H69.127m37.764 0H92.088m1.057-12.467V97.282l10.725-5.858m-4.23 9.463 22.356 12.467m0 0v25.685m0-25.685 22.659-12.467m-19.034-18.325L151 97.282v33.045L121.997 147l-27.039-15.471m35.347 2.403 13.293-7.961v-2.253m0-3.905v-3.755m0-3.605v-4.056M64.595 61.233l11.329 7.06 11.48-7.06m-11.48 0V33.745m0 0L53.417 21.278m22.508 12.467 22.659-12.467M46.922 47.263v-29.44L75.925 1l29.155 16.823v29.44m-15.56-29.44L75.925 9.862l-1.964.901m-2.87 1.802-3.927 2.103m-2.568 1.652-4.079 2.103M30.154 96.231l7.855-12.768m3.928-6.909 7.855-12.767m3.625-7.36 7.855-12.767m52.417 39.354 7.855 13.819m-11.329-19.527-8.007-14.119M90.879 43.508l7.855 13.819m-36.405 56.027c-7.855 0-6.949 12.617 0 12.617h5.74c7.553 0 8.308-12.617 0-12.617h-5.74zm22.659 0c-7.855 0-6.949 12.617 0 12.617h5.74c7.553 0 8.308-12.617 0-12.617h-5.74zM32.42 79.858c-2.568 6.909 7.855 11.115 11.329 5.858l3.172-5.858c3.474-6.909-6.949-12.317-11.329-5.708l-3.172 5.708zm11.329-19.226c-2.568 6.91 7.855 11.115 11.329 5.858l3.172-5.858c3.474-6.91-6.949-12.317-11.329-5.708l-3.172 5.708zm61.027 19.076c-2.416-6.158 7.553-10.665 11.028-5.708l3.474 5.708c3.776 7.06-8.308 11.716-11.783 5.257l-2.719-5.257zM93.145 59.731c-2.417-6.158 7.553-10.665 11.027-5.708l3.475 5.708c3.776 7.06-8.309 11.716-11.783 5.257l-2.719-5.257z" stroke="#fff"/></svg>