<svg width="141" height="137" fill="none" xmlns="http://www.w3.org/2000/svg"><path d="m43.969 136 .865-.432v-8.645M43.969 136l-9.66-5.619v-25.502M43.968 136V91.048l-7.642 4.466m-2.019-1.152 2.019 1.152m-2.019-1.152v1.44m0-1.44-5.19-3.192m7.209 4.344v-1.152m8.507-4.755-8.507 4.755m8.507-4.755-9.805-5.33-.433.234m10.238 5.096v37.316m-8.507-32.561-9.517-5.62m0 0v1.01l2.307 1.418m-2.307-2.427 1.298-.705m7.498 11.078 6.921 3.89m0 1.441-6.921-4.034m0 1.297 6.921 4.034m0 1.297-6.921-4.035m-1.01-18.495-.72.392m.72-.392v-3.837m0-10.229 11.392 6.628m-11.392-6.628v7.204m0-7.204 2.884-1.655m8.508 8.283v50.715m0-50.715L140 22.9M45.988 127.788l-1.154-.865m1.154.865L140 73.615V22.9m0 0-11.679-6.628-10.094 5.763m0 0-1.009-.72-2.884 1.67m3.893-.95 8.94 5.331M49.016 60.792l-.866 1.873m.866-1.873 9.66 5.907m-9.66-5.907 5.046-2.921m-5.912 4.794 10.094 5.763M48.15 62.665l-1.506.864m80.523-36.163L58.677 66.7m68.49-39.333 1.009.864-69.932 40.198m.432-1.729-.432 1.729m-4.112 36.019c-4.046-8.593 1.43-27.52 17.377-36.883 7.296-3.826 12.103-2.29 14.283 2.017m-31.66 34.866c2.43 5.159 8.29 6.594 17.377 0 13.683-10.623 18.178-27.17 14.283-34.866m-31.66 34.866c7.14 21.035 44.053-12.679 31.66-34.866m-4.574 12.966c.829 2.585.005 5.034-3.22 10.662-.57-2.05-1.049-3.307-2.307-5.043-1.121-1.545-1.73-.144-1.442.577.881 1.666.96 2.79.865 4.898-.745 6.012-3.492 7.243-8.94 8.933 2.534-3.895 3.138-5.897 3.75-9.365-1.731 3.026-3.351 5.326-6.201 7.78-3.172 2.306-5.485-2.123-5.335-4.754 3.501-.674 5.093-1.607 7.354-4.178-2.596.72-3.46.864-5.191.72-3.46-.576-2.163-6.916 1.874-11.958.84 3.465 1.624 4.503 3.317 5.474.865 0-.289-1.584-.433-2.881-.475-4.27.487-6.086 2.451-8.357 2.856-2.797 4.17-3.075 6.489-3.457-2.486 4.065-3.287 6.17-3.749 9.653 2.737-4.987 4.105-6.633 6.344-8.213 3.154-1.93 4.759 1.441 5.336 4.755-3.457 1.089-5.008 1.858-7.21 3.458-.721.576-.433 1.296.577.864 2.531-1.412 5.163-1.152 5.671.433Zm0 0c-.015-.047.016.049 0 0Zm17.894-4.61c-4.046-8.593 1.429-27.52 17.377-36.884 7.295-3.825 12.103-2.29 14.283 2.017m-31.66 34.867c2.429 5.159 8.29 6.594 17.377 0 13.683-10.623 18.178-27.17 14.283-34.867m-31.66 34.867c7.14 21.035 44.053-12.679 31.66-34.867m-4.574 12.967c.829 2.584.005 5.034-3.22 10.662-.57-2.05-1.049-3.307-2.307-5.043-1.121-1.545-1.731-.144-1.442.577.881 1.666.959 2.79.865 4.898-.745 6.012-3.492 7.243-8.94 8.933 2.534-3.895 3.138-5.897 3.749-9.365-1.73 3.026-3.35 5.326-6.2 7.78-3.172 2.305-5.486-2.123-5.335-4.754 3.501-.674 5.093-1.607 7.354-4.179-2.596.72-3.461.865-5.191.72-3.461-.576-2.163-6.915 1.874-11.958.84 3.466 1.623 4.504 3.317 5.475.865 0-.289-1.584-.433-2.881-.475-4.27.487-6.086 2.451-8.357 2.856-2.797 4.17-3.075 6.489-3.458-2.486 4.066-3.287 6.17-3.749 9.654 2.737-4.987 4.105-6.633 6.344-8.213 3.154-1.93 4.759 1.441 5.335 4.755-3.456 1.089-5.007 1.857-7.209 3.458-.721.576-.433 1.296.577.864 2.531-1.412 5.163-1.152 5.671.432Zm0 0c-.016-.048.016.048 0 0Zm-108.04 64.835.866-.432v-8.645m-.865 9.077-9.661-5.619v-36.02m9.66 41.639V75.92l-7.641 4.466m-2.02-1.152 2.02 1.152m-2.02-1.152L1 74.624v-1.01m9.517 6.772v-1.152m8.507-4.755-8.507 4.755m8.507-4.755-9.805-5.33-.288.156m10.093 5.174v37.316m-8.507-32.561L1 73.614m0 0 7.786-4.23.145-.079m.865 14.683 6.92 3.89m0 1.441-6.92-4.034m0 1.297 6.92 4.034m0 1.296-6.92-4.034m9.228 23.917 1.298.865M8.93 55.173 20.32 61.8m-11.39-6.627 13.553-7.78M8.93 55.173v14.132M20.322 61.8l94.012-54.172M20.322 61.8v50.86M114.334 7.628 102.655 1 92.561 6.763m21.773.865v15.356M92.561 6.764l-1.01-.721L23.35 45.52M92.56 6.763l8.94 5.33M23.35 45.52l-.866 1.873m.866-1.873 9.66 5.907m-10.526-4.034 10.094 5.763M101.5 12.094l-68.49 39.333m68.49-39.333 1.009.864-69.932 40.198m.432-1.73-.432 1.73M20.322 112.66l13.986-7.781m0 0v-9.076m25.66-41.35c-1.58-4.179-8.258-5.393-15.278-1.297-7.354 4.29-12.112 10.95-16.005 21.611-1.586 5.043-1.875 9.745-.577 13.27m31.86-33.585-5.906 3.419m5.906-3.419 14.713-8.516M28.108 88.038l5.768-3.135m.432 10.9c-2.522-1.005-3.666-2.035-5.19-4.633m4.758-6.267c-.907-1.213-1.252-1.995-1.442-3.652.885-.09 1.362-.201 2.163-.577m0 0V77.65m0 0c-3.096-1.969-1.808-5.117 2.306-11.959.167 1.29.29 1.976.577 3.1m0 0 2.137-1.227m0 0c-.016-5.968 1.756-9.509 9.11-10.95-1.68 2.715-2.655 4.25-3.589 7.78m-5.521 3.17 5.521-3.17m0 0 1.506-.864m0 0c1.47-3.215 5.255-7.492 7.418-5.658m20.62-11.935c3.893-13.24 22.493-28.944 30.424-17.61m-30.424 17.61 5.19-3.005m25.234-14.605-6.2 3.588m6.2-3.588 9.228-5.342M79.872 42.931c.668-1.542 1.115-2.24 2.02-3.174-.038.864-.014 1.293.143 1.922m-2.163 1.252 2.163-1.252m0 0 2.596-1.502m0 0c.076-5.043 2.451-8.056 9.084-9.641-1.373 1.979-2.137 3.118-3.317 6.303m-5.767 3.338 5.767-3.338m0 0 2.307-1.336m0 0c2.97-3.443 4.759-5.111 6.2-3.589m-6.2 3.59 6.2-3.59m-59.839 74.55c-1.442-.72-1.442 1.585 0 2.594 1.236.864 1.587-1.585 0-2.594Zm-1.874 5.043c0-3.026 3.749-1.153 3.749 2.017v8.068c.144 2.882-3.75 1.009-3.75-1.873v-8.212Zm1.874 12.823c-1.442-.721-1.442 1.585 0 2.593 1.236.865 1.587-1.585 0-2.593Zm31.001-39.333c-2.74 1.585-1.803 5.023 0 4.322 2.596-1.008 2.74-5.475 0-4.322Zm0-2.305c-4.758 2.881-5.479 11.67 0 8.788 5.206-2.737 5.235-11.958 0-8.788Zm44.98-24.205c-2.739 1.584-1.803 5.023 0 4.322 2.596-1.009 2.74-5.475 0-4.322Zm0-2.306c-4.758 2.882-5.479 11.67 0 8.79 5.206-2.738 5.234-11.96 0-8.79ZM13.257 91.336c-1.443-.72-1.443 1.585 0 2.594 1.235.864 1.585-1.585 0-2.594Zm-1.875 5.043c0-3.026 3.749-1.153 3.749 2.017v8.068c.144 2.882-3.75 1.009-3.75-1.873v-8.212Zm1.874 12.823c-1.442-.721-1.442 1.585 0 2.593 1.236.865 1.586-1.585 0-2.593Z" stroke="#fff"/></svg>