<svg width="102" height="99" fill="none" xmlns="http://www.w3.org/2000/svg"><path d="M18.02 55.188 1 64.868v22.254l19.134 10.579 18.429-10.579m.906-15.168v-7.086l-7.15-4.091m-12.185 14.37 15.106-8.183m-15.106 8.183-14.4-8.183m14.4 8.183v17.364m-4.431-2.894-9.97-5.588v-2.096m0-2.395v-2.595m0-2.195v-2.595m35.448 7.784h-9.869m24.975 0h-9.87m25.177 0h-9.869m.705-8.283v-6.686l7.15-3.892m-2.82 6.287 14.905 8.283m0 0v17.065m0-17.065 15.105-8.283M84.082 55.188 101 64.968v21.955L81.665 98 63.638 87.721m23.565 1.597 8.862-5.29v-1.496m0-2.595v-2.495m0-2.395v-2.694M43.398 41.018l7.553 4.69 7.653-4.69m-7.653 0V22.754m0 0-15.005-8.283m15.005 8.283 15.105-8.283m-34.44 17.265v-19.56L50.95 1l19.436 11.177v19.56m-10.373-19.56-9.063-5.29-1.31.6m-1.913 1.197-2.618 1.397m-1.712 1.098-2.72 1.397M20.438 64.27l5.236-8.483m2.618-4.59 5.237-8.483m2.417-4.89 5.236-8.482m34.945 26.146 5.236 9.18M73.81 51.696l-5.338-9.38M60.92 29.242l5.237 9.18m-24.27 37.224c-5.236 0-4.632 8.383 0 8.383h3.827c5.035 0 5.539-8.383 0-8.383h-3.827Zm15.106 0c-5.237 0-4.633 8.383 0 8.383h3.827c5.035 0 5.538-8.383 0-8.383h-3.827ZM21.947 53.392c-1.712 4.59 5.236 7.385 7.553 3.892l2.114-3.892c2.317-4.59-4.632-8.183-7.553-3.792l-2.114 3.792ZM29.5 40.618c-1.712 4.59 5.236 7.385 7.552 3.892l2.115-3.892c2.316-4.59-4.632-8.183-7.553-3.792L29.5 40.618Zm40.684 12.674c-1.611-4.091 5.035-7.085 7.352-3.792l2.316 3.792c2.518 4.69-5.539 7.784-7.855 3.493l-1.813-3.493ZM62.43 40.02c-1.611-4.091 5.035-7.085 7.351-3.792l2.317 3.793c2.517 4.69-5.54 7.783-7.855 3.492L62.43 40.02Z" stroke="#fff" stroke-width=".8"/></svg>