<svg width="97" height="97" fill="none" xmlns="http://www.w3.org/2000/svg"><path d="M35.38 53.602v35.481m0-35.481 30.31-17.493M35.38 53.602 5.318 36.109M35.38 89.083 65.69 71.84M35.38 89.083l-18.5-12.16M96 18.617v35.977L65.69 71.84M96 18.617 65.69 36.109M96 18.617 65.69 1 35.38 18.617m30.31 17.492v35.73m0-35.73L35.38 18.617m0 0L5.318 36.109m0 0v33.214M6.56 87.098v-9.925c0-1.854.688-3.936 2.141-5.626m-2.14 15.551v.993c0 1.985-3.727 1.985-3.727 0v-.993m3.726 0c6.957 5.459-11.18 5.707-3.726 0m0 0v-9.925c0-2.961.553-5.647 2.484-7.85m9.938-6.494.497-.295c2.236-.992 3.699 1.987 2.484 2.978l-.745.425m-2.236-3.108c2.236-5.01 7.453 3.675 2.236 3.108m-2.236-3.108-1.74 1.031m3.976 2.077-.994.567m-1.242 25.308v-9.924c0-1.619.524-3.412 1.624-4.965m-1.624 14.89v.992c0 1.985-3.727 1.985-3.727 0v-.993m3.727 0c6.956 5.46-11.18 5.707-3.727 0m0 0v-9.924c0-2.674.45-5.123 1.96-7.195m10.462-7.15.497-.295c2.236-.992 3.7 1.987 2.485 2.978l-.746.425m-2.236-3.108c2.236-5.009 7.454 3.675 2.236 3.108m-2.236-3.108-3.23 1.915m5.466 1.193-1.552.886m-12.857-6.646-3.975 2.357c-1.01.63-1.827 1.325-2.485 2.075m6.46-4.432 1.739-1.031m-1.74 1.031c-3.094-3.96-2.274-7.695 0-8.218m11.305 15.75-3.106 1.773a8.983 8.983 0 0 0-3.096 2.727m6.202-4.5 4.348 2.765c2.11.879 3.536.177 4.189-1.24m-8.537-1.524 1.553-.887m6.983 2.41c1.192-2.587-.191-7.562-4.685-9.676l-12.92-7.196c-.825-.439-1.589-.55-2.235-.402m19.84 17.275c-1.952.744-3.443 0-6.983-2.41m-3.913-2.08-4.224-2.954m4.224 2.954-1.295.768m-2.929-3.722-1.49.85m4.42 2.872-2.93 1.737c-1.298.81-2.278 1.726-3.01 2.73m5.94-4.467-4.42-2.871m0 0L11.28 69.48a9.023 9.023 0 0 0-2.58 2.066m4.816-7.687c-2.07-2.314-3.23-4.303-1.74-7.187m1.712 18.02L8.7 71.547m52.269-26.63v24.068L40.349 80.151V56.579l20.62-11.662ZM49.79 55.835c12.173-6.451 9.689 11.165 0 16.004-9.441 5.086-8.2-11.66 0-16.004Zm.745 6.7c.994-.497 1.49.992 0 1.736-.745.372-.994-.992 0-1.737Zm.497-2.482c.032-1.265.268-1.97.994-3.226-2.571.883-3.577 1.827-3.23 5.707-.89-.385-1.233-.714-1.242-1.737-1.988 1.985-2.982 5.459.745 4.715-.83 1.025-1.33 1.514-2.484 1.736-.249 2.233 2.484 2.978 4.72-.904-.01 1.306-.166 2.042-1.74 3.386 2.697-.902 4.327-1.26 3.976-5.955.677.05 1.022.323 1.49 1.737 2.236-2.978 2.236-5.707-1.739-4.467.928-1.067 1.561-1.566 3.23-1.985-.745-2.48-2.733-2.48-4.72.993ZM80.35 38.218c12.174-6.45 9.69 11.166 0 16.004-9.44 5.087-8.199-11.66 0-16.004Zm.745 6.7c.994-.497 1.491.992 0 1.736-.745.372-.993-.992 0-1.737Zm.497-2.482c.032-1.265.269-1.97.994-3.225-2.57.882-3.576 1.827-3.23 5.706-.889-.385-1.232-.714-1.242-1.736-1.988 1.985-2.981 5.458.745 4.714-.829 1.025-1.33 1.514-2.484 1.737-.249 2.233 2.484 2.977 4.72-.904-.01 1.305-.165 2.041-1.739 3.385 2.696-.901 4.326-1.26 3.975-5.955.678.05 1.022.323 1.491 1.737 2.236-2.978 2.236-5.707-1.74-4.466.929-1.067 1.562-1.566 3.23-1.985-.745-2.481-2.732-2.481-4.72.992Zm9.442-14.887v24.068l-20.62 11.165V39.211l20.62-11.662Z" stroke="#fff" stroke-width=".6"/></svg>