<svg width="123" height="120" fill="none" xmlns="http://www.w3.org/2000/svg"><path d="m38.405 119 .753-.378v-7.556M38.405 119l-8.41-4.911v-22.29M38.405 119V79.709l-6.653 3.904m-1.757-1.008 1.757 1.008m-1.757-1.008v1.26m0-1.26-4.519-2.79m6.276 3.798v-1.008m7.406-4.156-7.406 4.156m7.406-4.156-8.536-4.66-.376.206m8.912 4.454v32.617m-7.406-28.46-8.284-4.912m0 0v.881l2.008 1.24m-2.008-2.121 1.13-.617m6.527 9.684 6.024 3.4m0 1.26-6.024-3.527m0 1.134 6.024 3.526m0 1.133-6.024-3.526m-.88-16.166-.627.343m.628-.343v-3.354m0-8.94 9.916 5.792M30.246 61.7v6.297m0-6.297 2.51-1.447m7.406 7.24v44.329m0-44.329L122 20.142m-81.838 91.68-1.004-.756m1.004.756L122 64.471V20.14m0 0-10.167-5.792-8.786 5.037m0 0-.879-.63-2.51 1.46m3.389-.83 7.782 4.66M42.798 53.263l-.753 1.637m.753-1.637 8.41 5.163m-8.41-5.163 4.393-2.554m-5.146 4.19 8.786 5.038M42.045 54.9l-1.311.755m70.095-31.61-59.621 34.38m59.621-34.38.878.756-60.876 35.136m.377-1.511-.377 1.511m-3.58 31.484c-3.522-7.512 1.245-24.056 15.128-32.24 6.35-3.343 10.535-2.001 12.433 1.764M47.252 91.42c2.114 4.509 7.216 5.763 15.127 0 11.91-9.286 15.823-23.75 12.433-30.477m-27.56 30.477c6.215 18.386 38.348-11.083 27.56-30.477M70.83 72.278c.721 2.26.005 4.4-2.803 9.32-.496-1.792-.913-2.891-2.008-4.408-.976-1.351-1.507-.126-1.256.504.768 1.456.836 2.438.754 4.281-.65 5.255-3.04 6.33-7.783 7.808 2.206-3.404 2.732-5.154 3.264-8.185-1.506 2.644-2.916 4.654-5.397 6.8-2.762 2.015-4.776-1.855-4.645-4.156 3.048-.588 4.434-1.404 6.402-3.652-2.26.63-3.013.756-4.519.63-3.012-.504-1.883-6.045 1.632-10.453.731 3.03 1.413 3.937 2.887 4.786.753 0-.251-1.385-.377-2.519-.413-3.732.424-5.32 2.134-7.304 2.486-2.446 3.63-2.688 5.648-3.022-2.163 3.553-2.86 5.392-3.263 8.437 2.383-4.358 3.573-5.797 5.523-7.178 2.745-1.688 4.142 1.26 4.644 4.156-3.009.952-4.359 1.623-6.276 3.022-.628.504-.377 1.133.502.756 2.204-1.235 4.495-1.008 4.937.377Zm0 0c-.013-.041.014.043 0 0Zm15.577-4.03c-3.523-7.51 1.244-24.054 15.127-32.238 6.35-3.344 10.535-2.002 12.433 1.763m-27.56 30.476c2.115 4.509 7.217 5.763 15.127 0 11.911-9.286 15.823-23.749 12.433-30.476m-27.56 30.476c6.215 18.386 38.348-11.082 27.56-30.476m-3.982 11.334c.722 2.258.005 4.4-2.803 9.319-.496-1.792-.913-2.891-2.008-4.408-.976-1.351-1.506-.126-1.255.504.767 1.456.835 2.438.753 4.282-.649 5.255-3.04 6.33-7.782 7.808 2.205-3.405 2.73-5.155 3.263-8.186-1.506 2.644-2.916 4.655-5.397 6.8-2.762 2.015-4.775-1.855-4.644-4.156 3.047-.588 4.433-1.404 6.401-3.652-2.26.63-3.012.756-4.519.63-3.012-.504-1.882-6.045 1.632-10.453.732 3.03 1.413 3.937 2.887 4.786.753 0-.251-1.385-.377-2.519-.413-3.732.425-5.32 2.134-7.304 2.486-2.445 3.63-2.688 5.649-3.022-2.164 3.553-2.861 5.392-3.264 8.437 2.383-4.358 3.574-5.797 5.523-7.178 2.746-1.688 4.142 1.26 4.644 4.156-3.008.952-4.358 1.624-6.276 3.022-.627.504-.376 1.134.502.756 2.204-1.235 4.495-1.008 4.937.378Zm0 0c-.013-.042.015.042 0 0Zm-94.048 56.67.753-.378v-7.556m-.753 7.934-8.41-4.911V69.382m8.41 36.395V66.486l-6.653 3.903m-1.757-1.007 1.757 1.007m-1.757-1.007L1 65.352v-.881m8.284 5.918v-1.007m7.406-4.156-7.406 4.156m7.406-4.156-8.535-4.66-.251.138m8.786 4.522v32.617m-7.406-28.46L1 64.47m0 0 6.778-3.699.126-.068m.753 12.834 6.024 3.4m0 1.26L8.657 74.67m0 1.134 6.024 3.526m0 1.133-6.024-3.526m8.033 20.905 1.13.756M7.904 48.35l9.916 5.793m-9.916-5.793 11.798-6.8m-11.798 6.8v12.353m9.916-6.56L99.657 6.793M17.82 54.144V98.6M99.657 6.793 89.49 1l-8.787 5.037m18.954.756v13.423M80.704 6.037l-.878-.63-59.37 34.507M80.703 6.037l7.783 4.66M20.455 39.914l-.753 1.637m.753-1.637 8.41 5.163m-9.163-3.526 8.787 5.037m59.998-35.891-59.622 34.38m59.622-34.38.878.756L28.49 46.587m.376-1.511-.376 1.511m-10.67 52.01 12.176-6.8m0 0v-7.933M52.332 47.72c-1.376-3.652-7.188-4.713-13.3-1.133-6.401 3.75-10.543 9.571-13.932 18.89-1.381 4.408-1.632 8.517-.503 11.6M52.332 47.72 47.19 50.71m5.14-2.988 12.809-7.444m-40.543 36.8 5.021-2.74m.377 9.528c-2.196-.878-3.192-1.78-4.519-4.05m4.142-5.477c-.79-1.061-1.089-1.745-1.255-3.193.77-.078 1.186-.175 1.883-.504m0 0v-2.644m0 0c-2.695-1.72-1.573-4.473 2.008-10.453.145 1.128.252 1.727.502 2.71m0 0 1.86-1.073m0 0c-.014-5.216 1.53-8.311 7.93-9.57-1.463 2.372-2.31 3.713-3.123 6.8m-4.807 2.77 4.807-2.77m0 0 1.31-.756m0 0c1.28-2.81 4.575-6.548 6.458-4.946M65.14 40.277c3.389-11.572 19.581-25.298 26.484-15.392M65.14 40.277l4.519-2.626m21.965-12.766-5.397 3.136m5.397-3.136 8.034-4.67m-30 17.436c.582-1.348.97-1.958 1.758-2.775-.033.756-.012 1.13.126 1.68m-1.883 1.095 1.882-1.094m0 0 2.26-1.313m0 0c.066-4.408 2.134-7.042 7.907-8.428-1.194 1.73-1.86 2.726-2.886 5.51M73.8 35.244l5.02-2.918m0 0 2.009-1.168m0 0c2.584-3.01 4.142-4.468 5.397-3.137m-5.397 3.137 5.397-3.137m-52.09 65.163c-1.255-.63-1.255 1.385 0 2.266 1.076.756 1.38-1.385 0-2.266Zm-1.632 4.407c0-2.644 3.264-1.007 3.264 1.763v7.053c.125 2.518-3.264.881-3.264-1.638v-7.178Zm1.632 11.208c-1.255-.629-1.255 1.386 0 2.267 1.076.756 1.38-1.385 0-2.267Zm26.986-34.38c-2.384 1.386-1.57 4.39 0 3.778 2.26-.881 2.385-4.785 0-3.778Zm0-2.014c-4.142 2.518-4.77 10.2 0 7.681 4.532-2.392 4.557-10.452 0-7.681Zm39.156-21.157c-2.385 1.385-1.57 4.39 0 3.778 2.259-.882 2.384-4.786 0-3.778Zm0-2.015c-4.142 2.518-4.77 10.2 0 7.682 4.531-2.393 4.556-10.453 0-7.682ZM11.669 79.96c-1.255-.63-1.255 1.386 0 2.267 1.076.756 1.38-1.385 0-2.267Zm-1.632 4.408c0-2.644 3.264-1.007 3.264 1.763v7.053c.125 2.518-3.264.881-3.264-1.638v-7.178Zm1.632 11.208c-1.255-.63-1.255 1.386 0 2.267 1.076.756 1.38-1.385 0-2.267Z" stroke="#fff"/></svg>