<svg xmlns="http://www.w3.org/2000/svg" width="148" height="148" fill="none"><path d="M53.836 81.841v54.529m0-54.529 46.582-26.883M53.836 81.841l-46.2-26.883m46.2 81.413 46.582-26.502M53.836 136.37l-28.431-18.689M147 28.074v55.292l-46.582 26.502M147 28.074l-46.582 26.883M147 28.074 100.418 1 53.836 28.074m46.582 26.883v54.911m0-54.911L53.836 28.074m0 0-46.2 26.883m0 0v51.045m1.909 27.317v-15.253c0-2.849 1.057-6.05 3.291-8.647m-3.291 23.9v1.526c0 3.05-5.727 3.05-5.727 0v-1.526m5.727 0c10.691 8.389-17.182 8.771-5.727 0m0 0v-15.253c0-4.551.85-8.678 3.818-12.064m15.273-9.981.764-.453c3.436-1.525 5.685 3.054 3.818 4.576l-1.145.654m-3.436-4.777c3.436-7.698 11.455 5.648 3.436 4.777m-3.436-4.777-2.673 1.585m6.109 3.192-1.527.871m-1.909 38.895v-15.253c0-2.487.806-5.242 2.496-7.63m-2.496 22.883v1.526c0 3.05-5.727 3.05-5.727 0v-1.526m5.727 0c10.691 8.389-17.182 8.771-5.727 0m0 0v-15.253c0-4.109.693-7.872 3.011-11.056m16.08-10.989.764-.453c3.436-1.525 5.685 3.054 3.818 4.576l-1.145.654m-3.436-4.777c3.436-7.698 11.455 5.649 3.436 4.777m-3.436-4.777-4.964 2.944m8.4 1.833-2.386 1.362M17.564 99.191l-6.109 3.622c-1.552.969-2.808 2.036-3.818 3.189m9.927-6.811 2.673-1.585m-2.673 1.585c-4.757-6.086-3.495-11.826 0-12.629m17.373 24.206-4.773 2.723a13.81 13.81 0 0 0-4.758 4.191m9.531-6.914 6.682 4.249c3.243 1.349 5.434.272 6.438-1.907m-13.12-2.342 2.386-1.362m10.733 3.704c1.832-3.977-.294-11.623-7.201-14.871L21 87.179c-1.268-.675-2.442-.846-3.436-.618m30.492 26.548c-3.001 1.144-5.292 0-10.733-3.704m-6.014-3.195-6.491-4.541m6.491 4.541-1.989 1.179m-4.501-5.72-2.291 1.308m6.792 4.412-4.501 2.67c-1.995 1.245-3.501 2.652-4.625 4.196m9.127-6.866-6.792-4.412m0 0-5.727 3.268a13.872 13.872 0 0 0-3.964 3.174m7.4-11.813c-3.182-3.556-4.964-6.614-2.673-11.044m2.629 27.694-7.357-4.836m80.328-40.925v36.989l-31.691 17.159V86.416l31.691-17.922zM75.982 85.273c18.709-9.914 14.891 17.16 0 24.596-14.509 7.817-12.6-17.918 0-24.595zm1.145 10.296c1.527-.763 2.291 1.525 0 2.669-1.145.572-1.527-1.525 0-2.669zm.764-3.813c.049-1.945.412-3.027 1.527-4.957-3.951 1.356-5.496 2.808-4.964 8.77-1.366-.592-1.894-1.097-1.909-2.669-3.055 3.051-4.582 8.389 1.145 7.245-1.274 1.575-2.044 2.327-3.818 2.669-.382 3.432 3.818 4.576 7.255-1.389-.015 2.007-.254 3.137-2.673 5.203 4.143-1.386 6.649-1.936 6.109-9.152 1.041.076 1.571.497 2.291 2.669 3.436-4.576 3.436-8.77-2.673-6.864 1.426-1.64 2.399-2.406 4.964-3.051-1.145-3.813-4.2-3.813-7.254 1.525zM122.95 58.2c18.709-9.914 14.891 17.16 0 24.595-14.509 7.817-12.6-17.918 0-24.595zm1.145 10.296c1.528-.763 2.291 1.525 0 2.669-1.145.572-1.527-1.525 0-2.669zm.764-3.813c.049-1.945.412-3.027 1.527-4.957-3.95 1.356-5.496 2.808-4.963 8.77-1.367-.592-1.895-1.097-1.909-2.669-3.055 3.051-4.582 8.389 1.145 7.245-1.274 1.575-2.044 2.327-3.818 2.669-.382 3.432 3.818 4.576 7.254-1.389-.015 2.006-.254 3.137-2.672 5.202 4.142-1.385 6.648-1.936 6.109-9.152 1.041.076 1.571.497 2.291 2.669 3.436-4.576 3.436-8.77-2.673-6.864 1.426-1.64 2.399-2.407 4.964-3.051-1.146-3.813-4.2-3.813-7.255 1.525zm14.511-22.879V78.79l-31.691 17.16V59.724l31.691-17.922z" stroke="#fff"/></svg>