<svg width="141" height="137" fill="none" xmlns="http://www.w3.org/2000/svg"><path d="M24.657 76.417 1 89.889v30.972l26.596 14.722 25.616-14.722m1.26-21.111v-9.861l-9.938-5.695m-16.938 20 20.997-11.388m-20.997 11.388L7.58 92.806m20.017 11.388v24.167m-6.159-4.028L7.58 116.556v-2.917m0-3.333v-3.612m0-3.055v-3.611m49.273 10.833H43.134m34.715 0H64.13m34.995 0H85.408m.98-11.528v-9.305l9.938-5.417m-3.92 8.75 20.718 11.528m0 0v23.75m0-23.75 20.997-11.528m-17.638-16.944L140 90.027v30.556L113.124 136l-25.056-14.306m32.755 2.223 12.318-7.361v-2.084m0-3.611v-3.472m0-3.333v-3.75m-73.21-43.612 10.499 6.528 10.638-6.528m-10.638 0V31.278m0 0L49.573 19.75M70.43 31.278 91.427 19.75M43.554 43.778V16.556L70.43 1l27.016 15.556v27.222M83.028 16.556 70.43 9.194l-1.82.834m-2.66 1.666-3.639 1.945m-2.38 1.528-3.779 1.944M28.016 89.056l7.28-11.806m3.639-6.389 7.279-11.805m3.359-6.806 7.279-11.806m48.573 36.39 7.279 12.777m-10.499-18.055L94.787 58.5M84.288 40.306l7.279 12.777M57.832 104.89c-7.28 0-6.44 11.667 0 11.667h5.32c6.998 0 7.698-11.667 0-11.667h-5.32Zm20.997 0c-7.28 0-6.44 11.667 0 11.667h5.319c6.999 0 7.699-11.667 0-11.667h-5.32ZM30.116 73.917c-2.38 6.389 7.279 10.277 10.498 5.416l2.94-5.416c3.22-6.39-6.44-11.39-10.499-5.278l-2.94 5.278Zm10.498-17.778c-2.38 6.389 7.28 10.278 10.499 5.417l2.94-5.417c3.219-6.389-6.44-11.389-10.5-5.278l-2.939 5.278Zm56.552 17.639c-2.24-5.695 6.999-9.861 10.219-5.278l3.219 5.278c3.5 6.528-7.699 10.833-10.918 4.86l-2.52-4.86ZM86.388 55.306c-2.24-5.695 6.999-9.862 10.218-5.278l3.22 5.278c3.499 6.527-7.7 10.833-10.919 4.86l-2.52-4.86Z" stroke="#fff"/></svg>