<svg width="101" height="98" fill="none" xmlns="http://www.w3.org/2000/svg"><path d="m31.604 97 .616-.307v-6.148M31.604 97l-6.881-3.996V74.87M31.603 97V65.034l-5.442 3.176m-1.438-.82 1.438.82m-1.438-.82v1.025m0-1.024-3.697-2.27m5.135 3.09v-.82m6.059-3.381-6.06 3.38m6.06-3.38-6.983-3.791-.309.167m7.292 3.624v26.535m-6.06-23.154-6.777-3.996m0 0v.717l1.643 1.009m-1.643-1.726.924-.502m5.34 7.879 4.93 2.766m0 1.024-4.93-2.868m0 .922 4.93 2.868m0 .923-4.93-2.87m-.719-13.151-.513.279m.513-.28v-2.728m0-7.274 8.113 4.713m-8.113-4.713v5.123m0-5.123 2.054-1.177m6.06 5.89V91.16m0-36.064L100 16.573M33.041 91.16l-.821-.615m.822.615L100 52.637V16.573m0 0-8.319-4.713-7.188 4.098m0 0-.72-.512-2.053 1.187m2.773-.675 6.367 3.791M35.198 43.52l-.616 1.332m.616-1.332 6.88 4.2m-6.88-4.2 3.594-2.078m-4.21 3.41 7.189 4.098m-7.189-4.098-1.073.614M90.86 19.75 42.079 47.72M90.86 19.75l.719.615L41.77 48.949m.308-1.23-.308 1.23m-2.929 25.613c-2.882-6.11 1.018-19.57 12.377-26.228 5.196-2.72 8.62-1.629 10.172 1.434M38.842 74.562c1.73 3.669 5.905 4.69 12.377 0 9.745-7.554 12.946-19.32 10.172-24.794M38.842 74.562c5.085 14.959 31.376-9.016 22.55-24.794m-3.258 9.221c.59 1.838.003 3.58-2.294 7.582-.406-1.457-.747-2.352-1.643-3.586-.798-1.1-1.232-.102-1.027.41.628 1.185.684 1.984.616 3.483-.53 4.276-2.487 5.15-6.367 6.353 1.805-2.77 2.235-4.194 2.67-6.66-1.232 2.151-2.386 3.787-4.416 5.532-2.26 1.64-3.907-1.51-3.8-3.38 2.494-.48 3.628-1.143 5.238-2.972-1.849.513-2.465.615-3.697.513-2.465-.41-1.54-4.918 1.335-8.504.598 2.465 1.156 3.203 2.362 3.893.616 0-.205-1.127-.308-2.049-.338-3.037.347-4.328 1.746-5.942 2.033-1.99 2.97-2.187 4.621-2.46-1.77 2.892-2.34 4.388-2.67 6.865 1.95-3.546 2.924-4.716 4.519-5.84 2.246-1.373 3.389 1.025 3.8 3.381-2.462.775-3.567 1.321-5.135 2.46-.514.41-.308.921.41.614 1.804-1.005 3.678-.82 4.04.307Zm0 0c-.011-.034.011.035 0 0Zm12.744-3.278c-2.882-6.111 1.018-19.57 12.377-26.229 5.196-2.72 8.62-1.628 10.172 1.435M70.878 55.71c1.73 3.668 5.905 4.689 12.377 0C93 48.156 96.202 36.39 93.427 30.917M70.878 55.71c5.085 14.958 31.376-9.016 22.55-24.794m-3.258 9.22c.59 1.838.003 3.58-2.294 7.582-.406-1.457-.747-2.352-1.643-3.586-.798-1.099-1.232-.102-1.027.41.628 1.185.684 1.984.616 3.484-.53 4.275-2.487 5.15-6.367 6.352 1.805-2.77 2.235-4.194 2.67-6.66-1.232 2.152-2.386 3.787-4.416 5.533-2.26 1.64-3.907-1.51-3.8-3.381 2.494-.479 3.628-1.142 5.238-2.971-1.849.512-2.465.614-3.697.512-2.465-.41-1.54-4.918 1.335-8.504.599 2.465 1.156 3.203 2.362 3.893.616 0-.205-1.127-.308-2.049-.338-3.036.347-4.328 1.746-5.942 2.034-1.99 2.97-2.187 4.621-2.459-1.77 2.891-2.34 4.387-2.67 6.865 1.95-3.546 2.924-4.717 4.519-5.84 2.246-1.374 3.389 1.024 3.8 3.38-2.462.775-3.567 1.322-5.135 2.46-.514.41-.308.922.41.614 1.804-1.004 3.678-.82 4.04.308Zm0 0c-.011-.033.011.035 0 0ZM13.22 86.243l.616-.307v-6.147m-.616 6.454-6.88-3.996V56.633m6.88 29.61V54.275l-5.443 3.176m-1.438-.82 1.438.82m-1.438-.82L1 53.355v-.717m6.778 4.816v-.82m6.06-3.381-6.06 3.38m6.06-3.38L6.853 49.46l-.206.111m7.19 3.68v26.536m-6.06-23.155L1 52.637m0 0 5.546-3.009.102-.056m.617 10.442 4.929 2.766m0 1.025-4.93-2.869m0 .922 4.93 2.869m0 .922-4.93-2.869m6.573 17.008.924.614m-8.113-40.88 8.113 4.714m-8.113-4.713 9.654-5.533m-9.654 5.533v10.05m8.113-5.337L81.72 5.713M14.76 44.236v36.166M81.72 5.712 73.4 1l-7.188 4.098m15.507.615v10.92M66.213 5.098l-.72-.512-48.575 28.072m49.295-27.56L72.58 8.89m-55.662 23.77-.616 1.331m.616-1.332 6.88 4.201m-7.496-2.869 7.189 4.099m49.089-29.2-48.781 27.97m48.78-27.97.72.615L23.49 38.089m.308-1.23-.308 1.23m-8.73 42.313 9.962-5.532m0 0v-6.455m18.276-29.404c-1.126-2.972-5.882-3.835-10.882-.922-5.237 3.05-8.626 7.786-11.4 15.368-1.129 3.586-1.334 6.929-.41 9.436M43 39.011l-4.207 2.43M43 39.011l10.48-6.057m-33.172 29.94 4.108-2.23m.308 7.751c-1.796-.714-2.611-1.447-3.697-3.294m3.389-4.456c-.646-.864-.891-1.42-1.027-2.598.63-.063.97-.143 1.54-.41m0 0v-2.151m0 0c-2.204-1.4-1.287-3.639 1.644-8.504.118.917.205 1.405.41 2.204m0 0 1.522-.872m0 0c-.011-4.244 1.251-6.762 6.489-7.787-1.198 1.93-1.891 3.022-2.556 5.533m-3.933 2.254 3.933-2.254m0 0 1.072-.615m0 0c1.047-2.286 3.743-5.327 5.283-4.024m14.686-8.487c2.773-9.414 16.021-20.581 21.67-12.523m-21.67 12.523 3.697-2.136M75.147 20.43l-4.416 2.553m4.416-2.553 6.573-3.798M57.175 30.818c.476-1.097.794-1.593 1.438-2.258-.027.615-.01.92.103 1.367m-1.54.89 1.54-.89m0 0 1.848-1.068m0 0c.054-3.586 1.746-5.729 6.47-6.856-.977 1.408-1.522 2.217-2.362 4.482m-4.108 2.374 4.108-2.374m0 0 1.643-.95m0 0c2.115-2.448 3.39-3.634 4.416-2.551m-4.416 2.552 4.416-2.552M28.112 75.997c-1.027-.513-1.027 1.127 0 1.844.88.615 1.13-1.127 0-1.844Zm-1.335 3.586c0-2.152 2.67-.82 2.67 1.434v5.737c.103 2.05-2.67.718-2.67-1.331v-5.84Zm1.335 9.118c-1.027-.512-1.027 1.127 0 1.844.88.615 1.13-1.127 0-1.844Zm22.08-27.97c-1.951 1.127-1.284 3.572 0 3.074 1.849-.718 1.951-3.894 0-3.074Zm0-1.64c-3.39 2.05-3.903 8.3 0 6.25 3.707-1.946 3.728-8.503 0-6.25ZM82.228 41.88c-1.951 1.127-1.284 3.572 0 3.074 1.849-.717 1.951-3.893 0-3.074Zm0-1.639c-3.39 2.05-3.903 8.299 0 6.25 3.707-1.947 3.728-8.504 0-6.25Zm-72.499 25c-1.027-.513-1.027 1.126 0 1.843.88.615 1.13-1.127 0-1.844Zm-1.335 3.585c0-2.152 2.67-.82 2.67 1.434v5.738c.103 2.049-2.67.717-2.67-1.332v-5.84Zm1.335 9.118c-1.027-.512-1.027 1.127 0 1.845.88.614 1.13-1.127 0-1.845Z" stroke="#fff" stroke-width=".8"/></svg>