<svg xmlns="http://www.w3.org/2000/svg" width="30" height="30" fill="none"><path fill-rule="evenodd" d="M13.652.057C9.9.433 6.516 2.099 4.003 4.81 1.941 7.033.653 9.715.163 12.803c-.184 1.157-.183 3.27 0 4.405.563 3.476 2.148 6.473 4.646 8.79 2.224 2.061 4.905 3.349 7.993 3.839 1.157.184 3.27.183 4.405 0 3.882-.629 7.175-2.54 9.569-5.552 1.588-1.999 2.648-4.443 3.047-7.028a10.22 10.22 0 0 0 .118-1.066c0-.167.027-.32.059-.34s.059-.392.059-.915c0-.571-.02-.866-.059-.843s-.059-.082-.059-.275c0-.171-.052-.646-.115-1.054a15.03 15.03 0 0 0-5.541-9.539c-1.998-1.588-4.424-2.64-7.029-3.05a20.15 20.15 0 0 0-3.604-.117zm.322 2.322c-3.19.335-5.76 1.531-7.912 3.683A12.57 12.57 0 0 0 2.48 13.13c-.144.924-.144 2.815 0 3.739.425 2.728 1.64 5.126 3.582 7.068a12.57 12.57 0 0 0 7.068 3.582c.924.144 2.815.144 3.739 0a12.57 12.57 0 0 0 7.068-3.582 12.57 12.57 0 0 0 3.582-7.068c.144-.923.144-2.815 0-3.739a12.57 12.57 0 0 0-3.582-7.068 12.569 12.569 0 0 0-7.005-3.571c-.591-.092-2.474-.163-2.958-.112zM20.39 9.97c-.161.045-.988.839-3.822 3.67l-3.618 3.612-1.509-1.5c-.83-.825-1.59-1.54-1.687-1.59-.448-.227-.93-.171-1.297.151-.242.212-.426.572-.428.833-.003.508.022.54 2.157 2.683 1.392 1.398 2.11 2.077 2.285 2.161.351.17.789.124 1.135-.118.138-.097 2.034-1.964 4.214-4.15 4.344-4.357 4.213-4.204 4.131-4.809-.098-.73-.803-1.155-1.561-.943zM.023 15c0 .5.009.704.02.454s.011-.659 0-.908-.02-.045-.02.454z" fill="#fff"/></svg>