<svg xmlns="http://www.w3.org/2000/svg" width="152" height="147" fill="none"><path d="m47.369 147 .934-.467v-9.349M47.369 147l-10.425-6.077v-27.579M47.369 147V98.385l-8.247 4.831m-2.178-1.247 2.178 1.247m-2.178-1.247v1.558m0-1.558-5.602-3.452m7.78 4.699v-1.247m9.181-5.142-9.181 5.142m9.181-5.142-10.581-5.765-.467.254m11.048 5.511v40.357m-9.181-35.215-10.27-6.077m0 0v1.091l2.49 1.534m-2.49-2.625 1.4-.763m8.091 11.982 7.469 4.207m0 1.558-7.469-4.363m0 1.403 7.469 4.363m0 1.402-7.469-4.363m-1.089-20.002-.778.424m.778-.424v-4.15m0-11.063 12.292 7.168m-12.292-7.168v7.791m0-7.791 3.112-1.79m9.181 8.958v54.847m0-54.847L151 24.684M49.548 138.118l-1.245-.934m1.245.934L151 79.532V24.684m0 0-12.604-7.168-10.892 6.233m0 0-1.089-.779-3.112 1.805m4.201-1.026 9.647 5.765m-84.336 36.15-.934 2.026m.934-2.026 10.425 6.389m-10.425-6.389 5.446-3.159m-6.38 5.185 10.892 6.233M51.881 67.69l-1.625.935m86.894-39.11L63.24 72.053m73.91-42.538 1.09.935-75.467 43.473m.467-1.87-.467 1.87m-4.437 38.954c-4.367-9.294 1.542-29.763 18.752-39.889 7.873-4.137 13.06-2.477 15.413 2.181m-34.165 37.707c2.621 5.579 8.946 7.131 18.752 0 14.766-11.489 19.616-29.384 15.413-37.707m-34.165 37.707c7.705 22.749 47.539-13.712 34.165-37.707m-4.936 14.023c.894 2.795.006 5.444-3.475 11.531-.615-2.217-1.132-3.577-2.49-5.454-1.21-1.672-1.867-.156-1.556.623.951 1.802 1.036 3.017.934 5.298-.804 6.502-3.768 7.833-9.647 9.661 2.734-4.213 3.386-6.378 4.046-10.128-1.867 3.272-3.615 5.759-6.691 8.414-3.423 2.493-5.919-2.296-5.757-5.142 3.778-.728 5.496-1.738 7.936-4.519-2.801.779-3.734.935-5.602.779-3.734-.623-2.334-7.479 2.023-12.933.907 3.748 1.752 4.871 3.579 5.921.934 0-.311-1.714-.467-3.116-.512-4.618.526-6.582 2.645-9.037 3.081-3.026 4.5-3.326 7.002-3.74-2.682 4.397-3.547 6.672-4.046 10.44 2.954-5.393 4.43-7.173 6.847-8.882 3.404-2.088 5.135 1.558 5.757 5.142-3.73 1.178-5.403 2.009-7.78 3.74-.778.623-.467 1.402.622.935 2.732-1.528 5.572-1.247 6.12.467zm0 0c-.017-.052.018.052 0 0zm19.31-4.986c-4.366-9.294 1.543-29.763 18.753-39.889 7.872-4.137 13.06-2.477 15.412 2.181m-34.165 37.708c2.622 5.579 8.947 7.131 18.753 0 14.765-11.489 19.616-29.384 15.412-37.708m-34.165 37.708c7.705 22.749 47.539-13.712 34.165-37.708m-4.935 14.024c.894 2.795.005 5.444-3.475 11.53-.615-2.216-1.132-3.577-2.49-5.454-1.21-1.672-1.867-.156-1.556.623.951 1.802 1.036 3.017.934 5.298-.805 6.502-3.769 7.833-9.648 9.661 2.735-4.213 3.386-6.378 4.046-10.128-1.867 3.272-3.615 5.759-6.691 8.414-3.423 2.493-5.919-2.296-5.757-5.142 3.778-.728 5.496-1.737 7.936-4.519-2.801.779-3.735.935-5.602.779-3.735-.623-2.334-7.479 2.023-12.933.907 3.748 1.751 4.871 3.579 5.921.933 0-.312-1.714-.467-3.116-.513-4.618.525-6.582 2.645-9.037 3.081-3.026 4.5-3.326 7.002-3.74-2.682 4.397-3.547 6.672-4.046 10.44 2.955-5.393 4.43-7.173 6.847-8.882 3.404-2.088 5.135 1.558 5.757 5.142-3.73 1.178-5.403 2.009-7.78 3.74-.778.623-.467 1.402.622.935 2.733-1.528 5.572-1.247 6.121.468zm0 0c-.017-.052.017.052 0 0zM19.517 130.639l.934-.467v-9.349m-.934 9.816-10.425-6.077V85.608m10.425 45.031V82.025l-8.247 4.83m-2.178-1.247 2.178 1.247m-2.178-1.247L1 80.622v-1.091m10.27 7.323v-1.247m9.18-5.142-9.18 5.142m9.18-5.142L9.869 74.701l-.311.169m10.892 5.596v40.357m-9.18-35.215L1 79.532m0 0 8.402-4.576.156-.085m.934 15.88 7.469 4.207m0 1.558-7.469-4.363m0 1.402 7.469 4.363m0 1.402-7.469-4.363m9.958 25.866 1.4.935M9.558 59.587l12.293 7.167M9.558 59.587l14.627-8.414M9.558 59.587v15.284m12.293-8.116L123.303 8.168M21.851 66.755v55.004M123.303 8.168 110.699 1 99.807 7.233m23.496.935v16.608M99.807 7.233l-1.089-.779-73.599 42.694M99.807 7.233l9.647 5.765M25.118 49.147l-.934 2.026m.934-2.026 10.425 6.389m-11.359-4.363 10.892 6.233m74.377-44.408-73.91 42.538m73.91-42.538 1.09.935-75.467 43.473m.467-1.87-.467 1.87M21.85 121.758l15.093-8.414m0 0v-9.817m27.69-44.719c-1.705-4.519-8.911-5.832-16.487-1.402-7.936 4.64-13.071 11.842-17.272 23.373-1.712 5.454-2.023 10.538-.622 14.351m34.381-36.322-6.373 3.697m6.373-3.697 15.878-9.211M30.253 95.13l6.224-3.39m.467 11.787c-2.722-1.086-3.957-2.201-5.602-5.01m5.135-6.777c-.979-1.312-1.35-2.158-1.556-3.95.955-.096 1.471-.217 2.334-.623m0 0v-3.272m0 0c-3.34-2.129-1.95-5.534 2.49-12.933.18 1.395.312 2.136.622 3.352m0 0 2.305-1.326m0 0c-.017-6.455 1.896-10.284 9.832-11.842-1.814 2.935-2.865 4.595-3.873 8.414m-5.959 3.428 5.959-3.428m0 0 1.625-.935m0 0c1.585-3.477 5.671-8.102 8.005-6.12m22.251-12.907c4.201-14.318 24.274-31.302 32.831-19.045m-32.83 19.044 5.602-3.249m27.23-15.796-6.69 3.881m6.69-3.881 9.959-5.777m-37.19 21.573c.72-1.668 1.203-2.422 2.178-3.433-.04.935-.014 1.398.156 2.079m-2.334 1.354 2.334-1.354m0 0 2.801-1.625m0 0c.082-5.454 2.645-8.713 9.803-10.427-1.481 2.14-2.306 3.372-3.579 6.816m-6.224 3.61 6.224-3.61m0 0 2.49-1.444m0 0c3.203-3.724 5.135-5.528 6.691-3.881m-6.691 3.881 6.691-3.881m-64.575 80.625c-1.556-.779-1.556 1.714 0 2.804 1.334.935 1.712-1.714 0-2.804zm-2.023 5.453c0-3.272 4.046-1.246 4.046 2.182v8.725c.156 3.117-4.046 1.091-4.046-2.025v-8.882zm2.023 13.868c-1.556-.779-1.556 1.714 0 2.805 1.334.934 1.712-1.714 0-2.805zm33.454-42.538c-2.956 1.714-1.946 5.432 0 4.675 2.801-1.091 2.956-5.921 0-4.675zm0-2.493c-5.135 3.116-5.913 12.621 0 9.505 5.617-2.96 5.648-12.933 0-9.505zm48.54-26.177c-2.957 1.714-1.946 5.432 0 4.674 2.8-1.091 2.956-5.921 0-4.674zm0-2.493c-5.135 3.116-5.913 12.621 0 9.505 5.617-2.961 5.648-12.933 0-9.505zM14.226 98.697c-1.556-.779-1.556 1.714 0 2.805 1.334.934 1.712-1.714 0-2.805zm-2.023 5.453c0-3.272 4.046-1.246 4.046 2.182v8.726c.156 3.116-4.046 1.09-4.046-2.026v-8.882zm2.023 13.868c-1.556-.779-1.556 1.714 0 2.805 1.334.935 1.712-1.714 0-2.805z" stroke="#fff"/></svg>