<svg width="123" height="120" fill="none" xmlns="http://www.w3.org/2000/svg"><path d="M21.593 66.92 1 78.695v27.072l23.152 12.869 22.3-12.869m1.096-18.452v-8.62l-8.652-4.977M24.152 91.2l18.278-9.955M24.152 91.2 6.727 81.245M24.152 91.2v21.123m-5.361-3.521-12.064-6.798v-2.55m0-2.913v-3.156m0-2.671v-3.156m42.892 9.469H37.678m30.22 0H55.955m30.463 0H74.477m.853-10.076v-8.134l8.652-4.735m-3.412 7.649 18.034 10.076m0 0v20.759m0-20.76 18.278-10.075M101.529 66.92 122 78.817v26.708L98.604 119l-21.811-12.504m28.513 1.942 10.723-6.434v-1.821m0-3.156v-3.035m0-2.914V87.8M52.3 49.681l9.14 5.706 9.26-5.706m-9.26 0V27.465m0 0L43.282 17.389m18.156 10.076 18.278-10.076M38.043 38.39V14.597L61.44 1l23.518 13.597V38.39M72.406 14.597 61.439 8.163l-1.584.728m-2.315 1.457-3.168 1.7M52.3 13.382l-3.29 1.7M24.518 77.966l6.336-10.319m3.168-5.584 6.337-10.32m2.924-5.948 6.336-10.319m42.283 31.807 6.337 11.169m-9.14-15.782-6.458-11.412m-9.139-15.903 6.337 11.169M50.472 91.807c-6.336 0-5.605 10.197 0 10.197h4.63c6.093 0 6.703-10.197 0-10.197h-4.63Zm18.278 0c-6.336 0-5.605 10.197 0 10.197h4.63c6.093 0 6.703-10.197 0-10.197h-4.63ZM26.345 64.735c-2.071 5.584 6.337 8.983 9.14 4.734l2.558-4.734c2.803-5.585-5.605-9.955-9.139-4.614l-2.559 4.614Zm9.14-15.54c-2.072 5.585 6.336 8.984 9.138 4.735l2.56-4.734c2.802-5.585-5.606-9.955-9.14-4.614l-2.559 4.614Zm49.228 15.418c-1.95-4.977 6.093-8.62 8.895-4.613l2.803 4.613c3.046 5.706-6.702 9.47-9.505 4.25l-2.193-4.25ZM75.33 48.467c-1.95-4.977 6.093-8.62 8.896-4.613l2.802 4.613c3.046 5.706-6.702 9.47-9.504 4.25l-2.194-4.25Z" stroke="#fff"/></svg>