<svg width="98" height="95" fill="none" xmlns="http://www.w3.org/2000/svg"><path d="M17.338 52.954 1 62.234v21.337l18.369 10.142L37.06 83.571m.87-14.543v-6.793l-6.863-3.923M19.369 72.09l14.501-7.846M19.37 72.09 5.544 64.243m13.825 7.846v16.648m-4.254-2.775-9.571-5.358v-2.01m0-2.296v-2.487m0-2.105v-2.488m34.03 7.463H30.1m23.975 0h-9.474m24.17 0h-9.475m.677-7.941v-6.41l6.864-3.732m-2.707 6.027 14.308 7.942m0 0v16.361m0-16.361 14.502-7.942M80.758 52.954 97 62.33v21.05L78.438 94l-17.305-9.855m22.622 1.53 8.508-5.07V79.17m0-2.488V74.29m0-2.296V69.41M41.7 39.367l7.25 4.497 7.348-4.497m-7.347 0V21.858m0 0-14.405-7.941m14.405 7.941 14.501-7.941M30.39 30.469V11.716L48.952 1 67.61 11.716v18.753m-9.957-18.753-8.701-5.07-1.257.573m-1.837 1.148-2.514 1.34m-1.643 1.052-2.61 1.34M19.659 61.66l5.027-8.133m2.513-4.401 5.028-8.133m2.32-4.688 5.027-8.133M73.121 53.24l5.027 8.802m-7.25-12.438-5.125-8.994m-7.25-12.534 5.027 8.803m-23.3 35.688c-5.026 0-4.446 8.037 0 8.037h3.675c4.833 0 5.317-8.037 0-8.037H40.25Zm14.502 0c-5.027 0-4.447 8.037 0 8.037h3.674c4.834 0 5.317-8.037 0-8.037h-3.674ZM21.11 51.23c-1.644 4.402 5.027 7.08 7.25 3.732l2.03-3.732c2.224-4.4-4.446-7.845-7.25-3.635l-2.03 3.636Zm7.25-12.246c-1.643 4.4 5.028 7.08 7.251 3.731l2.03-3.731c2.224-4.402-4.447-7.846-7.25-3.636l-2.03 3.636Zm39.058 12.15c-1.547-3.922 4.834-6.792 7.057-3.635l2.224 3.636c2.417 4.497-5.317 7.463-7.54 3.349l-1.741-3.35Zm-7.444-12.724c-1.547-3.923 4.834-6.794 7.057-3.636l2.224 3.636c2.417 4.496-5.317 7.462-7.541 3.348l-1.74-3.349Z" stroke="#fff" stroke-width=".6"/></svg>