<svg width="978" height="493" fill="none" xmlns="http://www.w3.org/2000/svg"><g opacity=".2"><path d="M281.481 43.74v43.316c0 4.265 1.067 6.396 7.463 2.133l54.905-33.05c1.599-1.066 1.732-2.291 1.599-5.33V5.893c0-3.2-1.066-4.799-4.264-3.199L284.68 37.876c-3.199 2.131-3.199 3.198-3.199 5.864Z" fill="#0F0E0E" stroke="#fff" stroke-width=".5"/><path d="m281.482 36.862 54.371-33.05c7.996-5.862 9.044-1.16 9.582 1.533-1.11-2.98-2.345-3.141-5.317-1.533l-57.037 35.715c-1.599 1.067-1.725 2.763-1.599 4.798v36.333c-.229 7.044.02 9.586.858 10.365l.741.296c-.285-.017-.532-.101-.741-.296-2.218-.893-3.524-1.56-3.524-3.968V43.792c-.007-3.57.534-5.864 2.666-6.93Z" fill="#161616"/><path d="m345.448 5.411-.013-.066m0 0c-.538-2.692-1.586-7.395-9.582-1.533l-54.371 33.05c-2.132 1.066-2.673 3.36-2.666 6.93v43.263c0 2.665 1.6 3.198 4.265 4.264-1.424-.084-1.885-1.853-1.599-10.661V44.325c-.126-2.035 0-3.731 1.599-4.797l57.037-35.716c2.972-1.608 4.207-1.447 5.317 1.533Z" stroke="#fff" stroke-width=".5"/><path d="M281.338 44.157c5.019-6.317 7.732-10.042 15.971-10.507 5.352-.65 8.151-1.853 12.189-7.987 4.623-5.885 7.727-8.125 15.971-7.985 7.782.284 12.188-7.56 19.754-14.705m-63.885 45.385c5.019-6.317 7.732-10.042 15.971-10.507 5.352-.65 8.151-1.853 12.189-7.987 4.623-5.885 7.727-8.125 15.971-7.986 7.782.285 12.188-7.56 19.754-14.704M281.338 52.14c5.019-6.317 7.732-10.042 15.971-10.508 5.352-.65 8.151-1.852 12.189-7.986 4.623-5.885 7.727-8.125 15.971-7.986 7.782.285 12.188-7.56 19.754-14.705m-63.885 45.388c5.019-6.317 7.732-10.043 15.971-10.508 5.352-.65 8.151-1.852 12.189-7.986 4.623-5.886 7.727-8.126 15.971-7.986 7.782.285 12.188-7.56 19.754-14.705m-63.885 45.388c5.019-6.317 7.732-10.042 15.971-10.508 5.352-.65 8.151-1.852 12.189-7.986 4.623-5.886 7.727-8.125 15.971-7.986 7.782.285 12.188-7.56 19.754-14.705m-63.885 45.81c5.019-6.317 7.732-10.042 15.971-10.508 5.352-.65 8.151-1.852 12.189-7.986 4.623-5.885 7.727-8.125 15.971-7.986 7.782.285 12.188-7.56 19.754-14.705m-63.885 45.386c5.019-6.317 7.732-10.042 15.971-10.508 5.352-.65 8.151-1.852 12.189-7.986 4.623-5.885 7.727-8.125 15.971-7.986 7.782.285 12.188-7.56 19.754-14.705m-63.885 44.967c5.019-6.316 7.732-10.042 15.971-10.507 5.352-.65 8.151-1.852 12.189-7.986 4.623-5.886 7.727-8.126 15.971-7.986 7.782.285 12.188-7.56 19.754-14.705m-63.885 45.387c5.019-6.316 7.732-10.042 15.971-10.507 5.352-.65 8.151-1.852 12.189-7.986 4.623-5.886 7.727-8.126 15.971-7.986 7.782.285 12.188-7.56 19.754-14.705m-63.885 45.387c5.019-6.316 7.732-10.042 15.971-10.507 5.352-.65 8.151-1.853 12.189-7.986 4.623-5.886 7.727-8.126 15.971-7.986 7.782.285 12.188-7.56 19.754-14.705m-63.885 46.228c5.019-6.317 7.732-10.042 15.971-10.508 5.352-.65 8.151-1.852 12.189-7.986 4.623-5.885 7.727-8.125 15.971-7.986 7.782.285 12.188-7.56 19.754-14.705m-63.045 44.972c5.02-6.316 6.892-9.621 15.131-10.087 5.352-.65 8.151-1.852 12.189-7.986 4.623-5.885 7.727-8.125 15.971-7.986 7.782.285 12.188-7.56 19.754-14.705" stroke="#fff" stroke-width=".5"/><path d="M299.411 51.305c-2.863 2.136-3.078 2.373-3.078 5.044v32.52c0 4.273.954 6.409 6.68 2.137l49.149-33.116c1.432-1.068 1.551-2.296 1.432-5.341V23.172c0-3.206-.954-4.808-3.817-3.205l-50.366 31.338Z" fill="#F73737" stroke="#fff" stroke-width=".5"/><path d="m296.333 50.885 48.672-30.386c7.158-5.874 8.096-1.162 8.577 1.537-.993-2.987-2.099-3.148-4.76-1.537L298.15 52.38c-1.431 1.069-1.929 2.771-1.817 4.81v25.27c-.204 7.058.019 9.605.768 10.385.212.096.433.194.664.297a.96.96 0 0 1-.664-.297c-1.985-.894-3.154-1.563-3.154-3.976V60.56c0-6.313 0-8.18 2.386-9.675Z" fill="#161616"/><path d="M353.594 22.102a20.963 20.963 0 0 1-.012-.066m0 0c-.481-2.699-1.419-7.411-8.577-1.537l-48.672 30.386c-2.386 1.495-2.386 3.362-2.386 9.675v28.308c0 2.67 1.432 3.205 3.818 4.273-1.275-.084-1.687-1.857-1.432-10.682v-25.27c-.112-2.039.386-3.741 1.817-4.81l50.672-31.88c2.661-1.611 3.767-1.45 4.76 1.537Z" stroke="#fff" stroke-width=".5"/><path d="M312.859 71.06v21.855c0 3.363.841 5.043 5.885 1.682l43.29-26.059c1.261-.84 1.366-1.806 1.261-4.203V41.22c0-2.523-.841-3.784-3.363-2.522l-44.551 27.74c-2.522 1.68-2.522 2.522-2.522 4.623Z" fill="#0F0E0E" stroke="#fff" stroke-width=".5"/><path d="m312.859 65.175 42.87-26.06c6.305-4.622 7.131-.914 7.555 1.21-.875-2.35-1.849-2.477-4.192-1.21L314.12 67.277c-1.261.84-1.36 2.178-1.261 3.783V87.87c-.18 5.553.017 7.558.677 8.172l.584.233a.892.892 0 0 1-.584-.233c-1.749-.704-2.778-1.23-2.778-3.129V70.638c-.006-2.814.42-4.623 2.101-5.463Z" fill="#161616"/><path d="m363.295 40.376-.011-.051m0 0c-.424-2.124-1.25-5.832-7.555-1.21l-42.87 26.06c-1.681.84-2.107 2.649-2.101 5.463v22.276c0 2.102 1.261 2.522 3.362 3.362-1.123-.066-1.486-1.461-1.261-8.405V71.059c-.099-1.605 0-2.942 1.261-3.783l44.972-28.16c2.343-1.268 3.317-1.141 4.192 1.209Z" stroke="#fff" stroke-width=".5"/><path d="m328.41 72.32-3.783 2.102v4.623l3.783-2.522V72.32ZM336.816 66.857l-3.783 2.101v4.623l3.783-2.521v-4.203ZM345.221 61.393l-3.782 2.101v4.624l3.782-2.522v-4.203ZM353.627 56.77l-3.782 2.101v4.623l3.782-2.522V56.77Z" fill="#F73737"/><path d="m644.894 245.061-12.609 8.405 12.188 7.145 13.03-7.985-12.609-7.565ZM627.662 255.148l-12.609 8.406 12.188 7.145 13.029-7.986-12.608-7.565Z" fill="#0F0E0E"/><path d="m644.894 245.061-12.609 8.405 12.188 7.145 13.03-7.985-12.609-7.565ZM627.662 255.148l-12.609 8.406 12.188 7.145 13.029-7.986-12.608-7.565Z" stroke="#fff" stroke-width=".5"/><path d="m595.298 237.074-12.609 8.406 12.189 7.145 13.029-7.985-12.609-7.566ZM578.066 247.161l-12.609 8.406 12.189 7.145 13.029-7.985-12.609-7.566Z" fill="#0F0E0E"/><path d="m595.298 237.074-12.609 8.406 12.189 7.145 13.029-7.985-12.609-7.566ZM578.066 247.161l-12.609 8.406 12.189 7.145 13.029-7.985-12.609-7.566Z" stroke="#fff" stroke-width=".5"/><path d="m609.167 266.496-12.608 8.406 12.188 7.145 13.029-7.986-12.609-7.565Z" fill="#0F0E0E" stroke="#F73737" stroke-width=".5"/><path d="M650.355 241.278v-6.725l12.189 7.145 13.029-7.985v6.304l-13.029 8.827-12.189-7.566Z" fill="#161616"/><path d="m662.544 248.844-12.189-7.566v-6.725l12.189 7.145m0 7.146v-7.146m0 7.146 13.029-8.827v-6.304l-13.029 7.985" stroke="#fff" stroke-width=".5"/><path d="m662.964 226.148-12.609 8.406 12.189 7.145 13.029-7.985-12.609-7.566Z" fill="#0F0E0E" stroke="#F73737" stroke-width=".5"/><path d="m631.863 216.061-12.609 8.405 12.188 7.145 13.03-7.985-12.609-7.565Z" fill="#0F0E0E" stroke="#fff" stroke-width=".5"/><path d="M510.347 87.107c-1.994 0-1.994 2.792 0 2.792 1.795 0 1.795-2.792 0-2.792ZM1.495 82c-1.993 0-1.993 2.791 0 2.791 1.795 0 1.795-2.791 0-2.791Z" fill="#fff"/><path d="M600.762 234.133v-23.536l13.029 7.985 13.029-7.565v22.696l-13.029 8.406-13.029-7.986Z" fill="#161616"/><path d="m613.791 242.119-13.029-7.986v-23.536l13.029 7.985m0 23.537v-23.537m0 23.537 13.029-8.406v-22.696l-13.029 7.565" stroke="#fff" stroke-width=".5"/><path d="m613.371 202.611-12.609 7.986 13.029 7.986 13.029-7.566-13.449-8.406Z" fill="#0F0E0E" stroke="#fff" stroke-width=".5"/><path d="m375.903 456.05-29.841-18.493c-6.304-3.783-6.304-7.145-6.304-13.029V385.44c0-13.449-2.969-17.453-13.87-23.957l-50.435-30.681c-6.408-3.903-10.005-4.03-16.453 2.198l-17 11c-6 4.5-8.5 4.5-16-2l-29.143-20.865-28.58-17.232c-5.1-4.185-8.182-3.586-13.869 0l-37.407 22.696c-4.456 3.271-7.271 2.829-12.608 0l-46.653-28.16m345.903 156.35 11.348-7.145c3.362-2.522 2.521-6.725-2.522-8.826l-42.03-26.059c-4.623-2.521-4.623-6.724 0-8.826l130.292-79.015m0 0 33.623-20.595c1.682-.84 2.102-2.101 2.102-4.623v-52.537c0-4.623-2.79-7.719-7.565-10.507l-68.088-41.609c-5.464-3.363-4.623-7.145 0-10.087l33.203-19.754c4.203-2.522 5.464-.421 5.464 5.043v13.029m1.261 141.64-27.74-18.913m26.479-122.727 91.624 55.479c4.203 2.522 5.044 4.203 5.044 7.566v5.043m-96.668-68.088L351.946 93.335c-2.942-1.681-3.782-2.942-3.782-5.884v-5.884c0-2.102-.841-3.362-2.522-4.623m232.423 185.35v-5.884c0-3.363-1.261-4.624-4.623-6.305l-23.537-14.29c-2.521-1.261-2.521-2.101-2.521-4.623M396.918 468.659l34.044 20.594c5.273 4.53 8.598 4.46 14.71 0l55.479-34.044L551.5 423c2.5-2 2.5-3.795-1-7-1.565-1.433-4.5-3.5-2-6l47.638-31.704 25.638-17.005 15.551-10.315c5.464-3.362 5.043-9.246 0-12.189l-71.45-43.71c-6.305-4.623-7.145-9.247 0-13.45l36.565-22.275c6.725-3.783 10.087-3.783 14.711-1.261l2.521 1.261M569.5 396.024l40.087 23.46c6.725 4.203 7.566 6.725 7.566 12.609v40.769c0 4.623 2.521 7.145 7.565 4.203l97.088-58.842m15.971 0 36.146 22.276c5.463 3.782 10.087 2.101 10.087-.841v-41.609m12.188-44.551-7.565 4.623c-4.197 2.573-4.623 4.203-4.623 8.826v13.87m11.768-9.247-7.986 5.044c-2.521 1.681-3.782 2.522-3.782 4.203m0 0v17.232m11.768-8.826-7.145 4.203c-3.113 1.776-4.623 2.942-4.623 4.623M608.747 281.207v-4.623c0-3.363 2.372-3.725 5.464-1.681l52.957 32.362c6.469 3.112 9.994 3.415 15.971 0l119.784-72.29c34.044-22.276 76.914-24.378 117.262 0 33.624 18.913 29.456 46.195 6.305 62.624m13.869.84c21.015-21.015 25.638-44.131-14.29-70.189-33.623-19.334-79.082-28.826-128.19-.841l-102.972 62.624c-7.322 4.884-11.634 5.074-19.754 0l-43.29-26.478c-1.912-1.343-4.623-1.682-4.623 1.681v5.043m17.652-10.927v-4.203c0-2.102 2.101-2.942 4.623-1.261l34.464 21.015c7.392 4.79 11.523 4.532 18.914 0l82.798-50.436c56.564-31.907 102.132-26.362 144.581-3.782 39.508 21.014 50.856 57.16 15.131 85.319m-280.757-73.237 10.507 6.305c3.363 1.681 4.011 2.987 4.203 5.884 0 3.782 1.261 5.464 4.623 7.145l13.45 7.251c5.594 2.869 8.692 3.313 14.29 0l66.407-40.349c56.542-32.51 97.508-26.898 133.233-16.391 39.71 17.231 67.668 35.305 65.566 70.189-3.697 20.71-7.694 29.731-34.044 45.812M532.253 213.54 367.497 113.142m-39.507-37.46 9.246 6.305c1.867 1.11 2.522 2.522 2.522 4.203v5.884c0 3.363 1.681 5.044 4.203 6.725l23.536 14.343M336.395 71.06l3.363 2.101M520.485 185.38 359.932 87.451c-2.695-1.085-3.362-2.522-3.362-4.623v-5.884c0-2.522-.421-3.783-2.522-5.464l-9.247-5.884m7.986-5.044 9.246 5.464c2.327 1.762 2.943 3.362 2.943 5.043v6.725c0 2.102.84 3.363 3.782 5.044l69.349 42.317m111.798 68.22-111.798-68.22m0 0v-9.534c0-6.305-2.942-6.725-7.565-3.363l-59.262 36.146m-5.464 3.362-11.768 7.145m-5.044 13.029 18.493 11.348c3.783 2.102 5.044 6.305 0 9.247l-19.754 11.807-16.811 10.048c-3.363 2.102-3.363 5.464 0 7.986l8.826 5.378m2.942-62.118-27.319 16.391c-5.783 3.278-9.247 3.363-13.87 0l-39.928-24.377c-5.006-2.742-7.666-2.635-12.189 0l-16.391 10.508s-121.634 70.61-123.147 71.87c-2.521 2.102-2.63 6.406-2.521 10.508v1.681c0 4.623-1.251 6.593-5.044 8.826L62.363 284.99m-26.478.42-24.378-15.551c-3.66-2.258-3.66-4.758 0-6.725L43.45 243.38c4.897-3.279 4.397-6.779 0-9.666L9.826 213.54c-4.623-3.783-4.203-5.885 0-8.827l50.856-31.101c6.87-4.199 7.388-6.612 7.565-10.928v-29.841c.088-7.86-1.744-10.674-7.565-13.45L1 83.248m214.771-46.653 24.797 15.13c7.986 4.624 8.826 7.4 0 12.61a5026.32 5026.32 0 0 0-10.087 5.972L203 86c-5 3-4.5 6.5-1.5 9l42.5 28 36.496 23.713c4.935 2.608 7.619 2.96 12.189 0l67.247-40.769c3.362-2.522 7.565-2.101 7.565 1.261v5.937m179.046 88.209 9.877 6.094m55.689 1.656-11.348-7.145c-2.522-1.681-3.362-.841-3.362 1.261v14.105c0 2.942-1.229 3.947-4.203 2.102l-8.826-5.464c-3.419-2.108-5.445-1.904-9.247.84-3.126 1.685-5.062 1.391-8.826-1.26l-9.877-6.095M510.398 88.292l-18.493 12.188c-6.305 3.363-6.305 6.725 0 11.348l151.726 92.465c6.305 2.942 6.305 7.565 2.522 10.087l-7.986 4.623-3.82 2.098c-.938.445-1 1-1 2.5v3m-76.927-19.156v-9.036c-.106-3.743 1.051-7.145 3.993-8.826l72.29-43.711m-5.043-12.189-18.073-11.347c-3.782-2.522-4.203-4.624-4.203-7.986V58.451c0-5.464-1.261-7.145-5.884-10.087l-19.754-11.768-19.754-10.928m88.683 121.045 24.377 14.71c5.865 2.997 9.084 3.054 14.71 0l58.001-35.305M572.181 259.352l-8.406 5.043h-13.029l-55.059-33.582" stroke="#fff" stroke-width=".5"/><circle cx="664.869" cy="232.621" r="2.522" fill="#fff"/><circle cx="472.992" cy="305.162" r="2.522" fill="#fff"/><circle cx="339.522" cy="227.522" r="2.522" fill="#fff"/><circle cx="796.619" cy="352.237" r="2.522" fill="#fff"/><circle cx="927.522" cy="296.522" r="2.522" fill="#fff"/><circle cx="939.522" cy="299.522" r="2.522" fill="#fff"/><circle cx="944.522" cy="306.522" r="2.522" fill="#fff"/><circle cx="942.522" cy="319.522" r="2.522" fill="#fff"/><circle cx="796.619" cy="370.729" r="2.522" fill="#fff"/><circle cx="796.619" cy="388.381" r="2.522" fill="#fff"/><circle cx="747.025" cy="125.277" r="1.681" fill="#fff"/><path d="M217.032 35.753a1.68 1.68 0 1 1-3.361.001 1.68 1.68 0 0 1 3.361 0Z" fill="#fff"/><g filter="url(#a)"><ellipse cx="54.38" cy="299.699" rx="8.406" ry="3.783" fill="#2F2F2F"/></g><circle cx="48.916" cy="292.975" r="8.826" fill="#F73737"/><path d="M36.307 285.829v14.29l12.608 7.986m-12.608-22.276 12.608 7.145m-12.608-7.145 12.608-7.985 12.61 7.565m-12.61 22.696v-15.131m0 15.131 12.61-8.406v-14.29m-12.61 7.565 12.61-7.565" stroke="#fff" stroke-width=".5"/><g filter="url(#b)"><ellipse cx="394.396" cy="469.917" rx="8.406" ry="3.783" fill="#2F2F2F"/></g><circle cx="388.933" cy="463.193" r="8.826" fill="#F73737"/><path d="M376.324 456.048v14.29l12.609 7.986m-12.609-22.276 12.609 7.145m-12.609-7.145 12.609-7.986 12.609 7.566m-12.609 22.696v-15.131m0 15.131 12.609-8.406v-14.29m-12.609 7.565 12.609-7.565" stroke="#fff" stroke-width=".5"/><g filter="url(#c)"><ellipse cx="735.677" cy="420.324" rx="8.406" ry="3.783" fill="#2F2F2F"/></g><circle cx="730.214" cy="413.6" r="8.826" fill="#F73737"/><path d="M717.605 406.454v14.29l12.609 7.986m-12.609-22.276 12.609 7.145m-12.609-7.145 12.609-7.985 12.609 7.565m-12.609 22.696v-15.131m0 15.131 12.609-8.406v-14.29m-12.609 7.565 12.609-7.565" stroke="#fff" stroke-width=".5"/><g filter="url(#d)"><ellipse cx="645.734" cy="148.812" rx="8.406" ry="3.783" fill="#2F2F2F"/></g><circle cx="640.271" cy="142.088" r="8.826" fill="#F73737"/><path d="M627.662 134.943v14.29l12.609 7.985m-12.609-22.275 12.609 7.145m-12.609-7.145 12.609-7.986 12.609 7.565m-12.609 22.696v-15.13m0 15.13 12.609-8.406v-14.29m-12.609 7.566 12.609-7.566" stroke="#fff" stroke-width=".5"/><circle cx="613.793" cy="210.201" r="2.101" fill="#fff"/><path d="M561.254 25.245a1.26 1.26 0 1 1-2.521 0 1.26 1.26 0 0 1 2.521 0Z" fill="#fff"/></g><defs><filter id="a" x="41.974" y="291.916" width="24.812" height="15.565" filterUnits="userSpaceOnUse" color-interpolation-filters="sRGB"><feFlood flood-opacity="0" result="BackgroundImageFix"/><feBlend in="SourceGraphic" in2="BackgroundImageFix" result="shape"/><feGaussianBlur stdDeviation="2" result="effect1_foregroundBlur_1012_7326"/></filter><filter id="b" x="381.99" y="462.135" width="24.812" height="15.565" filterUnits="userSpaceOnUse" color-interpolation-filters="sRGB"><feFlood flood-opacity="0" result="BackgroundImageFix"/><feBlend in="SourceGraphic" in2="BackgroundImageFix" result="shape"/><feGaussianBlur stdDeviation="2" result="effect1_foregroundBlur_1012_7326"/></filter><filter id="c" x="723.271" y="412.541" width="24.812" height="15.565" filterUnits="userSpaceOnUse" color-interpolation-filters="sRGB"><feFlood flood-opacity="0" result="BackgroundImageFix"/><feBlend in="SourceGraphic" in2="BackgroundImageFix" result="shape"/><feGaussianBlur stdDeviation="2" result="effect1_foregroundBlur_1012_7326"/></filter><filter id="d" x="633.328" y="141.029" width="24.812" height="15.565" filterUnits="userSpaceOnUse" color-interpolation-filters="sRGB"><feFlood flood-opacity="0" result="BackgroundImageFix"/><feBlend in="SourceGraphic" in2="BackgroundImageFix" result="shape"/><feGaussianBlur stdDeviation="2" result="effect1_foregroundBlur_1012_7326"/></filter></defs></svg>