<svg width="193" height="193" viewBox="0 0 193 193" fill="none" xmlns="http://www.w3.org/2000/svg">
<rect width="193" height="193" rx="96.5" fill="#2A0606"/>
<path fill-rule="evenodd" clip-rule="evenodd" d="M91.8559 61.8996C88.2257 63.0142 83.3339 67.8688 82.057 71.6247C79.8017 78.2567 82.4021 87.3441 88.2159 93.1503C96.3075 101.231 107.653 96.3221 111.785 82.9543C113.978 75.8592 112.824 70.7289 107.933 65.8339C103.364 61.2593 98.1215 59.9763 91.8559 61.8996ZM91.1056 65.1218C82.9282 69.2584 81.4625 79.8946 87.8451 88.7807C93.4632 96.6027 100.756 96.4851 106.346 88.4827C114.008 77.5168 109.377 64.4563 97.6118 63.8487C94.5476 63.6901 93.549 63.8859 91.1056 65.1218ZM83.0605 95.5576C79.3172 97.5302 74.2318 103.118 72.1225 107.576C70.0733 111.908 68.7942 118.452 69.6752 120.099C71.0167 122.605 79.3013 127.321 86.0814 129.437C91.9401 131.265 102.059 131.265 107.918 129.437C114.698 127.321 122.983 122.605 124.324 120.099C125.209 118.445 123.926 111.907 121.859 107.537C119.648 102.864 114.068 96.9368 110.288 95.2453L107.99 94.2172L106.187 95.7403C100.637 100.425 93.3959 100.453 87.8976 95.8114C85.8572 94.0887 85.8485 94.0882 83.0605 95.5576ZM83.6014 98.2477C78.2868 101.509 73.6772 108.379 72.3079 115.077L71.5947 118.568L73.7653 120.444C78.9743 124.947 88.8322 128.266 96.9998 128.266C105.167 128.266 115.025 124.947 120.234 120.444L122.405 118.568L121.692 115.077C120.315 108.344 115.672 101.45 110.347 98.2351L108.654 97.2136L105.849 99.0937C100.457 102.707 93.7098 102.835 88.6386 99.4196C87.3721 98.5665 86.0897 97.7271 85.7889 97.5548C85.4881 97.382 84.5037 97.6937 83.6014 98.2477Z" fill="#F73737" fill-opacity="0.4"/>
</svg>
