<svg width="157" height="57" viewBox="0 0 157 57" fill="none" xmlns="http://www.w3.org/2000/svg">
<path fill-rule="evenodd" clip-rule="evenodd" d="M19.212 15.784C16.621 18.416 14.5 21.024 14.5 21.581C14.5 23.847 22.108 30 24.909 30H27.733L24.015 25.884L20.296 21.769L25.614 16.384L30.932 11H27.428C24.568 11 23.059 11.879 19.212 15.784ZM49.5 30.134V42.269L56.526 41.766C64.368 41.205 67.5 39.323 67.5 35.174C67.5 33.79 66.746 31.824 65.824 30.805C64.538 29.385 64.422 28.678 65.324 27.776C65.971 27.129 66.5 25.366 66.5 23.857C66.5 19.785 63.232 18 55.777 18H49.5V30.134ZM70.5 19.5C70.5 20.333 71.389 21 72.5 21C73.611 21 74.5 20.333 74.5 19.5C74.5 18.667 73.611 18 72.5 18C71.389 18 70.5 18.667 70.5 19.5ZM80.5 21C80.5 23 80 24 79 24C78.175 24 77.5 24.627 77.5 25.393C77.5 26.159 78.175 27.045 79 27.362C80.068 27.772 80.504 29.457 80.515 33.219C80.534 39.644 81.186 40.787 85.3 41.61C87.776 42.105 88.5 41.906 88.5 40.732C88.5 39.897 87.825 38.955 87 38.638C85.917 38.223 85.5 36.526 85.5 32.531C85.5 28.281 85.847 27 87 27C87.825 27 88.5 26.325 88.5 25.5C88.5 24.675 87.825 24 87 24C86 24 85.5 23 85.5 21C85.5 18.467 85.111 18 83 18C80.889 18 80.5 18.467 80.5 21ZM133.5 21C133.5 23 133 24 132 24C131.175 24 130.5 24.627 130.5 25.393C130.5 26.159 131.175 27.045 132 27.362C133.068 27.772 133.504 29.457 133.515 33.219C133.534 39.644 134.186 40.787 138.3 41.61C140.776 42.105 141.5 41.906 141.5 40.732C141.5 39.897 140.825 38.955 140 38.638C138.917 38.223 138.5 36.526 138.5 32.531C138.5 28.281 138.847 27 140 27C140.825 27 141.5 26.325 141.5 25.5C141.5 24.675 140.825 24 140 24C139 24 138.5 23 138.5 21C138.5 18.467 138.111 18 136 18C133.889 18 133.5 18.467 133.5 21ZM53.5 24.031C53.5 27.403 55.21 28.541 58.892 27.616C64.072 26.316 62.093 21 56.429 21C53.835 21 53.5 21.346 53.5 24.031ZM31.797 25.792C33.834 27.878 35.5 30.001 35.5 30.511C35.5 31.02 33.153 33.814 30.284 36.719L25.068 42H28.568C31.485 42 32.972 41.085 37.496 36.504L42.924 31.008L38.504 26.504C35.214 23.152 33.318 22 31.089 22H28.094L31.797 25.792ZM70.5 33C70.5 41.333 70.648 42 72.5 42C74.352 42 74.5 41.333 74.5 33C74.5 24.667 74.352 24 72.5 24C70.648 24 70.5 24.667 70.5 33ZM94.236 25.25C86.497 31.127 94.073 44.51 102.566 39.965C104.159 39.112 104.5 39.261 104.5 40.81C104.5 43.576 101.058 46.312 98.572 45.523C97.432 45.161 96.5 44.446 96.5 43.933C96.5 43.42 95.375 43 94 43C92.625 43 91.5 43.424 91.5 43.943C91.5 45.951 96.129 48 100.666 48C107.467 48 108.5 46.125 108.5 33.777C108.5 24.667 108.364 24 106.5 24C105.4 24 104.5 24.54 104.5 25.2C104.5 26.133 104.233 26.133 103.3 25.2C101.731 23.631 96.329 23.661 94.236 25.25ZM114.135 26.073C112.104 27.67 111.5 29.027 111.5 31.991C111.5 37.229 112.26 38.825 115.572 40.537C119.67 42.656 123.001 42.341 126.194 39.532C128.933 37.122 128.946 37.062 126.736 37.032C125.491 37.014 123.639 37.521 122.619 38.158C120.334 39.585 117.985 38.774 116.53 36.056C115.468 34.072 115.675 34 122.465 34C128.92 34 129.5 33.829 129.5 31.923C129.5 30.781 128.185 28.531 126.577 26.923C123.002 23.348 118.03 23.008 114.135 26.073ZM118.19 27.154C114.968 28.957 116.214 31 120.535 31C124.176 31 124.472 30.816 123.563 29.118C122.26 26.682 120.307 25.969 118.19 27.154ZM97.071 28.571C94.92 30.723 95.099 34.327 97.463 36.466C99.839 38.617 102.126 37.916 103.651 34.569C104.563 32.566 104.46 31.587 103.119 29.541C101.208 26.625 99.32 26.323 97.071 28.571ZM53.5 34.5V38.115L57.75 37.807C61.737 37.519 62 37.315 62 34.5C62 31.685 61.737 31.481 57.75 31.193L53.5 30.885V34.5Z" fill="white"/>
</svg>
