<svg xmlns="http://www.w3.org/2000/svg" width="286" height="53" fill="none"><path fill="#fff" fill-rule="evenodd" d="M0 21.744v21.744l13.13-.192c13.05-.19 13.148-.2 16.011-1.606 1.585-.779 3.412-2.135 4.06-3.014 2.722-3.692 3.457-9.44 1.701-13.313C33.9 23.15 31.12 20.43 29.86 20.43c-1.104 0-.91-.446.839-1.921 2.235-1.886 3.103-3.865 3.09-7.047-.02-4.966-2.555-8.572-7.269-10.342C25.279.653 20.774.367 12.35.217L0 0v21.744Zm37.96-.028v21.657H48.891l-.135-21.508L48.62.357 43.29.208 37.96.059v21.657Zm130.52.018v21.639h9.88V38.964l1.566 1.905c1.959 2.382 4.363 3.2 8.615 2.928 4.426-.283 7.142-2.148 9.307-6.393 1.388-2.721 1.581-3.674 1.744-8.583.157-4.73.016-5.972-.982-8.651-3.103-8.336-11.883-11.233-17.924-5.914l-1.806 1.59V.096h-10.4v21.638ZM11.44 13.08v3.702l3.77.082c5.314.117 5.74.042 6.76-1.187 1.186-1.428 1.154-3.17-.084-4.703-.888-1.1-1.496-1.25-5.72-1.413l-4.726-.183v3.702Zm124.02-1.276c-.286.107-1.169.338-1.963.514-.794.175-2.373 1.252-3.51 2.391l-2.067 2.073V12.61h-10.416l.138 15.25.138 15.252 5.33.148 5.33.149v-9.16c0-6.775.194-9.625.746-10.949.773-1.857 2.235-2.588 4.518-2.26 2.174.311 2.52 2.034 2.528 12.574l.008 9.795 5.253-.149 5.253-.148-.076-7.85c-.114-11.945.604-14.31 4.347-14.31 2.953 0 3.135.637 3.423 11.94l.26 10.22h10.4V31.38c0-11.29-.046-11.826-1.233-14.242-2.227-4.535-6.896-6.383-12.213-4.833-1.987.579-3.312 1.38-4.471 2.705-1.563 1.784-1.686 1.831-2.379.914-.402-.533-.739-1.125-.747-1.316-.062-1.286-6.787-3.48-8.597-2.805Zm76.78.556c-3.52.983-6.317 2.993-8.329 5.986-4.467 6.642-3.246 17.082 2.582 22.084 3.171 2.722 6.39 3.635 11.834 3.359 6.3-.32 9.895-2.388 12.234-7.037 1.565-3.112 1.36-3.285-3.892-3.285-4.587 0-4.776.048-6.189 1.564-2.561 2.749-6.574 1.82-8.115-1.877-.399-.956-.725-1.864-.725-2.017 0-.153 4.549-.277 10.109-.277 5.561 0 10.211-.176 10.335-.391.481-.836-.696-7.526-1.76-10.007-1.256-2.927-4.663-6.367-7.471-7.543-2.877-1.206-7.439-1.446-10.613-.56Zm51.111.191c-2.767 1.26-5.583 4.623-6.652 7.943-1.004 3.114-1.139 9.915-.251 12.504 2.758 8.032 11.792 11.278 17.645 6.34l1.66-1.4-.26 2.723c-.304 3.166-1.407 4.644-3.801 5.095-1.741.327-4.932-.886-4.932-1.875 0-.295-2.172-.508-5.2-.508-6.057 0-6.246.228-3.631 4.364 1.209 1.91 2.255 2.803 4.55 3.882 2.654 1.247 3.579 1.398 8.441 1.38 6.342-.022 9.312-1.099 11.99-4.346 2.786-3.376 3.09-5.496 3.09-21.538V12.61h-10.518l.229 1.564c.126.86.17 1.564.099 1.564-.072 0-.81-.682-1.641-1.515-2.631-2.638-7.16-3.339-10.818-1.673Zm-202.83.381c-3.127 1.112-6.174 3.982-7.84 7.383-1.273 2.6-1.461 3.589-1.461 7.677 0 4.088.188 5.077 1.462 7.677 2.93 5.984 7.697 8.5 15.402 8.131 3.703-.178 4.949-.466 6.832-1.579 5.342-3.157 7.465-7.192 7.488-14.229.014-4.107-.166-5.065-1.446-7.677-1.715-3.503-4.731-6.28-8.051-7.415-2.96-1.012-9.499-.994-12.387.032Zm31.656.717c-5.569 2.821-8.114 7.297-8.154 14.343-.029 5.08 1.312 8.708 4.34 11.744 2.97 2.979 6.155 4.159 11.217 4.159 6.825 0 11.419-2.673 14.138-8.226 1.279-2.611 1.46-3.57 1.446-7.677-.017-5.349-1.155-8.628-4.041-11.647-2.869-3.002-5.23-3.909-10.763-4.136-4.703-.193-5.096-.123-8.183 1.44Zm157.163-.837c-1.61.73-3.328 2.409-4.333 4.23-.481.871-.578.592-.591-1.694l-.016-2.737H234V43.373h10.92l.011-7.952c.01-6.609.175-8.31.974-10.077 1.143-2.522 3.545-3.87 6.894-3.87h2.261l-.083-4.563-.083-4.562-1.997-.123c-1.098-.067-2.699.196-3.557.585Zm-34.42 6.582c-1.218.492-2.432 2.125-3.001 4.036-.345 1.159-.29 1.173 4.626 1.173 3.268 0 4.975-.197 4.975-.573 0-1.576-1.769-4.091-3.24-4.605-1.838-.642-1.846-.642-3.36-.03Zm-150.583.647c-3.31 2.5-3.184 14.247.172 16.048 4.953 2.658 8.691-4.246 6.666-12.311-.92-3.667-4.41-5.573-6.838-3.737Zm32.461.568c-1.433 1.53-2.159 4.015-2.155 7.38.006 5.505 1.752 8.606 4.847 8.606 3.124 0 5.03-3.259 5.03-8.603 0-5.274-1.912-8.603-4.94-8.603a3.82 3.82 0 0 0-2.782 1.22Zm85.231-.56c-3.062 1.554-4.342 7.998-2.476 12.464.962 2.304 2.376 3.154 4.887 2.94 2.763-.237 3.976-2.145 4.23-6.648.238-4.229-.519-6.914-2.358-8.365-1.533-1.21-2.497-1.297-4.283-.39Zm86.681.424c-2.524 1.474-3.34 7.645-1.428 10.79 3.642 5.99 10.128.502 8.249-6.98-.907-3.612-4.103-5.397-6.821-3.81ZM11.55 29.425l.15 4.302 2.86.165c6.75.392 9.597-.972 9.597-4.597 0-3.483-1.254-4.172-7.596-4.172h-5.163l.151 4.302Z" clip-rule="evenodd" opacity=".6"/></svg>