<svg xmlns="http://www.w3.org/2000/svg" width="271" height="84" fill="none"><path fill="#fff" fill-rule="evenodd" d="M86.186.114c-1.308.146-2.904.555-3.993 1.024-3.812 1.64-5.816 4.821-5.605 8.9.205 3.951 2.022 6.518 5.952 8.405.528.253 2.386.989 4.13 1.634 1.742.646 3.597 1.378 4.121 1.627 2.456 1.168 3.324 2.4 3.202 4.546-.066 1.181-.305 1.766-1.032 2.534-.957 1.01-2.559 1.593-4.704 1.713-3.523.197-7.527-1.034-10.442-3.21a25.116 25.116 0 0 0-.82-.595c-.097-.06-.127.638-.127 2.971v3.05l.82.491c3.639 2.181 9.265 3.048 13.58 2.094 4.406-.975 7.328-3.619 8.09-7.32.215-1.043.219-3.149.007-4.358-.534-3.06-2.333-5.26-5.662-6.927-.495-.248-2.544-1.066-4.553-1.818-4.564-1.709-5.04-1.935-5.939-2.825-.871-.863-1.096-1.431-1.094-2.764.001-.81.039-.985.345-1.606.552-1.12 1.525-1.829 3.11-2.266.526-.145 1.08-.183 2.625-.18 1.77.004 2.07.032 3.107.291 1.972.493 3.81 1.366 5.65 2.683.432.309.806.562.832.562.025 0 .046-1.333.046-2.961v-2.96l-.503-.322c-1.471-.94-3.95-1.845-6.015-2.194-1.522-.258-3.88-.358-5.128-.219ZM222.94.112c-3.559.412-6.512 2.035-8.065 4.431-.981 1.513-1.368 2.95-1.353 5.02.03 4.22 1.893 6.95 6.085 8.917.604.283 2.289.953 3.745 1.488 3.246 1.193 4.257 1.603 5.101 2.071.934.518 1.77 1.319 2.12 2.031.274.557.296.695.296 1.87 0 1.174-.022 1.312-.296 1.869-.536 1.09-1.743 1.967-3.235 2.353-2.941.76-6.869.218-10.127-1.397-.852-.423-2.334-1.36-2.991-1.894l-.45-.364v6.145l.603.385c2.861 1.826 7.508 2.872 11.428 2.57 7.096-.544 11.211-4.744 10.639-10.856-.061-.652-.189-1.483-.283-1.847-.721-2.778-2.584-4.846-5.685-6.314-.597-.282-2.633-1.09-4.526-1.795-4.26-1.586-5.043-1.954-5.829-2.738-.784-.782-1.053-1.475-1.053-2.706 0-1.202.272-1.923.998-2.648 1.08-1.078 2.608-1.551 4.984-1.545 3.083.008 5.619.847 8.524 2.82l1.164.79V2.785l-.768-.437C230.734.507 226.662-.32 222.94.112Zm34.346-.001c-2.644.326-5.035 1.364-6.647 2.886-1.85 1.747-2.67 3.741-2.67 6.496 0 2.902.828 4.99 2.671 6.738 1.548 1.466 2.862 2.145 7.44 3.84 4.146 1.536 5.163 2.028 6.093 2.947.922.911 1.188 1.557 1.203 2.922.025 2.308-1.315 3.73-4.096 4.347-1.054.234-3.728.236-5 .003a17.165 17.165 0 0 1-7.273-3.157l-.826-.611v6.112l.799.497c3.983 2.477 10.469 3.242 15.029 1.77 3.459-1.115 5.829-3.452 6.615-6.522.118-.46.226-1.006.239-1.215.014-.208.05 1.475.082 3.742.031 2.266.056-3.654.055-13.155-.001-16.39-.004-16.65-.055-5.072-.029 6.712-.087 11.886-.128 11.497-.114-1.078-.369-1.946-.877-2.991-.881-1.815-2.36-3.22-4.594-4.366-.698-.359-2.787-1.21-4.831-1.97-1.979-.736-3.999-1.536-4.487-1.779-1.695-.84-2.437-1.858-2.529-3.468-.063-1.092.122-1.795.671-2.549 1.434-1.97 5.675-2.513 9.612-1.23 1.602.523 3.494 1.54 4.967 2.669l.396.303V2.766l-.833-.48c-1.597-.919-3.625-1.634-5.624-1.982-1.402-.245-4.182-.344-5.402-.193ZM136.266 17.58v17.5h5.4v-11.2c0-6.16.036-11.2.079-11.2.044 0 5.261 5.17 11.594 11.49l11.515 11.49V.528h-5.505l-.027 11.022-.027 11.022-9.106-8.914a4962.473 4962.473 0 0 0-11.514-11.246L136.266.081V17.58ZM0 17.857v17.222h7.295c6.737 0 7.387-.016 8.497-.205 3.585-.611 6.028-2.247 7.35-4.92.669-1.35.9-2.338.97-4.14.05-1.308.027-1.63-.178-2.518-.579-2.497-2.142-4.504-4.381-5.622l-.797-.399.606-.293c2.376-1.15 3.854-4.19 3.684-7.578-.21-4.18-2.468-6.996-6.56-8.18-1.903-.55-2.568-.59-9.803-.59H0v17.223Zm36.454-5.627c.044 12.462.023 11.976.6 14.197 1.182 4.55 4.247 7.614 8.766 8.766 2.56.652 5.641.653 8.195.002 5.12-1.305 8.182-4.848 9.157-10.595.166-.98.188-2.243.222-12.528L63.432.634H57.713l-.039 11.226c-.034 9.74-.061 11.335-.207 12.044-.705 3.427-2.237 5.369-4.898 6.212-1.037.329-3.358.412-4.616.166-1.31-.257-2.522-.881-3.386-1.744-1.069-1.069-1.659-2.25-2.14-4.289-.22-.932-.225-1.172-.26-12.283L42.132.634h-5.72l.042 11.596Zm77.79 5.627v17.222H119.961V.634H114.244v17.223Zm65.856.052v17.276h20.329V29.902H185.712V19.23h13.235v-5.177h-13.235V5.812H200.429V.633H180.1v17.275ZM5.47 5.67c-.038.04-.07 2.179-.07 4.755v4.684h3.586c4.108 0 4.983-.095 6.225-.68 1.63-.767 2.36-2.05 2.364-4.143.003-2.848-1.534-4.282-4.91-4.58-1.318-.117-7.085-.145-7.195-.036ZM5.4 25.05v5.08l4.314-.042c4.025-.04 4.37-.058 5.146-.271 1.098-.302 1.83-.734 2.54-1.499.934-1.008 1.355-2.53 1.133-4.096-.248-1.739-1.1-2.934-2.589-3.63-1.221-.57-1.717-.618-6.335-.62l-4.21-.002v5.08ZM20.858 67.2V84h6.353V50.4h-6.353v16.8Zm74.963-16.73c-3.987.393-7.158 2.1-8.683 4.676-.705 1.193-.976 2.178-1.033 3.76-.102 2.805.665 4.878 2.428 6.559 1.504 1.435 3.25 2.308 7.658 3.83 3.614 1.247 4.601 1.654 5.571 2.298 1.292.857 1.801 1.778 1.801 3.26.001.965-.174 1.563-.643 2.199-.655.889-1.738 1.49-3.34 1.853-1.081.244-4.12.233-5.454-.02-2.313-.44-4.755-1.44-6.706-2.746-.573-.384-1.062-.697-1.085-.697-.024 0-.044 1.281-.044 2.848v2.848l.736.436c1.591.943 4.132 1.778 6.623 2.177 1.425.228 4.99.262 6.194.06 4.927-.827 8.035-3.16 9.024-6.77.3-1.099.321-3.388.04-4.61-.479-2.093-1.551-3.7-3.342-5.011-1.455-1.064-2.194-1.393-6.675-2.968-4.317-1.517-4.823-1.72-5.614-2.248-.836-.56-1.317-1.211-1.543-2.091-.554-2.157.653-3.89 3.205-4.6.967-.27 3.678-.321 5.032-.097 2.157.358 4.265 1.206 6.279 2.524l1.058.693.029-2.756c.018-1.791-.011-2.803-.082-2.889-.208-.25-2.277-1.207-3.414-1.578-2.468-.807-5.62-1.176-8.02-.94Zm28.058 16.73V84h6.246V50.4h-6.246v16.8Zm23.081 0V84h6.909c7.142 0 8.474-.057 10.238-.438 4.725-1.02 8.244-3.64 10.315-7.68 1.575-3.074 2.23-6.85 1.863-10.742-.565-5.97-3.437-10.506-8.189-12.93-1.686-.86-3.903-1.48-6.086-1.7-.641-.064-3.991-.11-8.073-.11h-6.977v16.8Zm39.917 0V84H207.946v-5.072H192.7v-10.46h13.658v-4.966H192.7v-8.029l7.597-.027 7.597-.027.028-2.51.028-2.509h-21.073v16.8Zm37.798 0V84h5.612V70.37h1.985l1.985.001 5.718 6.812 5.717 6.812 3.163.002c2.936.003 3.153-.01 3.018-.173-.08-.096-2.728-3.197-5.885-6.89-3.157-3.692-5.726-6.727-5.71-6.743.016-.017.503-.148 1.081-.293a12.614 12.614 0 0 0 2.057-.757c.835-.41 1.16-.647 1.917-1.402 1.461-1.459 2.142-3.064 2.425-5.716.289-2.715-.23-5.401-1.392-7.195-1.542-2.38-4.057-3.819-7.474-4.273-.884-.117-2.613-.151-7.679-.153l-6.538-.002v16.8Zm-180.63-.224v16.496H49.657l.027-10.57.027-10.568 11.806 10.78c6.493 5.928 11.84 10.779 11.885 10.78.043 0 .08-7.417.08-16.483V50.928H67.763l-.027 10.365-.027 10.365-3.865-3.464-11.648-10.445a2037.026 2037.026 0 0 0-7.968-7.124c-.174-.138-.183.715-.183 16.35Zm186.242-6.477v5.132l3.891-.044c4.197-.047 4.388-.07 5.604-.663 1.767-.863 2.769-2.937 2.492-5.155-.214-1.71-1.047-2.973-2.436-3.693-1.279-.664-1.659-.71-5.826-.71h-3.725v5.133Zm-77.609 6.694v11.735h3.944c2.226 0 4.359-.051 4.897-.117 3.566-.436 6.356-2.31 7.772-5.219 1.412-2.898 1.746-6.961.862-10.457-.978-3.864-3.346-6.311-7.087-7.324-1.013-.275-1.042-.276-5.703-.315l-4.685-.038v11.735Z" clip-rule="evenodd" opacity=".6"/></svg>