<svg xmlns="http://www.w3.org/2000/svg" width="490" height="167" fill="none" stroke="#505050" stroke-width=".5"><path d="M1205 28.5s-155.35-34.93-315.5-27c-199.691 9.888-383.598 149.341-583.5 153-119.13 2.181-212.269-41.193-305-85.843"/><path d="M97 166.072c97.568-53.567 194.625-108.768 318-111.026 26.533-.486 51.019 2.901 74 9.141"/><path d="M1204.6 25.262S1050.45-3.505 889.929 4.048C690.226 13.465 511.093 135.984 311.19 139.643 189.899 141.863 95.479 101.547 1 60.73"/><path d="M1204.19 22.024S1051.26-.58 890.357 6.595c-199.714 8.946-374.074 114.532-573.976 118.191C192.932 127.046 97.244 90.095 1 53.304"/><path d="M1203.79 18.787s-151.73-16.44-313.004-9.643C691.06 17.619 521.474 106.27 321.571 109.929 195.968 112.228 99.026 78.961 1 46.381"/><path d="M1203.38 15.55s-150.52-10.277-312.166-3.857c-199.738 8.005-364.55 79.722-564.452 83.381C199.008 97.412 100.826 68.153 1 39.961"/><path d="M1 37.442c101.644 23.639 201.052 48.555 330.952 46.177C386.751 82.616 438.554 77.771 489 71.111"/><path d="M1 43.399c103.48 18.93 204.102 39.161 336.143 36.744 53.222-.974 103.281-4.372 151.857-8.967"/><path d="M1 49.85c105.336 14.075 207.156 29.272 341.333 26.816 51.617-.945 99.94-3.04 146.667-5.742"/><path d="M1 56.793C108.21 65.88 211.216 75.685 347.524 73.19L489 70.357"/><path d="M1 64.223c109.104 3.975 213.282 8.025 351.714 5.491 48.319-.884 93.193-.798 136.286-.239"/><path d="m1 72.133 356.905-5.895c46.627-.853 89.786.118 131.095 2.044"/><path d="M1 80.519c112.95-6.564 219.431-15.146 362.095-17.758 44.908-.822 86.359.904 125.905 4.02"/><path d="M1 89.374c114.903-11.965 222.516-27.438 367.286-30.088 43.163-.79 82.909 1.563 120.714 5.695"/><path d="M1 98.69c116.875-17.436 225.607-40.192 372.476-42.881 41.393-.758 79.439 2.101 115.524 7.078"/><path d="M1 108.459C119.868 85.496 229.706 55.06 378.667 52.333c39.598-.725 75.947 2.525 110.333 8.177"/><path d="M1 118.674c120.881-28.531 231.812-67.052 382.857-69.817 37.783-.692 72.436 2.84 105.143 9.004"/><path d="M1 129.325C123.914 95.2 235.925 48.183 389.048 45.381c35.946-.658 68.905 3.054 99.952 9.572"/><path d="M1 140.402c124.967-39.729 238.047-95.657 393.238-98.498 34.092-.624 65.358 3.175 94.762 9.898M1 157.098C128.041 111.77 242.176 46.51 399.429 43.631c32.22-.59 61.793 3.211 89.571 9.997M26.19 166C145.4 115.861 255.739 50.16 404.619 47.435c30.335-.555 58.214 3.172 84.381 9.89M65.133 166C171.907 113.479 275.134 53.705 409.809 51.24c28.439-.521 54.622 3.065 79.191 9.598"/></svg>