<svg xmlns="http://www.w3.org/2000/svg" width="178" height="157" fill="none"><path stroke="#fff" stroke-width=".5" d="m27.192 108.381 11.29 6.499 38.656 23.947c9.658 5.914 14.681 5.203 23.262 0l55.077-33.525c1.815-1.047 2.055-1.856 2.052-3.421"/><path fill="#0F0E0E" stroke="#fff" d="m78.777 14.291-54.05 32.84c-6.842 3.764-5.572 9.06.902 12.817l54.859 32.34c5.131 3.079 10.605 3.421 16.762 0l55.761-34.551c4.251-2.642 5.473-6.842 0-10.605l-53.366-32.84c-8.146-4.999-12.721-5.292-20.868 0Z"/><path stroke="#fff" stroke-width=".5" d="M80.217 81.355c5.132 3.421 11.973 3.421 18.13-.342l56.788-34.893c2.737-1.71 3.079-5.816 0-7.868L97.664 3.7C91.506.28 84.902-.075 79.533 3.7l-54.05 32.841c-6.274 3.422-7.348 6.5-1.369 10.263l56.103 34.551ZM27.192 97.776l53.025 32.156c6.483 3.271 11.289 3.421 17.788 0l54.051-33.182"/><path stroke="#fff" stroke-width=".5" d="m152.056 84.092-54.05 32.841c-6.843 4.105-11.962 3.907-19.158-.342L27.192 84.776M27.192 88.881l3.08-2.394M27.192 91.276l4.79-3.42M27.192 93.67l6.842-4.447M27.192 96.065l9.237-5.473M27.535 98.118l10.605-6.5M29.588 99.144l10.947-6.157M31.297 100.17l10.605-6.157M43.955 95.039l-10.947 6.5M45.665 96.065l-10.605 6.5M36.772 103.591l10.604-6.5M49.77 98.46l-10.604 6.5M41.219 106.328l9.92-6.842M42.929 107.354l9.92-6.5M44.98 108.723l10.263-6.842M56.955 103.249l-10.263 6.5M48.744 110.775l10.263-6.5M61.06 105.644l-10.263 6.157M52.508 113.17l10.263-6.5M64.48 108.038l-9.92 6.158M56.27 115.564l10.263-6.499M68.585 110.433l-10.263 6.158M60.375 117.959l9.92-6.5M62.087 118.985l9.92-6.5M74.06 113.854l-9.921 6.5M66.191 121.38l9.579-6.5M68.244 122.406l9.92-6.499M69.953 123.775l9.579-6.842M72.007 124.801l9.92-6.5M73.718 125.827l10.263-6.842M75.77 127.196l10.604-7.526M77.48 128.222l13-8.552M79.532 129.59l40.025-25.657M86.032 131.985l66.024-40.025M152.056 94.355l-62.261 37.972M81.243 130.616l70.813-43.445M83.637 131.301l68.418-41.736"/><path stroke="#fff" stroke-width=".5" d="m27.192 72.46 53.025 32.5c5.815 3.078 10.604 3.42 17.104 0l54.735-33.525M27.192 69.724l61.235 37.63M27.535 67.671l64.655 39.341M94.242 106.328l-67.05-41.051M27.535 62.882l69.103 42.42M98.69 104.275l-25.083-16.06M100.743 102.907l-13.342-8.21M102.452 101.539l-11.289-6.842M94.242 94.013l10.263 6.5M96.295 92.987l9.921 6.5M108.268 98.118 98.005 91.96M99.717 90.592l10.263 6.5M101.769 89.565l10.262 6.158M138.373 79.645l-9.921-6.5M130.162 72.119l10.263 6.5M142.135 77.25l-9.92-6.157M144.188 76.224l-9.92-6.5M146.241 74.856l-9.921-6.5M137.688 67.33l10.263 6.5M150.003 72.803l-10.263-6.5M141.793 64.935l9.921 6.5M143.846 63.566l8.21 5.816M145.899 62.198l6.158 4.105M147.951 61.172l4.105 2.737M103.821 88.54l10.263 6.157M105.874 87.17l9.579 6.5M117.505 92.302l-9.921-6.157M119.216 91.276l-9.921-6.5M111.347 83.75l10.262 6.158M113.4 82.382l9.921 6.5M125.031 87.855l-9.579-6.5M117.162 79.987l9.921 6.842M119.215 78.96l9.578 6.5M120.926 77.934l9.92 6.5M132.899 83.066l-9.92-6.5M124.688 75.54l10.263 6.157M126.741 74.171l10.263 6.5"/><g filter="url(#a)"><path fill="#F73737" d="M20.009 100.17V42.015c.342 3.079 4.447 5.131 7.184 6.842v59.524l-5.474-3.421c-1.71-1.027-1.752-2.894-1.71-4.79Z"/></g><g filter="url(#b)"><path fill="#F73737" d="M29.93 109.934V50.567l4.447 2.737v59.182l-4.447-2.552Z"/></g><g filter="url(#c)"><path fill="#F73737" d="M37.113 113.854v-58.84l1.369.684v59.182l-1.369-1.026Z"/></g><g filter="url(#d)"><path fill="#F73737" d="m156.504 104.617-4.447 2.737V48.172c3.694-1.86 4.971-3.112 5.473-5.815v59.524c-.019 1.744-.35 2.154-1.026 2.736Z"/></g><g fill="#F63737" filter="url(#e)"><path d="M81.585 136.774V85.46h-1.71v51.314h1.71ZM98.006 136.774V85.46h-1.71v51.314h1.71Z"/></g><g filter="url(#f)"><ellipse cx="88.4" cy="59.181" fill="#222" rx="21.843" ry="12.924"/></g><path fill="#fff" d="M75.665 44.174c3.45-1.86 5.32-2.427 8.588-2.925-2.05 3.022-1.961 5.775.585 8.676-5.923-.11-8.88-2.924-9.173-5.751ZM89.327 49.145c-3.318-2.242-3.025-6.434.585-8.48 4.214.099 6.195.53 9.271 1.754-4.991 1.295-7.39 2.487-9.856 6.726ZM103.184 44.563c-4.001-.195-9.368 2.438-9.758 5.947 5.194-1.723 8.202-2.067 13.857-.78-.529-2.118-2.147-3.9-4.099-5.166ZM107.673 53.24c-3.806-2.243-8.33-2.278-13.174 0 6.124 1.194 7.902 2.574 9.856 5.556 2.19-2.12 2.706-3.348 3.318-5.556ZM100.842 61.428c0-3.51-4.32-5.57-8.88-5.556 2.614 3.237 2.667 5.075.39 8.383 3.645-.637 5.515-1.225 8.49-2.827ZM87.082 64.548c4.002-3.022 3.416-5.752.293-7.897-2.19 3.58-4.348 4.894-9.27 6.434 3.079.988 4.962 1.39 8.977 1.463ZM69.713 56.066c5.772 1.086 8.77.866 13.759-.78-.683 3.315-4.782 5.85-9.563 5.557-2.33-1.547-3.192-2.62-4.197-4.777ZM69.127 52.752c5.504 2.034 9.368 1.657 13.272-.292-5.436-.987-7.695-2.189-10.344-5.557-2.053 2.058-2.716 3.334-2.928 5.85Z"/><defs><filter id="a" width="47.192" height="106.366" x="0" y="22.015" color-interpolation-filters="sRGB" filterUnits="userSpaceOnUse"><feFlood flood-opacity="0" result="BackgroundImageFix"/><feColorMatrix in="SourceAlpha" result="hardAlpha" values="0 0 0 0 0 0 0 0 0 0 0 0 0 0 0 0 0 0 127 0"/><feOffset/><feGaussianBlur stdDeviation="10"/><feComposite in2="hardAlpha" operator="out"/><feColorMatrix values="0 0 0 0 0.966667 0 0 0 0 0.2175 0 0 0 0 0.2175 0 0 0 1 0"/><feBlend in2="BackgroundImageFix" result="effect1_dropShadow_376_4510"/><feBlend in="SourceGraphic" in2="effect1_dropShadow_376_4510" result="shape"/></filter><filter id="b" width="44.447" height="101.919" x="9.93" y="30.567" color-interpolation-filters="sRGB" filterUnits="userSpaceOnUse"><feFlood flood-opacity="0" result="BackgroundImageFix"/><feColorMatrix in="SourceAlpha" result="hardAlpha" values="0 0 0 0 0 0 0 0 0 0 0 0 0 0 0 0 0 0 127 0"/><feOffset/><feGaussianBlur stdDeviation="10"/><feComposite in2="hardAlpha" operator="out"/><feColorMatrix values="0 0 0 0 0.966667 0 0 0 0 0.2175 0 0 0 0 0.2175 0 0 0 1 0"/><feBlend in2="BackgroundImageFix" result="effect1_dropShadow_376_4510"/><feBlend in="SourceGraphic" in2="effect1_dropShadow_376_4510" result="shape"/></filter><filter id="c" width="41.368" height="99.866" x="17.113" y="35.014" color-interpolation-filters="sRGB" filterUnits="userSpaceOnUse"><feFlood flood-opacity="0" result="BackgroundImageFix"/><feColorMatrix in="SourceAlpha" result="hardAlpha" values="0 0 0 0 0 0 0 0 0 0 0 0 0 0 0 0 0 0 127 0"/><feOffset/><feGaussianBlur stdDeviation="10"/><feComposite in2="hardAlpha" operator="out"/><feColorMatrix values="0 0 0 0 0.966667 0 0 0 0 0.2175 0 0 0 0 0.2175 0 0 0 1 0"/><feBlend in2="BackgroundImageFix" result="effect1_dropShadow_376_4510"/><feBlend in="SourceGraphic" in2="effect1_dropShadow_376_4510" result="shape"/></filter><filter id="d" width="45.474" height="104.997" x="132.057" y="22.357" color-interpolation-filters="sRGB" filterUnits="userSpaceOnUse"><feFlood flood-opacity="0" result="BackgroundImageFix"/><feColorMatrix in="SourceAlpha" result="hardAlpha" values="0 0 0 0 0 0 0 0 0 0 0 0 0 0 0 0 0 0 127 0"/><feOffset/><feGaussianBlur stdDeviation="10"/><feComposite in2="hardAlpha" operator="out"/><feColorMatrix values="0 0 0 0 0.966667 0 0 0 0 0.2175 0 0 0 0 0.2175 0 0 0 1 0"/><feBlend in2="BackgroundImageFix" result="effect1_dropShadow_376_4510"/><feBlend in="SourceGraphic" in2="effect1_dropShadow_376_4510" result="shape"/></filter><filter id="e" width="58.131" height="91.314" x="59.875" y="65.46" color-interpolation-filters="sRGB" filterUnits="userSpaceOnUse"><feFlood flood-opacity="0" result="BackgroundImageFix"/><feColorMatrix in="SourceAlpha" result="hardAlpha" values="0 0 0 0 0 0 0 0 0 0 0 0 0 0 0 0 0 0 127 0"/><feOffset/><feGaussianBlur stdDeviation="10"/><feComposite in2="hardAlpha" operator="out"/><feColorMatrix values="0 0 0 0 0.966667 0 0 0 0 0.2175 0 0 0 0 0.2175 0 0 0 1 0"/><feBlend in2="BackgroundImageFix" result="effect1_dropShadow_376_4510"/><feBlend in="SourceGraphic" in2="effect1_dropShadow_376_4510" result="shape"/></filter><filter id="f" width="63.685" height="45.848" x="56.558" y="36.257" color-interpolation-filters="sRGB" filterUnits="userSpaceOnUse"><feFlood flood-opacity="0" result="BackgroundImageFix"/><feBlend in="SourceGraphic" in2="BackgroundImageFix" result="shape"/><feGaussianBlur result="effect1_foregroundBlur_376_4510" stdDeviation="5"/></filter></defs></svg>