<svg xmlns="http://www.w3.org/2000/svg" width="490" height="167" fill="none" stroke="#505050" stroke-width=".5"><path d="M1 107.024C121.172 64.414 239.756 7.677 364.5 1.5 407.301-.619 449.759.323 489 2.841"/><path d="M1 77.054C51.557 98.464 95.453 132.545 139.78 166"/><path d="M1 98.718C121.044 60.986 238.89 9.991 364.929 4.048c42.739-2.011 85.026-1.447 124.071.463"/><path d="M1 90.12C120.941 57.309 237.993 12.301 365.357 6.595 408.034 4.692 450.149 4.884 489 6.194"/><path d="M1 81.221C120.865 53.369 237.066 14.606 365.786 9.143 408.398 7.347 450.344 7.174 489 7.89"/><path d="M1 72.016c119.82-22.862 235.107-55.109 365.214-60.323C408.761 10.003 450.537 9.47 489 9.601"/><path d="M1 65.897c119.808-17.848 234.117-43.294 365.643-48.255L489 14.727M1 67.436c119.835-12.819 233.094-31.164 366.071-35.865L489 27.845M1 68.648C120.903 60.863 233.039 49.937 367.5 45.5L489 40.976M1 69.527l366.929-10.098L489 54.12m0 13.158c-37.509 2.674-78.442 4.91-120.643 6.079C230.827 77.246 121.183 72.321 1 70.067m488 10.382c-37.321 3.211-78.086 5.769-120.214 6.837C229.672 90.892 121.405 77.5 1 70.266"/><path d="M1 70.12c120.689 12.167 227.482 34.41 368.214 31.094 42.054-.967 82.653-3.84 119.786-7.581"/><path d="M1 69.626c121.041 17.036 226.259 48.536 368.643 45.517 41.978-.867 82.411-4.05 119.357-8.312"/><path d="M1 68.785c121.467 21.824 225.002 63.002 369.071 60.286 41.902-.767 82.169-4.253 118.929-9.029"/><path d="M1 67.597C122.973 94.108 224.713 145.404 370.5 143c41.824-.669 81.925-4.453 118.5-9.733"/><path d="M1 66.065c122.568 31.072 222.391 92.949 369.929 90.863 41.744-.57 81.68-4.645 118.071-10.424"/><path d="M1 64.192c102.825 29.604 187.921 85.272 300 101.893"/><path d="M1 61.984C87.409 89.656 160.016 139.052 247.203 166M1 64.654C74.437 90.375 136.937 134.34 207.045 166M1 69.085C64.482 93.059 119.039 132.682 177.36 166M1 73.213C57.184 95.807 105.767 132.319 156.025 166"/></svg>