<svg xmlns="http://www.w3.org/2000/svg" width="193" height="154" fill="none"><path stroke="#fff" stroke-width=".5" d="M105.77 150.464c-5.858 3.392-13.32 3.371-17.883 0m17.883 0v-.308m0 .308 2.467-1.446m63.516-51.278c.616 10.792-.617 13.875-1.85 15.108l-5.242 3.075m7.092-18.183c-.135 3.349-.309 5.242-6.475 8.325l-2.775 1.665m9.25-9.99c-1.234-3.7-18.192-10.483-67.216-41.008-4.952-3.083-9.046-3.087-14.183 0L71.546 67.216l-15.108 9.25L23.446 95.89c-1.541.925-2.34 3.236-2.158 4.933m84.482 41.008c-6.475 3.7-12.95 3.392-17.883 0m17.883 0v2.158m0-2.158 1.85-1.112m-19.733 1.112v8.633m0-8.633-65.674-39.158c-.867-.743-.814-.809-.925-1.85m66.6 49.641-64.75-38.541c-1.85-1.541-1.85-4.008-1.85-11.1m84.482 43.166 1.85-3.27m-1.85 3.27v1.85m1.85-5.12 2.254-1.355m-4.104 6.475 4.104-6.475m-4.104 6.475v2.313m4.104-8.788 2.565-1.541m-6.669 10.329 6.669-10.329m-6.669 10.329v2.004m6.669-12.333 2.581-1.551m-9.25 13.884 9.25-13.884m0 0 2.684-1.614m-9.467 14.36 9.467-14.36m-9.467 14.36 3.083-1.809m6.384-12.551 2.866-1.768m-9.25 14.319 9.25-14.319m-9.25 14.319 3.7-2.17m5.55-12.149 3.392-2.035m-8.942 14.184 8.942-14.184m-8.942 14.184 3.083-1.809m5.859-12.375 2.775-1.665m-8.634 14.04 8.634-14.04m-8.634 14.04 2.912-1.707m5.722-12.333 2.466-1.48m-8.188 13.813 8.188-13.813m-8.188 13.813 2.947-1.729m5.241-12.084 2.672-1.604m-7.913 13.688 7.913-13.688m-7.913 13.688 3.083-1.808m4.83-11.88 2.57-1.541m-7.4 13.421 7.4-13.421m-7.4 13.421 2.923-1.714m4.477-11.707 2.569-1.542m-7.046 13.249 7.046-13.249m-7.046 13.249 3.137-1.841m3.909-11.408 2.859-1.715m-6.768 13.123 6.768-13.123m-6.768 13.123 2.881-1.69m3.887-11.433 2.588-1.553m-6.475 12.986 6.475-12.986m-6.475 12.986 2.775-1.627m3.7-11.359 2.775-1.665m-6.475 13.024 6.475-13.024m-6.475 13.024 2.755-1.616m3.72-11.408 2.57-1.542m-6.29 12.95 6.29-12.95m-6.29 12.95 3.049-1.788m3.241-11.162 2.569-1.542m-5.81 12.704 5.81-12.704m-5.81 12.704 3.04-1.783m2.77-10.921 2.57-1.541m-5.34 12.462 5.34-12.462m-5.34 12.462 2.77-1.625m2.57-10.837 2.775-1.665m-5.345 12.502 5.345-12.502m-5.345 12.502 2.878-1.688m2.467-10.814 4.779-2.868m-7.246 13.682 4.856-12.248m-4.856 12.248 2.775-1.628m0 0 4.471-12.054m-4.471 12.054 3.083-1.808m1.388-10.246 2.004-1.202m-3.392 11.448 3.392-11.448m-3.392 11.448 2.775-1.628m0 0 2.775-10.868m-2.775 10.868 2.775-1.627m0 0 1.233-6.991"/><path fill="#0F0E0E" stroke="#fff" stroke-width=".5" d="M165.278 106.065c6.166-3.083 6.34-4.976 6.475-8.325-1.234-3.7-18.192-10.483-67.216-41.008-4.952-3.083-9.046-3.087-14.183 0L71.546 67.216l-15.108 9.25L23.446 95.89c-1.541.925-2.34 3.236-2.158 4.933.111 1.041.058 1.107.925 1.85l65.674 39.158c4.933 3.392 11.408 3.7 17.883 0l59.508-35.766Z"/><g filter="url(#a)"><path fill="#222" d="M96.83 119.015v5.55l41.932-24.975-7.4-1.541-34.533 20.966Z"/></g><g filter="url(#b)"><path fill="#222" d="m74.321 93.424 4.625-4.009 18.5 11.409 13.566-8.634 5.859 3.7-19.425 12.333-23.125-14.8Z"/></g><path stroke="#fff" stroke-width=".5" d="M96.83 119.015 62.295 98.049l-6.475 1.541"/><path stroke="#fff" stroke-width=".5" d="m55.821 99.59 41.008 24.975 41.624-24.975L96.829 74 55.821 99.59Z"/><g filter="url(#c)"><path fill="#F63737" d="M165.895 115.315v-9.558c5.608-3.118 5.784-4.77 5.858-7.708l.308 8.324c0 4.317-.965 6.353-6.166 8.942Z"/><path stroke="#F63737" stroke-width=".5" d="M165.895 115.315v-9.558c5.608-3.118 5.784-4.77 5.858-7.708l.308 8.324c0 4.317-.965 6.353-6.166 8.942Z"/></g><g filter="url(#d)"><path fill="#F63737" d="M47.496 126.415v-8.633l4.625 2.775v8.633l-4.625-2.775Z"/><path stroke="#F63737" stroke-width=".5" d="M47.496 126.415v-8.633l4.625 2.775v8.633l-4.625-2.775Z"/></g><g filter="url(#e)"><path fill="#F73737" d="M21.289 99.59c.308 3.084.925 3.084 18.808 13.75v9.067L22.83 112.232c-1.85-.925-2.158-7.4-1.541-12.642Z"/><path stroke="#F63737" stroke-width=".5" d="M21.289 99.59c.308 3.084.925 3.084 18.808 13.75v9.067L22.83 112.232c-1.85-.925-2.158-7.4-1.541-12.642Z"/></g><path stroke="#fff" stroke-width=".5" d="m92.822 113.773 22.816-14.161m4.008-2.488-4.008 2.488m0 0-2.158-1.563 6.166 4.008m-11.1-1.233 6.475 4.316m-11.1-1.233 6.784 4.008m-11.409-1.233 6.475 4.008m-4.625 3.083-27.44-16.958m0 5.55 6.782-4.316m-1.85 7.091 6.784-4.008m-1.85 6.475 6.474-4.008m-2.158 7.091 6.475-4.008M96.829 116.24v2.775L131.67 97.74m-34.841 18.5L67.538 99.282l-5.242-1.233m34.533 18.191 28.058-16.341 6.783-2.159m0 0-13.258-8.016M59.521 102.057l-8.016 5.55H41.022m24.05-2.158-9.559 6.166h-7.091m22.2-3.083-13.259 8.325m18.5-4.934-12.95 8.017m18.5-4.625-7.4 4.405m-5.55 3.303 5.55-3.303m0 0-.308 7.003m13.258-8.016-6.783 4.316v7.709m12.024-8.942-4.625 2.775v11.1m14.184-13.875 4.624 3.083v10.483m.925-16.958 6.475 4.317v8.325m-1.233-15.725 7.708 4.625m0 0v7.4m0-7.4 4.934 3.392m-7.092-11.409 12.95 8.017m4.933-3.392-12.641-7.708m5.241-3.391c.247.246 7.092 4.419 10.483 6.474h7.092m-12.025-9.558 8.325 4.934h10.791m-18.808-10.175 7.709-5.242h11.099m-24.049 1.85 9.558-6.166h7.092m-22.2 2.774 12.641-7.708m-18.499 4.317c.246-.247 8.941-5.242 13.258-7.708m-19.117 4.008c.164 0 4.251-2.002 8.3-4.008m5.575-2.775c-1.513.756-3.539 1.766-5.575 2.775m-15.391-.309 8.016-6.783.925-4.008m-11.408 9.25 4.008-3.084-.308-10.175M59.521 97.124l-8.016-4.934-11.408-.616m24.974 2.158-9.866-6.475h-7.4M70.62 90.34l-13.566-8.016m18.808 4.933-13.567-8.016m19.425 4.008-1.81-.925m-12.065-6.167 6.033 3.084m0 0v-6.784m0 6.784 6.032 3.083m40.326-3.083v-7.092M79.911 82.324c.215-.247.09-9.558 0-14.183"/><ellipse cx="39.788" cy="107.607" fill="#fff" rx="2.158" ry="1.85"/><ellipse cx="47.189" cy="111.923" fill="#fff" rx="2.158" ry="1.85"/><ellipse cx="56.438" cy="116.857" fill="#fff" rx="2.158" ry="1.85"/><ellipse cx="61.988" cy="120.557" fill="#fff" rx="2.158" ry="1.85"/><ellipse cx="66.921" cy="123.64" fill="#fff" rx="2.158" ry="1.85"/><ellipse cx="73.704" cy="127.957" fill="#fff" rx="2.158" ry="1.85"/><ellipse cx="79.871" cy="131.656" fill="#fff" rx="2.158" ry="1.85"/><ellipse cx="87.27" cy="136.59" fill="#fff" rx="2.158" ry="1.85"/><ellipse cx="106.387" cy="136.59" fill="#fff" rx="2.158" ry="1.85"/><ellipse cx="113.786" cy="131.656" fill="#fff" rx="2.158" ry="1.85"/><ellipse cx="119.953" cy="127.957" fill="#fff" rx="2.158" ry="1.85"/><ellipse cx="126.121" cy="123.64" fill="#fff" rx="2.158" ry="1.85"/><ellipse cx="132.287" cy="120.557" fill="#fff" rx="2.158" ry="1.85"/><ellipse cx="137.22" cy="117.473" fill="#fff" rx="2.158" ry="1.85"/><ellipse cx="146.471" cy="111.923" fill="#fff" rx="2.158" ry="1.85"/><ellipse cx="153.868" cy="107.607" fill="#fff" rx="2.158" ry="1.85"/><path stroke="#fff" stroke-width=".5" d="m97.137 100.515-19.117-11.1v-3.7m19.117 14.8v-4.008m0 4.008 19.116-11.408V85.1M97.137 96.507 78.02 85.716m19.117 10.791L116.253 85.1m-38.233.617 19.117-11.717 19.116 11.1"/><ellipse cx="153.868" cy="92.19" fill="#fff" rx="2.158" ry="1.85"/><ellipse cx="147.087" cy="87.257" fill="#fff" rx="2.158" ry="1.85"/><ellipse cx="137.22" cy="81.707" fill="#fff" rx="2.158" ry="1.85"/><ellipse cx="131.67" cy="78.624" fill="#fff" rx="2.158" ry="1.85"/><ellipse cx="126.738" cy="75.54" fill="#fff" rx="2.158" ry="1.85"/><ellipse cx="119.953" cy="71.224" fill="#fff" rx="2.158" ry="1.85"/><ellipse cx="113.786" cy="67.524" fill="#fff" rx="2.158" ry="1.85"/><ellipse cx="105.771" cy="63.208" fill="#fff" rx="2.158" ry="1.85"/><ellipse cx="79.871" cy="67.524" fill="#fff" rx="2.158" ry="1.85"/><ellipse cx="73.704" cy="71.841" fill="#fff" rx="2.158" ry="1.85"/><ellipse cx="67.538" cy="75.54" fill="#fff" rx="2.158" ry="1.85"/><ellipse cx="61.988" cy="78.624" fill="#fff" rx="2.158" ry="1.85"/><ellipse cx="56.438" cy="81.707" fill="#fff" rx="2.158" ry="1.85"/><ellipse cx="47.189" cy="87.257" fill="#fff" rx="2.158" ry="1.85"/><ellipse cx="39.788" cy="91.574" fill="#fff" rx="2.158" ry="1.85"/><path stroke="#fff" stroke-width=".5" d="M96.52 86.332c-22.508 40.083-21.275-18.808 0-70.607-35.15 41.933-42.65 99.082 0 70.607Z" opacity=".6"/><path stroke="#fff" stroke-width=".5" d="M96.52 15.725c-49.949 32.374-56.423 86.949 0 70.607M96.522 86.332c22.76 30.427 22.199-16.958 0-70.299" opacity=".6"/><path stroke="#fff" stroke-width=".5" d="M96.522 86.332c41.932 27.133 35.149-26.516 0-70.607" opacity=".6"/><path stroke="#fff" stroke-width=".5" d="M96.522 15.725c39.157 22.816 66.29 85.715 0 70.607" opacity=".6"/><path stroke="#fff" stroke-width=".5" d="M96.522 86.332c47.79 9.558 73.998-44.707 0-70.607" opacity=".5"/><path stroke="#fff" stroke-width=".5" d="M96.522 15.725c66.599 7.091 63.824 61.357 0 70.607M96.52 15.725c-53.65 0-74.924 59.507 0 70.607" opacity=".4"/><path stroke="#fff" stroke-width=".5" d="M96.52 86.64c-68.757-31.14-49.949-81.09 0-70.915M96.522 15.725c61.974-7.092 58.89 45.016 0 70.607" opacity=".3"/><path stroke="#fff" stroke-width=".5" d="M96.52 15.725c-36.074-20.658-60.74 28.058 0 70.607M96.522 86.332c46.249-28.674 52.415-91.265 0-70.607" opacity=".2"/><path stroke="#fff" stroke-width=".5" d="M96.522 15.725c29.176-24.61 45.941 10.483 0 70.607M96.52 15.725c-31.142-33.916-38.542 26.208 0 70.607" opacity=".1"/><path stroke="#fff" stroke-width=".5" d="M96.522 86.333c20.041-42.242 17.501-110.141 0-70.608M96.52 86.332c-20.659-72.765-9.867-100.823 0-70.607" opacity=".05"/><path stroke="#fff" stroke-width=".5" d="M96.522 0v97.432"/><path stroke="#fff" stroke-width=".5" d="M96.491 15.848c-63.102 21.322-59.068 73.762 0 70.593" opacity=".5"/><defs><filter id="a" width="61.933" height="46.516" x="86.829" y="88.049" color-interpolation-filters="sRGB" filterUnits="userSpaceOnUse"><feFlood flood-opacity="0" result="BackgroundImageFix"/><feBlend in="SourceGraphic" in2="BackgroundImageFix" result="shape"/><feGaussianBlur result="effect1_foregroundBlur_376_4440" stdDeviation="5"/></filter><filter id="b" width="62.55" height="38.808" x="64.321" y="79.415" color-interpolation-filters="sRGB" filterUnits="userSpaceOnUse"><feFlood flood-opacity="0" result="BackgroundImageFix"/><feBlend in="SourceGraphic" in2="BackgroundImageFix" result="shape"/><feGaussianBlur result="effect1_foregroundBlur_376_4440" stdDeviation="5"/></filter><filter id="c" width="46.667" height="57.679" x="145.645" y="78.039" color-interpolation-filters="sRGB" filterUnits="userSpaceOnUse"><feFlood flood-opacity="0" result="BackgroundImageFix"/><feColorMatrix in="SourceAlpha" result="hardAlpha" values="0 0 0 0 0 0 0 0 0 0 0 0 0 0 0 0 0 0 127 0"/><feOffset/><feGaussianBlur stdDeviation="10"/><feComposite in2="hardAlpha" operator="out"/><feColorMatrix values="0 0 0 0 0.964706 0 0 0 0 0.215686 0 0 0 0 0.215686 0 0 0 1 0"/><feBlend in2="BackgroundImageFix" result="effect1_dropShadow_376_4440"/><feBlend in="SourceGraphic" in2="effect1_dropShadow_376_4440" result="shape"/></filter><filter id="d" width="45.125" height="52.291" x="27.246" y="97.34" color-interpolation-filters="sRGB" filterUnits="userSpaceOnUse"><feFlood flood-opacity="0" result="BackgroundImageFix"/><feColorMatrix in="SourceAlpha" result="hardAlpha" values="0 0 0 0 0 0 0 0 0 0 0 0 0 0 0 0 0 0 127 0"/><feOffset/><feGaussianBlur stdDeviation="10"/><feComposite in2="hardAlpha" operator="out"/><feColorMatrix values="0 0 0 0 0.964706 0 0 0 0 0.215686 0 0 0 0 0.215686 0 0 0 1 0"/><feBlend in2="BackgroundImageFix" result="effect1_dropShadow_376_4440"/><feBlend in="SourceGraphic" in2="effect1_dropShadow_376_4440" result="shape"/></filter><filter id="e" width="59.597" height="63.283" x=".75" y="79.561" color-interpolation-filters="sRGB" filterUnits="userSpaceOnUse"><feFlood flood-opacity="0" result="BackgroundImageFix"/><feColorMatrix in="SourceAlpha" result="hardAlpha" values="0 0 0 0 0 0 0 0 0 0 0 0 0 0 0 0 0 0 127 0"/><feOffset/><feGaussianBlur stdDeviation="10"/><feComposite in2="hardAlpha" operator="out"/><feColorMatrix values="0 0 0 0 0.964706 0 0 0 0 0.215686 0 0 0 0 0.215686 0 0 0 1 0"/><feBlend in2="BackgroundImageFix" result="effect1_dropShadow_376_4440"/><feBlend in="SourceGraphic" in2="effect1_dropShadow_376_4440" result="shape"/></filter></defs></svg>