<svg xmlns="http://www.w3.org/2000/svg" width="158" height="155" fill="none"><path fill="#150F0F" stroke="#fff" stroke-width=".5" d="M87.72 37.344v13.979l-12.02-6.99V30.075l12.02 7.27ZM59.484 15.538v13.978l-12.021-6.99V8.27l12.021 7.269Z"/><path fill="#161616" stroke="#fff" stroke-width=".5" d="m99.183 44.333-11.462 6.99V37.344l-12.022-7.269 12.022-7.268 11.462 7.268v14.258ZM70.947 22.527l-11.463 6.99v-13.98L47.463 8.27 59.484 1l11.463 7.269v14.258ZM129.097 69.495l-11.742 6.989V62.505l-5.871-3.634v-4.473L109.247 53l8.108-5.032 11.742 7.268v14.259Z"/><path fill="#150F0F" d="m117.354 62.505-5.871-3.634V72.85l5.871 3.634V62.505Z"/><path fill="#150F0F" stroke="#fff" stroke-width=".5" d="M99.74 61.108v12.58l-12.58-6.71v-7.827l.56.28v-5.872l12.02 7.549Z"/><path fill="#161616" stroke="#fff" stroke-width=".5" d="m99.464 46.85-11.742 6.71 12.021 7.548v33.548l11.742-7.269v-32.99L99.464 46.85Z"/><path stroke="#fff" stroke-width=".5" d="m99.742 61.108 11.742-6.71" opacity=".2"/><path stroke="#fff" stroke-width=".5" d="m99.74 94.656 11.743-7.269v-32.99L99.461 46.85 87.72 53.56v5.87l-.559-.28"/><path fill="#161616" d="m57.807 54.957-12.021-7.269-11.463 7.369 11.463 7.169v14.258l6.15-3.634v-7.27l5.871-3.634v-6.989Z"/><path fill="#150F0F" d="M34.043 68.936V54.957l11.742 7.269v14.258l-11.742-7.548Z"/><path fill="#0F0E0E" stroke="#fff" stroke-width=".5" d="M86.882 143.86c-5.872 3.076-10.624 3.355-16.495 0l-58.43-34.946c-2.237-2.237-2.512-5.31 0-6.71l58.43-34.666c5.591-3.355 10.623-3.076 16.495 0l55.354 32.15c6.71 3.635 4.753 7.549-1.118 11.463L86.882 143.86Z"/><path fill="#fff" d="M104.775 116.462h-5.033v5.033h10.345v-9.506h-5.312v4.473ZM38.237 86.548v4.474h-4.753v-4.474h4.753ZM110.087 39.86v-4.473h4.752v4.473h-4.752ZM66.753 33.15v9.506h-5.032v4.753h-4.473v-4.753h4.473V33.15h5.032Z"/><g filter="url(#a)"><path fill="#222" d="m76.258 117.021-12.021 6.99-27.398-16.215 16.495-10.345-15.936-10.344 28.237-16.774 39.139 25.72-4.752 3.356 13.139 8.666-26.28 15.936-10.623-6.99Z"/></g><path fill="#161616" d="m63.398 58.032 11.183-6.989 12.58 7.269v8.666l12.582 6.71v34.108l-12.302 7.548V81.237L75.7 74.247v-8.946l-12.3-7.269Z"/><path stroke="#fff" stroke-width=".5" d="m50.538 97.172-10.344 6.151m-1.118.838-1.957 1.119m-.839.559-.839.559m26.84 12.581-6.99 4.193m-1.398.559-1.118.839m-.839.559-.839.559M131.053 68.656l6.43-4.194m1.119-.559 2.236-1.398m.839-.559 1.398-.838m-24.602-13.979 6.43-3.914m1.398-.839 1.957-1.398m.838-.559.839-.559M99.462 28.118v-8.387m0-1.398v-1.957m0-1.118v-.839M87.44 115.344l12.302-7.548v-12.86"/><path stroke="#fff" stroke-width=".5" d="M99.742 94.936V73.688m0 0-12.3 7.549-11.743-6.99m24.043-.559-12.58-6.71m-11.463 7.27 11.463-7.27m-11.463 7.27V65.3l11.463-6.99v8.667" opacity=".2"/><path stroke="#fff" stroke-width=".5" d="M99.74 94.936V73.688l-12.58-6.71v-8.666"/><path fill="#161616" d="m63.398 72.57-11.463-6.99 11.463-6.989V72.57ZM64.236 103.323v13.978l12.022-7.269v-1.398l-.56-.838V95.495l-11.182-6.71-12.301 7.269 12.021 7.269Z"/><path fill="#161616" d="M64.236 103.323v13.978l12.022-7.269v-1.398l-.56-.838V95.495l-11.182-6.71-12.301 7.269 12.021 7.269Z"/><g filter="url(#b)"><path fill="#F73737" d="M143.915 100.806c3.796 3.666 2.881 5.894-2.236 10.065v8.107l4.473-2.516c1.238-1.111 1.442-1.874 1.398-3.355v-6.15c-.04-3.662-1.057-4.807-3.635-6.151Z"/></g><g filter="url(#c)"><path fill="#F73737" d="M26.495 117.301v8.108l-14.818-8.947C10.28 115.344 10 114.226 10 112.269v-6.989c.56 1.397 1.398 3.075 2.237 3.354l14.258 8.667Z"/></g><path fill="#222" stroke="#222" stroke-width=".5" d="M64.517 88.785v-5.312l11.182 6.15-4.752 3.076-6.43-3.914Z"/><path fill="#150F0F" stroke="#fff" stroke-width=".5" d="M75.699 108.075c3.82 2.33 11.518 7.045 11.742 7.269V81.237l-11.742-6.99v-8.946l-12.301-7.269V72.57l-11.463-6.99v24.044l6.151 3.075 6.43-3.914v-5.312l11.183 6.15v18.452Z"/><path stroke="#fff" stroke-width=".5" d="m109.526 52.72 7.828-4.752 11.742 7.269m0 0v14.258l-11.742 6.989m11.742-21.247-11.742 7.268m0 13.979V62.505m0 13.979-5.871-3.634m5.871-10.345-5.591-3.634"/><path stroke="#fff" stroke-width=".5" d="m70.945 92.699 4.753-3.075" opacity=".2"/><path stroke="#fff" stroke-width=".5" d="M57.806 62.226v-7.269m0 0-12.021-7.269-11.742 7.269m23.763 0-12.021 7.269m-11.742-7.269v13.979l11.742 7.548M34.043 54.957l11.742 7.269m0 14.258 6.15-3.634m-6.15 3.634V62.226M87.72 22.806l-12.02 7.27v14.257l12.02 6.99 11.463-6.99V30.075l-11.462-7.268ZM59.484 1 47.463 8.269v14.258l12.021 6.99 11.463-6.99V8.269L59.484 1Z"/><path stroke="#fff" stroke-width=".5" d="m75.7 30.075 12.02 7.27m0 0v13.978m0-13.979 11.463-7.269M47.463 8.269l12.021 7.269m0 0v13.978m0-13.978 11.463-7.27" opacity=".2"/><g filter="url(#d)"><path fill="#F73737" d="M33.484 129.602v-7.828l4.474 2.796v7.828l-4.474-2.796Z"/></g><path stroke="#fff" stroke-width=".5" d="m26.494 125.409 43.613 26.279m0 0v-7.929m0 7.929c5.083 3.09 11.742 3.075 16.774 0m0 0 1.279-.763m-1.279.763v-1.118m0-6.71v1.957m47.807-22.666 6.989-12.28v2.236m-6.989 10.044 1.957-1.169m-1.957 1.169-1.91 1.139m3.867-2.308 5.032-8.875m-5.032 8.875 1.957-1.168m3.075-7.707v1.957m0 0-3.075 5.75m3.075-5.75v1.957m-3.075 3.793 1.537-.918m0 0 1.538-.918v-1.957m-1.538 2.875 1.538-2.875m-8.899 7.269 6.662-12.021m-6.662 12.021-1.725 1.03m0 0 6.151-11.653m-6.151 11.653-2.236 1.335m0 0 5.591-11.311m-5.591 11.311-2.237 1.335m0 0 5.312-11.248m-5.312 11.248-1.957 1.168m0 0 4.753-11.018m-4.753 11.018-2.395 1.43m0 0 4.632-10.771m-4.632 10.771-2.563 1.53m0 0 4.679-10.903m-4.679 10.903-2.031 1.213m0 0 4.193-10.439m-4.193 10.439-1.957 1.168m0 0 3.988-10.488m-3.988 10.488-1.957 1.168m0 0 3.355-9.979m-3.355 9.979-2.017 1.204m0 0 3.135-9.785m-3.135 9.785-1.897 1.132m0 0 2.796-9.519m-2.796 9.519-1.677 1.002m0 0 2.236-9.123m-2.236 9.123-1.957 1.168m0 0 1.957-9.173m-1.957 9.173-2.431 1.451m0 0 2.431-9.506m-2.431 9.506-2.322 1.386m0 0 2.322-9.349m-2.322 9.349-2.36 1.409m0 0 2.36-9.226m-2.36 9.226-2.343 1.398m0 0c-.04-.224 1.628-6.244 2.466-9.226m-2.466 9.226-2.566 1.532m0 0 2.237-9.08m-2.237 9.08-2.117 1.264m0 0 2.397-9.226m-2.397 9.226-2.076 1.239m0 0 2.236-9.067m-2.236 9.067-1.797 1.073m0 0 2.076-9.022m-3.355 8.667 1.678-7.56m-1.678 7.56v-4.753m0 0 .56-2.236M52.215 96.054v14.258l12.021 6.989"/><path fill="#150F0F" stroke="#fff" stroke-width=".5" d="M64.236 103.323v13.978l-12.021-6.989V96.054l12.021 7.269Z"/><path stroke="#fff" stroke-width=".5" d="m64.236 103.323 11.463-7.27" opacity=".2"/><path stroke="#fff" stroke-width=".5" d="m52.215 96.054 5.591-3.355m6.71-3.914 11.183 6.71M64.236 117.3l12.022-7.269v-1.677M51.935 65.58l11.463-6.989M63.398 58.032l11.183-6.989 12.58 7.269M75.14 28.118V20.85m0-1.397v-1.678m0-1.118v-1.398M42.99 46.011c-.224-.224-4.567-2.89-6.71-4.194m-1.398-.839-1.677-1.118m-.839-.559-.839-.56M30.409 67.538l-6.99-4.473m-1.118-.56-1.397-1.118m-.84-.559-1.397-1.118"/><defs><filter id="a" width="96.322" height="73.677" x="26.839" y="60.333" color-interpolation-filters="sRGB" filterUnits="userSpaceOnUse"><feFlood flood-opacity="0" result="BackgroundImageFix"/><feBlend in="SourceGraphic" in2="BackgroundImageFix" result="shape"/><feGaussianBlur result="effect1_foregroundBlur_376_4625" stdDeviation="5"/></filter><filter id="b" width="25.876" height="38.172" x="131.679" y="90.806" color-interpolation-filters="sRGB" filterUnits="userSpaceOnUse"><feFlood flood-opacity="0" result="BackgroundImageFix"/><feColorMatrix in="SourceAlpha" result="hardAlpha" values="0 0 0 0 0 0 0 0 0 0 0 0 0 0 0 0 0 0 127 0"/><feOffset/><feGaussianBlur stdDeviation="5"/><feComposite in2="hardAlpha" operator="out"/><feColorMatrix values="0 0 0 0 0.966667 0 0 0 0 0.2175 0 0 0 0 0.2175 0 0 0 1 0"/><feBlend in2="BackgroundImageFix" result="effect1_dropShadow_376_4625"/><feBlend in="SourceGraphic" in2="effect1_dropShadow_376_4625" result="shape"/></filter><filter id="c" width="36.494" height="40.129" x="0" y="95.279" color-interpolation-filters="sRGB" filterUnits="userSpaceOnUse"><feFlood flood-opacity="0" result="BackgroundImageFix"/><feColorMatrix in="SourceAlpha" result="hardAlpha" values="0 0 0 0 0 0 0 0 0 0 0 0 0 0 0 0 0 0 127 0"/><feOffset/><feGaussianBlur stdDeviation="5"/><feComposite in2="hardAlpha" operator="out"/><feColorMatrix values="0 0 0 0 0.966667 0 0 0 0 0.2175 0 0 0 0 0.2175 0 0 0 1 0"/><feBlend in2="BackgroundImageFix" result="effect1_dropShadow_376_4625"/><feBlend in="SourceGraphic" in2="effect1_dropShadow_376_4625" result="shape"/></filter><filter id="d" width="24.473" height="30.624" x="23.484" y="111.774" color-interpolation-filters="sRGB" filterUnits="userSpaceOnUse"><feFlood flood-opacity="0" result="BackgroundImageFix"/><feColorMatrix in="SourceAlpha" result="hardAlpha" values="0 0 0 0 0 0 0 0 0 0 0 0 0 0 0 0 0 0 127 0"/><feOffset/><feGaussianBlur stdDeviation="5"/><feComposite in2="hardAlpha" operator="out"/><feColorMatrix values="0 0 0 0 0.966667 0 0 0 0 0.2175 0 0 0 0 0.2175 0 0 0 1 0"/><feBlend in2="BackgroundImageFix" result="effect1_dropShadow_376_4625"/><feBlend in="SourceGraphic" in2="effect1_dropShadow_376_4625" result="shape"/></filter></defs></svg>