<svg xmlns="http://www.w3.org/2000/svg" width="490" height="189" fill="none" stroke="#505050" stroke-width=".5"><path d="M489 63.466C409.278 30.025 326.522.905 224.905.81 157.863.747 74.666 8.285 1.005 17"/><path d="M489 58.318C410.758 29.478 329.3 4.712 229.809 4.62 161.866 4.556 76.427 10.205 1.008 16.675"/><path d="M489 53.662C412.23 29.225 332.085 8.52 234.714 8.429 165.886 8.365 78.179 12.013 1 16.158"/><path d="M489 49.493C413.692 29.258 334.877 12.329 239.619 12.24 169.93 12.175 79.936 13.712 1 15.453"/><path d="M489 49.206c-73.853-16.239-151.324-29.667-244.476-29.754L1 17.967m488 39.404C416.595 44.92 340.483 34.728 249.429 34.643 178.077 34.576 83.449 31.569 1 28.284M489.003 66c-70.965-8.872-145.705-16.084-234.67-16.167C182.179 49.766 85.204 44.329 1 38.429m488 36.656c-69.529-5.503-142.88-9.98-229.762-10.061C186.299 64.956 86.956 56.987 1 48.408m488 36.21-224.857-4.404C190.437 80.146 88.707 69.544 1 58.227m0 9.664c89.455 14.111 193.592 27.444 268.048 27.513L489 94.588M1 77.405c91.201 16.959 197.764 33.12 272.952 33.19 80.687.075 149.798-2.276 215.048-5.609M1 86.773c92.944 19.857 201.952 38.942 277.857 39.013 78.639.073 146.313-4.128 210.143-9.985M1 96.001c94.684 22.802 206.155 44.904 282.762 44.975 76.6.071 142.825-5.78 205.238-13.955M1 105.092c96.42 25.793 210.374 51.003 287.667 51.074 74.57.07 139.335-7.244 200.333-17.53M1 114.051c98.154 28.827 214.607 57.233 292.571 57.306 72.55.067 135.845-8.53 195.429-20.724M1 122.883c99.883 31.899 218.854 63.591 297.476 63.664 70.538.066 132.351-9.643 190.521-23.547M1 131.591C63.345 153.072 133.18 174.573 196.153 188m241.434 0c17.53-3.573 34.627-7.717 51.413-12.277M1 145.383c40.454 14.938 84.086 29.932 127 42.652M72.557 188C48.142 179.311 24.052 170.206 1 161.136m0 15.642L28.338 188"/></svg>