<svg width="16" height="16" fill="none" xmlns="http://www.w3.org/2000/svg"><path fill-rule="evenodd" clip-rule="evenodd" d="M7.26.02C5.261.22 3.46 1.11 2.12 2.557 1.022 3.746.336 5.178.075 6.828c-.098.617-.098 1.746 0 2.352.3 1.857 1.144 3.458 2.475 4.696 1.184 1.1 2.613 1.789 4.258 2.05.616.099 1.742.098 2.346 0 2.068-.336 3.822-1.356 5.097-2.966a8.03 8.03 0 0 0 1.623-3.754c.035-.224.063-.48.063-.57 0-.088.015-.17.032-.18.018-.012.031-.21.031-.49 0-.305-.01-.462-.031-.45-.02.012-.032-.044-.032-.147 0-.091-.028-.345-.061-.563a8.032 8.032 0 0 0-2.952-5.095A8.003 8.003 0 0 0 9.18.082C8.72.01 7.694-.024 7.26.02Zm.172 1.24c-1.7.179-3.068.818-4.215 1.967A6.721 6.721 0 0 0 1.31 7.003c-.077.493-.077 1.503 0 1.997a6.721 6.721 0 0 0 1.908 3.775 6.69 6.69 0 0 0 3.765 1.914c.492.077 1.5.077 1.992 0a6.69 6.69 0 0 0 3.765-1.914A6.722 6.722 0 0 0 14.647 9c.077-.494.077-1.504 0-1.997a6.722 6.722 0 0 0-1.908-3.776A6.69 6.69 0 0 0 9.008 1.32c-.315-.05-1.318-.087-1.576-.06Zm3.418 4.055c-.086.024-.526.448-2.037 1.96l-1.927 1.93-.804-.802c-.442-.44-.846-.822-.899-.849a.6.6 0 0 0-.69.08c-.13.114-.228.306-.228.445-.002.272.011.289 1.149 1.433.741.747 1.124 1.11 1.217 1.155.187.09.42.066.605-.063.073-.052 1.083-1.05 2.244-2.217 2.314-2.327 2.244-2.246 2.201-2.569-.052-.39-.428-.617-.831-.503ZM0 8c0 .267.005.376.01.243a6.687 6.687 0 0 0 0-.485C.006 7.625 0 7.734 0 8Z" fill="#fff"/></svg>