<svg xmlns="http://www.w3.org/2000/svg" width="31" height="30" fill="none"><path fill="#B0B0B0" fill-rule="evenodd" d="M13.629.036C9.877.411 6.492 2.078 3.979 4.79 1.918 7.012.63 9.693.14 12.78c-.183 1.157-.182 3.27.001 4.405.564 3.476 2.148 6.474 4.646 8.79 2.224 2.061 4.905 3.35 7.993 3.84 1.157.183 3.27.183 4.405-.001 3.882-.63 7.175-2.54 9.569-5.552 1.588-2 2.648-4.444 3.046-7.028.065-.42.118-.899.118-1.066 0-.168.027-.32.06-.34.034-.022.058-.393.058-.916 0-.57-.02-.866-.059-.843-.036.023-.058-.082-.059-.274 0-.171-.052-.646-.115-1.055a15.028 15.028 0 0 0-5.542-9.538c-1.997-1.587-4.422-2.64-7.028-3.05-.864-.135-2.79-.198-3.603-.117Zm.322 2.322c-3.19.335-5.76 1.532-7.912 3.684-1.942 1.941-3.157 4.339-3.582 7.067-.144.924-.144 2.816 0 3.74.425 2.727 1.64 5.125 3.582 7.067 1.942 1.942 4.34 3.157 7.068 3.582.924.144 2.815.144 3.739 0 2.728-.425 5.126-1.64 7.068-3.582 1.941-1.942 3.157-4.34 3.582-7.068.144-.923.144-2.815 0-3.739-.425-2.728-1.64-5.126-3.582-7.067a12.57 12.57 0 0 0-7.005-3.571c-.591-.092-2.474-.163-2.958-.113ZM0 14.978c0 .5.009.704.02.455.011-.25.011-.659 0-.908-.011-.25-.02-.046-.02.454Z" clip-rule="evenodd"/></svg>