<svg width="36" height="37" fill="none" xmlns="http://www.w3.org/2000/svg"><path d="M27.57 2.718C24.835 1.019 22.443.227 18.798 0c-3.418 3.171-3.304 9.626 0 12.57 1.367-5.435 4.557-8.38 8.772-9.852ZM31.557 5.777c-5.127-.227-9.114 4.416-9.114 8.946 4.215-2.831 9.114-2.944 13.215-.68-.684-3.623-1.977-5.534-4.101-8.266ZM36 18.686c-3.19-3.398-9.455-3.058-12.531.113 5.023 1.213 7.746 3.51 10.025 8.607C35.233 24.55 36 22.423 36 18.686ZM30.304 31.37c-.341-5.436-4.05-8.634-9-8.947 2.563 4.454 3.077 8.607.798 13.136 3.401-.925 5.354-1.811 8.202-4.19ZM17.203 36.013c3.304-3.284 3.532-8.607 0-12.57-1.367 5.548-4.329 8.38-8.771 9.965 3.06 1.856 5.046 2.275 8.771 2.605ZM4.672 30.237c5.322-.494 8.772-3.963 8.772-9.06-3.304 2.605-8.886 2.945-13.215 1.02 1.21 3.518 2.17 5.358 4.443 8.04ZM.002 17.214c2.848 3.058 8.771 3.51 12.53 0-5.353-1.245-8.49-4.382-9.91-8.493-1.595 2.378-2.671 5.663-2.62 8.493ZM5.698 4.757c.797 5.435 3.76 8.38 9 8.833-2.646-4.348-2.849-8.494-.912-13.137-3.76.906-5.747 2.155-8.088 4.304Z" fill="#F73737"/></svg>