<svg width="165" height="59" viewBox="0 0 165 59" fill="none" xmlns="http://www.w3.org/2000/svg">
<path fill-rule="evenodd" clip-rule="evenodd" d="M18.1874 13.0268C12.7794 15.8838 8.35742 23.1048 8.35742 29.0788C8.35742 34.8868 12.8604 42.5688 17.8334 45.2478C21.5604 47.2548 26.8114 47.9338 30.6644 46.9068C34.8504 45.7908 42.3574 39.6208 42.3574 37.2968C42.3574 36.4878 39.5864 32.9408 36.1984 29.4128C31.1534 24.1588 29.4644 22.9998 26.8534 22.9998C22.6584 22.9998 20.1204 25.8358 20.5374 30.0578C20.9854 34.6008 24.9434 37.4878 28.7434 36.0428C32.2954 34.6928 31.6344 32.5918 27.5304 32.1868C24.9204 31.9288 24.3574 31.4408 24.3574 29.4368C24.3574 25.3398 28.2624 26.5408 33.3404 32.1988L37.8224 37.1948L34.5744 40.0968C29.1714 44.9248 20.3974 43.6808 15.4454 37.3848C13.9134 35.4368 13.3574 33.2918 13.3574 29.3258C13.3574 24.4198 13.7184 23.5348 17.2854 19.7108C20.9894 15.7408 21.5314 15.4998 26.7634 15.4998C31.4644 15.4998 32.7264 15.9138 35.0244 18.2118C37.6044 20.7928 37.6534 21.0158 36.0214 22.8188C34.4924 24.5088 34.4714 24.8498 35.8324 25.9788C37.5464 27.4008 39.6304 26.2258 41.4614 22.8058C43.7884 18.4578 33.7924 10.9538 25.7914 11.0438C23.6274 11.0688 20.2064 11.9608 18.1874 13.0268ZM61.8074 16.3948C60.1304 17.1318 57.5434 19.1788 56.0574 20.9438C50.9294 27.0388 53.4794 37.4818 60.8474 40.5598C67.1264 43.1838 73.1284 42.0048 71.9764 38.3748C71.5084 36.8998 70.4004 36.4998 66.7814 36.4998C63.1524 36.4998 61.7764 36.0008 60.2694 34.1388C56.0274 28.8998 59.5334 20.9998 66.1014 20.9998C68.0804 20.9998 70.4354 21.6658 71.3354 22.4798C72.7794 23.7868 73.2274 23.7788 75.1804 22.4108C77.7124 20.6378 77.3434 19.5538 73.5444 17.6128C69.1854 15.3868 65.0724 14.9598 61.8074 16.3948ZM95.0584 16.6318C94.6734 17.0178 94.3574 18.1898 94.3574 19.2358C94.3574 20.6378 94.9504 21.0548 96.6074 20.8198C98.0784 20.6108 98.8574 19.8118 98.8574 18.5138C98.8574 16.5298 96.3854 15.3058 95.0584 16.6318ZM123.357 28.9998V41.9998H131.357C138.69 41.9998 139.357 41.8328 139.357 39.9998C139.357 38.2218 138.69 37.9998 133.357 37.9998H127.357V34.4998V30.9998H133.357C138.69 30.9998 139.357 30.7778 139.357 28.9998C139.357 27.2218 138.69 26.9998 133.357 26.9998H127.357V23.4998V19.9998H133.357C138.69 19.9998 139.357 19.7778 139.357 17.9998C139.357 16.1668 138.69 15.9998 131.357 15.9998H123.357V28.9998ZM79.8574 23.9448C69.1654 28.3218 74.6254 44.2298 85.8514 41.4118C88.6744 40.7038 92.3474 35.7818 92.3534 32.6998C92.3604 29.6708 89.6494 25.4538 86.8854 24.1948C83.8974 22.8328 82.6794 22.7898 79.8574 23.9448ZM94.3574 32.4998C94.3574 41.9668 94.3664 41.9998 96.8574 41.9998C99.3484 41.9998 99.3574 41.9668 99.3574 32.4998C99.3574 23.0328 99.3484 22.9998 96.8574 22.9998C94.3664 22.9998 94.3574 23.0328 94.3574 32.4998ZM101.357 32.4648C101.357 41.9688 101.365 41.9998 103.857 41.9998C106.243 41.9998 106.357 41.7298 106.357 36.0568C106.357 31.1388 106.722 29.8578 108.472 28.6318C112.852 25.5638 116.357 29.1458 116.357 36.6908C116.357 41.3328 116.608 41.9998 118.357 41.9998C120.154 41.9998 120.357 41.3328 120.357 35.4228C120.357 29.4868 120.072 28.5608 117.434 25.9228C114.358 22.8468 108.847 21.9098 106.664 24.0928C105.874 24.8828 104.988 24.8728 103.464 24.0568C101.39 22.9468 101.357 23.0778 101.357 32.4648ZM141.977 24.2498C142.383 24.9378 143.76 26.8918 145.036 28.5938C146.313 30.2958 147.344 32.0958 147.329 32.5938C147.314 33.0918 145.935 35.2998 144.266 37.4998C141.233 41.4958 141.233 41.4998 143.51 41.8478C145.071 42.0858 146.52 41.2978 148.108 39.3478C150.341 36.6068 150.481 36.5708 151.856 38.3918C152.642 39.4318 153.427 40.7088 153.6 41.2298C153.774 41.7498 155.132 42.0228 156.618 41.8378L159.321 41.4998L156.255 36.8028L153.189 32.1048L156.321 27.5528L159.453 22.9998H156.586C154.345 22.9998 153.39 23.6968 152.208 26.1918L150.697 29.3838L148.811 26.1918C147.394 23.7928 146.219 22.9998 144.082 22.9998C142.081 22.9998 141.457 23.3698 141.977 24.2498ZM79.5574 29.1998C78.0144 30.7428 78.0144 34.2568 79.5574 35.7998C81.6654 37.9078 85.9264 37.2418 87.1224 34.6158C89.1994 30.0578 83.0804 25.6768 79.5574 29.1998Z" fill="white"/>
</svg>
