<svg xmlns="http://www.w3.org/2000/svg" width="91" height="105" fill="none"><path fill="#fff" d="M.844 104.639V.914h48.91c12.353 0 22.232 3.359 29.643 10.076 7.41 6.619 11.116 14.868 11.116 24.746 0 7.705-2.172 14.275-6.522 19.708-4.343 5.433-10.079 9.483-17.193 12.15l23.715 37.045H65.316L43.825 70.558h-20.75v34.081H.844Zm22.23-54.826h25.938c6.129 0 10.724-1.235 13.784-3.705 3.165-2.568 4.743-6.025 4.743-10.372 0-4.347-1.578-7.755-4.743-10.224-3.06-2.569-7.655-3.853-13.784-3.853H23.075v28.154Z" opacity=".2"/></svg>