<svg xmlns="http://www.w3.org/2000/svg" width="622" height="1055" fill="none"><style>.B{fill:#505050}.C{color-interpolation-filters:sRGB}.D{flood-opacity:0}</style><g opacity=".8"><g stroke="#505050" stroke-width=".6"><path d="M194.698 465.886 26.733 789.341m167.965-323.455 107.434 491.435M27.272 788.23l382.493 68.949m0 0L194.698 465.886m0 0 249.507-13.44m0 0 313.001 31.104M797.492 199.715 522.76 649.816m0-.001-78.555-197.369m78.555 197.37L301.561 955.671m0 0 108.204-98.492m-108.204 98.492 85.431-249.569M386.992 706.101l135.768-56.286m-135.768 56.287L27.272 788.23m359.72-82.129L194.698 465.886m328.062 183.93 233.335-166.805m0 0L568.343 253.237m0 0 228.61-52.411M568.343 253.237 522.76 649.815"/></g><g class="B" filter="url(#A)"><circle cx="568.343" cy="253.237" r="7.41" transform="rotate(25.889 568.343 253.237)"/></g><g class="B" filter="url(#B)"><circle cx="523.266" cy="645.943" r="7.41" transform="rotate(25.889 523.266 645.943)"/></g><g class="B" filter="url(#C)"><circle cx="384.769" cy="705.023" r="7.41" transform="rotate(25.889 384.769 705.023)"/></g><g class="B" filter="url(#D)"><circle cx="409.765" cy="857.178" r="7.41" transform="rotate(25.889 409.765 857.178)"/></g><g class="B" filter="url(#E)"><circle cx="301.56" cy="955.67" r="7.41" transform="rotate(25.889 301.56 955.67)"/></g><g class="B" filter="url(#F)"><circle cx="27.844" cy="789.88" r="7.41" transform="rotate(25.889 27.844 789.88)"/></g><g class="B" filter="url(#G)"><circle cx="195.269" cy="467.537" r="7.41" transform="rotate(25.889 195.269 467.537)"/></g><g class="B" filter="url(#H)"><circle cx="443.665" cy="453.557" r="7.41" transform="rotate(25.889 443.665 453.557)"/></g></g><defs><filter id="A" width="54.824" height="54.824" x="540.931" y="225.825" class="C" filterUnits="userSpaceOnUse"><feFlood class="D" result="A"/><feColorMatrix in="SourceAlpha" result="B" values="0 0 0 0 0 0 0 0 0 0 0 0 0 0 0 0 0 0 127 0"/><feOffset/><feGaussianBlur stdDeviation="10"/><feComposite in2="B" operator="out"/><feColorMatrix values="0 0 0 0 1 0 0 0 0 1 0 0 0 0 1 0 0 0 0.02 0"/><feBlend in2="A"/><feBlend in="SourceGraphic"/><feGaussianBlur stdDeviation="5"/></filter><filter id="B" width="54.824" height="54.824" x="495.854" y="618.531" class="C" filterUnits="userSpaceOnUse"><feFlood class="D" result="A"/><feColorMatrix in="SourceAlpha" result="B" values="0 0 0 0 0 0 0 0 0 0 0 0 0 0 0 0 0 0 127 0"/><feOffset/><feGaussianBlur stdDeviation="10"/><feComposite in2="B" operator="out"/><feColorMatrix values="0 0 0 0 1 0 0 0 0 1 0 0 0 0 1 0 0 0 0.02 0"/><feBlend in2="A"/><feBlend in="SourceGraphic"/><feGaussianBlur stdDeviation="5"/></filter><filter id="C" width="54.824" height="54.824" x="357.357" y="677.611" class="C" filterUnits="userSpaceOnUse"><feFlood class="D" result="A"/><feColorMatrix in="SourceAlpha" result="B" values="0 0 0 0 0 0 0 0 0 0 0 0 0 0 0 0 0 0 127 0"/><feOffset/><feGaussianBlur stdDeviation="10"/><feComposite in2="B" operator="out"/><feColorMatrix values="0 0 0 0 1 0 0 0 0 1 0 0 0 0 1 0 0 0 0.02 0"/><feBlend in2="A"/><feBlend in="SourceGraphic"/><feGaussianBlur stdDeviation="5"/></filter><filter id="D" width="54.824" height="54.824" x="382.353" y="829.767" class="C" filterUnits="userSpaceOnUse"><feFlood class="D" result="A"/><feColorMatrix in="SourceAlpha" result="B" values="0 0 0 0 0 0 0 0 0 0 0 0 0 0 0 0 0 0 127 0"/><feOffset/><feGaussianBlur stdDeviation="10"/><feComposite in2="B" operator="out"/><feColorMatrix values="0 0 0 0 1 0 0 0 0 1 0 0 0 0 1 0 0 0 0.02 0"/><feBlend in2="A"/><feBlend in="SourceGraphic"/><feGaussianBlur stdDeviation="5"/></filter><filter id="E" width="54.824" height="54.824" x="274.148" y="928.259" class="C" filterUnits="userSpaceOnUse"><feFlood class="D" result="A"/><feColorMatrix in="SourceAlpha" result="B" values="0 0 0 0 0 0 0 0 0 0 0 0 0 0 0 0 0 0 127 0"/><feOffset/><feGaussianBlur stdDeviation="10"/><feComposite in2="B" operator="out"/><feColorMatrix values="0 0 0 0 1 0 0 0 0 1 0 0 0 0 1 0 0 0 0.02 0"/><feBlend in2="A"/><feBlend in="SourceGraphic"/><feGaussianBlur stdDeviation="5"/></filter><filter id="F" width="54.824" height="54.824" x=".432" y="762.469" class="C" filterUnits="userSpaceOnUse"><feFlood class="D" result="A"/><feColorMatrix in="SourceAlpha" result="B" values="0 0 0 0 0 0 0 0 0 0 0 0 0 0 0 0 0 0 127 0"/><feOffset/><feGaussianBlur stdDeviation="10"/><feComposite in2="B" operator="out"/><feColorMatrix values="0 0 0 0 1 0 0 0 0 1 0 0 0 0 1 0 0 0 0.02 0"/><feBlend in2="A"/><feBlend in="SourceGraphic"/><feGaussianBlur stdDeviation="5"/></filter><filter id="G" width="54.824" height="54.824" x="167.857" y="440.125" class="C" filterUnits="userSpaceOnUse"><feFlood class="D" result="A"/><feColorMatrix in="SourceAlpha" result="B" values="0 0 0 0 0 0 0 0 0 0 0 0 0 0 0 0 0 0 127 0"/><feOffset/><feGaussianBlur stdDeviation="10"/><feComposite in2="B" operator="out"/><feColorMatrix values="0 0 0 0 1 0 0 0 0 1 0 0 0 0 1 0 0 0 0.02 0"/><feBlend in2="A"/><feBlend in="SourceGraphic"/><feGaussianBlur stdDeviation="5"/></filter><filter id="H" width="54.824" height="54.824" x="416.253" y="426.146" class="C" filterUnits="userSpaceOnUse"><feFlood class="D" result="A"/><feColorMatrix in="SourceAlpha" result="B" values="0 0 0 0 0 0 0 0 0 0 0 0 0 0 0 0 0 0 127 0"/><feOffset/><feGaussianBlur stdDeviation="10"/><feComposite in2="B" operator="out"/><feColorMatrix values="0 0 0 0 1 0 0 0 0 1 0 0 0 0 1 0 0 0 0.02 0"/><feBlend in2="A"/><feBlend in="SourceGraphic"/><feGaussianBlur stdDeviation="5"/></filter></defs></svg>