<svg width="295" height="187" fill="none" xmlns="http://www.w3.org/2000/svg"><g opacity=".2"><path d="M234.756 169.009c-5.785 3.031-10.468 3.306-16.253 0l-57.574-34.434c-2.204-2.204-2.475-5.232 0-6.611l57.574-34.16c5.509-3.305 10.468-3.03 16.253 0l54.544 31.68c6.611 3.582 4.683 7.438-1.102 11.295l-53.442 32.23Z" fill="#0F0E0E" stroke="#fff" stroke-width=".5"/><path d="M290.952 126.585c3.74 3.612 2.838 5.807-2.204 9.917v7.989l4.408-2.479c1.22-1.095 1.42-1.848 1.377-3.306v-6.061c-.039-3.608-1.041-4.736-3.581-6.06ZM175.253 142.84v7.988l-14.6-8.815c-1.378-1.102-1.653-2.204-1.653-4.132v-6.887c.551 1.378 1.377 3.03 2.204 3.306l14.049 8.54ZM182.14 154.959v-7.713l4.407 2.755v7.713l-4.407-2.755Z" fill="#F73737"/><path d="m175.253 150.827 42.974 25.894m0 0v-7.813m0 7.813c5.008 3.045 11.57 3.03 16.528 0m0 0 1.26-.752m-1.26.752v-1.102m0-6.611v1.928m47.107-22.334 6.887-12.1v2.204m-6.887 9.896 1.928-1.151m-1.928 1.151-1.882 1.123m3.81-2.274 4.959-8.745m-4.959 8.745 1.928-1.151m3.031-7.594v1.928m0 0-3.031 5.666m3.031-5.666v1.928m-3.031 3.738 1.515-.905m0 0 1.516-.904v-1.929m-1.516 2.833 1.516-2.833m-8.769 7.163 6.565-11.846m-6.565 11.846-1.7 1.014m0 0 6.061-11.482m-6.061 11.482-2.203 1.316m0 0 5.509-11.145m-5.509 11.145-2.204 1.316m0 0 5.234-11.084m-5.234 11.084-1.928 1.151m0 0 4.683-10.858m-4.683 10.858-2.36 1.408m0 0 4.563-10.613m-4.563 10.613-2.526 1.508m0 0 4.61-10.743m-4.61 10.743-2.001 1.195m0 0 4.132-10.286m-4.132 10.286-1.929 1.151m0 0 3.93-10.335m-3.93 10.335-1.928 1.151m0 0 3.306-9.833m-3.306 9.833-1.987 1.186m0 0 3.089-9.642m-3.089 9.642-1.87 1.116m0 0 2.755-9.38m-2.755 9.38-1.652.987m0 0 2.203-8.99m-2.203 8.99-1.929 1.151m0 0 1.929-9.039m-1.929 9.039-2.394 1.429m0 0 2.394-9.366m-2.394 9.366-2.289 1.366m0 0 2.289-9.212m-2.289 9.212-2.326 1.389m0 0 2.326-9.091m-2.326 9.091-2.307 1.377m0 0c-.04-.22 1.603-6.152 2.429-9.09m-2.429 9.09-2.529 1.51m0 0 2.204-8.948m-2.204 8.948-2.086 1.245m0 0 2.361-9.091m-2.361 9.091-2.046 1.221m0 0 2.203-8.934m-2.203 8.934-1.771 1.057m0 0 2.046-8.889m-3.306 8.539 1.653-7.449m-1.653 7.449v-4.683m0 0 .551-2.204" stroke="#fff" stroke-width=".5"/><path d="M179.751 71.992V58.858l38.35 22.853c6.439 3.648 9.93 3.411 16.023 0l42.291-25.48v17.862l-43.867 26.267c-4.728 2.364-7.617 2.627-12.871 0l-38.875-22.852-2.889-1.05 1.838-4.466Z" fill="#161616"/><path d="M179.751 102.724V85.651l38.35 23.115c6.042 3.415 10.245 3.415 16.023.263l42.291-25.48v17.337l-43.604 26.004c-3.152 1.839-7.617 2.627-12.871 0l-2.795-1.576-.094-13.396-33.36-20.226-2.364.788v9.194l1.314.788v2.101l-1.839-.263v-.788l-1.051-.788Z" fill="#161616"/><path d="M180.014 124.789v-13.134l38.35 23.115c6.399 3.483 9.958 3.298 16.286 0l42.29-25.741v17.861l-44.392 26.53c-4.202 2.364-8.102 2.461-12.871 0l-41.502-25.216 1.839-3.415Z" fill="#161616"/><path d="M179.751 71.992V58.858l38.35 22.853c6.439 3.648 9.93 3.411 16.023 0l42.291-25.48v17.862l-43.867 26.267c-4.728 2.364-7.617 2.627-12.871 0l-38.875-22.852-2.889-1.05 1.838-4.466Z" stroke="#fff" stroke-width=".5"/><path d="M179.751 102.724V85.651l38.35 23.115c6.042 3.415 10.245 3.415 16.023.263l42.291-25.48v17.337l-43.604 26.004c-3.152 1.839-7.617 2.627-12.871 0l-2.795-1.576-.094-13.396-33.36-20.226-2.364.788v9.194l1.314.788v2.101l-1.839-.263v-.788l-1.051-.788Z" stroke="#fff" stroke-width=".5"/><path d="M180.014 124.789v-13.134l38.35 23.115c6.399 3.483 9.958 3.298 16.286 0l42.29-25.741v17.861l-44.392 26.53c-4.202 2.364-8.102 2.461-12.871 0l-41.502-25.216 1.839-3.415Z" stroke="#fff" stroke-width=".5"/><g filter="url(#a)"><path d="m277.99 129.252-1.839-1.838-41.764 24.954c-6.356 4.69-9.991 4.206-16.549 0l-40.189-24.429-4.465-4.465-7.355 4.728 10.507 6.304-2.101 1.576c-1.576 1.839.262 3.677 2.626 1.839l2.627-1.839 32.834 19.963-2.101 1.576c-1.839 1.313-.526 3.415 2.101 1.576l2.889-1.839 2.365 1.576c6.797 4.627 10.73 4.054 17.861 0l41.24-24.428c2.426-1.622 2.889-3.152 1.313-5.254Z" fill="#222"/></g><path d="M181.327 92.478v9.194l34.147 20.226v-8.668l-34.147-20.752Z" fill="#111010" stroke="#fff" stroke-width=".5"/><path d="M185.53 97.731c-1.516-.505-1.839 2.364 0 3.152 1.576.526 1.576-2.626 0-3.152ZM189.47 100.096c-1.515-.506-1.838 2.364 0 3.152 1.577.526 1.577-2.626 0-3.152ZM193.41 102.46c-1.515-.506-1.838 2.364 0 3.152 1.577.526 1.577-2.626 0-3.152Z" fill="#fff"/><path d="M203.392 111.653v-2.364l8.93 5.516v2.364l-8.93-5.516Z" stroke="#fff" stroke-width=".5"/><path d="m183.691 91.692-2.364.788 34.147 20.752v8.668l1.576-.263v-9.719l-33.359-20.226Z" fill="#161616" stroke="#fff" stroke-width=".5"/><path d="m215.474 113.23 1.576-1.313M276.939 126.89l-43.34 26.004c-4.991 3.152-9.719 3.152-14.71 0l-3.677-2.101-37.825-23.115" stroke="#fff" stroke-width=".5"/><path d="M177.387 101.147V84.073c-1.313-.788-2.321-1.79-3.152-3.415V97.47c0 1.839 1.402 2.686 3.152 3.678ZM177.387 116.12v-6.041c-1.313-.788-2.321-1.79-3.152-3.415v12.083s1.576-2.364 3.152-2.627ZM177.387 63.585v-6.041c-1.313-.788-2.321-1.79-3.152-3.415v12.083s1.576-2.364 3.152-2.627ZM178.701 84.862v16.962l1.313.9V85.65l-1.313-.788ZM178.701 110.867v4.728l1.313-1.05v-2.89l-1.313-.788ZM178.701 118.222v7.092l1.313-.788v-6.83l-1.313.526ZM178.701 58.333v4.728l1.313-1.05v-2.89l-1.313-.788ZM178.701 65.688v7.092l1.313-.788v-6.83l-1.313.525ZM276.676 101.148V83.287c1.553-.994 2.04-2.089 2.364-3.94v17.336c0 2.89-.525 3.415-2.364 4.465ZM276.676 127.415v-18.124c1.553-.994 2.04-1.826 2.364-3.678v17.337c0 2.889-.525 3.414-2.364 4.465Z" fill="#F73737"/><path d="M177.125 109.816c-4.202-2.364-3.414-5.516 1.051-7.355l2.627 1.051v3.152l38.35 23.378c4.728 2.626 9.456 2.626 13.922 0l39.138-23.116v-3.677l2.889-1.051c5.254 2.364 4.466 5.516.788 7.618l-40.451 24.428c-6.476 3.786-10.331 4.479-18.125 0l-40.189-24.428Z" fill="#0F0E0E" stroke="#fff" stroke-width=".5"/><path d="M177.125 83.812c-4.202-2.364-3.414-5.516 1.051-7.355l2.627 1.05v3.153l38.35 23.378c4.728 2.626 9.456 2.626 13.922 0l39.138-23.116v-3.677l2.889-1.05c5.254 2.363 4.466 5.516.788 7.617l-40.451 24.428c-6.476 3.786-10.331 4.479-18.125 0l-40.189-24.428Z" fill="#0F0E0E" stroke="#fff" stroke-width=".5"/><path d="M177.386 57.281c-3.152-2.101-5.253-5.253 0-7.88l40.715-24.166c6.304-3.677 10.244-3.94 16.811 0l41.765 24.692c3.677 1.838 2.364 4.728 0 6.304l-43.604 26.267c-4.991 2.627-8.143 2.364-13.396 0L177.386 57.28Z" fill="#0F0E0E" stroke="#fff" stroke-width=".5"/><g filter="url(#b)"><ellipse cx="226.507" cy="56.316" rx="14.972" ry="8.859" fill="#222"/></g><path d="M217.778 46.029c2.365-1.275 3.647-1.664 5.886-2.005-1.404 2.071-1.344 3.959.402 5.947-4.06-.075-6.087-2.005-6.288-3.942ZM227.143 49.437c-2.275-1.537-2.074-4.41.401-5.814 2.888.068 4.246.364 6.355 1.203-3.422.888-5.066 1.705-6.756 4.61ZM236.641 46.296c-2.742-.134-6.421 1.67-6.689 4.076 3.561-1.181 5.622-1.417 9.499-.535-.363-1.452-1.472-2.672-2.81-3.541ZM239.718 52.243c-2.609-1.537-5.71-1.561-9.03 0 4.198.82 5.416 1.765 6.756 3.809 1.501-1.453 1.854-2.295 2.274-3.81ZM235.036 57.856c0-2.406-2.961-3.818-6.087-3.809 1.791 2.22 1.828 3.479.267 5.747 2.499-.437 3.78-.84 5.82-1.938ZM225.604 59.994c2.743-2.071 2.341-3.942.201-5.412-1.501 2.454-2.981 3.354-6.355 4.41 2.111.677 3.402.952 6.154 1.002ZM213.698 54.18c3.957.745 6.012.594 9.431-.534-.468 2.272-3.277 4.01-6.555 3.809-1.596-1.06-2.187-1.795-2.876-3.274ZM213.296 51.909c3.773 1.394 6.422 1.136 9.097-.2-3.725-.677-5.273-1.5-7.09-3.81-1.407 1.411-1.862 2.286-2.007 4.01Z" fill="#fff"/><path d="M276.676 74.355V56.23c1.553-.993 2.04-1.826 2.364-3.677v17.336c0 2.89-.525 3.415-2.364 4.466Z" fill="#F73737"/><path d="M184.742 120.847c0-1.838 2.102-.787 2.102 1.051v6.304c0 1.051-2.102 1.051-2.102-1.051v-6.304ZM188.42 122.949c0-1.838 2.101-.787 2.101 1.051v6.304c0 1.051-2.101 1.051-2.101-1.051v-6.304ZM192.097 125.576c0-1.838 2.101-.787 2.101 1.05v6.305c0 1.051-2.101 1.051-2.101-1.051v-6.304ZM196.037 127.151c0-1.838 2.101-.787 2.101 1.051v6.304c0 1.051-2.101 1.051-2.101-1.051v-6.304ZM199.452 129.778c0-1.837 2.101-.787 2.101 1.051v6.304c0 1.052-2.101 1.052-2.101-1.05v-6.305ZM203.129 131.88c0-1.838 2.102-.787 2.102 1.051v6.304c0 1.051-2.102 1.051-2.102-1.051v-6.304ZM206.807 133.981c0-1.838 2.101-.787 2.101 1.051v6.304c0 1.051-2.101 1.051-2.101-1.051v-6.304ZM210.747 136.083v3.94l1.838-1.051v-2.627c0-1.05-1.838-1.839-1.838-.262ZM271.949 92.888c0-1.788-2.055-.766-2.055 1.022v6.133c0 1.023 2.055 1.023 2.055-1.022v-6.133ZM268.352 94.933c0-1.788-2.056-.766-2.056 1.022v6.133c0 1.023 2.056 1.023 2.056-1.022v-6.133ZM264.754 97.489c0-1.788-2.055-.766-2.055 1.022v6.133c0 1.023 2.055 1.023 2.055-1.022v-6.133ZM260.9 99.021c0-1.788-2.056-.766-2.056 1.022v6.134c0 1.022 2.056 1.022 2.056-1.023v-6.133ZM257.559 101.577c0-1.788-2.055-.765-2.055 1.023v6.133c0 1.022 2.055 1.022 2.055-1.023v-6.133ZM253.962 103.622c0-1.788-2.056-.766-2.056 1.022v6.133c0 1.023 2.056 1.023 2.056-1.022v-6.133ZM250.364 105.666c0-1.788-2.055-.766-2.055 1.022v6.133c0 1.023 2.055 1.023 2.055-1.022v-6.133ZM246.47 107.71c0-1.788-2.056-.765-2.056 1.023v6.133c0 1.023 2.056 1.023 2.056-1.023v-6.133ZM243.055 109.755c0-1.788-2.055-.766-2.055 1.022v6.133c0 1.023 2.055 1.023 2.055-1.022v-6.133ZM239.332 111.799c0-1.788-2.056-.766-2.056 1.022v6.133c0 1.023 2.056 1.023 2.056-1.022v-6.133ZM184.742 67.698c0-1.837 2.102-.787 2.102 1.051v6.304c0 1.052-2.102 1.052-2.102-1.05v-6.305ZM188.42 69.8c0-1.837 2.101-.787 2.101 1.051v6.304c0 1.052-2.101 1.052-2.101-1.05V69.8ZM192.097 72.427c0-1.838 2.101-.787 2.101 1.051v6.304c0 1.052-2.101 1.052-2.101-1.05v-6.305ZM196.037 74.003c0-1.838 2.101-.788 2.101 1.05v6.305c0 1.05-2.101 1.05-2.101-1.051v-6.304ZM199.452 76.63c0-1.838 2.101-.787 2.101 1.05v6.305c0 1.051-2.101 1.051-2.101-1.05V76.63ZM203.129 78.731c0-1.837 2.102-.787 2.102 1.051v6.304c0 1.052-2.102 1.052-2.102-1.05V78.73ZM206.807 80.833c0-1.838 2.101-.787 2.101 1.05v6.305c0 1.051-2.101 1.051-2.101-1.051v-6.304ZM210.747 82.934v3.94l1.838-1.486v-2.191c0-1.05-1.838-1.84-1.838-.263Z" fill="#fff"/><path d="M220.203 150.53v-11.82m12.608 11.82v-11.82M220.203 125.315v-11.82m12.608 11.82v-11.82M220.203 97.47V85.65m12.608 11.82V85.65M237.539 139.234c.525-1.839 1.576-3.152 3.152-3.94m-1.576 3.94c.284-1.097.548-1.652 1.576-2.364m-.525 2.627c.133-.514.262-.788.788-1.051m.788-3.677c1.299-.31 1.924-.234 2.889.262m.788.788c.788 1.576.564 2.84 0 4.466m-.525 1.576c-.61 2-1.576 2.889-3.415 3.677m-1.313.525c-1.051.263-1.975.182-2.89-.525m-.262-4.991c-.461 1.743-.517 2.682 0 4.203m4.728-8.405c.711-.375 1.113-.377 1.838 0m-3.94 4.728c-.086.649.012.954.526 1.313m-2.102-1.576c-.304 1.067-.31 1.636 0 2.627m.526.525c.717.348 1.05.525 1.838.263m1.314-6.042c1.05 0 1.313 1.051 1.05 1.839m1.051-2.627a2.388 2.388 0 0 1 0 2.627m-2.627 2.101c.65-.291.886-.518 1.051-1.05m1.051.525c-.311 1.233-.735 1.692-1.839 2.101m9.193-12.608c.526-1.838 1.577-3.152 3.153-3.94m-1.576 3.94c.284-1.096.547-1.652 1.576-2.364m-.526 2.627c.133-.513.263-.788.788-1.051m.788-3.677c1.299-.31 1.924-.233 2.89.263m.788.788c.788 1.576.563 2.84 0 4.465m-.526 1.576c-.61 2.001-1.576 2.89-3.414 3.678m-1.314.525c-1.05.263-1.974.181-2.889-.525m-.263-4.991c-.46 1.742-.516 2.682 0 4.203m4.728-8.406c.711-.375 1.114-.377 1.839 0m-3.94 4.728c-.086.649.012.955.525 1.314m-2.101-1.576c-.305 1.066-.311 1.636 0 2.626m.525.526c.718.347 1.051.525 1.839.262m1.313-6.041c1.051 0 1.314 1.05 1.051 1.839m1.051-2.627a2.388 2.388 0 0 1 0 2.627m-2.627 2.101c.649-.291.886-.518 1.051-1.051m1.05.526c-.31 1.232-.734 1.692-1.838 2.101m8.93-12.608c.526-1.838 1.576-3.152 3.152-3.94m-1.576 3.94c.285-1.096.548-1.652 1.576-2.364m-.525 2.627c.133-.514.263-.788.788-1.051m.788-3.677c1.299-.31 1.924-.233 2.89.263m.788.788c.788 1.576.563 2.84 0 4.465m-.526 1.576c-.61 2.001-1.576 2.89-3.414 3.678m-1.314.525c-1.051.263-1.974.181-2.889-.525m-.263-4.991c-.461 1.742-.516 2.682 0 4.203m4.728-8.406c.711-.375 1.114-.377 1.839 0m-3.94 4.728c-.086.649.012.955.525 1.313m-2.101-1.576c-.305 1.067-.311 1.637 0 2.627m.525.526c.718.347 1.051.525 1.839.262m1.313-6.041c1.051 0 1.314 1.05 1.051 1.838m1.051-2.626a2.386 2.386 0 0 1 0 2.626m-2.627 2.102c.649-.292.886-.518 1.051-1.051m1.05.525c-.31 1.233-.734 1.693-1.838 2.102M237.539 86.096c.525-1.838 1.576-3.152 3.152-3.94m-1.576 3.94c.284-1.097.548-1.652 1.576-2.364m-.525 2.627c.133-.514.262-.788.788-1.05m.788-3.678c1.299-.31 1.924-.233 2.889.263m.788.788c.788 1.576.564 2.84 0 4.465m-.525 1.576c-.61 2-1.576 2.89-3.415 3.677m-1.313.526c-1.051.263-1.975.181-2.89-.526m-.262-4.99c-.461 1.742-.517 2.681 0 4.202m4.728-8.405c.711-.375 1.113-.377 1.838 0m-3.94 4.728c-.086.649.012.955.526 1.313m-2.102-1.576c-.304 1.067-.31 1.637 0 2.627m.526.525c.717.348 1.05.526 1.838.263m1.314-6.041c1.05 0 1.313 1.05 1.05 1.838m1.051-2.626a2.387 2.387 0 0 1 0 2.626m-2.627 2.102c.65-.292.886-.519 1.051-1.051m1.051.525c-.311 1.233-.735 1.693-1.839 2.102m9.193-12.608c.526-1.839 1.577-3.152 3.153-3.94m-1.576 3.94c.284-1.097.547-1.652 1.576-2.364m-.526 2.626c.133-.513.263-.788.788-1.05m.788-3.678c1.299-.31 1.924-.233 2.89.263m.788.788c.788 1.576.563 2.84 0 4.465m-.526 1.576c-.61 2.001-1.576 2.89-3.414 3.678m-1.314.525c-1.05.263-1.974.182-2.889-.525m-.263-4.99c-.46 1.742-.516 2.681 0 4.202m4.728-8.406c.711-.374 1.114-.377 1.839 0m-3.94 4.729c-.086.648.012.954.525 1.313m-2.101-1.576c-.305 1.067-.311 1.636 0 2.627m.525.525c.718.348 1.051.525 1.839.263m1.313-6.042c1.051 0 1.314 1.05 1.051 1.839m1.051-2.627a2.387 2.387 0 0 1 0 2.627m-2.627 2.101c.649-.291.886-.518 1.051-1.05m1.05.525c-.31 1.233-.734 1.692-1.838 2.101m8.93-12.607c.526-1.839 1.576-3.152 3.152-3.94m-1.576 3.94c.285-1.097.548-1.653 1.576-2.364m-.525 2.626c.133-.513.263-.788.788-1.05m.788-3.678c1.299-.31 1.924-.233 2.89.263m.788.788c.788 1.576.563 2.84 0 4.465m-.526 1.576c-.61 2.001-1.576 2.89-3.414 3.678m-1.314.525c-1.051.263-1.974.181-2.889-.525m-.263-4.99c-.461 1.742-.516 2.68 0 4.202m4.728-8.406c.711-.375 1.114-.377 1.839 0m-3.94 4.728c-.086.65.012.955.525 1.314m-2.101-1.576c-.305 1.067-.311 1.636 0 2.626m.525.526c.718.348 1.051.525 1.839.262m1.313-6.041c1.051 0 1.314 1.05 1.051 1.839m1.051-2.627a2.387 2.387 0 0 1 0 2.627m-2.627 2.101c.649-.291.886-.518 1.051-1.05m1.05.525c-.31 1.233-.734 1.692-1.838 2.101" stroke="#fff" stroke-width=".5"/><path d="m220.465 100.885-39.663-23.378v3.152l37.562 22.852c5.731 2.934 9.068 3.456 15.498 0l38.35-22.59v-3.677l-39.926 23.641c-4.545 2.286-7.144 1.949-11.821 0Z" fill="#222"/><path d="M232.286 127.152c-4.545 2.286-7.144 1.95-11.821 0-2.364-.985-3.414-1.313-3.414-2.889v-2.627h-1.839l-32.572-19.175v2.397l-1.838-1.084v2.89l37.562 22.852c5.516 3.415 10.769 3.152 15.498 0l38.35-22.59v-3.414l-39.926 23.64Z" fill="#222"/><path d="M217.312 96.157V84.862c-6.189 2.912-5.254 3.94-5.254 5.78.288-2.124 1.191-2.798 3.678-3.416v6.83l-.526 1.05v1.051l-2.626 2.364 4.728-2.364Z" stroke="#fff" stroke-width=".5"/><path d="M214.423 84.337c1.543-.843 2.889-.788 2.889.525-5.606 2.679-5.253 3.678-5.253 5.78l-2.889.525c-.263-2.89.958-4.19 5.253-6.83Z" stroke="#fff" stroke-width=".5"/><path d="m212.059 90.642-.263 5.254 3.94-1.839-.525 1.05v1.052l-2.627 2.364c-1.839.788-3.152 0-3.677-1.576l.262-7.093M217.312 149.516v-11.295c-6.189 2.912-5.254 3.94-5.254 5.778.288-2.123 1.191-2.797 3.678-3.414v6.829l-.526 1.051v1.051l-2.626 2.364 4.728-2.364Z" stroke="#fff" stroke-width=".5"/><path d="M214.423 137.696c1.543-.844 2.889-.788 2.889.525-5.606 2.678-5.253 3.677-5.253 5.779l-2.889.525c-.263-2.889.958-4.19 5.253-6.829Z" stroke="#fff" stroke-width=".5"/><path d="m212.059 143.999-.263 5.253 3.94-1.838-.525 1.05v1.051l-2.627 2.364c-1.839.788-3.152 0-3.677-1.576l.262-7.092M181.588 126.926v-11.295c-6.189 2.912-5.254 3.94-5.254 5.779.287-2.124 1.19-2.798 3.677-3.415v6.829l-.525 1.051v1.051l-2.627 2.364 4.729-2.364Z" stroke="#fff" stroke-width=".5"/><path d="M178.698 115.106c1.543-.844 2.89-.788 2.89.525-5.607 2.678-5.254 3.677-5.254 5.779l-2.889.525c-.263-2.889.959-4.19 5.253-6.829Z" stroke="#fff" stroke-width=".5"/><path d="m176.334 121.41-.262 5.254 3.94-1.839-.526 1.051v1.05l-2.626 2.364c-1.839.788-3.153 0-3.678-1.576l.263-7.092M181.588 74.39V63.095c-6.188 2.912-5.253 3.94-5.253 5.779.287-2.124 1.19-2.798 3.677-3.415v6.83l-.525 1.05v1.05l-2.627 2.365 4.728-2.364Z" stroke="#fff" stroke-width=".5"/><path d="M178.699 62.57c1.543-.844 2.89-.788 2.89.525-5.607 2.678-5.254 3.677-5.254 5.779l-2.889.525c-.263-2.89.959-4.19 5.253-6.83Z" stroke="#fff" stroke-width=".5"/><path d="m176.335 68.874-.263 5.253 3.941-1.838-.526 1.05v1.051l-2.626 2.364c-1.839.788-3.153 0-3.678-1.576l.263-7.092" stroke="#fff" stroke-width=".5"/></g><path d="m57.044 186 37.817-81.346c2.176-6.257 9.25-10.066 19.86-4.353 7.073 3.809 11.507 1.445 16.595-4.625L206.405 1M1 144.103l37.816-81.345c2.177-6.258 9.25-10.066 19.86-4.353 7.074 3.809 11.508 1.444 16.596-4.625l41.081-52.508" stroke="#fff" stroke-width=".5"/><path d="M11.882 157.978 49.7 76.633c2.176-6.258 9.25-10.066 19.86-4.353 7.073 3.808 11.507 1.444 16.595-4.625l53.052-66.383" stroke="#fff" stroke-width=".5"/><path d="m22.765 170.22 37.816-81.345c2.177-6.258 9.25-10.066 19.86-4.353 7.074 3.808 11.508 1.444 16.596-4.625l63.934-78.353" stroke="#fff" stroke-width=".5"/><path d="m68.551 140.767-8.08 5.53 7.81 4.701 8.351-5.254-8.08-4.977ZM57.507 147.403l-8.08 5.53 7.81 4.701 8.351-5.254-8.08-4.977Z" fill="#0F0E0E"/><path d="m68.551 140.767-8.08 5.53 7.81 4.701 8.351-5.254-8.08-4.977ZM57.507 147.403l-8.08 5.53 7.81 4.701 8.351-5.254-8.08-4.977Z" stroke="#fff" stroke-width=".5"/><path d="m36.286 135.325-8.242 5.531 7.967 4.7 8.518-5.253-8.243-4.978ZM25.021 141.962l-8.242 5.53 7.968 4.701 8.517-5.254-8.243-4.977Z" fill="#0F0E0E"/><path d="m36.286 135.325-8.242 5.531 7.967 4.7 8.518-5.253-8.243-4.978ZM25.021 141.962l-8.242 5.53 7.968 4.701 8.517-5.254-8.243-4.977Z" stroke="#fff" stroke-width=".5"/><path d="m45.345 154.914-8.433 5.294 8.152 4.5 8.715-5.029-8.434-4.765Z" fill="#0F0E0E" stroke="#F73737" stroke-width=".5"/><path d="M72.28 138.319v-4.595l7.889 4.882 8.434-5.457v4.308l-8.434 6.031-7.89-5.169Z" fill="#161616"/><path d="m80.169 143.488-7.89-5.169v-4.595l7.89 4.882m0 4.882v-4.882m0 4.882 8.434-6.031v-4.308l-8.434 5.457" stroke="#fff" stroke-width=".5"/><path d="m80.441 128.252-8.162 5.588 7.89 4.75 8.434-5.309-8.162-5.029Z" fill="#0F0E0E" stroke="#F73737" stroke-width=".5"/><path d="m60.308 121.724-8.161 5.588 7.89 4.75 8.433-5.309-8.162-5.029Z" fill="#0F0E0E" stroke="#fff" stroke-width=".5"/><path d="M39.828 133.666v-15.365l8.505 5.213 8.506-4.939v14.817l-8.506 5.487-8.505-5.213Z" fill="#161616"/><path d="m48.333 138.879-8.505-5.213v-15.365l8.505 5.213m0 15.365v-15.365m0 15.365 8.506-5.487v-14.817l-8.506 4.939" stroke="#fff" stroke-width=".5"/><path d="m48.059 113.088-8.231 5.213 8.505 5.213 8.506-4.939-8.78-5.487Z" fill="#0F0E0E" stroke="#fff" stroke-width=".5"/><ellipse cx="48.338" cy="118.187" rx="1.632" ry="1.36" fill="#fff"/><defs><filter id="a" x="155.829" y="113.474" width="133.079" height="58.72" filterUnits="userSpaceOnUse" color-interpolation-filters="sRGB"><feFlood flood-opacity="0" result="BackgroundImageFix"/><feBlend in="SourceGraphic" in2="BackgroundImageFix" result="shape"/><feGaussianBlur stdDeviation="5" result="effect1_foregroundBlur_1202_53"/></filter><filter id="b" x="201.534" y="37.457" width="49.945" height="37.718" filterUnits="userSpaceOnUse" color-interpolation-filters="sRGB"><feFlood flood-opacity="0" result="BackgroundImageFix"/><feBlend in="SourceGraphic" in2="BackgroundImageFix" result="shape"/><feGaussianBlur stdDeviation="5" result="effect1_foregroundBlur_1202_53"/></filter></defs></svg>