<svg xmlns="http://www.w3.org/2000/svg" width="118" height="114" fill="none"><path stroke="#fff" stroke-width="2" d="M78 92h10c4 0 5 1.5 5 5v11.5c0 2.5-2 4.5-5.5 4.5H68c-3.5 0-5-2-5-4.5V97c0-3.5 2-5 5-5h10zm0 0V81.5c0-8-4-14-14-14h-5.5m0 0V71c0 3.5-2 5.5-5.5 5.5H7.5c-5 0-6.5-2-6.5-6.5V41.5c0-2.5 1.5-4 5-4h46.5c4 0 6 2 6 6.5v2.5m0 21V57.25m28.5 0V51.5c0-3.5 2-5 5-5h20c4 0 5 1.5 5 5V63c0 2.5-2 4.5-5.5 4.5H92c-3.5 0-5-2-5-4.5v-5.75zm0 0H58.5m0 0V46.5m0 0H64c7.5 0 14.5-5 14.5-14V22m0 0h-10c-3.5 0-5-2-5-4.5V6c0-3.5 2-5 5-5h20c4 0 5 1.5 5 5v11.5c0 2.5-2 4.5-5.5 4.5h-9.5z"/></svg>