<svg xmlns="http://www.w3.org/2000/svg" width="89" height="88" fill="none"><path stroke="#fff" stroke-width="2" d="M11.552 59.586c-1.25-.629-2.359-.292-3.413.755l-6.197 6.157c-1.257 1.071-1.257 2.677 0 3.837L17.3 85.594c2.066 1.963 3.772 1.785 5.658 0l4.849-4.819c1.548-1.536 1.893-2.568 1.271-3.748M11.552 59.586c.348.175.706.425 1.078.755l15.177 15.081c.582.593 1.011 1.113 1.271 1.606M11.552 59.586c5.69-8.824 14.638-11.47 24.966-7.633 2.335.867 4.408 1.809 9.609 1.606H63.37c2.959 0 4.825 1.074 5.658 2.47m-26.672 6.275H63.37c5.191 0 7.2-3.689 5.658-6.275m0 0L80.523 42.94c3.862-4.551 10.597 0 5.837 5.8L71.542 67.48c-2.066 2.766-3.682 3.569-5.748 3.569l-23.888.535c-3.233 0-5.388 0-8.442 2.231l-4.386 3.212M10.924 65.07c-3.951 0-4.49 6.514 0 6.514s4.311-6.514 0-6.514zm12.842-43.278c-15.626 0-14.189 22.041 0 22.041 15.447 0 14.459-22.041 0-22.041zM44.511 1c-15.626 0-14.189 22.041 0 22.041C59.957 23.041 58.97 1 44.511 1zm24.517 16.241c-15.626 0-14.189 22.041 0 22.041 15.447 0 14.459-22.041 0-22.041z"/></svg>