<svg width="475" height="320" fill="none" xmlns="http://www.w3.org/2000/svg"><g opacity=".2"><path d="M364.302 300.628c-10.638 5.572-19.249 6.079-29.886 0L228.547 237.31c-4.052-4.053-4.55-9.621 0-12.157l105.869-62.812c10.131-6.079 19.248-5.572 29.886 0l100.296 58.253c12.158 6.585 8.612 13.677-2.026 20.768l-98.27 59.266Z" fill="#0F0E0E" stroke="#fff" stroke-width=".5"/><path d="M467.636 222.62c6.877 6.642 5.219 10.678-4.053 18.236v14.69l8.105-4.559c2.244-2.014 2.613-3.397 2.533-6.079v-11.144c-.071-6.635-1.914-8.709-6.585-11.144ZM254.886 252.507v14.69l-26.847-16.21c-2.533-2.026-3.039-4.052-3.039-7.598v-12.663c1.013 2.532 2.533 5.572 4.052 6.078l25.834 15.703ZM267.549 274.794V260.61l8.105 5.066v14.183l-8.105-5.065Z" fill="#F73737"/><path d="m254.886 267.195 79.022 47.616m0 0v-14.367m0 14.367c9.209 5.598 21.275 5.572 30.393 0m0 0 2.316-1.383m-2.316 1.383v-2.027m0-12.157v3.546m86.619-41.069 12.664-22.25v4.053m-12.664 18.197 3.546-2.117m-3.546 2.117-3.459 2.065m7.005-4.182 9.118-16.08m-9.118 16.08 3.546-2.116m5.572-13.964v3.546m0 0-5.572 10.418m5.572-10.418v3.546m-5.572 6.872 2.786-1.664m0 0 2.786-1.663v-3.545m-2.786 5.208 2.786-5.208m-16.123 13.17 12.071-21.782m-12.071 21.782-3.126 1.866m0 0 11.144-21.115m-11.144 21.115-4.052 2.419m0 0 10.131-20.495m-10.131 20.495-4.053 2.419m0 0 9.625-20.381m-9.625 20.381-3.545 2.116m0 0 8.611-19.964m-8.611 19.964-4.339 2.591m0 0 8.391-19.516m-8.391 19.516-4.645 2.772m0 0 8.477-19.755m-8.477 19.755-3.68 2.197m0 0 7.598-18.913m-7.598 18.913-3.546 2.117m0 0 7.226-19.004m-7.226 19.004-3.546 2.116m0 0 6.079-18.08m-6.079 18.08-3.654 2.181m0 0 5.68-17.729m-5.68 17.729-3.437 2.053m0 0 5.065-17.249m-5.065 17.249-3.04 1.814m0 0 4.053-16.53m-4.053 16.53-3.546 2.116m0 0 3.546-16.62m-3.546 16.62-4.403 2.629m0 0 4.403-17.223m-4.403 17.223-4.208 2.512m0 0 4.208-16.939m-4.208 16.939-4.277 2.553m0 0 4.277-16.716m-4.277 16.716-4.243 2.533m0 0c-.073-.405 2.948-11.313 4.468-16.716m-4.468 16.716-4.65 2.776m0 0 4.052-16.453m-4.052 16.453-3.836 2.29m0 0 4.342-16.717m-4.342 16.717-3.762 2.245m0 0 4.052-16.429m-4.052 16.429-3.256 1.944m0 0 3.762-16.347m-6.078 15.703 3.039-13.697m-3.039 13.697v-8.611m0 0 1.013-4.052" stroke="#fff" stroke-width=".5"/><path d="M263.158 122.23V98.08l70.519 42.022c11.839 6.707 18.259 6.272 29.464 0l77.764-46.852v32.844l-80.662 48.301c-8.694 4.347-14.007 4.83-23.668 0l-71.485-42.021-5.313-1.932 3.381-8.212Z" fill="#161616"/><path d="M263.158 178.742v-31.395l70.519 42.504c11.11 6.279 18.838 6.279 29.464.483l77.764-46.851v31.878l-80.179 47.818c-5.796 3.381-14.007 4.83-23.668 0l-5.14-2.898-.173-24.634-61.342-37.191-4.347 1.449v16.905l2.415 1.449v3.864l-3.381-.483v-1.449l-1.932-1.449Z" fill="#161616"/><path d="M263.641 219.315v-24.151l70.519 42.505c11.766 6.404 18.311 6.065 29.947 0l77.764-47.335v32.845l-81.628 48.783c-7.728 4.348-14.899 4.525-23.668 0l-76.315-46.368 3.381-6.279Z" fill="#161616"/><path d="M263.158 122.23V98.08l70.519 42.022c11.839 6.707 18.259 6.272 29.464 0l77.764-46.852v32.844l-80.662 48.301c-8.694 4.347-14.007 4.83-23.668 0l-71.485-42.021-5.313-1.932 3.381-8.212Z" stroke="#fff" stroke-width=".5"/><path d="M263.158 178.742v-31.395l70.519 42.504c11.11 6.279 18.838 6.279 29.464.483l77.764-46.851v31.878l-80.179 47.818c-5.796 3.381-14.007 4.83-23.668 0l-5.14-2.898-.173-24.634-61.342-37.191-4.347 1.449v16.905l2.415 1.449v3.864l-3.381-.483v-1.449l-1.932-1.449Z" stroke="#fff" stroke-width=".5"/><path d="M263.641 219.315v-24.151l70.519 42.505c11.766 6.404 18.311 6.065 29.947 0l77.764-47.335v32.845l-81.628 48.783c-7.728 4.348-14.899 4.525-23.668 0l-76.315-46.368 3.381-6.279Z" stroke="#fff" stroke-width=".5"/><g filter="url(#a)"><path d="m443.801 227.525-3.381-3.381-76.798 45.885c-11.686 8.625-18.371 7.734-30.429 0l-73.9-44.919-8.211-8.212-13.524 8.695 19.32 11.592-3.864 2.898c-2.898 3.381.483 6.762 4.83 3.381l4.83-3.381 60.376 36.708-3.864 2.898c-3.381 2.415-.966 6.279 3.864 2.898l5.313-3.381 4.347 2.898c12.498 8.509 19.732 7.453 32.844 0l75.832-44.919c4.463-2.982 5.314-5.796 2.415-9.66Z" fill="#222"/></g><path d="M266.056 159.904v16.906l62.791 37.191v-15.939l-62.791-38.158Z" fill="#111010" stroke="#fff" stroke-width=".5"/><path d="M273.784 169.562c-2.787-.93-3.381 4.347 0 5.796 2.898.968 2.898-4.828 0-5.796ZM281.029 173.911c-2.786-.93-3.381 4.347 0 5.796 2.899.967 2.899-4.829 0-5.796ZM288.274 178.258c-2.786-.93-3.381 4.347 0 5.796 2.899.967 2.899-4.829 0-5.796Z" fill="#fff"/><path d="M306.628 195.163v-4.347l16.423 10.144v4.347l-16.423-10.144Z" stroke="#fff" stroke-width=".5"/><path d="m270.403 158.455-4.347 1.449 62.791 38.158v15.939l2.898-.483v-17.871l-61.342-37.192Z" fill="#161616" stroke="#fff" stroke-width=".5"/><path d="m328.846 198.062 2.898-2.416M441.87 223.18l-79.696 47.817c-9.178 5.796-17.872 5.796-27.049 0l-6.762-3.864-69.553-42.504" stroke="#fff" stroke-width=".5"/><path d="M258.811 175.843v-31.395c-2.415-1.449-4.268-3.291-5.796-6.279v30.912c0 3.381 2.578 4.939 5.796 6.762ZM258.811 203.375v-11.11c-2.415-1.449-4.268-3.29-5.796-6.279v22.219s2.898-4.347 5.796-4.83ZM258.811 106.773v-11.11c-2.415-1.448-4.268-3.29-5.796-6.278v22.218s2.898-4.347 5.796-4.83ZM261.225 145.897v31.191l2.415 1.654v-31.396l-2.415-1.449ZM261.225 193.715v8.694l2.415-1.932v-5.313l-2.415-1.449ZM261.225 207.237v13.042l2.415-1.449v-12.559l-2.415.966ZM261.225 97.114v8.694l2.415-1.932v-5.313l-2.415-1.449ZM261.225 110.638v13.041l2.415-1.449v-12.558l-2.415.966ZM441.385 175.843v-32.844c2.856-1.827 3.751-3.84 4.347-7.245v31.878c0 5.313-.966 6.279-4.347 8.211ZM441.385 224.144v-33.327c2.856-1.827 3.751-3.357 4.347-6.762v31.878c0 5.313-.966 6.279-4.347 8.211Z" fill="#F73737"/><path d="M258.328 191.783c-7.728-4.347-6.279-10.144 1.933-13.525l4.83 1.932v5.797l70.519 42.987c8.694 4.83 17.388 4.83 25.599 0l71.968-42.504v-6.763l5.313-1.932c9.66 4.347 8.211 10.144 1.449 14.008l-74.383 44.919c-11.907 6.961-18.996 8.235-33.327 0l-73.901-44.919Z" fill="#0F0E0E" stroke="#fff" stroke-width=".5"/><path d="M258.328 143.966c-7.728-4.347-6.279-10.143 1.933-13.524l4.83 1.932v5.796l70.519 42.988c8.694 4.83 17.388 4.83 25.599 0l71.968-42.505v-6.762l5.313-1.932c9.66 4.347 8.211 10.143 1.449 14.007l-74.383 44.92c-11.907 6.96-18.996 8.235-33.327 0l-73.901-44.92Z" fill="#0F0E0E" stroke="#fff" stroke-width=".5"/><path d="M258.809 95.181c-5.796-3.864-9.66-9.66 0-14.49l74.867-44.437c11.592-6.762 18.837-7.245 30.912 0l76.798 45.403c6.762 3.381 4.347 8.694 0 11.592l-80.179 48.301c-9.177 4.83-14.973 4.347-24.633 0l-77.765-46.369Z" fill="#0F0E0E" stroke="#fff" stroke-width=".5"/><g filter="url(#b)"><ellipse cx="349.132" cy="93.405" rx="27.531" ry="16.29" fill="#222"/></g><path d="M333.082 74.489c4.348-2.343 6.705-3.059 10.824-3.686-2.583 3.809-2.472 7.279.738 10.935-7.466-.139-11.193-3.686-11.562-7.25ZM350.302 80.755c-4.182-2.826-3.813-8.11.738-10.69 5.31.126 7.808.67 11.685 2.212-6.291 1.633-9.315 3.135-12.423 8.478ZM367.768 74.98c-5.043-.246-11.808 3.072-12.3 7.495 6.547-2.171 10.338-2.605 17.466-.982-.666-2.67-2.706-4.915-5.166-6.513ZM373.426 85.916c-4.797-2.826-10.5-2.87-16.605 0 7.718 1.506 9.959 3.245 12.423 7.004 2.76-2.672 3.41-4.22 4.182-7.004ZM364.816 96.237c0-4.423-5.444-7.021-11.193-7.004 3.294 4.08 3.362 6.397.492 10.567 4.594-.803 6.951-1.544 10.701-3.563ZM347.473 100.169c5.043-3.81 4.305-7.25.369-9.953-2.761 4.513-5.481 6.168-11.685 8.11 3.881 1.245 6.254 1.751 11.316 1.843ZM325.579 89.48c7.276 1.367 11.055 1.09 17.343-.984-.861 4.178-6.027 7.372-12.054 7.004-2.936-1.95-4.022-3.302-5.289-6.02ZM324.841 85.302c6.937 2.564 11.808 2.088 16.728-.37-6.852-1.243-9.698-2.758-13.038-7.003-2.587 2.594-3.423 4.203-3.69 7.373Z" fill="#fff"/><path d="M441.385 126.576V93.248c2.856-1.826 3.751-3.357 4.347-6.762v31.879c0 5.313-.966 6.279-4.347 8.211Z" fill="#F73737"/><path d="M272.335 212.067c0-3.379 3.864-1.447 3.864 1.932v11.593c0 1.933-3.864 1.933-3.864-1.932v-11.593ZM279.097 215.933c0-3.38 3.864-1.448 3.864 1.932v11.592c0 1.933-3.864 1.933-3.864-1.932v-11.592ZM285.859 220.763c0-3.38 3.864-1.448 3.864 1.932v11.592c0 1.933-3.864 1.933-3.864-1.932v-11.592ZM293.104 223.66c0-3.38 3.864-1.448 3.864 1.932v11.592c0 1.933-3.864 1.933-3.864-1.932V223.66ZM299.383 228.491c0-3.38 3.864-1.448 3.864 1.932v11.592c0 1.933-3.864 1.933-3.864-1.932v-11.592ZM306.145 232.355c0-3.38 3.864-1.448 3.864 1.932v11.592c0 1.933-3.864 1.933-3.864-1.932v-11.592ZM312.908 236.219c0-3.38 3.864-1.447 3.864 1.932v11.592c0 1.934-3.864 1.934-3.864-1.932v-11.592ZM320.153 240.083v7.245l3.381-1.932v-4.83c0-1.932-3.381-3.382-3.381-.483ZM432.693 160.655c0-3.288-3.78-1.408-3.78 1.88v11.277c0 1.881 3.78 1.881 3.78-1.879v-11.278ZM426.078 164.416c0-3.288-3.78-1.409-3.78 1.879v11.278c0 1.881 3.78 1.881 3.78-1.88v-11.277ZM419.463 169.115c0-3.288-3.78-1.409-3.78 1.879v11.278c0 1.881 3.78 1.881 3.78-1.88v-11.277ZM412.375 171.933c0-3.288-3.78-1.408-3.78 1.879v11.278c0 1.881 3.78 1.881 3.78-1.88v-11.277ZM406.233 176.633c0-3.288-3.781-1.408-3.781 1.88v11.277c0 1.881 3.781 1.881 3.781-1.879v-11.278ZM399.617 180.392c0-3.288-3.78-1.408-3.78 1.88v11.277c0 1.881 3.78 1.881 3.78-1.879v-11.278ZM393.002 184.151c0-3.287-3.78-1.408-3.78 1.88v11.278c0 1.88 3.78 1.88 3.78-1.88v-11.278ZM385.841 187.911c0-3.288-3.78-1.409-3.78 1.879v11.278c0 1.881 3.78 1.881 3.78-1.88v-11.277ZM379.562 191.67c0-3.288-3.78-1.408-3.78 1.879v11.278c0 1.881 3.78 1.881 3.78-1.88V191.67ZM372.716 195.429c0-3.288-3.78-1.408-3.78 1.88v11.277c0 1.881 3.78 1.881 3.78-1.88v-11.277ZM272.335 114.335c0-3.38 3.864-1.448 3.864 1.932v11.592c0 1.933-3.864 1.933-3.864-1.932v-11.592ZM279.097 118.2c0-3.379 3.864-1.447 3.864 1.932v11.593c0 1.933-3.864 1.933-3.864-1.933V118.2ZM285.859 123.03c0-3.379 3.864-1.447 3.864 1.932v11.593c0 1.933-3.864 1.933-3.864-1.932V123.03ZM293.104 125.927c0-3.379 3.864-1.447 3.864 1.932v11.592c0 1.934-3.864 1.934-3.864-1.932v-11.592ZM299.383 130.759c0-3.38 3.864-1.448 3.864 1.932v11.592c0 1.933-3.864 1.933-3.864-1.932v-11.592ZM306.145 134.623c0-3.38 3.864-1.448 3.864 1.932v11.592c0 1.933-3.864 1.933-3.864-1.932v-11.592ZM312.908 138.487c0-3.38 3.864-1.448 3.864 1.932v11.592c0 1.933-3.864 1.933-3.864-1.932v-11.592ZM320.153 142.351v7.245l3.381-2.733v-4.029c0-1.932-3.381-3.383-3.381-.483Z" fill="#fff"/><path d="M337.541 266.649v-21.735m23.184 21.735v-21.735M337.541 220.281v-21.735m23.184 21.735v-21.735M337.541 169.082v-21.735m23.184 21.735v-21.735M369.419 245.878c.966-3.381 2.898-5.796 5.796-7.245m-2.898 7.245c.523-2.017 1.007-3.038 2.898-4.347m-.966 4.83c.244-.944.483-1.449 1.449-1.932m1.449-6.762c2.389-.57 3.538-.429 5.313.483m1.449 1.449c1.449 2.898 1.036 5.222 0 8.211m-.966 2.898c-1.122 3.679-2.898 5.313-6.279 6.762m-2.415.966c-1.932.483-3.631.334-5.313-.966m-.483-9.177c-.847 3.204-.949 4.931 0 7.728m8.694-15.456c1.307-.69 2.048-.694 3.381 0m-7.245 8.694c-.158 1.193.022 1.755.966 2.415m-3.864-2.898c-.56 1.962-.571 3.009 0 4.83m.966.966c1.32.64 1.932.966 3.381.483m2.415-11.109c1.932 0 2.415 1.932 1.932 3.381m1.932-4.83a4.387 4.387 0 0 1 0 4.83m-4.83 3.864c1.194-.536 1.629-.953 1.932-1.932m1.932.966c-.571 2.267-1.35 3.112-3.381 3.864m16.905-23.184c.966-3.381 2.898-5.796 5.796-7.245m-2.898 7.245c.523-2.017 1.007-3.038 2.898-4.347m-.966 4.83c.245-.944.483-1.449 1.449-1.932m1.449-6.762c2.389-.569 3.538-.429 5.313.483m1.449 1.449c1.449 2.898 1.037 5.222 0 8.211m-.966 2.898c-1.121 3.679-2.898 5.314-6.279 6.763m-2.415.966c-1.932.483-3.63.333-5.313-.966m-.483-9.178c-.847 3.205-.949 4.932 0 7.729m8.694-15.457c1.308-.689 2.048-.693 3.381 0m-7.245 8.694c-.158 1.194.022 1.756.966 2.415m-3.864-2.898c-.559 1.962-.571 3.009 0 4.831m.966.966c1.32.639 1.932.966 3.381.483m2.415-11.11c1.932 0 2.415 1.932 1.932 3.381m1.932-4.83a4.387 4.387 0 0 1 0 4.83m-4.83 3.864c1.194-.535 1.629-.952 1.932-1.932m1.932.966c-.571 2.268-1.35 3.113-3.381 3.865m16.423-23.183c.966-3.381 2.898-5.797 5.796-7.246m-2.898 7.246c.522-2.017 1.007-3.039 2.898-4.347m-.966 4.83c.244-.945.483-1.449 1.449-1.932m1.449-6.763c2.388-.569 3.537-.429 5.313.483m1.449 1.45c1.449 2.898 1.036 5.221 0 8.211m-.966 2.898c-1.122 3.679-2.898 5.313-6.279 6.762m-2.415.966c-1.932.483-3.631.333-5.313-.966m-.483-9.177c-.848 3.204-.95 4.931 0 7.728m8.694-15.456c1.307-.69 2.047-.694 3.381 0m-7.245 8.694c-.159 1.193.021 1.755.966 2.415m-3.864-2.898c-.56 1.961-.571 3.008 0 4.83m.966.966c1.319.639 1.932.966 3.381.483m2.415-11.109c1.932 0 2.415 1.932 1.932 3.381m1.932-4.83a4.387 4.387 0 0 1 0 4.83m-4.83 3.864c1.193-.536 1.629-.953 1.932-1.932m1.932.966c-.571 2.267-1.351 3.112-3.381 3.864M369.419 148.166c.966-3.381 2.898-5.796 5.796-7.245m-2.898 7.245c.523-2.017 1.007-3.038 2.898-4.347m-.966 4.83c.244-.944.483-1.449 1.449-1.932m1.449-6.762c2.389-.569 3.538-.429 5.313.483m1.449 1.449c1.449 2.898 1.036 5.222 0 8.211m-.966 2.898c-1.122 3.679-2.898 5.313-6.279 6.762m-2.415.966c-1.932.483-3.631.334-5.313-.966m-.483-9.177c-.847 3.204-.949 4.932 0 7.728m8.694-15.456c1.307-.689 2.048-.693 3.381 0m-7.245 8.694c-.158 1.193.022 1.755.966 2.415m-3.864-2.898c-.56 1.962-.571 3.009 0 4.83m.966.966c1.32.64 1.932.966 3.381.483m2.415-11.109c1.932 0 2.415 1.932 1.932 3.381m1.932-4.83a4.387 4.387 0 0 1 0 4.83m-4.83 3.864c1.194-.536 1.629-.953 1.932-1.932m1.932.966c-.571 2.267-1.35 3.112-3.381 3.864m16.905-23.184c.966-3.381 2.898-5.796 5.796-7.245m-2.898 7.245c.523-2.017 1.007-3.038 2.898-4.347m-.966 4.83c.245-.944.483-1.449 1.449-1.932m1.449-6.762c2.389-.569 3.538-.429 5.313.483m1.449 1.449c1.449 2.898 1.037 5.222 0 8.212m-.966 2.898c-1.121 3.679-2.898 5.313-6.279 6.762m-2.415.966c-1.932.483-3.63.333-5.313-.966m-.483-9.177c-.847 3.204-.949 4.931 0 7.728m8.694-15.457c1.308-.689 2.048-.693 3.381 0m-7.245 8.695c-.158 1.193.022 1.755.966 2.415m-3.864-2.898c-.559 1.961-.571 3.008 0 4.83m.966.966c1.32.639 1.932.966 3.381.483m2.415-11.11c1.932 0 2.415 1.932 1.932 3.382m1.932-4.831a4.389 4.389 0 0 1 0 4.831m-4.83 3.864c1.194-.536 1.629-.953 1.932-1.932m1.932.966c-.571 2.267-1.35 3.112-3.381 3.864m16.423-23.183c.966-3.381 2.898-5.796 5.796-7.245m-2.898 7.245c.522-2.017 1.007-3.039 2.898-4.347m-.966 4.83c.244-.945.483-1.449 1.449-1.932m1.449-6.762c2.388-.57 3.537-.429 5.313.483m1.449 1.449c1.449 2.898 1.036 5.222 0 8.211m-.966 2.898c-1.122 3.679-2.898 5.313-6.279 6.762m-2.415.966c-1.932.483-3.631.333-5.313-.966m-.483-9.177c-.848 3.204-.95 4.931 0 7.728m8.694-15.456c1.307-.69 2.047-.694 3.381 0m-7.245 8.694c-.159 1.193.021 1.755.966 2.415m-3.864-2.898c-.56 1.961-.571 3.009 0 4.83m.966.966c1.319.639 1.932.966 3.381.483m2.415-11.109c1.932 0 2.415 1.932 1.932 3.381m1.932-4.83a4.387 4.387 0 0 1 0 4.83m-4.83 3.864c1.193-.536 1.629-.953 1.932-1.932m1.932.966c-.571 2.267-1.351 3.112-3.381 3.864" stroke="#fff" stroke-width=".5"/><path d="m338.023 175.36-72.934-42.987v5.796l69.07 42.021c10.539 5.395 16.675 6.354 28.497 0l70.519-41.538v-6.762l-73.417 43.47c-8.357 4.204-13.135 3.585-21.735 0Z" fill="#222"/><path d="M359.758 223.662c-8.357 4.204-13.135 3.586-21.735 0-4.347-1.812-6.279-2.415-6.279-5.313v-4.83h-3.381L268.47 178.26v4.408l-3.381-1.993v5.313l69.07 42.021c10.143 6.28 19.803 5.797 28.497 0l70.519-41.538v-6.279l-73.417 43.47Z" fill="#222"/><path d="M332.224 166.667v-20.77c-11.379 5.355-9.66 7.246-9.66 10.627.529-3.905 2.189-5.144 6.762-6.279v12.558l-.966 1.932v1.932l-4.83 4.347 8.694-4.347Z" stroke="#fff" stroke-width=".5"/><path d="M326.912 144.932c2.837-1.551 5.313-1.449 5.313.966-10.31 4.924-9.66 6.762-9.66 10.626l-5.313.966c-.483-5.313 1.763-7.705 9.66-12.558Z" stroke="#fff" stroke-width=".5"/><path d="m322.565 156.525-.483 9.66 7.245-3.381-.966 1.932v1.932l-4.83 4.347c-3.381 1.449-5.796 0-6.762-2.898l.483-13.041M332.224 264.782v-20.769c-11.379 5.354-9.66 7.245-9.66 10.626.529-3.905 2.189-5.144 6.762-6.279v12.558l-.966 1.932v1.932l-4.83 4.347 8.694-4.347Z" stroke="#fff" stroke-width=".5"/><path d="M326.912 243.047c2.837-1.551 5.313-1.449 5.313.966-10.31 4.925-9.66 6.762-9.66 10.626l-5.313.966c-.483-5.313 1.763-7.705 9.66-12.558Z" stroke="#fff" stroke-width=".5"/><path d="m322.566 254.638-.483 9.661 7.245-3.381-.966 1.932v1.932l-4.83 4.347c-3.381 1.449-5.796 0-6.762-2.898l.483-13.042M266.535 223.243v-20.769c-11.38 5.354-9.66 7.245-9.66 10.626.528-3.905 2.189-5.144 6.762-6.279v12.558l-.966 1.932v1.932l-4.83 4.347 8.694-4.347Z" stroke="#fff" stroke-width=".5"/><path d="M261.222 201.508c2.837-1.551 5.313-1.449 5.313.966-10.31 4.925-9.66 6.762-9.66 10.626l-5.313.966c-.483-5.313 1.763-7.705 9.66-12.558Z" stroke="#fff" stroke-width=".5"/><path d="m256.875 213.099-.483 9.661 7.245-3.382-.966 1.933v1.932l-4.83 4.347c-3.381 1.449-5.796 0-6.762-2.898l.483-13.042M266.536 126.642v-20.769c-11.379 5.354-9.66 7.245-9.66 10.626.529-3.904 2.189-5.143 6.762-6.279v12.558l-.966 1.932v1.932l-4.83 4.347 8.694-4.347Z" stroke="#fff" stroke-width=".5"/><path d="M261.223 104.907c2.837-1.55 5.313-1.449 5.313.966-10.31 4.925-9.66 6.762-9.66 10.626l-5.313.966c-.483-5.313 1.763-7.704 9.66-12.558Z" stroke="#fff" stroke-width=".5"/><path d="m256.876 116.499-.483 9.66 7.245-3.381-.966 1.932v1.932l-4.83 4.347c-3.381 1.449-5.796 0-6.762-2.898l.483-13.041" stroke="#fff" stroke-width=".5"/></g><path d="m91.882 301 61.324-131.912c3.529-10.148 15-16.323 32.206-7.059 11.47 6.176 18.66 2.343 26.911-7.5L334.088 1M1 233.059l61.324-131.912c3.529-10.147 15-16.323 32.205-7.059 11.471 6.177 18.661 2.343 26.912-7.5l66.618-85.147" stroke="#fff" stroke-width=".5"/><path d="m18.647 255.559 61.324-131.912c3.529-10.147 15-16.323 32.205-7.059 11.471 6.177 18.661 2.343 26.912-7.5L225.117 1.441" stroke="#fff" stroke-width=".5"/><path d="m36.294 275.411 61.324-131.912c3.529-10.147 15-16.323 32.206-7.059 11.47 6.177 18.66 2.343 26.912-7.5L260.412 1.882" stroke="#fff" stroke-width=".5"/><path d="m110.543 227.649-13.105 8.969 12.668 7.623 13.541-8.52-13.104-8.072ZM92.633 238.411l-13.104 8.968 12.668 7.623 13.541-8.519-13.105-8.072Z" fill="#0F0E0E"/><path d="m110.543 227.649-13.105 8.969 12.668 7.623 13.541-8.52-13.104-8.072ZM92.633 238.411l-13.104 8.968 12.668 7.623 13.541-8.519-13.105-8.072Z" stroke="#fff" stroke-width=".5"/><path d="m58.221 218.826-13.366 8.968 12.921 7.623 13.812-8.519-13.366-8.072ZM39.954 229.588l-13.366 8.968 12.92 7.623 13.813-8.52-13.367-8.071Z" fill="#0F0E0E"/><path d="m58.221 218.826-13.366 8.968 12.921 7.623 13.812-8.519-13.366-8.072ZM39.954 229.588l-13.366 8.968 12.92 7.623 13.813-8.52-13.367-8.071Z" stroke="#fff" stroke-width=".5"/><path d="m72.912 250.592-13.677 8.585 13.22 7.297 14.133-8.156-13.676-7.726Z" fill="#0F0E0E" stroke="#F73737" stroke-width=".5"/><path d="M116.588 223.679v-7.451l12.794 7.917 13.677-8.848v6.985l-13.677 9.78-12.794-8.383Z" fill="#161616"/><path d="m129.382 232.062-12.794-8.383v-7.451l12.794 7.917m0 7.917v-7.917m0 7.917 13.677-9.78v-6.985l-13.677 8.848" stroke="#fff" stroke-width=".5"/><path d="m129.824 207.356-13.236 9.062 12.794 7.703 13.677-8.609-13.235-8.156Z" fill="#0F0E0E" stroke="#F73737" stroke-width=".5"/><path d="m97.176 196.768-13.235 9.062 12.794 7.702 13.676-8.609-13.235-8.155Z" fill="#0F0E0E" stroke="#fff" stroke-width=".5"/><path d="M63.963 216.135v-24.916l13.793 8.454 13.793-8.009v24.026l-13.793 8.899-13.793-8.454Z" fill="#161616"/><path d="m77.756 224.589-13.793-8.454v-24.916l13.793 8.454m0 24.916v-24.916m0 24.916 13.793-8.899v-24.026l-13.793 8.009" stroke="#fff" stroke-width=".5"/><path d="m77.311 182.765-13.348 8.453 13.793 8.454 13.793-8.009-14.238-8.898Z" fill="#0F0E0E" stroke="#fff" stroke-width=".5"/><ellipse cx="77.764" cy="191.032" rx="2.647" ry="2.206" fill="#fff"/><defs><filter id="a" x="227.558" y="206.898" width="227.932" height="91.198" filterUnits="userSpaceOnUse" color-interpolation-filters="sRGB"><feFlood flood-opacity="0" result="BackgroundImageFix"/><feBlend in="SourceGraphic" in2="BackgroundImageFix" result="shape"/><feGaussianBlur stdDeviation="5" result="effect1_foregroundBlur_1201_51"/></filter><filter id="b" x="311.601" y="67.115" width="75.063" height="52.58" filterUnits="userSpaceOnUse" color-interpolation-filters="sRGB"><feFlood flood-opacity="0" result="BackgroundImageFix"/><feBlend in="SourceGraphic" in2="BackgroundImageFix" result="shape"/><feGaussianBlur stdDeviation="5" result="effect1_foregroundBlur_1201_51"/></filter></defs></svg>