<svg xmlns="http://www.w3.org/2000/svg" width="104" height="121" fill="none"><path fill="#fff" d="M.091 120.871V.992h56.577c14.29 0 25.717 3.882 34.29 11.645 8.572 7.65 12.858 17.183 12.858 28.6 0 8.905-2.512 16.498-7.544 22.777-5.023 6.28-11.658 10.96-19.888 14.043l27.432 42.814H74.67L49.81 81.482H25.807v39.389H.09Zm25.716-63.365H55.81c7.09 0 12.405-1.427 15.945-4.281 3.66-2.969 5.486-6.964 5.486-11.988 0-5.024-1.826-8.962-5.486-11.817-3.54-2.968-8.855-4.452-15.945-4.452H25.807v32.538Z" opacity=".2"/></svg>