<svg width="128" height="128" fill="none" xmlns="http://www.w3.org/2000/svg"><path opacity=".2" d="M18.554 109.314C6.21 97.212.038 82.084.038 63.931c0-18.153 6.172-33.223 18.516-45.211C31.013 6.618 46.844.567 66.045.567c21.603 0 38.176 7.592 49.72 22.777 5.258 6.736 8.973 14.271 11.145 22.605h-26.575c-1.486-3.881-3.772-7.42-6.858-10.617-7.2-7.193-16.345-10.79-27.432-10.79-11.201 0-20.46 3.71-27.774 11.132C31.07 42.981 27.469 52.4 27.469 63.931c0 11.988 3.486 21.578 10.459 28.771 7.086 7.079 16.459 10.618 28.117 10.618 11.659 0 21.031-3.996 28.118-11.988 3.2-3.767 5.544-7.764 7.029-11.988h26.575c-2.629 9.02-6.573 17.012-11.83 23.976-12.344 15.984-28.975 23.976-49.892 23.976-19.202 0-35.032-5.994-47.49-17.982Z" fill="#fff"/></svg>