<svg width="261" height="159" fill="none" xmlns="http://www.w3.org/2000/svg"><g opacity=".2"><path d="M79.756 147.631c-5.785 3.031-10.468 3.306-16.253 0L5.929 113.197c-2.204-2.204-2.475-5.232 0-6.611l57.574-34.16c5.51-3.305 10.468-3.03 16.253 0l54.544 31.681c6.611 3.581 4.683 7.437-1.102 11.294l-53.442 32.23Z" fill="#0F0E0E" stroke="#fff" stroke-width=".5"/><path d="M135.952 105.207c3.74 3.612 2.838 5.807-2.204 9.917v7.989l4.408-2.479c1.22-1.095 1.42-1.848 1.377-3.306v-6.061c-.039-3.608-1.041-4.736-3.581-6.06ZM20.253 121.462v7.988l-14.6-8.815C4.275 119.533 4 118.431 4 116.503v-6.887c.551 1.378 1.377 3.03 2.204 3.306l14.049 8.54ZM27.14 133.581v-7.713l4.407 2.755v7.713l-4.407-2.755Z" fill="#F73737"/><path d="m20.253 129.449 42.974 25.894m0 0v-7.813m0 7.813c5.008 3.045 11.57 3.031 16.529 0m0 0 1.26-.752m-1.26.752v-1.102m0-6.611v1.928m47.106-22.334 6.887-12.1v2.204m-6.887 9.896 1.928-1.151m-1.928 1.151-1.882 1.123m3.81-2.274 4.959-8.745m-4.959 8.745 1.928-1.151m3.031-7.594v1.928m0 0-3.031 5.666m3.031-5.666v1.928m-3.031 3.738 1.515-.905m0 0 1.516-.904v-1.929m-1.516 2.833 1.516-2.833m-8.769 7.163 6.565-11.846m-6.565 11.846-1.7 1.015m0 0 6.061-11.483m-6.061 11.483-2.203 1.315m0 0 5.509-11.145m-5.509 11.145-2.204 1.316m0 0 5.234-11.084m-5.234 11.084-1.928 1.151m0 0 4.683-10.858m-4.683 10.858-2.36 1.408m0 0 4.563-10.613m-4.563 10.613-2.526 1.508m0 0 4.61-10.743m-4.61 10.743-2.001 1.195m0 0 4.132-10.286m-4.132 10.286-1.929 1.151m0 0 3.93-10.335m-3.93 10.335-1.928 1.151m0 0 3.306-9.833m-3.306 9.833-1.987 1.186m0 0 3.089-9.641m-3.089 9.641-1.87 1.116m0 0 2.755-9.38m-2.755 9.38-1.652.987m0 0 2.203-8.99m-2.203 8.99-1.929 1.151m0 0 1.929-9.039m-1.929 9.039-2.394 1.429m0 0 2.394-9.366m-2.394 9.366-2.289 1.366m0 0 2.289-9.212m-2.289 9.212-2.326 1.389m0 0 2.326-9.091m-2.326 9.091-2.308 1.377m0 0c-.039-.22 1.604-6.152 2.43-9.09m-2.43 9.09-2.528 1.51m0 0 2.204-8.947m-2.204 8.947-2.086 1.245m0 0 2.361-9.091m-2.361 9.091-2.046 1.221m0 0 2.204-8.934m-2.204 8.934-1.77 1.057m0 0 2.045-8.889m-3.306 8.539 1.653-7.449m-1.653 7.449v-4.683m0 0 .551-2.203" stroke="#fff" stroke-width=".5"/><path d="M24.751 50.614V37.48l38.35 22.853c6.439 3.648 9.93 3.411 16.023 0l42.291-25.48v17.862L77.548 78.982c-4.728 2.365-7.617 2.627-12.87 0L25.801 56.13l-2.89-1.05 1.84-4.466Z" fill="#161616"/><path d="M24.751 81.347V64.273l38.35 23.115c6.042 3.415 10.245 3.415 16.023.263l42.291-25.48v17.337l-43.604 26.004c-3.152 1.839-7.617 2.627-12.87 0l-2.796-1.576-.094-13.396-33.36-20.226-2.364.788v9.194l1.314.788v2.101l-1.839-.263v-.787l-1.05-.788Z" fill="#161616"/><path d="M25.014 103.411V90.277l38.35 23.116c6.399 3.482 9.958 3.298 16.286 0l42.29-25.742v17.861l-44.392 26.53c-4.202 2.364-8.102 2.461-12.87 0l-41.503-25.216 1.839-3.415Z" fill="#161616"/><path d="M24.751 50.614V37.48l38.35 22.853c6.439 3.648 9.93 3.411 16.023 0l42.291-25.48v17.862L77.548 78.982c-4.728 2.365-7.617 2.627-12.87 0L25.801 56.13l-2.89-1.05 1.84-4.466Z" stroke="#fff" stroke-width=".5"/><path d="M24.751 81.347V64.273l38.35 23.115c6.042 3.415 10.245 3.415 16.023.263l42.291-25.48v17.337l-43.604 26.004c-3.152 1.839-7.617 2.627-12.87 0l-2.796-1.576-.094-13.396-33.36-20.226-2.364.788v9.194l1.314.788v2.101l-1.839-.263v-.787l-1.05-.788Z" stroke="#fff" stroke-width=".5"/><path d="M25.014 103.411V90.277l38.35 23.116c6.399 3.482 9.958 3.298 16.286 0l42.29-25.742v17.861l-44.392 26.53c-4.202 2.364-8.102 2.461-12.87 0l-41.503-25.216 1.839-3.415Z" stroke="#fff" stroke-width=".5"/><g filter="url(#a)"><path d="m122.99 107.874-1.839-1.838-41.764 24.954c-6.356 4.69-9.991 4.206-16.549 0L22.65 106.561l-4.465-4.465-7.355 4.728 10.507 6.304-2.101 1.576c-1.576 1.839.262 3.677 2.626 1.839l2.627-1.839 32.834 19.963-2.101 1.576c-1.839 1.313-.526 3.415 2.101 1.576l2.89-1.839 2.363 1.576c6.798 4.627 10.731 4.054 17.862 0l41.24-24.428c2.426-1.621 2.889-3.152 1.313-5.254Z" fill="#222"/></g><path d="M26.327 71.1v9.194l34.147 20.226v-8.668L26.327 71.1Z" fill="#111010" stroke="#fff" stroke-width=".5"/><path d="M30.53 76.353c-1.516-.505-1.839 2.364 0 3.152 1.576.526 1.576-2.626 0-3.152ZM34.47 78.718c-1.515-.506-1.838 2.364 0 3.152 1.577.526 1.577-2.626 0-3.152ZM38.41 81.082c-1.515-.506-1.838 2.364 0 3.152 1.577.526 1.577-2.626 0-3.152Z" fill="#fff"/><path d="M48.392 90.275v-2.364l8.93 5.516v2.364l-8.93-5.516Z" stroke="#fff" stroke-width=".5"/><path d="m28.69 70.314-2.363.789 34.147 20.75v8.669l1.576-.263V90.54L28.69 70.314Z" fill="#161616" stroke="#fff" stroke-width=".5"/><path d="m60.474 91.852 1.576-1.313M121.939 105.512l-43.34 26.004c-4.991 3.152-9.72 3.152-14.71 0l-3.678-2.101L22.388 106.3" stroke="#fff" stroke-width=".5"/><path d="M22.387 79.769V62.695c-1.313-.788-2.32-1.79-3.152-3.415v16.811c0 1.839 1.402 2.686 3.152 3.678ZM22.387 94.742v-6.041c-1.313-.788-2.32-1.79-3.152-3.415V97.37s1.576-2.364 3.152-2.627ZM22.387 42.207v-6.041c-1.313-.788-2.32-1.79-3.152-3.415v12.083s1.576-2.364 3.152-2.627ZM23.7 63.484v16.962l1.314.9V64.272l-1.313-.788ZM23.7 89.49v4.727l1.314-1.05v-2.89l-1.313-.788ZM23.7 96.844v7.092l1.314-.788v-6.83l-1.313.526ZM23.7 36.955v4.728l1.314-1.05v-2.89l-1.313-.788ZM23.7 44.31v7.092l1.314-.788v-6.83l-1.313.526ZM121.676 79.77V61.91c1.553-.993 2.04-2.089 2.364-3.94v17.336c0 2.89-.525 3.415-2.364 4.465ZM121.676 106.037V87.913c1.553-.993 2.04-1.826 2.364-3.678v17.337c0 2.889-.525 3.414-2.364 4.465Z" fill="#F73737"/><path d="M22.125 88.438c-4.202-2.364-3.414-5.516 1.051-7.355l2.627 1.05v3.153l38.35 23.378c4.728 2.626 9.456 2.626 13.922 0l39.138-23.116v-3.677l2.889-1.05c5.254 2.363 4.466 5.515.788 7.617l-40.451 24.428c-6.476 3.786-10.331 4.479-18.125 0L22.125 88.438Z" fill="#0F0E0E" stroke="#fff" stroke-width=".5"/><path d="M22.125 62.434c-4.202-2.364-3.414-5.516 1.051-7.355l2.627 1.05v3.153l38.35 23.378c4.728 2.626 9.456 2.626 13.922 0l39.138-23.115v-3.678l2.889-1.05c5.254 2.364 4.466 5.516.788 7.617L80.439 86.862c-6.476 3.786-10.331 4.479-18.125 0L22.125 62.434Z" fill="#0F0E0E" stroke="#fff" stroke-width=".5"/><path d="M22.386 35.904c-3.151-2.102-5.253-5.254 0-7.88L63.101 3.856c6.304-3.677 10.244-3.94 16.81 0l41.766 24.692c3.677 1.838 2.364 4.728 0 6.304L78.073 61.12c-4.99 2.627-8.143 2.364-13.396 0l-42.29-25.216Z" fill="#0F0E0E" stroke="#fff" stroke-width=".5"/><g filter="url(#b)"><ellipse cx="71.507" cy="34.938" rx="14.972" ry="8.859" fill="#222"/></g><path d="M62.778 24.65c2.365-1.274 3.647-1.663 5.886-2.004-1.404 2.072-1.344 3.959.402 5.947-4.06-.075-6.087-2.005-6.288-3.942ZM72.143 28.058c-2.275-1.536-2.074-4.41.401-5.813 2.888.069 4.246.364 6.355 1.203-3.422.888-5.066 1.705-6.756 4.61ZM81.641 24.918c-2.742-.134-6.421 1.67-6.689 4.076 3.56-1.181 5.623-1.417 9.499-.535-.363-1.452-1.472-2.672-2.81-3.541ZM84.718 30.865c-2.609-1.537-5.71-1.561-9.03 0 4.197.82 5.416 1.765 6.756 3.809 1.501-1.453 1.855-2.295 2.274-3.809ZM80.036 36.478c0-2.406-2.96-3.818-6.087-3.809 1.791 2.22 1.828 3.479.267 5.747 2.499-.437 3.78-.84 5.82-1.938ZM70.604 38.616c2.743-2.071 2.341-3.942.2-5.412-1.5 2.454-2.98 3.354-6.354 4.41 2.111.677 3.402.952 6.154 1.002ZM58.698 32.803c3.957.744 6.012.593 9.431-.535-.468 2.272-3.277 4.01-6.555 3.809-1.596-1.06-2.187-1.795-2.876-3.274ZM58.296 30.53c3.773 1.395 6.422 1.137 9.098-.2-3.726-.676-5.274-1.5-7.09-3.808-1.408 1.41-1.863 2.285-2.008 4.009Z" fill="#fff"/><path d="M121.676 52.977V34.852c1.553-.993 2.04-1.825 2.364-3.677V48.51c0 2.89-.525 3.415-2.364 4.466Z" fill="#F73737"/><path d="M29.742 99.469c0-1.838 2.102-.787 2.102 1.051v6.304c0 1.051-2.102 1.051-2.102-1.051v-6.304ZM33.42 101.571c0-1.838 2.101-.787 2.101 1.051v6.304c0 1.051-2.101 1.051-2.101-1.051v-6.304ZM37.097 104.198c0-1.838 2.101-.787 2.101 1.05v6.305c0 1.051-2.101 1.051-2.101-1.051v-6.304ZM41.037 105.773c0-1.838 2.102-.787 2.102 1.051v6.304c0 1.051-2.102 1.051-2.102-1.051v-6.304ZM44.452 108.401c0-1.838 2.101-.788 2.101 1.05v6.304c0 1.052-2.101 1.052-2.101-1.05v-6.304ZM48.13 110.502c0-1.838 2.1-.787 2.1 1.051v6.304c0 1.051-2.1 1.051-2.1-1.051v-6.304ZM51.807 112.603c0-1.838 2.101-.787 2.101 1.051v6.304c0 1.052-2.101 1.052-2.101-1.051v-6.304ZM55.747 114.705v3.94l1.838-1.051v-2.627c0-1.05-1.838-1.839-1.838-.262ZM116.949 71.51c0-1.788-2.055-.766-2.055 1.022v6.133c0 1.023 2.055 1.023 2.055-1.022V71.51ZM113.352 73.555c0-1.788-2.056-.766-2.056 1.022v6.134c0 1.022 2.056 1.022 2.056-1.023v-6.133ZM109.754 76.11c0-1.787-2.055-.765-2.055 1.023v6.133c0 1.023 2.055 1.023 2.055-1.022V76.11ZM105.9 77.643c0-1.788-2.056-.766-2.056 1.022V84.8c0 1.022 2.056 1.022 2.056-1.023v-6.133ZM102.559 80.2c0-1.789-2.055-.766-2.055 1.022v6.133c0 1.022 2.055 1.022 2.055-1.023V80.2ZM98.962 82.244c0-1.788-2.056-.766-2.056 1.022v6.133c0 1.023 2.056 1.023 2.056-1.022v-6.133ZM95.364 84.288c0-1.788-2.055-.766-2.055 1.022v6.133c0 1.023 2.055 1.023 2.055-1.022v-6.133ZM91.47 86.332c0-1.787-2.056-.765-2.056 1.023v6.133c0 1.023 2.056 1.023 2.056-1.022v-6.133ZM88.055 88.377c0-1.788-2.055-.766-2.055 1.022v6.133c0 1.023 2.055 1.023 2.055-1.022v-6.133ZM84.332 90.421c0-1.788-2.055-.766-2.055 1.022v6.133c0 1.023 2.055 1.023 2.055-1.022v-6.133ZM29.742 46.32c0-1.837 2.102-.787 2.102 1.051v6.304c0 1.052-2.102 1.052-2.102-1.05V46.32ZM33.42 48.423c0-1.838 2.101-.788 2.101 1.05v6.305c0 1.05-2.101 1.05-2.101-1.051v-6.304ZM37.097 51.05c0-1.839 2.101-.788 2.101 1.05v6.304c0 1.052-2.101 1.052-2.101-1.05v-6.305ZM41.037 52.625c0-1.838 2.102-.788 2.102 1.05v6.305c0 1.05-2.102 1.05-2.102-1.051v-6.304ZM44.452 55.252c0-1.838 2.101-.787 2.101 1.05v6.305c0 1.051-2.101 1.051-2.101-1.05v-6.305ZM48.13 57.353c0-1.837 2.1-.787 2.1 1.051v6.304c0 1.052-2.1 1.052-2.1-1.05v-6.305ZM51.807 59.455c0-1.838 2.101-.787 2.101 1.05v6.305c0 1.051-2.101 1.051-2.101-1.051v-6.304ZM55.747 61.556v3.94l1.838-1.486V61.82c0-1.05-1.838-1.84-1.838-.263Z" fill="#fff"/><path d="M65.203 129.152v-11.82m12.608 11.82v-11.82M65.203 103.937v-11.82m12.608 11.82v-11.82M65.203 76.093v-11.82m12.608 11.82v-11.82M82.539 117.856c.525-1.839 1.576-3.152 3.152-3.94m-1.576 3.94c.284-1.097.548-1.652 1.576-2.364m-.525 2.627c.133-.514.262-.788.788-1.051m.788-3.677c1.299-.31 1.924-.234 2.89.262m.787.788c.788 1.576.564 2.84 0 4.466m-.525 1.576c-.61 2.001-1.576 2.889-3.415 3.677m-1.313.526c-1.051.262-1.975.181-2.89-.526m-.262-4.991c-.461 1.743-.517 2.682 0 4.203m4.728-8.405c.71-.375 1.113-.377 1.838 0m-3.94 4.728c-.086.649.012.954.526 1.313m-2.102-1.576c-.304 1.067-.31 1.636 0 2.627m.526.525c.717.348 1.05.526 1.838.263m1.314-6.042c1.05 0 1.313 1.051 1.05 1.839m1.051-2.627a2.386 2.386 0 0 1 0 2.627m-2.627 2.101c.65-.291.886-.518 1.051-1.05m1.05.525c-.31 1.233-.734 1.693-1.838 2.101m9.194-12.607c.525-1.839 1.576-3.153 3.152-3.941m-1.576 3.941c.284-1.097.547-1.653 1.576-2.364m-.526 2.626c.133-.513.263-.788.788-1.05m.788-3.678c1.299-.309 1.924-.233 2.89.263m.788.788c.788 1.576.563 2.84 0 4.465m-.526 1.576c-.61 2.001-1.576 2.89-3.414 3.678m-1.314.525c-1.05.263-1.974.181-2.89-.525m-.262-4.991c-.46 1.742-.516 2.682 0 4.203m4.728-8.406c.711-.375 1.114-.377 1.839 0m-3.94 4.728c-.086.649.012.955.525 1.314m-2.101-1.576c-.304 1.066-.31 1.636 0 2.626m.525.526c.718.347 1.05.525 1.839.262m1.313-6.041c1.051 0 1.314 1.051 1.051 1.839m1.051-2.627a2.388 2.388 0 0 1 0 2.627m-2.627 2.101c.65-.291.886-.518 1.051-1.051m1.05.526c-.31 1.233-.734 1.692-1.838 2.101m8.93-12.608c.526-1.838 1.576-3.152 3.152-3.94m-1.576 3.94c.285-1.096.548-1.652 1.576-2.364m-.525 2.627c.133-.513.263-.788.788-1.051m.788-3.677c1.299-.31 1.924-.233 2.89.263m.788.788c.788 1.576.563 2.84 0 4.465m-.526 1.576c-.61 2.001-1.576 2.89-3.414 3.678m-1.314.525c-1.051.263-1.974.181-2.889-.525m-.263-4.991c-.461 1.742-.516 2.682 0 4.203m4.728-8.406c.711-.375 1.114-.377 1.839 0m-3.94 4.728c-.086.649.012.955.525 1.314m-2.101-1.576c-.305 1.066-.311 1.636 0 2.626m.525.526c.718.347 1.051.525 1.839.262m1.313-6.041c1.051 0 1.314 1.05 1.051 1.839m1.051-2.627a2.388 2.388 0 0 1 0 2.627m-2.627 2.101c.649-.291.886-.518 1.051-1.051m1.05.526c-.31 1.232-.734 1.692-1.838 2.101M82.539 64.718c.525-1.838 1.576-3.152 3.152-3.94m-1.576 3.94c.284-1.097.548-1.652 1.576-2.364m-.525 2.627c.133-.514.262-.788.788-1.05m.788-3.678c1.299-.31 1.924-.233 2.89.263m.787.788c.788 1.576.564 2.84 0 4.465m-.525 1.576c-.61 2-1.576 2.89-3.415 3.677m-1.313.526c-1.051.263-1.975.181-2.89-.526m-.262-4.99c-.461 1.742-.517 2.682 0 4.203m4.728-8.406c.71-.375 1.113-.377 1.838 0m-3.94 4.728c-.086.649.012.955.526 1.313m-2.102-1.576c-.304 1.067-.31 1.637 0 2.627m.526.525c.717.348 1.05.526 1.838.263m1.314-6.041c1.05 0 1.313 1.05 1.05 1.838m1.051-2.626a2.386 2.386 0 0 1 0 2.626m-2.627 2.102c.65-.292.886-.518 1.051-1.05m1.05.524c-.31 1.233-.734 1.693-1.838 2.102m9.194-12.608c.525-1.839 1.576-3.152 3.152-3.94m-1.576 3.94c.284-1.097.547-1.652 1.576-2.364m-.526 2.627c.133-.514.263-.788.788-1.051m.788-3.678c1.299-.31 1.924-.233 2.89.263m.788.788c.788 1.576.563 2.84 0 4.466m-.526 1.576c-.61 2-1.576 2.889-3.414 3.677m-1.314.525c-1.05.263-1.974.182-2.89-.525m-.262-4.99c-.46 1.742-.516 2.681 0 4.202m4.728-8.405c.711-.375 1.114-.378 1.839 0m-3.94 4.728c-.086.648.012.954.525 1.313m-2.101-1.576c-.304 1.067-.31 1.636 0 2.627m.525.525c.718.348 1.05.525 1.839.263m1.313-6.042c1.051 0 1.314 1.05 1.051 1.839m1.051-2.627a2.387 2.387 0 0 1 0 2.627m-2.627 2.101c.65-.291.886-.518 1.051-1.05m1.05.525c-.31 1.233-.734 1.692-1.838 2.101m8.93-12.607c.526-1.839 1.576-3.152 3.152-3.94m-1.576 3.94c.285-1.097.548-1.652 1.576-2.364m-.525 2.627c.133-.514.263-.789.788-1.051m.788-3.678c1.299-.31 1.924-.233 2.89.263m.788.788c.788 1.576.563 2.84 0 4.465m-.526 1.576c-.61 2.001-1.576 2.89-3.414 3.678m-1.314.525c-1.051.263-1.974.182-2.889-.525m-.263-4.99c-.461 1.742-.516 2.681 0 4.202m4.728-8.406c.711-.374 1.114-.377 1.839 0m-3.94 4.729c-.086.648.012.954.525 1.313m-2.101-1.576c-.305 1.067-.311 1.636 0 2.627m.525.525c.718.348 1.051.525 1.839.263m1.313-6.042c1.051 0 1.314 1.05 1.051 1.839m1.051-2.627a2.387 2.387 0 0 1 0 2.627m-2.627 2.101c.649-.291.886-.518 1.051-1.05m1.05.525c-.31 1.233-.734 1.692-1.838 2.101" stroke="#fff" stroke-width=".5"/><path d="M65.465 79.507 25.802 56.129v3.152l37.562 22.852c5.731 2.934 9.068 3.456 15.498 0l38.35-22.59v-3.677l-39.927 23.64c-4.544 2.287-7.143 1.95-11.82 0Z" fill="#222"/><path d="M77.285 105.774c-4.544 2.286-7.143 1.95-11.82 0-2.364-.985-3.415-1.313-3.415-2.889v-2.627h-1.838L27.64 81.083v2.397l-1.838-1.084v2.89l37.562 22.852c5.516 3.415 10.77 3.152 15.498 0l38.35-22.59v-3.414l-39.927 23.64Z" fill="#222"/><path d="M62.312 74.78V63.483c-6.189 2.912-5.254 3.94-5.254 5.78.288-2.124 1.19-2.798 3.678-3.416v6.83l-.526 1.05v1.051l-2.627 2.364 4.729-2.364Z" stroke="#fff" stroke-width=".5"/><path d="M59.423 62.96c1.543-.844 2.89-.789 2.89.525-5.608 2.678-5.254 3.677-5.254 5.778l-2.89.526c-.262-2.89.96-4.19 5.254-6.83Z" stroke="#fff" stroke-width=".5"/><path d="m57.059 69.265-.263 5.253 3.94-1.839-.525 1.051v1.05l-2.627 2.365c-1.839.788-3.152 0-3.677-1.576l.262-7.092M62.312 128.138v-11.295c-6.189 2.912-5.254 3.94-5.254 5.779.288-2.124 1.19-2.798 3.678-3.415v6.829l-.526 1.051v1.051l-2.627 2.364 4.729-2.364Z" stroke="#fff" stroke-width=".5"/><path d="M59.423 116.318c1.543-.844 2.89-.788 2.89.525-5.608 2.678-5.254 3.677-5.254 5.779l-2.89.525c-.262-2.889.96-4.19 5.254-6.829Z" stroke="#fff" stroke-width=".5"/><path d="m57.059 122.621-.263 5.253 3.94-1.838-.525 1.05v1.051l-2.627 2.364c-1.839.788-3.152 0-3.677-1.576l.262-7.092M26.587 105.548V94.253c-6.188 2.912-5.253 3.94-5.253 5.779.287-2.124 1.19-2.797 3.678-3.415v6.829l-.526 1.051v1.051l-2.627 2.364 4.728-2.364Z" stroke="#fff" stroke-width=".5"/><path d="M23.698 93.728c1.543-.843 2.89-.788 2.89.525-5.607 2.678-5.254 3.677-5.254 5.779l-2.889.525c-.263-2.89.959-4.19 5.253-6.83Z" stroke="#fff" stroke-width=".5"/><path d="m21.334 100.032-.262 5.254 3.94-1.839-.526 1.051v1.05l-2.627 2.364c-1.838.788-3.152 0-3.677-1.576l.263-7.092M26.588 53.012V41.717c-6.188 2.912-5.253 3.94-5.253 5.779.287-2.124 1.19-2.798 3.677-3.415v6.83l-.525 1.05v1.05l-2.627 2.365 4.729-2.364Z" stroke="#fff" stroke-width=".5"/><path d="M23.7 41.192c1.542-.844 2.889-.788 2.889.525-5.607 2.678-5.254 3.677-5.254 5.779l-2.89.525c-.262-2.89.96-4.19 5.254-6.83Z" stroke="#fff" stroke-width=".5"/><path d="m21.335 47.496-.262 5.253 3.94-1.838-.526 1.05v1.051l-2.627 2.364c-1.838.788-3.152 0-3.677-1.576l.263-7.092" stroke="#fff" stroke-width=".5"/></g><path d="m142.229 158 29.845-64.197c1.717-4.939 7.3-7.944 15.673-3.435 5.582 3.005 9.081 1.14 13.097-3.65L260.103 12M98 124.935l29.844-64.197c1.718-4.938 7.3-7.944 15.674-3.435 5.582 3.006 9.081 1.14 13.097-3.65l32.42-41.438" stroke="#fff" stroke-width=".5"/><path d="m106.588 135.885 29.844-64.197c1.718-4.938 7.3-7.944 15.674-3.435 5.582 3.006 9.081 1.14 13.097-3.65l41.868-52.388" stroke="#fff" stroke-width=".5"/><path d="m115.177 145.547 29.844-64.197c1.718-4.938 7.3-7.944 15.673-3.435 5.583 3.006 9.082 1.14 13.097-3.65l50.456-61.835" stroke="#fff" stroke-width=".5"/><path d="m151.31 122.303-6.377 4.364 6.165 3.71 6.59-4.146-6.378-3.928ZM142.595 127.54l-6.378 4.365 6.165 3.709 6.59-4.146-6.377-3.928Z" fill="#0F0E0E"/><path d="m151.31 122.303-6.377 4.364 6.165 3.71 6.59-4.146-6.378-3.928ZM142.595 127.54l-6.378 4.365 6.165 3.709 6.59-4.146-6.377-3.928Z" stroke="#fff" stroke-width=".5"/><path d="m125.848 118.008-6.505 4.364 6.288 3.71 6.722-4.146-6.505-3.928ZM116.958 123.245l-6.505 4.365 6.288 3.71 6.722-4.147-6.505-3.928Z" fill="#0F0E0E"/><path d="m125.848 118.008-6.505 4.364 6.288 3.71 6.722-4.146-6.505-3.928ZM116.958 123.245l-6.505 4.365 6.288 3.71 6.722-4.147-6.505-3.928Z" stroke="#fff" stroke-width=".5"/><path d="m132.997 133.468-6.656 4.178 6.434 3.551 6.878-3.969-6.656-3.76Z" fill="#0F0E0E" stroke="#F73737" stroke-width=".5"/><path d="M154.253 120.37v-3.626l6.226 3.853 6.656-4.306v3.4l-6.656 4.759-6.226-4.08Z" fill="#161616"/><path d="m160.479 124.45-6.226-4.08v-3.626l6.226 3.853m0 3.853v-3.853m0 3.853 6.656-4.759v-3.4l-6.656 4.306" stroke="#fff" stroke-width=".5"/><path d="m160.694 112.426-6.441 4.41 6.226 3.749 6.656-4.19-6.441-3.969Z" fill="#0F0E0E" stroke="#F73737" stroke-width=".5"/><path d="m144.805 107.273-6.441 4.411 6.227 3.748 6.656-4.189-6.442-3.97Z" fill="#0F0E0E" stroke="#fff" stroke-width=".5"/><path d="M128.642 116.698v-12.126l6.713 4.114 6.712-3.897v11.693l-6.712 4.331-6.713-4.115Z" fill="#161616"/><path d="m135.355 120.813-6.713-4.115v-12.126l6.713 4.114m0 12.127v-12.127m0 12.127 6.712-4.331v-11.693l-6.712 3.897" stroke="#fff" stroke-width=".5"/><path d="m135.138 100.458-6.496 4.114 6.713 4.114 6.712-3.897-6.929-4.331Z" fill="#0F0E0E" stroke="#fff" stroke-width=".5"/><ellipse cx="135.359" cy="104.483" rx="1.288" ry="1.074" fill="#fff"/><defs><filter id="a" x=".829" y="92.096" width="133.079" height="58.72" filterUnits="userSpaceOnUse" color-interpolation-filters="sRGB"><feFlood flood-opacity="0" result="BackgroundImageFix"/><feBlend in="SourceGraphic" in2="BackgroundImageFix" result="shape"/><feGaussianBlur stdDeviation="5" result="effect1_foregroundBlur_1301_50"/></filter><filter id="b" x="46.534" y="16.079" width="49.945" height="37.718" filterUnits="userSpaceOnUse" color-interpolation-filters="sRGB"><feFlood flood-opacity="0" result="BackgroundImageFix"/><feBlend in="SourceGraphic" in2="BackgroundImageFix" result="shape"/><feGaussianBlur stdDeviation="5" result="effect1_foregroundBlur_1301_50"/></filter></defs></svg>