<svg xmlns="http://www.w3.org/2000/svg" width="73" height="16" fill="none"><path fill="#fff" d="m6.477.055 2.718 3.669-5.436 6.795h2.039l.815-1.223L7.7 10.383l-1.087 1.495H1.041L7.43 3.724 5.662 1.55H3.759l1.903 2.582-.815.951L.77.055h5.707Z"/><path fill="#fff" d="M12.865 1.55 7.429 8.345l2.718 3.533h5.707l-3.94-5.028-1.088 1.359 2.039 2.31h-1.903L9.195 8.345 15.99.055h-5.436L9.06 1.55l.952.95.951-.95h1.903ZM21.97 9.704l2.174-3.806-1.902-3.669c-.732-1.134.815-2.174 1.495-.68l1.359 2.447 1.63-2.582c.544-1.088 2.039-.408 1.36.815l-2.04 3.67 2.311 3.805c.68 1.359-.68 1.902-1.359.815l-1.902-2.99-1.767 2.99c-.816 1.087-1.903.136-1.36-.815ZM37.327 7.801l-6.524.136c-.094 1.631 2.447 2.31 4.35.951.679-.543 2.038.204 1.222 1.223-.543.68-1.359 1.223-2.582 1.36H32.57c-2.854 0-3.805-2.99-3.533-4.757.271-1.767 2.038-3.398 3.94-3.398h1.088c2.446.136 3.398 3.126 3.262 4.485ZM39.637 4.132c1.359-1.464 4.077-1.36 5.436 0v-.68h1.767v8.29c0 2.039-1.767 3.398-4.35 3.398-.95 0-1.494-1.767 0-1.767h.816c1.087-.272 1.903-1.495 1.767-2.99-1.087 1.087-3.88 1.087-5.164 0-1.767-1.495-2.039-4.349-.272-6.251ZM49.014 4.132c1.359-1.464 4.077-1.36 5.436 0v-.68h1.767v8.29c0 2.039-1.767 3.398-4.35 3.398-.95 0-1.494-1.767 0-1.767h.816c1.087-.272 1.903-1.495 1.767-2.99-1.087 1.087-3.88 1.087-5.164 0-1.767-1.495-2.039-4.349-.272-6.251ZM65.458 7.801l-6.523.136c-.095 1.631 2.446 2.31 4.348.951.68-.543 2.039.204 1.224 1.223-.544.68-1.36 1.223-2.583 1.36h-1.223c-2.854 0-3.805-2.99-3.533-4.757.272-1.767 2.038-3.398 3.941-3.398h1.087c2.447.136 3.398 3.126 3.262 4.485ZM66.001 9.704l2.175-3.806-1.903-3.669c-.731-1.134.816-2.174 1.495-.68l1.36 2.447 1.63-2.582c.544-1.088 2.038-.408 1.359.815L70.079 5.9l2.31 3.805c.68 1.359-.68 1.902-1.36.815l-1.902-2.99-1.766 2.99c-.816 1.087-1.903.136-1.36-.815Z"/><path fill="#191919" d="M30.804 6.577c.815-2.174 4.077-2.174 4.892 0h-4.892ZM42.627 4.81c-3.533 0-3.398 4.757 0 4.757s2.99-4.756 0-4.756ZM52.004 4.81c-3.533 0-3.397 4.757 0 4.757 3.398 0 2.99-4.756 0-4.756ZM58.935 6.577c.815-2.174 4.077-2.174 4.892 0h-4.892Z"/></svg>