<svg width="150" height="148" fill="none" xmlns="http://www.w3.org/2000/svg"><path opacity=".2" d="M21.643 127C7.243 112.867.043 95.2.043 74s7.2-38.8 21.6-52.8C36.176 7.067 54.643 0 77.043 0c25.2 0 44.533 8.867 58 26.6 6.133 7.867 10.467 16.667 13 26.4h-31c-1.733-4.533-4.4-8.667-8-12.4-8.4-8.4-19.067-12.6-32-12.6-13.067 0-23.867 4.333-32.4 13-8.4 8.533-12.6 19.533-12.6 33 0 14 4.067 25.2 12.2 33.6 8.267 8.267 19.2 12.4 32.8 12.4 13.6 0 24.533-4.667 32.8-14 3.733-4.4 6.467-9.067 8.2-14h31c-3.067 10.533-7.667 19.867-13.8 28-14.4 18.667-33.8 28-58.2 28-22.4 0-40.867-7-55.4-21Z" fill="#fff"/></svg>