<svg xmlns="http://www.w3.org/2000/svg" width="86" height="88" fill="none"><path stroke="#fff" stroke-width="2" d="M11.404 74.68V86m0-11.32L1 69.02m10.404 5.66 10.018-5.66M11.404 86 1 80.34V69.02M11.404 86l10.018-5.66V69.02M1 69.02l10.404-6.046 10.018 6.046m22.092 5.66V86m0-11.32L33.11 69.02m10.404 5.66 10.018-5.66M43.514 86 33.11 80.34V69.02M43.514 86l10.018-5.66V69.02m-20.422 0 10.404-6.046 10.018 6.046m21.45 5.66V86m0-11.32-10.404-5.66m10.404 5.66L85 69.02M74.982 86l-10.404-5.66V69.02M74.982 86 85 80.34V69.02m-20.422 0 10.404-6.046L85 69.02M43.514 17.436v14.922m0-14.922 12.844-7.46m-12.844 7.46-13.487-7.46m13.487 22.382 12.844-7.59V9.976M43.514 32.358l-13.487-7.59V9.976m26.33 0L43.515 2 30.027 9.976M11.404 58.343V49.21h32.11m31.468 9.133V49.21H43.514m0 0v-8.876V57.7"/></svg>