<svg xmlns="http://www.w3.org/2000/svg" width="104" height="23" fill="none"><path fill="#fff" d="m8.648.5 3.88 5.238-7.76 9.7h2.91l1.164-1.746 1.552 1.552-1.552 2.134H.888l9.118-11.64-2.522-3.104H4.768L7.484 6.32 6.32 7.678.5.5h8.148Z"/><path fill="#fff" d="m17.766 2.634-7.76 9.7 3.88 5.044h8.148L16.407 10.2l-1.552 1.94 2.91 3.298H15.05l-2.522-3.104L22.228.5h-7.76l-2.134 2.134 1.358 1.358 1.358-1.358h2.716ZM30.763 14.274l3.104-5.432-2.716-5.238c-1.044-1.619 1.164-3.104 2.134-.97l1.94 3.492 2.328-3.686c.776-1.552 2.91-.582 1.94 1.164l-2.91 5.238 3.298 5.432c.97 1.94-.97 2.716-1.94 1.164l-2.716-4.268-2.522 4.268c-1.164 1.552-2.716.194-1.94-1.164ZM52.685 11.558l-9.312.194c-.135 2.329 3.492 3.298 6.208 1.358.97-.776 2.91.29 1.746 1.746-.776.97-1.94 1.746-3.686 1.94h-1.746c-4.074 0-5.432-4.268-5.044-6.79.388-2.522 2.91-4.85 5.626-4.85h1.552c3.492.194 4.85 4.462 4.656 6.402ZM55.983 6.32c1.94-2.09 5.82-1.94 7.76 0v-.97h2.521v11.834c0 2.91-2.521 4.85-6.207 4.85-1.358 0-2.134-2.522 0-2.522h1.164c1.552-.388 2.716-2.134 2.522-4.268-1.552 1.552-5.538 1.552-7.372 0-2.522-2.134-2.91-6.208-.388-8.924ZM69.368 6.32c1.94-2.09 5.82-1.94 7.76 0v-.97h2.522v11.834c0 2.91-2.522 4.85-6.208 4.85-1.358 0-2.134-2.522 0-2.522h1.164c1.552-.388 2.716-2.134 2.522-4.268-1.552 1.552-5.537 1.552-7.372 0-2.522-2.134-2.91-6.208-.388-8.924ZM92.842 11.558l-9.312.194c-.135 2.329 3.492 3.298 6.208 1.358.97-.776 2.91.29 1.746 1.746-.776.97-1.94 1.746-3.686 1.94h-1.746c-4.074 0-5.432-4.268-5.044-6.79.388-2.522 2.91-4.85 5.626-4.85h1.552c3.492.194 4.85 4.462 4.656 6.402ZM93.618 14.274l3.104-5.432-2.716-5.238C92.962 1.985 95.17.5 96.14 2.634l1.94 3.492 2.328-3.686c.776-1.552 2.91-.582 1.94 1.164l-2.91 5.238 3.298 5.432c.97 1.94-.97 2.716-1.94 1.164L98.08 11.17l-2.522 4.268c-1.164 1.552-2.716.194-1.94-1.164Z"/><path stroke="#fff" stroke-width=".08" d="m8.648.5 3.88 5.238-7.76 9.7h2.91l1.164-1.746 1.552 1.552-1.552 2.134H.888l9.118-11.64-2.522-3.104H4.768L7.484 6.32 6.32 7.678.5.5h8.148Z"/><path stroke="#fff" stroke-width=".08" d="m17.766 2.634-7.76 9.7 3.88 5.044h8.148L16.407 10.2l-1.552 1.94 2.91 3.298H15.05l-2.522-3.104L22.228.5h-7.76l-2.134 2.134 1.358 1.358 1.358-1.358h2.716ZM30.763 14.274l3.104-5.432-2.716-5.238c-1.044-1.619 1.164-3.104 2.134-.97l1.94 3.492 2.328-3.686c.776-1.552 2.91-.582 1.94 1.164l-2.91 5.238 3.298 5.432c.97 1.94-.97 2.716-1.94 1.164l-2.716-4.268-2.522 4.268c-1.164 1.552-2.716.194-1.94-1.164ZM52.685 11.558l-9.312.194c-.135 2.329 3.492 3.298 6.208 1.358.97-.776 2.91.29 1.746 1.746-.776.97-1.94 1.746-3.686 1.94h-1.746c-4.074 0-5.432-4.268-5.044-6.79.388-2.522 2.91-4.85 5.626-4.85h1.552c3.492.194 4.85 4.462 4.656 6.402ZM55.983 6.32c1.94-2.09 5.82-1.94 7.76 0v-.97h2.521v11.834c0 2.91-2.521 4.85-6.207 4.85-1.358 0-2.134-2.522 0-2.522h1.164c1.552-.388 2.716-2.134 2.522-4.268-1.552 1.552-5.538 1.552-7.372 0-2.522-2.134-2.91-6.208-.388-8.924ZM69.368 6.32c1.94-2.09 5.82-1.94 7.76 0v-.97h2.522v11.834c0 2.91-2.522 4.85-6.208 4.85-1.358 0-2.134-2.522 0-2.522h1.164c1.552-.388 2.716-2.134 2.522-4.268-1.552 1.552-5.537 1.552-7.372 0-2.522-2.134-2.91-6.208-.388-8.924ZM92.842 11.558l-9.312.194c-.135 2.329 3.492 3.298 6.208 1.358.97-.776 2.91.29 1.746 1.746-.776.97-1.94 1.746-3.686 1.94h-1.746c-4.074 0-5.432-4.268-5.044-6.79.388-2.522 2.91-4.85 5.626-4.85h1.552c3.492.194 4.85 4.462 4.656 6.402ZM93.618 14.274l3.104-5.432-2.716-5.238C92.962 1.985 95.17.5 96.14 2.634l1.94 3.492 2.328-3.686c.776-1.552 2.91-.582 1.94 1.164l-2.91 5.238 3.298 5.432c.97 1.94-.97 2.716-1.94 1.164L98.08 11.17l-2.522 4.268c-1.164 1.552-2.716.194-1.94-1.164Z"/><path fill="#191919" d="M43.374 9.81c1.164-3.103 5.82-3.103 6.984 0h-6.984ZM60.252 7.29c-5.044 0-4.85 6.789 0 6.789s4.267-6.79 0-6.79ZM73.637 7.29c-5.044 0-4.85 6.789 0 6.789s4.268-6.79 0-6.79ZM83.531 9.81c1.164-3.103 5.82-3.103 6.984 0H83.53Z"/><path stroke="#fff" stroke-width=".08" d="M43.374 9.81c1.164-3.103 5.82-3.103 6.984 0h-6.984ZM60.252 7.29c-5.044 0-4.85 6.789 0 6.789s4.267-6.79 0-6.79ZM73.637 7.29c-5.044 0-4.85 6.789 0 6.789s4.268-6.79 0-6.79ZM83.531 9.81c1.164-3.103 5.82-3.103 6.984 0H83.53Z"/></svg>