<svg width="38" height="38" fill="none" xmlns="http://www.w3.org/2000/svg"><path opacity=".2" d="M5.212 32.151C1.53 28.575-.312 24.105-.312 18.741c0-5.365 1.841-9.818 5.524-13.361C8.93 1.804 13.653.016 19.382.016c6.446 0 11.391 2.243 14.836 6.73a18.131 18.131 0 0 1 3.325 6.68h-7.93c-.442-1.146-1.125-2.193-2.045-3.137C25.419 8.163 22.69 7.1 19.383 7.1c-3.343 0-6.105 1.096-8.288 3.29-2.148 2.158-3.222 4.942-3.222 8.35 0 3.542 1.04 6.376 3.12 8.501 2.114 2.092 4.911 3.138 8.39 3.138 3.478 0 6.275-1.18 8.39-3.543.954-1.113 1.653-2.294 2.097-3.542h7.929c-.785 2.665-1.961 5.027-3.53 7.085-3.683 4.723-8.645 7.085-14.886 7.085-5.73 0-10.453-1.771-14.17-5.314Z" fill="#fff"/></svg>