<svg xmlns="http://www.w3.org/2000/svg" width="124" height="27" fill="none"><path fill="#fff" d="m10.718.764 4.654 6.283-9.308 11.635h3.49l1.397-2.094 1.861 1.862-1.861 2.56H1.41L12.347 7.046 9.322 3.324H6.064l3.258 4.421-1.397 1.63L.945.764h9.773Z"/><path fill="#fff" d="m21.655 3.324-9.308 11.635L17 21.01h9.773l-6.748-8.61-1.862 2.327 3.491 3.956h-3.258l-3.025-3.723L27.007.764H17.7l-2.56 2.56 1.63 1.629 1.628-1.63h3.258ZM37.246 17.286l3.723-6.516-3.258-6.283c-1.252-1.941 1.397-3.723 2.56-1.163l2.327 4.189 2.793-4.422c.93-1.861 3.49-.698 2.327 1.396l-3.49 6.283 3.955 6.516c1.164 2.327-1.163 3.258-2.327 1.396l-3.258-5.12-3.025 5.12c-1.396 1.862-3.258.233-2.327-1.396ZM63.542 14.028l-11.17.233c-.162 2.794 4.188 3.956 7.446 1.629 1.164-.93 3.49.349 2.095 2.094-.931 1.164-2.327 2.095-4.422 2.327h-2.094c-4.887 0-6.516-5.12-6.05-8.144.465-3.026 3.49-5.818 6.748-5.818h1.862c4.188.233 5.817 5.352 5.585 7.68ZM67.498 7.745c2.327-2.506 6.98-2.327 9.308 0V6.582h3.025v14.195c0 3.49-3.025 5.817-7.447 5.817-1.629 0-2.56-3.025 0-3.025h1.397c1.861-.465 3.257-2.56 3.025-5.12-1.862 1.862-6.643 1.862-8.843 0-3.025-2.56-3.49-7.446-.465-10.704ZM83.554 7.745c2.327-2.506 6.981-2.327 9.308 0V6.582h3.025v14.195c0 3.49-3.025 5.817-7.446 5.817-1.629 0-2.56-3.025 0-3.025h1.396c1.862-.465 3.258-2.56 3.025-5.12-1.861 1.862-6.642 1.862-8.842 0-3.026-2.56-3.491-7.446-.466-10.704ZM111.711 14.028l-11.169.233c-.162 2.794 4.188 3.956 7.446 1.629 1.164-.93 3.491.349 2.094 2.094-.93 1.164-2.327 2.095-4.421 2.327h-2.094c-4.887 0-6.516-5.12-6.05-8.144.465-3.026 3.49-5.818 6.748-5.818h1.861c4.189.233 5.818 5.352 5.585 7.68ZM112.642 17.286l3.723-6.516-3.257-6.283c-1.253-1.941 1.396-3.723 2.559-1.163l2.327 4.189 2.793-4.422c.931-1.861 3.49-.698 2.327 1.396l-3.491 6.283 3.956 6.516c1.164 2.327-1.163 3.258-2.327 1.396l-3.258-5.12-3.025 5.12c-1.396 1.862-3.258.233-2.327-1.396Z"/><path fill="#191919" d="M52.373 11.934c1.396-3.723 6.98-3.723 8.377 0h-8.377ZM72.618 8.909c-6.05 0-5.818 8.144 0 8.144 5.817 0 5.12-8.144 0-8.144ZM88.674 8.909c-6.05 0-5.817 8.144 0 8.144 5.818 0 5.12-8.144 0-8.144ZM100.542 11.934c1.396-3.723 6.981-3.723 8.378 0h-8.378Z"/></svg>