<svg xmlns="http://www.w3.org/2000/svg" width="81" height="100" fill="none"><path stroke="#fff" stroke-width="2" d="M1 99c0-4.869.668-9.29 1.88-13.264M80 99c0-2.975-.25-5.783-.72-8.424m-76.4-4.84c5.282-.195 8.14.775 10.066 4.55 1.467 2.283 2.734 3.14 6.455 3.291 4.143.169 6.262 2.033 7.226 5.423M2.88 85.736c5.125-16.79 19.983-25.588 35.307-26.39m0 0c-7.611 10.224-5.492 14.87 1.734 16.613 4.528 1.092 5.78 4.743 3.95 8.906-2.937 6.68 0 11.52 6.937 7.163 4.267-2.779 6.665-3.738 10.983-1.161 2.057 1.35 3.689 1.407 7.803-.29 3.18-1.313 5.877-.969 9.685 0M38.188 59.344a44.166 44.166 0 0 1 2.408-.06M79.28 90.576c-3.712-20.823-21.185-31.253-38.684-31.291m0 0v-7.666m0-22.998c8.524.601 16.475-4.937 15.608-15.392-5.45 0-9.115 1.595-11.523 4.163m-4.085 11.23C29.613 25.33 27.11 13.228 33.082 2c6.647 3.291 9.614 6.752 11.6 15.392m-4.086 11.23c.301-4.373 1.427-8.395 4.085-11.23m-4.085 11.23v15.331m0 0-6.936-6.91m6.936 6.91v7.666M33.66 37.043c0-6.002-3.64-11.005-10.309-10.164-.578 5.905 2.89 11.326 10.309 10.164Zm6.936 14.576 3.469-3.695m7.033-7.492c.42-5.972 3.757-10.455 11.079-10.455.963 6.485-4.72 11.616-11.08 10.454Zm0 0-7.033 7.492m0 0c5.106-3.971 9.923-3.971 13.97.736-3.566 5.808-13.097 3.714-13.97-.736Z"/></svg>