<svg width="514" height="376" fill="none" xmlns="http://www.w3.org/2000/svg"><g opacity=".2"><path d="M4.939 151.172v64.023c0 6.303 1.575 9.453 11.03 3.152l81.151-48.848c2.364-1.576 2.56-3.387 2.364-7.879V95.233c0-4.73-1.576-7.093-6.303-4.728l-83.515 52c-4.727 3.15-4.727 4.727-4.727 8.667Z" fill="#0F0E0E" stroke="#fff" stroke-width=".5"/><path d="m4.94 141.007 80.363-48.85c11.818-8.665 13.367-1.713 14.162 2.266-1.641-4.404-3.466-4.643-7.86-2.266L7.303 144.946c-2.364 1.576-2.55 4.083-2.364 7.091v53.701c-.337 10.411.03 14.169 1.268 15.32.35.141.716.286 1.096.438-.421-.025-.786-.15-1.096-.438C2.93 219.739 1 218.752 1 215.193v-63.944c-.011-5.276.788-8.667 3.94-10.242Z" fill="#161616"/><path d="M99.484 94.52a42.009 42.009 0 0 0-.02-.097m0 0c-.794-3.98-2.343-10.93-14.161-2.266l-80.364 48.85C1.788 142.582.99 145.973 1 151.249v63.944c0 3.939 2.364 4.727 6.303 6.303-2.105-.124-2.786-2.74-2.364-15.758v-53.701c-.186-3.008 0-5.515 2.364-7.091l84.303-52.789c4.393-2.377 6.218-2.138 7.859 2.266Z" stroke="#fff" stroke-width=".5"/><path d="M4 151.805c7.464-9.321 11.498-14.819 23.75-15.506 7.96-.958 12.12-2.733 18.125-11.785 6.875-8.684 11.49-11.99 23.75-11.784 11.572.421 18.125-11.155 29.375-21.699M4 158.004c7.464-9.321 11.498-14.819 23.75-15.506 7.96-.958 12.12-2.733 18.125-11.785 6.875-8.684 11.49-11.99 23.75-11.783 11.572.42 18.125-11.156 29.375-21.7M4 163.585c7.464-9.321 11.498-14.818 23.75-15.505 7.96-.958 12.12-2.733 18.125-11.785 6.875-8.684 11.49-11.99 23.75-11.784 11.572.421 18.125-11.155 29.375-21.699M4 169.787c7.464-9.321 11.498-14.818 23.75-15.505 7.96-.958 12.12-2.733 18.125-11.785 6.875-8.684 11.49-11.99 23.75-11.784 11.572.421 18.125-11.155 29.375-21.699M4 175.989c7.464-9.321 11.498-14.818 23.75-15.505 7.96-.958 12.12-2.733 18.125-11.785 6.875-8.684 11.49-11.99 23.75-11.784 11.572.421 18.125-11.155 29.375-21.699M4 182.815c7.464-9.321 11.498-14.819 23.75-15.505 7.96-.959 12.12-2.734 18.125-11.785 6.875-8.685 11.49-11.99 23.75-11.784 11.572.42 18.125-11.156 29.375-21.7M4 189.014c7.464-9.321 11.498-14.819 23.75-15.505 7.96-.959 12.12-2.734 18.125-11.785 6.875-8.685 11.49-11.99 23.75-11.784 11.572.42 18.125-11.156 29.375-21.699M4 194.596c7.464-9.321 11.498-14.819 23.75-15.505 7.96-.959 12.12-2.734 18.125-11.786 6.875-8.684 11.49-11.989 23.75-11.783 11.572.42 18.125-11.156 29.375-21.7M4 200.798c7.464-9.321 11.498-14.819 23.75-15.505 7.96-.959 12.12-2.734 18.125-11.786 6.875-8.684 11.49-11.989 23.75-11.783 11.572.42 18.125-11.156 29.375-21.7M4 207c7.464-9.321 11.498-14.819 23.75-15.505 7.96-.959 12.12-2.734 18.125-11.785 6.875-8.685 11.49-11.99 23.75-11.784 11.572.42 18.125-11.156 29.375-21.7M4 214.442c7.464-9.321 11.498-14.818 23.75-15.505 7.96-.959 12.12-2.733 18.125-11.785 6.875-8.685 11.49-11.99 23.75-11.784 11.572.42 18.125-11.156 29.375-21.699M5.25 220.031c7.464-9.321 10.248-14.198 22.5-14.885 7.96-.958 12.12-2.733 18.125-11.785 6.875-8.684 11.49-11.99 23.75-11.784 11.572.421 18.125-11.155 29.375-21.699" stroke="#fff" stroke-width=".5"/><path d="M31.44 162.355c-4.231 3.156-4.549 3.507-4.549 7.454v48.067c0 6.316 1.41 9.472 9.874 3.158l72.644-48.946c2.116-1.579 2.293-3.394 2.116-7.895v-43.42c0-4.738-1.41-7.107-5.642-4.736l-74.442 46.318Z" fill="#F73737" stroke="#fff" stroke-width=".5"/><path d="m26.892 161.734 71.939-44.911c10.579-8.683 11.966-1.717 12.677 2.27-1.469-4.413-3.103-4.652-7.035-2.27l-74.896 47.12c-2.116 1.579-2.852 4.095-2.685 7.109v37.349c-.302 10.432.027 14.197 1.135 15.35.313.142.64.287.98.439-.377-.025-.703-.15-.98-.439-2.934-1.322-4.662-2.31-4.662-5.877v-41.841c0-9.329 0-12.09 3.527-14.299Z" fill="#161616"/><path d="m111.526 119.191-.018-.098m0 0c-.711-3.987-2.098-10.953-12.677-2.27l-71.94 44.911c-3.526 2.209-3.526 4.97-3.526 14.299v41.841c0 3.948 2.116 4.737 5.643 6.316-1.884-.124-2.494-2.745-2.116-15.789v-37.349c-.167-3.014.57-5.53 2.685-7.109l74.896-47.12c3.932-2.382 5.566-2.143 7.035 2.27Z" stroke="#fff" stroke-width=".5"/><path d="M51.318 191.553v32.303c0 4.97 1.242 7.453 8.697 2.485L124 187.826c1.863-1.242 2.019-2.67 1.863-6.212v-34.167c0-3.728-1.242-5.592-4.969-3.727l-65.849 41c-3.727 2.484-3.727 3.727-3.727 6.833Z" fill="#0F0E0E" stroke="#fff" stroke-width=".5"/><path d="m51.318 182.855 63.364-38.516c9.318-6.832 10.539-1.352 11.166 1.786-1.294-3.473-2.733-3.661-6.197-1.786l-66.47 41.622c-1.863 1.242-2.01 3.219-1.863 5.591V216.4c-.266 8.209.024 11.172 1 12.079l.864.345c-.333-.019-.62-.118-.864-.345-2.585-1.04-4.106-1.818-4.106-4.624V190.93c-.009-4.159.621-6.833 3.106-8.075Z" fill="#161616"/><path d="m125.863 146.202-.015-.077m0 0c-.627-3.138-1.848-8.618-11.166-1.786l-63.364 38.516c-2.485 1.242-3.115 3.916-3.106 8.075v32.925c0 3.106 1.863 3.727 4.97 4.969-1.66-.097-2.197-2.16-1.864-12.424v-24.848c-.147-2.372 0-4.349 1.864-5.591l66.469-41.622c3.464-1.875 4.903-1.687 6.197 1.786Z" stroke="#fff" stroke-width=".5"/><path d="M74.609 193.767 69 196.975v7.056l5.609-3.849v-6.415ZM87.073 185.427l-5.61 3.208v7.057l5.61-3.849v-6.416ZM99.536 177.088l-5.609 3.207v7.057l5.61-3.849v-6.415ZM112 170.031l-5.609 3.208v7.056l5.609-3.849v-6.415Z" fill="#F73737"/><path d="M270 375.031c-8.063-4.975-6.823-10.572 0-14.925M74 198.419l13.646 9.328c2.755 1.642 3.721 3.731 3.721 6.219v8.706c0 4.975 2.481 7.462 6.203 9.95l34.734 21.221 10.108 6.176m-56.007-68.441 4.962 3.11m8.684 5.596c2.481 1.866 3.721 3.732 3.721 6.841v8.706c0 4.353 1.241 6.219 5.582 8.707l53.919 32.959M98.81 183.494l13.646 8.706c3.101 2.488 3.721 4.353 3.721 8.084v8.707c0 3.109.985 5.234 4.962 6.84l64.808 39.633m-75.352-79.433 13.645 8.085c3.435 2.606 4.342 4.975 4.342 7.462v9.95c0 3.109 1.241 4.975 5.583 7.463l75.96 46.473" stroke="#fff" stroke-width=".5"/></g><path d="M397.625 336.56c-9.296 4.869-16.822 5.312-26.118 0l-92.518-55.334c-3.541-3.541-3.976-8.407.001-10.624l92.517-54.891c8.853-5.312 16.821-4.869 26.118 0l87.648 50.907c10.624 5.755 7.525 11.952-1.771 18.15l-85.877 51.792Z" fill="#0F0E0E" stroke="#fff" stroke-width=".5"/><g filter="url(#a)"><path d="M487.93 268.389c6.01 5.804 4.561 9.331-3.541 15.936v12.837l7.082-3.984c1.961-1.759 2.283-2.968 2.214-5.312v-9.739c-.063-5.798-1.673-7.611-5.755-9.738Z" fill="#F73737"/></g><g filter="url(#b)"><path d="M302.009 294.505v12.838l-23.461-14.166c-2.214-1.77-2.656-3.541-2.656-6.64v-11.066c.885 2.213 2.213 4.869 3.541 5.312l22.576 13.722Z" fill="#F73737"/></g><g filter="url(#c)"><path d="M313.075 313.983v-12.395l7.083 4.427v12.394l-7.083-4.426Z" fill="#F73737"/></g><path d="m302.008 307.344 69.057 41.611m0 0V336.4m0 12.555c8.047 4.892 18.592 4.869 26.56 0m0 0 2.024-1.209m-2.024 1.209v-1.771m0-10.624v3.099m75.696-35.89 11.067-19.444v3.542m-11.067 15.902 3.099-1.85m-3.099 1.85-3.023 1.804m6.122-3.654 7.968-14.052m-7.968 14.052 3.098-1.85m4.87-12.202v3.098m0 0-4.87 9.104m4.87-9.104v3.099m-4.87 6.005 2.435-1.453m0 0 2.435-1.453v-3.099m-2.435 4.552 2.435-4.552m-14.09 11.509 10.548-19.034m-10.548 19.034-2.732 1.631m0 0 9.739-18.452m-9.739 18.452-3.541 2.114m0 0 8.853-17.91m-8.853 17.91-3.542 2.114m0 0 8.411-17.811m-8.411 17.811-3.098 1.85m0 0 7.525-17.447m-7.525 17.447-3.792 2.263m0 0 7.333-17.054m-7.333 17.054-4.059 2.423m0 0 7.408-17.264m-7.408 17.264-3.216 1.92m0 0 6.64-16.528m-6.64 16.528-3.099 1.849m0 0 6.315-16.606m-6.315 16.606-3.098 1.85m0 0 5.312-15.8m-5.312 15.8-3.194 1.906m0 0L441.891 310m-4.964 15.493-3.004 1.794m0 0 4.427-15.074m-4.427 15.074-2.656 1.585m0 0 3.542-14.445m-3.542 14.445-3.098 1.85m0 0 3.098-14.525m-3.098 14.525-3.848 2.297m0 0 3.848-15.051m-3.848 15.051-3.678 2.195m0 0 3.678-14.803m-3.678 14.803-3.738 2.231m0 0 3.738-14.608m-3.738 14.608-3.708 2.214m0 0c-.063-.354 2.577-9.887 3.905-14.608m-3.905 14.608-4.063 2.425m0 0 3.541-14.377m-3.541 14.377-3.352 2.001m0 0 3.795-14.608m-3.795 14.608-3.288 1.963m0 0 3.541-14.357m-3.541 14.357-2.845 1.698m0 0 3.288-14.285m-5.312 13.723 2.656-11.97m-2.656 11.97v-7.525m0 0 .885-3.542" stroke="#fff" stroke-width=".5"/><g filter="url(#d)"><path d="M401.254 298c15.196-7.175 18.994-18.994 13.085-26.592-8.087 15.006-16.359 18.052-33.345 20.261-23.216-1.689-32.924-15.618-35.456-31.235-2.423-9.917 1.349-12.539 7.175-17.728-3.307-3.168-4.872-5.078-6.753-8.864l-44.742 26.17c4.087 2.297 12.416 2.989 13.084 1.688 2.111 13.085 30.476 26.761 30.813 27.436 22.649 15.494 40.522 14.352 56.139 8.864Z" fill="#222"/></g><path d="M381.417 278.164c-35.035-1.689-45.587-23.638-27.859-34.612 3.94 2.607 6.522 3.929 12.241 5.909v8.02c0 10.974 33.345 11.819 33.345 0v-9.286c4.843-1.52 7.364-2.518 11.397-4.643 18.994 13.929 2.11 36.117-29.124 34.612Z" stroke="#fff" stroke-width=".5"/><path d="M345.958 260.857c5.488 39.677 63.737 43.898 72.179 0-10.553 26.592-66.691 18.995-72.179 0Z" stroke="#fff" stroke-width=".5"/><path d="M381.84 270.565c-2.533 0-2.533 3.377 0 3.377 2.532 0 2.532-3.377 0-3.377ZM392.392 269.299c-2.533 0-2.533 3.376 0 3.376 2.532 0 2.533-3.376 0-3.376ZM401.678 265.5c-2.533 0-2.533 3.376 0 3.376s2.533-3.376 0-3.376ZM408.009 260.435c-2.532 0-2.532 3.376 0 3.376 2.533 0 2.533-3.376 0-3.376ZM409.698 253.681c-2.533 0-2.533 3.377 0 3.377 2.532 0 2.532-3.377 0-3.377ZM408.009 247.35c-2.532 0-2.532 3.376 0 3.376 2.533 0 2.533-3.376 0-3.376ZM371.287 268.876c-2.533 0-2.533 3.377 0 3.377 2.532 0 2.532-3.377 0-3.377ZM362.422 265.078c-2.533 0-2.532 3.376 0 3.376 2.533 0 2.533-3.376 0-3.376ZM356.09 260.012c-2.533 0-2.533 3.377 0 3.377s2.533-3.377 0-3.377ZM353.979 253.681c-2.532 0-2.532 3.377 0 3.377 2.533 0 2.533-3.377 0-3.377ZM356.09 247.35c-2.533 0-2.533 3.376 0 3.376s2.533-3.376 0-3.376Z" fill="#fff"/><path d="M381.84 270.565c-2.533 0-2.533 3.377 0 3.377 2.532 0 2.532-3.377 0-3.377ZM392.392 269.299c-2.533 0-2.533 3.376 0 3.376 2.532 0 2.533-3.376 0-3.376ZM401.678 265.5c-2.533 0-2.533 3.376 0 3.376s2.533-3.376 0-3.376ZM408.009 260.435c-2.532 0-2.532 3.376 0 3.376 2.533 0 2.533-3.376 0-3.376ZM409.698 253.681c-2.533 0-2.533 3.377 0 3.377 2.532 0 2.532-3.377 0-3.377ZM408.009 247.35c-2.532 0-2.532 3.376 0 3.376 2.533 0 2.533-3.376 0-3.376ZM371.287 268.876c-2.533 0-2.533 3.377 0 3.377 2.532 0 2.532-3.377 0-3.377ZM362.422 265.078c-2.533 0-2.532 3.376 0 3.376 2.533 0 2.533-3.376 0-3.376ZM356.09 260.012c-2.533 0-2.533 3.377 0 3.377s2.533-3.377 0-3.377ZM353.979 253.681c-2.532 0-2.532 3.377 0 3.377 2.533 0 2.533-3.377 0-3.377ZM356.09 247.35c-2.533 0-2.533 3.376 0 3.376s2.533-3.376 0-3.376Z" stroke="#fff" stroke-width=".5"/><path d="m345.958 231.31 3.377-7.175c25.881 5.126 40.162 4.403 65.425 0l2.955 7.175c-1.689 24.482-68.38 27.014-71.757 0Z" stroke="#fff" stroke-width=".5"/><path d="m348.07 226.667 1.267-2.532c13.085 3.799 43.898 5.909 65.424 0-13.507 15.195-48.541 16.884-66.691 2.532Z" stroke="#fff" stroke-width=".5"/><path d="M356.09 214.51c-83.656-16.621-70.912-94.735 24.483-95.899 91.696 0 115.654 75.896 27.013 95.052-4.738-8.18-13.085-12.743-27.013-12.743-11.398 0-21.106 5.909-24.483 13.59Z" fill="#150F0F" stroke="#fff" stroke-width=".5"/><path d="M342.582 211.049c-5.487-38.409 83.152-34.61 79.354-1.267m-87.796-1.686c-23.636-52.759 117.766-58.247 95.816-1.266m-102.568-2.108c-54.029-82.734 162.928-75.559 109.744-1.267m-136.337-33.348c27.017 15.087 37.005 24.69 49.385 43.053m6.754-.422c-10.481-27.11-18.831-42.228-46.853-68.801m53.606 61.626c-4.988-30.495-10.651-47.665-29.547-78.51m30.391-7.598c7.781 34.329 11.346 53.193 8.442 82.309m27.014-81.887c-6.456 30.342-12.956 45.78-8.864 81.887m38.833-73.867c-13.867 28.643-26.092 41.405-29.124 78.088m52.339-61.626c-23.814 22.143-35.354 35.959-46.43 67.957m56.139-41.787c-20.261 7.175-43.054 31.657-48.964 41.787" stroke="#fff" stroke-width=".5"/><path d="M356.089 214.43c7.176-16.043 40.944-19.842 51.496-.844-19.552 3.565-30.877 3.446-51.496.844Z" fill="#F73737"/><path d="M380.994 227.934c-66.269-3.376-83.153-31.657-80.62-58.249 5.065 29.547 32.501 45.587 80.62 46.853 46.009.422 85.264-24.06 81.887-51.918 10.552 47.697-45.164 63.314-81.887 63.314Z" fill="#161616" stroke="#fff" stroke-width=".5"/><path d="M328.23 141.828c-31.234-1.268-3.688 35.259 20.261 34.612 20.683 0-.609-34.879-20.261-34.612ZM381.416 175.171c-15.196-3.377-16.462 28.281 0 36.722 11.396 5.844 17.305-31.656 0-36.722ZM417.716 151.949c-20.683-1.688-13.085 36.307 8.442 40.943 16.04 4.228 9.286-38.826-8.442-40.943ZM392.39 89.909c-20.26 5.065-28.281 45.586-10.131 43.053 23.216-4.643 30.814-48.963 10.131-43.053Z" fill="#161616" stroke="#fff" stroke-width=".5"/><path d="M389.857 96.24c-9.708 3.377-10.552 18.995-2.532 16.462 7.175-2.265 10.974-18.15 2.532-16.461ZM378.039 125.365c3.155-8.327 15.195-16.462 19.838-11.819-5.487 10.975-13.775 16.522-19.838 11.819Z" fill="#fff"/><path d="M381.838 92.437c8.863-6.327 12.663-4.638 17.306-2.53-7.599-2.109-16.413 3.689-21.95 13.087-2.803 5.072-3.663 8.054-4.643 13.507-1.115 7.425 0 10.974 2.533 14.351-11.268-9.063-3.377-30.391 6.754-38.415Z" fill="#161616" stroke="#fff" stroke-width=".5"/><path d="M382.259 181.504c-4.221 0-5.487 8.864 0 13.929 5.909 4.643 7.176-13.507 0-13.929ZM373.395 193.745c3.235-1.989 5.926-.187 8.02 2.954 1.125 1.689 3.799 7.176 2.955 10.131-4.643 1.266-10.553-6.754-10.975-13.085ZM415.605 161.243c-8.864-3.377-7.176 12.663 1.266 15.196 4.643 1.393 7.598-8.864-1.266-15.196Z" fill="#fff"/><path d="M427.423 165.886c-5.909.845-7.175 15.196-1.688 22.371 6.864-3.413 7.176-13.929 1.688-22.371ZM389.857 96.24c-9.708 3.377-10.553 18.995-2.533 16.462 7.176-2.265 10.975-18.15 2.533-16.461ZM378.038 125.365c3.156-8.327 15.196-16.462 19.839-11.819-5.488 10.975-13.775 16.522-19.839 11.819ZM328.231 165.464c2.144-4.23 16.462-4.643 22.371 2.533-4.221 7.597-14.351 5.487-22.371-2.533ZM330.341 146.892c-11.046 0-2.566 11.611 5.91 13.507 9.708.844 2.955-13.507-5.91-13.507Z" fill="#fff"/><path d="M306.245 51.45c-12.933 13.935 1.098 48.825 13.68 37.87 15.396-15.084-.846-52.661-13.68-37.87Z" fill="#161616" stroke="#fff" stroke-width=".5"/><path d="M307.461 57.538c-5.724 7.402 1.397 19.732 6.254 13.813 4.346-5.296-.655-19.298-6.254-13.813ZM312.929 85.625c-1.734-7.92 3.404-20.11 9.253-18.877 1.272 11.098-2.291 19.448-9.253 18.877Z" fill="#fff"/><path d="M299.455 58.624c3.613-9.232 7.351-9.833 11.94-10.533-6.844 2.17-10.683 10.973-10.233 20.893.385 5.261 1.211 7.963 3.175 12.609 2.841 6.217 5.456 8.37 9.067 9.685-13.1-1.31-17.686-21.498-13.949-32.654ZM206.469 9.502c-.652 16.377 28.102 31.353 30.196 17.123 1.621-18.51-30.088-34.006-30.196-17.123Z" fill="#161616" stroke="#fff" stroke-width=".5"/><path d="M210.68 12.806c.403 8.057 11.981 12.136 11.841 5.537-.124-5.904-11.252-12.268-11.841-5.537ZM230.012 28.13c-5.577-4.213-9.049-15.075-4.528-17.55 7.056 6.554 9.407 14.02 4.528 17.55Z" fill="#fff"/><path d="M206.047 18.007c-2.812-8.07-.701-10.56 1.91-13.593-3.264 5.258-.84 13.176 5.018 19.419 3.202 3.23 5.259 4.535 9.15 6.475 5.347 2.477 8.266 2.42 11.368 1.256-9.311 6.49-23.636-4.157-27.446-13.557ZM397.623 30.901c-6.543-19.832-47.545-24.845-43.683-6.93 6.342 22.81 51.101 27.122 43.683 6.93Z" fill="#161616" stroke="#fff" stroke-width=".5"/><path d="M391.122 28.843c-4.083-9.433-19.72-9.125-16.604-1.313 2.789 6.989 18.91 9.607 16.604 1.313ZM361.206 19.202c8.537 2.533 17.536 13.941 13.248 18.913-11.349-4.663-17.491-12.52-13.248-18.913Z" fill="#fff"/><path d="M394.325 20.565c6.963 8.372 5.557 12.287 3.797 17.072 1.544-7.733-4.887-16.097-14.667-20.926-5.265-2.421-8.303-3.06-13.813-3.635-7.487-.566-10.944.808-14.125 3.583 8.208-11.905 30.059-5.607 38.808 3.906ZM258.036 116.505c-5.287-16.025-38.418-20.076-35.297-5.601 5.124 18.432 41.291 21.916 35.297 5.601Z" fill="#161616" stroke="#fff" stroke-width=".5"/><path d="M252.783 114.842c-3.299-7.622-15.935-7.373-13.416-1.061 2.253 5.647 15.279 7.763 13.416 1.061ZM228.61 107.052c6.898 2.047 14.17 11.265 10.705 15.283-9.171-3.769-14.134-10.117-10.705-15.283Z" fill="#fff"/><path d="M255.371 108.153c5.626 6.765 4.491 9.928 3.068 13.795 1.248-6.249-3.949-13.007-11.852-16.909-4.254-1.957-6.708-2.472-11.16-2.938-6.051-.456-8.844.654-11.414 2.896 6.632-9.62 24.289-4.531 31.358 3.156ZM391.968 183.193c-2.811-5.917-5.065-6.754-10.552-8.02 4.278 1.58 6.055 3.346 8.442 7.598 1.044 2.379 1.507 3.951 2.11 7.175.701 6.572.236 8.481-.422 12.241-1.608 6.077-2.931 7.695-5.487 9.708 4.221-1.688 7.768-7.182 8.02-8.442 1.688-8.442.844-13.507-2.111-20.26ZM405.897 155.333c5.966-5.424 8.397-4.789 12.663-3.377-4.455-.247-6.73.094-9.708 2.956-1.902 1.827-4.451 6.183-2.955 14.351 1.609 6.804 3.107 10.035 6.754 14.773 4.243 4.851 7.158 6.859 13.508 8.864-5.91 0-11.82-.422-18.573-11.396-5.065-10.131-7.176-20.683-1.689-26.171Z" fill="#161616" stroke="#fff" stroke-width=".5"/><path d="M329.076 138.873c-6.545-.429-8.599 1.684-12.236 5.483 8.441-5.062 19.351-2.581 27.009 3.801 10.131 8.442 13.085 16.04 13.085 21.527 1.712-6.944.295-10.469-4.221-16.462-8.667-9.871-13.929-13.085-23.637-14.349Z" fill="#161616"/><path d="M316.835 144.36c3.64-3.801 5.693-5.916 12.241-5.487 9.708 1.264 14.97 4.478 23.637 14.349 4.516 5.993 5.933 9.518 4.221 16.462 0-5.487-2.954-13.085-13.085-21.527-7.659-6.383-18.572-8.864-27.014-3.799M369.176 249.882v12.663m2.954-12.24v13.929m-5.065-3.377V249.46m8.442 15.618v-14.351m3.377 15.195v-15.195m3.377 15.195v-15.195m2.954 15.195v-15.195m2.955 14.773v-15.195m3.377 14.351v-14.774m3.376 13.508v-14.352m2.955 11.819v-12.241" stroke="#fff" stroke-width=".5"/><defs><filter id="a" x="464.389" y="248.389" width="49.304" height="68.773" filterUnits="userSpaceOnUse" color-interpolation-filters="sRGB"><feFlood flood-opacity="0" result="BackgroundImageFix"/><feColorMatrix in="SourceAlpha" values="0 0 0 0 0 0 0 0 0 0 0 0 0 0 0 0 0 0 127 0" result="hardAlpha"/><feOffset/><feGaussianBlur stdDeviation="10"/><feComposite in2="hardAlpha" operator="out"/><feColorMatrix values="0 0 0 0 0.966667 0 0 0 0 0.2175 0 0 0 0 0.2175 0 0 0 1 0"/><feBlend in2="BackgroundImageFix" result="effect1_dropShadow_1113_97"/><feBlend in="SourceGraphic" in2="effect1_dropShadow_1113_97" result="shape"/></filter><filter id="b" x="255.892" y="255.471" width="66.117" height="71.872" filterUnits="userSpaceOnUse" color-interpolation-filters="sRGB"><feFlood flood-opacity="0" result="BackgroundImageFix"/><feColorMatrix in="SourceAlpha" values="0 0 0 0 0 0 0 0 0 0 0 0 0 0 0 0 0 0 127 0" result="hardAlpha"/><feOffset/><feGaussianBlur stdDeviation="10"/><feComposite in2="hardAlpha" operator="out"/><feColorMatrix values="0 0 0 0 0.966667 0 0 0 0 0.2175 0 0 0 0 0.2175 0 0 0 1 0"/><feBlend in2="BackgroundImageFix" result="effect1_dropShadow_1113_97"/><feBlend in="SourceGraphic" in2="effect1_dropShadow_1113_97" result="shape"/></filter><filter id="c" x="293.075" y="281.588" width="47.083" height="56.821" filterUnits="userSpaceOnUse" color-interpolation-filters="sRGB"><feFlood flood-opacity="0" result="BackgroundImageFix"/><feColorMatrix in="SourceAlpha" values="0 0 0 0 0 0 0 0 0 0 0 0 0 0 0 0 0 0 127 0" result="hardAlpha"/><feOffset/><feGaussianBlur stdDeviation="10"/><feComposite in2="hardAlpha" operator="out"/><feColorMatrix values="0 0 0 0 0.966667 0 0 0 0 0.2175 0 0 0 0 0.2175 0 0 0 1 0"/><feBlend in2="BackgroundImageFix" result="effect1_dropShadow_1113_97"/><feBlend in="SourceGraphic" in2="effect1_dropShadow_1113_97" result="shape"/></filter><filter id="d" x="291.218" y="223.842" width="135.773" height="87.871" filterUnits="userSpaceOnUse" color-interpolation-filters="sRGB"><feFlood flood-opacity="0" result="BackgroundImageFix"/><feBlend in="SourceGraphic" in2="BackgroundImageFix" result="shape"/><feGaussianBlur stdDeviation="5" result="effect1_foregroundBlur_1113_97"/></filter></defs></svg>