<svg xmlns="http://www.w3.org/2000/svg" width="507" height="494" fill="none"><g stroke="#505050" opacity=".4"><circle cx="253.5" cy="246.987" r="246.487"/><path d="M332.206 246.987c0 68.166-8.862 129.859-23.175 174.493-7.158 22.32-15.671 40.347-25.099 52.782-9.435 12.444-19.724 19.212-30.432 19.212s-20.998-6.768-30.433-19.212c-9.428-12.435-17.941-30.462-25.098-52.782-14.314-44.634-23.176-106.327-23.176-174.493s8.862-129.859 23.176-174.493c7.157-22.32 15.67-40.346 25.098-52.782C232.502 7.268 242.791.5 253.5.5s20.997 6.768 30.432 19.212c9.428 12.436 17.941 30.462 25.099 52.782 14.313 44.635 23.175 106.328 23.175 174.493z"/><path d="M253.499 325.693c-68.166 0-129.859-8.861-174.493-23.175-22.32-7.158-40.346-15.67-52.782-25.099-12.444-9.435-19.212-19.723-19.212-30.432s6.768-20.998 19.212-30.432c12.436-9.429 30.462-17.941 52.782-25.099 44.634-14.314 106.327-23.175 174.493-23.175s129.86 8.861 174.494 23.175c22.32 7.158 40.346 15.67 52.782 25.099 12.443 9.434 19.211 19.723 19.211 30.432s-6.768 20.997-19.211 30.432c-12.436 9.429-30.462 17.941-52.782 25.099-44.634 14.314-106.327 23.175-174.494 23.175z"/><path d="M197.846 191.333c48.201-48.201 98.09-85.558 139.773-106.998 20.844-10.721 39.609-17.449 55.07-19.575 15.47-2.128 27.531.362 35.103 7.934s10.062 19.633 7.934 35.104c-2.126 15.46-8.853 34.226-19.574 55.07-21.44 41.682-58.798 91.572-106.999 139.772s-98.09 85.559-139.772 106.999c-20.844 10.721-39.61 17.448-55.07 19.575-15.471 2.127-27.532-.362-35.104-7.935s-10.062-19.633-7.934-35.103c2.126-15.46 8.854-34.226 19.575-55.07 21.44-41.683 58.797-91.572 106.998-139.773z"/><path d="M292.853 178.825c59.034 34.083 108.031 72.604 139.528 107.317 15.751 17.359 27.106 33.744 33.161 48.127 6.059 14.393 6.776 26.687 1.422 35.961s-16.36 14.801-31.854 16.75c-15.484 1.947-35.351.306-58.26-4.655-45.811-9.921-103.669-33.094-162.703-67.177S106.116 242.545 74.619 207.831c-15.751-17.358-27.106-33.744-33.161-48.127-6.059-14.392-6.776-26.687-1.422-35.961s16.36-14.8 31.854-16.749c15.484-1.948 35.351-.306 58.26 4.655 45.811 9.921 103.669 33.093 162.703 67.176z"/></g><path fill="#fff" d="M285.9 196.057c-9.114-5.661-17.088-8.302-29.239-9.057-11.392 10.566-11.012 32.075 0 41.887 4.557-18.113 15.189-27.925 29.239-32.83zm13.29 10.188c-17.088-.754-30.378 14.717-30.378 29.812 14.05-9.434 30.378-9.812 44.049-2.264-2.279-12.076-6.589-18.442-13.671-27.548zM314 249.264c-10.632-11.32-31.517-10.188-41.77.378 16.743 4.041 25.822 11.698 33.416 28.679 5.798-9.511 8.354-16.604 8.354-29.057zm-18.986 42.265c-1.139-18.114-13.499-28.769-29.999-29.812 8.54 14.843 10.253 28.679 2.658 43.774 11.337-3.085 17.847-6.038 27.341-13.962zm-43.669 15.472c11.012-10.944 11.772-28.68 0-41.887-4.557 18.49-14.43 27.924-29.239 33.207 10.199 6.184 16.821 7.58 29.239 8.68zm-41.77-19.246c17.739-1.647 29.239-13.208 29.239-30.189-11.013 8.679-29.619 9.811-44.049 3.396 4.03 11.723 7.234 17.853 14.81 26.793zm-15.569-43.396c9.493 10.188 29.239 11.698 41.77 0-17.847-4.151-28.301-14.604-33.036-28.302-5.316 7.924-8.904 18.872-8.734 28.302zm18.987-41.51c2.658 18.113 12.531 27.924 29.999 29.434-8.817-14.489-9.494-28.302-3.038-43.774-12.531 3.019-19.158 7.179-26.961 14.34z"/></svg>