<svg width="51" height="52" fill="none" xmlns="http://www.w3.org/2000/svg"><path opacity=".2" d="M6.976 44.206C2.047 39.343-.417 33.263-.417 25.967c0-7.295 2.464-13.352 7.393-18.17C11.95 2.934 18.27.502 25.936.502c8.626 0 15.242 3.051 19.852 9.154a24.82 24.82 0 0 1 4.449 9.085h-10.61c-.593-1.56-1.506-2.983-2.738-4.267-2.875-2.891-6.526-4.336-10.952-4.336-4.473 0-8.169 1.49-11.09 4.473-2.874 2.937-4.312 6.722-4.312 11.357 0 4.817 1.392 8.672 4.176 11.562 2.829 2.845 6.571 4.267 11.226 4.267 4.654 0 8.396-1.606 11.226-4.817 1.277-1.514 2.213-3.12 2.806-4.818h10.61c-1.05 3.625-2.624 6.837-4.723 9.636-4.929 6.423-11.568 9.635-19.92 9.635-7.666 0-13.986-2.409-18.96-7.227Z" fill="#fff"/></svg>