<svg width="469" height="331" fill="none" xmlns="http://www.w3.org/2000/svg"><g opacity=".2"><path d="M4.485 132.498v56.646c0 5.576 1.394 8.363 9.759 2.788l71.799-43.219c2.091-1.394 2.266-2.996 2.091-6.971V83.006c0-4.184-1.394-6.276-5.576-4.183L8.668 124.83c-4.183 2.787-4.183 4.183-4.183 7.668Z" fill="#0F0E0E" stroke="#fff" stroke-width=".5"/><path d="m4.486 123.505 71.102-43.22c10.456-7.667 11.826-1.517 12.53 2.005-1.452-3.897-3.067-4.108-6.954-2.005L6.577 126.99c-2.092 1.394-2.256 3.613-2.092 6.274v47.513c-.298 9.211.027 12.536 1.122 13.554.31.125.633.253.97.387-.373-.022-.696-.132-.97-.387-2.9-1.168-4.607-2.04-4.607-5.19v-56.574c-.01-4.668.697-7.668 3.486-9.062Z" fill="#161616"/><path d="m88.135 82.376-.017-.086m0 0c-.704-3.522-2.074-9.672-12.53-2.005l-71.102 43.22C1.697 124.899.99 127.899 1 132.567v56.574c0 3.486 2.091 4.183 5.577 5.577-1.862-.109-2.465-2.424-2.092-13.941v-47.513c-.164-2.661 0-4.88 2.092-6.274l74.587-46.705c3.887-2.103 5.502-1.892 6.954 2.005Z" stroke="#fff" stroke-width=".5"/><path d="M3.654 133.059c6.604-8.247 10.172-13.111 21.013-13.719 7.042-.848 10.724-2.418 16.036-10.427 6.083-7.683 10.167-10.608 21.013-10.425 10.239.371 16.037-9.87 25.99-19.199M3.654 138.543c6.604-8.246 10.172-13.11 21.013-13.718 7.042-.848 10.724-2.418 16.036-10.427 6.083-7.684 10.167-10.608 21.013-10.426 10.239.372 16.037-9.87 25.99-19.198M3.654 143.482c6.604-8.247 10.172-13.111 21.013-13.718 7.042-.848 10.724-2.419 16.036-10.427 6.083-7.684 10.167-10.608 21.013-10.426 10.239.372 16.037-9.87 25.99-19.199M3.654 148.97c6.604-8.247 10.172-13.11 21.013-13.718 7.042-.848 10.724-2.418 16.036-10.427 6.083-7.684 10.167-10.608 21.013-10.426 10.239.372 16.037-9.87 25.99-19.198M3.654 154.457c6.604-8.247 10.172-13.111 21.013-13.719 7.042-.848 10.724-2.418 16.036-10.427 6.083-7.683 10.167-10.608 21.013-10.426 10.239.372 16.037-9.87 25.99-19.198M3.654 160.495c6.604-8.247 10.172-13.11 21.013-13.718 7.042-.848 10.724-2.418 16.036-10.427 6.083-7.684 10.167-10.608 21.013-10.426 10.239.372 16.037-9.87 25.99-19.198M3.654 165.98c6.604-8.247 10.172-13.111 21.013-13.718 7.042-.848 10.724-2.419 16.036-10.427 6.083-7.684 10.167-10.608 21.013-10.426 10.239.372 16.037-9.87 25.99-19.199M3.654 170.919c6.604-8.247 10.172-13.111 21.013-13.719 7.042-.848 10.724-2.418 16.036-10.427 6.083-7.683 10.167-10.608 21.013-10.426 10.239.372 16.037-9.87 25.99-19.198M3.654 176.406c6.604-8.247 10.172-13.111 21.013-13.718 7.042-.849 10.724-2.419 16.036-10.427 6.083-7.684 10.167-10.609 21.013-10.426 10.239.372 16.037-9.87 25.99-19.199M3.654 181.893c6.604-8.247 10.172-13.111 21.013-13.718 7.042-.848 10.724-2.419 16.036-10.427 6.083-7.684 10.167-10.608 21.013-10.426 10.239.372 16.037-9.87 25.99-19.199M3.654 188.478c6.604-8.247 10.172-13.111 21.013-13.718 7.042-.848 10.724-2.419 16.036-10.427 6.083-7.684 10.167-10.609 21.013-10.426 10.239.372 16.037-9.87 25.99-19.199M4.76 193.423c6.604-8.247 9.066-12.562 19.907-13.17 7.042-.848 10.724-2.418 16.036-10.427 6.083-7.683 10.167-10.608 21.013-10.425 10.239.371 16.037-9.871 25.99-19.199" stroke="#fff" stroke-width=".5"/><path d="M27.933 142.392c-3.744 2.793-4.025 3.103-4.025 6.596v42.527c0 5.588 1.248 8.38 8.736 2.794l64.272-43.305c1.872-1.397 2.029-3.003 1.872-6.985v-38.416c0-4.193-1.248-6.288-4.992-4.191l-65.863 40.98Z" fill="#F73737" stroke="#fff" stroke-width=".5"/><path d="m23.908 141.842 63.648-39.736c9.36-7.681 10.588-1.519 11.217 2.01-1.3-3.905-2.745-4.117-6.225-2.01l-66.264 41.691c-1.872 1.397-2.523 3.623-2.376 6.289v33.045c-.267 9.23.024 12.561 1.004 13.582.277.125.567.253.868.388a1.257 1.257 0 0 1-.868-.388c-2.596-1.17-4.124-2.045-4.124-5.2v-37.02c0-8.254 0-10.696 3.12-12.651Z" fill="#161616"/><path d="m98.788 104.202-.015-.086m0 0c-.63-3.529-1.857-9.691-11.217-2.01l-63.648 39.736c-3.12 1.955-3.12 4.397-3.12 12.651v37.02c0 3.492 1.872 4.191 4.992 5.588-1.667-.11-2.206-2.429-1.872-13.97v-33.045c-.147-2.666.504-4.892 2.376-6.289l66.264-41.691c3.48-2.107 4.925-1.895 6.225 2.01Z" stroke="#fff" stroke-width=".5"/><path d="M45.52 168.227v28.581c0 4.397 1.099 6.594 7.694 2.198l56.611-34.077c1.649-1.099 1.787-2.362 1.649-5.496v-30.229c0-3.299-1.099-4.948-4.397-3.298l-58.26 36.275c-3.297 2.198-3.297 3.298-3.297 6.046Z" fill="#0F0E0E" stroke="#fff" stroke-width=".5"/><path d="m45.52 160.531 56.061-34.078c8.244-6.045 9.325-1.195 9.879 1.581-1.144-3.073-2.418-3.239-5.482-1.581l-58.81 36.826c-1.649 1.099-1.778 2.848-1.649 4.946v21.985c-.235 7.263.022 9.884.885 10.687.244.099.499.2.764.306-.294-.018-.548-.105-.764-.306-2.287-.92-3.633-1.608-3.633-4.091v-29.13c-.008-3.681.55-6.046 2.748-7.145Z" fill="#161616"/><path d="m111.474 128.102-.014-.068m0 0c-.554-2.776-1.635-7.626-9.879-1.581l-56.062 34.078c-2.198 1.099-2.756 3.464-2.748 7.145v29.13c0 2.748 1.65 3.297 4.397 4.397-1.468-.087-1.943-1.912-1.649-10.993v-21.985c-.13-2.098 0-3.847 1.65-4.946l58.809-36.826c3.064-1.658 4.338-1.492 5.482 1.581Z" stroke="#fff" stroke-width=".5"/><path d="m66.126 170.185-4.962 2.838v6.243l4.962-3.405v-5.676ZM77.153 162.807l-4.962 2.837v6.244l4.962-3.406v-5.675ZM88.18 155.428l-4.962 2.838v6.243l4.963-3.405v-5.676ZM99.208 149.185l-4.962 2.837v6.244l4.962-3.406v-5.675Z" fill="#F73737"/><path d="M239 330.56c-7.134-4.402-6.036-9.353 0-13.205M65.587 174.301l12.073 8.253c2.439 1.453 3.293 3.301 3.293 5.502v7.703c0 4.402 2.195 6.602 5.488 8.803l30.731 18.776 8.943 5.464m-49.552-60.554 4.39 2.751m7.683 4.952c2.195 1.651 3.293 3.302 3.293 6.053v7.703c0 3.851 1.097 5.502 4.939 7.702l47.704 29.162m-57.034-65.475 12.073 7.703c2.744 2.2 3.293 3.851 3.293 7.152v7.703c0 2.751.871 4.632 4.39 6.053l57.339 35.065m-66.668-70.279 12.073 7.153c3.038 2.306 3.842 4.402 3.842 6.602v8.804c0 2.751 1.097 4.401 4.938 6.602l67.207 41.118" stroke="#fff" stroke-width=".5"/></g><path d="M368.859 280.758c-7.755 4.062-14.032 4.432-21.787 0l-77.179-46.159c-2.954-2.954-3.317-7.013 0-8.863l77.179-45.79c7.385-4.431 14.032-4.062 21.787 0l73.117 42.467c8.862 4.801 6.277 9.97-1.477 15.14l-71.64 43.205Z" fill="#0F0E0E" stroke="#fff" stroke-width=".5"/><g filter="url(#a)"><path d="M444.192 223.89c5.014 4.842 3.805 7.784-2.954 13.294v10.709l5.909-3.324c1.635-1.468 1.904-2.476 1.846-4.431v-8.124c-.052-4.837-1.395-6.349-4.801-8.124Z" fill="#F73737"/></g><g filter="url(#b)"><path d="M289.096 245.677v10.709l-19.571-11.817c-1.847-1.477-2.216-2.954-2.216-5.539v-9.232c.739 1.846 1.846 4.062 2.954 4.431l18.833 11.448Z" fill="#F73737"/></g><g filter="url(#c)"><path d="M298.328 261.925v-10.34l5.908 3.693v10.339l-5.908-3.692Z" fill="#F73737"/></g><path d="m289.096 256.386 57.607 34.712m0 0v-10.474m0 10.474c6.713 4.081 15.509 4.062 22.156 0m0 0 1.689-1.008m-1.689 1.008v-1.477m0-8.863v2.585m63.146-29.94 9.232-16.219v2.954m-9.232 13.265 2.585-1.543m-2.585 1.543-2.521 1.506m5.106-3.049 6.647-11.722m-6.647 11.722 2.585-1.543m4.062-10.179v2.585m0 0-4.062 7.594m4.062-7.594v2.585m-4.062 5.009 2.031-1.212m0 0 2.031-1.212v-2.585m-2.031 3.797 2.031-3.797m-11.753 9.601 8.799-15.879m-8.799 15.879-2.279 1.36m0 0 8.124-15.393m-8.124 15.393-2.954 1.764m0 0 7.385-14.941m-7.385 14.941-2.955 1.763m0 0 7.017-14.858m-7.017 14.858-2.585 1.543m0 0 6.278-14.554m-6.278 14.554-3.163 1.888m0 0L421.666 249m-6.118 14.227-3.386 2.022m0 0 6.18-14.402m-6.18 14.402-2.682 1.601m0 0 5.539-13.788m-5.539 13.788-2.585 1.543m0 0 5.267-13.853m-5.267 13.853-2.585 1.543m0 0 4.431-13.181m-4.431 13.181-2.664 1.59m0 0 4.141-12.924m-4.141 12.924-2.506 1.496m0 0 3.693-12.574m-3.693 12.574-2.216 1.323m0 0 2.954-12.051m-2.954 12.051-2.585 1.543m0 0 2.585-12.117m-2.585 12.117-3.21 1.916m0 0 3.21-12.555m-3.21 12.555-3.067 1.831m0 0 3.067-12.348m-3.067 12.348-3.119 1.862m0 0 3.119-12.186m-3.119 12.186-3.093 1.846m0 0c-.053-.295 2.15-8.247 3.257-12.186m-3.257 12.186-3.39 2.024m0 0 2.955-11.994m-2.955 11.994-2.796 1.669m0 0 3.166-12.186m-3.166 12.186-2.743 1.637m0 0 2.954-11.977m-2.954 11.977-2.373 1.417m0 0 2.743-11.917m-4.432 11.448 2.216-9.986m-2.216 9.986v-6.278m0 0 .739-2.954" stroke="#fff" stroke-width=".5"/><g filter="url(#d)"><path d="M371.887 248.592c12.676-5.986 15.845-15.846 10.916-22.184-6.747 12.518-13.647 15.059-27.817 16.902-19.367-1.409-27.465-13.028-29.578-26.057-2.021-8.272 1.125-10.46 5.986-14.788-2.759-2.643-4.064-4.236-5.634-7.395l-37.324 21.831c3.41 1.916 10.358 2.494 10.916 1.409 1.76 10.915 25.422 22.324 25.704 22.887 18.893 12.925 33.803 11.972 46.831 7.395Z" fill="#222"/></g><path d="M355.339 232.043c-29.226-1.408-38.029-19.718-23.24-28.873 3.287 2.175 5.44 3.278 10.211 4.93v6.69c0 9.155 27.817 9.859 27.817 0v-7.747c4.04-1.268 6.142-2.1 9.507-3.873 15.845 11.62 1.761 30.129-24.295 28.873Z" stroke="#fff" stroke-width=".5"/><path d="M325.759 217.607c4.578 33.099 53.169 36.62 60.212 0-8.803 22.184-55.634 15.846-60.212 0Z" stroke="#fff" stroke-width=".5"/><path d="M355.691 225.704c-2.112 0-2.112 2.817 0 2.817 2.113 0 2.113-2.817 0-2.817ZM364.494 224.648c-2.113 0-2.113 2.817 0 2.817s2.113-2.817 0-2.817ZM372.241 221.479c-2.113 0-2.113 2.817 0 2.817 2.112 0 2.112-2.817 0-2.817ZM377.522 217.253c-2.112 0-2.112 2.817 0 2.817 2.113 0 2.113-2.817 0-2.817ZM378.931 211.62c-2.113 0-2.113 2.817 0 2.817s2.113-2.817 0-2.817ZM377.522 206.338c-2.112 0-2.112 2.817 0 2.817 2.113 0 2.113-2.817 0-2.817ZM346.888 224.296c-2.113 0-2.113 2.817 0 2.817s2.113-2.817 0-2.817ZM339.493 221.127c-2.113 0-2.112 2.817 0 2.817 2.113 0 2.113-2.817 0-2.817ZM334.211 216.901c-2.113 0-2.113 2.817 0 2.817s2.113-2.817 0-2.817ZM332.45 211.62c-2.113 0-2.112 2.817 0 2.817 2.113 0 2.113-2.817 0-2.817ZM334.211 206.338c-2.113 0-2.113 2.817 0 2.817s2.113-2.817 0-2.817Z" fill="#fff"/><path d="M355.691 225.704c-2.112 0-2.112 2.817 0 2.817 2.113 0 2.113-2.817 0-2.817ZM364.494 224.648c-2.113 0-2.113 2.817 0 2.817s2.113-2.817 0-2.817ZM372.241 221.479c-2.113 0-2.113 2.817 0 2.817 2.112 0 2.112-2.817 0-2.817ZM377.522 217.253c-2.112 0-2.112 2.817 0 2.817 2.113 0 2.113-2.817 0-2.817ZM378.931 211.62c-2.113 0-2.113 2.817 0 2.817s2.113-2.817 0-2.817ZM377.522 206.338c-2.112 0-2.112 2.817 0 2.817 2.113 0 2.113-2.817 0-2.817ZM346.888 224.296c-2.113 0-2.113 2.817 0 2.817s2.113-2.817 0-2.817ZM339.493 221.127c-2.113 0-2.112 2.817 0 2.817 2.113 0 2.113-2.817 0-2.817ZM334.211 216.901c-2.113 0-2.113 2.817 0 2.817s2.113-2.817 0-2.817ZM332.45 211.62c-2.113 0-2.112 2.817 0 2.817 2.113 0 2.113-2.817 0-2.817ZM334.211 206.338c-2.113 0-2.113 2.817 0 2.817s2.113-2.817 0-2.817Z" stroke="#fff" stroke-width=".5"/><path d="m325.759 192.959 2.817-5.986c21.59 4.276 33.503 3.673 54.578 0l2.465 5.986c-1.409 20.422-57.043 22.535-59.86 0Z" stroke="#fff" stroke-width=".5"/><path d="m327.521 189.085 1.056-2.112c10.916 3.169 36.62 4.929 54.578 0-11.268 12.676-40.493 14.084-55.634 2.112Z" stroke="#fff" stroke-width=".5"/><path d="M334.211 178.943c-69.786-13.865-59.155-79.028 20.424-79.999 76.493 0 96.479 63.313 22.534 79.293-3.953-6.824-10.916-10.63-22.534-10.63-9.508 0-17.607 4.929-20.424 11.336Z" fill="#150F0F" stroke="#fff" stroke-width=".5"/><path d="M322.943 176.057c-4.578-32.04 69.366-28.871 66.197-1.056m-73.24-1.407c-19.717-44.012 98.241-48.59 79.93-1.056m-85.563-1.759c-45.071-69.017 135.916-63.031 91.55-1.056m-113.733-27.82c22.538 12.586 30.869 20.597 41.197 35.916m5.634-.352c-8.743-22.616-15.709-35.228-39.085-57.395m44.719 51.409c-4.161-25.439-8.885-39.762-24.649-65.494m25.353-6.338c6.49 28.638 9.465 44.374 7.042 68.663m22.535-68.31c-5.385 25.311-10.808 38.189-7.394 68.31m32.395-61.62c-11.568 23.894-21.767 34.54-24.296 65.141m43.662-51.409c-19.866 18.472-29.493 29.997-38.733 56.69m46.831-34.859c-16.901 5.986-35.915 26.409-40.845 34.859" stroke="#fff" stroke-width=".5"/><path d="M334.21 178.877c5.986-13.383 34.155-16.552 42.958-.704-16.31 2.974-25.758 2.875-42.958.704Z" fill="#F73737"/><path d="M354.986 190.143c-55.282-2.817-69.366-26.408-67.254-48.591 4.226 24.647 27.113 38.028 67.254 39.084 38.381.352 71.127-20.07 68.31-43.31 8.803 39.789-37.676 52.817-68.31 52.817Z" fill="#161616" stroke="#fff" stroke-width=".5"/><path d="M310.97 118.312c-26.056-1.057-3.077 29.413 16.902 28.873 17.254.001-.508-29.096-16.902-28.873ZM355.338 146.127c-12.676-2.816-13.733 23.592 0 30.634 9.506 4.875 14.436-26.408 0-30.634ZM385.62 126.756c-17.254-1.409-10.916 30.287 7.042 34.155 13.38 3.526 7.747-32.39-7.042-34.155ZM364.492 75.001c-16.901 4.226-23.591 38.029-8.45 35.916 19.366-3.874 25.704-40.846 8.45-35.916Z" fill="#161616" stroke="#fff" stroke-width=".5"/><path d="M362.38 80.283c-8.099 2.817-8.803 15.846-2.113 13.733 5.986-1.89 9.155-15.141 2.113-13.733ZM352.521 104.579c2.632-6.947 12.676-13.732 16.549-9.86-4.578 9.156-11.491 13.783-16.549 9.86Z" fill="#fff"/><path d="M355.69 77.11c7.393-5.278 10.563-3.868 14.436-2.11-6.339-1.759-13.692 3.077-18.31 10.917-2.338 4.231-3.056 6.72-3.874 11.268-.93 6.194 0 9.155 2.114 11.971-9.401-7.56-2.818-25.352 5.634-32.045Z" fill="#161616" stroke="#fff" stroke-width=".5"/><path d="M356.041 151.41c-3.521 0-4.577 7.395 0 11.62 4.93 3.873 5.986-11.268 0-11.62ZM348.647 161.622c2.698-1.659 4.943-.156 6.69 2.464.939 1.409 3.169 5.986 2.465 8.451-3.874 1.057-8.803-5.634-9.155-10.915ZM383.858 134.509c-7.394-2.817-5.986 10.563 1.056 12.676 3.874 1.162 6.339-7.394-1.056-12.676Z" fill="#fff"/><path d="M393.717 138.382c-4.929.704-5.986 12.676-1.408 18.662 5.726-2.848 5.986-11.62 1.408-18.662ZM362.379 80.283c-8.098 2.817-8.803 15.845-2.113 13.733 5.986-1.89 9.155-15.141 2.113-13.733ZM352.52 104.579c2.632-6.947 12.676-13.732 16.549-9.86-4.577 9.156-11.491 13.783-16.549 9.86ZM310.971 138.03c1.788-3.529 13.732-3.873 18.662 2.113-3.522 6.338-11.972 4.577-18.662-2.113ZM312.731 122.537c-9.215 0-2.141 9.686 4.93 11.268 8.099.704 2.465-11.268-4.93-11.268Z" fill="#fff"/><path d="M292.63 42.918c-10.788 11.625.916 40.73 11.412 31.591 12.844-12.583-.705-43.93-11.412-31.591Z" fill="#161616" stroke="#fff" stroke-width=".5"/><path d="M293.645 47.996c-4.776 6.175 1.165 16.46 5.217 11.523 3.625-4.417-.547-16.099-5.217-11.523ZM298.206 71.427c-1.447-6.607 2.839-16.776 7.719-15.748 1.061 9.258-1.911 16.224-7.719 15.748Z" fill="#fff"/><path d="M286.966 48.903c3.014-7.701 6.132-8.203 9.96-8.787-5.709 1.81-8.912 9.154-8.536 17.429.321 4.39 1.01 6.643 2.648 10.519 2.371 5.186 4.552 6.981 7.564 8.079-10.928-1.092-14.754-17.934-11.636-27.24ZM209.396 7.926c-.544 13.662 23.443 26.155 25.19 14.285 1.352-15.442-25.099-28.368-25.19-14.285Z" fill="#161616" stroke="#fff" stroke-width=".5"/><path d="M212.909 10.682c.337 6.721 9.995 10.124 9.878 4.619-.104-4.926-9.386-10.234-9.878-4.62ZM229.036 23.465c-4.652-3.515-7.549-12.576-3.777-14.64 5.886 5.467 7.847 11.695 3.777 14.64Z" fill="#fff"/><path d="M209.044 15.02c-2.345-6.732-.585-8.809 1.594-11.339-2.723 4.387-.701 10.992 4.185 16.2 2.672 2.694 4.388 3.783 7.634 5.401 4.461 2.067 6.896 2.02 9.483 1.048-7.767 5.414-19.717-3.467-22.896-11.31ZM368.858 25.778c-5.458-16.544-39.662-20.726-36.44-5.782 5.29 19.028 42.628 22.626 36.44 5.782Z" fill="#161616" stroke="#fff" stroke-width=".5"/><path d="M363.435 24.06c-3.406-7.87-16.451-7.612-13.851-1.095 2.326 5.83 15.774 8.014 13.851 1.095ZM338.479 16.017c7.122 2.114 14.629 11.63 11.051 15.778-9.467-3.89-14.591-10.444-11.051-15.778Z" fill="#fff"/><path d="M366.107 17.154c5.808 6.985 4.636 10.25 3.167 14.242 1.288-6.45-4.077-13.428-12.235-17.456-4.392-2.02-6.926-2.553-11.523-3.033-6.246-.471-9.13.674-11.783 2.99 6.847-9.932 25.076-4.678 32.374 3.257ZM252.414 97.188c-4.411-13.368-32.049-16.747-29.445-4.672 4.274 15.376 34.445 18.283 29.445 4.672Z" fill="#161616" stroke="#fff" stroke-width=".5"/><path d="M248.032 95.8c-2.752-6.358-13.293-6.15-11.192-.884 1.879 4.71 12.746 6.476 11.192.885ZM227.866 89.302c5.755 1.708 11.821 9.397 8.93 12.749-7.65-3.144-11.79-8.44-8.93-12.749Z" fill="#fff"/><path d="M250.19 90.22c4.694 5.645 3.747 8.283 2.56 11.509 1.041-5.213-3.294-10.85-9.887-14.106-3.549-1.632-5.596-2.062-9.31-2.45-5.047-.381-7.378.544-9.522 2.415 5.533-8.025 20.262-3.78 26.159 2.633ZM364.141 152.819c-2.345-4.936-4.225-5.634-8.803-6.69 3.569 1.318 5.052 2.791 7.042 6.338.871 1.985 1.258 3.297 1.761 5.986.584 5.482.197 7.075-.352 10.211-1.342 5.069-2.445 6.419-4.578 8.099 3.522-1.409 6.48-5.992 6.691-7.042 1.408-7.043.704-11.268-1.761-16.902ZM375.761 129.577c4.976-4.524 7.004-3.995 10.563-2.817-3.717-.206-5.614.079-8.099 2.466-1.586 1.525-3.712 5.159-2.464 11.972 1.342 5.676 2.591 8.371 5.634 12.324 3.539 4.047 5.971 5.722 11.267 7.394-4.929 0-9.859-.352-15.493-9.507-4.225-8.45-5.986-17.253-1.408-21.832Z" fill="#161616" stroke="#fff" stroke-width=".5"/><path d="M311.676 115.847c-5.46-.357-7.174 1.405-10.208 4.574 7.042-4.222 16.143-2.152 22.532 3.171 8.451 7.043 10.915 13.381 10.915 17.958 1.429-5.793.246-8.733-3.521-13.732-7.23-8.235-11.619-10.916-19.718-11.971Z" fill="#161616"/><path d="M301.465 120.425c3.036-3.171 4.749-4.935 10.211-4.578 8.099 1.055 12.488 3.736 19.718 11.971 3.767 4.999 4.95 7.939 3.521 13.732 0-4.577-2.464-10.915-10.915-17.958-6.39-5.324-15.493-7.394-22.535-3.169M345.127 208.452v10.563m2.465-10.211v11.62m-4.226-2.817V208.1m7.043 13.028v-11.972m2.817 12.676v-12.676m2.817 12.676v-12.676m2.464 12.676v-12.676m2.465 12.324v-12.676m2.817 11.972v-12.324m2.817 11.267v-11.971m2.465 9.859v-10.211" stroke="#fff" stroke-width=".5"/><defs><filter id="a" x="421.238" y="203.89" width="47.762" height="64.003" filterUnits="userSpaceOnUse" color-interpolation-filters="sRGB"><feFlood flood-opacity="0" result="BackgroundImageFix"/><feColorMatrix in="SourceAlpha" values="0 0 0 0 0 0 0 0 0 0 0 0 0 0 0 0 0 0 127 0" result="hardAlpha"/><feOffset/><feGaussianBlur stdDeviation="10"/><feComposite in2="hardAlpha" operator="out"/><feColorMatrix values="0 0 0 0 0.966667 0 0 0 0 0.2175 0 0 0 0 0.2175 0 0 0 1 0"/><feBlend in2="BackgroundImageFix" result="effect1_dropShadow_1201_50"/><feBlend in="SourceGraphic" in2="effect1_dropShadow_1201_50" result="shape"/></filter><filter id="b" x="247.309" y="209.798" width="61.787" height="66.588" filterUnits="userSpaceOnUse" color-interpolation-filters="sRGB"><feFlood flood-opacity="0" result="BackgroundImageFix"/><feColorMatrix in="SourceAlpha" values="0 0 0 0 0 0 0 0 0 0 0 0 0 0 0 0 0 0 127 0" result="hardAlpha"/><feOffset/><feGaussianBlur stdDeviation="10"/><feComposite in2="hardAlpha" operator="out"/><feColorMatrix values="0 0 0 0 0.966667 0 0 0 0 0.2175 0 0 0 0 0.2175 0 0 0 1 0"/><feBlend in2="BackgroundImageFix" result="effect1_dropShadow_1201_50"/><feBlend in="SourceGraphic" in2="effect1_dropShadow_1201_50" result="shape"/></filter><filter id="c" x="278.328" y="231.585" width="45.908" height="54.032" filterUnits="userSpaceOnUse" color-interpolation-filters="sRGB"><feFlood flood-opacity="0" result="BackgroundImageFix"/><feColorMatrix in="SourceAlpha" values="0 0 0 0 0 0 0 0 0 0 0 0 0 0 0 0 0 0 127 0" result="hardAlpha"/><feOffset/><feGaussianBlur stdDeviation="10"/><feComposite in2="hardAlpha" operator="out"/><feColorMatrix values="0 0 0 0 0.966667 0 0 0 0 0.2175 0 0 0 0 0.2175 0 0 0 1 0"/><feBlend in2="BackgroundImageFix" result="effect1_dropShadow_1201_50"/><feBlend in="SourceGraphic" in2="effect1_dropShadow_1201_50" result="shape"/></filter><filter id="d" x="278.436" y="185.07" width="116.579" height="76.618" filterUnits="userSpaceOnUse" color-interpolation-filters="sRGB"><feFlood flood-opacity="0" result="BackgroundImageFix"/><feBlend in="SourceGraphic" in2="BackgroundImageFix" result="shape"/><feGaussianBlur stdDeviation="5" result="effect1_foregroundBlur_1201_50"/></filter></defs></svg>