<svg xmlns="http://www.w3.org/2000/svg" width="114" height="107" fill="none"><path stroke="#fff" stroke-width="2" d="M28.5 18.5H18c-2.5 0-4.5 1.5-4.5 5v6m15-11V5c0-2.5 1-4 4-4h49c2.5 0 4 1 4 4v13.5m-57 0h57m0 0h10c3.5 0 5 1.5 5 5V29m0 0h7c3.5 0 5.5 2 5.5 5.5v56c0 3.5-2.5 5.5-5.5 5.5h-7m0-67v67m0 0v4.5c0 3.5-1.5 5-5 5h-77c-2.5 0-5-1-5-4V96m0 0H6c-3 0-5-2-5-5V34.5c0-3 2-5 5-5h7.5m0 66.5V29.5m16 5L85 90m-55.5 0L85 34.5m-27.5-4c-43.986 1.114-42 63 0 63 43 0 39.5-64 0-63zm0 14.5c-25 0-22 34 0 34s22.5-34 0-34zm-5-38.5h9V13h-9V6.5zM68 5h4v3h-4V5zm0 6h4v3h-4v-3zM42 5h4v3h-4V5zm0 6h4v3h-4v-3z"/></svg>