<svg xmlns="http://www.w3.org/2000/svg" width="140" height="30" fill="none"><path fill="#fff" d="m11.129 0 5.299 7.154L5.829 20.403h3.975l1.59-2.385 2.12 2.12-2.12 2.915H.53L12.984 7.154l-3.445-4.24h-3.71l3.71 5.034-1.59 1.855L0 0h11.129zm12.453 2.915L12.984 16.163l5.299 6.889h11.129l-7.684-9.804-2.12 2.65 3.975 4.505h-3.71l-3.445-4.24L29.677 0H19.078l-2.915 2.915 1.855 1.855 1.855-1.855h3.71zm17.753 15.898 4.24-7.419-3.71-7.154C40.439 2.028 43.455 0 44.78 2.915l2.65 4.769 3.18-5.034c1.06-2.12 3.974-.795 2.65 1.59l-3.975 7.154 4.505 7.419c1.325 2.65-1.325 3.71-2.65 1.59l-3.71-5.829-3.445 5.829c-1.59 2.12-3.71.265-2.65-1.59zm29.942-3.71-12.718.265c-.184 3.181 4.769 4.504 8.479 1.855 1.325-1.06 3.974.398 2.385 2.385-1.06 1.325-2.65 2.385-5.034 2.65h-2.385c-5.564 0-7.419-5.829-6.889-9.274s3.974-6.624 7.684-6.624h2.12c4.769.265 6.624 6.094 6.359 8.744zm4.504-7.154c2.65-2.854 7.949-2.65 10.599 0V6.624h3.445v16.163c0 3.974-3.445 6.624-8.479 6.624-1.855 0-2.915-3.445 0-3.445h1.59c2.12-.53 3.709-2.915 3.445-5.829-2.12 2.12-7.564 2.12-10.069 0-3.445-2.915-3.975-8.479-.53-12.189zm18.283 0c2.65-2.854 7.949-2.65 10.599 0V6.624h3.445v16.163c0 3.974-3.445 6.624-8.48 6.624-1.855 0-2.915-3.445 0-3.445h1.59c2.12-.53 3.71-2.915 3.445-5.829-2.12 2.12-7.564 2.12-10.069 0-3.445-2.915-3.974-8.479-.53-12.189zm32.061 7.154-12.718.265c-.184 3.181 4.769 4.504 8.479 1.855 1.325-1.06 3.975.398 2.385 2.385-1.06 1.325-2.65 2.385-5.035 2.65h-2.384c-5.565 0-7.42-5.829-6.89-9.274s3.975-6.624 7.684-6.624h2.12c4.77.265 6.624 6.094 6.359 8.744zm1.06 3.71 4.24-7.419-3.71-7.154c-1.426-2.211 1.59-4.24 2.915-1.325l2.65 4.769 3.179-5.034c1.06-2.12 3.975-.795 2.65 1.59l-3.975 7.154 4.505 7.419c1.325 2.65-1.325 3.71-2.65 1.59l-3.709-5.829-3.445 5.829c-1.59 2.12-3.71.265-2.65-1.59z"/><path fill="#191919" d="M58.559 12.718c1.59-4.239 7.949-4.239 9.539 0h-9.539zm23.052-3.444c-6.889 0-6.624 9.274 0 9.274s5.829-9.274 0-9.274zm18.283 0c-6.889 0-6.624 9.274 0 9.274s5.829-9.274 0-9.274zm13.513 3.444c1.59-4.239 7.949-4.239 9.539 0h-9.539z"/></svg>