<svg width="82" height="81" fill="none" xmlns="http://www.w3.org/2000/svg"><path opacity=".2" d="M12.514 69.125c-7.8-7.667-11.7-17.252-11.7-28.753 0-11.5 3.9-21.05 11.7-28.644C20.386 4.06 30.388.227 42.52.227c13.649 0 24.12 4.81 31.415 14.43 3.321 4.268 5.669 9.042 7.04 14.323h-16.79c-.939-2.46-2.383-4.702-4.333-6.727-4.55-4.558-10.327-6.836-17.332-6.836-7.078 0-12.928 2.35-17.55 7.053-4.55 4.629-6.824 10.596-6.824 17.902 0 7.595 2.203 13.672 6.608 18.229 4.477 4.485 10.4 6.727 17.766 6.727 7.366 0 13.288-2.532 17.765-7.595 2.022-2.387 3.503-4.92 4.442-7.595h16.79c-1.66 5.714-4.152 10.778-7.474 15.19-7.8 10.127-18.307 15.19-31.523 15.19-12.133 0-22.135-3.797-30.007-11.393Z" fill="#fff"/></svg>