<svg width="67" height="77" fill="none" xmlns="http://www.w3.org/2000/svg"><path opacity=".2" d="M.696 76.348V.396h35.747c9.03 0 16.25 2.46 21.666 7.379 5.416 4.846 8.124 10.886 8.124 18.12 0 5.642-1.587 10.452-4.766 14.43-3.174 3.978-7.366 6.944-12.566 8.897l17.332 27.126H47.818L32.11 51.392H16.944v24.956H.696Zm16.248-40.146h18.958c4.479 0 7.837-.904 10.074-2.712 2.313-1.881 3.467-4.413 3.467-7.596 0-3.182-1.154-5.678-3.467-7.486-2.237-1.881-5.595-2.821-10.074-2.821H16.944v20.615Z" fill="#fff"/></svg>