<svg width="61" height="60" fill="none" xmlns="http://www.w3.org/2000/svg"><path opacity=".2" d="M9.405 51.439c-5.733-5.636-8.6-12.682-8.6-21.136 0-8.454 2.867-15.473 8.6-21.056C15.192 3.611 22.545.793 31.465.793c10.034 0 17.732 3.536 23.094 10.608a28.715 28.715 0 0 1 5.176 10.528H47.392c-.69-1.808-1.752-3.457-3.186-4.945-3.344-3.35-7.592-5.025-12.741-5.025-5.203 0-9.504 1.728-12.901 5.184-3.345 3.403-5.018 7.79-5.018 13.16 0 5.583 1.62 10.05 4.858 13.4 3.292 3.296 7.645 4.944 13.06 4.944 5.416 0 9.77-1.86 13.06-5.583 1.487-1.754 2.576-3.616 3.266-5.583h12.344c-1.222 4.2-3.053 7.923-5.495 11.166-5.734 7.444-13.459 11.166-23.174 11.166-8.92 0-16.273-2.791-22.06-8.374Z" fill="#fff"/></svg>