<svg width="97" height="97" fill="none" xmlns="http://www.w3.org/2000/svg"><path opacity=".2" d="M14.48 82.787C5.19 73.661.544 62.252.544 48.562c0-13.69 4.645-25.054 13.936-34.095C23.857 5.341 35.772.777 50.225.777c16.26 0 28.733 5.726 37.422 17.177 3.957 5.08 6.753 10.763 8.387 17.048h-20c-1.119-2.927-2.84-5.597-5.163-8.008-5.42-5.424-12.301-8.136-20.646-8.136-8.43 0-15.4 2.798-20.905 8.395-5.42 5.51-8.13 12.613-8.13 21.31 0 9.04 2.624 16.272 7.872 21.697 5.334 5.338 12.388 8.007 21.163 8.007s15.829-3.014 21.163-9.04c2.408-2.842 4.172-5.856 5.29-9.041H96.68c-1.98 6.802-4.947 12.83-8.904 18.081-9.291 12.054-21.808 18.08-37.551 18.08-14.453 0-26.368-4.52-35.745-13.56Z" fill="#fff"/></svg>