<svg xmlns="http://www.w3.org/2000/svg" width="91" height="19" fill="none"><path fill="#fff" d="m7.168 0 3.414 4.608-6.827 8.534h2.56l1.024-1.536 1.366 1.366-1.366 1.877H.341l8.022-10.24-2.219-2.732h-2.39l2.39 3.243L5.12 6.315 0 0h7.168Z"/><path fill="#fff" d="m15.19 1.877-6.827 8.534 3.414 4.438h7.168l-4.95-6.315-1.365 1.707 2.56 2.901H12.8l-2.218-2.73L19.116 0h-6.827L10.41 1.877l1.195 1.195 1.195-1.195h2.39ZM26.626 12.118l2.73-4.779-2.389-4.608c-.919-1.424 1.024-2.731 1.878-.854L30.55 4.95 32.6 1.707c.682-1.366 2.56-.512 1.706 1.024l-2.56 4.608 2.902 4.78c.853 1.706-.854 2.389-1.707 1.023l-2.39-3.755-2.218 3.755c-1.024 1.366-2.39.17-1.707-1.024ZM45.913 9.729l-8.193.17c-.119 2.05 3.072 2.902 5.462 1.195.853-.683 2.56.256 1.536 1.536-.683.854-1.707 1.536-3.243 1.707h-1.536c-3.584 0-4.78-3.755-4.438-5.974.342-2.219 2.56-4.267 4.95-4.267h1.365c3.072.171 4.267 3.926 4.096 5.633ZM48.814 5.12c1.707-1.838 5.12-1.706 6.827 0v-.853h2.219v10.411c0 2.56-2.219 4.267-5.462 4.267-1.195 0-1.877-2.218 0-2.218h1.024c1.366-.342 2.39-1.878 2.22-3.755-1.366 1.365-4.873 1.365-6.487 0-2.218-1.878-2.56-5.462-.341-7.852ZM60.59 5.12c1.708-1.838 5.121-1.706 6.828 0v-.853h2.219v10.411c0 2.56-2.219 4.267-5.462 4.267-1.195 0-1.877-2.218 0-2.218H65.2c1.366-.342 2.39-1.878 2.219-3.755-1.365 1.365-4.872 1.365-6.486 0-2.219-1.878-2.56-5.462-.341-7.852ZM81.243 9.729l-8.193.17c-.118 2.05 3.073 2.902 5.462 1.195.853-.683 2.56.256 1.536 1.536-.683.854-1.707 1.536-3.243 1.707H75.27c-3.584 0-4.779-3.755-4.437-5.974.34-2.219 2.56-4.267 4.95-4.267h1.365c3.072.171 4.267 3.926 4.096 5.633ZM81.926 12.118l2.73-4.779-2.389-4.608c-.919-1.424 1.024-2.731 1.877-.854l1.707 3.073L87.9 1.707c.683-1.366 2.56-.512 1.707 1.024l-2.56 4.608 2.902 4.78c.853 1.706-.854 2.389-1.707 1.023l-2.39-3.755-2.219 3.755c-1.024 1.366-2.389.17-1.706-1.024Z"/><path fill="#000" d="M37.72 8.191c1.025-2.73 5.121-2.73 6.145 0h-6.144ZM52.57 5.973c-4.438 0-4.267 5.973 0 5.973s3.755-5.973 0-5.973ZM64.347 5.973c-4.438 0-4.267 5.973 0 5.973s3.755-5.973 0-5.973ZM73.051 8.191c1.024-2.73 5.12-2.73 6.145 0H73.05Z"/></svg>