<svg xmlns="http://www.w3.org/2000/svg" width="84" height="81" fill="none"><path stroke="#fff" stroke-miterlimit="10" stroke-width="2" d="M69.255 67.381v11.714h-54.51V67.381m11.636-41v-9.762A15.62 15.62 0 0 1 42 1a15.62 15.62 0 0 1 15.619 15.619v9.762m-23.428 0v-9.762A7.81 7.81 0 0 1 42 8.81a7.81 7.81 0 0 1 7.81 7.809v9.762m1.23 15.19 2.675-3.475h21.476m0 0A3.905 3.905 0 1 0 83 38.095a3.905 3.905 0 1 0-7.81 0zM51.04 58.049l2.675 3.475h21.476m0 0a3.905 3.905 0 1 0 7.811 0 3.905 3.905 0 0 0-7.812 0zm-42.23-19.953-2.675-3.475H8.81m0 0a3.905 3.905 0 1 1-7.81 0 3.905 3.905 0 0 1 7.81-.001zm24.151 19.953-2.675 3.475H8.81m0 0a3.905 3.905 0 1 1-7.81 0 3.905 3.905 0 0 1 7.81 0zm5.935-29.286v-5.857h54.51v5.857m0 11.831v11.597M14.745 44.07v11.597M49.81 49.81a7.81 7.81 0 0 0-3.887-6.78 7.81 7.81 0 0 0-7.815-.017 7.81 7.81 0 0 0-3.917 6.763 7.81 7.81 0 0 0 3.905 6.77v12.788h7.81V56.545a7.81 7.81 0 0 0 3.905-6.736z"/></svg>