<svg xmlns="http://www.w3.org/2000/svg" width="107" height="24" fill="none"><path fill="#fff" d="m8.817.7 4.03 5.44-8.06 10.074H7.81L9.018 14.4l1.612 1.612-1.612 2.217H.758l9.47-12.09-2.62-3.223h-2.82l2.82 3.828-1.209 1.41L.354.7h8.463Z"/><path fill="#fff" d="m18.287 2.916-8.06 10.074 4.03 5.239h8.463l-5.843-7.455-1.612 2.015 3.022 3.425h-2.82l-2.62-3.224L22.92.7h-8.06l-2.216 2.216 1.41 1.41 1.411-1.41h2.82ZM31.787 15.005l3.223-5.642-2.82-5.44c-1.085-1.681 1.208-3.224 2.216-1.007l2.015 3.626 2.418-3.828c.806-1.612 3.022-.604 2.014 1.209l-3.022 5.44 3.425 5.642c1.008 2.015-1.007 2.82-2.014 1.209L36.42 11.78l-2.62 4.433c-1.209 1.612-2.82.201-2.015-1.21ZM54.555 12.184l-9.672.202c-.14 2.418 3.627 3.425 6.448 1.41 1.007-.806 3.022.302 1.813 1.813-.806 1.008-2.015 1.814-3.828 2.015h-1.813c-4.232 0-5.642-4.433-5.24-7.052.404-2.62 3.023-5.037 5.844-5.037h1.612c3.627.201 5.037 4.634 4.836 6.649ZM57.98 6.744c2.015-2.17 6.045-2.015 8.06 0V5.736h2.619v12.291c0 3.022-2.62 5.037-6.448 5.037-1.41 0-2.216-2.619 0-2.619h1.21c1.611-.403 2.82-2.216 2.618-4.433-1.612 1.612-5.751 1.612-7.656 0-2.62-2.216-3.022-6.447-.403-9.268ZM71.882 6.744c2.015-2.17 6.045-2.015 8.06 0V5.736h2.62v12.291c0 3.022-2.62 5.037-6.448 5.037-1.41 0-2.217-2.619 0-2.619h1.209c1.612-.403 2.82-2.216 2.619-4.433-1.612 1.612-5.751 1.612-7.656 0-2.62-2.216-3.023-6.447-.404-9.268ZM96.263 12.184l-9.672.202c-.14 2.418 3.627 3.425 6.448 1.41 1.007-.806 3.022.302 1.813 1.813-.806 1.008-2.015 1.814-3.828 2.015H89.21c-4.23 0-5.641-4.433-5.238-7.052.403-2.62 3.022-5.037 5.843-5.037h1.612c3.627.201 5.037 4.634 4.835 6.649ZM97.069 15.005l3.223-5.642-2.82-5.44C96.387 2.242 98.68.699 99.688 2.916l2.015 3.626 2.418-3.828c.805-1.612 3.022-.604 2.014 1.209l-3.022 5.44 3.425 5.642c1.008 2.015-1.007 2.82-2.014 1.209l-2.821-4.433-2.62 4.433c-1.209 1.612-2.82.201-2.014-1.21Z"/><path fill="#191919" d="M44.884 10.37c1.209-3.224 6.044-3.224 7.253 0h-7.253ZM62.413 7.75c-5.238 0-5.037 7.052 0 7.052s4.433-7.052 0-7.052ZM76.316 7.75c-5.239 0-5.037 7.052 0 7.052s4.433-7.052 0-7.052ZM86.592 10.37c1.209-3.224 6.044-3.224 7.253 0h-7.253Z"/></svg>