<svg width="274" height="202" fill="none" xmlns="http://www.w3.org/2000/svg"><g opacity=".2"><path d="M3.195 76.213v35.689c0 3.514.879 5.269 6.149 1.757l45.236-27.23c1.318-.878 1.428-1.887 1.318-4.391V45.03c0-2.636-.879-3.953-3.514-2.635L5.83 71.382c-2.635 1.756-2.635 2.636-2.635 4.831Z" fill="#0F0E0E" stroke="#fff" stroke-width=".5"/><path d="m3.196 70.547 44.797-27.23c6.588-4.83 7.451-.956 7.894 1.263-.914-2.455-1.932-2.588-4.38-1.263L4.512 72.743c-1.317.878-1.42 2.276-1.317 3.953v29.934c-.188 5.804.017 7.899.707 8.54l.61.244a.933.933 0 0 1-.61-.244C2.076 114.435 1 113.885 1 111.901V76.256c-.006-2.94.44-4.83 2.196-5.709Z" fill="#161616"/><path d="m55.898 44.634-.01-.054m0 0c-.444-2.218-1.307-6.093-7.895-1.263L3.196 70.547C1.439 71.425.994 73.316 1 76.257V111.9c0 2.196 1.318 2.635 3.513 3.513-1.173-.069-1.552-1.527-1.317-8.784V76.696c-.104-1.677 0-3.075 1.317-3.953l46.993-29.426c2.45-1.325 3.467-1.192 4.381 1.263Z" stroke="#fff" stroke-width=".5"/><path d="M2.672 76.566c4.16-5.195 6.409-8.26 13.239-8.643 4.437-.534 6.756-1.523 10.103-6.57 3.833-4.84 6.406-6.683 13.24-6.568 6.45.235 10.103-6.218 16.374-12.095M2.672 80.022c4.16-5.196 6.409-8.26 13.239-8.643 4.437-.535 6.756-1.524 10.103-6.57 3.833-4.84 6.406-6.683 13.24-6.568 6.45.234 10.103-6.219 16.374-12.096M2.672 83.133c4.16-5.195 6.409-8.26 13.239-8.643 4.437-.534 6.756-1.523 10.103-6.569 3.833-4.841 6.406-6.684 13.24-6.569 6.45.235 10.103-6.218 16.374-12.095M2.672 86.59c4.16-5.196 6.409-8.26 13.239-8.643 4.437-.535 6.756-1.524 10.103-6.57 3.833-4.84 6.406-6.683 13.24-6.569 6.45.235 10.103-6.218 16.374-12.095M2.672 90.048c4.16-5.196 6.409-8.26 13.239-8.643 4.437-.535 6.756-1.524 10.103-6.57 3.833-4.84 6.406-6.683 13.24-6.568 6.45.234 10.103-6.219 16.374-12.096M2.672 93.852c4.16-5.196 6.409-8.26 13.239-8.643 4.437-.534 6.756-1.523 10.103-6.569 3.833-4.841 6.406-6.684 13.24-6.569 6.45.235 10.103-6.218 16.374-12.096M2.672 97.308c4.16-5.196 6.409-8.26 13.239-8.643 4.437-.535 6.756-1.524 10.103-6.57 3.833-4.84 6.406-6.683 13.24-6.568 6.45.234 10.103-6.219 16.374-12.096M2.672 100.419c4.16-5.195 6.409-8.26 13.239-8.643 4.437-.534 6.756-1.523 10.103-6.569 3.833-4.841 6.406-6.684 13.24-6.569 6.45.235 10.103-6.218 16.374-12.096M2.672 103.877c4.16-5.196 6.409-8.26 13.239-8.643 4.437-.535 6.756-1.524 10.103-6.57 3.833-4.84 6.406-6.683 13.24-6.569 6.45.235 10.103-6.218 16.374-12.095M2.672 107.334c4.16-5.196 6.409-8.26 13.239-8.643 4.437-.535 6.756-1.524 10.103-6.57 3.833-4.84 6.406-6.683 13.24-6.568 6.45.234 10.103-6.219 16.374-12.096M2.672 111.482c4.16-5.195 6.409-8.26 13.239-8.643 4.437-.534 6.756-1.523 10.103-6.569 3.833-4.841 6.406-6.683 13.24-6.569 6.45.235 10.103-6.218 16.374-12.095m-52.26 36.992c4.161-5.196 5.713-7.915 12.543-8.297 4.437-.535 6.756-1.524 10.103-6.57 3.833-4.84 6.406-6.683 13.24-6.568 6.45.234 10.103-6.219 16.374-12.096" stroke="#fff" stroke-width=".5"/><path d="M17.97 82.447c-2.36 1.76-2.536 1.955-2.536 4.156v26.793c0 3.521.786 5.28 5.504 1.761l40.494-27.284c1.179-.88 1.277-1.892 1.179-4.401V59.268c0-2.641-.786-3.961-3.145-2.64L17.97 82.448Z" fill="#F73737" stroke="#fff" stroke-width=".5"/><path d="m15.434 82.1 40.1-25.034c5.898-4.84 6.67-.958 7.067 1.265-.819-2.46-1.73-2.593-3.922-1.265L16.931 83.332c-1.18.88-1.59 2.283-1.498 3.963v20.819c-.168 5.815.016 7.914.633 8.557l.547.244a.786.786 0 0 1-.547-.244c-1.635-.737-2.598-1.288-2.598-3.276V90.071c0-5.2 0-6.739 1.966-7.97Z" fill="#161616"/><path d="m62.611 58.386-.01-.055m0 0c-.396-2.223-1.17-6.105-7.067-1.265L15.434 82.1c-1.966 1.232-1.966 2.77-1.966 7.971v23.324c0 2.2 1.18 2.64 3.145 3.52-1.05-.069-1.39-1.53-1.18-8.801v-20.82c-.092-1.68.318-3.082 1.498-3.962l41.748-26.266c2.193-1.328 3.103-1.195 3.922 1.265Z" stroke="#fff" stroke-width=".5"/><path d="M29.049 98.725v18.007c0 2.77.692 4.154 4.848 1.385l35.667-21.47c1.039-.692 1.125-1.488 1.039-3.463V74.14c0-2.078-.693-3.117-2.77-2.078L31.126 94.916c-2.078 1.384-2.078 2.078-2.078 3.809Z" fill="#0F0E0E" stroke="#fff" stroke-width=".5"/><path d="m29.049 93.876 35.32-21.47c5.195-3.809 5.876-.753 6.225.996-.721-1.936-1.523-2.04-3.454-.996L30.088 95.607c-1.04.693-1.12 1.795-1.04 3.117v13.851c-.147 4.576.014 6.228.558 6.733l.482.193a.736.736 0 0 1-.482-.193c-1.44-.58-2.289-1.013-2.289-2.578V98.377c-.005-2.318.347-3.809 1.732-4.501Z" fill="#161616"/><path d="m70.603 73.445-.009-.043m0 0c-.35-1.75-1.03-4.805-6.224-.996l-35.321 21.47c-1.385.692-1.736 2.183-1.732 4.501v18.353c0 1.732 1.04 2.078 2.77 2.771-.924-.055-1.224-1.204-1.038-6.926V98.724c-.082-1.322 0-2.424 1.039-3.117L67.14 72.406c1.93-1.045 2.733-.94 3.454.996Z" stroke="#fff" stroke-width=".5"/><path d="m42.032 99.958-3.127 1.788v3.933l3.127-2.145v-3.576ZM48.98 95.309l-3.127 1.788v3.933l3.126-2.145v-3.576ZM55.927 90.66l-3.126 1.788v3.934l3.126-2.146V90.66ZM62.875 86.727l-3.127 1.787v3.934l3.127-2.145v-3.576Z" fill="#F73737"/><path d="M150.948 201c-4.495-2.773-3.803-5.893 0-8.32M41.692 102.551l7.606 5.2c1.536.915 2.075 2.079 2.075 3.466v4.853c0 2.773 1.383 4.16 3.457 5.547l19.362 11.829 5.635 3.443m-31.22-38.151 2.766 1.733m4.84 3.12c1.383 1.04 2.075 2.08 2.075 3.813v4.853c0 2.427.691 3.467 3.112 4.853l30.055 18.373M55.522 94.231l7.606 4.853c1.729 1.387 2.075 2.427 2.075 4.507v4.853c0 1.733.549 2.918 2.766 3.813l36.125 22.092M62.091 90.071l7.607 4.507c1.914 1.453 2.42 2.773 2.42 4.16v5.546c0 1.733.691 2.773 3.111 4.16l42.343 25.905" stroke="#fff" stroke-width=".5"/></g><path d="M206.284 145.309c-4.617 2.418-8.355 2.638-12.972 0l-45.952-27.484c-1.759-1.759-1.975-4.176 0-5.277l45.952-27.263c4.397-2.638 8.355-2.419 12.972 0l43.534 25.285c5.277 2.858 3.738 5.936-.88 9.014l-42.654 25.725Z" fill="#0F0E0E" stroke="#fff" stroke-width=".5"/><g filter="url(#a)"><path d="M251.137 111.448c2.985 2.883 2.266 4.635-1.759 7.915v6.377l3.518-1.979c.974-.874 1.134-1.475 1.1-2.639v-4.837c-.031-2.88-.831-3.78-2.859-4.837Z" fill="#F73737"/></g><g filter="url(#b)"><path d="M158.793 124.42v6.376l-11.653-7.036c-1.099-.879-1.319-1.758-1.319-3.298v-5.496c.44 1.099 1.099 2.418 1.759 2.638l11.213 6.816Z" fill="#F73737"/></g><g filter="url(#c)"><path d="M164.29 134.095v-6.157l3.517 2.199v6.156l-3.517-2.198Z" fill="#F73737"/></g><path d="m158.793 130.797 34.299 20.668m0 0v-6.236m0 6.236c3.997 2.43 9.235 2.418 13.192 0m0 0 1.006-.6m-1.006.6v-.88m0-5.276v1.539m37.597-17.826 5.497-9.658v1.759m-5.497 7.899 1.54-.919m-1.54.919-1.501.896m3.041-1.815 3.957-6.98m-3.957 6.98 1.539-.919m2.418-6.061v1.539m0 0-2.418 4.522m2.418-4.522v1.539m-2.418 2.983 1.209-.722m0 0 1.209-.722v-1.539m-1.209 2.261 1.209-2.261m-6.998 5.717 5.239-9.454m-5.239 9.454-1.357.81m0 0 4.837-9.165m-4.837 9.165-1.759 1.05m0 0 4.398-8.896m-4.398 8.896-1.759 1.05m0 0 4.178-8.847m-4.178 8.847-1.539.918m0 0 3.738-8.665m-3.738 8.665-1.883 1.125m0 0 3.642-8.471m-3.642 8.471-2.016 1.203m0 0 3.679-8.575m-3.679 8.575-1.597.954m0 0 3.298-8.209m-3.298 8.209-1.539.918m0 0 3.136-8.248m-3.136 8.248-1.54.919m0 0 2.639-7.848m-2.639 7.848-1.586.947m0 0 2.466-7.695m-2.466 7.695-1.492.891m0 0 2.199-7.487m-2.199 7.487-1.319.787m0 0 1.759-7.175m-1.759 7.175-1.539.919m0 0 1.539-7.214m-1.539 7.214-1.911 1.141m0 0 1.911-7.476m-1.911 7.476-1.827 1.09m0 0 1.827-7.352m-1.827 7.352-1.856 1.108m0 0 1.856-7.255m-1.856 7.255-1.842 1.1m0 0c-.032-.176 1.28-4.911 1.939-7.256m-1.939 7.256-2.018 1.204m0 0 1.759-7.141m-1.759 7.141-1.665.994m0 0 1.885-7.255m-1.885 7.255-1.633.975m0 0 1.759-7.131m-1.759 7.131-1.413.844m0 0 1.633-7.096m-2.639 6.816 1.319-5.945m-1.319 5.945v-3.737m0 0 .44-1.759" stroke="#fff" stroke-width=".5"/><g filter="url(#d)"><path d="M208.087 126.158c7.547-3.564 9.434-9.435 6.499-13.208-4.017 7.453-8.125 8.966-16.562 10.063-11.531-.839-16.353-7.757-17.611-15.514-1.203-4.926.67-6.228 3.564-8.805-1.642-1.574-2.42-2.522-3.354-4.403L158.4 107.289c2.03 1.141 6.167 1.485 6.499.839 1.048 6.499 15.137 13.292 15.304 13.627 11.25 7.696 20.127 7.128 27.884 4.403Z" fill="#222"/></g><path d="M198.233 116.304c-17.401-.838-22.642-11.74-13.836-17.19 1.956 1.294 3.239 1.951 6.079 2.934v3.984c0 5.451 16.563 5.87 16.563 0v-4.613c2.405-.755 3.657-1.25 5.66-2.306 9.434 6.919 1.048 17.939-14.466 17.191Z" stroke="#fff" stroke-width=".5"/><path d="M180.623 107.71c2.725 19.707 31.657 21.803 35.849 0-5.241 13.208-33.124 9.434-35.849 0Z" stroke="#fff" stroke-width=".5"/><path d="M198.444 112.531c-1.258 0-1.258 1.677 0 1.677s1.258-1.677 0-1.677ZM203.685 111.902c-1.257 0-1.257 1.677 0 1.677 1.258 0 1.258-1.677 0-1.677ZM208.298 110.015c-1.258 0-1.258 1.677 0 1.677s1.258-1.677 0-1.677ZM211.442 107.499c-1.257 0-1.257 1.677 0 1.677 1.258 0 1.258-1.677 0-1.677ZM212.281 104.145c-1.258 0-1.258 1.677 0 1.677s1.258-1.677 0-1.677ZM211.442 101c-1.257 0-1.257 1.677 0 1.677 1.258 0 1.258-1.677 0-1.677ZM193.203 111.692c-1.258 0-1.258 1.677 0 1.677s1.258-1.677 0-1.677ZM188.8 109.805c-1.258 0-1.258 1.677 0 1.677s1.258-1.677 0-1.677ZM185.655 107.289c-1.258 0-1.258 1.678 0 1.678s1.258-1.678 0-1.678ZM184.607 104.145c-1.258 0-1.258 1.677 0 1.677 1.257 0 1.257-1.677 0-1.677ZM185.655 101c-1.258 0-1.258 1.677 0 1.677s1.258-1.677 0-1.677Z" fill="#fff"/><path d="M198.444 112.531c-1.258 0-1.258 1.677 0 1.677s1.258-1.677 0-1.677ZM203.685 111.902c-1.257 0-1.257 1.677 0 1.677 1.258 0 1.258-1.677 0-1.677ZM208.298 110.015c-1.258 0-1.258 1.677 0 1.677s1.258-1.677 0-1.677ZM211.442 107.499c-1.257 0-1.257 1.677 0 1.677 1.258 0 1.258-1.677 0-1.677ZM212.281 104.145c-1.258 0-1.258 1.677 0 1.677s1.258-1.677 0-1.677ZM211.442 101c-1.257 0-1.257 1.677 0 1.677 1.258 0 1.258-1.677 0-1.677ZM193.203 111.692c-1.258 0-1.258 1.677 0 1.677s1.258-1.677 0-1.677ZM188.8 109.805c-1.258 0-1.258 1.677 0 1.677s1.258-1.677 0-1.677ZM185.655 107.289c-1.258 0-1.258 1.678 0 1.678s1.258-1.678 0-1.678ZM184.607 104.145c-1.258 0-1.258 1.677 0 1.677 1.257 0 1.257-1.677 0-1.677ZM185.655 101c-1.258 0-1.258 1.677 0 1.677s1.258-1.677 0-1.677Z" stroke="#fff" stroke-width=".5"/><path d="m180.623 93.034 1.677-3.564c12.854 2.546 19.948 2.187 32.495 0l1.468 3.564c-.839 12.159-33.963 13.417-35.64 0Z" stroke="#fff" stroke-width=".5"/><path d="m181.671 90.728.629-1.258c6.499 1.887 21.804 2.935 32.496 0-6.709 7.547-24.11 8.386-33.125 1.258Z" stroke="#fff" stroke-width=".5"/><path d="M185.655 84.689c-41.551-8.255-35.221-47.054 12.16-47.631 45.544 0 57.444 37.696 13.417 47.21-2.354-4.063-6.499-6.329-13.417-6.329-5.661 0-10.483 2.935-12.16 6.75Z" fill="#150F0F" stroke="#fff" stroke-width=".5"/><path d="M178.945 82.97c-2.725-19.076 41.301-17.19 39.414-.628m-43.607-.838c-11.739-26.205 58.493-28.93 47.591-.629m-50.944-1.047c-26.836-41.092 80.924-37.529 54.508-.629M158.19 62.635c13.42 7.494 18.38 12.264 24.529 21.385m3.355-.21c-5.206-13.466-9.353-20.974-23.271-34.173m26.625 30.609c-2.477-15.146-5.29-23.674-14.676-38.995m15.095-3.773c3.865 17.05 5.636 26.42 4.193 40.881m13.418-40.672c-3.207 15.07-6.435 22.738-4.403 40.672m19.288-36.688c-6.887 14.226-12.96 20.565-14.466 38.785m25.997-30.61c-11.829 10.999-17.56 17.861-23.062 33.754m27.884-20.755c-10.064 3.564-21.385 15.724-24.32 20.755" stroke="#fff" stroke-width=".5"/><path d="M185.654 84.65c3.564-7.968 20.336-9.855 25.577-.419-9.711 1.771-15.336 1.712-25.577.42Z" fill="#F73737"/><path d="M198.023 91.358c-32.914-1.678-41.3-15.724-40.042-28.932 2.515 14.675 16.143 22.642 40.042 23.27 22.852.21 42.35-11.949 40.672-25.786 5.242 23.69-22.432 31.448-40.672 31.448Z" fill="#161616" stroke="#fff" stroke-width=".5"/><path d="M171.817 48.59c-15.514-.63-1.832 17.512 10.063 17.19 10.273 0-.302-17.324-10.063-17.19ZM198.234 65.15c-7.548-1.677-8.177 14.047 0 18.24 5.66 2.902 8.595-15.724 0-18.24ZM216.263 53.616c-10.272-.839-6.499 18.033 4.193 20.336 7.967 2.1 4.613-19.285-4.193-20.336ZM203.684 22.802c-10.063 2.516-14.046 22.642-5.032 21.384 11.531-2.306 15.305-24.32 5.032-21.384Z" fill="#161616" stroke="#fff" stroke-width=".5"/><path d="M202.426 25.946c-4.822 1.677-5.241 9.434-1.258 8.176 3.564-1.125 5.451-9.015 1.258-8.176ZM196.556 40.412c1.567-4.136 7.548-8.176 9.854-5.87-2.726 5.45-6.842 8.206-9.854 5.87Z" fill="#fff"/><path d="M198.443 24.058c4.402-3.143 6.29-2.304 8.596-1.256-3.775-1.048-8.153 1.831-10.903 6.5-1.392 2.518-1.819 4-2.306 6.708-.554 3.688 0 5.45 1.259 7.128-5.597-4.502-1.678-15.095 3.354-19.08Z" fill="#161616" stroke="#fff" stroke-width=".5"/><path d="M198.653 68.295c-2.097 0-2.726 4.403 0 6.919 2.935 2.306 3.564-6.71 0-6.919ZM194.25 74.375c1.607-.988 2.943-.093 3.983 1.468.559.838 1.887 3.563 1.468 5.031-2.306.629-5.241-3.354-5.451-6.499ZM215.215 58.232c-4.403-1.677-3.564 6.29.629 7.547 2.306.692 3.773-4.402-.629-7.547Z" fill="#fff"/><path d="M221.085 60.538c-2.935.42-3.564 7.547-.839 11.112 3.41-1.696 3.564-6.919.839-11.112ZM202.426 25.946c-4.822 1.677-5.241 9.434-1.258 8.176 3.564-1.125 5.451-9.015 1.258-8.176ZM196.556 40.412c1.567-4.136 7.547-8.176 9.854-5.87-2.726 5.45-6.842 8.206-9.854 5.87ZM171.818 60.328c1.064-2.1 8.176-2.306 11.111 1.258-2.097 3.774-7.128 2.726-11.111-1.258ZM172.866 51.104c-5.487 0-1.275 5.767 2.935 6.709 4.822.419 1.468-6.71-2.935-6.71Z" fill="#fff"/><path d="M160.897 3.7c-6.423 6.92.545 24.25 6.795 18.809 7.647-7.492-.42-26.156-6.795-18.81Z" fill="#161616" stroke="#fff" stroke-width=".5"/><path d="M161.502 6.724c-2.844 3.676.693 9.8 3.106 6.86 2.158-2.63-.326-9.585-3.106-6.86ZM164.217 20.674c-.861-3.933 1.691-9.988 4.596-9.376.632 5.512-1.138 9.66-4.596 9.376Z" fill="#fff"/><path d="M157.525 7.262c1.795-4.585 3.651-4.883 5.931-5.231-3.4 1.077-5.307 5.45-5.083 10.377.191 2.613.601 3.955 1.577 6.263 1.411 3.088 2.71 4.157 4.503 4.81-6.506-.65-8.784-10.677-6.928-16.219ZM136.952 36.012c-2.626-7.96-19.082-9.971-17.531-2.782 2.545 9.155 20.508 10.886 17.531 2.782Z" fill="#161616" stroke="#fff" stroke-width=".5"/><path d="M134.343 35.185c-1.639-3.786-7.915-3.662-6.664-.527 1.119 2.805 7.589 3.856 6.664.527ZM122.336 31.316c3.427 1.017 7.038 5.595 5.317 7.59-4.555-1.871-7.02-5.024-5.317-7.59Z" fill="#fff"/><path d="M135.628 31.864c2.795 3.36 2.231 4.93 1.524 6.851.62-3.103-1.961-6.46-5.886-8.398-2.113-.972-3.332-1.228-5.544-1.46-3.005-.226-4.392.325-5.669 1.44 3.295-4.779 12.064-2.251 15.575 1.567ZM203.475 69.135c-1.397-2.939-2.516-3.355-5.242-3.984 2.125.785 3.008 1.662 4.193 3.774.519 1.182.749 1.963 1.049 3.564.348 3.264.117 4.212-.21 6.08-.799 3.018-1.456 3.822-2.725 4.822 2.096-.839 3.858-3.568 3.983-4.193.838-4.193.419-6.709-1.048-10.063ZM210.393 55.296c2.963-2.694 4.17-2.379 6.289-1.677-2.213-.123-3.343.047-4.822 1.468-.944.907-2.21 3.071-1.467 7.128.799 3.38 1.543 4.984 3.354 7.337 2.108 2.41 3.556 3.407 6.709 4.403-2.935 0-5.87-.21-9.224-5.66-2.516-5.032-3.564-10.273-.839-13Z" fill="#161616" stroke="#fff" stroke-width=".5"/><path d="M172.237 47.122c-3.251-.213-4.271.836-6.077 2.723 4.192-2.514 9.611-1.282 13.415 1.888 5.031 4.193 6.499 7.967 6.499 10.692.85-3.449.146-5.2-2.097-8.176-4.304-4.903-6.918-6.5-11.74-7.127Z" fill="#161616"/><path d="M166.157 49.847c1.808-1.888 2.828-2.938 6.08-2.725 4.822.628 7.436 2.224 11.74 7.127 2.243 2.977 2.947 4.727 2.097 8.176 0-2.725-1.468-6.499-6.499-10.692-3.805-3.17-9.225-4.402-13.418-1.887M192.154 102.259v6.289m1.467-6.08v6.919m-2.516-1.677v-5.661m4.193 7.757v-7.128m1.678 7.547v-7.547m1.677 7.547v-7.547m1.467 7.547v-7.547m1.468 7.338v-7.548m1.677 7.129v-7.338m1.677 6.709v-7.128m1.468 5.87v-6.08" stroke="#fff" stroke-width=".5"/><defs><filter id="a" x="229.378" y="91.448" width="44.622" height="54.291" filterUnits="userSpaceOnUse" color-interpolation-filters="sRGB"><feFlood flood-opacity="0" result="BackgroundImageFix"/><feColorMatrix in="SourceAlpha" values="0 0 0 0 0 0 0 0 0 0 0 0 0 0 0 0 0 0 127 0" result="hardAlpha"/><feOffset/><feGaussianBlur stdDeviation="10"/><feComposite in2="hardAlpha" operator="out"/><feColorMatrix values="0 0 0 0 0.966667 0 0 0 0 0.2175 0 0 0 0 0.2175 0 0 0 1 0"/><feBlend in2="BackgroundImageFix" result="effect1_dropShadow_1201_52"/><feBlend in="SourceGraphic" in2="effect1_dropShadow_1201_52" result="shape"/></filter><filter id="b" x="125.821" y="94.966" width="52.972" height="55.83" filterUnits="userSpaceOnUse" color-interpolation-filters="sRGB"><feFlood flood-opacity="0" result="BackgroundImageFix"/><feColorMatrix in="SourceAlpha" values="0 0 0 0 0 0 0 0 0 0 0 0 0 0 0 0 0 0 127 0" result="hardAlpha"/><feOffset/><feGaussianBlur stdDeviation="10"/><feComposite in2="hardAlpha" operator="out"/><feColorMatrix values="0 0 0 0 0.966667 0 0 0 0 0.2175 0 0 0 0 0.2175 0 0 0 1 0"/><feBlend in2="BackgroundImageFix" result="effect1_dropShadow_1201_52"/><feBlend in="SourceGraphic" in2="effect1_dropShadow_1201_52" result="shape"/></filter><filter id="c" x="144.29" y="107.938" width="43.518" height="48.355" filterUnits="userSpaceOnUse" color-interpolation-filters="sRGB"><feFlood flood-opacity="0" result="BackgroundImageFix"/><feColorMatrix in="SourceAlpha" values="0 0 0 0 0 0 0 0 0 0 0 0 0 0 0 0 0 0 127 0" result="hardAlpha"/><feOffset/><feGaussianBlur stdDeviation="10"/><feComposite in2="hardAlpha" operator="out"/><feColorMatrix values="0 0 0 0 0.966667 0 0 0 0 0.2175 0 0 0 0 0.2175 0 0 0 1 0"/><feBlend in2="BackgroundImageFix" result="effect1_dropShadow_1201_52"/><feBlend in="SourceGraphic" in2="effect1_dropShadow_1201_52" result="shape"/></filter><filter id="d" x="148.4" y="84.291" width="77.503" height="53.711" filterUnits="userSpaceOnUse" color-interpolation-filters="sRGB"><feFlood flood-opacity="0" result="BackgroundImageFix"/><feBlend in="SourceGraphic" in2="BackgroundImageFix" result="shape"/><feGaussianBlur stdDeviation="5" result="effect1_foregroundBlur_1201_52"/></filter></defs></svg>