<svg xmlns="http://www.w3.org/2000/svg" width="859" height="963" fill="none"><style>.B{fill:#505050}.C{color-interpolation-filters:sRGB}.D{flood-opacity:0}</style><g opacity=".8"><g stroke="#505050" stroke-width=".6"><path d="m231.747 718.595 292.557 217.361M231.747 718.595l502.275-27.753M523.293 935.246 652.31 568.627m0 0L231.747 718.595M231.747 718.595l26.49-248.461m0 0 80.583-304.046M339.121 167.809l-274.09-86.72M65.031 81.089l400.571 342.944m0 0-207.365 46.101m207.365-46.1 266.7 267.11M732.302 691.143 652.31 568.627M732.302 691.143 499.535 567.035m0 .001-33.933-143.003m33.932 143.003 23.759 368.21m-23.759-368.211-267.787 151.56m233.855-294.561L338.11 167.1m0-.001L81.355 315.838m0 .001L66.042 81.798M81.355 315.838l384.247 108.195"/></g><g class="B" filter="url(#A)"><circle cx="65.031" cy="81.089" r="7.41" transform="rotate(305.058 65.031 81.089)"/></g><g class="B" filter="url(#B)"><circle cx="81.355" cy="315.839" r="7.41" transform="rotate(305.058 81.355 315.839)"/></g><g class="B" filter="url(#C)"><circle cx="339.121" cy="167.809" r="7.41" transform="rotate(305.058 339.121 167.809)"/></g><g class="B" filter="url(#D)"><circle cx="461.86" cy="422.916" r="7.41" transform="rotate(305.058 461.86 422.916)"/></g><g class="B" filter="url(#E)"><circle cx="498.116" cy="569.057" r="7.41" transform="rotate(305.058 498.116 569.057)"/></g><g class="B" filter="url(#F)"><circle cx="652.31" cy="568.627" r="7.41" transform="rotate(305.058 652.31 568.627)"/></g><g class="B" filter="url(#G)"><circle cx="732.302" cy="691.144" r="7.41" transform="rotate(305.058 732.302 691.144)"/></g><g class="B" filter="url(#H)"><circle cx="525.014" cy="934.945" r="7.41" transform="rotate(305.058 525.014 934.945)"/></g><g class="B" filter="url(#I)"><circle cx="233.467" cy="718.293" r="7.41" transform="rotate(305.058 233.467 718.293)"/></g><g class="B" filter="url(#J)"><circle cx="259.248" cy="470.844" r="7.41" transform="rotate(305.058 259.248 470.844)"/></g></g><defs><filter id="A" width="54.822" height="54.822" x="37.62" y="53.678" class="C" filterUnits="userSpaceOnUse"><feFlood class="D" result="A"/><feColorMatrix in="SourceAlpha" result="B" values="0 0 0 0 0 0 0 0 0 0 0 0 0 0 0 0 0 0 127 0"/><feOffset/><feGaussianBlur stdDeviation="10"/><feComposite in2="B" operator="out"/><feColorMatrix values="0 0 0 0 1 0 0 0 0 1 0 0 0 0 1 0 0 0 0.02 0"/><feBlend in2="A"/><feBlend in="SourceGraphic"/><feGaussianBlur stdDeviation="5"/></filter><filter id="B" width="54.822" height="54.822" x="53.944" y="288.428" class="C" filterUnits="userSpaceOnUse"><feFlood class="D" result="A"/><feColorMatrix in="SourceAlpha" result="B" values="0 0 0 0 0 0 0 0 0 0 0 0 0 0 0 0 0 0 127 0"/><feOffset/><feGaussianBlur stdDeviation="10"/><feComposite in2="B" operator="out"/><feColorMatrix values="0 0 0 0 1 0 0 0 0 1 0 0 0 0 1 0 0 0 0.02 0"/><feBlend in2="A"/><feBlend in="SourceGraphic"/><feGaussianBlur stdDeviation="5"/></filter><filter id="C" width="54.822" height="54.822" x="311.711" y="140.398" class="C" filterUnits="userSpaceOnUse"><feFlood class="D" result="A"/><feColorMatrix in="SourceAlpha" result="B" values="0 0 0 0 0 0 0 0 0 0 0 0 0 0 0 0 0 0 127 0"/><feOffset/><feGaussianBlur stdDeviation="10"/><feComposite in2="B" operator="out"/><feColorMatrix values="0 0 0 0 1 0 0 0 0 1 0 0 0 0 1 0 0 0 0.02 0"/><feBlend in2="A"/><feBlend in="SourceGraphic"/><feGaussianBlur stdDeviation="5"/></filter><filter id="D" width="54.822" height="54.822" x="434.449" y="395.505" class="C" filterUnits="userSpaceOnUse"><feFlood class="D" result="A"/><feColorMatrix in="SourceAlpha" result="B" values="0 0 0 0 0 0 0 0 0 0 0 0 0 0 0 0 0 0 127 0"/><feOffset/><feGaussianBlur stdDeviation="10"/><feComposite in2="B" operator="out"/><feColorMatrix values="0 0 0 0 1 0 0 0 0 1 0 0 0 0 1 0 0 0 0.02 0"/><feBlend in2="A"/><feBlend in="SourceGraphic"/><feGaussianBlur stdDeviation="5"/></filter><filter id="E" width="54.822" height="54.822" x="470.705" y="541.646" class="C" filterUnits="userSpaceOnUse"><feFlood class="D" result="A"/><feColorMatrix in="SourceAlpha" result="B" values="0 0 0 0 0 0 0 0 0 0 0 0 0 0 0 0 0 0 127 0"/><feOffset/><feGaussianBlur stdDeviation="10"/><feComposite in2="B" operator="out"/><feColorMatrix values="0 0 0 0 1 0 0 0 0 1 0 0 0 0 1 0 0 0 0.02 0"/><feBlend in2="A"/><feBlend in="SourceGraphic"/><feGaussianBlur stdDeviation="5"/></filter><filter id="F" width="54.822" height="54.822" x="624.899" y="541.216" class="C" filterUnits="userSpaceOnUse"><feFlood class="D" result="A"/><feColorMatrix in="SourceAlpha" result="B" values="0 0 0 0 0 0 0 0 0 0 0 0 0 0 0 0 0 0 127 0"/><feOffset/><feGaussianBlur stdDeviation="10"/><feComposite in2="B" operator="out"/><feColorMatrix values="0 0 0 0 1 0 0 0 0 1 0 0 0 0 1 0 0 0 0.02 0"/><feBlend in2="A"/><feBlend in="SourceGraphic"/><feGaussianBlur stdDeviation="5"/></filter><filter id="G" width="54.822" height="54.822" x="704.891" y="663.733" class="C" filterUnits="userSpaceOnUse"><feFlood class="D" result="A"/><feColorMatrix in="SourceAlpha" result="B" values="0 0 0 0 0 0 0 0 0 0 0 0 0 0 0 0 0 0 127 0"/><feOffset/><feGaussianBlur stdDeviation="10"/><feComposite in2="B" operator="out"/><feColorMatrix values="0 0 0 0 1 0 0 0 0 1 0 0 0 0 1 0 0 0 0.02 0"/><feBlend in2="A"/><feBlend in="SourceGraphic"/><feGaussianBlur stdDeviation="5"/></filter><filter id="H" width="54.822" height="54.822" x="497.603" y="907.534" class="C" filterUnits="userSpaceOnUse"><feFlood class="D" result="A"/><feColorMatrix in="SourceAlpha" result="B" values="0 0 0 0 0 0 0 0 0 0 0 0 0 0 0 0 0 0 127 0"/><feOffset/><feGaussianBlur stdDeviation="10"/><feComposite in2="B" operator="out"/><feColorMatrix values="0 0 0 0 1 0 0 0 0 1 0 0 0 0 1 0 0 0 0.02 0"/><feBlend in2="A"/><feBlend in="SourceGraphic"/><feGaussianBlur stdDeviation="5"/></filter><filter id="I" width="54.822" height="54.822" x="206.057" y="690.882" class="C" filterUnits="userSpaceOnUse"><feFlood class="D" result="A"/><feColorMatrix in="SourceAlpha" result="B" values="0 0 0 0 0 0 0 0 0 0 0 0 0 0 0 0 0 0 127 0"/><feOffset/><feGaussianBlur stdDeviation="10"/><feComposite in2="B" operator="out"/><feColorMatrix values="0 0 0 0 1 0 0 0 0 1 0 0 0 0 1 0 0 0 0.02 0"/><feBlend in2="A"/><feBlend in="SourceGraphic"/><feGaussianBlur stdDeviation="5"/></filter><filter id="J" width="54.822" height="54.822" x="231.837" y="443.433" class="C" filterUnits="userSpaceOnUse"><feFlood class="D" result="A"/><feColorMatrix in="SourceAlpha" result="B" values="0 0 0 0 0 0 0 0 0 0 0 0 0 0 0 0 0 0 127 0"/><feOffset/><feGaussianBlur stdDeviation="10"/><feComposite in2="B" operator="out"/><feColorMatrix values="0 0 0 0 1 0 0 0 0 1 0 0 0 0 1 0 0 0 0.02 0"/><feBlend in2="A"/><feBlend in="SourceGraphic"/><feGaussianBlur stdDeviation="5"/></filter></defs></svg>