<svg width="111" height="111" fill="none" xmlns="http://www.w3.org/2000/svg"><path opacity=".2" d="M16.227 95.044C5.555 84.574.219 71.484.219 55.777c0-15.707 5.336-28.747 16.008-39.119C26.997 6.187 40.681.951 57.282.951c18.675 0 33.003 6.57 42.983 19.708 4.545 5.829 7.757 12.348 9.634 19.56H86.925c-1.284-3.36-3.26-6.422-5.928-9.188-6.225-6.223-14.13-9.335-23.715-9.335-9.683 0-17.687 3.21-24.01 9.632-6.226 6.322-9.338 14.472-9.338 24.45 0 10.372 3.013 18.67 9.04 24.893 6.127 6.125 14.23 9.187 24.308 9.187 10.079 0 18.181-3.458 24.308-10.372 2.766-3.26 4.792-6.718 6.076-10.373h22.974c-2.273 7.804-5.682 14.72-10.227 20.745-10.672 13.83-25.048 20.745-43.13 20.745-16.6 0-30.286-5.186-41.056-15.559Z" fill="#fff"/></svg>