<svg xmlns="http://www.w3.org/2000/svg" width="98" height="21" fill="none"><path fill="#fff" d="m7.73 0 3.68 4.969-7.361 9.201h2.76l1.104-1.656 1.472 1.472-1.472 2.024H.368L9.018 4.97 6.624 2.024H4.049l2.576 3.497L5.52 6.809 0 0h7.73Z"/><path fill="#fff" d="m16.378 2.024-7.36 9.202 3.68 4.784h7.729L15.09 9.201l-1.472 1.84 2.76 3.129h-2.576l-2.392-2.944L20.61 0h-7.36l-2.024 2.024 1.288 1.288 1.288-1.288h2.576ZM28.708 13.066l2.944-5.153-2.576-4.969C28.086 1.41 30.18 0 31.1 2.024l1.84 3.313L35.15 1.84c.736-1.472 2.76-.552 1.84 1.104l-2.76 4.97 3.128 5.152c.92 1.84-.92 2.576-1.84 1.104l-2.576-4.049-2.393 4.049c-1.104 1.472-2.576.184-1.84-1.104ZM49.503 10.49l-8.833.184c-.128 2.209 3.312 3.128 5.889 1.288.92-.736 2.76.276 1.656 1.656-.736.92-1.84 1.656-3.497 1.84h-1.656c-3.865 0-5.153-4.048-4.785-6.44.368-2.393 2.76-4.601 5.337-4.601h1.472c3.313.184 4.6 4.232 4.417 6.072ZM52.631 5.52c1.84-1.981 5.521-1.84 7.361 0V4.6h2.393v11.226c0 2.76-2.393 4.6-5.89 4.6-1.287 0-2.023-2.391 0-2.391H57.6c1.472-.369 2.576-2.025 2.392-4.05-1.472 1.473-5.253 1.473-6.993 0-2.392-2.023-2.76-5.888-.368-8.464ZM65.33 5.52c1.84-1.981 5.52-1.84 7.36 0V4.6h2.392v11.226c0 2.76-2.392 4.6-5.888 4.6-1.289 0-2.025-2.391 0-2.391h1.104c1.472-.369 2.576-2.025 2.392-4.05-1.472 1.473-5.253 1.473-6.993 0-2.392-2.023-2.76-5.888-.368-8.464ZM87.596 10.49l-8.833.184c-.128 2.209 3.312 3.128 5.889 1.288.92-.736 2.76.276 1.656 1.656-.736.92-1.84 1.656-3.497 1.84h-1.656c-3.864 0-5.153-4.048-4.784-6.44.368-2.393 2.76-4.601 5.336-4.601h1.473c3.312.184 4.6 4.232 4.416 6.072ZM88.332 13.066l2.945-5.153L88.7 2.944c-.99-1.535 1.105-2.944 2.025-.92l1.84 3.313 2.208-3.497c.736-1.472 2.76-.552 1.84 1.104l-2.76 4.97 3.128 5.152c.92 1.84-.92 2.576-1.84 1.104l-2.576-4.049-2.392 4.049c-1.105 1.472-2.577.184-1.84-1.104Z"/><path fill="#000" d="M40.67 8.834c1.105-2.945 5.522-2.945 6.626 0H40.67ZM56.681 6.441c-4.784 0-4.6 6.441 0 6.441s4.049-6.44 0-6.44ZM69.379 6.441c-4.785 0-4.6 6.441 0 6.441s4.048-6.44 0-6.44ZM78.764 8.834c1.104-2.945 5.521-2.945 6.625 0h-6.625Z"/></svg>