<svg xmlns="http://www.w3.org/2000/svg" width="209" height="86" fill="none"><path fill="#fff" fill-rule="evenodd" d="M0 18.067v18.067h23.034l-.301-17.756L22.432.623 11.216.31 0 0v18.067ZM74.956 1.12c-1.204.497-3.418 2.225-4.92 3.838-2.33 2.505-2.788 4.185-3.12 11.469-.289 6.36.08 9.518 1.449 12.397 5.183 10.91 23.551 8.793 23.551-2.713 0-2.299.493-4.18 1.094-4.18.602 0 1.095-.492 1.095-1.093s-2.75-1.093-6.11-1.093c-4.426 0-5.97.377-5.607 1.366.275.752 1.054 1.244 1.732 1.093.769-.17 1.23 1.562 1.23 4.623 0 4.387-.301 4.971-2.904 5.624-6.442 1.615-9.327-3.44-8.898-15.597.355-10.073 2.262-13.499 7.518-13.499 3.27 0 6.473 2.472 6.473 4.995 0 .859.739 1.561 1.642 1.561 1.1 0 1.641-1.099 1.641-3.333 0-2.771-.64-3.602-3.795-4.917-4.163-1.738-8.685-1.94-12.072-.541ZM26.261 2.262c0 .6.492 1.092 1.094 1.092.675 0 1.094 5.667 1.094 14.816 0 9.599-.385 14.577-1.094 14.14-.602-.372-1.094.092-1.094 1.028 0 1.402 1.56 1.703 8.808 1.703 14.202 0 17.864-3.472 17.864-16.936 0-8.29-1.937-13.26-5.981-15.348C43.393.919 26.262.509 26.262 2.262Zm27.356-.117c0 .536.738 1.259 1.641 1.605 2.426.929 2.426 27.782 0 28.71-3.488 1.338-1.379 2.581 4.377 2.581 4.722 0 6.018-.367 6.018-1.703 0-.936-.492-1.4-1.094-1.028-.709.437-1.094-4.541-1.094-14.14 0-9.149.42-14.816 1.094-14.816.602 0 1.094-.491 1.094-1.092 0-.601-2.708-1.093-6.018-1.093-3.31 0-6.018.44-6.018.976Zm39.392.117c0 .6.74 1.092 1.642 1.092 1.377 0 1.641 2.368 1.641 14.751 0 10.36-.366 14.67-1.23 14.478-.678-.15-1.457.342-1.733 1.093-.368.998 1.31 1.365 6.246 1.365s6.614-.367 6.246-1.365c-.276-.75-1.055-1.244-1.732-1.093-.865.192-1.231-4.118-1.231-14.478 0-12.383.263-14.75 1.641-14.75.903 0 1.641-.492 1.641-1.093 0-.608-2.918-1.093-6.565-1.093-3.647 0-6.566.485-6.566 1.093Zm13.796.636c-1.111 2.89-.749 4.827.903 4.827.863 0 1.88-.983 2.262-2.185.444-1.397 1.656-2.186 3.356-2.186h2.663v14.751c0 9.105-.42 14.751-1.095 14.751-.602 0-1.094.492-1.094 1.093 0 .6 2.708 1.093 6.018 1.093 5.725 0 7.997-1.496 4.377-2.883-1.341-.514-1.641-3.203-1.641-14.717V3.354h2.727c1.541 0 3.32.95 4.092 2.186 1.638 2.619 4.668 2.994 3.693.457-.365-.951-.664-2.426-.664-3.278 0-2.425-24.663-2.254-25.597.179Zm30.011 14.115c-3.013 9.891-5.366 15.843-6.262 15.843-.789 0-1.435.492-1.435 1.093 0 .6 1.776 1.093 3.947 1.093 3.221 0 3.819-.333 3.254-1.807-.382-.993-.15-3.451.514-5.463 1.083-3.275 1.634-3.657 5.275-3.657 3.82 0 4.137.266 5.234 4.37.643 2.404.745 4.371.226 4.371-.518 0-.942.492-.942 1.093 0 .6 2.462 1.093 5.471 1.093 3.01 0 5.472-.492 5.472-1.093s-.458-1.093-1.017-1.093c-.559 0-3.378-7.13-6.264-15.843-3.757-11.346-5.729-15.844-6.946-15.844-1.236 0-3.015 4.318-6.527 15.844Zm22.942-14.751c0 .6.493 1.092 1.094 1.092.676 0 1.095 5.646 1.095 14.751s-.419 14.751-1.095 14.751c-.601 0-1.094.492-1.094 1.093 0 .662 4.742 1.093 12.037 1.093 9.661 0 12.036-.306 12.036-1.55 0-.852.299-2.327.665-3.278.993-2.585-2.536-2.176-3.947.457-.93 1.735-2.292 2.185-6.604 2.185h-5.433v-14.75c0-9.106.419-14.752 1.094-14.752.602 0 1.095-.491 1.095-1.092 0-.601-2.462-1.093-5.472-1.093-3.009 0-5.471.492-5.471 1.093ZM35.016 18.242v14.887l3.556-.686c4.606-.888 7.09-3.98 7.985-9.927C48.108 12.184 44.074 3.354 37.8 3.354h-2.784v14.888Zm105.456-1.892c-1.157 4.325-1.106 4.487 1.384 4.487 2.876 0 3.12-1.247 1.15-5.852l-1.335-3.12-1.199 4.486ZM27.81 42.6c-.94.94-.404 2.276.914 2.274 2.133-.002 1.303 35.392-.871 37.193-2.575 2.134-2.006 4.596.87 3.769 6.966-2.004 8.91-8.86 8.292-29.217-.281-9.241-.046-11.748 1.1-11.746.804.001 1.274-.553 1.049-1.23-.382-1.144-10.34-2.06-11.354-1.044Zm19.242.395c-4.798 2.394-6.716 7.827-6.346 17.976.306 8.405.551 9.217 3.728 12.389 6.307 6.297 17.357 4.195 20.765-3.95 2.109-5.04 1.982-16.193-.24-20.866-2.967-6.245-11.323-8.835-17.907-5.549Zm20.154-.395c-1.017 1.01-.359 2.276 1.184 2.276 1.364 0 1.641 2.115 1.641 12.48 0 11.836.147 12.657 2.833 15.844 2.387 2.833 3.605 3.362 7.732 3.362 9.943 0 12.414-4.107 12.414-20.634 0-7.708.399-11.012 1.368-11.358 1.948-.694.825-1.461-3.282-2.242-2.71-.515-3.557-.292-3.557.936 0 .886.493 1.611 1.094 1.611 1.467 0 1.411 17.94-.072 23.273-1.505 5.413-5.213 7.319-9.184 4.72-1.823-1.193-2.795-2.845-2.825-4.799-.024-1.639-.147-7.528-.274-13.087-.176-7.809.103-10.108 1.23-10.106.803 0 1.26-.598 1.017-1.328-.41-1.225-10.215-2.047-11.319-.949Zm38.115-.135c-4.363.176-7.934.791-7.934 1.366 0 .575.493 1.044 1.095 1.044.673 0 1.094 5.464 1.094 14.205s-.421 14.205-1.094 14.205c-.602 0-1.095.737-1.095 1.639 0 1.237 1.338 1.638 5.472 1.638s5.471-.4 5.471-1.638c0-.902-.493-1.64-1.094-1.64-.602 0-1.095-2.74-1.095-6.089 0-8.052 1.864-7.624 7.496 1.719 4.053 6.722 4.523 7.12 8.789 7.438 5.05.377 6.274-1.765 2.075-3.628-1.339-.593-3.849-3.377-5.58-6.188l-3.147-5.109 3.573-3.188c4.377-3.904 4.806-8.794 1.116-12.716-2.931-3.114-4.74-3.479-15.142-3.058Zm26.261-.078c-3.16.393-5.234 2.489-2.462 2.489.673 0 1.095 5.463 1.095 14.204s-.422 14.205-1.095 14.205c-.601 0-1.094.737-1.094 1.639 0 1.145 1.156 1.638 3.83 1.638 2.575 0 3.83-.507 3.83-1.548 0-.85-.512-1.717-1.137-1.926-.714-.237-1.019-4.394-.821-11.153l.316-10.774 7.113 12.676c9.965 17.76 10.942 17.48 10.942-3.118 0-9.834.415-15.843 1.095-15.843.602 0 1.094-.64 1.094-1.42 0-.979-1.188-1.282-3.83-.974-2.106.246-3.83.886-3.83 1.42 0 .535.493.974 1.095.974.646 0 1.089 3.908 1.083 9.56l-.011 9.561-6.58-11.2c-3.618-6.16-6.691-11.12-6.828-11.025-.137.096-1.849.374-3.805.616Zm36.176.522c-.613.78-2.973 7.566-5.245 15.078-2.271 7.512-4.806 14.205-5.631 14.871-2.628 2.126-1.635 3.704 2.33 3.704 2.674 0 3.83-.493 3.83-1.638 0-.902-.447-1.64-.992-1.64-.558 0-.478-1.672.183-3.824 1.069-3.478 1.545-3.824 5.262-3.824 3.536 0 4.237.432 5.205 3.204.616 1.761.852 4.22.527 5.463-.542 2.067-.115 2.26 5.006 2.26 5.358 0 7.466-1.539 3.954-2.885-.973-.373-3.493-6.501-6.163-14.99-4.802-15.261-6.351-18.22-8.266-15.78Zm17.168.6c.001.752.493 1.367 1.095 1.367.673 0 1.094 5.463 1.094 14.204s-.421 14.205-1.094 14.205c-.602 0-1.094.737-1.094 1.639 0 1.357 2.067 1.638 12.036 1.638H209v-3.277c0-3.431-1.804-4.456-2.887-1.64-.453 1.177-2.295 1.64-6.531 1.64h-5.901V59.08c0-9.47.395-14.204 1.185-14.204.652 0 1-.556.774-1.233-.587-1.758-10.716-1.884-10.714-.133ZM49.101 46.683c-2.042 2.456-2.705 19.105-.93 23.384 1.812 4.366 5.95 5.388 9.096 2.246 1.918-1.916 2.427-3.928 2.741-10.852.508-11.148-1.525-16.584-6.2-16.584-1.763 0-3.881.812-4.707 1.806Zm57.04 4.75c0 6.52.018 6.555 3.205 6.555 4.907 0 7.388-3.236 6.697-8.74-.303-2.428-3.341-4.371-6.828-4.371-3.028 0-3.074.099-3.074 6.555Zm60.214 5.928c-1.639 4.305-1.423 4.998 1.554 4.998 2.539 0 2.616-.186 1.479-3.551-1.617-4.785-1.739-4.844-3.033-1.447Z" clip-rule="evenodd" opacity=".6"/></svg>