<svg xmlns="http://www.w3.org/2000/svg" width="77" height="77" fill="none"><path fill="#fff" fill-rule="evenodd" d="M53.845.202c-3.664.823-7.02 4.218-10.447 10.573-.647 1.199-1.228 2.109-1.325 2.075a273.95 273.95 0 0 0-2.335-.745l-2.162-.684-.948.406c-.632.271-.981.352-1.048.245l-.976-1.588c-.482-.784-1.493-2.198-2.247-3.141-2.948-3.687-5.942-5.558-8.897-5.558-1.925 0-3.377.576-5.264 2.089-1.768 1.417-3.597 3.737-4.713 5.978-1.038 2.085-1.296 3.168-1.289 5.414.006 1.752.05 2.082.424 3.137.229.649.394 1.201.367 1.228-.083.08-6.411 1.535-9.531 2.192-1.601.337-2.968.669-3.037.739-.239.241 2.555 14.714 2.88 14.917.098.061.713.234 1.366.385.965.222 1.2.333 1.254.587.037.172.776 6.211 1.644 13.418L9.25 65.182c.109.202 1.005.532 7.829 2.882l3.248 1.119v.622c0 1.056 1.204 2.396 2.788 3.105.982.439 2.588.533 3.673.215.814-.239.84-.262.884-.82l.046-.574 7.615 2.631L43.17 77c.123.005 2.461-1.598 5.196-3.561l5.039-3.57c.037 0 .067.203.067.452 0 .309.074.452.233.452.477 0 2.774-1.235 3.926-2.111 1.73-1.315 2.508-2.238 2.633-3.124l.101-.715 3.492-2.485c3.001-2.136 3.503-2.549 3.573-2.937.045-.248.72-5.163 1.501-10.921l1.602-11.731.184-1.262 1.668-.912 1.669-.912.456-1.591c1.035-3.612 1.695-6.667 2.03-9.4.297-2.419.293-3.354-.013-3.473-.13-.05-.987-.092-1.904-.093a48.24 48.24 0 0 1-3.385-.149c-1.728-.149-5.863-.621-5.938-.678-.022-.017.16-.464.405-.995a9.23 9.23 0 0 0 .92-4.229c.009-3.24-1.354-6.237-4.193-9.218C60.357 1.656 58.408.449 56.458.135c-1.201-.193-1.488-.186-2.613.067zm-.672.863c-1.227.434-2.052.929-3.32 1.99-2.382 1.994-5.208 6.229-7.337 10.996-1.118 2.503-1.119 2.508-.489 2.85.283.153.767.54 1.076.859l.562.581.839-1.462C48.75 9.48 53.302 5.961 57.797 6.604c1.257.18 2.29.56 3.332 1.228.942.603 2.347 1.905 2.347 2.175 0 .451-.358.349-1.043-.298-1.052-.993-2.449-1.859-3.553-2.203-1.575-.491-1.526-.527-1.526 1.138 0 3.087-.566 5.974-1.528 7.795-.57 1.079-1.674 2.108-2.605 2.428-.813.279-2.303.312-3.303.072-.736-.177-3.366-1.398-4.138-1.922l-.452-.306-.613 1.11-.613 1.11.351.594c.407.688 1.195 2.983 1.341 3.905.111.704.064.681 1.931.946 1.387.197 4.396.194 5.85-.006 4.235-.582 7.905-2.426 10.099-5.073.9-1.086 1.968-3.28 2.205-4.53.24-1.27.094-3.453-.315-4.697-.773-2.349-2.171-4.459-4.324-6.527-1.068-1.026-1.646-1.443-2.779-2.011-1.367-.685-1.494-.718-2.872-.763-1.198-.039-1.606.011-2.413.296zm-31.338 1.55c-2.42.686-4.762 2.718-6.897 5.985-1.627 2.489-2.421 5.389-2.112 7.717.595 4.482 4.078 7.813 9.559 9.139 3.072.743 7.449.574 10.893-.42.595-.172.798-.305.844-.555.033-.181.141-.87.24-1.533s.299-1.592.445-2.065l.265-.86-.686-1.136c-.377-.625-.738-1.136-.802-1.136s-.571.315-1.126.7c-3.605 2.502-6.571 2.779-8.526.797-1.567-1.589-2.711-5.54-2.711-9.366v-.757l-.56.091c-1.092.178-2.663 1.113-3.974 2.365-1.068 1.02-1.281 1.164-1.438.974s-.008-.407.875-1.326c3.619-3.765 8.153-3.825 12.685-.167 1.824 1.473 4.245 4.392 5.824 7.024.384.64.733 1.165.776 1.167s.206-.236.362-.528.584-.812.952-1.153l.667-.621-.635-1.295c-2.831-5.773-6.221-10.158-9.296-12.029-1.775-1.079-3.984-1.477-5.623-1.013zm33.02 4.824c-2.781.756-5.811 3.448-8.368 7.437l-.812 1.267.352.271c.194.149.957.577 1.696.951 5.408 2.738 8.32.463 8.888-6.944.082-1.064.106-2.222.055-2.574-.087-.6-.122-.64-.561-.63-.258.005-.82.105-1.25.222zM21.949 9.203c-.068.66.071 2.96.248 4.111.394 2.558 1.013 4.156 2.051 5.292 1.027 1.124 2.068 1.482 3.59 1.235 1.393-.226 3.636-1.323 4.926-2.408l.468-.394-.836-1.121c-2.705-3.626-5.162-5.686-7.785-6.528-1.262-.405-2.629-.501-2.662-.186zm14.707 3.306-.616.313.976 1.945c.774 1.543 1.025 1.923 1.213 1.839.131-.058.768-.146 1.416-.195l1.178-.09.578-1.347c.318-.741.527-1.392.465-1.448-.18-.16-4.012-1.348-4.317-1.338-.152.005-.553.15-.892.322zm1.848 4.704c-2.067.744-3.277 3.188-3.709 7.493-.097.967-.137 1.861-.089 1.987.135.356 1.973.861 3.475.956.99.062 1.676.015 2.538-.173 1.35-.295 3.351-1.227 4.174-1.944l.56-.488-.304-1.426c-.926-4.336-2.807-6.634-5.412-6.612a4.48 4.48 0 0 0-1.232.208zm25.697 2.449c-1.127 1.474-3.589 3.233-5.688 4.064-.903.357-.998.429-.692.52l3.519 1.097 3.164.992 2.584-1.451 2.879-1.656c.414-.288.676-.255.676.085 0 .281-1.43 1.179-4.73 2.969l-1.072.582-.087 1.054-.383 4.67-.395 4.657-.099 1.042 3.794-1.967 4.829-2.548 1.035-.581.644-2.335c.965-3.499 1.59-6.815 1.909-10.13l.083-.866h-.444c-1.352 0-6.04-.371-8.306-.657l-2.616-.33-.603.789zm-53.777 1.262a244.7 244.7 0 0 1-6.047 1.357c-1.699.354-3.15.698-3.226.764-.138.12.872 5.805 1.987 11.193l.56 2.704 7.363 1.857 7.442 1.778c.075-.076-.326-8.295-.517-10.589l-.091-1.093-1.734-.538c-6.293-1.953-7.482-2.374-7.482-2.649 0-.151.101-.274.224-.274s1.249.333 2.501.739l4.539 1.431 2.262.692.948-.542a56.8 56.8 0 0 1 1.989-1.073l1.041-.531-1.314-.432c-2.705-.889-5.171-2.494-6.499-4.226l-.801-1.041c-.168-.215-.48-.168-3.146.474zm44.616 3.844c-2.363.525-5.628.569-8.473.114-.522-.084-.56-.064-.56.29 0 .301-.217.529-1.049 1.103-.679.468-.982.759-.858.825.17.091 5.919 1.824 10.568 3.185l1.717.503-.041 1.05c-.276 7.014-1.955 35.464-2.207 37.39-.062.476-.033.64.116.64.352 0 2.493-1.311 3.554-2.176 1.747-1.424 1.66-1.197 2.438-6.335 1.944-12.834 3.037-22.393 3.872-33.857l.041-.567-2.02-.662c-3.109-1.018-5.605-1.745-5.917-1.724-.156.011-.686.109-1.179.219zm-22.247 1.06c-2.399.665-5.987.957-8.262.674l-1.394-.174-2.115 1.15c-1.163.632-2.19 1.227-2.282 1.323-.12.124-.13.806-.036 2.433l.505 8.737L21.01 69.7c.076.696.177.898.734 1.46 1.254 1.265 3.136 1.852 4.629 1.444l.597-.163-.049-16.16.054-20.703.103-4.544 2.559-1.206 3.753-1.755c.985-.452 1.149-.574.933-.697-.199-.113-.261-.345-.261-.97 0-.929.001-.929-1.269-.577zm8.959 2.042c-1.291.43-3.583.529-5.095.219l-1.201-.245-3.564 1.649c-1.96.907-3.466 1.684-3.347 1.726.467.165 5.124 1.39 10.895 2.864 4.974 1.271 6.115 1.517 6.42 1.387a669.72 669.72 0 0 0 7.977-3.715l1.335-.64-1.484-.438-5.983-1.787c-2.475-.742-4.625-1.342-4.778-1.334s-.681.149-1.174.313zm12.169 4.546c-.862.432-3.027 1.461-4.811 2.286l-3.243 1.5-.157.754c-.89 4.265-.939 4.444-1.218 4.444-.366 0-.356-.156.172-2.636.246-1.158.448-2.212.448-2.342 0-.184-.716-.414-3.173-1.022l-8.662-2.236-5.545-1.39c-.031.034-.08 2.566-.11 5.627l-.055 5.566 7.615 1.92 7.931 1.928c.765.02 5.785-1.752 9.866-3.482l2.12-.899.077-.63c.042-.346.148-2.155.234-4.019l.25-4.783c.052-.782.034-1.389-.04-1.383s-.838.364-1.7.797zm12.817 5.118-2.935 1.531-.087.753c-.964 8.372-2.899 22.907-3.164 23.762-.045.145-.046.264-.003.264s1.454-.985 3.135-2.188c2.441-1.748 3.073-2.271 3.139-2.598.142-.706 3.075-22.408 3.075-22.753 0-.18-.05-.322-.112-.315s-1.433.702-3.047 1.544zM6.634 38.952c.046.311.769 6.225 1.607 13.143l1.64 12.708c.12.135 9.953 3.561 10.22 3.561.1 0 .118-.581.052-1.695L18.6 41.422c-.053-.059-11.71-3.024-11.918-3.03-.072-.002-.094.25-.049.561zm47.637 4.546c-1.785.818-5.491 2.25-8.058 3.114l-2.899.976-7.853-1.965-7.91-1.965c-.098 0-.061 25.319.038 26.376l.093.995 7.742 2.665 7.742 2.665 5.066-3.628 5.205-3.81c.077-.1.251-1.876.388-3.947l1.289-21.653c.001-.169-.16-.135-.843.178z"/></svg>