<svg xmlns="http://www.w3.org/2000/svg" width="102" height="102" fill="none"><path fill="#fff" fill-rule="evenodd" d="M71.39.267c-4.895 1.09-9.377 5.588-13.956 14.005-.864 1.588-1.64 2.794-1.77 2.748s-1.53-.489-3.118-.987l-2.888-.905-1.266.538c-.844.359-1.311.467-1.4.324l-1.303-2.103c-.643-1.039-1.994-2.911-3.001-4.161-3.938-4.885-7.937-7.362-11.885-7.362-2.571 0-4.511.764-7.032 2.768-2.362 1.878-4.805 4.951-6.296 7.919-1.387 2.762-1.731 4.197-1.721 7.171.008 2.321.067 2.758.566 4.156.306.859.527 1.591.49 1.627-.111.107-8.564 2.034-12.732 2.903-2.139.446-3.964.887-4.057.98-.319.319 3.413 19.492 3.847 19.76.131.081.952.31 1.824.51 1.289.295 1.603.44 1.675.778.049.228 1.037 8.227 2.196 17.775l2.257 17.635c.146.268 1.342.704 10.458 3.818l4.338 1.482v.824c0 1.398 1.608 3.174 3.724 4.113 1.312.582 3.457.706 4.907.285 1.087-.316 1.121-.348 1.181-1.086l.061-.761 10.172 3.485L57.129 102c.164.006 3.288-2.117 6.941-4.717l6.731-4.729c.05 0 .09.269.09.599 0 .409.098.599.311.599.637 0 3.705-1.636 5.245-2.796 2.311-1.742 3.35-2.965 3.517-4.139l.135-.947 4.664-3.292c4.008-2.83 4.679-3.377 4.773-3.891.06-.329.962-6.839 2.004-14.466l2.141-15.54.246-1.672 2.229-1.208 2.229-1.209.609-2.108c1.383-4.785 2.264-8.831 2.712-12.452.397-3.205.392-4.443-.016-4.6-.174-.067-1.318-.122-2.543-.123s-3.26-.09-4.521-.197c-2.308-.197-7.832-.822-7.931-.898-.029-.022.214-.615.541-1.317.887-1.907 1.223-3.436 1.229-5.602.012-4.292-1.809-8.262-5.601-12.211-2.776-2.89-5.379-4.49-7.984-4.905-1.604-.256-1.988-.246-3.49.088zm-.897 1.143c-1.639.575-2.741 1.23-4.434 2.636-3.182 2.641-6.957 8.252-9.801 14.567-1.493 3.316-1.494 3.323-.654 3.775.378.203 1.024.716 1.437 1.139l.751.769 1.121-1.937C64.586 12.557 70.666 7.897 76.67 8.748c1.679.238 3.059.742 4.45 1.626 1.259.799 3.135 2.524 3.135 2.882 0 .597-.478.462-1.394-.395-1.405-1.315-3.271-2.462-4.746-2.918-2.103-.65-2.038-.698-2.038 1.507 0 4.089-.756 7.914-2.041 10.326-.761 1.43-2.237 2.793-3.481 3.217-1.086.37-3.077.413-4.412.095-.982-.234-4.496-1.852-5.528-2.546l-.603-.405-.819 1.471-.819 1.471.469.786c.543.911 1.596 3.952 1.791 5.173.149.933.086.902 2.579 1.253 1.853.261 5.872.256 7.814-.008 5.658-.771 10.56-3.213 13.49-6.72 1.202-1.439 2.628-4.345 2.945-6.001.321-1.682.126-4.575-.421-6.222-1.032-3.112-2.899-5.907-5.776-8.646-1.427-1.359-2.198-1.912-3.712-2.664-1.827-.907-1.996-.952-3.837-1.011-1.6-.052-2.146.015-3.223.393zM28.631 3.464c-3.232.908-6.362 3.601-9.214 7.928-2.174 3.298-3.234 7.139-2.821 10.222.794 5.938 5.447 10.349 12.769 12.106 4.104.984 9.95.761 14.551-.556.794-.227 1.066-.404 1.127-.735a104.49 104.49 0 0 0 .32-2.031c.132-.878.4-2.109.595-2.735l.354-1.139-.916-1.505c-.504-.828-.986-1.505-1.072-1.505s-.762.418-1.504.928c-4.815 3.314-8.778 3.681-11.389 1.056-2.093-2.105-3.621-7.339-3.621-12.407v-1.003l-.748.121c-1.458.236-3.557 1.474-5.308 3.132-1.427 1.351-1.712 1.542-1.921 1.29-.205-.247-.011-.54 1.169-1.756 4.834-4.988 10.891-5.067 16.944-.222 2.437 1.951 5.671 5.819 7.78 9.304.513.848.979 1.544 1.037 1.546s.275-.312.484-.7.781-1.076 1.271-1.527l.892-.822-.848-1.715c-3.782-7.647-8.31-13.456-12.418-15.934-2.371-1.43-5.322-1.957-7.512-1.341zm44.108 6.39c-3.715 1.001-7.762 4.568-11.178 9.851l-1.085 1.679.471.358c.259.197 1.279.765 2.266 1.26 7.224 3.627 11.113.614 11.872-9.198.109-1.409.142-2.944.074-3.41-.117-.795-.164-.847-.75-.835-.344.007-1.095.14-1.67.295zM28.782 12.19c-.091.874.095 3.921.331 5.446.526 3.389 1.354 5.506 2.74 7.011 1.372 1.489 2.763 1.963 4.796 1.635 1.861-.3 4.858-1.753 6.58-3.19l.625-.522-1.117-1.485c-3.613-4.803-6.895-7.532-10.4-8.648-1.686-.537-3.512-.664-3.556-.246zm19.646 4.38-.823.414 1.303 2.576c1.034 2.044 1.369 2.547 1.621 2.437.174-.077 1.025-.193 1.891-.259l1.573-.119.772-1.784c.425-.981.704-1.845.621-1.918-.24-.212-5.359-1.786-5.766-1.772-.203.007-.739.199-1.191.426zm2.468 6.231c-2.762.986-4.377 4.222-4.955 9.925-.13 1.28-.183 2.465-.119 2.633.181.472 2.636 1.141 4.642 1.266 1.322.082 2.239.021 3.391-.229 1.804-.391 4.476-1.625 5.575-2.576l.747-.646-.407-1.889c-1.236-5.744-3.749-8.788-7.23-8.759-.494.004-1.234.128-1.646.275zm34.327 3.244c-1.506 1.953-4.794 4.282-7.599 5.383-1.206.473-1.333.568-.924.689l4.701 1.454 4.227 1.314 3.452-1.922 3.845-2.193c.552-.381.903-.337.903.113 0 .373-1.91 1.562-6.319 3.933l-1.432.771-.116 1.397-.512 6.186-.528 6.169-.132 1.38 5.068-2.605 6.45-3.375 1.382-.77.86-3.093c1.289-4.635 2.124-9.027 2.55-13.419l.112-1.147h-.594c-1.806 0-8.067-.491-11.094-.87l-3.494-.437-.806 1.045zm-71.836 1.671a329.45 329.45 0 0 1-8.078 1.798c-2.269.469-4.208.925-4.309 1.012-.184.159 1.164 7.69 2.654 14.827l.748 3.582 9.835 2.461 9.941 2.355c.101-.101-.435-10.989-.69-14.027l-.122-1.449-2.316-.713c-8.406-2.587-9.994-3.145-9.994-3.51 0-.2.135-.363.299-.363s1.668.441 3.341.979l6.064 1.896 3.022.916 1.266-.718a77.274 77.274 0 0 1 2.656-1.422l1.391-.703-1.756-.572c-3.613-1.178-6.908-3.303-8.681-5.598l-1.071-1.379c-.225-.285-.641-.223-4.202.628zm59.598 5.092c-3.156.696-7.518.754-11.319.151-.698-.111-.748-.085-.748.385 0 .399-.29.701-1.401 1.461-.907.62-1.312 1.006-1.147 1.093.227.121 7.906 2.416 14.116 4.219l2.294.666-.055 1.392c-.368 9.292-2.612 46.978-2.949 49.53-.083.63-.044.848.154.848.47 0 3.33-1.736 4.748-2.882 2.334-1.886 2.217-1.586 3.256-8.392 2.596-17.002 4.057-29.663 5.173-44.849l.055-.752-2.698-.876c-4.153-1.349-7.486-2.312-7.904-2.283-.208.014-.917.145-1.575.29zm-29.718 1.404c-3.205.881-7.998 1.268-11.037.892l-1.862-.23-2.825 1.523c-1.554.837-2.925 1.626-3.048 1.752-.161.165-.174 1.068-.048 3.222l.675 11.573 2.406 39.381c.101.922.236 1.189.98 1.933 1.675 1.676 4.189 2.454 6.183 1.913l.798-.216-.065-21.406.072-27.425.137-6.019 3.418-1.598 5.013-2.325c1.316-.599 1.535-.761 1.247-.923-.266-.15-.349-.457-.349-1.284 0-1.231.001-1.23-1.695-.764zm11.967 2.706c-1.725.569-4.786.7-6.806.291l-1.605-.325-4.76 2.185c-2.618 1.202-4.63 2.231-4.47 2.287.624.219 6.844 1.841 14.553 3.794 6.644 1.684 8.168 2.01 8.576 1.838.722-.305 8.566-3.929 10.656-4.922l1.783-.848-1.983-.58-7.993-2.367c-3.306-.983-6.178-1.778-6.382-1.767s-.91.198-1.569.415zm16.255 6.022a302.85 302.85 0 0 1-6.426 3.028l-4.332 1.987-.21.999c-1.188 5.65-1.254 5.887-1.627 5.887-.489 0-.476-.206.229-3.492.329-1.533.598-2.93.598-3.102 0-.243-.956-.549-4.238-1.354l-11.57-2.962-7.407-1.841c-.041.044-.107 3.399-.147 7.454l-.073 7.373 10.172 2.543 10.595 2.554c1.022.026 7.728-2.321 13.179-4.613l2.832-1.191.103-.834c.056-.459.197-2.854.313-5.324l.334-6.335c.069-1.036.046-1.84-.054-1.832s-1.119.483-2.271 1.056zm17.121 6.78-3.921 2.029-.116.998c-1.288 11.09-3.873 30.345-4.226 31.477-.06.192-.062.349-.004.349s1.942-1.304 4.187-2.898c3.261-2.315 4.105-3.008 4.193-3.442.19-.936 4.108-29.683 4.108-30.14 0-.239-.067-.426-.15-.417s-1.914.929-4.07 2.045zM8.324 51.599c.061.412 1.027 8.246 2.147 17.41l2.191 16.833c.16.179 13.295 4.717 13.652 4.717.133 0 .157-.769.07-2.245l-2.076-33.443c-.07-.079-15.643-4.005-15.92-4.014-.096-.003-.125.331-.065.743zm63.634 6.022c-2.384 1.083-7.335 2.98-10.764 4.125l-3.873 1.293-10.49-2.602-10.567-2.602c-.13 0-.082 33.539.05 34.94l.124 1.317 10.342 3.53 10.342 3.529 6.767-4.806 6.953-5.047c.102-.132.336-2.485.518-5.229l1.722-28.683c.002-.224-.214-.179-1.126.235z"/></svg>