<svg xmlns="http://www.w3.org/2000/svg" width="746" height="796" fill="none"><style>.B{fill:#505050}.C{color-interpolation-filters:sRGB}.D{flood-opacity:0}</style><g opacity=".8"><g stroke="#505050" stroke-width=".6"><path d="m118.747 638.595 292.557 217.361M118.747 638.595l502.275-27.753M410.293 855.247 539.31 488.628m0 0L118.747 638.595M118.747 638.595l26.49-248.461m0 .001L225.82 86.089M226.121 87.809l-274.09-86.72M-47.969 1.089l400.571 342.945m0 0-207.365 46.101m207.365-46.101 266.7 267.11M619.302 611.144 539.31 488.628M619.302 611.143 386.535 487.035m0 .001-33.933-143.003m33.932 143.003 23.759 368.21m-23.759-368.21L118.747 638.595m233.855-294.561L225.11 87.1m0 0L-31.645 235.839m0 0L-46.958 1.799M-31.645 235.839l384.247 108.195"/></g><circle cx="-31.645" cy="235.839" r="7.41" transform="rotate(305.058 -31.645 235.839)" class="B"/><g filter="url(#A)" class="B"><circle cx="226.121" cy="87.809" r="7.41" transform="rotate(305.058 226.121 87.809)"/></g><g filter="url(#B)" class="B"><circle cx="348.86" cy="342.916" r="7.41" transform="rotate(305.058 348.86 342.916)"/></g><g filter="url(#C)" class="B"><circle cx="385.116" cy="489.058" r="7.41" transform="rotate(305.058 385.116 489.058)"/></g><g filter="url(#D)" class="B"><circle cx="539.31" cy="488.627" r="7.41" transform="rotate(305.058 539.31 488.627)"/></g><g filter="url(#E)" class="B"><circle cx="619.302" cy="611.144" r="7.41" transform="rotate(305.058 619.302 611.144)"/></g><g filter="url(#F)" class="B"><circle cx="120.467" cy="638.293" r="7.41" transform="rotate(305.058 120.467 638.293)"/></g><g filter="url(#G)" class="B"><circle cx="146.248" cy="390.844" r="7.41" transform="rotate(305.058 146.248 390.844)"/></g></g><defs><filter id="A" x="198.711" y="60.398" width="54.822" height="54.822" filterUnits="userSpaceOnUse" class="C"><feFlood result="A" class="D"/><feColorMatrix in="SourceAlpha" values="0 0 0 0 0 0 0 0 0 0 0 0 0 0 0 0 0 0 127 0" result="B"/><feOffset/><feGaussianBlur stdDeviation="10"/><feComposite in2="B" operator="out"/><feColorMatrix values="0 0 0 0 1 0 0 0 0 1 0 0 0 0 1 0 0 0 0.02 0"/><feBlend in2="A"/><feBlend in="SourceGraphic"/><feGaussianBlur stdDeviation="5"/></filter><filter id="B" x="321.449" y="315.506" width="54.822" height="54.822" filterUnits="userSpaceOnUse" class="C"><feFlood result="A" class="D"/><feColorMatrix in="SourceAlpha" values="0 0 0 0 0 0 0 0 0 0 0 0 0 0 0 0 0 0 127 0" result="B"/><feOffset/><feGaussianBlur stdDeviation="10"/><feComposite in2="B" operator="out"/><feColorMatrix values="0 0 0 0 1 0 0 0 0 1 0 0 0 0 1 0 0 0 0.02 0"/><feBlend in2="A"/><feBlend in="SourceGraphic"/><feGaussianBlur stdDeviation="5"/></filter><filter id="C" x="357.705" y="461.647" width="54.822" height="54.822" filterUnits="userSpaceOnUse" class="C"><feFlood result="A" class="D"/><feColorMatrix in="SourceAlpha" values="0 0 0 0 0 0 0 0 0 0 0 0 0 0 0 0 0 0 127 0" result="B"/><feOffset/><feGaussianBlur stdDeviation="10"/><feComposite in2="B" operator="out"/><feColorMatrix values="0 0 0 0 1 0 0 0 0 1 0 0 0 0 1 0 0 0 0.02 0"/><feBlend in2="A"/><feBlend in="SourceGraphic"/><feGaussianBlur stdDeviation="5"/></filter><filter id="D" x="511.899" y="461.217" width="54.822" height="54.822" filterUnits="userSpaceOnUse" class="C"><feFlood result="A" class="D"/><feColorMatrix in="SourceAlpha" values="0 0 0 0 0 0 0 0 0 0 0 0 0 0 0 0 0 0 127 0" result="B"/><feOffset/><feGaussianBlur stdDeviation="10"/><feComposite in2="B" operator="out"/><feColorMatrix values="0 0 0 0 1 0 0 0 0 1 0 0 0 0 1 0 0 0 0.02 0"/><feBlend in2="A"/><feBlend in="SourceGraphic"/><feGaussianBlur stdDeviation="5"/></filter><filter id="E" x="591.891" y="583.733" width="54.822" height="54.822" filterUnits="userSpaceOnUse" class="C"><feFlood result="A" class="D"/><feColorMatrix in="SourceAlpha" values="0 0 0 0 0 0 0 0 0 0 0 0 0 0 0 0 0 0 127 0" result="B"/><feOffset/><feGaussianBlur stdDeviation="10"/><feComposite in2="B" operator="out"/><feColorMatrix values="0 0 0 0 1 0 0 0 0 1 0 0 0 0 1 0 0 0 0.02 0"/><feBlend in2="A"/><feBlend in="SourceGraphic"/><feGaussianBlur stdDeviation="5"/></filter><filter id="F" x="93.057" y="610.883" width="54.822" height="54.822" filterUnits="userSpaceOnUse" class="C"><feFlood result="A" class="D"/><feColorMatrix in="SourceAlpha" values="0 0 0 0 0 0 0 0 0 0 0 0 0 0 0 0 0 0 127 0" result="B"/><feOffset/><feGaussianBlur stdDeviation="10"/><feComposite in2="B" operator="out"/><feColorMatrix values="0 0 0 0 1 0 0 0 0 1 0 0 0 0 1 0 0 0 0.02 0"/><feBlend in2="A"/><feBlend in="SourceGraphic"/><feGaussianBlur stdDeviation="5"/></filter><filter id="G" x="118.837" y="363.433" width="54.822" height="54.822" filterUnits="userSpaceOnUse" class="C"><feFlood result="A" class="D"/><feColorMatrix in="SourceAlpha" values="0 0 0 0 0 0 0 0 0 0 0 0 0 0 0 0 0 0 127 0" result="B"/><feOffset/><feGaussianBlur stdDeviation="10"/><feComposite in2="B" operator="out"/><feColorMatrix values="0 0 0 0 1 0 0 0 0 1 0 0 0 0 1 0 0 0 0.02 0"/><feBlend in2="A"/><feBlend in="SourceGraphic"/><feGaussianBlur stdDeviation="5"/></filter></defs></svg>