<svg xmlns="http://www.w3.org/2000/svg" width="70" height="71" fill="none"><path fill="#fff" fill-rule="evenodd" d="M48.993.186c-3.36.758-6.435 3.89-9.577 9.749-.593 1.105-1.126 1.944-1.215 1.913-.087-.032-1.05-.34-2.14-.688l-1.982-.63-.869.375c-.579.25-.9.325-.96.225-.051-.082-.454-.74-.895-1.464-.442-.723-1.369-2.026-2.06-2.896-2.702-3.4-5.447-5.125-8.156-5.125-1.765 0-3.096.532-4.826 1.927-1.621 1.307-3.298 3.446-4.321 5.512-.952 1.923-1.188 2.921-1.181 4.992.005 1.616.046 1.92.388 2.893.21.598.362 1.108.336 1.133-.076.074-5.877 1.415-8.737 2.02-1.468.31-2.721.617-2.785.682-.219.223 2.343 13.568 2.64 13.754.09.057.654.216 1.252.355.885.205 1.1.307 1.15.542.034.159.711 5.726 1.507 12.372.795 6.646 1.492 12.17 1.548 12.276.1.186.921.49 7.177 2.657l2.977 1.032v.573c0 .974 1.104 2.21 2.556 2.863.9.405 2.372.492 3.367.198.746-.22.77-.242.81-.756l.043-.53 6.98 2.426c3.84 1.334 7.073 2.43 7.186 2.434.113.004 2.257-1.473 4.763-3.284 2.507-1.81 4.586-3.291 4.62-3.291.034 0 .062.188.062.417 0 .285.067.416.213.416.438 0 2.543-1.138 3.6-1.946 1.585-1.212 2.299-2.063 2.413-2.88l.093-.66 3.201-2.292c2.75-1.97 3.211-2.35 3.276-2.708.041-.23.66-4.76 1.375-10.07.716-5.31 1.377-10.177 1.47-10.817l.168-1.163 1.53-.841 1.53-.842.417-1.467c.949-3.33 1.554-6.147 1.862-8.668.272-2.23.269-3.093-.012-3.202-.12-.046-.904-.085-1.745-.085-.84 0-2.237-.063-3.103-.138-1.584-.137-5.375-.572-5.443-.625-.02-.015.147-.428.371-.917.609-1.327.839-2.392.843-3.9.008-2.987-1.241-5.75-3.844-8.499-1.903-2.011-3.69-3.124-5.478-3.414-1.1-.178-1.364-.17-2.395.062Zm-.616.795c-1.125.4-1.881.857-3.043 1.835-2.184 1.839-4.775 5.744-6.726 10.14-1.025 2.307-1.025 2.312-.449 2.627.26.142.703.498.987.793l.515.535.769-1.348C44.323 8.74 48.496 5.496 52.616 6.09c1.152.166 2.099.517 3.054 1.132.864.556 2.151 1.757 2.151 2.006 0 .415-.328.321-.956-.275-.964-.915-2.245-1.714-3.257-2.031-1.443-.452-1.398-.486-1.398 1.05 0 2.845-.52 5.508-1.401 7.187-.523.995-1.535 1.944-2.389 2.239-.745.257-2.111.287-3.028.066-.674-.163-3.086-1.29-3.794-1.773l-.413-.282-.562 1.024-.562 1.023.321.548c.373.634 1.095 2.75 1.23 3.6.101.65.058.629 1.77.873 1.27.181 4.03.178 5.362-.006 3.882-.537 7.247-2.237 9.257-4.677.826-1.002 1.804-3.025 2.021-4.177.22-1.171.087-3.185-.288-4.332-.709-2.166-1.99-4.111-3.965-6.018-.979-.946-1.508-1.331-2.547-1.854-1.254-.632-1.37-.663-2.633-.704-1.099-.036-1.473.01-2.212.273Zm-28.729 1.43c-2.218.633-4.365 2.507-6.323 5.519-1.491 2.295-2.219 4.969-1.936 7.115.545 4.133 3.739 7.204 8.763 8.427 2.816.685 6.829.53 9.986-.387.545-.159.732-.282.774-.512.03-.166.13-.802.22-1.413a16 16 0 0 1 .408-1.904l.243-.793-.629-1.048c-.346-.576-.677-1.047-.735-1.047-.059 0-.523.29-1.032.646-3.305 2.306-6.024 2.562-7.816.735-1.437-1.465-2.485-5.11-2.485-8.637v-.697l-.514.084c-1 .164-2.44 1.026-3.642 2.18-.98.94-1.175 1.074-1.319.898-.14-.172-.007-.376.802-1.222 3.318-3.472 7.474-3.527 11.629-.155 1.672 1.358 3.892 4.05 5.339 6.477.351.59.672 1.074.711 1.076.04.002.189-.217.332-.487.143-.27.536-.749.872-1.063l.612-.573-.582-1.194C30.73 9.114 27.623 5.07 24.804 3.346c-1.628-.995-3.652-1.362-5.156-.934ZM49.92 6.86c-2.55.697-5.327 3.18-7.671 6.858l-.745 1.168.323.25c.178.137.878.532 1.555.877 4.958 2.524 7.627.427 8.148-6.403.074-.98.097-2.049.05-2.373-.08-.554-.112-.59-.514-.582-.236.005-.752.098-1.146.205ZM19.752 8.486c-.062.608.065 2.73.228 3.79.36 2.36.929 3.833 1.88 4.88.941 1.037 1.896 1.367 3.291 1.139 1.278-.21 3.334-1.22 4.516-2.221l.43-.364-.768-1.033c-2.48-3.344-4.731-5.243-7.137-6.02-1.157-.374-2.41-.462-2.44-.171Zm13.483 3.048-.565.288.895 1.794c.71 1.422.939 1.773 1.112 1.696.12-.054.704-.135 1.297-.18l1.08-.084.53-1.242c.291-.683.483-1.284.426-1.335-.165-.148-3.678-1.243-3.958-1.234-.139.005-.506.139-.817.297Zm1.694 4.338c-1.896.686-3.004 2.939-3.4 6.908-.09.892-.126 1.716-.082 1.833.124.328 1.809.794 3.186.881.907.058 1.536.015 2.327-.16 1.238-.27 3.071-1.13 3.826-1.792l.513-.45-.28-1.315c-.848-3.998-2.572-6.117-4.96-6.097a4.091 4.091 0 0 0-1.13.192Zm23.557 2.258c-1.033 1.36-3.29 2.98-5.214 3.747-.828.33-.916.396-.635.48.179.053 1.63.508 3.226 1.011l2.901.915 2.37-1.338c1.302-.736 2.49-1.423 2.638-1.527.38-.265.62-.235.62.079 0 .259-1.311 1.087-4.337 2.738l-.983.536-.08.972-.35 4.306a575.51 575.51 0 0 1-.363 4.294l-.09.96 3.477-1.813c1.913-.998 3.905-2.055 4.427-2.35l.948-.536.59-2.152c.885-3.227 1.458-6.284 1.75-9.341l.077-.799h-.407c-1.24 0-5.537-.341-7.614-.605l-2.398-.305-.553.728ZM9.187 19.293c-1.492.362-3.986.925-5.543 1.252-1.557.327-2.888.644-2.957.704-.127.11.799 5.353 1.821 10.321l.513 2.494 6.75 1.713c3.713.942 6.782 1.68 6.822 1.639.07-.07-.298-7.65-.473-9.764l-.084-1.009-1.589-.496c-5.769-1.8-6.859-2.189-6.859-2.443 0-.139.093-.253.205-.253.114 0 1.145.307 2.293.682 1.148.375 3.02.969 4.162 1.32l2.074.637.868-.5c.478-.275 1.298-.72 1.823-.99l.955-.489-1.205-.398c-2.48-.82-4.74-2.3-5.957-3.897-.31-.407-.64-.839-.735-.96-.154-.198-.44-.155-2.884.437Zm40.901 3.545c-2.166.484-5.16.525-7.768.105-.479-.077-.513-.06-.513.268 0 .277-.199.488-.962 1.017-.622.43-.9.7-.787.76.156.085 5.426 1.683 9.688 2.938l1.574.463-.038.969c-.253 6.468-1.792 32.7-2.024 34.477-.057.438-.03.59.106.59.323 0 2.286-1.208 3.259-2.006 1.601-1.313 1.521-1.104 2.234-5.841 1.782-11.835 2.784-20.648 3.55-31.22l.038-.523-1.852-.61c-2.85-.939-5.137-1.609-5.424-1.589-.143.01-.63.1-1.081.202Zm-20.395.977c-2.2.613-5.488.883-7.574.621l-1.277-.16-1.94 1.06c-1.066.583-2.007 1.132-2.091 1.22-.11.115-.12.743-.033 2.243l.463 8.056c.71 12.348 1.573 26.694 1.65 27.412.07.642.163.828.673 1.346 1.15 1.166 2.875 1.708 4.244 1.332l.547-.15-.044-14.901c-.025-8.195-.003-16.786.05-19.09l.094-4.19 2.345-1.112c1.29-.612 2.839-1.34 3.441-1.618.903-.417 1.053-.53.855-.643-.182-.104-.24-.317-.24-.894 0-.856.002-.856-1.163-.532Zm8.213 1.884c-1.184.396-3.284.487-4.671.202l-1.101-.227-3.267 1.521c-1.797.837-3.178 1.553-3.068 1.592.428.153 4.697 1.282 9.987 2.641 4.56 1.172 5.606 1.4 5.886 1.28.495-.213 5.879-2.735 7.313-3.427l1.223-.59-1.36-.403c-.748-.223-3.217-.964-5.486-1.648-2.268-.684-4.24-1.238-4.38-1.23-.14.007-.624.137-1.076.289Zm11.156 4.191a207.16 207.16 0 0 1-4.41 2.108l-2.974 1.383-.144.695c-.815 3.933-.86 4.098-1.116 4.098-.336 0-.327-.143.157-2.43.226-1.068.41-2.04.41-2.16 0-.17-.656-.382-2.908-.943-1.6-.398-5.173-1.326-7.94-2.061-2.768-.736-5.055-1.313-5.083-1.282-.028.031-.074 2.366-.101 5.189l-.05 5.132 6.98 1.77c3.84.973 7.112 1.773 7.271 1.778.702.018 5.304-1.616 9.045-3.211l1.944-.83.07-.58c.039-.319.135-1.986.215-3.705.08-1.72.182-3.704.229-4.41.047-.722.031-1.28-.037-1.275-.067.005-.768.336-1.558.734Zm11.749 4.72-2.69 1.411-.08.695c-.884 7.72-2.658 21.122-2.9 21.91-.042.134-.043.243-.004.243.04 0 1.333-.908 2.874-2.017 2.238-1.612 2.817-2.094 2.877-2.396.13-.652 2.82-20.662 2.82-20.98 0-.166-.047-.297-.103-.29-.057.006-1.314.647-2.794 1.423ZM5.712 35.916c.042.287.705 5.74 1.474 12.119.769 6.378 1.445 11.651 1.504 11.717.11.124 9.124 3.283 9.369 3.283.091 0 .108-.535.048-1.563-.687-11.744-1.39-23.24-1.425-23.279-.048-.055-10.735-2.788-10.925-2.794-.066-.002-.086.23-.045.517Zm43.67 4.192c-1.636.754-5.033 2.074-7.386 2.871l-2.658.9-7.2-1.811c-3.959-.996-7.222-1.812-7.25-1.812-.09 0-.057 23.346.034 24.321l.085.918 7.098 2.456 7.097 2.457 4.645-3.345c2.554-1.84 4.701-3.421 4.771-3.513.07-.092.23-1.73.356-3.64.187-2.855 1.18-19.61 1.182-19.966 0-.156-.147-.125-.773.164Z" clip-rule="evenodd"/></svg>