<svg xmlns="http://www.w3.org/2000/svg" width="60" height="78" fill="none"><path fill="#fff" fill-rule="evenodd" d="M36.498.087c-.233.076-.855.366-1.381.645l-.956.508-.866-.523C31.66-.268 32.064-.428 22.959 4.799c-8.451 4.852-8.966 5.209-9.7 6.721a6.29 6.29 0 0 0-.46 1.399l-.12.698-3.767 2.177c-2.072 1.197-4.117 2.487-4.543 2.866-1.628 1.445-3.124 4.129-3.459 6.205-.104.644-.13 9.077-.075 24.069.092 25.112.058 24.233.986 25.237.461.499 5.233 3.344 6.133 3.656.716.249 1.293.232 2.17-.065.405-.137 5.444-2.956 11.198-6.264l10.705-6.068c.151-.033.455.287.804.844.309.493.851 1.129 1.204 1.414.863.695 4.33 2.729 5.222 3.064.998.374 3.46.373 4.728-.001 1.277-.377 3.247-1.366 4.556-2.288 1.507-1.061 4.244-3.868 5.51-5.65 1.171-1.649 2.885-4.853 3.55-6.638 2.471-6.629 1.8-12.703-1.677-15.178-1.683-1.198-4.383-2.643-5.448-2.915-1.157-.296-2.748-.235-4.044.154l-.762.229-.02-4.504-.12-16.662c-.099-12.047-.103-12.164-.445-12.798-.503-.932-.819-1.171-3.79-2.878C39.016.315 38.473.068 37.762.014c-.462-.035-1.031-.002-1.264.073zm.183.963a7.035 7.035 0 0 0-.937.397l-.534.275.59.509c.614.529.86 1.246.875 2.546l.007.597 1.324-.779a51.636 51.636 0 0 1 2.341-1.294l1.017-.515-.465-.282c-2.44-1.479-3.233-1.752-4.218-1.454zM23.517 5.61c-6.964 3.99-9.154 5.386-9.141 5.826.002.057.482.383 1.068.724l1.065.621.553-.664c.602-.722.855-.877 10.231-6.255l6.159-3.609c.183-.169.074-.287-.642-.696-.474-.271-.973-.494-1.107-.494s-3.818 2.046-8.185 4.548zm10.662-2.476c-1.055.479-15.675 8.949-16.046 9.296-.191.179-.555.7-.81 1.157l-.462.832v4.434c0 4.013.027 4.46.282 4.714.231.231.363.25.739.108.941-.354 15.971-9.101 16.438-9.565.267-.266.654-.845.861-1.287.363-.778.375-.938.377-5.013.001-2.424-.064-4.333-.154-4.501-.238-.443-.537-.486-1.223-.175zm6.913.945c-.355.161-1.485.773-2.512 1.361l-1.867 1.069-.056 2.835c-.055 2.787-.064 2.853-.553 3.875-.273.572-.779 1.31-1.123 1.641-.353.339-4.095 2.6-8.571 5.18-6.011 3.464-8.109 4.598-8.619 4.658-.608.072-.856-.025-2.499-.976-1.003-.581-1.956-1.201-2.117-1.378-.167-.184-.326-.666-.37-1.124-.043-.441-.118-.801-.168-.801s-.6.301-1.223.669c-1.879 1.11-3.235 2.75-4.239 5.125l-.425 1.005v47.994l.348.648c.475.884 1.222 1.27 2.182 1.126.774-.116 1.05-.268 15.461-8.558l7.066-4.064-.222-.815c-.517-1.895-.42-5.319.222-7.832.132-.516.217-.956.19-.98s-2.027 1.101-4.444 2.498-4.522 2.54-4.677 2.54c-.289 0-.541-.406-.397-.639.044-.072 2.318-1.415 5.052-2.985l4.971-2.855.352-.88c2.268-5.665 6.517-10.809 10.78-13.051l1.093-.575-.096-16.184-.175-16.801c-.226-1.771-1.649-2.5-3.363-1.724zm-11.446 5.78c-1.397 1.393-1.128 3.619.343 2.83 1.073-.576 1.818-2.504 1.204-3.116-.347-.346-1.041-.218-1.547.287zM13.83 12.667c-.055.142-.1 2.153-.1 4.467 0 4.753-.065 4.495 1.324 5.282l.762.432v-4.164c0-2.29.069-4.344.152-4.564.14-.366.089-.437-.602-.837a38.51 38.51 0 0 1-1.096-.656c-.297-.19-.355-.185-.441.04zm8.634 1.264c-1.295.55-1.991 2.775-1.029 3.288.844.45 2.326-1.23 2.216-2.511-.067-.778-.507-1.066-1.186-.777zm-13.267 2.8c-1.831 1.052-3.62 2.145-3.975 2.429-.633.508-2.028 2.176-1.905 2.279.035.029.942.561 2.016 1.183l1.954 1.13.406-.611c.725-1.092 2.007-2.22 3.557-3.13l1.519-.891v-2.15c0-1.183-.054-2.15-.121-2.15s-1.619.861-3.451 1.912zm21.912 9.088c-4.698 2.704-8.582 5.02-8.632 5.146s.017.336.149.467c.259.258.135.326 12.612-6.87 4.24-2.445 4.895-2.874 4.895-3.201 0-.212-.106-.396-.241-.419s-4.084 2.172-8.782 4.877zM2.362 23.222a11.73 11.73 0 0 0-.505 1.88c-.113.678-.127 8.393-.044 24.193.143 27.131-.16 23.898 2.374 25.361l1.602.899c.001-.013-.056-10.139-.127-22.501l-.059-24.012a9.2 9.2 0 0 1 .559-2.949c.269-.778.459-1.462.423-1.521-.067-.108-3.701-2.234-3.819-2.234-.036 0-.218.398-.404.884zm12.893 6.729-3.435 2.04c-.124.102-.358.474-.518.826-.252.552-.292 1.095-.295 3.938-.003 3.138.013 3.319.342 3.736.281.356.44.423.843.358.536-.087 6.188-3.276 6.817-3.846.741-.672.822-1.141.822-4.748 0-3.367-.001-3.373-.394-3.765-.217-.216-.524-.393-.682-.393s-1.733.834-3.498 1.854zm.444.839c-1.61.939-3.09 1.871-3.29 2.071-.351.352-.365.478-.413 3.74-.046 3.156-.031 3.369.231 3.269.154-.059 1.607-.872 3.229-1.808 2.108-1.215 3.015-1.828 3.18-2.145.178-.343.231-1.176.231-3.652 0-1.764-.054-3.202-.12-3.195s-1.437.781-3.047 1.72zm.543 2.147a45.08 45.08 0 0 0-.776 1.356c-.539.973-.56.99-.91.746-.434-.303-.825-.187-.825.245 0 .369.933 1.134 1.379 1.13.378-.003 2.205-3.192 2.054-3.585-.142-.368-.663-.307-.921.108zm14.982 6.909-8.635 5.048c-.243.221-.19.477.14.685.169.106 2.561-1.195 8.818-4.797 7.622-4.389 8.585-4.987 8.585-5.332 0-.223-.103-.404-.241-.425-.132-.02-4.032 2.15-8.667 4.821zm15.628-.724c-5.266 1.424-10.614 7.17-13.271 14.259-1.664 4.441-1.735 9.43-.172 12.089.397.674 1.96 2.223 2.102 2.081.038-.038-.038-.277-.17-.531-.86-1.658-1.117-5.773-.533-8.527 1.06-4.995 3.958-10.273 7.634-13.9 2.713-2.677 5.884-4.438 8.608-4.78l.957-.12-.865-.372c-1.21-.521-2.822-.595-4.291-.198zm3.471 1.85c-1.492.33-4.02 1.662-5.666 2.985-4.235 3.404-7.804 9.423-8.878 14.974-.359 1.857-.361 4.75-.003 6.122 1.454 5.575 6.322 6.663 12.076 2.698 2.205-1.52 4.737-4.302 6.602-7.257 1.406-2.228 2.83-5.842 3.355-8.516.364-1.856.37-4.9.011-6.24-1.017-3.799-3.818-5.579-7.497-4.766zm-34.274 2.421-3.254 1.862c-.499.283-1.034.754-1.284 1.131-.423.636-.43.692-.482 3.777-.06 3.536.057 4.25.739 4.508a1 1 0 0 0 .834-.02c.808-.363 6.033-3.415 6.405-3.741.741-.65.822-1.122.822-4.809 0-3.231-.02-3.464-.321-3.765-.177-.176-.487-.32-.691-.32s-1.449.62-2.769 1.377zm-.389 1.314c-2.137 1.237-3.067 1.867-3.33 2.256-.348.515-.365.681-.365 3.626 0 1.697.054 3.12.12 3.16.227.139 6.323-3.49 6.551-3.9.164-.295.22-1.206.225-3.634.003-1.782-.049-3.236-.115-3.232s-1.455.78-3.086 1.724zm.378 2.229c-1.222 2.136-1.085 1.979-1.482 1.702-.437-.305-.825-.186-.825.252 0 .365 1.19 1.312 1.499 1.193.316-.121 2.039-3.381 1.933-3.657-.189-.49-.681-.267-1.125.51zm30.439 2.269c-.091.17-.166.537-.166.815 0 .402-.159.648-.775 1.201-1.378 1.235-2.253 3.446-1.798 4.542.264.635.882.868 1.773.669.386-.087.761-.121.832-.078s.129.757.129 1.586c0 1.506 0 1.506-.474 1.75-.261.134-.839.322-1.285.418-.831.178-1.13.467-1.13 1.096 0 .421.316.423 1.631.013.559-.175 1.071-.319 1.138-.32s.12.25.12.558.058.56.128.56c.3 0 .514-.428.515-1.032.001-.565.076-.699.583-1.043 1.858-1.261 2.921-4.204 1.89-5.231-.357-.356-.506-.399-1.083-.315a10.77 10.77 0 0 0-1.03.199c-.358.1-.361.087-.361-1.605v-1.706l.682-.309c.375-.17.809-.31.963-.312.381-.005.923-.57.923-.963 0-.421-.531-.421-1.643 0-.464.176-.862.32-.884.32s-.04-.252-.04-.56c0-.631-.357-.771-.636-.251zm-.956 3.326c-.585.707-.882 1.516-.75 2.041.103.41.404.528 1.098.429l.441-.063v-1.501c0-.826-.067-1.502-.149-1.502s-.37.268-.641.596zm2.154 3.384-.481.102-.046 1.479c-.025.813-.005 1.478.046 1.478.286 0 .949-.614 1.291-1.197.425-.723.512-1.502.202-1.811-.206-.206-.271-.209-1.011-.052zm-32.5 1.856c-1.95 1.135-3.281 2.016-3.531 2.337-.398.511-.402.549-.45 4.188-.069 5.199-.118 5.17 4.438 2.564 1.647-.942 3.222-1.936 3.501-2.209.768-.752.888-1.471.829-4.962-.078-4.614-.123-4.632-4.787-1.918zm.562.797c-1.589.917-3.051 1.856-3.25 2.086-.349.404-.361.526-.361 3.705 0 3.065.019 3.281.281 3.182.154-.058 1.591-.86 3.193-1.781 2.435-1.4 2.955-1.765 3.173-2.223s.253-1.046.217-3.542c-.026-1.817-.107-3.014-.204-3.045-.088-.028-1.46.7-3.049 1.618zm.095 2.846c-.977 1.777-.864 1.657-1.288 1.361-.453-.316-.815-.202-.81.255.004.385 1.165 1.301 1.492 1.176.109-.042.62-.842 1.134-1.779.765-1.393.899-1.745.738-1.938-.362-.435-.624-.244-1.266.924z"/></svg>