<svg xmlns="http://www.w3.org/2000/svg" width="532" height="569" fill="none"><style>.B{fill:#505050}.C{color-interpolation-filters:sRGB}.D{flood-opacity:0}</style><g opacity=".8"><g stroke="#505050" stroke-width=".6"><path d="M194.698-20.114 26.733 303.341M194.698-20.114l107.434 491.435M27.272 302.23l382.493 68.949m0 0L194.698-20.114m0 .001 249.507-13.44m0-.001L757.206-2.45M797.492-286.285 522.76 163.816m0-.001L444.205-33.554m78.555 197.37L301.561 469.671m0 0 108.204-98.492m-108.204 98.492 85.431-249.57M386.992 220.101l135.768-56.286m-135.768 56.286L27.272 302.23m359.72-82.129L194.698-20.114m328.062 183.93L756.095-2.989M568.343-232.763 522.76 163.815"/></g><g filter="url(#A)" class="B"><circle cx="523.266" cy="159.943" r="7.41" transform="rotate(25.889 523.266 159.943)"/></g><g filter="url(#B)" class="B"><circle cx="384.769" cy="219.023" r="7.41" transform="rotate(25.889 384.769 219.023)"/></g><g filter="url(#C)" class="B"><circle cx="409.765" cy="371.178" r="7.41" transform="rotate(25.889 409.765 371.178)"/></g><g filter="url(#D)" class="B"><circle cx="301.56" cy="469.671" r="7.41" transform="rotate(25.889 301.56 469.671)"/></g><g filter="url(#E)" class="B"><circle cx="27.844" cy="303.88" r="7.41" transform="rotate(25.889 27.844 303.88)"/></g><g filter="url(#F)" class="B"><circle cx="195.269" cy="-18.463" r="7.41" transform="rotate(25.889 195.269 -18.463)"/></g><circle cx="443.665" cy="-32.443" r="7.41" transform="rotate(25.889 443.665 -32.443)" class="B"/></g><defs><filter id="A" x="495.854" y="132.531" width="54.824" height="54.824" filterUnits="userSpaceOnUse" class="C"><feFlood result="A" class="D"/><feColorMatrix in="SourceAlpha" values="0 0 0 0 0 0 0 0 0 0 0 0 0 0 0 0 0 0 127 0" result="B"/><feOffset/><feGaussianBlur stdDeviation="10"/><feComposite in2="B" operator="out"/><feColorMatrix values="0 0 0 0 1 0 0 0 0 1 0 0 0 0 1 0 0 0 0.02 0"/><feBlend in2="A"/><feBlend in="SourceGraphic"/><feGaussianBlur stdDeviation="5"/></filter><filter id="B" x="357.357" y="191.611" width="54.824" height="54.824" filterUnits="userSpaceOnUse" class="C"><feFlood result="A" class="D"/><feColorMatrix in="SourceAlpha" values="0 0 0 0 0 0 0 0 0 0 0 0 0 0 0 0 0 0 127 0" result="B"/><feOffset/><feGaussianBlur stdDeviation="10"/><feComposite in2="B" operator="out"/><feColorMatrix values="0 0 0 0 1 0 0 0 0 1 0 0 0 0 1 0 0 0 0.02 0"/><feBlend in2="A"/><feBlend in="SourceGraphic"/><feGaussianBlur stdDeviation="5"/></filter><filter id="C" x="382.353" y="343.766" width="54.824" height="54.824" filterUnits="userSpaceOnUse" class="C"><feFlood result="A" class="D"/><feColorMatrix in="SourceAlpha" values="0 0 0 0 0 0 0 0 0 0 0 0 0 0 0 0 0 0 127 0" result="B"/><feOffset/><feGaussianBlur stdDeviation="10"/><feComposite in2="B" operator="out"/><feColorMatrix values="0 0 0 0 1 0 0 0 0 1 0 0 0 0 1 0 0 0 0.02 0"/><feBlend in2="A"/><feBlend in="SourceGraphic"/><feGaussianBlur stdDeviation="5"/></filter><filter id="D" x="274.148" y="442.259" width="54.824" height="54.824" filterUnits="userSpaceOnUse" class="C"><feFlood result="A" class="D"/><feColorMatrix in="SourceAlpha" values="0 0 0 0 0 0 0 0 0 0 0 0 0 0 0 0 0 0 127 0" result="B"/><feOffset/><feGaussianBlur stdDeviation="10"/><feComposite in2="B" operator="out"/><feColorMatrix values="0 0 0 0 1 0 0 0 0 1 0 0 0 0 1 0 0 0 0.02 0"/><feBlend in2="A"/><feBlend in="SourceGraphic"/><feGaussianBlur stdDeviation="5"/></filter><filter id="E" x=".432" y="276.469" width="54.824" height="54.824" filterUnits="userSpaceOnUse" class="C"><feFlood result="A" class="D"/><feColorMatrix in="SourceAlpha" values="0 0 0 0 0 0 0 0 0 0 0 0 0 0 0 0 0 0 127 0" result="B"/><feOffset/><feGaussianBlur stdDeviation="10"/><feComposite in2="B" operator="out"/><feColorMatrix values="0 0 0 0 1 0 0 0 0 1 0 0 0 0 1 0 0 0 0.02 0"/><feBlend in2="A"/><feBlend in="SourceGraphic"/><feGaussianBlur stdDeviation="5"/></filter><filter id="F" x="167.857" y="-45.875" width="54.824" height="54.824" filterUnits="userSpaceOnUse" class="C"><feFlood result="A" class="D"/><feColorMatrix in="SourceAlpha" values="0 0 0 0 0 0 0 0 0 0 0 0 0 0 0 0 0 0 127 0" result="B"/><feOffset/><feGaussianBlur stdDeviation="10"/><feComposite in2="B" operator="out"/><feColorMatrix values="0 0 0 0 1 0 0 0 0 1 0 0 0 0 1 0 0 0 0.02 0"/><feBlend in2="A"/><feBlend in="SourceGraphic"/></filter></defs></svg>