<svg xmlns="http://www.w3.org/2000/svg" width="365" height="463" fill="none"><style>.B{fill:#505050}.C{color-interpolation-filters:sRGB}.D{flood-opacity:0}</style><g opacity=".6"><g stroke="#505050" stroke-width=".6"><path d="M122.448 271.252 24.654 459.577m97.793-188.325 62.552 286.128M24.969 458.93l222.699 40.144m-.003 0L122.447 271.252m0 0 145.271-7.825m-.001 0 182.239 18.11M473.412 116.28 313.455 378.341m0 0-45.737-114.914m45.737 114.914L184.666 556.419M184.667 556.419l49.74-145.306m0-.001 79.048-32.771m-79.048 32.772L24.968 458.93m209.438-47.818-111.959-139.86m191.008 107.089 135.854-97.118m.001 0L339.995 147.442m0 0 133.103-30.515M339.995 147.442l-26.54 230.899"/></g><g filter="url(#A)" class="B"><circle cx="339.995" cy="147.442" r="4.314" transform="rotate(25.889 339.995 147.442)"/></g><g filter="url(#B)" class="B"><circle cx="313.75" cy="376.086" r="4.314" transform="rotate(25.889 313.75 376.086)"/></g><g filter="url(#C)" class="B"><circle cx="233.113" cy="410.484" r="4.314" transform="rotate(25.889 233.113 410.484)"/></g><g filter="url(#D)" class="B"><circle cx="25.3" cy="459.891" r="4.314" transform="rotate(25.889 25.3 459.891)"/></g><g filter="url(#E)" class="B"><circle cx="122.78" cy="272.213" r="4.314" transform="rotate(25.889 122.78 272.213)"/></g><g filter="url(#F)" class="B"><circle cx="267.403" cy="264.074" r="4.314" transform="rotate(25.889 267.403 264.074)"/></g></g><defs><filter id="A" x="315.68" y="123.126" width="48.631" height="48.631" filterUnits="userSpaceOnUse" class="C"><feFlood result="A" class="D"/><feColorMatrix in="SourceAlpha" values="0 0 0 0 0 0 0 0 0 0 0 0 0 0 0 0 0 0 127 0" result="B"/><feOffset/><feGaussianBlur stdDeviation="10"/><feComposite in2="B" operator="out"/><feColorMatrix values="0 0 0 0 1 0 0 0 0 1 0 0 0 0 1 0 0 0 0.02 0"/><feBlend in2="A"/><feBlend in="SourceGraphic"/><feGaussianBlur stdDeviation="5"/></filter><filter id="B" x="289.435" y="351.771" width="48.631" height="48.631" filterUnits="userSpaceOnUse" class="C"><feFlood result="A" class="D"/><feColorMatrix in="SourceAlpha" values="0 0 0 0 0 0 0 0 0 0 0 0 0 0 0 0 0 0 127 0" result="B"/><feOffset/><feGaussianBlur stdDeviation="10"/><feComposite in2="B" operator="out"/><feColorMatrix values="0 0 0 0 1 0 0 0 0 1 0 0 0 0 1 0 0 0 0.02 0"/><feBlend in2="A"/><feBlend in="SourceGraphic"/><feGaussianBlur stdDeviation="5"/></filter><filter id="C" x="208.798" y="386.169" width="48.631" height="48.631" filterUnits="userSpaceOnUse" class="C"><feFlood result="A" class="D"/><feColorMatrix in="SourceAlpha" values="0 0 0 0 0 0 0 0 0 0 0 0 0 0 0 0 0 0 127 0" result="B"/><feOffset/><feGaussianBlur stdDeviation="10"/><feComposite in2="B" operator="out"/><feColorMatrix values="0 0 0 0 1 0 0 0 0 1 0 0 0 0 1 0 0 0 0.02 0"/><feBlend in2="A"/><feBlend in="SourceGraphic"/><feGaussianBlur stdDeviation="5"/></filter><filter id="D" x=".985" y="435.576" width="48.631" height="48.631" filterUnits="userSpaceOnUse" class="C"><feFlood result="A" class="D"/><feColorMatrix in="SourceAlpha" values="0 0 0 0 0 0 0 0 0 0 0 0 0 0 0 0 0 0 127 0" result="B"/><feOffset/><feGaussianBlur stdDeviation="10"/><feComposite in2="B" operator="out"/><feColorMatrix values="0 0 0 0 1 0 0 0 0 1 0 0 0 0 1 0 0 0 0.02 0"/><feBlend in2="A"/><feBlend in="SourceGraphic"/><feGaussianBlur stdDeviation="5"/></filter><filter id="E" x="98.465" y="247.898" width="48.631" height="48.631" filterUnits="userSpaceOnUse" class="C"><feFlood result="A" class="D"/><feColorMatrix in="SourceAlpha" values="0 0 0 0 0 0 0 0 0 0 0 0 0 0 0 0 0 0 127 0" result="B"/><feOffset/><feGaussianBlur stdDeviation="10"/><feComposite in2="B" operator="out"/><feColorMatrix values="0 0 0 0 1 0 0 0 0 1 0 0 0 0 1 0 0 0 0.02 0"/><feBlend in2="A"/><feBlend in="SourceGraphic"/><feGaussianBlur stdDeviation="5"/></filter><filter id="F" x="243.088" y="239.758" width="48.631" height="48.631" filterUnits="userSpaceOnUse" class="C"><feFlood result="A" class="D"/><feColorMatrix in="SourceAlpha" values="0 0 0 0 0 0 0 0 0 0 0 0 0 0 0 0 0 0 127 0" result="B"/><feOffset/><feGaussianBlur stdDeviation="10"/><feComposite in2="B" operator="out"/><feColorMatrix values="0 0 0 0 1 0 0 0 0 1 0 0 0 0 1 0 0 0 0.02 0"/><feBlend in2="A"/><feBlend in="SourceGraphic"/><feGaussianBlur stdDeviation="5"/></filter></defs></svg>