<svg xmlns="http://www.w3.org/2000/svg" width="518" height="655" fill="none"><style>.B{fill:#505050}.C{color-interpolation-filters:sRGB}.D{flood-opacity:0}</style><g opacity=".4"><g stroke="#505050" stroke-width=".6"><path d="M165.747 165.417 26.072 434.392m139.675-268.975 89.339 408.662M26.521 433.468l318.069 57.335m0 0L165.747 165.417m0 0 207.482-11.176m0 0 260.283 25.865M667.012-55.923l-228.459 374.29m0 0L373.229 154.24m65.324 164.127-183.942 254.34m0 0 89.979-81.903m-89.979 81.903 71.042-207.535M325.653 365.172l112.9-46.805m-112.9 46.805L26.521 433.468m299.132-68.296L165.747 165.417m272.806 152.95 194.035-138.71m0 0L476.459-11.416m0 0 190.105-43.583M476.459-11.416l-37.906 329.783"/></g><g filter="url(#A)" class="B"><circle cx="476.459" cy="-11.416" r="6.162" transform="rotate(25.889 476.459 -11.416)"/></g><g filter="url(#B)" class="B"><circle cx="438.975" cy="315.147" r="6.162" transform="rotate(25.889 438.975 315.147)"/></g><g filter="url(#C)" class="B"><circle cx="323.805" cy="364.276" r="6.162" transform="rotate(25.889 323.805 364.276)"/></g><g filter="url(#D)" class="B"><circle cx="344.59" cy="490.803" r="6.162" transform="rotate(25.889 344.59 490.803)"/></g><g filter="url(#E)" class="B"><circle cx="254.61" cy="572.706" r="6.162" transform="rotate(25.889 254.61 572.706)"/></g><g filter="url(#F)" class="B"><circle cx="26.996" cy="434.84" r="6.162" transform="rotate(25.889 26.996 434.84)"/></g><g filter="url(#G)" class="B"><circle cx="166.222" cy="166.789" r="6.162" transform="rotate(25.889 166.222 166.789)"/></g><g filter="url(#H)" class="B"><circle cx="372.781" cy="155.164" r="6.162" transform="rotate(25.889 372.781 155.164)"/></g></g><defs><filter id="A" x="450.295" y="-37.579" width="52.327" height="52.327" filterUnits="userSpaceOnUse" class="C"><feFlood result="A" class="D"/><feColorMatrix in="SourceAlpha" values="0 0 0 0 0 0 0 0 0 0 0 0 0 0 0 0 0 0 127 0" result="B"/><feOffset/><feGaussianBlur stdDeviation="10"/><feComposite in2="B" operator="out"/><feColorMatrix values="0 0 0 0 1 0 0 0 0 1 0 0 0 0 1 0 0 0 0.02 0"/><feBlend in2="A"/><feBlend in="SourceGraphic"/><feGaussianBlur stdDeviation="5"/></filter><filter id="B" x="412.811" y="288.983" width="52.327" height="52.327" filterUnits="userSpaceOnUse" class="C"><feFlood result="A" class="D"/><feColorMatrix in="SourceAlpha" values="0 0 0 0 0 0 0 0 0 0 0 0 0 0 0 0 0 0 127 0" result="B"/><feOffset/><feGaussianBlur stdDeviation="10"/><feComposite in2="B" operator="out"/><feColorMatrix values="0 0 0 0 1 0 0 0 0 1 0 0 0 0 1 0 0 0 0.02 0"/><feBlend in2="A"/><feBlend in="SourceGraphic"/><feGaussianBlur stdDeviation="5"/></filter><filter id="C" x="297.641" y="338.112" width="52.327" height="52.327" filterUnits="userSpaceOnUse" class="C"><feFlood result="A" class="D"/><feColorMatrix in="SourceAlpha" values="0 0 0 0 0 0 0 0 0 0 0 0 0 0 0 0 0 0 127 0" result="B"/><feOffset/><feGaussianBlur stdDeviation="10"/><feComposite in2="B" operator="out"/><feColorMatrix values="0 0 0 0 1 0 0 0 0 1 0 0 0 0 1 0 0 0 0.02 0"/><feBlend in2="A"/><feBlend in="SourceGraphic"/><feGaussianBlur stdDeviation="5"/></filter><filter id="D" x="318.426" y="464.64" width="52.327" height="52.327" filterUnits="userSpaceOnUse" class="C"><feFlood result="A" class="D"/><feColorMatrix in="SourceAlpha" values="0 0 0 0 0 0 0 0 0 0 0 0 0 0 0 0 0 0 127 0" result="B"/><feOffset/><feGaussianBlur stdDeviation="10"/><feComposite in2="B" operator="out"/><feColorMatrix values="0 0 0 0 1 0 0 0 0 1 0 0 0 0 1 0 0 0 0.02 0"/><feBlend in2="A"/><feBlend in="SourceGraphic"/><feGaussianBlur stdDeviation="5"/></filter><filter id="E" x="228.447" y="546.543" width="52.327" height="52.327" filterUnits="userSpaceOnUse" class="C"><feFlood result="A" class="D"/><feColorMatrix in="SourceAlpha" values="0 0 0 0 0 0 0 0 0 0 0 0 0 0 0 0 0 0 127 0" result="B"/><feOffset/><feGaussianBlur stdDeviation="10"/><feComposite in2="B" operator="out"/><feColorMatrix values="0 0 0 0 1 0 0 0 0 1 0 0 0 0 1 0 0 0 0.02 0"/><feBlend in2="A"/><feBlend in="SourceGraphic"/><feGaussianBlur stdDeviation="5"/></filter><filter id="F" x=".833" y="408.677" width="52.327" height="52.327" filterUnits="userSpaceOnUse" class="C"><feFlood result="A" class="D"/><feColorMatrix in="SourceAlpha" values="0 0 0 0 0 0 0 0 0 0 0 0 0 0 0 0 0 0 127 0" result="B"/><feOffset/><feGaussianBlur stdDeviation="10"/><feComposite in2="B" operator="out"/><feColorMatrix values="0 0 0 0 1 0 0 0 0 1 0 0 0 0 1 0 0 0 0.02 0"/><feBlend in2="A"/><feBlend in="SourceGraphic"/><feGaussianBlur stdDeviation="5"/></filter><filter id="G" x="140.059" y="140.626" width="52.327" height="52.327" filterUnits="userSpaceOnUse" class="C"><feFlood result="A" class="D"/><feColorMatrix in="SourceAlpha" values="0 0 0 0 0 0 0 0 0 0 0 0 0 0 0 0 0 0 127 0" result="B"/><feOffset/><feGaussianBlur stdDeviation="10"/><feComposite in2="B" operator="out"/><feColorMatrix values="0 0 0 0 1 0 0 0 0 1 0 0 0 0 1 0 0 0 0.02 0"/><feBlend in2="A"/><feBlend in="SourceGraphic"/><feGaussianBlur stdDeviation="5"/></filter><filter id="H" x="346.617" y="129.001" width="52.327" height="52.327" filterUnits="userSpaceOnUse" class="C"><feFlood result="A" class="D"/><feColorMatrix in="SourceAlpha" values="0 0 0 0 0 0 0 0 0 0 0 0 0 0 0 0 0 0 127 0" result="B"/><feOffset/><feGaussianBlur stdDeviation="10"/><feComposite in2="B" operator="out"/><feColorMatrix values="0 0 0 0 1 0 0 0 0 1 0 0 0 0 1 0 0 0 0.02 0"/><feBlend in2="A"/><feBlend in="SourceGraphic"/><feGaussianBlur stdDeviation="5"/></filter></defs></svg>