<svg width="54" height="78" fill="none" xmlns="http://www.w3.org/2000/svg"><path d="M9.144 33.853c0-2.336 1.135-4.54 3.004-6.008m-3.004 6.008v28.642c0 3.806 0 5.007 1.602 5.875M9.144 33.853 1 29.113m11.148-1.268L29.37 15.026c1.401-1.068 2.403-1.669 3.938-2.203L49.93 6.147c.904-.302 1.583-.356 2.07-.117M12.148 27.846l-8.01-4.807m6.608 45.332L27.9 76.45c2.67 1.335 4.206.133 5.674-2.404L51.531 44.87C52.866 42.83 53 41.598 53 39.195V9.017c0-1.693-.302-2.643-1.001-2.986M10.746 68.37 2.068 63.43C1 62.762 1 60.693 1 56.887V29.113m0 0c0-1.313.627-4.366 3.137-6.075m0 0L20.558 10.62c1.87-1.603 2.137-1.803 4.473-2.738l16.354-6.476c1.293-.655 1.87-.467 2.937.2L52 6.032m-12.95 12.867 5.54-2.203c.668-.267.668-.133.668.468v4.673m0 2.003v2.938m-31.64 8.278c.068-1.524.246-2.37 1.801-3.805l15.487-11.817a12.976 12.976 0 0 1 4.806-2.738l9.946-3.872c1.87-.801 2.737 0 2.737 1.936v24.035c0 2.003 0 2.604-1.201 4.34L30.905 69.572c-1.335 2.337-1.535 2.404-3.471 1.602l-12.35-5.808c-1.334-.734-1.334-.734-1.334-2.87l-.134-27.44Z" stroke="#fff"/></svg>