<svg xmlns="http://www.w3.org/2000/svg" width="73" height="97" fill="none"><path fill="#fff" fill-rule="evenodd" d="M44.712.109c-.292.094-1.071.455-1.73.802l-1.198.632-1.085-.65C38.652-.334 39.158-.532 27.752 5.968 17.165 12.002 16.52 12.446 15.6 14.327a7.81 7.81 0 0 0-.576 1.74l-.15.867-4.719 2.707c-2.596 1.489-5.157 3.093-5.692 3.564C2.424 25.003.55 28.341.129 30.922c-.13.801-.163 11.288-.094 29.932C.151 92.083.108 90.99 1.27 92.238c.577.62 6.555 4.158 7.683 4.547.897.31 1.62.288 2.718-.081.507-.171 6.82-3.676 14.028-7.79l13.41-7.546c.189-.041.57.356 1.007 1.049.387.613 1.066 1.404 1.508 1.758 1.081.865 5.424 3.394 6.542 3.81 1.25.465 4.334.464 5.923-.001 1.6-.469 4.067-1.699 5.708-2.846 1.888-1.32 5.317-4.81 6.902-7.026 1.467-2.051 3.614-6.036 4.448-8.255 3.096-8.243 2.255-15.797-2.101-18.875-2.109-1.49-5.491-3.286-6.825-3.625-1.45-.368-3.442-.292-5.066.192l-.955.285-.026-5.601-.151-20.721c-.124-14.981-.129-15.127-.558-15.916-.63-1.158-1.026-1.457-4.748-3.579-2.85-1.625-3.531-1.933-4.421-2-.579-.044-1.291-.003-1.584.091zm.229 1.198a8.885 8.885 0 0 0-1.173.494l-.669.343.739.633c.769.658 1.077 1.549 1.096 3.166l.009.742 1.659-.969a64.98 64.98 0 0 1 2.933-1.609l1.274-.64-.583-.351c-3.056-1.839-4.05-2.179-5.284-1.808zm-16.49 5.671C19.726 11.939 16.983 13.675 17 14.222c.002.071.604.476 1.338.901l1.334.772.693-.826c.754-.898 1.071-1.091 12.817-7.778l7.715-4.488c.229-.21.092-.357-.804-.866-.594-.337-1.219-.614-1.387-.615s-4.783 2.544-10.254 5.656zm13.356-3.079c-1.322.596-19.637 11.129-20.101 11.561-.239.223-.696.87-1.014 1.439l-.579 1.034v5.514c0 4.99.034 5.547.353 5.863.29.287.454.311.926.134 1.178-.44 20.008-11.318 20.592-11.895.334-.331.82-1.051 1.078-1.601.455-.967.47-1.166.472-6.234.001-3.014-.081-5.389-.194-5.597-.298-.551-.673-.605-1.533-.217zm8.661 1.176c-.444.2-1.861.961-3.147 1.692l-2.339 1.329-.069 3.526c-.069 3.466-.08 3.548-.692 4.819-.343.711-.976 1.63-1.407 2.041-.442.421-5.129 3.233-10.737 6.441-7.53 4.308-10.158 5.718-10.798 5.793-.762.089-1.072-.031-3.131-1.214-1.257-.722-2.45-1.493-2.652-1.714-.21-.229-.408-.828-.463-1.398-.053-.548-.148-.997-.21-.997s-.752.375-1.533.832c-2.354 1.381-4.053 3.42-5.31 6.374l-.532 1.249v59.684l.436.805c.595 1.1 1.531 1.579 2.734 1.4.97-.144 1.315-.334 19.369-10.642l8.852-5.054-.279-1.014c-.647-2.356-.526-6.614.277-9.74.165-.641.272-1.189.238-1.219s-2.539 1.369-5.568 3.106-5.665 3.158-5.859 3.158c-.362 0-.678-.505-.497-.795.056-.089 2.904-1.76 6.329-3.712l6.227-3.55.442-1.094c2.841-7.045 8.164-13.442 13.504-16.23l1.369-.715-.12-20.126-.219-20.893c-.283-2.203-2.065-3.109-4.213-2.144zM36.129 12.26c-1.751 1.732-1.413 4.501.429 3.519 1.344-.716 2.277-3.114 1.508-3.875-.435-.43-1.304-.271-1.937.356zm-19.812 3.492c-.069.177-.125 2.677-.125 5.556 0 5.91-.081 5.59 1.659 6.569l.955.537v-5.179c0-2.848.086-5.402.191-5.676.175-.455.112-.543-.754-1.041a48.23 48.23 0 0 1-1.373-.816c-.372-.237-.444-.23-.553.049zm10.815 1.572c-1.622.684-2.494 3.451-1.289 4.089 1.057.56 2.913-1.529 2.775-3.123-.084-.967-.635-1.325-1.486-.966zm-16.62 3.482c-2.294 1.308-4.535 2.667-4.98 3.021-.794.631-2.541 2.706-2.387 2.833.043.036 1.18.697 2.526 1.471l2.447 1.406.508-.76c.909-1.359 2.515-2.761 4.457-3.892l1.903-1.108v-2.674c0-1.471-.068-2.674-.151-2.674s-2.028 1.07-4.323 2.378zm27.45 11.302-10.814 6.4c-.062.156.021.418.186.581.325.321.169.405 15.799-8.544 5.312-3.041 6.132-3.574 6.132-3.981 0-.263-.133-.492-.302-.521s-5.117 2.702-11.002 6.065zM1.95 28.879a14.38 14.38 0 0 0-.633 2.338c-.142.844-.159 10.438-.055 30.086.179 33.74-.201 29.719 2.975 31.539l2.006 1.118c.001-.017-.07-12.609-.159-27.982L6.01 36.117a11.38 11.38 0 0 1 .701-3.668c.337-.968.576-1.818.53-1.891-.084-.135-4.637-2.779-4.784-2.779-.045 0-.273.494-.506 1.099zm16.151 8.369-4.303 2.537c-.156.127-.448.589-.649 1.027-.315.686-.366 1.362-.37 4.897-.004 3.902.017 4.128.429 4.647.352.442.551.526 1.056.445.671-.108 7.751-4.074 8.539-4.783.928-.836 1.03-1.419 1.03-5.904 0-4.187-.001-4.194-.494-4.682-.271-.269-.656-.488-.855-.488s-2.171 1.037-4.382 2.305zm.557 1.043c-2.016 1.167-3.871 2.326-4.122 2.575-.44.437-.458.595-.517 4.651-.058 3.925-.039 4.19.289 4.065.193-.073 2.013-1.085 4.045-2.248 2.64-1.511 3.777-2.273 3.984-2.668.223-.427.289-1.463.289-4.542 0-2.194-.068-3.982-.151-3.973s-1.8.971-3.817 2.139zm.68 2.67a56.37 56.37 0 0 0-.972 1.687c-.675 1.21-.701 1.231-1.14.927-.544-.377-1.034-.233-1.034.304 0 .459 1.169 1.41 1.728 1.406.474-.004 2.762-3.97 2.573-4.459-.178-.458-.83-.382-1.154.135zm18.768 8.592L27.289 55.83c-.304.275-.239.593.175.852.212.133 3.208-1.486 11.046-5.966 9.548-5.458 10.755-6.202 10.755-6.631 0-.277-.129-.502-.302-.528-.166-.025-5.051 2.673-10.857 5.996zm19.577-.9c-6.597 1.771-13.297 8.917-16.624 17.732-2.085 5.523-2.174 11.727-.215 15.034.497.839 2.455 2.764 2.633 2.588.048-.047-.048-.345-.213-.661-1.077-2.061-1.399-7.179-.667-10.604 1.327-6.212 4.958-12.775 9.563-17.286 3.399-3.329 7.371-5.519 10.784-5.945l1.199-.15-1.084-.463c-1.516-.648-3.535-.74-5.376-.246zm4.348 2.3c-1.869.41-5.036 2.067-7.097 3.712-5.305 4.233-9.776 11.719-11.122 18.621-.45 2.309-.452 5.907-.004 7.614 1.821 6.934 7.919 8.286 15.127 3.355 2.763-1.89 5.934-5.35 8.271-9.025 1.762-2.77 3.546-7.265 4.203-10.59.456-2.309.463-6.093.014-7.76-1.274-4.724-4.783-6.938-9.392-5.926zm-42.936 3.01-4.076 2.316c-.625.352-1.295.938-1.608 1.406-.529.791-.538.86-.604 4.697-.075 4.397.071 5.285.926 5.607.376.141.689.134 1.045-.025 1.012-.451 7.557-4.247 8.024-4.653.928-.809 1.03-1.395 1.03-5.981 0-4.018-.025-4.308-.402-4.682-.221-.219-.61-.398-.865-.398s-1.815.77-3.468 1.712zm-.487 1.634c-2.678 1.539-3.842 2.322-4.172 2.806-.436.64-.457.847-.457 4.509 0 2.111.068 3.88.151 3.93.285.173 7.921-4.34 8.206-4.85.205-.367.276-1.5.281-4.519.004-2.216-.061-4.025-.144-4.02s-1.823.97-3.866 2.144zm.473 2.771c-1.531 2.656-1.36 2.461-1.857 2.116-.547-.379-1.033-.231-1.033.314 0 .454 1.49 1.631 1.878 1.484.396-.15 2.555-4.204 2.421-4.548-.236-.609-.853-.332-1.41.634zm38.132 2.822c-.114.212-.208.668-.208 1.014 0 .5-.199.806-.971 1.493-1.726 1.536-2.823 4.286-2.252 5.649.331.789 1.105 1.079 2.22.832.484-.108.953-.151 1.042-.097s.162.942.162 1.972c0 1.873 0 1.873-.593 2.177-.326.167-1.051.401-1.611.519-1.041.221-1.415.581-1.415 1.363 0 .524.396.527 2.043.016.701-.218 1.342-.397 1.425-.398s.151.311.151.694.072.696.161.696c.376 0 .643-.532.645-1.283.001-.703.095-.869.731-1.297 2.327-1.569 3.659-5.228 2.368-6.505-.447-.442-.634-.497-1.357-.392a13.54 13.54 0 0 0-1.291.247c-.449.124-.452.108-.452-1.996V63.77l.855-.384c.47-.211 1.013-.386 1.206-.388.477-.006 1.156-.709 1.156-1.198 0-.524-.666-.524-2.059 0-.582.219-1.081.398-1.108.398s-.05-.313-.05-.696c0-.784-.447-.959-.797-.312zm-1.198 4.136c-.733.88-1.105 1.885-.939 2.538.129.51.506.656 1.376.534l.553-.078v-1.867c0-1.027-.084-1.868-.186-1.868s-.464.333-.803.741zm2.699 4.208-.603.127-.058 1.839c-.032 1.011-.006 1.839.058 1.839.358 0 1.188-.764 1.617-1.488.532-.899.641-1.868.253-2.252-.258-.256-.34-.26-1.267-.064zm-40.713 2.309c-2.443 1.412-4.11 2.507-4.423 2.906-.498.635-.503.683-.564 5.208-.086 6.465-.148 6.429 5.559 3.189 2.063-1.171 4.036-2.408 4.386-2.748.962-.936 1.112-1.829 1.038-6.171-.098-5.738-.154-5.76-5.996-2.385zm.704.991c-1.99 1.141-3.822 2.308-4.071 2.594-.437.502-.452.654-.452 4.608 0 3.811.024 4.08.352 3.957.194-.073 1.994-1.069 4.001-2.215 3.05-1.741 3.702-2.194 3.975-2.764s.317-1.301.272-4.405c-.033-2.26-.134-3.749-.256-3.787-.111-.034-1.83.871-3.82 2.012zm.119 3.539c-1.225 2.21-1.083 2.061-1.613 1.693-.568-.394-1.02-.252-1.015.318.005.479 1.46 1.618 1.868 1.463.137-.052.776-1.047 1.421-2.212.958-1.732 1.127-2.171.925-2.411-.453-.541-.781-.303-1.586 1.149z"/></svg>