<svg xmlns="http://www.w3.org/2000/svg" width="61" height="88" fill="none"><path d="M10.24 38.176c0-2.644 1.287-5.137 3.408-6.799m-3.408 6.799v32.41c0 4.306 0 5.666 1.818 6.648M10.24 38.176 1 32.812m12.648-1.435 19.54-14.505c1.591-1.209 2.727-1.889 4.469-2.493l18.859-7.555c1.025-.341 1.796-.402 2.348-.131M13.648 31.377 4.56 25.938m7.498 51.297 19.465 9.141c3.029 1.511 4.771.151 6.438-2.72l20.374-33.015C59.847 48.334 60 46.94 60 44.22V10.072c0-1.916-.342-2.991-1.136-3.38M12.058 77.235l-9.846-5.591C1 70.889 1 68.547 1 64.241V32.812m0 0c0-1.486.712-4.941 3.56-6.875m0 0 18.632-14.052c2.121-1.813 2.424-2.04 5.074-3.097L46.822 1.46c1.467-.741 2.121-.529 3.333.227l8.71 5.006M44.171 21.254l6.286-2.493c.757-.302.757-.151.757.529v5.288m0 2.266v3.324m-35.9 9.368c.078-1.725.28-2.683 2.045-4.306L34.93 21.858a14.73 14.73 0 0 1 5.453-3.097l11.285-4.382c2.121-.907 3.105 0 3.105 2.191v27.197c0 2.266 0 2.946-1.363 4.911L34.93 78.595c-1.515 2.644-1.742 2.72-3.938 1.813L16.98 73.835c-1.515-.831-1.515-.831-1.515-3.249l-.151-31.05z" stroke="#fff"/></svg>