<svg xmlns="http://www.w3.org/2000/svg" width="54" height="72" fill="none"><path fill="#fff" fill-rule="evenodd" d="M33.075.08c-.217.07-.793.338-1.28.596l-.886.47-.803-.483c-1.514-.91-1.14-1.058-9.577 3.767-7.832 4.479-8.309 4.808-8.99 6.204a5.804 5.804 0 0 0-.425 1.292l-.111.643-3.491 2.01c-1.92 1.105-3.815 2.296-4.21 2.646C1.792 18.559.406 21.036.095 22.952c-.097.595-.121 8.38-.07 22.218C.112 68.35.08 67.538.94 68.465c.427.46 4.849 3.086 5.683 3.375.664.23 1.198.214 2.01-.06.375-.126 5.045-2.728 10.377-5.782 5.333-3.054 9.797-5.575 9.92-5.602.14-.03.422.265.745.779.287.455.789 1.042 1.116 1.305.8.642 4.012 2.52 4.84 2.828.924.345 3.205.345 4.38 0 1.184-.349 3.01-1.262 4.223-2.113 1.397-.98 3.933-3.57 5.106-5.215 1.085-1.522 2.673-4.48 3.29-6.127 2.29-6.119 1.668-11.726-1.554-14.01-1.56-1.106-4.062-2.44-5.049-2.691-1.072-.273-2.546-.217-3.747.142l-.707.212-.019-4.157c-.01-2.287-.06-9.208-.111-15.38-.092-11.12-.096-11.23-.413-11.814-.466-.86-.759-1.082-3.512-2.657C35.408.291 34.905.063 34.246.013c-.428-.032-.955-.002-1.171.068Zm.169.89a6.475 6.475 0 0 0-.868.367l-.495.254.547.47c.568.488.796 1.15.81 2.35l.007.55 1.227-.719a48.555 48.555 0 0 1 2.17-1.195l.942-.475-.431-.26C34.892.947 34.157.694 33.244.97ZM21.046 5.179c-6.454 3.683-8.483 4.971-8.471 5.377.002.053.447.354.99.67l.986.572.513-.613c.557-.667.792-.81 9.48-5.773 3.027-1.73 5.595-3.229 5.708-3.332.17-.156.068-.265-.595-.643-.44-.25-.902-.455-1.026-.456-.125 0-3.539 1.888-7.585 4.198Zm9.88-2.286c-.978.443-14.526 8.261-14.87 8.582-.177.165-.514.645-.75 1.068l-.429.767v4.093c0 3.704.025 4.117.261 4.351.215.213.336.231.685.1.872-.326 14.8-8.4 15.233-8.83.247-.245.606-.78.797-1.187.337-.718.348-.866.35-4.628 0-2.237-.06-4-.144-4.154-.22-.41-.497-.45-1.133-.162Zm6.406.873c-.329.148-1.376.714-2.328 1.256l-1.73.987-.052 2.617c-.05 2.572-.06 2.633-.512 3.577-.254.528-.722 1.21-1.041 1.514-.327.313-3.795 2.4-7.942 4.782-5.57 3.197-7.515 4.244-7.988 4.3-.564.066-.793-.023-2.316-.902-.93-.536-1.812-1.108-1.962-1.272-.155-.17-.301-.614-.342-1.037-.04-.407-.11-.74-.156-.74s-.556.278-1.134.618c-1.74 1.025-2.997 2.538-3.928 4.73l-.393.928v44.302l.322.597c.44.817 1.133 1.173 2.022 1.04.718-.107.973-.248 14.328-7.9l6.548-3.75-.207-.753c-.478-1.749-.389-4.91.206-7.23.122-.476.201-.883.176-.904-.025-.022-1.878 1.016-4.118 2.305-2.24 1.29-4.191 2.344-4.335 2.344-.268 0-.502-.375-.368-.59.041-.066 2.148-1.306 4.682-2.755l4.606-2.635.327-.813c2.102-5.229 6.039-9.977 9.989-12.046l1.013-.531-.09-14.94c-.048-8.216-.12-15.195-.16-15.508-.21-1.635-1.529-2.307-3.117-1.59ZM26.725 9.1c-1.295 1.286-1.045 3.34.318 2.612.994-.531 1.684-2.311 1.116-2.876-.322-.32-.965-.201-1.434.264ZM12.07 11.693c-.051.131-.093 1.987-.093 4.123 0 4.387-.06 4.15 1.227 4.876l.707.4v-3.845c0-2.114.063-4.01.141-4.213.13-.338.082-.403-.558-.772a35.689 35.689 0 0 1-1.015-.606c-.275-.176-.33-.17-.41.037Zm8 1.167c-1.2.508-1.845 2.56-.954 3.035.782.415 2.156-1.135 2.053-2.318-.061-.718-.47-.984-1.099-.717ZM7.776 15.445c-1.698.97-3.355 1.98-3.684 2.242-.587.468-1.88 2.008-1.766 2.103.032.026.873.518 1.869 1.091l1.81 1.044.376-.564c.672-1.009 1.86-2.05 3.296-2.89l1.408-.822v-1.985c0-1.091-.05-1.985-.112-1.985s-1.5.795-3.197 1.766Zm20.305 8.389c-4.353 2.496-7.953 4.634-8 4.75-.046.116.016.31.139.43.24.24.125.302 11.686-6.34 3.93-2.258 4.536-2.654 4.536-2.956 0-.195-.098-.366-.223-.387-.122-.02-3.785 2.006-8.138 4.503ZM1.442 21.436c-.173.448-.383 1.229-.468 1.735-.105.626-.118 7.748-.041 22.332.132 25.044-.148 22.06 2.2 23.41.816.47 1.483.843 1.485.83 0-.012-.052-9.358-.118-20.77-.066-11.411-.09-21.385-.055-22.165.05-1.072.176-1.733.519-2.722.249-.718.426-1.35.392-1.403-.062-.1-3.43-2.063-3.54-2.063-.032 0-.2.367-.374.816Zm11.948 6.211c-1.636.942-3.069 1.789-3.184 1.883-.115.095-.331.438-.48.763-.233.509-.27 1.01-.274 3.635-.003 2.896.013 3.063.318 3.449.26.328.407.39.78.33.497-.08 5.734-3.024 6.317-3.55.687-.62.762-1.054.762-4.383 0-3.108 0-3.113-.365-3.475-.201-.2-.486-.363-.633-.363-.147 0-1.605.77-3.241 1.711Zm.412.775c-1.492.866-2.864 1.726-3.05 1.911-.325.325-.338.442-.382 3.453-.043 2.913-.029 3.11.214 3.017.142-.054 1.489-.805 2.992-1.668 1.953-1.122 2.794-1.687 2.947-1.98.165-.318.213-1.086.213-3.372 0-1.628-.05-2.955-.111-2.949-.061.007-1.332.721-2.823 1.588Zm.503 1.981c-.114.183-.438.746-.72 1.252-.498.898-.518.914-.843.688-.402-.28-.765-.173-.765.226 0 .341.865 1.047 1.278 1.044.351-.003 2.044-2.947 1.903-3.31-.131-.34-.614-.283-.853.1Zm13.883 6.378c-4.294 2.466-7.895 4.563-8.002 4.66-.225.203-.176.44.13.631.157.099 2.373-1.102 8.17-4.428 7.064-4.05 7.956-4.603 7.956-4.921 0-.206-.095-.373-.223-.392-.122-.019-3.736 1.984-8.03 4.45Zm14.482-.668c-4.88 1.314-9.836 6.618-12.297 13.162-1.543 4.1-1.608 8.704-.16 11.159.368.623 1.817 2.052 1.948 1.921.036-.035-.035-.256-.157-.49-.797-1.53-1.035-5.329-.494-7.871.982-4.61 3.668-9.483 7.074-12.831 2.514-2.471 5.452-4.097 7.977-4.413l.887-.11-.801-.344c-1.122-.481-2.615-.55-3.977-.183Zm3.216 1.707c-1.382.305-3.725 1.535-5.25 2.755-3.924 3.143-7.231 8.699-8.227 13.822-.333 1.714-.334 4.385-.003 5.652 1.348 5.146 5.858 6.15 11.19 2.49 2.044-1.403 4.39-3.971 6.118-6.7 1.304-2.055 2.623-5.392 3.11-7.86.337-1.713.342-4.523.01-5.76-.942-3.506-3.538-5.15-6.948-4.399Zm-31.76 2.235a1053.6 1053.6 0 0 1-3.015 1.718c-.463.262-.959.697-1.19 1.044-.392.587-.398.639-.447 3.487-.056 3.264.053 3.923.685 4.161.278.105.51.1.773-.018.748-.335 5.59-3.152 5.935-3.454.687-.6.762-1.035.762-4.439 0-2.983-.019-3.198-.298-3.475-.163-.162-.451-.295-.64-.295-.188 0-1.342.572-2.565 1.27Zm-.36 1.213c-1.981 1.142-2.843 1.723-3.087 2.082-.322.475-.338.629-.338 3.347 0 1.567.05 2.88.112 2.917.21.129 5.859-3.221 6.07-3.6.152-.272.204-1.113.208-3.354.003-1.644-.045-2.987-.106-2.984-.061.004-1.348.72-2.86 1.592Zm.35 2.057c-1.133 1.971-1.006 1.826-1.374 1.57-.405-.281-.765-.171-.765.233 0 .337 1.103 1.21 1.39 1.102.293-.112 1.89-3.121 1.79-3.376-.174-.452-.63-.246-1.042.47Zm28.206 2.094c-.084.157-.154.496-.154.753 0 .371-.147.598-.718 1.108-1.277 1.14-2.088 3.181-1.666 4.193.245.586.818.801 1.643.617.358-.08.705-.112.77-.072.066.04.12.7.12 1.464 0 1.39 0 1.39-.439 1.616-.241.124-.777.297-1.191.385-.77.164-1.047.431-1.047 1.012 0 .388.293.39 1.511.011.519-.161.993-.294 1.054-.295.062-.001.112.23.112.515 0 .284.054.517.119.517.278 0 .476-.395.477-.953 0-.521.07-.644.54-.963 1.722-1.164 2.707-3.88 1.752-4.828-.33-.329-.469-.369-1.004-.291-.34.05-.77.132-.954.183-.332.093-.335.08-.335-1.482v-1.575l.632-.285c.348-.156.75-.286.892-.288.353-.004.855-.526.855-.889 0-.389-.492-.389-1.522 0-.43.162-.8.295-.82.295-.02 0-.037-.232-.037-.517 0-.582-.33-.711-.59-.23Zm-.886 3.07c-.542.653-.817 1.4-.694 1.884.095.379.374.487 1.017.396l.41-.057v-1.386c0-.763-.063-1.387-.138-1.387-.076 0-.344.248-.595.55Zm1.996 3.124-.446.094-.042 1.365c-.024.75-.005 1.365.042 1.365.265 0 .879-.567 1.196-1.105.394-.667.475-1.386.187-1.671-.19-.19-.25-.193-.937-.048Zm-30.116 1.714c-1.807 1.047-3.04 1.86-3.272 2.157-.369.471-.372.507-.417 3.866-.064 4.798-.11 4.772 4.112 2.367 1.526-.87 2.986-1.788 3.244-2.04.712-.694.823-1.358.768-4.58-.072-4.26-.114-4.276-4.435-1.77Zm.52.735c-1.472.847-2.827 1.714-3.011 1.926-.324.372-.335.485-.335 3.42 0 2.83.018 3.028.26 2.937.144-.054 1.475-.794 2.96-1.644 2.256-1.292 2.738-1.629 2.94-2.051.202-.422.235-.966.201-3.27-.024-1.678-.099-2.783-.189-2.811-.082-.026-1.353.646-2.826 1.493Zm.088 2.627c-.905 1.64-.8 1.53-1.193 1.257-.42-.292-.755-.187-.75.236.003.355 1.08 1.2 1.382 1.085.1-.038.574-.777 1.05-1.641.71-1.286.834-1.611.684-1.79-.335-.4-.577-.225-1.173.853Z" clip-rule="evenodd"/></svg>