<svg xmlns="http://www.w3.org/2000/svg" width="414" height="436" fill="none"><style>.B{fill:#505050}.C{color-interpolation-filters:sRGB}.D{flood-opacity:0}</style><g opacity=".6"><g stroke="#505050" stroke-width=".6"><path d="m6.971 265.355 197.374 145.986M6.972 265.355l328.804-5.106M203.665 410.863l75.442-230.621m0 0L6.972 265.355M6.972 265.355l11.146-157.823m0 0L63.356-84.39M-118.385-145.475 152.998 83.327m-.001 0L18.118 107.533m134.878-24.206 181.659 177.072M334.656 260.399l-55.549-80.157M334.656 260.399l-155.812-85.004m-.001 0-25.847-92.068m25.847 92.068 24.821 235.468m-24.82-235.468L6.972 265.355M152.997 83.327 62.916-83.762m0 0L-101.79 4.675M-101.79 4.675l254.786 78.652"/></g><g filter="url(#A)" class="B"><ellipse cx="150.514" cy="82.521" rx="4.596" ry="4.992" transform="rotate(305.058 150.514 82.521)"/></g><g filter="url(#B)" class="B"><ellipse cx="177.962" cy="176.65" rx="4.596" ry="4.992" transform="rotate(305.058 177.962 176.65)"/></g><g filter="url(#C)" class="B"><ellipse cx="279.107" cy="180.242" rx="4.596" ry="4.992" transform="rotate(305.058 279.107 180.242)"/></g><g filter="url(#D)" class="B"><ellipse cx="334.656" cy="260.399" rx="4.596" ry="4.992" transform="rotate(305.058 334.656 260.399)"/></g><g filter="url(#E)" class="B"><ellipse cx="204.786" cy="410.714" rx="4.596" ry="4.992" transform="rotate(305.058 204.786 410.714)"/></g><g filter="url(#F)" class="B"><ellipse cx="8.092" cy="265.205" rx="4.596" ry="4.992" transform="rotate(305.058 8.092 265.205)"/></g><g filter="url(#G)" class="B"><ellipse cx="18.798" cy="108.011" rx="4.596" ry="4.992" transform="rotate(305.058 18.798 108.011)"/></g></g><defs><filter id="A" x="125.648" y="57.79" width="49.731" height="49.461" filterUnits="userSpaceOnUse" class="C"><feFlood result="A" class="D"/><feColorMatrix in="SourceAlpha" values="0 0 0 0 0 0 0 0 0 0 0 0 0 0 0 0 0 0 127 0" result="B"/><feOffset/><feGaussianBlur stdDeviation="10"/><feComposite in2="B" operator="out"/><feColorMatrix values="0 0 0 0 1 0 0 0 0 1 0 0 0 0 1 0 0 0 0.02 0"/><feBlend in2="A"/><feBlend in="SourceGraphic"/><feGaussianBlur stdDeviation="5"/></filter><filter id="B" x="153.097" y="151.919" width="49.731" height="49.461" filterUnits="userSpaceOnUse" class="C"><feFlood result="A" class="D"/><feColorMatrix in="SourceAlpha" values="0 0 0 0 0 0 0 0 0 0 0 0 0 0 0 0 0 0 127 0" result="B"/><feOffset/><feGaussianBlur stdDeviation="10"/><feComposite in2="B" operator="out"/><feColorMatrix values="0 0 0 0 1 0 0 0 0 1 0 0 0 0 1 0 0 0 0.02 0"/><feBlend in2="A"/><feBlend in="SourceGraphic"/><feGaussianBlur stdDeviation="5"/></filter><filter id="C" x="254.241" y="155.512" width="49.731" height="49.461" filterUnits="userSpaceOnUse" class="C"><feFlood result="A" class="D"/><feColorMatrix in="SourceAlpha" values="0 0 0 0 0 0 0 0 0 0 0 0 0 0 0 0 0 0 127 0" result="B"/><feOffset/><feGaussianBlur stdDeviation="10"/><feComposite in2="B" operator="out"/><feColorMatrix values="0 0 0 0 1 0 0 0 0 1 0 0 0 0 1 0 0 0 0.02 0"/><feBlend in2="A"/><feBlend in="SourceGraphic"/><feGaussianBlur stdDeviation="5"/></filter><filter id="D" x="309.79" y="235.668" width="49.731" height="49.461" filterUnits="userSpaceOnUse" class="C"><feFlood result="A" class="D"/><feColorMatrix in="SourceAlpha" values="0 0 0 0 0 0 0 0 0 0 0 0 0 0 0 0 0 0 127 0" result="B"/><feOffset/><feGaussianBlur stdDeviation="10"/><feComposite in2="B" operator="out"/><feColorMatrix values="0 0 0 0 1 0 0 0 0 1 0 0 0 0 1 0 0 0 0.02 0"/><feBlend in2="A"/><feBlend in="SourceGraphic"/><feGaussianBlur stdDeviation="5"/></filter><filter id="E" x="179.92" y="385.984" width="49.731" height="49.461" filterUnits="userSpaceOnUse" class="C"><feFlood result="A" class="D"/><feColorMatrix in="SourceAlpha" values="0 0 0 0 0 0 0 0 0 0 0 0 0 0 0 0 0 0 127 0" result="B"/><feOffset/><feGaussianBlur stdDeviation="10"/><feComposite in2="B" operator="out"/><feColorMatrix values="0 0 0 0 1 0 0 0 0 1 0 0 0 0 1 0 0 0 0.02 0"/><feBlend in2="A"/><feBlend in="SourceGraphic"/><feGaussianBlur stdDeviation="5"/></filter><filter id="F" x="-16.773" y="240.475" width="49.731" height="49.461" filterUnits="userSpaceOnUse" class="C"><feFlood result="A" class="D"/><feColorMatrix in="SourceAlpha" values="0 0 0 0 0 0 0 0 0 0 0 0 0 0 0 0 0 0 127 0" result="B"/><feOffset/><feGaussianBlur stdDeviation="10"/><feComposite in2="B" operator="out"/><feColorMatrix values="0 0 0 0 1 0 0 0 0 1 0 0 0 0 1 0 0 0 0.02 0"/><feBlend in2="A"/><feBlend in="SourceGraphic"/><feGaussianBlur stdDeviation="5"/></filter><filter id="G" x="-6.067" y="83.28" width="49.731" height="49.461" filterUnits="userSpaceOnUse" class="C"><feFlood result="A" class="D"/><feColorMatrix in="SourceAlpha" values="0 0 0 0 0 0 0 0 0 0 0 0 0 0 0 0 0 0 127 0" result="B"/><feOffset/><feGaussianBlur stdDeviation="10"/><feComposite in2="B" operator="out"/><feColorMatrix values="0 0 0 0 1 0 0 0 0 1 0 0 0 0 1 0 0 0 0.02 0"/><feBlend in2="A"/><feBlend in="SourceGraphic"/><feGaussianBlur stdDeviation="5"/></filter></defs></svg>