<svg xmlns="http://www.w3.org/2000/svg" width="73" height="104" fill="none"><path d="M12.119 45.093c0-3.136 1.549-6.093 4.101-8.064m-4.101 8.064v38.44c0 5.107 0 6.72 2.187 7.885m-2.187-46.325L1 38.731m15.221-1.703 23.515-17.204c1.914-1.434 3.281-2.24 5.377-2.957l22.694-8.96c1.234-.404 2.161-.477 2.826-.156M16.221 37.029 5.284 30.577m9.023 60.841L37.73 102.26c3.646 1.792 5.742.179 7.747-3.226l24.517-39.157C71.816 57.14 72 55.487 72 52.261V11.76c0-2.272-.412-3.547-1.367-4.009M14.307 91.418 2.458 84.787C1 83.891 1 81.114 1 76.006V38.731m0 0c0-1.762.857-5.86 4.284-8.154m0 0 22.421-16.666c2.552-2.15 2.917-2.419 6.107-3.674l22.33-8.692c1.765-.879 2.552-.627 4.01.269l10.481 5.937m-17.682 17.27 7.565-2.957c.911-.359.911-.179.911.627v6.272m0 2.688v3.943M18.226 46.706c.094-2.046.337-3.182 2.461-5.107l21.145-15.86a17.81 17.81 0 0 1 6.562-3.674l13.58-5.197c2.552-1.075 3.737 0 3.737 2.599v32.257c0 2.688 0 3.495-1.641 5.824L41.832 93.031c-1.823 3.136-2.096 3.226-4.739 2.15l-16.861-7.795c-1.823-.986-1.823-.986-1.823-3.853l-.182-36.827z" stroke="#fff"/></svg>