<svg width="339" height="257" fill="none" xmlns="http://www.w3.org/2000/svg"><path d="M233.544 95.12c-21.869-9.134-40.19-20.882-52.135-32.476-5.974-5.797-10.334-11.538-12.755-16.873-2.42-5.335-2.883-10.218-1.154-14.358 1.729-4.14 5.527-7.242 11.022-9.271 5.497-2.03 12.644-2.964 20.967-2.791 16.642.346 37.877 5.117 59.747 14.25 21.869 9.134 40.191 20.882 52.136 32.475 5.973 5.798 10.333 11.538 12.754 16.874 2.42 5.334 2.883 10.217 1.154 14.357-1.729 4.14-5.527 7.243-11.022 9.272-5.497 2.029-12.644 2.963-20.967 2.791-16.642-.346-37.877-5.117-59.747-14.25Z" stroke="#150F0F"/><path d="M67.042 89.477c-10.147 10.685-21.022 18.723-30.387 23.09-4.683 2.184-8.965 3.439-12.573 3.663-3.608.224-6.492-.583-8.466-2.458-1.975-1.876-2.93-4.714-2.892-8.328.037-3.616 1.069-7.956 3.009-12.746 3.878-9.577 11.344-20.853 21.49-31.538 10.148-10.685 21.023-18.723 30.388-23.09 4.683-2.184 8.965-3.44 12.573-3.663 3.608-.224 6.492.583 8.466 2.458 1.975 1.875 2.93 4.714 2.892 8.328-.037 3.616-1.07 7.956-3.009 12.746-3.878 9.577-11.344 20.853-21.49 31.538Z" stroke="#fff"/><path d="m111 84 1.621 4.38L117 90l-4.379 1.62L111 96l-1.621-4.38L105 90l4.379-1.62L111 84Z" fill="#fff"/><path d="M267.708 169.081c7.309 18.43 10.979 36.26 11.017 50.178.019 6.961-.871 12.916-2.646 17.472-1.776 4.555-4.417 7.664-7.879 9.037-3.462 1.373-7.516.919-11.931-1.18-4.416-2.101-9.145-5.828-13.902-10.909-9.512-10.161-19.061-25.659-26.37-44.089-7.31-18.43-10.979-36.26-11.017-50.178-.019-6.961.87-12.916 2.646-17.472 1.776-4.555 4.416-7.664 7.879-9.037 3.462-1.373 7.516-.919 11.931 1.18 4.415 2.101 9.145 5.828 13.902 10.909 9.511 10.161 19.06 25.659 26.37 44.089Z" stroke="#fff"/></svg>