<svg width="328" height="316" fill="none" xmlns="http://www.w3.org/2000/svg"><path d="M208.748 143.334c-28.3-5.804-52.972-15.568-69.984-26.645-8.508-5.539-15.077-11.391-19.231-17.22-4.154-5.828-5.866-11.589-4.76-16.983 1.107-5.395 4.948-10.017 11.061-13.74 6.114-3.722 14.456-6.516 24.457-8.26 19.998-3.484 46.523-2.748 74.822 3.056 28.3 5.805 52.972 15.569 69.984 26.645 8.508 5.539 15.077 11.391 19.231 17.22 4.154 5.828 5.866 11.589 4.76 16.984-1.107 5.395-4.948 10.017-11.061 13.739-6.114 3.722-14.456 6.516-24.457 8.259-19.999 3.486-46.523 2.749-74.822-3.055Z" stroke="#150F0F"/><path d="m122.5 129 2.026 5.474L130 136.5l-5.474 2.026L122.5 144l-2.026-5.474L115 136.5l5.474-2.026L122.5 129Z" fill="#fff"/><path d="M80.296 92.516c-5.7 21.044-14.21 39.164-23.345 51.45-4.569 6.144-9.277 10.807-13.847 13.654-4.57 2.846-8.956 3.851-12.926 2.776-3.97-1.076-7.25-4.157-9.759-8.92-2.509-4.764-4.22-11.166-5.063-18.776-1.686-15.216.111-35.155 5.81-56.2 5.7-21.043 14.211-39.164 23.346-51.45 4.569-6.144 9.277-10.807 13.847-13.654 4.57-2.846 8.956-3.85 12.926-2.775 3.97 1.075 7.25 4.156 9.759 8.92 2.509 4.763 4.22 11.165 5.063 18.775 1.686 15.216-.111 35.155-5.81 56.2Z" stroke="#fff"/><path d="M235.508 227.388c7.063 17.81 10.179 35.209 9.525 48.929-.656 13.771-5.089 23.626-12.881 26.717-7.793 3.09-17.775-1.048-27.692-10.625-9.88-9.543-19.536-24.347-26.599-42.157-7.064-17.81-10.18-35.208-9.526-48.929.657-13.77 5.089-23.626 12.882-26.716 7.792-3.091 17.775 1.047 27.691 10.625 9.88 9.542 19.536 24.347 26.6 42.156Z" stroke="#150F0F"/></svg>