<svg width="321" height="165" fill="none" xmlns="http://www.w3.org/2000/svg"><path d="M285.152 95.892c-9.558 15.658-20.697 28.29-30.963 36.061-5.134 3.886-10.028 6.54-14.379 7.76-4.35 1.221-8.107.997-11.037-.792-2.931-1.788-4.847-5.028-5.75-9.454-.903-4.428-.78-9.994.33-16.337 2.218-12.682 8.362-28.364 17.92-44.022 9.557-15.659 20.697-28.29 30.962-36.061 5.134-3.886 10.029-6.54 14.38-7.76 4.35-1.221 8.107-.997 11.037.791 2.93 1.789 4.847 5.028 5.75 9.455.903 4.428.78 9.994-.33 16.337-2.219 12.682-8.362 28.363-17.92 44.022Z" stroke="#fff"/><path d="M201.344 150.983c-17.971-3.686-33.63-9.885-44.42-16.91-5.396-3.514-9.551-7.219-12.174-10.899-2.622-3.679-3.685-7.289-2.995-10.652.69-3.364 3.088-6.264 6.947-8.614 3.859-2.35 9.138-4.12 15.481-5.226 12.684-2.21 29.519-1.745 47.49 1.941 17.971 3.686 33.631 9.885 44.42 16.91 5.396 3.513 9.552 7.218 12.175 10.898 2.622 3.679 3.685 7.29 2.995 10.653-.69 3.363-3.088 6.264-6.947 8.614-3.86 2.35-9.138 4.12-15.482 5.226-12.683 2.21-29.519 1.745-47.49-1.941Z" stroke="#150F0F"/><path d="M50.948 43.66C64.892 31.737 79.4 23.184 91.57 18.981c6.086-2.101 11.562-3.106 16.077-2.917 4.514.19 8.017 1.568 10.248 4.177 2.23 2.61 3.047 6.283 2.533 10.772-.515 4.49-2.359 9.743-5.381 15.428-6.044 11.369-16.749 24.37-30.692 36.292-13.944 11.921-28.453 20.474-40.622 24.677-6.087 2.102-11.563 3.107-16.078 2.917-4.514-.189-8.016-1.567-10.247-4.177-2.23-2.609-3.048-6.283-2.533-10.772.515-4.49 2.359-9.742 5.381-15.428C26.3 68.583 37.004 55.58 50.948 43.659Z" stroke="#fff"/></svg>