<svg width="285" height="299" fill="none" xmlns="http://www.w3.org/2000/svg"><path d="M220.077 176.89c-17.528 28.716-37.965 51.898-56.82 66.17-9.429 7.137-18.441 12.03-26.479 14.285-8.036 2.254-15.048 1.86-20.547-1.497-5.499-3.356-9.055-9.412-10.723-17.591-1.668-8.179-1.436-18.431.602-30.079 4.075-23.294 15.352-52.068 32.88-80.784 17.528-28.716 37.965-51.898 56.821-66.17 9.429-7.138 18.441-12.03 26.478-14.285 8.036-2.255 15.048-1.86 20.547 1.496 5.499 3.357 9.055 9.413 10.723 17.591 1.668 8.18 1.436 18.431-.602 30.08-4.075 23.294-15.351 52.068-32.88 80.784Z" stroke="#150F0F"/><path d="M165.467 118.283c-13.473 22.074-29.181 39.889-43.667 50.854-7.244 5.483-14.161 9.237-20.323 10.966-6.161 1.728-11.517 1.421-15.71-1.138-4.192-2.559-6.914-7.183-8.193-13.452-1.28-6.271-1.102-14.14.463-23.089 3.131-17.896 11.796-40.01 25.27-62.084 13.474-22.073 29.181-39.889 43.667-50.854 7.245-5.483 14.162-9.237 20.324-10.966 6.161-1.728 11.517-1.42 15.71 1.139 4.192 2.559 6.914 7.182 8.193 13.452s1.102 14.139-.464 23.088c-3.13 17.896-11.796 40.01-25.27 62.084Z" stroke="#fff"/><path d="m9 281 2.43 6.569L18 290l-6.57 2.431L9 299l-2.43-6.569L0 290l6.57-2.431L9 281Z" fill="#fff"/></svg>