<svg width="289" height="322" fill="none" xmlns="http://www.w3.org/2000/svg"><path d="M239.467 118.283c-13.473 22.074-29.181 39.889-43.667 50.854-7.244 5.483-14.161 9.237-20.323 10.966-6.161 1.728-11.517 1.421-15.71-1.138-4.192-2.559-6.914-7.183-8.193-13.452-1.279-6.271-1.102-14.14.463-23.089 3.131-17.896 11.797-40.01 25.27-62.084 13.474-22.073 29.181-39.889 43.667-50.854 7.245-5.483 14.162-9.237 20.324-10.966 6.161-1.728 11.517-1.42 15.71 1.139 4.192 2.559 6.914 7.182 8.193 13.452s1.102 14.139-.464 23.088c-3.13 17.896-11.796 40.01-25.27 62.084Z" stroke="#fff"/><path d="M103.071 195.982c-25.333-5.196-47.417-13.937-62.642-23.85-7.614-4.957-13.49-10.193-17.205-15.404-3.714-5.211-5.24-10.355-4.253-15.166.987-4.812 4.414-8.939 9.88-12.267 5.466-3.329 12.928-5.829 21.879-7.389 17.898-3.119 41.64-2.46 66.973 2.736 25.334 5.196 47.418 13.936 62.643 23.849 7.614 4.957 13.49 10.193 17.205 15.405 3.714 5.21 5.24 10.354 4.253 15.165-.987 4.812-4.414 8.939-9.88 12.267-5.466 3.329-12.928 5.829-21.879 7.389-17.898 3.119-41.64 2.461-66.974-2.735Z" stroke="#150F0F"/><path d="M6.037 223.686c1.526-25.816 7.025-48.922 14.663-65.406 3.82-8.243 8.163-14.807 12.79-19.227 4.628-4.42 9.501-6.664 14.404-6.375 4.903.29 9.478 3.093 13.552 8.028 4.075 4.935 7.615 11.964 10.436 20.6 5.642 17.27 8.38 40.863 6.853 66.678-1.526 25.816-7.025 48.922-14.663 65.406-3.82 8.244-8.163 14.807-12.79 19.228-4.628 4.42-9.501 6.664-14.404 6.374-4.903-.29-9.478-3.093-13.552-8.027-4.075-4.935-7.615-11.965-10.436-20.601-5.642-17.269-8.38-40.862-6.853-66.678Z" stroke="#fff"/></svg>