<svg width="291" height="187" fill="none" xmlns="http://www.w3.org/2000/svg"><path d="M142.2 126.584c-35.328-7.246-66.134-19.437-87.38-33.27-10.624-6.917-18.836-14.23-24.033-21.522-5.196-7.29-7.35-14.514-5.96-21.292 1.39-6.777 6.214-12.57 13.86-17.226 7.648-4.657 18.075-8.148 30.565-10.325 24.976-4.352 58.093-3.432 93.422 3.814 35.328 7.246 66.134 19.436 87.38 33.27 10.625 6.917 18.836 14.23 24.033 21.521 5.196 7.29 7.35 14.515 5.96 21.292-1.39 6.778-6.214 12.571-13.86 17.227-7.648 4.657-18.075 8.147-30.565 10.324-24.976 4.353-58.093 3.432-93.422-3.813Z" stroke="#150F0F"/><path d="m10 143 2.7 7.299L20 153l-7.3 2.701L10 163l-2.7-7.299L0 153l7.3-2.701L10 143ZM46.5 160l3.646 9.854L60 173.5l-9.854 3.646L46.5 187l-3.646-9.854L33 173.5l9.854-3.646L46.5 160Z" fill="#fff"/></svg>