<svg width="354" height="460" fill="none" xmlns="http://www.w3.org/2000/svg"><path d="M131.646 138.48c-19.903 20.959-41.249 36.741-59.655 45.326-9.205 4.292-17.65 6.773-24.798 7.217-7.147.443-12.944-1.151-16.94-4.946-3.995-3.794-5.887-9.502-5.813-16.662.074-7.16 2.116-15.723 5.928-25.137 7.622-18.825 22.283-40.957 42.186-61.915 19.903-20.959 41.249-36.741 59.655-45.325 9.205-4.293 17.651-6.774 24.798-7.218 7.147-.443 12.944 1.151 16.94 4.946 3.995 3.794 5.887 9.502 5.813 16.662-.074 7.16-2.116 15.723-5.928 25.137-7.622 18.825-22.283 40.957-42.186 61.915ZM314.867 331.632c10.656 26.867 16.009 52.869 16.064 73.179.028 10.156-1.269 18.862-3.87 25.535-2.6 6.671-6.483 11.262-11.605 13.294-5.122 2.031-11.096 1.349-17.562-1.726-6.467-3.076-13.379-8.527-20.32-15.941-13.88-14.827-27.804-37.43-38.46-64.297-10.655-26.867-16.008-52.869-16.064-73.179-.028-10.156 1.269-18.862 3.87-25.535 2.601-6.671 6.484-11.262 11.605-13.293 5.122-2.032 11.097-1.35 17.563 1.725 6.467 3.076 13.379 8.527 20.32 15.941 13.88 14.827 27.803 37.43 38.459 64.297Z" stroke="#fff"/><path d="M326.314 79.552c3.381 21.901 2.945 42.245-.476 57.425-1.711 7.592-4.163 13.866-7.235 18.396-3.073 4.529-6.735 7.273-10.87 7.911-4.135.639-8.454-.873-12.749-4.264-4.296-3.392-8.526-8.635-12.447-15.357-7.84-13.442-14.391-32.708-17.773-54.608-3.381-21.9-2.945-42.245.476-57.425 1.711-7.592 4.163-13.866 7.236-18.396 3.072-4.529 6.735-7.273 10.869-7.911 4.135-.639 8.454.873 12.749 4.264 4.296 3.393 8.526 8.635 12.447 15.358 7.84 13.441 14.392 32.707 17.773 54.607Z" stroke="#150F0F"/><path d="m215 75 2.431 6.57L224 84l-6.569 2.43L215 93l-2.431-6.57L206 84l6.569-2.43L215 75Z" fill="#fff"/></svg>