<svg width="327" height="362" fill="none" xmlns="http://www.w3.org/2000/svg"><path d="M123.867 233.634c10.656 26.867 16.009 52.869 16.064 73.179.028 10.156-1.269 18.862-3.87 25.535-2.6 6.671-6.483 11.262-11.605 13.294-5.122 2.031-11.096 1.349-17.562-1.726-6.467-3.076-13.379-8.527-20.32-15.941-13.88-14.827-27.804-37.43-38.46-64.297-10.655-26.867-16.008-52.869-16.064-73.179-.028-10.156 1.27-18.862 3.87-25.535 2.6-6.671 6.484-11.262 11.605-13.294 5.122-2.031 11.097-1.349 17.563 1.726 6.467 3.076 13.379 8.527 20.32 15.941 13.88 14.827 27.803 37.43 38.459 64.297ZM211.992 108.058c-28.653-3.798-53.964-11.804-71.723-21.658-8.881-4.929-15.849-10.306-20.406-15.83-4.557-5.524-6.672-11.153-5.948-16.615.724-5.462 4.233-10.346 10.071-14.491 5.839-4.147 13.968-7.523 23.826-9.968 19.712-4.888 46.235-6.023 74.888-2.225 28.652 3.798 53.963 11.803 71.722 21.658 8.881 4.929 15.849 10.306 20.407 15.83 4.556 5.524 6.671 11.153 5.947 16.615-.724 5.462-4.232 10.346-10.07 14.491-5.839 4.147-13.968 7.523-23.826 9.968-19.713 4.888-46.236 6.023-74.888 2.225Z" stroke="#150F0F"/><path d="M121.152 129.898c-13.888 24.952-30.43 45.306-45.929 58.048-7.751 6.373-15.221 10.824-21.95 13.007-6.729 2.183-12.667 2.083-17.422-.563-4.755-2.646-7.968-7.641-9.66-14.509-1.69-6.869-1.843-15.564-.512-25.51 2.661-19.888 11.243-44.672 25.13-69.624C64.696 65.796 81.237 45.442 96.737 32.7c7.752-6.372 15.222-10.824 21.951-13.007 6.728-2.182 12.666-2.083 17.421.563 4.755 2.647 7.969 7.641 9.66 14.51 1.691 6.869 1.844 15.563.513 25.51-2.662 19.887-11.243 44.672-25.13 69.623Z" stroke="#fff"/><path d="m249.5 270 3.646 9.854L263 283.5l-9.854 3.646L249.5 297l-3.646-9.854L236 283.5l9.854-3.646L249.5 270ZM181 136l2.431 6.569L190 145l-6.569 2.431L181 154l-2.431-6.569L172 145l6.569-2.431L181 136Z" fill="#fff"/></svg>