<svg width="243" height="151" fill="none" xmlns="http://www.w3.org/2000/svg"><path d="M208.591 94.449c-9.36 15.334-20.268 27.703-30.32 35.312-5.027 3.806-9.819 6.404-14.078 7.599-4.258 1.194-7.935.975-10.801-.775-2.866-1.75-4.742-4.919-5.626-9.252-.884-4.335-.764-9.784.323-15.995 2.172-12.419 8.188-27.774 17.548-43.108 9.36-15.334 20.267-27.704 30.319-35.312 5.028-3.806 9.82-6.404 14.079-7.599 4.258-1.194 7.934-.975 10.801.775 2.866 1.75 4.742 4.919 5.626 9.252.884 4.335.763 9.784-.323 15.995-2.173 12.418-8.188 27.774-17.548 43.108Z" stroke="#150F0F"/><path d="M179.395 63.116c-7.192 11.783-15.572 21.283-23.288 27.123-3.859 2.922-7.531 4.91-10.788 5.825-3.255.913-6.046.74-8.214-.583-2.168-1.324-3.598-3.727-4.274-7.04-.676-3.315-.585-7.49.249-12.257 1.668-9.533 6.287-21.328 13.48-33.11 7.192-11.783 15.571-21.284 23.287-27.124 3.859-2.921 7.531-4.91 10.788-5.824 3.256-.914 6.047-.74 8.214.583 2.168 1.323 3.598 3.726 4.274 7.04.676 3.314.585 7.489-.249 12.257-1.668 9.532-6.287 21.327-13.479 33.11Z" stroke="#fff"/><path d="m6.5 53 1.756 4.744L13 59.5l-4.744 1.756L6.5 66l-1.756-4.744L0 59.5l4.744-1.756L6.5 53Z" fill="#fff"/></svg>