<svg width="309" height="123" fill="none" xmlns="http://www.w3.org/2000/svg"><path d="M189.748 101.334c-28.3-5.804-52.972-15.568-69.984-26.645-8.508-5.539-15.077-11.391-19.231-17.22-4.154-5.828-5.866-11.589-4.76-16.983 1.107-5.395 4.948-10.017 11.061-13.74 6.114-3.722 14.456-6.516 24.457-8.26 19.998-3.485 46.523-2.748 74.822 3.056 28.3 5.804 52.972 15.569 69.984 26.645 8.508 5.539 15.077 11.391 19.231 17.22 4.154 5.828 5.866 11.589 4.76 16.984-1.107 5.395-4.948 10.016-11.061 13.739-6.114 3.722-14.456 6.516-24.457 8.259-19.999 3.486-46.523 2.749-74.822-3.055Z" stroke="#150F0F"/><path d="m7.5 39 2.026 5.474L15 46.5l-5.474 2.026L7.5 54l-2.026-5.474L0 46.5l5.474-2.026L7.5 39ZM34 51l2.7 7.3L44 61l-7.3 2.7L34 71l-2.7-7.3L24 61l7.3-2.7L34 51Z" fill="#fff"/></svg>