<svg width="250" height="277" fill="none" xmlns="http://www.w3.org/2000/svg"><path d="M94.51 178.513c8.136 20.513 12.221 40.36 12.264 55.857.021 7.749-.969 14.384-2.949 19.462-1.979 5.078-4.926 8.553-8.798 10.088-3.872 1.536-8.4 1.026-13.322-1.315-4.922-2.341-10.19-6.494-15.486-12.151-10.59-11.313-21.22-28.565-29.355-49.078-8.136-20.513-12.22-40.361-12.263-55.857-.021-7.75.968-14.384 2.948-19.463 1.98-5.077 4.927-8.552 8.799-10.088 3.871-1.536 8.4-1.026 13.32 1.315 4.923 2.341 10.191 6.494 15.488 12.151 10.59 11.313 21.219 28.565 29.355 49.079ZM161.953 82.427c-21.877-2.9-41.197-9.011-54.746-16.53-6.777-3.76-12.086-7.86-15.555-12.065-3.468-4.204-5.064-8.471-4.517-12.6.547-4.13 3.2-7.834 7.644-10.99 4.444-3.155 10.638-5.73 18.16-7.595 15.041-3.73 35.286-4.597 57.162-1.697 21.877 2.9 41.197 9.01 54.746 16.53 6.777 3.76 12.086 7.86 15.555 12.064 3.468 4.204 5.064 8.472 4.517 12.601-.547 4.13-3.201 7.834-7.644 10.99-4.444 3.155-10.638 5.73-18.16 7.595-15.041 3.73-35.286 4.597-57.162 1.697Z" stroke="#150F0F"/><path d="M92.443 99.17c-10.603 19.05-23.23 34.586-35.056 44.308-5.915 4.863-11.608 8.254-16.73 9.915-5.12 1.661-9.62 1.579-13.213-.421-3.594-2-6.035-5.781-7.322-11.009-1.287-5.228-1.405-11.853-.39-19.442 2.031-15.174 8.58-34.093 19.183-53.143 10.603-19.05 23.23-34.586 35.056-44.308 5.915-4.863 11.608-8.254 16.73-9.915 5.12-1.661 9.619-1.58 13.213.421 3.594 2 6.035 5.781 7.322 11.008 1.287 5.229 1.405 11.854.39 19.443-2.031 15.174-8.58 34.092-19.183 53.143Z" stroke="#fff"/><path d="m138 104 1.891 5.109L145 111l-5.109 1.891L138 118l-1.891-5.109L131 111l5.109-1.891L138 104Z" fill="#fff"/></svg>