<svg width="312" height="188" fill="none" xmlns="http://www.w3.org/2000/svg"><path d="M272.335 123.776c-10.683 17.502-23.135 31.624-34.614 40.312-5.74 4.346-11.216 7.316-16.087 8.682-4.871 1.367-9.087 1.119-12.38-.891-3.293-2.01-5.441-5.647-6.452-10.604-1.011-4.957-.873-11.185.368-18.277 2.481-14.181 9.349-31.71 20.032-49.213 10.683-17.502 23.135-31.623 34.614-40.312 5.74-4.345 11.216-7.315 16.087-8.682 4.871-1.366 9.088-1.118 12.381.892 3.293 2.01 5.441 5.647 6.452 10.603 1.011 4.958.872 11.185-.368 18.277-2.481 14.18-9.349 31.711-20.033 49.213Z" stroke="#F73737"/><path d="M271.833 72.055c-8.211 13.45-17.777 24.298-26.59 30.969-4.408 3.336-8.606 5.611-12.333 6.657-3.727 1.045-6.933.85-9.429-.673-2.496-1.524-4.135-4.286-4.909-8.079-.774-3.793-.669-8.567.284-14.012 1.904-10.888 7.18-24.355 15.39-37.805s17.776-24.298 26.589-30.969c4.408-3.336 8.606-5.612 12.333-6.657 3.727-1.046 6.933-.85 9.429.673 2.496 1.523 4.135 4.286 4.909 8.079.774 3.793.669 8.567-.284 14.012-1.904 10.887-7.179 24.355-15.389 37.805ZM64.371 74.21c6.582 14.317 10.248 28.308 10.867 39.344.31 5.519-.144 10.272-1.355 13.949-1.212 3.676-3.162 6.229-5.82 7.45-2.656 1.222-5.864 1.04-9.443-.433-3.58-1.474-7.482-4.225-11.47-8.053-7.973-7.655-16.207-19.546-22.79-33.864C17.78 78.286 14.114 64.296 13.495 53.26c-.31-5.52.143-10.272 1.355-13.95 1.212-3.675 3.162-6.228 5.82-7.45 2.656-1.22 5.863-1.04 9.442.434 3.58 1.474 7.483 4.224 11.471 8.053 7.973 7.655 16.207 19.546 22.789 33.864Z" stroke="#fff"/></svg>