<svg xmlns="http://www.w3.org/2000/svg" width="1920" height="294" fill="none" stroke="#505050" stroke-width=".5"><path d="M0 54.5S243.625.853 402 1c242.141.225 376.899 183.932 619 179.5 199.9-3.659 383.81-143.112 583.5-153 160.15-7.93 315.5 27 315.5 27"/><path d="M0 108.046s346.625 185.352 505 185.5c242.141.225 382.899-208.068 625-212.5 199.9-3.659 283.56 212.5 483.5 212.5 168 0 298-94.5 298-94.5"/><path d="M0 46.929S248.53 4.663 406.905 4.81c242.141.225 377.185 165.265 619.285 160.833 199.9-3.659 379.04-126.178 578.74-135.595 160.52-7.553 314.67 21.215 314.67 21.215"/><path d="M0 39.358S253.435 8.472 411.81 8.62c242.141.225 377.47 146.597 619.57 142.166 199.9-3.659 374.26-109.244 573.98-118.19 160.9-7.175 313.83 15.429 313.83 15.429"/><path d="M0 31.787S258.339 12.282 416.714 12.43c242.141.226 377.757 127.932 619.856 123.5 199.9-3.659 369.49-92.31 569.22-100.785 161.27-6.797 313 9.643 313 9.643"/><path d="m0 24.216 421.619-7.976c242.141.226 378.042 109.265 620.141 104.833 199.9-3.659 364.72-75.376 564.45-83.381 161.65-6.42 312.17 3.857 312.17 3.857"/><path d="m0 20.048 426.524 3.405c242.141.225 378.328 90.598 620.426 86.167 199.9-3.659 359.94-58.443 559.69-65.976 162.02-6.042 311.34-1.928 311.34-1.928"/><path d="M0 23.857s273.054 14.638 431.429 14.786c242.141.225 378.613 71.931 620.711 67.5 199.91-3.66 355.17-41.509 554.93-48.572l310.5-7.714"/><path d="M0 27.667s277.958 26.019 436.333 26.167c242.141.225 378.9 53.265 620.997 48.833 199.91-3.659 350.4-24.574 550.17-31.166L1917.17 58"/><path d="M0 31.476s282.863 37.4 441.238 37.548c242.141.225 379.185 34.598 621.282 30.167l545.41-13.762c163.14-4.909 308.83-19.286 308.83-19.286"/><path d="M0 35.286s287.768 48.781 446.143 48.928c242.141.225 379.471 15.932 621.567 11.5 199.91-3.659 340.85 9.293 540.65 3.643 163.51-4.532 308-25.071 308-25.071"/><path d="M0 39.095s292.673 60.162 451.048 60.309l621.852-7.167c199.91-3.659 336.08 26.227 535.89 21.047 163.88-4.154 307.16-30.857 307.16-30.857"/><path d="M0 42.905s297.578 71.543 455.952 71.69c242.141.226 380.043-21.402 622.148-25.833 199.9-3.659 331.29 43.161 531.11 38.452 164.27-3.776 306.34-36.643 306.34-36.643"/><path d="M0 46.714s302.482 82.924 460.857 83.071c242.141.226 380.328-40.068 622.433-44.5 199.9-3.659 326.52 60.095 526.35 55.858 164.64-3.399 305.5-42.429 305.5-42.429"/><path d="M0 50.524s307.387 94.305 465.762 94.452c242.141.225 380.614-58.735 622.718-63.167 199.9-3.659 321.75 77.029 521.59 73.262 165.01-3.021 304.67-48.214 304.67-48.214"/><path d="M0 54.333s312.292 105.686 470.667 105.833c242.141.226 380.899-77.401 623.003-81.833 199.9-3.659 316.98 93.963 516.83 90.667 165.38-2.644 303.83-54 303.83-54"/><path d="M0 58.143s317.197 117.066 475.571 117.214c242.142.225 381.186-96.069 623.289-100.5 199.9-3.659 312.2 110.897 512.07 108.071 165.76-2.266 303-59.786 303-59.786"/><path d="M0 61.952S322.101 190.4 480.476 190.547c242.141.226 381.471-114.735 623.574-119.166 199.9-3.659 307.43 127.83 507.31 125.476 166.13-1.888 302.16-65.572 302.16-65.572"/><path d="M0 65.762S327.006 205.59 485.381 205.738c242.141.225 381.756-133.402 623.859-137.834 199.9-3.659 302.66 144.765 502.55 142.882 166.5-1.511 301.33-71.358 301.33-71.358M0 74.774s331.911 151.21 490.286 151.357c242.141.226 382.042-152.068 624.144-156.5 199.9-3.659 297.88 161.699 497.78 160.286 166.88-1.133 300.5-77.143 300.5-77.143M0 85.864s336.816 162.591 495.19 162.738c242.142.225 382.328-170.735 624.43-175.167 199.9-3.659 293.11 178.633 493.02 177.691 167.26-.755 299.67-82.929 299.67-82.929M0 96.955s341.72 173.971 500.095 174.119c242.141.225 382.614-189.402 624.715-193.834 199.9-3.659 288.34 195.566 488.26 195.096 167.63-.378 298.83-88.715 298.83-88.715"/></svg>