<svg xmlns="http://www.w3.org/2000/svg" width="183" height="82" fill="none"><g fill="#fff"><path fill-rule="evenodd" d="M61.452 6.896c-.098.097-.178 5.221-.178 11.387v11.211l3.268-.065 3.268-.065.063-8.514.062-8.514 3.265.085c3.865.101 4.732.4 5.652 1.948.766 1.288 1.044 4.032 1.052 10.375l.006 4.75 3.149-.065 3.149-.065.068-6.793c.041-4.111-.033-7.377-.188-8.272-.511-2.951-1.919-5.067-4.105-6.169C77.786 7.022 77 6.928 69.117 6.821c-4.118-.056-7.567-.022-7.665.074zm23.917.203c-.073.187 1.117 4.166 2.644 8.843l3.599 11.026.823 2.523 4.764-.063 4.764-.063 3.552-10.762c1.953-5.919 3.52-10.979 3.482-11.244-.066-.454-.248-.486-3.066-.548-2.21-.048-3.061.013-3.247.234-.204.242-1.513 4.45-4.956 15.936-.355 1.184-.834-.028-3.057-7.73-1.292-4.477-2.463-8.218-2.603-8.312s-1.674-.174-3.41-.176c-2.54-.003-3.182.063-3.289.336zm26.637-.047c-.062.161-.086 5.247-.052 11.302l.062 11.01h6.417l.062-11.112c.049-8.734-.002-11.152-.238-11.299-.518-.324-6.12-.236-6.251.098zm10.375.127c-.282.519-.395 21.225-.12 21.931.127.325.919.37 6.477.366 3.483-.003 7.077-.111 7.988-.241 5.241-.747 7.739-4.287 7.729-10.955-.008-4.975-1.731-8.478-4.97-10.107-2.059-1.036-3.396-1.211-10.271-1.349-6.473-.13-6.573-.125-6.833.354zm25.041-.134c-.064.165-.089 5.254-.055 11.309l.062 11.01h6.417V6.876l-3.154-.065c-2.392-.05-3.182.007-3.27.234zm18.006.007c-.454.551-8.86 21.828-8.743 22.129.087.223.907.301 3.183.301h3.066l.712-1.933.712-1.933 5.232-.063 5.233-.063.682 1.937.682 1.937 3.273.065c2.827.056 3.293.014 3.419-.312.16-.41-8.371-21.891-8.808-22.179-.478-.315-8.376-.212-8.643.114zm-36.537 5.127c-.07.18-.099 3.014-.064 6.297l.064 5.969 2.324-.029c2.813-.036 4.087-.455 5.256-1.731 1.617-1.763 2.013-5.088.902-7.563-.998-2.223-2.415-2.977-5.923-3.149-1.946-.096-2.457-.054-2.559.207zm40.465.017-1.716 4.466c-.88 2.29-1.54 4.319-1.466 4.509.186.478 6.753.515 6.939.039.149-.384-3.067-9.129-3.398-9.237-.134-.044-.295.056-.359.223z"/><path d="M20.597 5.131c-.268-.37-.254-3.835.018-4.226l.196-.282h16.097l16.295.199c.178.179.198 1.923.198 17.298l-.198 17.298c-.178.179-1.826.199-16.26.199-14.77 0-16.081-.017-16.293-.21-.2-.182-.23-.421-.23-1.819 0-1.374.032-1.637.22-1.802.173-.152.722-.21 2.549-.269 3.39-.11 6.322-.586 10.7-1.739 5.357-1.41 10.524-3.557 13.658-5.674 1.278-.863 1.532-1.203 1.198-1.608-.245-.297-4.986-2.983-5.266-2.983-.146 0-.764.415-1.372.922-6.69 5.577-11.696 7.948-17.861 8.458-1.846.153-3.28.064-3.607-.223-.176-.154-.22-.401-.22-1.21 0-1.458.03-1.48 1.954-1.48 1.846 0 3.32-.241 5.095-.833 3.752-1.251 7.497-3.788 11.424-7.741 1.482-1.491 1.92-2.007 1.92-2.259 0-.247-.36-.692-1.479-1.827-3.14-3.187-6.56-5.4-10.403-6.731-2.189-.758-3.704-1.04-6.099-1.135-1.834-.072-2.076-.108-2.234-.326z"/><path d="M6.572 10.676c4.288-2.874 8.915-4.729 13.155-5.275.883-.114.818-.206.818 1.163v1.249l1.794.076c2.523.106 4.254.569 6.566 1.756 2.421 1.242 4.972 3.353 6.605 5.464.151.196.087.327-.56 1.141-.402.506-1.386 1.581-2.186 2.388-4.036 4.071-8.062 5.827-11.494 5.014l-.724-.172v2.468l-.761-.177c-3.94-.917-7.185-3.894-9.046-8.299-.284-.671-.516-1.282-.516-1.357s.382-.468.85-.873c2.265-1.962 5.329-3.488 7.962-3.963l1.101-.205c.275-.055.283-.103.283-1.564V8.002l-.535.061c-3.066.349-6.25 1.52-8.8 3.239-1.32.889-3.274 2.621-4.073 3.609-.719.889-.717.908.327 3.084 2.067 4.311 5.004 7.523 8.491 9.289.921.466 2.916 1.153 3.772 1.299 1.01.172.944.061.944 1.594 0 1.104-.036 1.386-.176 1.386-.518 0-3.179-.537-4.081-.825-3.386-1.077-6.141-2.802-8.907-5.576-2.094-2.1-3.412-3.843-4.796-6.342-.639-1.153-1.677-3.386-1.677-3.607 0-.309 3.296-2.948 5.665-4.535z"/></g><path d="m20.545 11.161.598-.055c3.149-.289 6.371.903 8.812 3.261l.936.904-2.181 1.851-2.181 1.851-.906-1.477c-1.45-2.365-2.512-3.25-4.3-3.585l-.779-.146v-2.604zm-2.958 3.224a9.784 9.784 0 0 1 1.196-.383c.893-.221 1.503-.234 1.579-.033.033.088.046 2.225.027 4.749l-.033 4.59-.755-.387c-1.07-.548-1.908-1.229-2.707-2.199-.873-1.059-1.542-2.169-1.972-3.27l-.336-.86.43-.45a10.64 10.64 0 0 1 2.57-1.757z" fill="#000"/><path d="M66.513 74.591c-3.541 0-6.155-.928-7.84-2.784s-2.528-4.747-2.528-8.672c0-7.595 3.477-11.392 10.432-11.392a13.66 13.66 0 0 1 2.112.16 14.34 14.34 0 0 1 1.92.416c.597.171 1.088.373 1.472.608.533.299.8.597.8.896 0 .192-.085.469-.256.832a4.42 4.42 0 0 1-.544.928c-.213.277-.405.416-.576.416-.128 0-.384-.107-.768-.32-.363-.213-.885-.427-1.568-.64s-1.536-.32-2.56-.32c-2.368 0-4.117.683-5.248 2.048-1.131 1.344-1.696 3.477-1.696 6.4 0 2.88.555 5.013 1.664 6.4 1.131 1.387 2.859 2.08 5.184 2.08 1.067 0 1.973-.128 2.72-.384s1.344-.501 1.792-.736c.469-.256.768-.384.896-.384.213 0 .416.139.608.416.213.277.384.576.512.896.149.32.224.555.224.704 0 .192-.096.395-.288.608-.171.213-.427.405-.768.576-.405.235-.917.448-1.536.64-.597.171-1.259.309-1.984.416a12.14 12.14 0 0 1-2.176.192zm19.108 0c-2.859 0-5.056-.661-6.592-1.984s-2.304-3.157-2.304-5.504v-14.4c0-.533.491-.8 1.472-.8h.48c.981 0 1.472.267 1.472.8v14.368c0 .896.235 1.696.704 2.4.469.683 1.12 1.216 1.952 1.6s1.771.576 2.816.576c1.067 0 2.005-.192 2.816-.576.832-.405 1.483-.949 1.952-1.632s.704-1.472.704-2.368V52.703c0-.533.491-.8 1.472-.8h.48c.981 0 1.472.267 1.472.8v14.4c0 2.347-.779 4.181-2.336 5.504-1.536 1.323-3.723 1.984-6.56 1.984zm15.357-.224c-.704 0-1.056-.352-1.056-1.056V53.023c0-.704.352-1.056 1.056-1.056h6.56c1.942 0 3.659.384 5.152 1.152 1.515.747 2.699 1.941 3.552 3.584s1.28 3.797 1.28 6.464c0 2.005-.245 3.723-.736 5.152-.49 1.408-1.184 2.56-2.08 3.456a8.21 8.21 0 0 1-3.136 1.952c-1.216.427-2.56.64-4.032.64h-6.56zm2.368-2.944h4.032c1.302 0 2.443-.277 3.424-.832 1.003-.576 1.782-1.461 2.336-2.656.576-1.216.864-2.805.864-4.768s-.288-3.541-.864-4.736c-.554-1.216-1.333-2.101-2.336-2.656-.981-.576-2.122-.864-3.424-.864h-4.032v16.512zm17.738 3.008c-1.024 0-1.536-.192-1.536-.576a.72.72 0 0 1 .032-.224 5.15 5.15 0 0 0 .064-.288l7.424-20.896c.128-.363.608-.544 1.44-.544h1.12c.854 0 1.334.181 1.44.544l7.424 20.928a1.37 1.37 0 0 1 .096.48c0 .384-.48.576-1.44.576h-.576c-.362 0-.672-.043-.928-.128s-.426-.224-.512-.416l-1.696-4.864h-8.864l-1.664 4.864c-.085.192-.245.331-.48.416a2.54 2.54 0 0 1-.864.128h-.48zm4.512-8.352h6.816l-2.912-8.448a11.96 11.96 0 0 1-.224-.928l-.192-.992h-.064c-.064.32-.138.651-.224.992-.064.32-.149.629-.256.928l-2.944 8.448z" fill="#fff"/></svg>