<svg xmlns="http://www.w3.org/2000/svg" width="92" height="106" fill="#fff"><path fill-rule="evenodd" d="M76.028.036c-2.188.343-4.008 1.68-4.893 3.596-1.403 3.037-.278 6.589 2.606 8.227 2.121 1.205 4.674 1.1 6.729-.275.549-.368 1.343-1.175 1.711-1.74a6.45 6.45 0 0 0 .835-5.183A6.294 6.294 0 0 0 78.315.132c-.519-.119-1.797-.172-2.287-.096zM44.4 8.869a42.5 42.5 0 0 0-15.424 3.598 52.23 52.23 0 0 0-3.783 1.92 42.114 42.114 0 0 0-17.56 19.446c-.42.947-.933 2.219-.907 2.246.008.008.31-.307.67-.701 1.185-1.296 2.817-2.753 4.493-4.01 11.077-8.311 28.31-11.882 44.871-9.3a61.32 61.32 0 0 1 10.094 2.463c7.04 2.351 13.06 5.913 17.299 10.236l1.04 1.088.276.309-.126-.335c-1.469-3.892-3.812-7.972-6.475-11.27-1.405-1.741-3.655-4.083-5.166-5.377-4.071-3.488-8.293-5.986-13.122-7.762-4.208-1.548-8.313-2.355-12.994-2.553-1.371-.058-1.711-.058-3.186.002zM7.781 10.022c-1.879.265-3.374 1.61-3.858 3.471-.147.566-.162 1.518-.032 2.094a4.7 4.7 0 0 0 3.523 3.518c.506.112 1.477.11 1.944-.004a4.565 4.565 0 0 0 2.267-1.271 4.56 4.56 0 0 0 1.272-2.267c.131-.533.117-1.548-.029-2.095-.531-1.99-2.233-3.375-4.261-3.467a5.555 5.555 0 0 0-.826.023zm53.554 30.046-1.13.276-.026 1.676-.026 1.676-1.091.014-1.091.014v1.838h2.156v4.313c0 3.726.011 4.368.083 4.715.198.961.674 1.895 1.179 2.313a4.05 4.05 0 0 0 1.498.723c.718.152 1.893.092 2.779-.142l.413-.109-.031-.426-.065-.942c-.025-.387-.051-.509-.101-.49-.2.077-.985.148-1.433.13-.43-.017-.563-.045-.813-.167-.501-.245-.785-.68-.95-1.454-.044-.207-.062-1.452-.062-4.364v-4.074l1.801-.014 1.801-.014v-1.838h-3.63V41.75c0-1.545-.014-1.97-.066-1.965a43.7 43.7 0 0 0-1.196.282zm28.731 3.344c-1.529.226-2.81 1.229-3.325 2.606-.08.212-.168.378-.197.368s-.058-.517-.067-1.34l-.014-1.323h-2.222l.035.434c.019.239.05 1.197.069 2.129.026 1.272.019 1.696-.027 1.696s-.061 1.168-.061 4.705v4.705h2.471V53.54c0-3.541.008-3.907.103-4.546.157-1.068.438-1.656 1.087-2.274.744-.709 1.5-.998 2.636-1.008l.54-.005-.014-1.163-.014-1.163-.342-.008a4.71 4.71 0 0 0-.657.039zm-55.835.069c-.835.159-1.43.399-2.108.85-.487.324-1.129.952-1.434 1.403-.2.296-.206.3-.233.158a19.03 19.03 0 0 1-.064-1.157l-.035-1.012h-2.258l.035.276c.019.152.047 4.505.061 9.673l.026 9.397h2.464l.002-3.746.002-3.746.115.158c.26.358.828.895 1.227 1.161 1.002.667 1.964.901 3.333.808 1.528-.103 2.81-.674 3.859-1.718 1.226-1.219 1.909-2.971 2.009-5.154.071-1.547-.221-3.028-.839-4.252-.783-1.55-2.088-2.621-3.688-3.024-.546-.137-1.927-.18-2.474-.076zm39.748.039c-2.504.32-4.48 2.136-5.23 4.807-.317 1.13-.45 2.935-.292 3.981.361 2.391 1.957 4.323 4.234 5.123.828.291 1.305.344 2.826.314 1.41-.028 1.779-.071 2.812-.331.433-.109 1.389-.421 1.453-.475.025-.021-.368-1.77-.41-1.818-.017-.02-.266.046-.553.146-.957.334-1.648.447-2.928.48-1.237.031-1.583-.011-2.258-.275a4.409 4.409 0 0 1-2.279-2.073 4.167 4.167 0 0 1-.487-1.776l-.032-.539h9.704l-.03-1.091c-.058-2.112-.465-3.423-1.458-4.701-1.056-1.359-2.997-2.036-5.072-1.771zM4.66 49.886c-.001 7.184-.033 8.107-.319 9.177-.203.76-.521 1.229-1.088 1.604-.587.389-1.193.602-1.971.692-.166.019-.302.055-.302.079a45.68 45.68 0 0 0 .241 1.677c.028.126.03.126.564.095 1.234-.072 2.644-.63 3.58-1.416.494-.414 1.192-1.646 1.497-2.642.334-1.088.322-.768.322-8.497v-7.038H4.661v6.269zm16.286-1.656c-.015 4.608-.015 4.614-.131 4.917-.383 1.006-.964 1.669-1.829 2.088a3.63 3.63 0 0 1-2.312.289c-1.165-.247-1.852-1.045-2.194-2.549-.11-.486-.114-.619-.133-4.876l-.019-4.377h-2.524l.021 4.613c.021 4.454.025 4.634.135 5.21.35 1.843 1.115 3.031 2.374 3.683 1.56.809 3.689.669 5.214-.343.47-.311 1.115-.94 1.384-1.349.11-.167.207-.296.216-.287s.042.406.073.881l.084 1.088.028.223h2.214l-.043-.355c-.023-.195-.036-3.306-.027-6.913l.016-6.558h-2.53l-.015 4.613zm22.04-4.533c0 .016 1.175 2.932 2.611 6.48 2.326 5.747 2.612 6.483 2.616 6.746.004.254-.033.37-.269.841-.901 1.806-2.208 3.014-4.083 3.774-.082.033-.139.09-.125.125s.151.496.305 1.024c.219.749.3.959.368.959.143 0 .876-.253 1.302-.45.667-.308 1.388-.828 2.028-1.461.893-.884 1.469-1.722 2.26-3.287.881-1.744 1.458-3.15 3.952-9.627l1.953-5.073-1.29-.014c-.709-.008-1.307.004-1.328.026-.069.073-2.968 8.635-3.279 9.688-.167.564-.32 1.043-.34 1.066s-.101-.179-.18-.447c-.341-1.16-.86-2.623-2.263-6.375l-1.493-3.995-1.372-.014c-.755-.008-1.372-.001-1.372.016zm31.011 1.492a4.24 4.24 0 0 0-2.729 2.28c-.193.412-.366 1.081-.366 1.414v.255h7.36l-.001-.46a3.5 3.5 0 0 0-.371-1.631c-.282-.583-.936-1.26-1.495-1.549-.774-.399-1.644-.511-2.398-.308zm-40.033.315c-1.671.411-2.936 1.797-3.231 3.539-.091.541-.037 3.503.072 3.871.393 1.34 1.377 2.332 2.692 2.716.894.261 2.021.166 2.854-.241 1.022-.5 1.84-1.601 2.185-2.94.637-2.474-.023-5.124-1.568-6.295-.868-.658-1.987-.9-3.003-.65zM6.872 65.174c3.773 9.694 11.075 17.708 20.369 22.354 8.144 4.071 17.357 5.403 26.26 3.795a42.07 42.07 0 0 0 22.292-11.641c4.207-4.204 7.328-9.011 9.576-14.747l.103-.263-.127.131a120.3 120.3 0 0 0-.786.843c-1.142 1.233-2.648 2.564-4.31 3.812-3.787 2.842-8.302 5.146-13.448 6.862-4.994 1.665-9.929 2.64-15.535 3.07-3.399.26-7.485.241-11.014-.052-13.206-1.096-25.156-6.027-32.309-13.333a36.053 36.053 0 0 1-1.012-1.068l-.273-.313.214.55z"/><circle cx="14.781" cy="97.372" r="7.755"/></svg>