<svg xmlns="http://www.w3.org/2000/svg" width="165" height="49" fill="none"><path fill-rule="evenodd" d="M21.382.064c-.952.12-2.041.471-2.775.894l-.589.339v18.351l.559.558c2.015 2.013 5.734 2.024 7.738.023l.562-.561-.029-9.216-.029-9.216-.841-.419C24.606.135 22.96-.135 21.382.064zM6.247 8.077l-3.02 1.815c-.784.535-1.795 1.81-2.358 2.972-.824 1.703-.798 1.287-.763 12.032l.031 9.601.303.828c.458 1.253 1.268 2.506 2.169 3.355.614.579 1.381 1.085 3.442 2.271 1.458.84 2.679 1.499 2.713 1.465.095-.095.073-35.749-.022-35.744-.046.003-1.169.634-2.495 1.404zm29.934 16.46.075 17.855c.042 0 1.237-.668 2.656-1.484 3.39-1.949 4.31-2.802 5.243-4.857.667-1.47.655-1.258.655-11.465 0-10.543.036-10.046-.864-11.871-.442-.897-.684-1.222-1.539-2.072-.943-.937-1.199-1.112-3.62-2.485l-2.606-1.477v17.855zm43.487-13.123a2.555 2.555 0 0 0-1.416 1.169c-.413.702-.439 1.949-.055 2.674.652 1.231 2.33 1.739 3.678 1.112 1.228-.571 1.794-1.937 1.378-3.326-.404-1.347-2.151-2.14-3.585-1.629zm56.21 1.637c-3.773.532-6.689 2.746-8.068 6.122-1.252 3.067-1.175 7.166.189 10.08 1.269 2.711 3.225 4.361 6.225 5.254 1.348.401 3.955.506 5.474.222 2.912-.546 5.137-2.011 6.559-4.32 1.299-2.108 1.882-4.956 1.598-7.795-.295-2.953-1.31-5.175-3.167-6.936-1.346-1.277-2.862-2.049-4.848-2.468-.987-.208-3.029-.29-3.962-.158zm19.367.01c-3.344.43-5.676 2.483-6.074 5.346-.275 1.985.306 3.689 1.701 4.978.955.884 1.764 1.314 4.139 2.2 2.133.796 3.267 1.361 3.654 1.82.659.782.651 2.005-.018 2.635-.596.562-1.39.749-3.121.735-1.723-.014-2.869-.225-4.205-.773-.524-.215-1.02-.401-1.103-.412-.1-.014-.375.607-.81 1.827l-.662 1.883c-.01.116 1.835.851 2.712 1.08 1.686.441 2.711.541 4.941.479 1.596-.044 2.236-.108 2.932-.294 2.487-.666 4.052-2.082 4.608-4.171.21-.786.205-2.652-.009-3.559-.426-1.802-1.502-2.984-3.673-4.035-.753-.364-2.074-.924-2.938-1.244s-1.746-.685-1.962-.81c-1.036-.603-1.444-1.326-1.245-2.209.21-.937.901-1.319 2.561-1.418a8.29 8.29 0 0 1 3.772.588c.562.218 1.092.405 1.177.417.173.024 1.518-3.447 1.427-3.683-.063-.165-1.529-.742-2.665-1.049-1.564-.423-3.474-.546-5.139-.332zm-99.08 10.937.029 10.499h4.708l.029-4.451.029-4.451h7.842l.029 4.451.029 4.451h4.708l.028-10.499.029-10.499h-4.822v7.952h-7.848V13.5h-4.822l.029 10.499zm79.937-6.633c-.958.208-1.706.64-2.445 1.415-1.145 1.199-1.731 2.957-1.731 5.191 0 3.046 1.077 5.18 3.125 6.191l.843.416h3.051l.843-.416c2.048-1.011 3.125-3.145 3.125-6.191 0-3.597-1.567-6.047-4.229-6.611a5.68 5.68 0 0 0-2.582.005zm-27.159.956c-1.428.369-2.406.925-3.435 1.953-.754.753-1.001 1.096-1.423 1.968-.696 1.443-.863 2.142-.934 3.912-.077 1.902.171 3.255.856 4.682a6.95 6.95 0 0 0 3.142 3.139c1.406.685 2.039.822 4.092.884 1.853.056 3.611-.145 5.047-.577.999-.301.973-.215.654-2.136l-.319-1.81c-.03-.093-.243-.068-.75.09-.922.287-2.633.543-3.623.542-.897-.002-2.114-.233-2.632-.5-.823-.426-1.53-1.286-1.726-2.101l-.075-.308h10.203l.072-.286c.039-.157.046-1.027.015-1.932-.064-1.842-.287-2.891-.882-4.143-.51-1.072-1.777-2.319-2.901-2.854-1.579-.751-3.7-.958-5.381-.523zm-30.58 8.197.029 7.979 2.27.03 2.27.03V18.539h-4.598l.029 7.979zm7.484-7.862c0 .064.435 1.438.967 3.052 1.452 4.409 2.862 7.988 4.475 11.363L92 34.559l1.881-.031 1.881-.031.253-.448c.484-.856 1.757-3.709 2.698-6.047.743-1.846 3.278-9.117 3.278-9.402 0-.033-1.072-.061-2.383-.06l-2.382.001-.49 1.763c-.729 2.622-2.713 8.575-2.822 8.466-.146-.147-1.683-4.864-2.457-7.542l-.739-2.548c-.056-.183-4.871-.205-4.871-.023zm23.963 3.402c-.932.332-1.609 1.166-1.863 2.295l-.102.457h5.836l-.069-.504a3.55 3.55 0 0 0-.292-.94c-.28-.548-1.046-1.21-1.568-1.355-.553-.153-1.439-.132-1.942.048zm-88.428 5.119c-.927.153-1.941.679-2.695 1.397l-.669.637v18.648l.533.299c.293.164.895.421 1.337.57.713.24 1.001.271 2.539.271 1.93 0 2.74-.168 3.86-.803l.589-.334V29.188l-.581-.581c-.699-.699-1.862-1.278-2.894-1.441-.837-.132-1.16-.131-2.018.011z" fill="#fff"/></svg>