<svg width="1920" height="197" fill="none" xmlns="http://www.w3.org/2000/svg"><path d="M0 53.79S243.625.144 402 .29c242.141.226 376.899 183.932 619 179.501 199.9-3.66 383.81-143.112 583.5-153 160.15-7.93 315.5 27 315.5 27" stroke="#505050" stroke-width=".5"/><path d="M0 46.22S248.53 3.952 406.905 4.1c242.141.226 377.185 165.265 619.285 160.834 199.9-3.66 379.04-126.178 578.74-135.596 160.52-7.552 314.67 21.215 314.67 21.215" stroke="#505050" stroke-width=".5"/><path d="M0 38.648S253.435 7.763 411.81 7.91c242.141.226 377.47 146.598 619.57 142.167 199.9-3.66 374.26-109.244 573.98-118.19 160.9-7.176 313.83 15.428 313.83 15.428" stroke="#505050" stroke-width=".5"/><path d="M0 31.077S258.339 11.573 416.714 11.72c242.141.225 377.757 127.931 619.856 123.5 199.9-3.659 369.49-92.31 569.22-100.786 161.27-6.797 313 9.643 313 9.643" stroke="#505050" stroke-width=".5"/><path d="M0 23.507s263.244-8.124 421.619-7.976c242.141.225 378.042 109.264 620.141 104.833 199.9-3.659 364.72-75.376 564.45-83.381 161.65-6.42 312.17 3.857 312.17 3.857" stroke="#505050" stroke-width=".5"/><path d="M0 19.338s268.149 3.258 426.524 3.405c242.141.226 378.328 90.598 620.426 86.167 199.9-3.66 359.94-58.443 559.69-65.977 162.02-6.042 311.34-1.928 311.34-1.928" stroke="#505050" stroke-width=".5"/><path d="M0 23.148s273.054 14.638 431.429 14.785c242.141.225 378.613 71.931 620.711 67.5 199.91-3.659 355.17-41.509 554.93-48.572 162.4-5.664 310.5-7.714 310.5-7.714" stroke="#505050" stroke-width=".5"/><path d="M0 26.957s277.958 26.02 436.333 26.167c242.141.225 378.9 53.264 620.997 48.833 199.91-3.66 350.4-24.575 550.17-31.167 162.77-5.287 309.67-13.5 309.67-13.5" stroke="#505050" stroke-width=".5"/><path d="M0 30.767s282.863 37.4 441.238 37.547c242.141.226 379.185 34.598 621.282 30.167 199.91-3.66 345.62-7.641 545.41-13.762 163.14-4.91 308.83-19.286 308.83-19.286" stroke="#505050" stroke-width=".5"/><path d="M0 34.576s287.768 48.781 446.143 48.929c242.141.225 379.471 15.931 621.567 11.5 199.91-3.66 340.85 9.293 540.65 3.642 163.51-4.531 308-25.071 308-25.071" stroke="#505050" stroke-width=".5"/><path d="M0 38.386s292.673 60.162 451.048 60.31c242.141.225 379.756-2.736 621.852-7.168 199.91-3.659 336.08 26.227 535.89 21.048 163.88-4.154 307.16-30.857 307.16-30.857" stroke="#505050" stroke-width=".5"/><path d="M0 42.195s297.578 71.543 455.952 71.691c242.141.225 380.043-21.402 622.148-25.834 199.9-3.659 331.29 43.161 531.11 38.453 164.27-3.777 306.34-36.643 306.34-36.643" stroke="#505050" stroke-width=".5"/><path d="M0 46.005s302.482 82.924 460.857 83.071c242.141.226 380.328-40.069 622.433-44.5 199.9-3.66 326.52 60.095 526.35 55.857 164.64-3.398 305.5-42.428 305.5-42.428" stroke="#505050" stroke-width=".5"/><path d="M0 49.815s307.387 94.304 465.762 94.452c242.141.225 380.614-58.736 622.718-63.167 199.9-3.66 321.75 77.029 521.59 73.262 165.01-3.021 304.67-48.215 304.67-48.215" stroke="#505050" stroke-width=".5"/><path d="M0 53.624S312.292 159.31 470.667 159.457c242.141.226 380.899-77.402 623.003-81.833 199.9-3.66 316.98 93.963 516.83 90.666 165.38-2.643 303.83-54 303.83-54" stroke="#505050" stroke-width=".5"/><path d="M0 57.434S317.197 174.5 475.571 174.648c242.142.225 381.186-96.069 623.289-100.5 199.9-3.66 312.2 110.896 512.07 108.071 165.76-2.266 303-59.786 303-59.786" stroke="#505050" stroke-width=".5"/><path d="M0 61.243S322.101 189.69 480.476 189.838c242.141.225 381.471-114.735 623.574-119.167 199.9-3.66 307.43 127.831 507.31 125.476 166.13-1.888 302.16-65.571 302.16-65.571" stroke="#505050" stroke-width=".5"/></svg>