<svg xmlns="http://www.w3.org/2000/svg" xmlns:xlink="http://www.w3.org/1999/xlink" width="182" height="42" fill="none"><g fill="#fff"><use xlink:href="#a"/><use xlink:href="#b"/><use xlink:href="#c"/><use xlink:href="#d"/><use xlink:href="#e"/><use xlink:href="#f"/></g><g stroke="#fff"><use xlink:href="#a"/><use xlink:href="#b"/><use xlink:href="#c"/><use xlink:href="#d"/><use xlink:href="#e"/><use xlink:href="#f"/></g><path d="M33.951 36.015V19.086c11.811-9.054 22.441 10.238 9.842 16.929-3.15 1.575-7.48.788-9.842 0z" fill="#000"/><path fill-rule="evenodd" d="M170.577 3.376c-3.586.256-6.783 2.308-8.542 5.483a10.7 10.7 0 0 0 .004 10.237 10.68 10.68 0 0 0 3.462 3.747c3.521 2.347 8.16 2.338 11.689-.023 2.738-1.831 4.542-4.948 4.695-8.108.015-.292.042-.53.061-.53s.035-.117.035-.26c-.001-.183-.013-.242-.041-.197s-.041-.033-.041-.249a7.958 7.958 0 0 0-.043-.686c-.478-4.326-3.604-7.963-7.808-9.085a10.754 10.754 0 0 0-2.054-.331c-.692-.048-.718-.048-1.417.002zm3.878 3.279a1.48 1.48 0 0 0-.927.728c-.098.186-.11.255-.11.625 0 .355.014.442.096.597.264.495.712.771 1.257.773a.97.97 0 0 0 .599-.144c.524-.269.796-.747.755-1.328-.043-.602-.406-1.053-.987-1.226a1.319 1.319 0 0 0-.683-.026zm-3.815 1.464a6.82 6.82 0 0 0-1.465.367c-.53.205-.53.109-.004 1.061l.49.864c.017.018.153-.014.303-.07.492-.186.897-.245 1.522-.22.662.026 1.002.109 1.559.384a3.901 3.901 0 0 1 2.098 2.836l.049.302h.668c.367 0 .818-.012 1.002-.026l.334-.026-.033-.296a5.925 5.925 0 0 0-1.452-3.24l-.236-.268-.218.057c-.687.179-1.48-.06-1.924-.58a2.22 2.22 0 0 1-.418-.824c-.025-.154-.026-.155-.321-.219a5.78 5.78 0 0 0-1.954-.101zm-2.847 1.142c-.394.288-1.019.943-1.31 1.372a6.19 6.19 0 0 0-.743 1.501l-.107.343.185.188a1.89 1.89 0 0 1 .002 2.614l-.188.191.108.344a6.04 6.04 0 0 0 1.84 2.703c.155.126.331.26.391.299l.111.07.503-.839c.276-.462.497-.855.491-.873s-.126-.133-.266-.255c-.887-.771-1.343-1.771-1.343-2.944 0-1.18.489-2.236 1.379-2.979.131-.109.239-.212.239-.229 0-.035-.994-1.699-1.014-1.699-.008 0-.133.087-.278.193zm-3.726 3.378a1.535 1.535 0 0 0-.879.774c-.075.165-.095.281-.095.561s.02.397.095.561c.119.262.382.536.651.679.182.097.255.11.601.111.335.001.425-.015.601-.101.834-.41 1.041-1.541.402-2.198-.283-.29-.534-.4-.941-.411a2.03 2.03 0 0 0-.435.024zm-3.346 1.335c0 .149.008.209.017.135s.009-.196 0-.27-.017-.014-.017.135zm14.422.635a3.901 3.901 0 0 1-2.098 2.836c-.557.275-.897.358-1.559.384-.625.024-1.03-.035-1.522-.221-.15-.056-.286-.088-.303-.07s-.237.406-.49.864c-.526.952-.526.856.003 1.06.842.326 1.842.468 2.677.38a8.25 8.25 0 0 0 .762-.114c.273-.062.277-.065.302-.219.033-.209.239-.614.418-.824.444-.52 1.237-.759 1.923-.58l.218.057.229-.254a6.002 6.002 0 0 0 1.46-3.253l.033-.296-.334-.026a17.539 17.539 0 0 0-1.002-.026h-.668l-.049.302zm-.678 3.982a1.496 1.496 0 0 0-.952.756c-.081.152-.095.241-.095.594 0 .37.012.439.11.625.458.869 1.632 1.017 2.272.286a1.4 1.4 0 0 0 .03-1.774c-.317-.391-.909-.602-1.365-.488z" fill="#fff"/><defs><path id="a" d="M5.606 13.575H.881v16.929c0 12.205 16.141 11.811 22.047 9.055V13.575h-4.724v23.622h-7.087c-3.543 0-5.512-2.756-5.512-5.905V13.575z"/><path id="b" d="M63.085 13.575h-4.724v16.929c0 12.598 15.665 12.295 22.047 9.055V13.575h-4.724v23.622h-7.087c-3.543 0-5.512-2.756-5.512-5.905V13.575z"/><path id="c" d="M138.28 13.575h-4.724v16.929c0 12.598 16.141 11.811 22.047 9.055V13.575h-4.725v23.622h-7.086c-3.543 0-5.512-2.756-5.512-5.905V13.575z"/><path id="d" d="M118.202 13.575V5.701h-3.937V33.26c0 6.693 6.299 9.055 14.173 7.086v-3.15h-6.299c-2.756 0-3.937-1.575-3.937-3.937V17.512h10.236v-3.937h-10.236z"/><path id="e" d="M104.029 40.346h4.331V22.63c0-9.449-12.599-12.598-20.866-6.693v24.409h3.937V17.512c6.693-1.968 12.598-.394 12.598 4.724v18.11z"/><path id="f" d="M30.015 39.165V1.37h3.937v13.386c21.259-6.693 24.424 15.989 13.386 24.409-3.937 2.362-12.992 2.362-17.322 0z"/></defs></svg>