<svg width="213" height="12" fill="none" xmlns="http://www.w3.org/2000/svg"><path d="M0 .5c3 0 4.5 3 6.5 7 2.25 4.5 6 3.5 7.5 0 .869-1.94 1.275-2.91 2-4 1.994-3 5-4 7.5 0 .837 1.372 1.281 2.252 2 4 1.85 4.5 6 3 7.5 0s1.5-3.333 2.5-5c1.5-2.5 4-2.5 6 0M60.5 2.5c-2-2.5-4.5-2.5-6 0-1 1.667-1 2-2.5 5s-4.801 4.049-7.5 0c-1-1.5-1.163-2.128-2-3.5-.267-.428-.723-1.183-1-1.5M79.5 2.5c-2-2.5-4.5-2.5-6 0-1 1.667-1 2-2.5 5s-4.801 4.049-7.5 0c-1-1.5-1.163-2.128-2-3.5-.267-.428-.723-1.183-1-1.5M98.5 2.5c-2-2.5-4.5-2.5-6 0-1 1.667-1 2-2.5 5s-4.801 4.049-7.5 0c-1-1.5-1.163-2.128-2-3.5-.267-.428-.723-1.183-1-1.5M117.5 2.5c-2-2.5-4.5-2.5-6 0-1 1.667-1 2-2.5 5s-4.801 4.049-7.5 0c-1-1.5-1.163-2.128-2-3.5-.267-.428-.723-1.183-1-1.5M155.5 2.5c-2-2.5-4.5-2.5-6 0-1 1.667-1 2-2.5 5s-4.801 4.049-7.5 0c-1-1.5-1.163-2.128-2-3.5-.267-.428-.723-1.183-1-1.5M136.5 2.5c-2-2.5-4.5-2.5-6 0-1 1.667-1 2-2.5 5s-4.801 4.049-7.5 0c-1-1.5-1.163-2.128-2-3.5-.267-.428-.723-1.183-1-1.5M174.5 2.5c-2-2.5-4.5-2.5-6 0-1 1.667-1 2-2.5 5s-4.801 4.049-7.5 0c-1-1.5-1.163-2.128-2-3.5-.267-.428-.723-1.183-1-1.5M193.5 2.5c-2-2.5-4.5-2.5-6 0-1 1.667-1 2-2.5 5s-4.801 4.049-7.5 0c-1-1.5-1.163-2.128-2-3.5-.267-.428-.723-1.183-1-1.5M212.5 2.5c-2-2.5-4.5-2.5-6 0-1 1.667-1 2-2.5 5s-4.801 4.049-7.5 0c-1-1.5-1.163-2.128-2-3.5-.267-.428-.723-1.183-1-1.5" stroke="#F73737"/></svg>