<svg width="175" height="33" viewBox="0 0 175 33" fill="none" xmlns="http://www.w3.org/2000/svg">
<g clip-path="url(#clip0_561_5477)">
<path fill-rule="evenodd" clip-rule="evenodd" d="M11.4871 1.10917C4.04669 4.01088 0.190171 9.74417 0.584088 17.3186C0.906471 23.5175 4.04862 28.2576 9.79642 31.213C12.7027 32.7076 13.0319 32.7704 17.901 32.7557C23.8455 32.7383 26.1428 31.971 29.7958 28.7829C32.7059 26.2428 34.1719 24.0107 35.0656 20.7575C36.2652 16.3905 36.3459 16.5 31.9176 16.5H28.051V11.9167V7.33333H23.2176H18.3843V3.66667V0L16.3301 0.011C15.2006 0.0169583 13.0212 0.511042 11.4871 1.10917ZM12.9903 9.11487C9.01245 11.5069 7.54892 16.6558 9.707 20.6667C12.3489 25.5778 20.0996 26.8139 24.3481 23.0019C25.9504 21.5646 26.8344 20.0663 27.3061 17.9896L27.6445 16.5H22.7725H17.901V12.1458V7.79167H16.5457C15.7999 7.79167 14.2001 8.38704 12.9903 9.11487Z" fill="white"/>
<path d="M61.7015 10.4544L65.6597 7.4949C63.9849 5.83463 61.0918 3.13363 57.2104 2.80314C54.7248 2.59151 53.3672 2.55353 51.1211 2.80314C46.472 3.3198 40.5518 9.66943 40.03 13.3105C39.7482 15.2769 39.7421 17.2666 40.03 19.3986C40.5752 23.4362 46.1859 28.86 51.1211 29.9432C53.9745 30.4127 56.3476 29.8772 58.4884 29.5314C63.436 28.4483 68.7044 23.8078 68.7044 19.116V14.0634H55.0792V19.116H63.3C62.6729 20.649 62.3294 21.3283 61.7015 22.0033C56.769 26.9018 50.3457 24.9573 47.4671 22.0033C45.2092 19.6863 44.9333 13.4575 47.4671 10.4544C50.5122 6.84527 57.3628 6.34001 61.7015 10.4544Z" fill="white"/>
<path d="M101.101 7.98979V4.10156H105.823V7.98979H111.568V12.5943H105.823V22.903C105.823 24.003 106.227 24.8727 107.9 24.8727H111.568V29.2213H106.227C102.181 29.2213 100.724 26.3563 100.724 24.003V12.5943H98.2422V7.98979H101.101Z" fill="white"/>
<path fill-rule="evenodd" clip-rule="evenodd" d="M117.989 20.1149H135.955V16.994C135.955 5.22736 113.08 4.25505 113.08 16.994C113.08 22.2122 114.051 25.4865 118.853 28.0445C122.791 29.7327 127.323 29.4769 129.75 28.0445C131.681 26.7481 132.745 25.9395 134.498 23.9517L130.56 21.7006C125.812 27.3282 117.989 23.9517 117.989 20.1149ZM118.475 15.5618C120.201 11.2641 127.592 11.2127 130.344 15.5618C130.344 15.3574 122.431 15.4766 118.475 15.5618Z" fill="white"/>
<path fill-rule="evenodd" clip-rule="evenodd" d="M89.9907 9.72917V8.14292H94.523V28.6581H89.9907V26.8675C86.374 29.3239 81.0666 29.9021 75.7482 26.8675C71.267 24.3106 69.7031 14.7945 75.7482 9.72917C79.0929 7.17165 86.3223 7.3756 89.9907 9.72917ZM82.7322 24.9323C86.5311 24.9323 89.6107 22.012 89.6107 18.4096C89.6107 14.8072 86.5311 11.8868 82.7322 11.8868C78.9333 11.8868 75.8536 14.8072 75.8536 18.4096C75.8536 22.012 78.9333 24.9323 82.7322 24.9323Z" fill="white"/>
<ellipse cx="138.948" cy="25.9723" rx="2.9944" ry="2.83952" fill="white"/>
<rect x="144.801" y="10.957" width="4.74743" height="17.8549" fill="white"/>
<rect x="144.801" y="4.05078" width="4.74743" height="4.65584" fill="white"/>
<path d="M171.999 18.4504C171.999 22.8926 168.162 26.7172 163.145 26.7172C158.128 26.7172 154.291 22.8926 154.291 18.4504C154.291 14.0082 158.128 10.1836 163.145 10.1836C168.162 10.1836 171.999 14.0082 171.999 18.4504Z" stroke="white" stroke-width="5"/>
</g>
<defs>
<clipPath id="clip0_561_5477">
<rect width="174" height="33" fill="white" transform="translate(0.5)"/>
</clipPath>
</defs>
</svg>
