<svg xmlns="http://www.w3.org/2000/svg" width="598" height="614" fill="none"><path stroke="#505050" stroke-width=".5" d="m427.066 145.743 382.077 102.666M808.413 249.162l-290.537 96.757M517.877 345.919l-28.766-214.551M489.111 131.368l-71.474 295.55 39.798 343.384M457.433 770.302 275.508 575.343M418.34 424.682 167.625 732.099M167.627 732.099l289.808 38.203M273.951 570.92 166.118 730.641M275.459 572.378l142.152-146.943M276.189 571.625l65.192-227.23M341.381 344.395l75.503 81.794M339.897 344.42l467.066 85.686M517.122 345.19l-100.969 81.752M517.122 345.19l289.841 84.916M427.795 144.99l90.082 200.929M427.819 146.472l379.144 283.634M806.962 430.106 489.815 129.132M489.816 129.132l-61.243 18.069"/><g filter="url(#a)"><circle cx="489.299" cy="131.221" r="7" fill="#505050" transform="rotate(44.05 489.299 131.221)"/></g><g filter="url(#b)"><circle cx="428.299" cy="148.221" r="7" fill="#505050" transform="rotate(44.05 428.299 148.221)"/></g><g filter="url(#c)"><circle cx="517.113" cy="344.846" r="7" fill="#505050" transform="rotate(44.05 517.113 344.846)"/></g><g filter="url(#d)"><circle cx="417.113" cy="424.846" r="7" fill="#505050" transform="rotate(44.05 417.113 424.846)"/></g><g filter="url(#e)"><circle cx="275.113" cy="571.846" r="7" fill="#505050" transform="rotate(44.05 275.113 571.846)"/></g><defs><filter id="a" width="54" height="54" x="462.299" y="104.221" color-interpolation-filters="sRGB" filterUnits="userSpaceOnUse"><feFlood flood-opacity="0" result="BackgroundImageFix"/><feColorMatrix in="SourceAlpha" result="hardAlpha" values="0 0 0 0 0 0 0 0 0 0 0 0 0 0 0 0 0 0 127 0"/><feOffset/><feGaussianBlur stdDeviation="10"/><feComposite in2="hardAlpha" operator="out"/><feColorMatrix values="0 0 0 0 1 0 0 0 0 1 0 0 0 0 1 0 0 0 0.02 0"/><feBlend in2="BackgroundImageFix" result="effect1_dropShadow_344_2071"/><feBlend in="SourceGraphic" in2="effect1_dropShadow_344_2071" result="shape"/><feGaussianBlur result="effect2_foregroundBlur_344_2071" stdDeviation="5"/></filter><filter id="b" width="54" height="54" x="401.299" y="121.221" color-interpolation-filters="sRGB" filterUnits="userSpaceOnUse"><feFlood flood-opacity="0" result="BackgroundImageFix"/><feColorMatrix in="SourceAlpha" result="hardAlpha" values="0 0 0 0 0 0 0 0 0 0 0 0 0 0 0 0 0 0 127 0"/><feOffset/><feGaussianBlur stdDeviation="10"/><feComposite in2="hardAlpha" operator="out"/><feColorMatrix values="0 0 0 0 1 0 0 0 0 1 0 0 0 0 1 0 0 0 0.02 0"/><feBlend in2="BackgroundImageFix" result="effect1_dropShadow_344_2071"/><feBlend in="SourceGraphic" in2="effect1_dropShadow_344_2071" result="shape"/><feGaussianBlur result="effect2_foregroundBlur_344_2071" stdDeviation="5"/></filter><filter id="c" width="54" height="54" x="490.113" y="317.846" color-interpolation-filters="sRGB" filterUnits="userSpaceOnUse"><feFlood flood-opacity="0" result="BackgroundImageFix"/><feColorMatrix in="SourceAlpha" result="hardAlpha" values="0 0 0 0 0 0 0 0 0 0 0 0 0 0 0 0 0 0 127 0"/><feOffset/><feGaussianBlur stdDeviation="10"/><feComposite in2="hardAlpha" operator="out"/><feColorMatrix values="0 0 0 0 1 0 0 0 0 1 0 0 0 0 1 0 0 0 0.02 0"/><feBlend in2="BackgroundImageFix" result="effect1_dropShadow_344_2071"/><feBlend in="SourceGraphic" in2="effect1_dropShadow_344_2071" result="shape"/><feGaussianBlur result="effect2_foregroundBlur_344_2071" stdDeviation="5"/></filter><filter id="d" width="54" height="54" x="390.113" y="397.846" color-interpolation-filters="sRGB" filterUnits="userSpaceOnUse"><feFlood flood-opacity="0" result="BackgroundImageFix"/><feColorMatrix in="SourceAlpha" result="hardAlpha" values="0 0 0 0 0 0 0 0 0 0 0 0 0 0 0 0 0 0 127 0"/><feOffset/><feGaussianBlur stdDeviation="10"/><feComposite in2="hardAlpha" operator="out"/><feColorMatrix values="0 0 0 0 1 0 0 0 0 1 0 0 0 0 1 0 0 0 0.02 0"/><feBlend in2="BackgroundImageFix" result="effect1_dropShadow_344_2071"/><feBlend in="SourceGraphic" in2="effect1_dropShadow_344_2071" result="shape"/><feGaussianBlur result="effect2_foregroundBlur_344_2071" stdDeviation="5"/></filter><filter id="e" width="54" height="54" x="248.113" y="544.846" color-interpolation-filters="sRGB" filterUnits="userSpaceOnUse"><feFlood flood-opacity="0" result="BackgroundImageFix"/><feColorMatrix in="SourceAlpha" result="hardAlpha" values="0 0 0 0 0 0 0 0 0 0 0 0 0 0 0 0 0 0 127 0"/><feOffset/><feGaussianBlur stdDeviation="10"/><feComposite in2="hardAlpha" operator="out"/><feColorMatrix values="0 0 0 0 1 0 0 0 0 1 0 0 0 0 1 0 0 0 0.02 0"/><feBlend in2="BackgroundImageFix" result="effect1_dropShadow_344_2071"/><feBlend in="SourceGraphic" in2="effect1_dropShadow_344_2071" result="shape"/><feGaussianBlur result="effect2_foregroundBlur_344_2071" stdDeviation="5"/></filter></defs></svg>