<svg xmlns="http://www.w3.org/2000/svg" width="289" height="42" fill="none"><path fill="#fff" fill-rule="evenodd" d="M199.257 3.718c-5.865 3.476-8.402 6.031-4.503 4.535 1.933-.742 2.262-1.36-5.668 10.655l-3.579 5.421-.29-8.171-.291-8.172h-3.453c-3.228 0-3.828.564-9.209 8.658l-5.757 8.658-.289-8.658-.289-8.658h-6.922v33H162c2.651 0 3.653-.991 8.75-8.658l5.757-8.658.289 8.658.289 8.658 3.211-.042c3.026-.039 3.846-.991 14.211-16.474 6.682-9.982 11.645-16.443 12.644-16.458 1.419-.022 1.505-.573.628-4.026-.558-2.2-1.298-3.994-1.644-3.986-.345.007-3.44 1.68-6.878 3.718ZM10.687 23.736C4.805 32.398-.004 39.824 0 40.236c.004.412 1.919.741 4.257.731 4.231-.019 4.275-.058 9.993-8.75l5.743-8.731.007 8.75.007 8.75h3.374c3.121 0 3.777-.616 8.75-8.202l5.376-8.202.5 7.952.5 7.952 3.75.31 3.75.311V7.986h-3.296c-3.044 0-3.73.669-8.975 8.75l-5.679 8.75-.025-8.75-.025-8.75h-3.313c-3.157 0-3.814.738-14.007 15.75Zm84.021-.954c-3.458 18.94-3.489 18.204.78 18.204 2.984 0 3.568-.393 4.087-2.75 1.682-7.622 1.863-7.733 3.808-2.326 1.818 5.056 1.843 5.076 6.224 5.076 2.42 0 4.4-.238 4.4-.529 0-.29-1.387-3.276-3.083-6.634l-3.082-6.107 5.298-5.365 5.299-5.365h-4.424c-3.721 0-5.003.566-8.071 3.561l-3.647 3.561 1.318-6.811c1.846-9.538 1.905-9.311-2.407-9.311H97.41l-2.702 14.796Zm174.804-12.546c-.743 3.142-5.484 29.071-5.495 30.06-.006.446 1.678.671 3.74.5l3.75-.31 1.661-7.886c1.644-7.807 2.933-9.868 5.839-9.338 1.679.307 1.806 2.994.564 11.974l-.794 5.75h3.596c2.922 0 3.684-.421 4.069-2.25 3.181-15.136 3.261-18.054.565-20.75-2.239-2.239-7.899-2.701-9.8-.8-1.476 1.476-1.552.02-.281-5.45l.87-3.75h-3.875c-3.195 0-3.969.395-4.409 2.25Zm-123.113 2.323c-.355 1.415-1.713 2.979-3.019 3.475-1.305.496-2.373 1.552-2.373 2.345 0 .794-.273 2.155-.607 3.025-.427 1.114-.022 1.582 1.368 1.582 1.948 0 1.952.118.245 8.471-.952 4.659-1.493 8.709-1.202 9 1.095 1.095 7.003.475 7.486-.785.278-.723 1.063-4.773 1.745-9 1.118-6.932 1.46-7.686 3.486-7.686 1.484 0 2.45-.763 2.849-2.25.92-3.436.795-3.75-1.501-3.75-1.877 0-2.063-.417-1.563-3.5.557-3.428.498-3.5-2.85-3.5-2.838 0-3.528.437-4.064 2.573Zm85.275-1.906c-.367.366-.667 1.502-.667 2.524 0 1.062-1.071 2.266-2.5 2.809-1.375.523-2.506 1.299-2.514 1.725-.007.426-.285 1.788-.616 3.025-.444 1.654-.175 2.25 1.013 2.25 1.927 0 1.937.477.184 9.5-.748 3.85-1.155 7.338-.904 7.75.25.412 1.945.75 3.766.75 3.27 0 3.325-.077 4.479-6.25a1299.74 1299.74 0 0 1 1.709-9c.404-2.049 1.13-2.75 2.849-2.75 1.799 0 2.404-.661 2.747-3 .379-2.58.123-3-1.823-3-2.029 0-2.205-.363-1.696-3.5.542-3.341.433-3.5-2.396-3.5-1.631 0-3.265.3-3.631.667Zm-175.3 7.251c-10.738 6.548-10.143 23.102.83 23.094l9.053-.007c3.713-.003 6.75-.143 6.75-.312s.9-5.206 2-11.193c1.1-5.987 2-11.283 2-11.768 0-.486-2.01-.759-4.467-.608-2.458.151-4.783-.04-5.167-.425-1.38-1.38-7.927-.655-10.999 1.219Zm33.28-1.232c-.377.377-2.645.584-5.041.46l-4.356-.225-1.716 9.789c-.944 5.385-1.949 10.803-2.234 12.04-.469 2.042-.15 2.25 3.45 2.25h3.967l1.282-7.494c1.318-7.707 2.067-9.025 5.486-9.659 2.692-.5 4.12-7.847 1.524-7.847-.922 0-1.984.309-2.362.686Zm34.353.018c-2.317.843-7.023 5.497-8.589 8.496-4.475 8.566 1.985 17.423 11.672 16.001 3.074-.451 9.917-5.706 9.917-7.615 0-1.255-5.162-.815-10.601.905-1.39.439-2.721.045-3.933-1.163-1.775-1.771-1.548-1.837 7.244-2.114 8.274-.261 9.124-.473 9.628-2.399 1.64-6.272-3.631-12.876-10.165-12.736-2.02.043-4.348.325-5.173.625Zm79.241 1.291c-7.245 4.417-9.828 15.509-4.786 20.55 2.261 2.262 4.521 3.05 7.045 2.457.55-.129 3.988-.193 7.64-.142l6.641.093 2.109-11.32c1.161-6.226 2.11-11.649 2.11-12.052 0-.403-2.01-.608-4.467-.457-2.458.151-4.783-.04-5.167-.425-1.403-1.403-7.95-.64-11.125 1.296Zm44.17-.104c-9.016 5.498-11.005 17.053-3.753 21.804 2.976 1.95 9.301 1.894 13.19-.116 2.657-1.375 7.152-6.391 7.152-7.983 0-1.338-7.825-.512-9.042.955-1.613 1.943-5.909 1.504-7.319-.748-1.608-2.57.376-7.084 3.614-8.223 2.245-.79 3.137-.562 5.128 1.309 1.615 1.517 3.35 2.156 5.256 1.937 4.126-.473 4.141-3.248.041-7.348-4.094-4.094-9.221-4.664-14.267-1.587ZM59.175 24.581c-1.792 1.255-2.212 2.374-1.973 5.25.246 2.946.753 3.718 2.613 3.982 3.522.499 7.192-2.383 7.192-5.65 0-4.97-3.539-6.589-7.832-3.582Zm64.874-.146c-1.132 1.364-.719 1.551 3.419 1.551 3.317 0 4.585-.369 4.295-1.25-.621-1.893-6.212-2.111-7.714-.301Zm82.653-.338c-2.568 1.494-3.933 5.576-2.66 7.954 2.339 4.37 9.965 1.16 9.965-4.194 0-4.336-3.351-6.06-7.305-3.76Z" clip-rule="evenodd" opacity=".6"/></svg>