<svg width="111" height="22" viewBox="0 0 111 22" fill="none" xmlns="http://www.w3.org/2000/svg">
<path fill-rule="evenodd" clip-rule="evenodd" d="M20.6355 1.2355C19.6246 1.6386 18.9027 2.45648 17.8097 4.43641C17.2486 5.45266 16.7119 6.28324 16.6169 6.28223C16.5219 6.28096 16.0023 5.45215 15.4623 4.44073C14.9035 3.39348 14.0828 2.29062 13.5573 1.8799C12.7348 1.23728 12.4747 1.16997 11.1704 1.26141C10.2474 1.32618 9.46558 1.54589 9.05511 1.85577C8.69697 2.12602 6.64415 5.37621 4.49353 9.07826C0.775475 15.4783 0.582944 15.8768 0.57634 17.1824C0.570752 18.2804 0.703087 18.7308 1.23776 19.4318C2.46381 21.0391 2.2375 21.0163 16.8422 21.0163C31.4749 21.0163 31.2136 21.0434 32.3878 19.3975C32.811 18.8042 32.953 18.2499 32.9497 17.2063C32.9451 15.8771 32.7741 15.5131 29.429 9.71326C27.4953 6.36046 25.6705 3.25175 25.3741 2.80522C24.3459 1.25658 22.2903 0.575606 20.6355 1.2355ZM101.427 3.27029C98.6958 3.72318 96.5924 5.31982 95.4888 7.77727C94.7153 9.49939 94.7125 13.3061 95.4837 14.9754C96.3105 16.7648 98.1141 18.5509 99.9071 19.3556C101.305 19.983 101.673 20.0386 103.904 19.9599C106.596 19.8649 107.866 19.4186 109.535 17.9804L110.424 17.2146L109.595 16.4486C108.571 15.5024 108.047 15.4907 106.532 16.3808C105.51 16.982 105.072 17.0782 103.388 17.0724C101.634 17.0663 101.321 16.9876 100.359 16.3104C98.8464 15.2446 98.1052 13.728 98.1052 11.6973C98.1052 8.8235 99.2729 7.05769 101.625 6.37392C103.347 5.87328 105.194 6.07903 106.659 6.93475C108.034 7.73714 108.585 7.7158 109.586 6.82096C110.282 6.19891 110.357 6.02721 110.079 5.69168C109.344 4.80649 107.226 3.71251 105.565 3.36072C103.624 2.94949 103.391 2.94441 101.427 3.27029ZM39.6852 11.6299V20.0234L41.3997 19.9484L43.1142 19.8733V15.2375C43.1142 12.6881 43.1714 10.6048 43.2412 10.6084C43.3111 10.6119 44.3398 12.3264 45.5272 14.4181L47.6862 18.2215L48.877 18.2217L50.0675 18.2223L52.1533 14.5309C53.3004 12.5007 54.3362 10.7793 54.4551 10.7059C54.5739 10.6325 54.6712 12.6937 54.6712 15.2863V20.0003H56.3222H57.9732V11.6183V3.23626H56.8422C56.2201 3.23626 55.4462 3.35691 55.1226 3.50448C54.7251 3.68558 53.6341 5.41685 51.7614 8.83848C50.2366 11.6246 48.9245 13.9032 48.8455 13.9022C48.7667 13.901 48.4117 13.3579 48.0566 12.6957C47.7015 12.0333 46.5214 9.83391 45.434 7.80826C44.3466 5.78261 43.2242 3.92536 42.94 3.68076C42.5859 3.37646 41.9916 3.23626 41.054 3.23626H39.6852V11.6299ZM60.8922 3.49381C60.8018 3.63986 60.7886 7.38509 60.863 11.8164L60.9981 19.8733H67.8043H74.6102L74.6933 19.287C74.739 18.9647 74.5935 18.4216 74.3699 18.0805L73.9635 17.4603H69.1434H64.3232V15.1743V12.8883H68.7682H73.2132V11.6183V10.3483H68.7682H64.3232V8.06226V5.77626H69.1434H73.9635L74.3699 5.15599C74.5935 4.81487 74.739 4.27181 74.6933 3.94949L74.6102 3.36326L67.8333 3.29569C63.3192 3.25048 61.0014 3.31678 60.8922 3.49381ZM77.2772 3.3851C77.2772 3.46689 78.7146 5.35411 80.4715 7.57864L83.6658 11.6233L83.202 12.2352C82.947 12.5718 81.5096 14.3907 80.0077 16.2769C78.5058 18.1633 77.2772 19.7727 77.2772 19.8534C77.2772 20.1161 80.5386 20.0081 81.1388 19.7257C81.4596 19.5748 82.5767 18.3655 83.6209 17.0384C84.6651 15.7115 85.6006 14.5756 85.6999 14.5141C85.7992 14.4529 86.8063 15.5459 87.9381 16.9434C89.0697 18.3409 90.2127 19.6005 90.4779 19.7422C90.978 20.0099 94.2952 20.1095 94.2952 19.8567C94.2952 19.7778 92.8665 17.8949 91.1205 15.6726L87.9455 11.6317L91.1205 7.58398C92.8665 5.35767 94.2952 3.46867 94.2952 3.38612C94.2952 3.12881 90.9856 3.22254 90.4779 3.49432C90.2127 3.63605 89.0715 4.89335 87.9419 6.28832C86.8124 7.68304 85.8497 8.82426 85.8025 8.82426C85.7552 8.82426 84.7822 7.68151 83.6402 6.28476C82.4982 4.88802 81.3496 3.63072 81.0882 3.49076C80.5863 3.22229 77.2772 3.13034 77.2772 3.3851Z" fill="white"/>
</svg>
