<svg width="269" height="288" fill="none" xmlns="http://www.w3.org/2000/svg"><path d="m145.599 64.633-10.617 6.274V82.97l10.617-6.756V64.633Z" fill="#161616" stroke="#fff" stroke-width=".5"/><path d="m134.982 70.907-6.273-3.86m6.273 15.924-10.616-6.273v-3.86" stroke="#fff" stroke-width=".5"/><path d="m141.256 62.22 4.343 2.414-10.616 6.273-6.273-3.86v-5.309l3.378-2.413 7.238 3.86 1.93-.964Z" fill="#161616" stroke="#fff" stroke-width=".5"/><path d="m134.982 81.04-10.616-6.273m10.616 4.343-10.616-6.273m10.616 4.343-9.168-5.308m9.168 3.378-7.72-4.343m7.72 2.413-6.273-3.378m6.273 1.93-6.273-3.378" stroke="#fff" stroke-width=".5"/><path d="M148.495 118.197c-11.353-6.147-18.178-7.002-31.849 0L70.803 145.22c-6.273 3.378-4.717 10.11 0 13.995l44.878 27.023c10.616 6.757 22.68 6.757 33.297 0l42.947-25.093c7.692-5.122 10.134-12.063 0-16.89l-43.43-26.058Z" fill="#0F0E0E" stroke="#fff" stroke-width=".5"/><path d="M149.171 268.927c-10.628 5.567-19.231 6.073-29.859 0l-105.77-63.26c-4.049-4.048-4.546-9.611 0-12.146l105.77-62.753c10.122-6.073 19.231-5.567 29.859 0l100.203 58.199c12.146 6.579 8.604 13.664-2.024 20.749l-98.179 59.211Z" fill="#0F0E0E" stroke="#fff" stroke-width=".5"/><g filter="url(#a)"><path d="M252.412 190.991c6.871 6.636 5.214 10.668-4.049 18.219v14.676l8.098-4.554c2.241-2.012 2.609-3.394 2.53-6.073v-11.134c-.071-6.629-1.913-8.701-6.579-11.134Z" fill="#F73737"/></g><g filter="url(#b)"><path d="M39.859 220.85v14.676l-26.823-16.195c-2.53-2.024-3.036-4.048-3.036-7.591v-12.652c1.012 2.531 2.53 5.567 4.049 6.073l25.81 15.689Z" fill="#F73737"/></g><g filter="url(#c)"><path d="M52.51 243.118v-14.17l8.097 5.061v14.17l-8.097-5.061Z" fill="#F73737"/></g><path d="m39.858 235.526 78.949 47.571m0 0v-14.354m0 14.354c9.2 5.593 21.255 5.567 30.364 0m0 0 2.315-1.382m-2.315 1.382v-2.024m0-12.146v3.542m86.54-41.031 12.652-22.228v4.048m-12.652 18.18 3.542-2.114m-3.542 2.114-3.456 2.063m6.998-4.177 9.11-16.066m-9.11 16.066 3.543-2.115m5.567-13.951v3.543m0 0-5.567 10.408m5.567-10.408v3.542m-5.567 6.866 2.783-1.661m0 0 2.784-1.662v-3.543m-2.784 5.205 2.784-5.205m-16.108 13.158 12.059-21.761m-12.059 21.761-3.123 1.865m0 0 11.133-21.096m-11.133 21.096-4.049 2.416m0 0 10.121-20.475m-10.121 20.475-4.049 2.417m0 0 9.616-20.362m-9.616 20.362-3.542 2.115m0 0 8.603-19.946m-8.603 19.946-4.335 2.588m0 0 8.383-19.498m-8.383 19.498-4.641 2.77m0 0 8.47-19.737m-8.47 19.737-3.676 2.194m0 0 7.591-18.895m-7.591 18.895-3.543 2.115m0 0 7.219-18.986m-7.219 18.986-3.542 2.115m0 0 6.073-18.064m-6.073 18.064-3.651 2.179m0 0 5.675-17.713m-5.675 17.713-3.434 2.05m0 0 5.06-17.232m-5.06 17.232-3.037 1.813m0 0 4.049-16.515m-4.049 16.515-3.542 2.114m0 0 3.542-16.605m-3.542 16.605-4.399 2.626m0 0 4.399-17.206m-4.399 17.206-4.205 2.51m0 0 4.205-16.923m-4.205 16.923-4.273 2.551m0 0 4.273-16.701m-4.273 16.701-4.239 2.53m0 0c-.073-.404 2.945-11.302 4.464-16.7m-4.464 16.7-4.646 2.774m0 0 4.049-16.438m-4.049 16.438-3.832 2.287m0 0 4.338-16.7m-4.338 16.7-3.759 2.244m0 0 4.049-16.414m-4.049 16.414-3.252 1.941m0 0 3.758-16.331m-6.073 15.689 3.037-13.685m-3.037 13.685v-8.604m0 0 1.012-4.048M154.284 97.447l-10.134-5.79v12.064l10.134 5.79V97.447ZM120.506 107.581V95.517l-7.404-4.23-2.73 1.817v8.686l10.134 5.791ZM93.482 114.82l-10.133-5.791v12.064l10.133 5.791V114.82Z" stroke="#fff" stroke-width=".5"/><path d="m164.419 92.14-10.134 5.308v12.064l10.134-6.274V92.14ZM130.639 90.21l-10.134 5.308v12.064l10.134-6.274V90.209ZM154.284 84.9l-10.134 6.757 10.134 5.79 10.134-5.308-10.134-7.238ZM103.617 109.511l-10.134 5.308v12.064l10.134-6.273v-11.099Z" fill="#161616" stroke="#fff" stroke-width=".5"/><path d="m144.15 102.273 10.134 5.791m-10.134-7.239 10.134 5.308m-10.134-6.755 10.134 5.308m0-1.448L144.15 97.93m0-1.448 10.134 5.308m0-1.447-10.134-5.308m10.134 3.86-10.134-5.308" stroke="#fff" stroke-width=".5"/><path d="m130.64 90.209-10.134-7.239-2.895 1.93v3.86l-4.343 2.414 7.238 4.343 10.134-5.308ZM93.482 102.273l-10.133 6.756 10.133 5.791 10.134-5.308-10.134-7.239Z" fill="#161616" stroke="#fff" stroke-width=".5"/><path d="m110.372 100.343 10.134 5.791m-10.134-7.239 10.134 5.308m-10.134-6.755 10.134 5.308m0-1.448L110.372 96m0-1.448 10.134 5.308m0-1.447-10.134-5.308m10.134 3.86-8.686-4.826" stroke="#fff" stroke-width=".5"/><path d="M74.662 161.628v41.5l42.465 24.61c10.617 6.756 20.75 6.274 30.401 0l43.431-25.575V162.11l-44.396 25.576c-8.203 4.826-20.267 4.826-28.471 0l-43.43-26.058Z" fill="#161616"/><path d="m83.349 119.646 10.133 5.79m-10.133-7.238 10.133 5.308M83.35 116.75l10.133 5.308m0-1.447-10.133-5.309m0-1.447 10.133 5.308m0-1.448-10.133-5.308m10.133 3.861-10.133-5.309" stroke="#fff" stroke-width=".5"/><path d="M117.611 77.18v11.582L105.065 96c-18.338-12.064-9.651-57.907 25.093-76.244 16.889-6.756 31.849-.965 31.849 18.337l-11.582 6.756v12.547l-11.099 5.79V52.087l-10.616 5.309v12.546l-11.099 7.239Z" fill="#150F0F" stroke="#fff" stroke-width=".5"/><path d="M108.924 88.279c-9.715-8.968-10.133-27.988 6.273-48.738m13.995-12.064c14.477-5.79 22.68-2.896 25.576 10.133M111.819 29.89l-6.274-3.861m2.413 9.168-6.756-3.86m2.413 9.651-6.273-3.86m1.448 9.168-4.826-3.378m1.448 8.686-4.343-2.895m1.447 9.169-3.86-2.413m.965 9.168-2.413-1.93m1.448 8.686-1.93-1.447" stroke="#fff" stroke-width=".5"/><g filter="url(#d)"><path d="M88.657 86.349c.966 3.377 11.085 7.997 16.407 9.65-5.059-4.28-6.24-6.572-7.72-10.615-4.867-2.334-7.606-4.237-12.547-9.17l3.86 10.135Z" fill="#F73737"/></g><g filter="url(#e)"><path d="m108.441 19.756 10.617 7.239c1.379-1.156 2.162-1.619 3.378-2.413l-10.617-7.238c-1.38.663-2.136 1.118-3.378 2.412Z" fill="#F73737"/></g><g filter="url(#f)"><path d="m116.162 14.448 10.616 7.238c10.701-5.033 16.525-6.494 26.059-2.412-17.099-13.102-24.094-9.98-36.675-4.826Z" fill="#F73737"/></g><path d="M116.163 14.447C93 27.477 80.936 54.5 84.797 76.216M139.326 63.186l-10.616-5.79M139.326 61.256l-8.686-4.826m8.686 3.378-7.239-3.86m7.239 2.413-5.791-3.378m5.791 1.93-4.343-2.413m4.343.965-3.378-1.93" stroke="#fff" stroke-width=".5"/><g filter="url(#g)"><path d="M142.882 248.006h-9.796l-69.608-39.483-6.187-8.505 3.61-9.804 6.041-2.58v12.384l47.291 25.79 18.853 8.204 20.234-8.204 27.988-17.285 15.442-8.505 4.912-12.384 6.187 15.996-64.967 44.376Z" fill="#222"/></g><path d="m75.628 203.61 45.843 27.023c6.756 2.895 13.994 3.378 21.715 0l52.599-31.366" stroke="#fff" stroke-width=".5"/><g filter="url(#h)" fill="#F73737"><path d="M66.46 150.046c0 6.756 2.817 8.701 10.133 12.547v41.982l-7.238-4.343c-1.93-1.447-2.895-3.86-2.895-8.686v-41.5ZM80.937 206.988v-41.5l4.825 3.378v41.018l-4.825-2.896ZM90.105 212.296v-41.017l1.93 1.448v41.017l-1.93-1.448ZM118.094 190.099h-1.931v35.709h1.931v-35.709ZM148.977 190.099h-1.93v35.709h1.93v-35.709ZM198.681 151.012c0 5.308-3.351 8.984-10.616 12.546v41.017l7.721-4.825c1.93-1.448 2.895-3.378 2.895-7.238v-41.5Z"/></g><path d="M187.58 163.56c11.099-4.826 15.442-13.994 4.826-19.302l-43.43-26.058c-12.546-6.758-20.778-6.413-33.296 0l-46.809 28.953c-3.86 3.378-2.412 9.651 3.378 13.029l45.843 27.506c9.651 4.825 18.82 4.825 28.471 0l41.017-24.128Z" fill="#0F0E0E" stroke="#fff" stroke-width=".5"/><g filter="url(#i)"><ellipse cx="132.57" cy="158.25" rx="19.302" ry="11.581" fill="#222"/></g><path d="M121.092 144.963c3.109-1.653 4.795-2.157 7.74-2.6-1.847 2.687-1.768 5.134.528 7.713-5.339-.098-8.005-2.6-8.268-5.113ZM133.406 149.383c-2.991-1.993-2.727-5.72.528-7.54 3.797.089 5.583.473 8.356 1.56-4.499 1.152-6.661 2.212-8.884 5.98ZM145.896 145.31c-3.606-.174-8.444 2.166-8.796 5.286 4.683-1.532 7.394-1.838 12.491-.693-.477-1.883-1.936-3.467-3.695-4.593ZM149.942 153.023c-3.43-1.993-7.508-2.025-11.874 0 5.52 1.062 7.122 2.289 8.884 4.94 1.974-1.885 2.439-2.977 2.99-4.94ZM143.785 160.303c0-3.12-3.893-4.953-8.004-4.94 2.356 2.878 2.404 4.512.352 7.453 3.285-.567 4.971-1.089 7.652-2.513ZM131.383 163.076c3.606-2.687 3.078-5.113.264-7.02-1.975 3.183-3.92 4.35-8.356 5.72 2.775.878 4.472 1.235 8.092 1.3ZM115.726 155.536c5.203.965 7.906.77 12.402-.693-.615 2.946-4.31 5.2-8.62 4.94-2.099-1.376-2.876-2.329-3.782-4.247ZM115.198 152.59c4.961 1.808 8.444 1.473 11.963-.26-4.9-.878-6.935-1.946-9.324-4.94-1.85 1.83-2.448 2.964-2.639 5.2Z" fill="#fff"/><path d="m132.569 127.366-10.133-5.791v12.064l10.133 5.791v-12.064ZM142.705 122.059l-10.134 5.308v12.064l10.134-6.274v-11.098Z" stroke="#fff" stroke-width=".5"/><path d="m132.569 114.819-10.133 6.756 10.133 5.791 10.134-5.308-10.134-7.239ZM122.436 132.191l10.133 5.791m-10.133-7.238 10.133 5.308m-10.133-6.756 10.133 5.308m0-1.447-10.133-5.309m0-1.447 10.133 5.308m0-1.448-10.133-5.308m10.133 3.861-10.133-5.309" stroke="#fff" stroke-width=".5"/><defs><filter id="a" x="238.363" y="180.991" width="30.638" height="52.895" filterUnits="userSpaceOnUse" color-interpolation-filters="sRGB"><feFlood flood-opacity="0" result="BackgroundImageFix"/><feColorMatrix in="SourceAlpha" values="0 0 0 0 0 0 0 0 0 0 0 0 0 0 0 0 0 0 127 0" result="hardAlpha"/><feOffset/><feGaussianBlur stdDeviation="5"/><feComposite in2="hardAlpha" operator="out"/><feColorMatrix values="0 0 0 0 0.966667 0 0 0 0 0.2175 0 0 0 0 0.2175 0 0 0 1 0"/><feBlend in2="BackgroundImageFix" result="effect1_dropShadow_290_3454"/><feBlend in="SourceGraphic" in2="effect1_dropShadow_290_3454" result="shape"/></filter><filter id="b" x="0" y="189.088" width="49.858" height="56.438" filterUnits="userSpaceOnUse" color-interpolation-filters="sRGB"><feFlood flood-opacity="0" result="BackgroundImageFix"/><feColorMatrix in="SourceAlpha" values="0 0 0 0 0 0 0 0 0 0 0 0 0 0 0 0 0 0 127 0" result="hardAlpha"/><feOffset/><feGaussianBlur stdDeviation="5"/><feComposite in2="hardAlpha" operator="out"/><feColorMatrix values="0 0 0 0 0.966667 0 0 0 0 0.2175 0 0 0 0 0.2175 0 0 0 1 0"/><feBlend in2="BackgroundImageFix" result="effect1_dropShadow_290_3454"/><feBlend in="SourceGraphic" in2="effect1_dropShadow_290_3454" result="shape"/></filter><filter id="c" x="42.51" y="218.948" width="28.098" height="39.231" filterUnits="userSpaceOnUse" color-interpolation-filters="sRGB"><feFlood flood-opacity="0" result="BackgroundImageFix"/><feColorMatrix in="SourceAlpha" values="0 0 0 0 0 0 0 0 0 0 0 0 0 0 0 0 0 0 127 0" result="hardAlpha"/><feOffset/><feGaussianBlur stdDeviation="5"/><feComposite in2="hardAlpha" operator="out"/><feColorMatrix values="0 0 0 0 0.966667 0 0 0 0 0.2175 0 0 0 0 0.2175 0 0 0 1 0"/><feBlend in2="BackgroundImageFix" result="effect1_dropShadow_290_3454"/><feBlend in="SourceGraphic" in2="effect1_dropShadow_290_3454" result="shape"/></filter><filter id="d" x="74.797" y="66.215" width="40.268" height="39.785" filterUnits="userSpaceOnUse" color-interpolation-filters="sRGB"><feFlood flood-opacity="0" result="BackgroundImageFix"/><feColorMatrix in="SourceAlpha" values="0 0 0 0 0 0 0 0 0 0 0 0 0 0 0 0 0 0 127 0" result="hardAlpha"/><feOffset/><feGaussianBlur stdDeviation="5"/><feComposite in2="hardAlpha" operator="out"/><feColorMatrix values="0 0 0 0 0.966667 0 0 0 0 0.2175 0 0 0 0 0.2175 0 0 0 1 0"/><feBlend in2="BackgroundImageFix" result="effect1_dropShadow_290_3454"/><feBlend in="SourceGraphic" in2="effect1_dropShadow_290_3454" result="shape"/></filter><filter id="e" x="98.441" y="7.344" width="33.994" height="29.651" filterUnits="userSpaceOnUse" color-interpolation-filters="sRGB"><feFlood flood-opacity="0" result="BackgroundImageFix"/><feColorMatrix in="SourceAlpha" values="0 0 0 0 0 0 0 0 0 0 0 0 0 0 0 0 0 0 127 0" result="hardAlpha"/><feOffset/><feGaussianBlur stdDeviation="5"/><feComposite in2="hardAlpha" operator="out"/><feColorMatrix values="0 0 0 0 0.966667 0 0 0 0 0.2175 0 0 0 0 0.2175 0 0 0 1 0"/><feBlend in2="BackgroundImageFix" result="effect1_dropShadow_290_3454"/><feBlend in="SourceGraphic" in2="effect1_dropShadow_290_3454" result="shape"/></filter><filter id="f" x="106.162" y="0" width="56.675" height="31.686" filterUnits="userSpaceOnUse" color-interpolation-filters="sRGB"><feFlood flood-opacity="0" result="BackgroundImageFix"/><feColorMatrix in="SourceAlpha" values="0 0 0 0 0 0 0 0 0 0 0 0 0 0 0 0 0 0 127 0" result="hardAlpha"/><feOffset/><feGaussianBlur stdDeviation="5"/><feComposite in2="hardAlpha" operator="out"/><feColorMatrix values="0 0 0 0 0.966667 0 0 0 0 0.2175 0 0 0 0 0.2175 0 0 0 1 0"/><feBlend in2="BackgroundImageFix" result="effect1_dropShadow_290_3454"/><feBlend in="SourceGraphic" in2="effect1_dropShadow_290_3454" result="shape"/></filter><filter id="g" x="47.291" y="177.634" width="170.559" height="80.372" filterUnits="userSpaceOnUse" color-interpolation-filters="sRGB"><feFlood flood-opacity="0" result="BackgroundImageFix"/><feBlend in="SourceGraphic" in2="BackgroundImageFix" result="shape"/><feGaussianBlur stdDeviation="5" result="effect1_foregroundBlur_290_3454"/></filter><filter id="h" x="56.46" y="140.046" width="152.221" height="95.762" filterUnits="userSpaceOnUse" color-interpolation-filters="sRGB"><feFlood flood-opacity="0" result="BackgroundImageFix"/><feColorMatrix in="SourceAlpha" values="0 0 0 0 0 0 0 0 0 0 0 0 0 0 0 0 0 0 127 0" result="hardAlpha"/><feOffset/><feGaussianBlur stdDeviation="5"/><feComposite in2="hardAlpha" operator="out"/><feColorMatrix values="0 0 0 0 0.966667 0 0 0 0 0.2175 0 0 0 0 0.2175 0 0 0 1 0"/><feBlend in2="BackgroundImageFix" result="effect1_dropShadow_290_3454"/><feBlend in="SourceGraphic" in2="effect1_dropShadow_290_3454" result="shape"/></filter><filter id="i" x="109.268" y="142.668" width="46.605" height="31.163" filterUnits="userSpaceOnUse" color-interpolation-filters="sRGB"><feFlood flood-opacity="0" result="BackgroundImageFix"/><feBlend in="SourceGraphic" in2="BackgroundImageFix" result="shape"/><feGaussianBlur stdDeviation="2" result="effect1_foregroundBlur_290_3454"/></filter></defs></svg>