<svg width="281" height="301" fill="none" xmlns="http://www.w3.org/2000/svg"><path d="m151.818 67.14-11.103 6.56v12.617l11.103-7.065V67.139Z" fill="#161616" stroke="#fff" stroke-width=".5"/><path d="m140.715 73.7-6.561-4.037m6.561 16.655-11.104-6.561v-4.038" stroke="#fff" stroke-width=".5"/><path d="m147.276 64.616 4.542 2.523-11.103 6.562-6.561-4.038V64.11l3.533-2.523 7.57 4.037 2.019-1.009Z" fill="#161616" stroke="#fff" stroke-width=".5"/><path d="m140.715 84.299-11.104-6.561m11.104 4.542-11.104-6.561m11.104 4.542-9.59-5.551m9.59 3.532-8.076-4.542m8.076 2.524-6.561-3.533m6.561 2.019-6.561-3.533" stroke="#fff" stroke-width=".5"/><path d="M154.847 123.159c-11.874-6.429-19.012-7.324-33.31 0l-47.946 28.263c-6.56 3.533-4.934 10.573 0 14.636l46.937 28.262c11.102 7.067 23.72 7.067 34.823 0l44.918-26.243c8.044-5.357 10.598-12.617 0-17.665l-45.422-27.253Z" fill="#0F0E0E" stroke="#fff" stroke-width=".5"/><path d="M155.555 280.803c-11.115 5.822-20.113 6.351-31.228 0L13.705 214.642c-4.234-4.235-4.754-10.053 0-12.703l110.622-65.632c10.585-6.351 20.113-5.822 31.228 0l104.799 60.868c12.703 6.881 8.998 14.291-2.117 21.701l-102.682 61.927Z" fill="#0F0E0E" stroke="#fff" stroke-width=".5"/><g filter="url(#a)"><path d="M263.529 199.293c7.186 6.941 5.453 11.158-4.234 19.055v15.349l8.469-4.764c2.344-2.103 2.729-3.549 2.646-6.351v-11.644c-.075-6.933-2-9.101-6.881-11.645Z" fill="#F73737"/></g><g filter="url(#b)"><path d="M41.228 230.521v15.349l-28.052-16.937c-2.647-2.117-3.176-4.235-3.176-7.94v-13.232c1.059 2.647 2.646 5.822 4.234 6.352l26.994 16.408Z" fill="#F73737"/></g><g filter="url(#c)"><path d="M54.46 253.81v-14.82l8.47 5.293v14.82l-8.47-5.293Z" fill="#F73737"/></g><path d="m41.227 245.87 82.57 49.753m0 0v-15.012m0 15.012c9.622 5.85 22.23 5.822 31.757 0m0 0 2.421-1.445m-2.421 1.445v-2.117m0-12.703v3.705m90.508-42.913 13.233-23.248v4.234m-13.233 19.014 3.705-2.212m-3.705 2.212-3.614 2.158m7.319-4.37 9.528-16.802m-9.528 16.802 3.705-2.211m5.823-14.591v3.705m0 0-5.823 10.886m5.823-10.886v3.705m-5.823 7.181 2.912-1.738m0 0 2.911-1.738v-3.705m-2.911 5.443 2.911-5.443m-16.847 13.762 12.612-22.76m-12.612 22.76-3.266 1.95m0 0 11.644-22.063m-11.644 22.063-4.235 2.527m0 0 10.586-21.414m-10.586 21.414-4.234 2.528m0 0 10.057-21.296m-10.057 21.296-3.705 2.211m0 0 8.998-20.861m-8.998 20.861-4.534 2.707m0 0 8.768-20.392m-8.768 20.392-4.853 2.897m0 0 8.858-20.642m-8.858 20.642-3.845 2.295m0 0 7.939-19.762m-7.939 19.762-3.705 2.212m0 0 7.55-19.856m-7.55 19.856-3.705 2.212m0 0 6.351-18.893m-6.351 18.893-3.818 2.279m0 0 5.935-18.525m-5.935 18.525-3.592 2.144m0 0 5.293-18.023m-5.293 18.023-3.176 1.896m0 0 4.234-17.272m-4.234 17.272-3.705 2.211m0 0 3.705-17.366m-3.705 17.366-4.601 2.747m0 0 4.601-17.996m-4.601 17.996-4.397 2.625m0 0 4.397-17.7m-4.397 17.7-4.47 2.668m0 0 4.47-17.467m-4.47 17.467-4.433 2.646m0 0c-.076-.423 3.081-11.821 4.669-17.466m-4.669 17.466-4.858 2.9m0 0 4.234-17.191m-4.234 17.191-4.009 2.393m0 0 4.538-17.467m-4.538 17.467-3.931 2.347m0 0 4.234-17.167m-4.234 17.167-3.401 2.03m0 0 3.93-17.08m-6.351 16.408 3.176-14.312m-3.176 14.312v-8.998m0 0 1.059-4.234M160.902 101.459l-10.598-6.057v12.618l10.598 6.056v-12.617ZM125.574 112.057V99.44l-7.744-4.425-2.854 1.901v9.085l10.598 6.056ZM97.311 119.627l-10.598-6.056v12.617l10.598 6.057v-12.618Z" stroke="#fff" stroke-width=".5"/><path d="m171.501 95.907-10.599 5.551v12.618l10.599-6.561V95.907ZM136.172 93.888l-10.599 5.552v12.617l10.599-6.561V93.888Z" fill="#161616" stroke="#fff" stroke-width=".5"/><path d="m160.902 88.337-10.598 7.065 10.598 6.057 10.599-5.552-10.599-7.57ZM107.91 114.076l-10.599 5.551v12.618l10.599-6.561v-11.608Z" fill="#161616" stroke="#fff" stroke-width=".5"/><path d="m150.304 106.505 10.598 6.056m-10.598-7.57 10.598 5.552m-10.598-7.066 10.598 5.552m0-1.515-10.598-5.551m0-1.514L160.902 106m0-1.514-10.598-5.551m10.598 4.037-10.598-5.551" stroke="#fff" stroke-width=".5"/><path d="m136.173 93.888-10.599-7.57-3.028 2.018v4.038l-4.542 2.523 7.57 4.542 10.599-5.551ZM97.311 106.505l-10.598 7.066 10.598 6.056 10.599-5.551-10.599-7.571Z" fill="#161616" stroke="#fff" stroke-width=".5"/><path d="m114.976 104.486 10.598 6.057m-10.598-7.571 10.598 5.552m-10.598-7.066 10.598 5.552m0-1.514-10.598-5.552m0-1.514 10.598 5.552m0-1.514-10.598-5.552m10.598 4.038-9.084-5.047" stroke="#fff" stroke-width=".5"/><path d="M77.628 168.583v43.403l44.413 25.739c11.103 7.066 21.702 6.561 31.796 0l45.422-26.748v-41.89l-46.432 26.749c-8.579 5.047-21.197 5.047-29.776 0l-45.423-27.253Z" fill="#161616"/><path d="m86.713 124.674 10.598 6.057m-10.598-7.571 10.598 5.552m-10.598-7.066 10.598 5.552m0-1.514-10.598-5.552m0-1.514 10.598 5.552m0-1.514-10.598-5.552m10.598 4.037-10.598-5.551" stroke="#fff" stroke-width=".5"/><path d="M122.546 80.262v12.112l-13.122 7.57c-19.178-12.617-10.094-60.562 26.244-79.74 17.664-7.067 33.31-1.01 33.31 19.178l-12.113 7.065V59.57l-11.608 6.057V54.018l-11.103 5.551v13.122l-11.608 7.57Z" fill="#150F0F" stroke="#fff" stroke-width=".5"/><path d="M113.461 91.87c-10.161-9.38-10.598-29.273 6.561-50.975m14.636-12.617c15.141-6.056 23.721-3.028 26.749 10.599M116.489 30.802l-6.561-4.038m2.524 9.59-7.066-4.038m2.523 10.094-6.561-4.038m1.514 9.59-5.046-3.534m1.513 9.085-4.542-3.028m1.514 9.589-4.037-2.524m1.01 9.59-2.524-2.02m1.514 9.085-2.019-1.514" stroke="#fff" stroke-width=".5"/><g filter="url(#d)"><path d="M92.265 89.85c1.01 3.533 11.593 8.365 17.16 10.094-5.292-4.478-6.526-6.873-8.076-11.103-5.09-2.44-7.953-4.43-13.121-9.589l4.037 10.599Z" fill="#F73737"/></g><g filter="url(#e)"><path d="m112.957 20.204 11.103 7.57c1.443-1.209 2.262-1.693 3.533-2.524l-11.103-7.57c-1.443.694-2.235 1.17-3.533 2.524Z" fill="#F73737"/></g><g filter="url(#f)"><path d="m121.031 14.652 11.103 7.57c11.191-5.264 17.283-6.792 27.254-2.523-17.883-13.702-25.199-10.437-38.357-5.047Z" fill="#F73737"/></g><path d="M121.032 14.651c-24.225 13.627-36.842 41.89-32.805 64.6M145.257 65.626l-11.103-6.057M145.257 63.606l-9.084-5.046m9.084 3.532-7.57-4.037m7.57 2.523-6.056-3.532m6.056 2.018-4.542-2.523m4.542 1.01-3.533-2.02" stroke="#fff" stroke-width=".5"/><g filter="url(#g)"><path d="M148.977 258.922h-10.246l-72.8-41.293-6.471-8.896 3.775-10.254 6.319-2.698v12.952l49.459 26.973 19.718 8.58 21.162-8.58 29.272-18.077 16.151-8.896 5.136-12.952 6.471 16.729-67.946 46.412Z" fill="#222"/></g><path d="m78.638 212.49 47.946 28.263c7.065 3.028 14.636 3.533 22.711 0l55.011-32.805" stroke="#fff" stroke-width=".5"/><g filter="url(#h)" fill="#F73737"><path d="M69.05 156.47c0 7.065 2.946 9.1 10.597 13.122V213.5l-7.57-4.542c-2.018-1.515-3.028-4.038-3.028-9.085V156.47ZM84.19 216.023V172.62l5.047 3.533v42.898l-5.047-3.028ZM93.78 221.575v-42.899l2.018 1.514v42.899l-2.019-1.514ZM123.051 198.359h-2.019v37.347h2.019v-37.347ZM155.351 198.359h-2.018v37.347h2.018v-37.347ZM207.335 157.479c0 5.552-3.505 9.396-11.104 13.122V213.5l8.075-5.047c2.019-1.514 3.029-3.533 3.029-7.57v-43.404Z"/></g><path d="M195.726 170.603c11.608-5.047 16.15-14.636 5.047-20.188l-45.422-27.253c-13.122-7.067-21.732-6.707-34.824 0l-48.955 30.281c-4.037 3.533-2.523 10.094 3.533 13.627l47.945 28.767c10.094 5.047 19.683 5.047 29.777 0l42.899-25.234Z" fill="#0F0E0E" stroke="#fff" stroke-width=".5"/><g filter="url(#i)"><ellipse cx="138.192" cy="165.049" rx="20.188" ry="12.113" fill="#222"/></g><path d="M126.186 151.153c3.252-1.728 5.015-2.256 8.096-2.719-1.932 2.81-1.849 5.37.552 8.067-5.584-.103-8.372-2.719-8.648-5.348ZM139.065 155.776c-3.128-2.085-2.852-5.982.552-7.886 3.972.093 5.84.494 8.74 1.632-4.706 1.204-6.967 2.312-9.292 6.254ZM152.128 151.516c-3.771-.182-8.831 2.266-9.199 5.529 4.897-1.603 7.732-1.923 13.063-.725-.498-1.97-2.024-3.626-3.864-4.804ZM156.36 159.582c-3.588-2.084-7.853-2.117-12.419 0 5.773 1.112 7.449 2.394 9.291 5.167 2.065-1.971 2.551-3.113 3.128-5.167ZM149.921 167.196c0-3.263-4.072-5.179-8.372-5.166 2.464 3.01 2.515 4.718.368 7.795 3.437-.593 5.199-1.139 8.004-2.629ZM136.949 170.097c3.772-2.81 3.22-5.348.276-7.342-2.064 3.329-4.099 4.549-8.739 5.982 2.903.918 4.678 1.291 8.463 1.36ZM120.574 162.211c5.442 1.009 8.269.805 12.972-.725-.644 3.082-4.508 5.438-9.016 5.166-2.195-1.439-3.008-2.435-3.956-4.441ZM120.022 159.129c5.189 1.892 8.832 1.541 12.512-.272-5.125-.917-7.253-2.035-9.752-5.166-1.935 1.914-2.56 3.1-2.76 5.438Z" fill="#fff"/><path d="m138.191 132.749-10.598-6.056v12.617l10.598 6.056v-12.617ZM148.791 127.198l-10.599 5.551v12.618l10.599-6.561v-11.608Z" stroke="#fff" stroke-width=".5"/><path d="m138.191 119.627-10.598 7.066 10.598 6.056 10.599-5.551-10.599-7.571ZM127.593 137.796l10.598 6.056m-10.598-7.57 10.598 5.552m-10.598-7.066 10.598 5.552m0-1.515-10.598-5.551m0-1.514 10.598 5.551m0-1.514-10.598-5.551m10.598 4.037-10.598-5.551" stroke="#fff" stroke-width=".5"/><defs><filter id="a" x="249.295" y="189.293" width="31.125" height="54.404" filterUnits="userSpaceOnUse" color-interpolation-filters="sRGB"><feFlood flood-opacity="0" result="BackgroundImageFix"/><feColorMatrix in="SourceAlpha" values="0 0 0 0 0 0 0 0 0 0 0 0 0 0 0 0 0 0 127 0" result="hardAlpha"/><feOffset/><feGaussianBlur stdDeviation="5"/><feComposite in2="hardAlpha" operator="out"/><feColorMatrix values="0 0 0 0 0.966667 0 0 0 0 0.2175 0 0 0 0 0.2175 0 0 0 1 0"/><feBlend in2="BackgroundImageFix" result="effect1_dropShadow_283_9765"/><feBlend in="SourceGraphic" in2="effect1_dropShadow_283_9765" result="shape"/></filter><filter id="b" x="0" y="197.761" width="51.228" height="58.109" filterUnits="userSpaceOnUse" color-interpolation-filters="sRGB"><feFlood flood-opacity="0" result="BackgroundImageFix"/><feColorMatrix in="SourceAlpha" values="0 0 0 0 0 0 0 0 0 0 0 0 0 0 0 0 0 0 127 0" result="hardAlpha"/><feOffset/><feGaussianBlur stdDeviation="5"/><feComposite in2="hardAlpha" operator="out"/><feColorMatrix values="0 0 0 0 0.966667 0 0 0 0 0.2175 0 0 0 0 0.2175 0 0 0 1 0"/><feBlend in2="BackgroundImageFix" result="effect1_dropShadow_283_9765"/><feBlend in="SourceGraphic" in2="effect1_dropShadow_283_9765" result="shape"/></filter><filter id="c" x="44.46" y="228.99" width="28.469" height="40.113" filterUnits="userSpaceOnUse" color-interpolation-filters="sRGB"><feFlood flood-opacity="0" result="BackgroundImageFix"/><feColorMatrix in="SourceAlpha" values="0 0 0 0 0 0 0 0 0 0 0 0 0 0 0 0 0 0 127 0" result="hardAlpha"/><feOffset/><feGaussianBlur stdDeviation="5"/><feComposite in2="hardAlpha" operator="out"/><feColorMatrix values="0 0 0 0 0.966667 0 0 0 0 0.2175 0 0 0 0 0.2175 0 0 0 1 0"/><feBlend in2="BackgroundImageFix" result="effect1_dropShadow_283_9765"/><feBlend in="SourceGraphic" in2="effect1_dropShadow_283_9765" result="shape"/></filter><filter id="d" x="78.228" y="69.252" width="41.197" height="40.692" filterUnits="userSpaceOnUse" color-interpolation-filters="sRGB"><feFlood flood-opacity="0" result="BackgroundImageFix"/><feColorMatrix in="SourceAlpha" values="0 0 0 0 0 0 0 0 0 0 0 0 0 0 0 0 0 0 127 0" result="hardAlpha"/><feOffset/><feGaussianBlur stdDeviation="5"/><feComposite in2="hardAlpha" operator="out"/><feColorMatrix values="0 0 0 0 0.966667 0 0 0 0 0.2175 0 0 0 0 0.2175 0 0 0 1 0"/><feBlend in2="BackgroundImageFix" result="effect1_dropShadow_283_9765"/><feBlend in="SourceGraphic" in2="effect1_dropShadow_283_9765" result="shape"/></filter><filter id="e" x="102.957" y="7.68" width="34.636" height="30.094" filterUnits="userSpaceOnUse" color-interpolation-filters="sRGB"><feFlood flood-opacity="0" result="BackgroundImageFix"/><feColorMatrix in="SourceAlpha" values="0 0 0 0 0 0 0 0 0 0 0 0 0 0 0 0 0 0 127 0" result="hardAlpha"/><feOffset/><feGaussianBlur stdDeviation="5"/><feComposite in2="hardAlpha" operator="out"/><feColorMatrix values="0 0 0 0 0.966667 0 0 0 0 0.2175 0 0 0 0 0.2175 0 0 0 1 0"/><feBlend in2="BackgroundImageFix" result="effect1_dropShadow_283_9765"/><feBlend in="SourceGraphic" in2="effect1_dropShadow_283_9765" result="shape"/></filter><filter id="f" x="111.031" y="0" width="58.356" height="32.222" filterUnits="userSpaceOnUse" color-interpolation-filters="sRGB"><feFlood flood-opacity="0" result="BackgroundImageFix"/><feColorMatrix in="SourceAlpha" values="0 0 0 0 0 0 0 0 0 0 0 0 0 0 0 0 0 0 127 0" result="hardAlpha"/><feOffset/><feGaussianBlur stdDeviation="5"/><feComposite in2="hardAlpha" operator="out"/><feColorMatrix values="0 0 0 0 0.966667 0 0 0 0 0.2175 0 0 0 0 0.2175 0 0 0 1 0"/><feBlend in2="BackgroundImageFix" result="effect1_dropShadow_283_9765"/><feBlend in="SourceGraphic" in2="effect1_dropShadow_283_9765" result="shape"/></filter><filter id="g" x="49.46" y="185.781" width="177.464" height="83.141" filterUnits="userSpaceOnUse" color-interpolation-filters="sRGB"><feFlood flood-opacity="0" result="BackgroundImageFix"/><feBlend in="SourceGraphic" in2="BackgroundImageFix" result="shape"/><feGaussianBlur stdDeviation="5" result="effect1_foregroundBlur_283_9765"/></filter><filter id="h" x="59.049" y="146.47" width="158.286" height="99.236" filterUnits="userSpaceOnUse" color-interpolation-filters="sRGB"><feFlood flood-opacity="0" result="BackgroundImageFix"/><feColorMatrix in="SourceAlpha" values="0 0 0 0 0 0 0 0 0 0 0 0 0 0 0 0 0 0 127 0" result="hardAlpha"/><feOffset/><feGaussianBlur stdDeviation="5"/><feComposite in2="hardAlpha" operator="out"/><feColorMatrix values="0 0 0 0 0.966667 0 0 0 0 0.2175 0 0 0 0 0.2175 0 0 0 1 0"/><feBlend in2="BackgroundImageFix" result="effect1_dropShadow_283_9765"/><feBlend in="SourceGraphic" in2="effect1_dropShadow_283_9765" result="shape"/></filter><filter id="i" x="114.004" y="148.937" width="48.375" height="32.225" filterUnits="userSpaceOnUse" color-interpolation-filters="sRGB"><feFlood flood-opacity="0" result="BackgroundImageFix"/><feBlend in="SourceGraphic" in2="BackgroundImageFix" result="shape"/><feGaussianBlur stdDeviation="2" result="effect1_foregroundBlur_283_9765"/></filter></defs></svg>