<svg xmlns="http://www.w3.org/2000/svg" width="363" height="393" fill="none"><style>.B{fill:#f73737}.C{color-interpolation-filters:sRGB}.D{flood-opacity:0}.E{stroke:#fff}.F{stroke-width:.5}.G{fill:#161616}</style><g class="E F"><path d="M196.789 85.259 182.165 93.9v16.618l14.624-9.306V85.259z" class="G"/><path d="m182.165 93.9-8.641-5.318m8.641 21.936-14.624-8.641v-5.318"/><path d="m190.806 81.935 5.983 3.324-14.624 8.641-8.642-5.318V81.27l4.654-3.324 9.97 5.318 2.659-1.329z" class="G"/><path d="m182.165 107.859-14.624-8.641m14.624 5.982-14.624-8.641m14.624 5.983-12.63-7.312m12.63 4.653L171.529 93.9m10.636 3.324-8.641-4.653m8.641 2.659-8.641-4.653"/><g fill="#0f0e0e"><path d="M200.778 159.042c-15.639-8.468-25.04-9.646-43.873 0l-63.149 37.225c-8.642 4.653-6.499 13.926 0 19.277l61.82 37.225c14.624 9.307 31.242 9.307 45.866 0l59.161-34.566c10.595-7.055 13.959-16.617 0-23.266l-59.825-35.895z"/><path d="M201.71 366.675c-14.64 7.669-26.491 8.366-41.131 0l-145.7-87.141c-5.577-5.577-6.262-13.24 0-16.731l145.7-86.444c13.943-8.365 26.491-7.668 41.131 0l138.031 80.17c16.731 9.063 11.851 18.822-2.789 28.582L201.71 366.675z"/></g></g><g filter="url(#A)" class="B"><path d="M343.924 259.318c9.464 9.142 7.182 14.696-5.577 25.097v20.216l11.154-6.274c3.088-2.771 3.595-4.675 3.485-8.365v-15.337c-.098-9.131-2.634-11.986-9.062-15.337z"/></g><g filter="url(#B)" class="B"><path d="M51.131 300.448v20.217l-36.948-22.308C10.697 295.568 10 292.78 10 287.9v-17.428c1.394 3.486 3.486 7.668 5.577 8.365l35.554 21.611z"/></g><g filter="url(#C)" class="B"><path d="M68.559 331.122v-19.519l11.154 6.971v19.519l-11.154-6.971z"/></g><g class="E F"><path d="m51.13 320.665 108.752 65.53m0 0v-19.772m0 19.772c12.673 7.705 29.279 7.668 41.827 0m0 0 3.189-1.903m-3.189 1.903v-2.789m0-16.731v4.88m119.209-56.52 17.428-30.621v5.577m-17.428 25.044 4.88-2.913m-4.88 2.913-4.76 2.841m9.64-5.754 12.548-22.131m-12.548 22.131 4.88-2.913m7.668-19.218v4.88m0 0-7.668 14.338m7.668-14.338v4.88m-7.668 9.458 3.834-2.289m0 0 3.834-2.289v-4.88m-3.834 7.169 3.834-7.169m-22.188 18.125 16.611-29.976m-16.611 29.976-4.302 2.568m0 0 15.336-29.058m-15.336 29.058-5.577 3.33m0 0 13.942-28.206m-13.942 28.206-5.577 3.329m0 0 13.245-28.049m-13.245 28.049-4.88 2.913m0 0 11.851-27.476m-11.851 27.476-5.972 3.564m0 0 11.549-26.858M289.85 333.58l-6.392 3.816m0 0 11.667-27.188m-11.667 27.188-5.065 3.023m0 0 10.457-26.028m-10.457 26.028-4.879 2.913m0 0 9.944-26.153m-9.944 26.153-4.88 2.913m0 0 8.365-24.883m-8.365 24.883-5.029 3.002m0 0 7.817-24.399m-7.817 24.399-4.731 2.824m0 0 6.971-23.738m-6.971 23.738-4.183 2.497m0 0 5.577-22.749m-5.577 22.749-4.88 2.913m0 0 4.88-22.874m-4.88 22.874-6.059 3.617m0 0 6.059-23.702m-6.059 23.702-5.792 3.458m0 0 5.792-23.312m-5.792 23.312-5.887 3.514m0 0 5.887-23.006m-5.887 23.006-5.839 3.485m0 0c-.1-.557 4.058-15.569 6.149-23.005m-6.149 23.005-6.399 3.82m0 0 5.577-22.642m-5.577 22.642-5.279 3.152m0 0 5.976-23.006m-5.976 23.006-5.178 3.09m0 0 5.577-22.61m-5.577 22.61-4.48 2.675m0 0 5.177-22.497m-8.366 21.611 4.183-18.85m-4.183 18.85v-11.851m0 0 1.395-5.577m5.65-235.518-13.96-7.977v16.619l13.96 7.976V130.46zm-46.531 13.959v-16.618l-10.199-5.828-3.76 2.505v11.965l13.959 7.976zm-37.225 9.971-13.959-7.976v16.618l13.959 7.977V154.39z"/><g class="G"><path d="m222.713 123.148-13.959 7.312v16.618l13.959-8.641v-15.289zm-46.531-2.659-13.959 7.312v16.618l13.959-8.641v-15.289z"/><path d="m208.754 113.177-13.96 9.306 13.96 7.977 13.959-7.312-13.959-9.971zm-69.797 33.901-13.959 7.312v16.619l13.959-8.642v-15.289z"/></g><path d="m194.794 137.107 13.96 7.977m-13.96-9.971 13.96 7.312m-13.96-9.306 13.96 7.312m0-1.994-13.96-7.312m0-1.994 13.96 7.312m0-1.994-13.96-7.312m13.96 5.317-13.96-7.312"/><path d="m176.182 120.489-13.959-9.971-3.988 2.659v5.318l-5.983 3.323 9.971 5.983 13.959-7.312zm-51.184 16.618-13.959 9.307 13.959 7.976 13.959-7.312-13.959-9.971z" class="G"/><path d="m148.264 134.448 13.959 7.977m-13.959-9.971 13.959 7.312m-13.959-9.306 13.959 7.312m0-1.994-13.959-7.312m0-1.994 13.959 7.312m0-1.995-13.959-7.312m13.959 5.318-11.965-6.647"/></g><path d="M99.074 218.869v57.167l58.496 33.901c14.624 9.306 28.583 8.641 41.878 0l59.825-35.231v-55.172l-61.155 35.231c-11.3 6.647-27.918 6.647-39.219 0l-59.825-35.896z" class="G"/><g class="E F"><path d="m111.039 161.038 13.959 7.976m-13.959-9.971 13.959 7.312m-13.959-9.306 13.959 7.312m0-1.994-13.959-7.312m0-1.994 13.959 7.312m0-1.994-13.959-7.312m13.959 5.318-13.959-7.312"/><path d="M158.235 102.542v15.953l-17.283 9.971c-25.26-16.618-13.295-79.767 34.566-105.027 23.265-9.307 43.872-1.33 43.872 25.26l-15.954 9.306v17.283l-15.289 7.977V67.976l-14.624 7.312v17.283l-15.288 9.971z" fill="#150f0f"/><path d="M146.269 117.83c-13.383-12.354-13.959-38.554 8.641-67.138m19.278-16.618c19.942-7.976 31.242-3.988 35.23 13.959m-59.16-10.635-8.642-5.318m3.324 12.63-9.306-5.318m3.323 13.295-8.641-5.318m1.994 12.63-6.647-4.653m1.994 11.965-5.983-3.988m1.995 12.63-5.318-3.324m1.329 12.63-3.323-2.659m1.994 11.965-2.659-1.994"/></g><g filter="url(#D)" class="B"><path d="M118.351 115.171c1.329 4.653 15.27 11.017 22.601 13.295-6.97-5.898-8.595-9.054-10.636-14.624-6.704-3.214-10.476-5.836-17.283-12.63l5.318 13.959z"/></g><g filter="url(#E)" class="B"><path d="m145.604 23.439 14.625 9.971c1.9-1.592 2.978-2.23 4.653-3.324l-14.624-9.971c-1.901.914-2.944 1.541-4.654 3.324z"/></g><g filter="url(#F)" class="B"><path d="m156.24 16.127 14.624 9.971c14.74-6.933 22.764-8.946 35.896-3.324-23.553-18.047-33.19-13.747-50.52-6.647z"/></g><g class="E F"><path d="M156.241 16.127c-31.907 17.948-48.525 55.173-43.208 85.085m75.114-17.948-14.624-7.977M188.147 80.605l-11.965-6.647m11.965 4.653-9.971-5.318m9.971 3.324-7.976-4.653m7.976 2.659-5.982-3.324m5.982 1.329-4.653-2.659"/></g><g filter="url(#G)"><path d="M193.046 337.855h-13.494l-95.885-54.387-8.523-11.717 4.972-13.505 8.323-3.554v17.059l65.144 35.527 25.97 11.3 27.873-11.3 38.554-23.81 21.271-11.717 6.766-17.059 8.523 22.034-89.493 61.129z" fill="#222"/></g><path d="m100.403 276.7 63.15 37.225c9.306 3.989 19.277 4.653 29.912 0l72.456-43.207" class="E F"/><g filter="url(#H)" class="B"><path d="M87.773 202.916c0 9.306 3.881 11.985 13.959 17.282v57.832l-9.97-5.983c-2.659-1.994-3.988-5.317-3.988-11.965v-57.166zM107.715 281.354v-57.167l6.648 4.653v56.502l-6.648-3.988zM120.345 288.666v-56.502l2.659 1.994v56.502l-2.659-1.994zM158.899 258.088h-2.658v49.19h2.658v-49.19zM201.442 258.088h-2.659v49.19h2.659v-49.19zM269.909 204.245c0 7.312-4.615 12.376-14.624 17.283v56.502l10.636-6.647c2.659-1.995 3.988-4.653 3.988-9.971v-57.167z"/></g><path d="M254.62 221.53c15.289-6.647 21.271-19.277 6.647-26.589l-59.825-35.895c-17.283-9.309-28.623-8.834-45.866 0l-64.479 39.883c-5.317 4.653-3.323 13.295 4.653 17.948l63.149 37.889c13.294 6.648 25.924 6.648 39.219 0l56.502-33.236z" fill="#0f0e0e" class="E F"/><g filter="url(#I)"><ellipse cx="178.841" cy="214.216" rx="26.589" ry="15.954" fill="#222"/></g><path d="M163.029 195.913c4.283-2.277 6.606-2.972 10.663-3.581-2.545 3.7-2.435 7.072.727 10.624-7.355-.135-11.026-3.581-11.39-7.043zm16.963 6.088c-4.119-2.745-3.756-7.879.727-10.386 5.232.122 7.692.651 11.511 2.149-6.197 1.586-9.175 3.046-12.238 8.237zm17.206-5.611c-4.968-.238-11.632 2.985-12.117 7.283 6.45-2.111 10.185-2.532 17.206-.955-.656-2.595-2.666-4.776-5.089-6.328zm5.574 10.625c-4.726-2.745-10.344-2.789-16.358 0 7.604 1.464 9.812 3.153 12.238 6.805 2.72-2.596 3.36-4.1 4.12-6.805zm-8.482 10.028c0-4.298-5.363-6.821-11.026-6.805 3.245 3.965 3.312 6.216.485 10.267 4.526-.781 6.847-1.5 10.541-3.462zm-17.084 3.82c4.967-3.7 4.24-7.043.363-9.669-2.719 4.384-5.399 5.992-11.511 7.879 3.824 1.209 6.161 1.701 11.148 1.79zm-21.568-10.386c7.168 1.329 10.891 1.061 17.085-.955-.849 4.059-5.938 7.163-11.875 6.805-2.892-1.895-3.962-3.208-5.21-5.85zm-.727-4.059c6.834 2.492 11.632 2.03 16.479-.358-6.749-1.208-9.553-2.68-12.844-6.804-2.548 2.52-3.372 4.082-3.635 7.162z" fill="#fff"/><g class="E F"><path d="m178.841 171.673-13.959-7.976v16.618l13.959 7.977v-16.619z"/><path d="m192.801 164.361-13.96 7.312v16.619l13.96-8.642v-15.289zM178.841 154.39l-13.959 9.307 13.959 7.976 13.959-7.312-13.959-9.971zm-13.959 23.931 13.959 7.976m-13.959-9.971 13.959 7.312m-13.959-9.306 13.959 7.312m0-1.994-13.959-7.312m0-1.994 13.959 7.312m0-1.994-13.959-7.312m13.959 5.317-13.959-7.312"/></g><defs><filter id="A" x="328.347" y="249.318" width="34.653" height="65.313" filterUnits="userSpaceOnUse" class="C"><feFlood result="A" class="D"/><feColorMatrix in="SourceAlpha" values="0 0 0 0 0 0 0 0 0 0 0 0 0 0 0 0 0 0 127 0" result="B"/><feOffset/><feGaussianBlur stdDeviation="5"/><feComposite in2="B" operator="out"/><feColorMatrix values="0 0 0 0 0.966667 0 0 0 0 0.2175 0 0 0 0 0.2175 0 0 0 1 0"/><feBlend in2="A"/><feBlend in="SourceGraphic"/></filter><filter id="B" x="0" y="260.472" width="61.13" height="70.193" filterUnits="userSpaceOnUse" class="C"><feFlood result="A" class="D"/><feColorMatrix in="SourceAlpha" values="0 0 0 0 0 0 0 0 0 0 0 0 0 0 0 0 0 0 127 0" result="B"/><feOffset/><feGaussianBlur stdDeviation="5"/><feComposite in2="B" operator="out"/><feColorMatrix values="0 0 0 0 0.966667 0 0 0 0 0.2175 0 0 0 0 0.2175 0 0 0 1 0"/><feBlend in2="A"/><feBlend in="SourceGraphic"/></filter><filter id="C" x="58.559" y="301.603" width="31.154" height="46.491" filterUnits="userSpaceOnUse" class="C"><feFlood result="A" class="D"/><feColorMatrix in="SourceAlpha" values="0 0 0 0 0 0 0 0 0 0 0 0 0 0 0 0 0 0 127 0" result="B"/><feOffset/><feGaussianBlur stdDeviation="5"/><feComposite in2="B" operator="out"/><feColorMatrix values="0 0 0 0 0.966667 0 0 0 0 0.2175 0 0 0 0 0.2175 0 0 0 1 0"/><feBlend in2="A"/><feBlend in="SourceGraphic"/></filter><filter id="D" x="103.033" y="91.212" width="47.919" height="47.254" filterUnits="userSpaceOnUse" class="C"><feFlood result="A" class="D"/><feColorMatrix in="SourceAlpha" values="0 0 0 0 0 0 0 0 0 0 0 0 0 0 0 0 0 0 127 0" result="B"/><feOffset/><feGaussianBlur stdDeviation="5"/><feComposite in2="B" operator="out"/><feColorMatrix values="0 0 0 0 0.966667 0 0 0 0 0.2175 0 0 0 0 0.2175 0 0 0 1 0"/><feBlend in2="A"/><feBlend in="SourceGraphic"/></filter><filter id="E" x="135.604" y="10.115" width="39.277" height="33.295" filterUnits="userSpaceOnUse" class="C"><feFlood result="A" class="D"/><feColorMatrix in="SourceAlpha" values="0 0 0 0 0 0 0 0 0 0 0 0 0 0 0 0 0 0 127 0" result="B"/><feOffset/><feGaussianBlur stdDeviation="5"/><feComposite in2="B" operator="out"/><feColorMatrix values="0 0 0 0 0.966667 0 0 0 0 0.2175 0 0 0 0 0.2175 0 0 0 1 0"/><feBlend in2="A"/><feBlend in="SourceGraphic"/></filter><filter id="F" x="146.24" y="0" width="70.52" height="36.098" filterUnits="userSpaceOnUse" class="C"><feFlood result="A" class="D"/><feColorMatrix in="SourceAlpha" values="0 0 0 0 0 0 0 0 0 0 0 0 0 0 0 0 0 0 127 0" result="B"/><feOffset/><feGaussianBlur stdDeviation="5"/><feComposite in2="B" operator="out"/><feColorMatrix values="0 0 0 0 0.966667 0 0 0 0 0.2175 0 0 0 0 0.2175 0 0 0 1 0"/><feBlend in2="A"/><feBlend in="SourceGraphic"/></filter><filter id="G" x="65.144" y="244.692" width="227.396" height="103.164" filterUnits="userSpaceOnUse" class="C"><feFlood class="D"/><feBlend in="SourceGraphic"/><feGaussianBlur stdDeviation="5"/></filter><filter id="H" x="77.773" y="192.916" width="202.136" height="124.363" filterUnits="userSpaceOnUse" class="C"><feFlood result="A" class="D"/><feColorMatrix in="SourceAlpha" values="0 0 0 0 0 0 0 0 0 0 0 0 0 0 0 0 0 0 127 0" result="B"/><feOffset/><feGaussianBlur stdDeviation="5"/><feComposite in2="B" operator="out"/><feColorMatrix values="0 0 0 0 0.966667 0 0 0 0 0.2175 0 0 0 0 0.2175 0 0 0 1 0"/><feBlend in2="A"/><feBlend in="SourceGraphic"/></filter><filter id="I" x="148.252" y="194.262" width="61.178" height="39.907" filterUnits="userSpaceOnUse" class="C"><feFlood class="D"/><feBlend in="SourceGraphic"/><feGaussianBlur stdDeviation="2"/></filter></defs></svg>