<svg width="341" height="368" fill="none" xmlns="http://www.w3.org/2000/svg"><path d="m184.583 80.34-13.668 8.077v15.532l13.668-8.698v-14.91Z" fill="#161616" stroke="#fff" stroke-width=".5"/><path d="m170.915 88.417-8.077-4.97m8.077 20.502-13.669-8.076v-4.97" stroke="#fff" stroke-width=".5"/><path d="m178.991 77.234 5.592 3.107-13.668 8.076-8.077-4.97v-6.834l4.349-3.107 9.319 4.97 2.485-1.242Z" fill="#161616" stroke="#fff" stroke-width=".5"/><path d="m170.915 101.464-13.669-8.077m13.669 5.592-13.669-8.077m13.669 5.592L159.11 89.66m11.805 4.349-9.941-5.592m9.941 3.106-8.077-4.349m8.077 2.486-8.077-4.35" stroke="#fff" stroke-width=".5"/><path d="M188.311 149.303c-14.617-7.915-23.404-9.016-41.005 0l-59.023 34.792c-8.077 4.349-6.074 13.016 0 18.018l57.78 34.792c13.668 8.699 29.201 8.699 42.869 0l55.295-32.307c9.903-6.595 13.047-15.531 0-21.745l-55.916-33.55Z" fill="#0F0E0E" stroke="#fff" stroke-width=".5"/><path d="M189.182 343.367c-13.683 7.168-24.759 7.819-38.443 0L14.561 261.921c-5.213-5.213-5.853-12.375 0-15.638l136.178-80.795c13.032-7.819 24.76-7.167 38.443 0l129.012 74.931c15.637 8.471 11.076 17.593-2.607 26.714l-126.405 76.234Z" fill="#0F0E0E" stroke="#fff" stroke-width=".5"/><g filter="url(#a)"><path d="M322.103 243.026c8.846 8.544 6.713 13.736-5.213 23.457v18.896l10.425-5.865c2.887-2.589 3.36-4.369 3.258-7.818v-14.335c-.092-8.534-2.462-11.203-8.47-14.335Z" fill="#F73737"/></g><g filter="url(#b)"><path d="M48.443 281.468v18.896l-34.534-20.85C10.651 276.907 10 274.301 10 269.74v-16.289c1.303 3.258 3.258 7.167 5.213 7.819l33.23 20.198Z" fill="#F73737"/></g><g filter="url(#c)"><path d="M64.732 310.138v-18.244l10.425 6.516v18.244l-10.425-6.516Z" fill="#F73737"/></g><path d="m48.442 300.364 101.646 61.248m0 0v-18.481m0 18.481c11.845 7.201 27.366 7.167 39.094 0m0 0 2.98-1.779m-2.98 1.779v-2.607m0-15.637v4.561m111.419-52.828 16.289-28.619v5.213m-16.289 23.406 4.561-2.722m-4.561 2.722-4.45 2.656m9.011-5.378 11.728-20.684m-11.728 20.684 4.561-2.723m7.167-17.961v4.561m0 0-7.167 13.4m7.167-13.4v4.561m-7.167 8.839 3.584-2.139m0 0 3.583-2.139v-4.561m-3.583 6.7 3.583-6.7m-20.739 16.94 15.527-28.017m-15.527 28.017-4.02 2.401m0 0 14.334-27.16m-14.334 27.16-5.213 3.111m0 0 13.031-26.362m-13.031 26.362-5.213 3.112m0 0 12.38-26.216m-12.38 26.216-4.561 2.722m0 0 11.077-25.68m-11.077 25.68-5.581 3.332m0 0 10.794-25.103m-10.794 25.103-5.974 3.566m0 0 10.904-25.411m-10.904 25.411-4.734 2.826m0 0 9.774-24.327m-9.774 24.327-4.561 2.723m0 0 9.295-24.444m-9.295 24.444-4.561 2.722m0 0 7.819-23.257m-7.819 23.257-4.7 2.806m0 0 7.306-22.805m-7.306 22.805-4.422 2.64m0 0 6.516-22.187m-6.516 22.187-3.909 2.333m0 0 5.212-21.262m-5.212 21.262-4.561 2.723m0 0 4.561-21.379m-4.561 21.379-5.664 3.381m0 0 5.664-22.154m-5.664 22.154-5.413 3.231m0 0 5.413-21.788m-5.413 21.788-5.502 3.285m0 0 5.502-21.502m-5.502 21.502-5.458 3.258m0 0c-.093-.522 3.793-14.552 5.747-21.502m-5.747 21.502-5.981 3.57m0 0 5.213-21.163m-5.213 21.163-4.934 2.945m0 0 5.586-21.502m-5.586 21.502-4.84 2.889m0 0 5.213-21.133m-5.213 21.133-4.187 2.5m0 0 4.839-21.027m-7.819 20.199 3.91-17.619m-3.91 17.619v-11.076m0 0 1.303-5.213M195.766 122.588l-13.047-7.455v15.532l13.047 7.456v-15.533ZM152.276 135.636v-15.533l-9.533-5.447-3.514 2.341v11.183l13.047 7.456ZM117.483 144.955l-13.047-7.455v15.532l13.047 7.455v-15.532Z" stroke="#fff" stroke-width=".5"/><path d="m208.813 115.754-13.047 6.834v15.532l13.047-8.076v-14.29ZM165.323 113.269l-13.047 6.834v15.533l13.047-8.077v-14.29Z" fill="#161616" stroke="#fff" stroke-width=".5"/><path d="m195.766 106.435-13.047 8.698 13.047 7.456 13.047-6.835-13.047-9.319ZM130.531 138.121l-13.048 6.834v15.532l13.048-8.077v-14.289Z" fill="#161616" stroke="#fff" stroke-width=".5"/><path d="m182.719 128.801 13.047 7.456m-13.047-9.319 13.047 6.834m-13.047-8.698 13.047 6.834m0-1.864-13.047-6.834m0-1.864 13.047 6.834m0-1.864-13.047-6.834m13.047 4.97-13.047-6.834" stroke="#fff" stroke-width=".5"/><path d="m165.322 113.269-13.047-9.319-3.727 2.485v4.97l-5.592 3.107 9.319 5.591 13.047-6.834ZM117.483 128.801l-13.047 8.698 13.047 7.456 13.047-6.834-13.047-9.32Z" fill="#161616" stroke="#fff" stroke-width=".5"/><path d="m139.229 126.316 13.047 7.455m-13.047-9.319 13.047 6.834m-13.047-8.698 13.047 6.834m0-1.864-13.047-6.834m0-1.864 13.047 6.835m0-1.864-13.047-6.835m13.047 4.971-11.184-6.213" stroke="#fff" stroke-width=".5"/><path d="M93.253 205.22v53.431l54.674 31.686c13.668 8.698 26.715 8.077 39.141 0l55.916-32.928v-51.567l-57.159 32.928c-10.562 6.213-26.094 6.213-36.656 0l-55.916-33.55Z" fill="#161616"/><path d="m104.436 151.168 13.047 7.455m-13.047-9.319 13.047 6.834m-13.047-8.698 13.047 6.834m0-1.864-13.047-6.834m0-1.864 13.047 6.834m0-1.864-13.047-6.834m13.047 4.971-13.047-6.835" stroke="#fff" stroke-width=".5"/><path d="M148.548 96.495v14.91l-16.154 9.319c-23.609-15.532-12.425-74.554 32.308-98.163 21.745-8.699 41.005-1.243 41.005 23.609l-14.911 8.698v16.154l-14.29 7.455v-14.29l-13.668 6.835v16.153l-14.29 9.32Z" fill="#150F0F" stroke="#fff" stroke-width=".5"/><path d="M137.364 110.783c-12.508-11.546-13.047-36.035 8.077-62.75M163.459 32.5c18.639-7.455 29.2-3.728 32.928 13.047M141.092 35.608l-8.076-4.97m3.106 11.804-8.698-4.97m3.106 12.425-8.076-4.97m1.863 11.804-6.212-4.349m1.863 11.184-5.591-3.728m1.864 11.804-4.971-3.106m1.243 11.805-3.107-2.486m1.864 11.184-2.485-1.864" stroke="#fff" stroke-width=".5"/><g filter="url(#d)"><path d="M111.271 108.299c1.242 4.349 14.271 10.296 21.124 12.425-6.515-5.512-8.034-8.461-9.941-13.668-6.266-3.004-9.792-5.454-16.154-11.805l4.971 13.048Z" fill="#F73737"/></g><g filter="url(#e)"><path d="m136.743 22.56 13.669 9.32c1.776-1.488 2.784-2.084 4.349-3.107l-13.669-9.319c-1.777.854-2.751 1.44-4.349 3.107Z" fill="#F73737"/></g><g filter="url(#f)"><path d="m146.684 15.727 13.668 9.32c13.777-6.481 21.276-8.362 33.55-3.107-22.014-16.868-31.021-12.849-47.218-6.213Z" fill="#F73737"/></g><path d="M146.684 15.726C116.862 32.501 101.33 67.293 106.3 95.251M176.506 78.477l-13.668-7.456M176.506 75.991l-11.183-6.213m11.183 4.35-9.319-4.97m9.319 3.106-7.455-4.35m7.455 2.486-5.592-3.107m5.592 1.243-4.349-2.485" stroke="#fff" stroke-width=".5"/><g filter="url(#g)"><path d="M181.085 316.431h-12.613l-89.62-50.833-7.965-10.951 4.647-12.623 7.778-3.322v15.945l60.887 33.205 24.273 10.562 26.052-10.562 36.035-22.254 19.881-10.951 6.323-15.945 7.967 20.595-83.645 57.134Z" fill="#222"/></g><path d="m94.496 259.272 59.022 34.793c8.698 3.727 18.018 4.349 27.958 0l67.721-40.384" stroke="#fff" stroke-width=".5"/><g filter="url(#h)" fill="#F73737"><path d="M82.691 190.309c0 8.698 3.627 11.203 13.047 16.154v54.052l-9.319-5.592c-2.485-1.864-3.728-4.97-3.728-11.183v-53.431ZM101.33 263.621V210.19l6.213 4.349v52.81l-6.213-3.728ZM113.135 270.456v-52.81l2.485 1.864v52.81l-2.485-1.864ZM149.17 241.876h-2.486v45.976h2.486v-45.976ZM188.932 241.876h-2.485v45.976h2.485v-45.976ZM252.925 191.552c0 6.834-4.314 11.567-13.668 16.153v52.81l9.94-6.213c2.486-1.864 3.728-4.349 3.728-9.319v-53.431Z"/></g><path d="M238.635 207.708c14.289-6.213 19.881-18.018 6.213-24.852l-55.916-33.55c-16.154-8.7-26.752-8.257-42.869 0l-60.266 37.278c-4.97 4.349-3.106 12.425 4.35 16.775l59.022 35.413c12.426 6.213 24.23 6.213 36.656 0l52.81-31.064Z" fill="#0F0E0E" stroke="#fff" stroke-width=".5"/><g filter="url(#i)"><ellipse cx="167.808" cy="200.871" rx="24.852" ry="14.911" fill="#222"/></g><path d="M153.03 183.764c4.003-2.128 6.173-2.778 9.965-3.347-2.378 3.458-2.275 6.61.68 9.93-6.874-.126-10.306-3.347-10.645-6.583ZM168.884 189.454c-3.85-2.566-3.51-7.364.68-9.707 4.889.114 7.189.608 10.758 2.008-5.792 1.483-8.576 2.848-11.438 7.699ZM184.965 184.21c-4.643-.223-10.871 2.79-11.324 6.807 6.028-1.973 9.519-2.367 16.081-.893-.613-2.425-2.492-4.463-4.757-5.914ZM190.175 194.141c-4.417-2.567-9.668-2.607-15.289 0 7.107 1.368 9.171 2.947 11.438 6.36 2.542-2.426 3.14-3.833 3.851-6.36ZM182.248 203.513c0-4.016-5.013-6.375-10.306-6.36 3.033 3.706 3.096 5.809.453 9.596 4.23-.73 6.4-1.402 9.853-3.236ZM166.28 207.084c4.643-3.459 3.963-6.583.339-9.038-2.542 4.098-5.046 5.601-10.758 7.364 3.573 1.131 5.758 1.59 10.419 1.674ZM146.121 197.377c6.7 1.242 10.179.991 15.968-.893-.792 3.794-5.549 6.695-11.098 6.36-2.703-1.771-3.703-2.998-4.87-5.467ZM145.442 193.583c6.387 2.328 10.872 1.897 15.402-.335-6.309-1.129-8.929-2.505-12.005-6.36-2.382 2.356-3.151 3.816-3.397 6.695Z" fill="#fff"/><path d="m167.808 161.108-13.047-7.455v15.532l13.047 7.456v-15.533ZM180.855 154.274l-13.047 6.835v15.532l13.047-8.077v-14.29Z" stroke="#fff" stroke-width=".5"/><path d="m167.808 144.955-13.047 8.698 13.047 7.455 13.047-6.834-13.047-9.319ZM154.761 167.321l13.047 7.456m-13.047-9.319 13.047 6.834m-13.047-8.698 13.047 6.834m0-1.864-13.047-6.834m0-1.864 13.047 6.834m0-1.864-13.047-6.834m13.047 4.97-13.047-6.834" stroke="#fff" stroke-width=".5"/><defs><filter id="a" x="306.89" y="233.026" width="33.696" height="62.352" filterUnits="userSpaceOnUse" color-interpolation-filters="sRGB"><feFlood flood-opacity="0" result="BackgroundImageFix"/><feColorMatrix in="SourceAlpha" values="0 0 0 0 0 0 0 0 0 0 0 0 0 0 0 0 0 0 127 0" result="hardAlpha"/><feOffset/><feGaussianBlur stdDeviation="5"/><feComposite in2="hardAlpha" operator="out"/><feColorMatrix values="0 0 0 0 0.966667 0 0 0 0 0.2175 0 0 0 0 0.2175 0 0 0 1 0"/><feBlend in2="BackgroundImageFix" result="effect1_dropShadow_278_4088"/><feBlend in="SourceGraphic" in2="effect1_dropShadow_278_4088" result="shape"/></filter><filter id="b" x="0" y="243.451" width="58.443" height="66.913" filterUnits="userSpaceOnUse" color-interpolation-filters="sRGB"><feFlood flood-opacity="0" result="BackgroundImageFix"/><feColorMatrix in="SourceAlpha" values="0 0 0 0 0 0 0 0 0 0 0 0 0 0 0 0 0 0 127 0" result="hardAlpha"/><feOffset/><feGaussianBlur stdDeviation="5"/><feComposite in2="hardAlpha" operator="out"/><feColorMatrix values="0 0 0 0 0.966667 0 0 0 0 0.2175 0 0 0 0 0.2175 0 0 0 1 0"/><feBlend in2="BackgroundImageFix" result="effect1_dropShadow_278_4088"/><feBlend in="SourceGraphic" in2="effect1_dropShadow_278_4088" result="shape"/></filter><filter id="c" x="54.732" y="281.894" width="30.425" height="44.76" filterUnits="userSpaceOnUse" color-interpolation-filters="sRGB"><feFlood flood-opacity="0" result="BackgroundImageFix"/><feColorMatrix in="SourceAlpha" values="0 0 0 0 0 0 0 0 0 0 0 0 0 0 0 0 0 0 127 0" result="hardAlpha"/><feOffset/><feGaussianBlur stdDeviation="5"/><feComposite in2="hardAlpha" operator="out"/><feColorMatrix values="0 0 0 0 0.966667 0 0 0 0 0.2175 0 0 0 0 0.2175 0 0 0 1 0"/><feBlend in2="BackgroundImageFix" result="effect1_dropShadow_278_4088"/><feBlend in="SourceGraphic" in2="effect1_dropShadow_278_4088" result="shape"/></filter><filter id="d" x="96.3" y="85.251" width="46.094" height="45.473" filterUnits="userSpaceOnUse" color-interpolation-filters="sRGB"><feFlood flood-opacity="0" result="BackgroundImageFix"/><feColorMatrix in="SourceAlpha" values="0 0 0 0 0 0 0 0 0 0 0 0 0 0 0 0 0 0 127 0" result="hardAlpha"/><feOffset/><feGaussianBlur stdDeviation="5"/><feComposite in2="hardAlpha" operator="out"/><feColorMatrix values="0 0 0 0 0.966667 0 0 0 0 0.2175 0 0 0 0 0.2175 0 0 0 1 0"/><feBlend in2="BackgroundImageFix" result="effect1_dropShadow_278_4088"/><feBlend in="SourceGraphic" in2="effect1_dropShadow_278_4088" result="shape"/></filter><filter id="e" x="126.743" y="9.454" width="38.018" height="32.426" filterUnits="userSpaceOnUse" color-interpolation-filters="sRGB"><feFlood flood-opacity="0" result="BackgroundImageFix"/><feColorMatrix in="SourceAlpha" values="0 0 0 0 0 0 0 0 0 0 0 0 0 0 0 0 0 0 127 0" result="hardAlpha"/><feOffset/><feGaussianBlur stdDeviation="5"/><feComposite in2="hardAlpha" operator="out"/><feColorMatrix values="0 0 0 0 0.966667 0 0 0 0 0.2175 0 0 0 0 0.2175 0 0 0 1 0"/><feBlend in2="BackgroundImageFix" result="effect1_dropShadow_278_4088"/><feBlend in="SourceGraphic" in2="effect1_dropShadow_278_4088" result="shape"/></filter><filter id="f" x="136.684" y="0" width="67.218" height="35.046" filterUnits="userSpaceOnUse" color-interpolation-filters="sRGB"><feFlood flood-opacity="0" result="BackgroundImageFix"/><feColorMatrix in="SourceAlpha" values="0 0 0 0 0 0 0 0 0 0 0 0 0 0 0 0 0 0 127 0" result="hardAlpha"/><feOffset/><feGaussianBlur stdDeviation="5"/><feComposite in2="hardAlpha" operator="out"/><feColorMatrix values="0 0 0 0 0.966667 0 0 0 0 0.2175 0 0 0 0 0.2175 0 0 0 1 0"/><feBlend in2="BackgroundImageFix" result="effect1_dropShadow_278_4088"/><feBlend in="SourceGraphic" in2="effect1_dropShadow_278_4088" result="shape"/></filter><filter id="g" x="60.887" y="228.702" width="213.843" height="97.729" filterUnits="userSpaceOnUse" color-interpolation-filters="sRGB"><feFlood flood-opacity="0" result="BackgroundImageFix"/><feBlend in="SourceGraphic" in2="BackgroundImageFix" result="shape"/><feGaussianBlur stdDeviation="5" result="effect1_foregroundBlur_278_4088"/></filter><filter id="h" x="72.691" y="180.309" width="190.234" height="117.542" filterUnits="userSpaceOnUse" color-interpolation-filters="sRGB"><feFlood flood-opacity="0" result="BackgroundImageFix"/><feColorMatrix in="SourceAlpha" values="0 0 0 0 0 0 0 0 0 0 0 0 0 0 0 0 0 0 127 0" result="hardAlpha"/><feOffset/><feGaussianBlur stdDeviation="5"/><feComposite in2="hardAlpha" operator="out"/><feColorMatrix values="0 0 0 0 0.966667 0 0 0 0 0.2175 0 0 0 0 0.2175 0 0 0 1 0"/><feBlend in2="BackgroundImageFix" result="effect1_dropShadow_278_4088"/><feBlend in="SourceGraphic" in2="effect1_dropShadow_278_4088" result="shape"/></filter><filter id="i" x="138.956" y="181.96" width="57.703" height="37.822" filterUnits="userSpaceOnUse" color-interpolation-filters="sRGB"><feFlood flood-opacity="0" result="BackgroundImageFix"/><feBlend in="SourceGraphic" in2="BackgroundImageFix" result="shape"/><feGaussianBlur stdDeviation="2" result="effect1_foregroundBlur_278_4088"/></filter></defs></svg>