<svg width="199" height="210" fill="none" xmlns="http://www.w3.org/2000/svg"><path d="m107.478 49.275-7.631 4.51v8.672l7.631-4.857v-8.325Z" fill="#161616" stroke="#fff" stroke-width=".5"/><path d="m99.847 53.785-4.51-2.775m4.51 11.447-7.632-4.51v-2.775" stroke="#fff" stroke-width=".5"/><path d="m104.357 47.54 3.122 1.735-7.631 4.51-4.51-2.776v-3.816l2.428-1.734 5.204 2.775 1.387-.694Z" fill="#161616" stroke="#fff" stroke-width=".5"/><path d="m99.847 61.07-7.632-4.51m7.632 3.122-7.632-4.51m7.632 3.122-6.591-3.816m6.59 2.428-5.55-3.122m5.55 1.735-4.51-2.428m4.51 1.387-4.51-2.428" stroke="#fff" stroke-width=".5"/><path d="M109.561 87.78c-8.161-4.42-13.068-5.034-22.895 0L53.71 107.206c-4.51 2.428-3.391 7.268 0 10.06l32.262 19.427c7.631 4.857 16.304 4.857 23.936 0l30.874-18.039c5.529-3.682 7.284-8.672 0-12.142L109.561 87.78Z" fill="#0F0E0E" stroke="#fff" stroke-width=".5"/><path d="M110.047 196.136c-7.64 4.002-13.825 4.366-21.465 0L12.546 150.66c-2.91-2.91-3.268-6.909 0-8.731l76.036-45.112c7.276-4.366 13.825-4.002 21.465 0l72.033 41.838c8.732 4.729 6.185 9.823-1.455 14.916l-70.578 42.565Z" fill="#0F0E0E" stroke="#fff" stroke-width=".5"/><g filter="url(#a)"><path d="M184.263 140.111c4.939 4.77 3.748 7.669-2.91 13.097v10.55l5.82-3.274c1.612-1.446 1.877-2.44 1.819-4.366v-8.003c-.051-4.766-1.374-6.256-4.729-8.004Z" fill="#F73737"/></g><g filter="url(#b)"><path d="M31.465 161.575v10.55l-19.282-11.642c-1.82-1.455-2.183-2.91-2.183-5.457v-9.095c.728 1.819 1.819 4.002 2.91 4.366l18.555 11.278Z" fill="#F73737"/></g><g filter="url(#c)"><path d="M40.56 177.583v-10.187l5.82 3.638v10.187l-5.82-3.638Z" fill="#F73737"/></g><path d="m31.464 172.125 56.754 34.198m0 0v-10.318m0 10.318c6.614 4.021 15.28 4.002 21.828 0m0 0 1.664-.993m-1.664.993v-1.455m0-8.731v2.546m62.211-29.496 9.095-15.98v2.911m-9.095 13.069 2.547-1.52m-2.547 1.52-2.484 1.483m5.031-3.003 6.548-11.549m-6.548 11.549 2.546-1.52m4.002-10.029v2.546m0 0-4.002 7.483m4.002-7.483v2.547m-4.002 4.936 2.001-1.195m0 0 2.001-1.194v-2.547m-2.001 3.741 2.001-3.741m-11.579 9.459 8.669-15.644m-8.669 15.644-2.245 1.34m0 0 8.003-15.165m-8.003 15.165-2.911 1.738m0 0 7.276-14.72m-7.276 14.72-2.91 1.737m0 0 6.912-14.638m-6.912 14.638-2.547 1.52m0 0 6.185-14.339m-6.185 14.339-3.116 1.86m0 0 6.027-14.016m-6.027 14.016-3.336 1.992m0 0 6.088-14.189m-6.088 14.189-2.643 1.577m0 0 5.457-13.583m-5.457 13.583-2.547 1.521m0 0 5.19-13.649m-5.19 13.649-2.546 1.52m0 0 4.365-12.986m-4.365 12.986-2.625 1.566m0 0 4.08-12.733m-4.08 12.733-2.469 1.474m0 0 3.638-12.388m-3.638 12.388-2.182 1.303m0 0 2.91-11.872m-2.91 11.872-2.547 1.52m0 0 2.547-11.937m-2.547 11.937-3.162 1.888m0 0 3.162-12.369m-3.162 12.369-3.023 1.804m0 0 3.023-12.165m-3.023 12.165-3.072 1.834m0 0 3.072-12.006m-3.072 12.006-3.047 1.819m0 0c-.053-.291 2.117-8.125 3.209-12.005m-3.209 12.005-3.34 1.994m0 0 2.911-11.817m-2.911 11.817-2.755 1.644m0 0 3.119-12.005m-3.119 12.005-2.702 1.613m0 0 2.911-11.799m-2.911 11.799-2.338 1.396m0 0 2.702-11.74m-4.366 11.278 2.183-9.838m-2.183 9.838v-6.185m0 0 .728-2.91M113.722 72.864l-7.284-4.163v8.673l7.284 4.163v-8.673ZM89.44 80.149v-8.673l-5.322-3.041-1.963 1.307v6.244l7.285 4.163ZM70.013 85.353l-7.285-4.163v8.672l7.285 4.163v-8.672Z" stroke="#fff" stroke-width=".5"/><path d="m121.008 69.048-7.285 3.816v8.672l7.285-4.51v-7.978ZM96.724 67.66l-7.285 3.817v8.672l7.285-4.51v-7.978ZM113.722 63.845l-7.284 4.856 7.284 4.163 7.285-3.816-7.285-5.203ZM77.299 81.536l-7.285 3.816v8.673l7.285-4.51v-7.979Z" fill="#161616" stroke="#fff" stroke-width=".5"/><path d="m106.438 76.333 7.284 4.163m-7.284-5.204 7.284 3.816m-7.284-4.857 7.284 3.816m0-1.04-7.284-3.816m0-1.041 7.284 3.816m0-1.04-7.284-3.817m7.284 2.775-7.284-3.815" stroke="#fff" stroke-width=".5"/><path d="m96.725 67.66-7.285-5.203-2.082 1.387v2.776l-3.122 1.734 5.204 3.122 7.285-3.816ZM70.013 76.333l-7.285 4.857 7.285 4.162 7.285-3.816-7.285-5.203Z" fill="#161616" stroke="#fff" stroke-width=".5"/><path d="m82.155 74.945 7.285 4.163m-7.285-5.203 7.285 3.816m-7.285-4.857 7.285 3.816m0-1.04-7.285-3.817m0-1.04 7.285 3.816m0-1.041-7.285-3.816m7.285 2.775-6.244-3.469" stroke="#fff" stroke-width=".5"/><path d="M56.484 119.002v29.833l30.527 17.692c7.632 4.856 14.917 4.51 21.855 0l31.221-18.386v-28.792l-31.915 18.385c-5.897 3.469-14.57 3.469-20.467 0l-31.22-18.732Z" fill="#161616"/><path d="m62.728 88.821 7.285 4.163m-7.285-5.203 7.285 3.816m-7.285-4.857 7.285 3.816m0-1.04-7.285-3.817m0-1.04 7.285 3.815m0-1.04-7.285-3.816m7.285 2.775-7.285-3.816" stroke="#fff" stroke-width=".5"/><path d="M87.359 58.294v8.326l-9.02 5.203c-13.182-8.672-6.937-41.627 18.04-54.81 12.141-4.857 22.895-.694 22.895 13.182l-8.326 4.857v9.02l-7.978 4.162v-7.978l-7.632 3.816v9.019l-7.979 5.203Z" fill="#150F0F" stroke="#fff" stroke-width=".5"/><path d="M81.114 66.273c-6.984-6.447-7.285-20.12 4.51-35.037m10.06-8.673c10.407-4.162 16.304-2.08 18.386 7.285M83.195 24.298l-4.51-2.775m1.735 6.591-4.857-2.775m1.735 6.938-4.51-2.775m1.04 6.59-3.468-2.428m1.04 6.245-3.122-2.082m1.041 6.591-2.775-1.734m.694 6.59-1.735-1.387m1.04 6.245-1.387-1.041" stroke="#fff" stroke-width=".5"/><g filter="url(#d)"><path d="M66.545 64.885c.694 2.428 7.968 5.75 11.794 6.938-3.637-3.078-4.485-4.724-5.55-7.632-3.499-1.677-5.467-3.045-9.02-6.59l2.776 7.284Z" fill="#F73737"/></g><g filter="url(#e)"><path d="m80.768 17.013 7.631 5.204c.992-.83 1.555-1.164 2.429-1.735l-7.632-5.203c-.992.477-1.536.804-2.428 1.734Z" fill="#F73737"/></g><g filter="url(#f)"><path d="M86.317 13.198 93.95 18.4c7.692-3.618 11.88-4.668 18.733-1.734-12.292-9.419-17.32-7.174-26.365-3.47Z" fill="#F73737"/></g><path d="M86.318 13.197C69.668 22.563 60.995 41.99 63.77 57.6M102.97 48.234l-7.632-4.163M102.969 46.846l-6.244-3.468m6.244 2.428-5.204-2.775m5.204 1.734-4.163-2.428m4.163 1.387-3.122-1.734m3.122.694-2.428-1.388" stroke="#fff" stroke-width=".5"/><g filter="url(#g)"><path d="M105.526 181.096h-7.043l-50.039-28.382-4.448-6.115 2.595-7.048 4.343-1.855v8.903l33.996 18.54 13.553 5.898 14.546-5.898 20.12-12.425 11.101-6.115 3.531-8.903 4.448 11.499-46.703 31.901Z" fill="#222"/></g><path d="m57.178 149.182 32.955 19.426c4.857 2.081 10.06 2.428 15.611 0l37.812-22.548" stroke="#fff" stroke-width=".5"/><g filter="url(#h)" fill="#F73737"><path d="M50.588 110.676c0 4.857 2.025 6.255 7.285 9.019v30.181l-5.204-3.122c-1.387-1.041-2.081-2.776-2.081-6.245v-29.833ZM60.995 151.61v-29.833l3.469 2.428v29.487l-3.47-2.082ZM67.586 155.426V125.94l1.388 1.04v29.487l-1.388-1.041ZM87.706 139.469h-1.388v25.67h1.388v-25.67ZM109.908 139.469h-1.388v25.67h1.388v-25.67ZM145.638 111.37c0 3.816-2.408 6.458-7.631 9.019v29.487l5.55-3.469c1.388-1.041 2.081-2.429 2.081-5.204V111.37Z"/></g><path d="M137.658 120.39c7.979-3.469 11.101-10.06 3.469-13.876l-31.22-18.732c-9.02-4.858-14.938-4.61-23.936 0l-33.65 20.814c-2.775 2.428-1.734 6.938 2.428 9.366l32.956 19.773c6.938 3.469 13.529 3.469 20.467 0l29.486-17.345Z" fill="#0F0E0E" stroke="#fff" stroke-width=".5"/><g filter="url(#i)"><ellipse cx="98.112" cy="116.573" rx="13.876" ry="8.326" fill="#222"/></g><path d="M89.86 107.022c2.236-1.188 3.448-1.551 5.565-1.869-1.328 1.931-1.27 3.69.38 5.544-3.839-.07-5.755-1.869-5.944-3.675ZM98.713 110.199c-2.15-1.433-1.96-4.112.38-5.42 2.73.064 4.013.339 6.007 1.121-3.235.828-4.789 1.59-6.387 4.299ZM107.692 107.271c-2.592-.125-6.07 1.557-6.323 3.8 3.366-1.101 5.315-1.321 8.979-.498-.343-1.354-1.391-2.492-2.656-3.302ZM110.601 112.816c-2.466-1.433-5.398-1.456-8.537 0 3.968.763 5.121 1.645 6.387 3.551 1.419-1.355 1.753-2.14 2.15-3.551ZM106.175 118.049c0-2.243-2.799-3.56-5.755-3.551 1.694 2.069 1.729 3.243.253 5.357 2.362-.407 3.574-.782 5.502-1.806ZM97.259 120.042c2.592-1.931 2.213-3.675.19-5.046-1.42 2.288-2.818 3.127-6.008 4.112 1.996.631 3.216.888 5.818.934ZM86.003 114.622c3.74.694 5.684.554 8.916-.498-.442 2.118-3.098 3.738-6.197 3.551-1.509-.989-2.067-1.674-2.719-3.053ZM85.624 112.504c3.567 1.3 6.07 1.059 8.6-.187-3.523-.63-4.986-1.399-6.703-3.551-1.33 1.315-1.76 2.131-1.897 3.738Z" fill="#fff"/><path d="m98.112 94.372-7.285-4.163v8.672l7.285 4.163v-8.672ZM105.398 90.556l-7.285 3.816v8.672l7.285-4.51v-7.978Z" stroke="#fff" stroke-width=".5"/><path d="m98.112 85.352-7.285 4.857 7.285 4.163 7.285-3.816-7.285-5.204ZM90.827 97.84l7.285 4.163M90.827 96.8l7.285 3.816m-7.285-4.857 7.285 3.816m0-1.04-7.285-3.816m0-1.041 7.285 3.816m0-1.041-7.285-3.816m7.285 2.775-7.285-3.816" stroke="#fff" stroke-width=".5"/><defs><filter id="a" x="171.353" y="130.111" width="27.646" height="43.648" filterUnits="userSpaceOnUse" color-interpolation-filters="sRGB"><feFlood flood-opacity="0" result="BackgroundImageFix"/><feColorMatrix in="SourceAlpha" values="0 0 0 0 0 0 0 0 0 0 0 0 0 0 0 0 0 0 127 0" result="hardAlpha"/><feOffset/><feGaussianBlur stdDeviation="5"/><feComposite in2="hardAlpha" operator="out"/><feColorMatrix values="0 0 0 0 0.966667 0 0 0 0 0.2175 0 0 0 0 0.2175 0 0 0 1 0"/><feBlend in2="BackgroundImageFix" result="effect1_dropShadow_283_14632"/><feBlend in="SourceGraphic" in2="effect1_dropShadow_283_14632" result="shape"/></filter><filter id="b" x="0" y="135.931" width="41.465" height="46.194" filterUnits="userSpaceOnUse" color-interpolation-filters="sRGB"><feFlood flood-opacity="0" result="BackgroundImageFix"/><feColorMatrix in="SourceAlpha" values="0 0 0 0 0 0 0 0 0 0 0 0 0 0 0 0 0 0 127 0" result="hardAlpha"/><feOffset/><feGaussianBlur stdDeviation="5"/><feComposite in2="hardAlpha" operator="out"/><feColorMatrix values="0 0 0 0 0.966667 0 0 0 0 0.2175 0 0 0 0 0.2175 0 0 0 1 0"/><feBlend in2="BackgroundImageFix" result="effect1_dropShadow_283_14632"/><feBlend in="SourceGraphic" in2="effect1_dropShadow_283_14632" result="shape"/></filter><filter id="c" x="30.56" y="157.396" width="25.821" height="33.825" filterUnits="userSpaceOnUse" color-interpolation-filters="sRGB"><feFlood flood-opacity="0" result="BackgroundImageFix"/><feColorMatrix in="SourceAlpha" values="0 0 0 0 0 0 0 0 0 0 0 0 0 0 0 0 0 0 127 0" result="hardAlpha"/><feOffset/><feGaussianBlur stdDeviation="5"/><feComposite in2="hardAlpha" operator="out"/><feColorMatrix values="0 0 0 0 0.966667 0 0 0 0 0.2175 0 0 0 0 0.2175 0 0 0 1 0"/><feBlend in2="BackgroundImageFix" result="effect1_dropShadow_283_14632"/><feBlend in="SourceGraphic" in2="effect1_dropShadow_283_14632" result="shape"/></filter><filter id="d" x="53.77" y="47.6" width="34.569" height="34.223" filterUnits="userSpaceOnUse" color-interpolation-filters="sRGB"><feFlood flood-opacity="0" result="BackgroundImageFix"/><feColorMatrix in="SourceAlpha" values="0 0 0 0 0 0 0 0 0 0 0 0 0 0 0 0 0 0 127 0" result="hardAlpha"/><feOffset/><feGaussianBlur stdDeviation="5"/><feComposite in2="hardAlpha" operator="out"/><feColorMatrix values="0 0 0 0 0.966667 0 0 0 0 0.2175 0 0 0 0 0.2175 0 0 0 1 0"/><feBlend in2="BackgroundImageFix" result="effect1_dropShadow_283_14632"/><feBlend in="SourceGraphic" in2="effect1_dropShadow_283_14632" result="shape"/></filter><filter id="e" x="70.768" y="5.279" width="30.061" height="26.938" filterUnits="userSpaceOnUse" color-interpolation-filters="sRGB"><feFlood flood-opacity="0" result="BackgroundImageFix"/><feColorMatrix in="SourceAlpha" values="0 0 0 0 0 0 0 0 0 0 0 0 0 0 0 0 0 0 127 0" result="hardAlpha"/><feOffset/><feGaussianBlur stdDeviation="5"/><feComposite in2="hardAlpha" operator="out"/><feColorMatrix values="0 0 0 0 0.966667 0 0 0 0 0.2175 0 0 0 0 0.2175 0 0 0 1 0"/><feBlend in2="BackgroundImageFix" result="effect1_dropShadow_283_14632"/><feBlend in="SourceGraphic" in2="effect1_dropShadow_283_14632" result="shape"/></filter><filter id="f" x="76.317" y="0" width="46.364" height="28.401" filterUnits="userSpaceOnUse" color-interpolation-filters="sRGB"><feFlood flood-opacity="0" result="BackgroundImageFix"/><feColorMatrix in="SourceAlpha" values="0 0 0 0 0 0 0 0 0 0 0 0 0 0 0 0 0 0 127 0" result="hardAlpha"/><feOffset/><feGaussianBlur stdDeviation="5"/><feComposite in2="hardAlpha" operator="out"/><feColorMatrix values="0 0 0 0 0.966667 0 0 0 0 0.2175 0 0 0 0 0.2175 0 0 0 1 0"/><feBlend in2="BackgroundImageFix" result="effect1_dropShadow_283_14632"/><feBlend in="SourceGraphic" in2="effect1_dropShadow_283_14632" result="shape"/></filter><filter id="g" x="33.996" y="127.696" width="128.232" height="63.4" filterUnits="userSpaceOnUse" color-interpolation-filters="sRGB"><feFlood flood-opacity="0" result="BackgroundImageFix"/><feBlend in="SourceGraphic" in2="BackgroundImageFix" result="shape"/><feGaussianBlur stdDeviation="5" result="effect1_foregroundBlur_283_14632"/></filter><filter id="h" x="40.588" y="100.676" width="115.051" height="74.463" filterUnits="userSpaceOnUse" color-interpolation-filters="sRGB"><feFlood flood-opacity="0" result="BackgroundImageFix"/><feColorMatrix in="SourceAlpha" values="0 0 0 0 0 0 0 0 0 0 0 0 0 0 0 0 0 0 127 0" result="hardAlpha"/><feOffset/><feGaussianBlur stdDeviation="5"/><feComposite in2="hardAlpha" operator="out"/><feColorMatrix values="0 0 0 0 0.966667 0 0 0 0 0.2175 0 0 0 0 0.2175 0 0 0 1 0"/><feBlend in2="BackgroundImageFix" result="effect1_dropShadow_283_14632"/><feBlend in="SourceGraphic" in2="effect1_dropShadow_283_14632" result="shape"/></filter><filter id="i" x="80.236" y="104.248" width="35.752" height="24.651" filterUnits="userSpaceOnUse" color-interpolation-filters="sRGB"><feFlood flood-opacity="0" result="BackgroundImageFix"/><feBlend in="SourceGraphic" in2="BackgroundImageFix" result="shape"/><feGaussianBlur stdDeviation="2" result="effect1_foregroundBlur_283_14632"/></filter></defs></svg>