<svg width="3037" height="2825" fill="none" xmlns="http://www.w3.org/2000/svg"><g opacity=".4" stroke="#F73737" stroke-width=".7"><path d="M747.333 2366.38c11.106-92.83 45.036-291.4 91.909-343.01 58.592-64.5 182.008-142.28 215.508-244.14 33.49-101.87 108.99-246.18 218.14-247.57 109.15-1.39 255.82-56.76 279.29-229.12 23.46-172.37 14.66-492.799-126.85-600.595-141.51-107.796-148.61-280.436-148.42-296.564"/><path d="M720.543 407.021c76.293 54.046 234.628 178.593 257.622 244.406 28.745 82.268 38.215 227.839 111.775 305.869 73.55 78.034 164.37 213.224 113.52 309.824-50.85 96.59-72.16 251.91 68.14 354.76s426.11 247.97 588.36 175.02c162.25-72.95 317.36 3.17 331.45 11.03"/><path d="M747.019 2294.58c18.199-91.71 67.272-287.09 117.968-334.95 63.371-59.82 192.393-127.89 233.613-226.88 41.21-99 127.56-237.09 236.5-230.1 108.93 7 259.42-36.94 296.05-207 36.63-170.06 52.45-490.219-80.37-608.559-132.82-118.341-126.64-291.016-125.22-307.082"/><path d="M746.596 2220.71c25.38-89.99 89.718-280.89 144.033-324.59 67.894-54.63 201.891-112.31 250.781-207.74 48.9-95.44 145.88-226.28 253.93-210.72 108.04 15.57 261.53-16.35 311.46-182.99 49.94-166.64 90.97-484.55-32.09-613.003-123.07-128.453-103.28-300.103-100.59-316.005"/><path d="M746.056 2144.77c32.592-87.63 112.196-272.69 169.876-311.84 72.099-48.95 210.328-95.57 266.798-186.73 56.48-91.15 163.75-213.7 270.17-189.43 106.43 24.28 262 4.9 325.28-157.14 63.28-162.04 129.96-475.577 17.71-613.585-112.24-138.008-78.61-307.489-74.64-323.121"/><path d="M745.396 2066.75c39.772-84.62 134.503-262.4 195.241-296.62 75.923-42.78 217.553-77.73 281.413-163.87 63.87-86.14 180.97-199.34 285-166.29 104.04 33.05 260.68 26.69 337.23-129.52 76.55-156.21 169.09-463.114 68.72-609.985-100.37-146.872-52.74-312.965-47.48-328.212"/><path d="M744.613 1986.63c46.853-80.91 156.418-249.96 219.857-278.87 79.3-36.13 223.4-58.86 294.38-139.24 70.99-80.37 197.33-183.15 298.16-141.34 100.83 41.81 257.45 48.85 347.06-100.26 89.6-149.1 208.01-446.977 120.55-601.882-87.46-154.906-25.83-316.325-19.28-331.068"/><path d="M743.705 1904.4c53.757-76.5 177.701-235.3 243.426-258.55 82.159-29.05 227.689-39.08 305.439-112.93 77.75-73.85 212.61-165.18 309.39-114.7 96.79 50.48 252.19 71.2 354.5-69.49 102.32-140.68 246.35-427.05 172.79-589.018-73.57-161.967 1.96-317.371 9.77-331.485"/><path d="M742.672 1820.05c60.402-71.37 198.091-218.42 265.638-235.68 84.43-21.56 230.28-18.5 314.34-85.08 84.06-66.57 226.56-145.44 318.43-86.48 91.87 58.96 244.78 93.54 359.3-37.41 114.53-130.94 283.67-403.231 224.93-571.145-58.74-167.913 30.42-315.916 39.46-329.272"/><path d="M741.516 1733.55c66.702-65.52 217.317-199.3 286.164-210.28 86.06-13.72 231 2.73 320.83-55.84 89.82-58.58 238.96-124.02 325.02-56.87 86.07 67.15 235.16 115.62 361.22-4.24 126.07-119.87 319.51-375.48 276.44-548.077-43.07-172.599 59.32-311.785 69.55-324.254"/><path d="M740.242 1644.89c72.566-58.96 235.091-177.99 304.668-182.44 86.96-5.57 229.72 24.43 324.65-25.44 94.93-49.87 249.57-101 328.94-26.06 79.36 74.94 223.24 137.22 360.02 29.74 136.77-107.49 353.38-343.78 326.73-519.662-26.65-175.883 88.37-304.828 99.73-316.28"/><path d="M738.857 1554.05c77.899-51.7 251.117-154.55 320.793-152.29 87.1 2.82 226.31 46.41 325.6 5.9 99.29-40.51 258.12-76.53 329.92 5.69 71.79 82.23 209.01 158.06 355.49 64.22 146.48-93.83 384.81-308.19 375.19-485.826-9.61-177.631 117.27-294.917 129.68-305.224"/><path d="M737.368 1461.03c82.605-43.8 265.092-129.12 334.212-120.02 86.4 11.37 220.66 68.44 323.44 37.89 102.79-30.56 264.4-50.79 327.76 38.1 63.36 88.88 192.46 177.84 347.46 98.86 154.99-78.98 413.24-268.87 421.14-446.59 7.9-177.711 145.7-281.954 159.06-290.991"/><path d="M735.787 1365.79c86.588-35.28 276.723-101.83 344.583-85.83 84.82 19.99 212.66 90.26 318 70.19 105.33-20.07 268.16-23.96 322.27 70.84 54.11 94.8 173.61 196.28 335.76 133.27 162.15-63 438.17-225.99 463.89-402.01 25.71-176.021 173.29-265.892 187.49-273.54"/><path d="M734.127 1268.32c89.75-26.2 285.713-72.89 351.573-50.01 82.32 28.59 202.27 111.61 309.11 102.45 106.84-9.15 269.21 3.69 313.3 103.54 44.1 99.86 152.56 213.06 320.32 167.03 167.75-46.03 459.04-179.83 502.69-352.28 43.64-172.45 199.66-246.704 214.57-252.856"/><path d="M732.404 1168.61c92.002-16.65 291.776-42.54 354.876-12.9 78.87 37.06 189.47 132.19 296.68 134.28 107.21 2.1 267.33 31.88 300.72 135.8 33.39 103.93 129.4 227.87 301.05 199.67 171.66-28.2 475.37-130.74 536.84-297.67 61.47-166.93 224.41-224.42 239.89-228.98"/><path d="M730.638 1066.65c93.255-6.72 294.652-11.11 354.222 25.12 74.46 45.28 174.24 151.69 280.62 165.24 106.37 13.54 262.39 60.27 284.48 167.17 22.08 106.9 104.28 240.4 277.97 230.72 173.69-9.68 486.62-79.16 565.59-238.56 78.97-159.4 247.12-199.14 262.99-202.01"/><path d="M728.855 962.416c93.431 3.493 294.105 21.106 349.365 63.614 69.07 53.13 156.66 169.79 260.92 194.86 104.26 25.07 254.25 88.54 264.54 197.21 10.3 108.67 77.44 250.34 251.15 259.66 173.71 9.32 492.35-25.6 588.24-175.43 95.89-149.84 267.37-171 283.46-172.13"/><path d="M727.072 855.906c92.464 13.865 289.938 53.691 340.128 102.08 62.73 60.484 136.79 186.164 237.62 222.674 100.82 36.51 242.82 116.27 240.97 225.42-1.86 109.14 49.11 257.4 220.7 285.98 171.59 28.59 492.14 29.33 604.1-108.91 111.96-138.24 284.74-140.2 300.85-139.52"/><path d="M725.321 747.114c90.295 24.259 281.979 86.219 326.359 139.986 55.47 67.209 114.8 200.48 210.84 248.18 96.03 47.71 228.07 143.06 213.85 251.29-14.22 108.22 19.61 261.3 186.86 309.16 167.24 47.86 485.64 84.94 612.55-39.71 126.92-124.65 298.8-107.01 314.73-104.51"/><path d="M723.629 636.034c86.887 34.529 270.129 118.221 307.991 176.755 47.34 73.168 90.88 212.401 180.76 270.881 89.88 58.48 210.02 168.45 183.39 274.31-26.63 105.86-10.71 261.82 149.88 328.68 160.6 66.86 472.58 140.48 613.05 31.33 140.46-109.16 309.15-71.77 324.69-67.45"/><path d="M722.026 522.669c82.221 44.515 254.339 149.189 285.054 211.773 38.39 78.231 65.25 221.617 147.62 290.268 82.38 68.66 188.74 192 149.83 293.99-38.9 101.99-41.45 258.74 110.16 344.04 151.61 85.29 452.76 195.12 605.1 103.25 152.33-91.87 315.45-34.88 330.38-28.77"/></g></svg>