<svg width="50" height="52" fill="none" xmlns="http://www.w3.org/2000/svg"><path d="M18.353 7.45C5.42 21.386 19.45 56.275 32.033 45.32c15.396-15.084-.845-52.661-13.68-37.87Z" fill="#161616" stroke="#fff" stroke-width=".5"/><path d="M19.57 13.538c-5.725 7.402 1.396 19.732 6.253 13.813 4.346-5.296-.655-19.298-6.253-13.813ZM25.037 41.625c-1.734-7.92 3.404-20.11 9.253-18.877 1.272 11.098-2.29 19.448-9.253 18.877Z" fill="#fff"/><path d="M11.563 14.624c3.613-9.232 7.351-9.833 11.94-10.533C16.66 6.26 12.82 15.064 13.27 24.984c.385 5.261 1.212 7.963 3.175 12.609 2.841 6.217 5.456 8.37 9.067 9.685-13.1-1.31-17.686-21.498-13.949-32.654Z" fill="#161616" stroke="#fff" stroke-width=".5"/></svg>