<svg width="264" height="212" viewBox="0 0 264 212" fill="none" xmlns="http://www.w3.org/2000/svg">
<path d="M145.372 194.823C135.843 199.814 128.13 200.268 118.601 194.823L23.769 138.105C20.1391 134.475 19.6932 129.488 23.7691 127.216L118.601 70.9517C127.676 65.5069 135.843 65.9606 145.372 70.9517L235.212 123.132C246.102 129.031 242.926 135.383 233.398 141.735L145.372 194.823Z" fill="#CECECE" stroke="white" stroke-width="0.5"/>
<g filter="url(#filter0_f_434_6810)">
<path d="M111.162 72.8395C114.996 70.4521 119.067 69.2011 123.411 68.7444C141.903 66.8 156.105 84.062 160.799 102.054C161.744 105.677 162.352 109.419 162.22 113.161C160.532 160.979 115.372 156.467 105.088 149.182L66.6696 114.928C62.488 111.178 62.9903 104.485 67.6848 101.401L111.162 72.8395Z" fill="#7A7A7A"/>
</g>
<g filter="url(#filter1_d_434_6810)">
<path d="M237.939 124.943C244.099 130.893 242.613 134.508 234.309 141.278V154.436L241.568 150.352C243.578 148.549 243.908 147.31 243.837 144.908V134.925C243.773 128.982 242.123 127.124 237.939 124.943Z" fill="white"/>
</g>
<g filter="url(#filter2_d_434_6810)">
<path d="M47.3625 151.718V164.877L23.3142 150.357C21.0455 148.542 20.5918 146.727 20.5918 143.551V132.207C21.4993 134.476 22.8605 137.198 24.2217 137.652L47.3625 151.718Z" fill="white"/>
</g>
<g filter="url(#filter3_d_434_6810)">
<path d="M58.707 171.681V158.976L65.9669 163.514V176.218L58.707 171.681Z" fill="white"/>
</g>
<path d="M47.3613 164.875L118.145 207.526M118.145 207.526V194.657M118.145 207.526C126.394 212.541 137.202 212.518 145.369 207.526M145.369 207.526L147.445 206.288M145.369 207.526V205.711M145.369 194.822V197.998M222.959 161.21L234.303 141.28V144.91M222.959 161.21L226.135 159.314M222.959 161.21L219.861 163.06M226.135 159.314L234.303 144.91M226.135 159.314L229.312 157.418M234.303 144.91V148.086M234.303 148.086L229.312 157.418M234.303 148.086V151.262M229.312 157.418L231.807 155.928M231.807 155.928L234.303 154.439V151.262M231.807 155.928L234.303 151.262M219.861 163.06L230.673 143.549M219.861 163.06L217.061 164.731M217.061 164.731L227.043 145.818M217.061 164.731L213.431 166.898M213.431 166.898L222.505 148.54M213.431 166.898L209.801 169.065M209.801 169.065L218.422 150.809M209.801 169.065L206.625 170.961M206.625 170.961L214.338 153.077M206.625 170.961L202.738 173.281M202.738 173.281L210.254 155.8M202.738 173.281L198.577 175.764M198.577 175.764L206.171 158.069M198.577 175.764L195.281 177.732M195.281 177.732L202.087 160.791M195.281 177.732L192.105 179.628M192.105 179.628L198.577 162.606M192.105 179.628L188.929 181.524M188.929 181.524L194.374 165.328M188.929 181.524L185.655 183.478M185.655 183.478L190.744 167.597M185.655 183.478L182.576 185.316M182.576 185.316L187.114 169.866M182.576 185.316L179.854 186.941M179.854 186.941L183.484 172.135M179.854 186.941L176.678 188.837M176.678 188.837L179.854 173.95M176.678 188.837L172.734 191.192M172.734 191.192L176.678 175.764M172.734 191.192L168.964 193.442M168.964 193.442L172.734 178.269M168.964 193.442L165.132 195.729M165.132 195.729L168.964 180.756M165.132 195.729L161.332 197.998M161.332 197.998C161.267 197.635 163.973 187.864 165.334 183.024M161.332 197.998L157.167 200.484M157.167 200.484L160.797 185.747M157.167 200.484L153.731 202.535M153.731 202.535L157.62 187.562M153.731 202.535L150.361 204.547M150.361 204.547L153.991 189.83M150.361 204.547L147.445 206.288M147.445 206.288L150.814 191.645M145.369 205.711L148.092 193.442M145.369 205.711V197.998M145.369 197.998L146.277 194.368" stroke="white" stroke-width="0.5"/>
<path d="M131.351 148.542L80.2715 87.0426L131.351 118.354V148.542Z" fill="#969696" stroke="white"/>
<path d="M131.254 118.385V122.205M131.254 118.385L146.916 129.669M131.254 118.385L134.674 116.276M134.674 144.41L131.254 148.529V141.693M134.674 144.41L131.254 141.693M134.674 144.41L136.507 142.203M131.254 141.693V137.928M131.254 137.928L136.507 142.203M131.254 137.928V134.102M136.507 142.203L138.767 139.482M138.767 139.482L131.254 134.102M138.767 139.482L140.456 137.448M131.254 134.102V129.669M131.254 129.669L140.456 137.448M131.254 129.669V126.026M140.456 137.448L142.786 134.642M131.254 126.026L142.786 134.642M131.254 126.026V122.205M142.786 134.642L144.976 132.005M131.254 122.205L144.976 132.005M144.976 132.005L146.916 129.669M146.916 129.669L149.114 127.022M149.114 127.022L134.674 116.276M149.114 127.022L151.737 123.863M134.674 116.276L138.767 113.753M151.737 123.863L138.767 113.753M151.737 123.863L154.012 121.123M138.767 113.753L142.154 111.665M142.154 111.665L154.012 121.123M142.154 111.665L145.612 109.533M154.012 121.123L156.287 118.385M145.612 109.533L156.287 118.385M145.612 109.533L148.85 107.537M156.287 118.385L158.413 115.824M148.85 107.537L158.413 115.824M148.85 107.537L152.165 105.493M158.413 115.824L160.703 113.066M152.165 105.493L160.703 113.066M152.165 105.493L155.003 103.744M160.703 113.066L162.909 110.41M155.003 103.744C155.022 103.732 160.281 108.183 162.909 110.41M155.003 103.744L158.413 101.641M162.909 110.41L165.025 107.862M158.413 101.641L165.025 107.862M158.413 101.641L161.271 99.8791M165.025 107.862L166.992 105.493M161.271 99.8791L166.992 105.493M161.271 99.8791L164.658 97.7913M166.992 105.493L169.153 102.891M164.658 97.7913L169.153 102.891M164.658 97.7913L167.848 95.8246M169.153 102.891L171.478 100.092M167.848 95.8246C168.063 96.2775 170.357 98.858 171.478 100.092M167.848 95.8246L171.008 93.8766M171.478 100.092L173.941 97.1251M171.008 93.8766L182.546 86.7632L173.941 97.1251M171.008 93.8766C171.027 93.865 172.971 96.0374 173.941 97.1251" stroke="white"/>
<path d="M131.182 2.20355L80.0898 72.9898L131.182 104.202V2.20355Z" fill="#969696" stroke="white"/>
<path d="M131.191 10.5377V2.15161L135.496 8.02822M131.191 10.5377L135.496 8.02822M131.191 10.5377V13.2322M135.496 8.02822L136.743 9.72952M131.191 13.2322L136.743 9.72952M131.191 13.2322V16.0243M136.743 9.72952L138.245 11.7806M131.191 16.0243L138.245 11.7806M131.191 16.0243V19.9334M138.245 11.7806L140.037 14.2267M131.191 19.9334L140.037 14.2267M131.191 19.9334V23.7135M140.037 14.2267L141.851 16.7026M131.191 23.7135L141.851 16.7026M131.191 23.7135V27.4507M141.851 16.7026L143.876 19.4672M131.191 27.4507L143.876 19.4672M131.191 27.4507V31.3168M143.876 19.4672L145.912 22.2467M131.191 31.3168L145.912 22.2467M131.191 31.3168V34.8392M145.912 22.2467L147.907 24.9704M131.191 34.8392L147.907 24.9704M131.191 34.8392V38.5764M147.907 24.9704L150.106 27.9716M131.191 38.5764L150.106 27.9716M131.191 38.5764V42.5713M150.106 27.9716L151.929 30.4606M131.191 42.5713L151.929 30.4606M131.191 42.5713V47.0388M151.929 30.4606L153.939 33.2047M131.191 47.0388L153.939 33.2047M131.191 47.0388V50.733M153.939 33.2047L155.951 35.9507M131.191 50.733L155.951 35.9507M131.191 50.733V55.2864M155.951 35.9507L157.874 38.5764M131.191 55.2864L157.874 38.5764M131.191 55.2864V58.6799M157.874 38.5764L159.778 41.1744M131.191 58.6799L159.778 41.1744M131.191 58.6799V62.2882M159.778 41.1744L161.418 43.4137M131.191 62.2882L161.418 43.4137M131.191 62.2882V66.7557M161.418 43.4137L163.79 46.6516M131.191 66.7557L163.79 46.6516M131.191 66.7557V70.4929M163.79 46.6516L166.018 49.6937M131.191 70.4929L166.018 49.6937M131.191 70.4929V74.2983M166.018 49.6937L167.904 52.268M131.191 74.2983L167.904 52.268M131.191 74.2983V78.5332M167.904 52.268L169.829 54.8951M131.191 78.5332L169.829 54.8951M131.191 78.5332V82.3999M169.829 54.8951L171.689 57.4344M131.191 82.3999L171.689 57.4344M131.191 82.3999V86.1745M171.689 57.4344L173.564 59.9939M131.191 86.1745L173.564 59.9939M131.191 86.1745V89.949M173.564 59.9939L175.772 63.0083M131.191 89.949L175.772 63.0083M131.191 89.949V94.0919M175.772 63.0083L177.565 65.4556M131.191 94.0919L177.565 65.4556M131.191 94.0919V98.2347M177.565 65.4556L179.513 68.1147M131.191 98.2347V104.071L182.906 72.7463L179.513 68.1147M131.191 98.2347L179.513 68.1147" stroke="white"/>
<path d="M90.4284 79.2894L80.0469 86.8103L131.213 118.379L182.592 86.5989L172.528 79.2894L131.213 104.29L90.4284 79.2894Z" fill="#969696" stroke="white"/>
<defs>
<filter id="filter0_f_434_6810" x="47.8242" y="52.5943" width="130.414" height="117.113" filterUnits="userSpaceOnUse" color-interpolation-filters="sRGB">
<feFlood flood-opacity="0" result="BackgroundImageFix"/>
<feBlend mode="normal" in="SourceGraphic" in2="BackgroundImageFix" result="shape"/>
<feGaussianBlur stdDeviation="8" result="effect1_foregroundBlur_434_6810"/>
</filter>
<filter id="filter1_d_434_6810" x="214.309" y="104.943" width="49.5371" height="69.4932" filterUnits="userSpaceOnUse" color-interpolation-filters="sRGB">
<feFlood flood-opacity="0" result="BackgroundImageFix"/>
<feColorMatrix in="SourceAlpha" type="matrix" values="0 0 0 0 0 0 0 0 0 0 0 0 0 0 0 0 0 0 127 0" result="hardAlpha"/>
<feOffset/>
<feGaussianBlur stdDeviation="10"/>
<feComposite in2="hardAlpha" operator="out"/>
<feColorMatrix type="matrix" values="0 0 0 0 1 0 0 0 0 1 0 0 0 0 1 0 0 0 1 0"/>
<feBlend mode="normal" in2="BackgroundImageFix" result="effect1_dropShadow_434_6810"/>
<feBlend mode="normal" in="SourceGraphic" in2="effect1_dropShadow_434_6810" result="shape"/>
</filter>
<filter id="filter2_d_434_6810" x="0.591797" y="112.207" width="66.7715" height="72.6694" filterUnits="userSpaceOnUse" color-interpolation-filters="sRGB">
<feFlood flood-opacity="0" result="BackgroundImageFix"/>
<feColorMatrix in="SourceAlpha" type="matrix" values="0 0 0 0 0 0 0 0 0 0 0 0 0 0 0 0 0 0 127 0" result="hardAlpha"/>
<feOffset/>
<feGaussianBlur stdDeviation="10"/>
<feComposite in2="hardAlpha" operator="out"/>
<feColorMatrix type="matrix" values="0 0 0 0 1 0 0 0 0 1 0 0 0 0 1 0 0 0 1 0"/>
<feBlend mode="normal" in2="BackgroundImageFix" result="effect1_dropShadow_434_6810"/>
<feBlend mode="normal" in="SourceGraphic" in2="effect1_dropShadow_434_6810" result="shape"/>
</filter>
<filter id="filter3_d_434_6810" x="38.707" y="138.976" width="47.2598" height="57.2422" filterUnits="userSpaceOnUse" color-interpolation-filters="sRGB">
<feFlood flood-opacity="0" result="BackgroundImageFix"/>
<feColorMatrix in="SourceAlpha" type="matrix" values="0 0 0 0 0 0 0 0 0 0 0 0 0 0 0 0 0 0 127 0" result="hardAlpha"/>
<feOffset/>
<feGaussianBlur stdDeviation="10"/>
<feComposite in2="hardAlpha" operator="out"/>
<feColorMatrix type="matrix" values="0 0 0 0 1 0 0 0 0 1 0 0 0 0 1 0 0 0 1 0"/>
<feBlend mode="normal" in2="BackgroundImageFix" result="effect1_dropShadow_434_6810"/>
<feBlend mode="normal" in="SourceGraphic" in2="effect1_dropShadow_434_6810" result="shape"/>
</filter>
</defs>
</svg>
