<svg width="287" height="206" viewBox="0 0 287 206" fill="none" xmlns="http://www.w3.org/2000/svg">
<path d="M157.821 187.589C147.328 193.085 138.834 193.585 128.34 187.589L23.9075 125.129C19.9101 121.132 19.4191 115.639 23.9076 113.137L128.34 51.1767C138.334 45.1806 147.328 45.6803 157.821 51.1767L256.758 108.64C268.75 115.136 265.252 122.131 254.759 129.127L157.821 187.589Z" fill="#CECECE" stroke="white" stroke-width="0.5"/>
<g filter="url(#filter0_d_560_584)">
<path d="M259.755 110.639C266.539 117.191 264.903 121.172 255.758 128.627V143.118L263.753 138.621C265.966 136.635 266.33 135.27 266.251 132.625V121.632C266.181 115.087 264.363 113.041 259.755 110.639Z" fill="white"/>
</g>
<g filter="url(#filter1_d_560_584)">
<path d="M49.8912 140.119V154.61L23.4082 138.62C20.9098 136.622 20.4102 134.623 20.4102 131.125V118.633C21.4095 121.132 22.9085 124.13 24.4076 124.629L49.8912 140.119Z" fill="white"/>
</g>
<g filter="url(#filter2_d_560_584)">
<path d="M62.3828 162.105V148.114L70.3777 153.111V167.102L62.3828 162.105Z" fill="white"/>
</g>
<path d="M49.8906 154.61L127.84 201.58M127.84 201.58V187.408M127.84 201.58C136.925 207.103 148.827 207.077 157.821 201.58M157.821 201.58L160.106 200.216M157.821 201.58V199.582M157.821 187.589V191.087M243.266 150.575L255.758 128.627V132.625M243.266 150.575L246.764 148.487M243.266 150.575L239.854 152.612M246.764 148.487L255.758 132.625M246.764 148.487L250.262 146.399M255.758 132.625V136.122M255.758 136.122L250.262 146.399M255.758 136.122V139.62M250.262 146.399L253.01 144.758M253.01 144.758L255.758 143.118V139.62M253.01 144.758L255.758 139.62M239.854 152.612L251.761 131.126M239.854 152.612L236.77 154.452M236.77 154.452L247.763 133.624M236.77 154.452L232.773 156.839M232.773 156.839L242.767 136.622M232.773 156.839L228.776 159.225M228.776 159.225L238.269 139.12M228.776 159.225L225.278 161.313M225.278 161.313L233.772 141.619M225.278 161.313L220.998 163.868M220.998 163.868L229.275 144.617M220.998 163.868L216.416 166.603M216.416 166.603L224.778 147.115M216.416 166.603L212.786 168.77M212.786 168.77L220.281 150.113M212.786 168.77L209.288 170.858M209.288 170.858L216.416 152.112M209.288 170.858L205.79 172.946M205.79 172.946L211.786 155.11M205.79 172.946L202.186 175.097M202.186 175.097L207.789 157.609M202.186 175.097L198.795 177.122M198.795 177.122L203.792 160.107M198.795 177.122L195.797 178.911M195.797 178.911L199.794 162.605M195.797 178.911L192.299 180.999M192.299 180.999L195.797 164.604M192.299 180.999L187.956 183.592M187.956 183.592L192.299 166.603M187.956 183.592L183.804 186.07M183.804 186.07L187.956 169.361M183.804 186.07L179.585 188.589M179.585 188.589L183.804 172.099M179.585 188.589L175.4 191.087M175.4 191.087C175.328 190.687 178.308 179.928 179.807 174.598M175.4 191.087L170.813 193.825M170.813 193.825L174.81 177.596M170.813 193.825L167.029 196.084M167.029 196.084L171.313 179.594M167.029 196.084L163.318 198.299M163.318 198.299L167.315 182.093M163.318 198.299L160.106 200.216M160.106 200.216L163.817 184.092M157.821 199.582L160.819 186.07M157.821 199.582V191.087M157.821 191.087L158.821 187.09" stroke="white" stroke-width="0.5"/>
<g filter="url(#filter3_f_560_584)">
<path d="M154.378 136.09C168.088 132.307 167.616 125.215 163.361 117.178C155.323 129.471 134.993 126.161 128.374 114.341L103.952 66.2798L52.8906 96.0656C60.9917 109.728 76.6464 112.793 112.299 126.161C135.136 136.592 143.152 137.535 154.378 136.09Z" fill="#7A7A7A"/>
</g>
<path d="M94.5461 24.1312L82.4121 32.7892L93.4897 40.0395L98.5233 30.5317L94.5461 24.1312Z" fill="#797979"/>
<path d="M122.448 17.4197L111.2 24.7525L122.448 26.3681V17.4197Z" fill="#797979"/>
<path d="M174.241 109.113L169.38 106.534L165.153 115.622L174.241 109.113Z" fill="#797979"/>
<path d="M140.554 120.652L151.797 122.216L153.614 125.301L140.554 133.247V120.652Z" fill="#797979"/>
<path d="M94.5461 24.1312L82.4121 32.7892L93.4897 40.0395L98.5233 30.5317L94.5461 24.1312Z" stroke="white" stroke-width="0.5"/>
<path d="M122.448 17.4197L111.2 24.7525L122.448 26.3681V17.4197Z" stroke="white" stroke-width="0.5"/>
<path d="M174.241 109.113L169.38 106.534L165.153 115.622L174.241 109.113Z" stroke="white" stroke-width="0.5"/>
<path d="M140.554 120.652L151.797 122.216L153.614 125.301L140.554 133.247V120.652Z" stroke="white" stroke-width="0.5"/>
<path d="M102.756 9.46445L118.265 0.506348L125.014 11.0829L137.919 3.70295L155.875 15.0688V28.1711L167.971 40.2079L175.805 35.4326L188.907 57.4145L180.957 62.3038L184.803 76.1997L196.445 83.8953V104.496L183.541 112.3L189.065 120.637L173.2 129.438L165.268 115.625L174.108 109.35L181.567 113.494V93.8405L169.53 86.3421L164.873 71.5823L173.635 66.8071L160.138 44.9831L151.85 49.2058L140.839 37.5243V24.1457L122.567 13.8454V17.4367L111.438 24.6587L102.756 9.46445Z" fill="#797979"/>
<path d="M125.014 11.0829L118.265 0.506348L102.756 9.46445L111.438 24.6587L122.567 17.4367V13.8454M125.014 11.0829L122.567 13.8454M125.014 11.0829L137.919 3.70295L155.875 15.0688M122.567 13.8454L140.839 24.1457M155.875 15.0688L140.839 24.1457M155.875 15.0688V28.1711M140.839 24.1457V37.5242M155.875 28.1711L140.839 37.5242M155.875 28.1711L167.971 40.2079M140.839 37.5242L151.85 49.2058L160.138 44.9831M160.138 44.9831L167.971 40.2079M160.138 44.9831L173.635 66.8071M167.971 40.2079L175.805 35.4326L188.907 57.4145L180.957 62.3038M173.635 66.8071L180.957 62.3038M173.635 66.8071L164.873 71.5823L169.53 86.3421M180.957 62.3038L184.803 76.1997M184.803 76.1997L169.53 86.3421M184.803 76.1997L196.445 83.8953M169.53 86.3421L181.567 93.8405M196.445 83.8953L181.567 93.8405M196.445 83.8953V104.496L183.541 112.3M181.567 93.8405V113.494M181.567 113.494L183.541 112.3M181.567 113.494L174.108 109.35L165.268 115.625L173.2 129.438L189.065 120.637L183.541 112.3" stroke="white" stroke-width="0.5"/>
<path d="M122.213 26.2573V13.6078L140.639 23.8001V37.1207L151.638 49.0285L159.812 44.6892L173.436 66.7893L164.656 71.3305L169.197 85.963L181.307 93.7333V113.412L169.197 106.348L164.858 115.632L172.931 129.356L160.721 136.622L151.638 122.09L140.336 120.475V133.292L122.172 122.09V108.568L111.273 97.5681L102.493 101.302L89.6773 79.2017L98.154 74.6606L94.0166 60.5327L81.4023 52.7623L82.0078 32.8823L93.3102 39.7444L98.154 30.4604L89.5764 16.4333L102.493 9.2688L111.165 24.7102L122.213 26.2573Z" fill="white" stroke="white" stroke-width="0.5"/>
<path d="M124.224 44.4224C123.618 66.5222 135.33 85.8977 154.498 92.3562C156.926 68.8432 137.55 47.2477 124.224 44.4224Z" fill="#666666"/>
<path d="M112.119 75.404C103.744 57.2385 108.789 41.0945 124.33 44.4242C125.059 64.4602 136.642 85.494 154.604 92.3562C153.898 99.622 149.962 102.649 143.302 102.649C133.816 102.649 120.754 94.1307 112.119 75.404Z" fill="#797979"/>
<path d="M125.115 51.4312L108.385 62.8103C109.546 70.5314 112.54 78.0649 117.788 85.5325L134.935 75.6988C129.579 67.9074 126.751 61.0085 125.115 51.4312Z" fill="#CECECE"/>
<path d="M121.78 90.5032L138.344 80.3254C140.106 82.5283 141.125 83.5127 143.214 85.1123L126.492 95.3984C124.103 93.6184 123.17 92.4911 121.78 90.5032Z" fill="#CECECE"/>
<defs>
<filter id="filter0_d_560_584" x="235.758" y="90.6389" width="50.502" height="72.479" filterUnits="userSpaceOnUse" color-interpolation-filters="sRGB">
<feFlood flood-opacity="0" result="BackgroundImageFix"/>
<feColorMatrix in="SourceAlpha" type="matrix" values="0 0 0 0 0 0 0 0 0 0 0 0 0 0 0 0 0 0 127 0" result="hardAlpha"/>
<feOffset/>
<feGaussianBlur stdDeviation="10"/>
<feComposite in2="hardAlpha" operator="out"/>
<feColorMatrix type="matrix" values="0 0 0 0 1 0 0 0 0 1 0 0 0 0 1 0 0 0 1 0"/>
<feBlend mode="normal" in2="BackgroundImageFix" result="effect1_dropShadow_560_584"/>
<feBlend mode="normal" in="SourceGraphic" in2="effect1_dropShadow_560_584" result="shape"/>
</filter>
<filter id="filter1_d_560_584" x="0.410156" y="98.6333" width="69.4805" height="75.9768" filterUnits="userSpaceOnUse" color-interpolation-filters="sRGB">
<feFlood flood-opacity="0" result="BackgroundImageFix"/>
<feColorMatrix in="SourceAlpha" type="matrix" values="0 0 0 0 0 0 0 0 0 0 0 0 0 0 0 0 0 0 127 0" result="hardAlpha"/>
<feOffset/>
<feGaussianBlur stdDeviation="10"/>
<feComposite in2="hardAlpha" operator="out"/>
<feColorMatrix type="matrix" values="0 0 0 0 1 0 0 0 0 1 0 0 0 0 1 0 0 0 1 0"/>
<feBlend mode="normal" in2="BackgroundImageFix" result="effect1_dropShadow_560_584"/>
<feBlend mode="normal" in="SourceGraphic" in2="effect1_dropShadow_560_584" result="shape"/>
</filter>
<filter id="filter2_d_560_584" x="42.3828" y="128.114" width="47.9941" height="58.9878" filterUnits="userSpaceOnUse" color-interpolation-filters="sRGB">
<feFlood flood-opacity="0" result="BackgroundImageFix"/>
<feColorMatrix in="SourceAlpha" type="matrix" values="0 0 0 0 0 0 0 0 0 0 0 0 0 0 0 0 0 0 127 0" result="hardAlpha"/>
<feOffset/>
<feGaussianBlur stdDeviation="10"/>
<feComposite in2="hardAlpha" operator="out"/>
<feColorMatrix type="matrix" values="0 0 0 0 1 0 0 0 0 1 0 0 0 0 1 0 0 0 1 0"/>
<feBlend mode="normal" in2="BackgroundImageFix" result="effect1_dropShadow_560_584"/>
<feBlend mode="normal" in="SourceGraphic" in2="effect1_dropShadow_560_584" result="shape"/>
</filter>
<filter id="filter3_f_560_584" x="42.8906" y="56.2798" width="133.113" height="90.3418" filterUnits="userSpaceOnUse" color-interpolation-filters="sRGB">
<feFlood flood-opacity="0" result="BackgroundImageFix"/>
<feBlend mode="normal" in="SourceGraphic" in2="BackgroundImageFix" result="shape"/>
<feGaussianBlur stdDeviation="5" result="effect1_foregroundBlur_560_584"/>
</filter>
</defs>
</svg>
