<svg width="243" height="215" viewBox="0 0 243 215" fill="none" xmlns="http://www.w3.org/2000/svg">
<path d="M134.741 197.493C125.269 202.455 117.601 202.906 108.129 197.493L13.8593 141.112C10.2509 137.503 9.80766 132.545 13.8594 130.287L108.129 74.3562C117.15 68.9437 125.269 69.3947 134.741 74.3562L224.049 126.227C234.875 132.091 231.717 138.406 222.245 144.72L134.741 197.493Z" fill="#CECECE" stroke="white" stroke-width="0.5"/>
<g filter="url(#filter0_d_434_8004)">
<path d="M226.755 128.031C232.879 133.946 231.402 137.539 223.146 144.269V157.349L230.363 153.29C232.361 151.497 232.689 150.265 232.619 147.877V137.954C232.555 132.046 230.914 130.199 226.755 128.031Z" fill="white"/>
</g>
<g filter="url(#filter1_d_434_8004)">
<path d="M37.3132 154.644V167.725L13.4075 153.291C11.1522 151.487 10.7012 149.683 10.7012 146.525V135.249C11.6033 137.504 12.9564 140.211 14.3096 140.662L37.3132 154.644Z" fill="white"/>
</g>
<g filter="url(#filter2_d_434_8004)">
<path d="M48.5898 174.49V161.86L55.8067 166.371V179L48.5898 174.49Z" fill="white"/>
</g>
<path d="M37.3125 167.724L107.677 210.123M107.677 210.123V197.33M107.677 210.123C115.877 215.108 126.621 215.085 134.74 210.123M134.74 210.123L136.803 208.892M134.74 210.123V208.319M134.74 197.494V200.651M211.869 164.081L223.146 144.27V147.878M211.869 164.081L215.027 162.197M211.869 164.081L208.789 165.92M215.027 162.197L223.146 147.878M215.027 162.197L218.184 160.312M223.146 147.878V151.035M223.146 151.035L218.184 160.312M223.146 151.035V154.193M218.184 160.312L220.665 158.831M220.665 158.831L223.146 157.35V154.193M220.665 158.831L223.146 154.193M208.789 165.92L219.537 146.525M208.789 165.92L206.006 167.582M206.006 167.582L215.929 148.78M206.006 167.582L202.397 169.736M202.397 169.736L211.418 151.486M202.397 169.736L198.789 171.89M198.789 171.89L207.359 153.742M198.789 171.89L195.632 173.774M195.632 173.774L203.299 155.997M195.632 173.774L191.768 176.081M191.768 176.081L199.24 158.703M191.768 176.081L187.632 178.549M187.632 178.549L195.181 160.958M187.632 178.549L184.355 180.506M184.355 180.506L191.121 163.665M184.355 180.506L181.198 182.39M181.198 182.39L187.632 165.469M181.198 182.39L178.041 184.275M178.041 184.275L183.453 168.175M178.041 184.275L174.787 186.217M174.787 186.217L179.845 170.431M174.787 186.217L171.726 188.045M171.726 188.045L176.236 172.686M171.726 188.045L169.02 189.66M169.02 189.66L172.628 174.941M169.02 189.66L165.862 191.545M165.862 191.545L169.02 176.745M165.862 191.545L161.942 193.885M161.942 193.885L165.862 178.549M161.942 193.885L158.194 196.122M158.194 196.122L161.942 181.039M158.194 196.122L154.385 198.396M154.385 198.396L158.194 183.511M154.385 198.396L150.607 200.651M150.607 200.651C150.543 200.29 153.233 190.577 154.586 185.766M150.607 200.651L146.467 203.123M146.467 203.123L150.075 188.473M146.467 203.123L143.051 205.161M143.051 205.161L146.918 190.277M143.051 205.161L139.701 207.161M139.701 207.161L143.31 192.532M139.701 207.161L136.803 208.892M136.803 208.892L140.152 194.336M134.74 208.319L137.446 196.122M134.74 208.319V200.651M134.74 200.651L135.642 197.043" stroke="white" stroke-width="0.5"/>
<g filter="url(#filter3_f_434_8004)">
<path d="M21.0742 123.691L121.663 71.3667L213.681 129.555L121.663 185.938L21.0742 123.691Z" fill="#7A7A7A"/>
</g>
<path d="M66.1823 138.125L26.4883 114.218C37.2134 109.082 41.8246 105.197 46.3353 97.0777C52.813 86.8423 55.9852 82.5774 61.2206 76.3286C67.5356 70.0136 71.1441 71.7322 79.7144 76.3286C85.8898 79.6405 89.3484 79.0912 95.5018 75.4264C101.384 71.3103 102.757 68.3348 104.523 62.7967C110.377 47.0622 115.8 36.6347 124.37 26.26C127.528 21.7492 134.589 19.4938 138.353 26.26C142.889 34.4124 145.627 40.1831 150.532 50.6177C152.788 56.4816 157.749 56.9327 159.554 62.7966C161.456 68.9791 175.699 90.1536 178.95 91.6644C187.368 89.4121 191.167 89.502 196.541 91.6644C204.661 100.235 206.014 106.55 215.937 114.218L177.596 136.32L159.554 132.712L141.06 160.227L120.762 171.504L102.268 160.227L84.2251 144.439L66.1823 138.125Z" fill="#969696" stroke="white" stroke-width="0.5"/>
<path d="M45.4336 125.946L83.5489 102.942M121.664 79.9371C123.754 77.2904 124.677 74.8408 125.724 68.2093C128.092 47.0094 129.483 35.3084 134.745 22.6514M121.664 79.9371C120.943 79.2154 108.433 71.8179 102.268 68.2093L121.664 79.9371ZM121.664 79.9371L140.384 91.3266M121.664 79.9371L83.5489 102.942M196.542 125.495L177.822 114.106M159.103 102.716L178.499 91.6649M159.103 102.716C156.785 103.893 155.432 104.145 152.788 102.716C149.651 101.021 146.804 100.176 143.316 100.189M159.103 102.716L140.384 91.3266M159.103 102.716L177.822 114.106M121.664 102.716C125.273 104.295 129.354 103.45 134.294 101.588C137.884 100.664 140.771 100.199 143.316 100.189M121.664 102.716L80.617 76.7796M121.664 102.716L140.384 91.3266M121.664 102.716L102.719 116.474M140.384 91.3266C142.348 89.6712 143.169 87.5795 144.669 83.9967C147.988 71.9115 149.944 65.2874 155.945 57.3837M65.2806 73.1711L83.5489 102.942M83.5489 102.942L102.719 116.474M102.719 116.474C100.541 117.148 99.293 117.325 96.8555 116.023C92.1863 112.89 89.5426 111.323 84.6766 109.708M102.719 116.474L121.664 125.463M84.6766 109.708C81.6686 109.707 79.4105 110.188 71.5956 114.218C67.536 114.669 64.8649 114.218 62.5742 111.512C57.7611 106.543 54.7636 103.568 46.7868 96.6267M84.6766 109.708C81.3577 113.232 79.37 116.013 75.6552 122.338C71.108 130.914 68.6541 133.844 64.3785 137.223M84.6766 109.708C90.1838 117.087 93.3421 121.907 99.1108 132.261C100.137 133.685 101.058 134.837 102.719 136.204M141.06 160.227L121.664 148.178M121.664 148.178L111.29 141.734C106.989 139.289 104.452 137.63 102.719 136.204M121.664 148.178L102.268 160.227M121.664 148.178L140.384 136.821M177.822 114.106L196.542 91.6649M177.822 114.106L159.103 125.463M178.499 135.419L159.103 125.463M159.103 125.463L143.316 100.189M159.103 125.463L140.384 136.821M143.316 100.189C134.906 110.921 130.187 116.856 121.664 125.463M140.384 136.821C142.758 137.892 143.938 137.553 146.022 136.821C151.354 133.947 154.34 132.388 159.554 132.712M140.384 136.821L121.664 125.463M121.664 125.463L102.719 136.204M102.719 136.204L84.2255 144.44" stroke="white" stroke-width="0.5"/>
<circle cx="196.091" cy="92.5669" r="3.15748" fill="white"/>
<circle cx="142.865" cy="100.686" r="3.15748" fill="white"/>
<circle cx="84.2258" cy="110.61" r="3.15748" fill="white"/>
<circle cx="121.212" cy="149.402" r="3.15748" fill="white"/>
<circle cx="65.2805" cy="73.6221" r="3.15748" fill="white"/>
<rect x="78.3613" y="48.8132" width="11.7278" height="11.7278" fill="white"/>
<rect x="59.416" y="5.51074" width="11.7278" height="11.7278" fill="white"/>
<rect x="137.902" y="1" width="11.7278" height="11.7278" fill="white"/>
<rect x="191.129" y="38.8899" width="11.7278" height="11.7278" fill="white"/>
<rect x="116.25" y="113.767" width="11.7278" height="11.7278" fill="white"/>
<rect x="93.6992" y="55.1284" width="9.92352" height="0.902138" fill="white"/>
<rect x="93.6992" y="58.7368" width="9.92352" height="0.902138" fill="white"/>
<path d="M94.1504 52.8729V48.8132H106.329V52.8729H94.1504Z" stroke="white" stroke-width="0.5"/>
<path d="M84.2246 62.7964V106.099" stroke="white" stroke-width="0.5"/>
<rect x="74.7539" y="11.8257" width="9.92352" height="0.902138" fill="white"/>
<rect x="153.238" y="7.31494" width="9.92352" height="0.902138" fill="white"/>
<rect x="206.465" y="45.2048" width="9.92352" height="0.902138" fill="white"/>
<rect x="131.588" y="120.082" width="9.92352" height="0.902138" fill="white"/>
<rect x="74.7539" y="15.4343" width="9.92352" height="0.902138" fill="white"/>
<rect x="153.238" y="10.9236" width="9.92352" height="0.902138" fill="white"/>
<rect x="206.465" y="48.8132" width="9.92352" height="0.902138" fill="white"/>
<rect x="131.588" y="123.691" width="9.92352" height="0.902138" fill="white"/>
<path d="M75.2051 9.57036V5.51074H87.3839V9.57036H75.2051Z" stroke="white" stroke-width="0.5"/>
<path d="M153.689 5.05962V1H165.868V5.05962H153.689Z" stroke="white" stroke-width="0.5"/>
<path d="M206.916 42.9495V38.8899H219.095V42.9495H206.916Z" stroke="white" stroke-width="0.5"/>
<path d="M132.037 117.827V113.767H144.216V117.827H132.037Z" stroke="white" stroke-width="0.5"/>
<path d="M121.664 127.75V143.989M142.864 96.6267V15.4343M196.542 88.0564V54.2263" stroke="white" stroke-width="0.5"/>
<path d="M65.2812 69.1114V20.396" stroke="white" stroke-width="0.5"/>
<defs>
<filter id="filter0_d_434_8004" x="213.146" y="118.031" width="29.4805" height="49.3184" filterUnits="userSpaceOnUse" color-interpolation-filters="sRGB">
<feFlood flood-opacity="0" result="BackgroundImageFix"/>
<feColorMatrix in="SourceAlpha" type="matrix" values="0 0 0 0 0 0 0 0 0 0 0 0 0 0 0 0 0 0 127 0" result="hardAlpha"/>
<feOffset/>
<feGaussianBlur stdDeviation="5"/>
<feComposite in2="hardAlpha" operator="out"/>
<feColorMatrix type="matrix" values="0 0 0 0 1 0 0 0 0 1 0 0 0 0 1 0 0 0 1 0"/>
<feBlend mode="normal" in2="BackgroundImageFix" result="effect1_dropShadow_434_8004"/>
<feBlend mode="normal" in="SourceGraphic" in2="effect1_dropShadow_434_8004" result="shape"/>
</filter>
<filter id="filter1_d_434_8004" x="0.701172" y="125.249" width="46.6113" height="52.4756" filterUnits="userSpaceOnUse" color-interpolation-filters="sRGB">
<feFlood flood-opacity="0" result="BackgroundImageFix"/>
<feColorMatrix in="SourceAlpha" type="matrix" values="0 0 0 0 0 0 0 0 0 0 0 0 0 0 0 0 0 0 127 0" result="hardAlpha"/>
<feOffset/>
<feGaussianBlur stdDeviation="5"/>
<feComposite in2="hardAlpha" operator="out"/>
<feColorMatrix type="matrix" values="0 0 0 0 1 0 0 0 0 1 0 0 0 0 1 0 0 0 1 0"/>
<feBlend mode="normal" in2="BackgroundImageFix" result="effect1_dropShadow_434_8004"/>
<feBlend mode="normal" in="SourceGraphic" in2="effect1_dropShadow_434_8004" result="shape"/>
</filter>
<filter id="filter2_d_434_8004" x="38.5898" y="151.86" width="27.2168" height="37.1399" filterUnits="userSpaceOnUse" color-interpolation-filters="sRGB">
<feFlood flood-opacity="0" result="BackgroundImageFix"/>
<feColorMatrix in="SourceAlpha" type="matrix" values="0 0 0 0 0 0 0 0 0 0 0 0 0 0 0 0 0 0 127 0" result="hardAlpha"/>
<feOffset/>
<feGaussianBlur stdDeviation="5"/>
<feComposite in2="hardAlpha" operator="out"/>
<feColorMatrix type="matrix" values="0 0 0 0 1 0 0 0 0 1 0 0 0 0 1 0 0 0 1 0"/>
<feBlend mode="normal" in2="BackgroundImageFix" result="effect1_dropShadow_434_8004"/>
<feBlend mode="normal" in="SourceGraphic" in2="effect1_dropShadow_434_8004" result="shape"/>
</filter>
<filter id="filter3_f_434_8004" x="5.07422" y="55.3667" width="224.605" height="146.572" filterUnits="userSpaceOnUse" color-interpolation-filters="sRGB">
<feFlood flood-opacity="0" result="BackgroundImageFix"/>
<feBlend mode="normal" in="SourceGraphic" in2="BackgroundImageFix" result="shape"/>
<feGaussianBlur stdDeviation="8" result="effect1_foregroundBlur_434_8004"/>
</filter>
</defs>
</svg>
