<svg width="491" height="194" viewBox="0 0 491 194" fill="none" xmlns="http://www.w3.org/2000/svg">
<path d="M-7798.16 1.21987C-7512.17 -2.35643 -6837.14 8.45194 -6424.99 80.2958C-6012.83 152.14 -5484.17 110.231 -5271.36 80.2958C-4940.91 48.5065 -4190.32 10.7567 -3831.51 114.072C-3382.99 243.216 -2725.69 249.176 -2258.31 198.314C-1790.94 147.451 -1254.88 114.072 -951.81 114.072C-551.777 114.072 215.29 96.4977 687.381 198.314C1077.99 282.555 1798.58 232.09 2189.86 198.314C2654.8 158.179 3169.6 47.7117 3672.81 232.09" stroke="#505050" stroke-width="0.5"/>
<path d="M-7815 433.553C-7615.88 385.869 -7125.51 288.594 -6757 280.964C-6296.36 271.427 -5666 433.553 -5415.47 433.553C-5164.95 433.553 -4777.04 376.332 -4413.37 280.964C-4049.71 185.596 -3063.77 185.597 -2514.23 309.575C-1964.69 433.553 -1308.12 423.876 -1011.75 347.722C-510.696 218.975 776.018 32.9307 1146.01 200.3C1630.89 419.646 2305.02 433.553 2696.3 280.964C3350.16 25.9764 4085.64 219.374 4276.23 309.575" stroke="#505050" stroke-width="0.5"/>
<path d="M-7798.65 5.63758C-7515.16 0.787989 -6845.46 8.4762 -6434.57 78.0258C-6021.01 147.52 -5489.42 111.501 -5275.51 82.4307C-4947.38 51.5591 -4207.26 13.2472 -3848.3 110.827C-3402.23 233.49 -2735.45 239.278 -2265.7 193.463C-1795.95 147.647 -1256.42 114.952 -953.538 112.754C-550.589 109.037 231.48 86.5998 700.623 190.308C1093.95 278.45 1813.21 229.843 2204.48 192.637C2674.88 146.3 3196.05 44.6044 3690.23 226.264" stroke="#505050" stroke-width="0.5"/>
<path d="M-7799.16 10.6004C-7518.35 4.39481 -6854.33 8.7602 -6444.78 75.8665C-6029.73 142.859 -5495.01 113.113 -5279.95 84.9625C-4954.27 55.0682 -4225.3 16.1577 -3866.19 107.629C-3422.73 223.39 -2745.84 228.995 -2273.57 188.555C-1801.29 148.114 -1258.05 116.148 -955.382 111.609C-549.327 103.934 248.717 76.3171 714.722 182.041C1110.95 274.336 1828.77 227.708 2220.05 186.849C2696.25 133.907 3224.21 41.5534 3708.78 220.317" stroke="#505050" stroke-width="0.5"/>
<path d="M-7799.71 16.1864C-7521.73 8.54211 -6863.74 9.38201 -6455.61 73.8961C-6038.98 138.234 -5500.94 115.143 -5284.65 87.9692C-4961.58 59.1118 -4244.44 19.5662 -3885.17 104.557C-3444.48 212.995 -2756.87 218.405 -2281.92 183.668C-1806.96 148.93 -1259.79 117.738 -957.338 110.714C-547.988 98.8399 267.006 65.7278 729.68 173.59C1128.98 270.292 1845.29 225.763 2236.57 181.029C2718.93 121.079 3254.09 38.6368 3728.46 214.329" stroke="#505050" stroke-width="0.5"/>
<path d="M-7800.29 22.479C-7525.31 13.3133 -6873.68 10.425 -6467.06 72.1978C-6048.76 133.729 -5507.21 117.676 -5289.62 91.5342C-4969.3 63.7733 -4264.67 23.5561 -3905.24 101.694C-3467.47 202.387 -2768.53 207.592 -2290.74 178.886C-1812.95 150.179 -1261.63 119.804 -959.405 110.153C-546.571 93.8384 286.348 54.9152 745.5 165.038C1148.05 266.401 1862.76 224.092 2254.04 175.26C2742.92 107.899 3285.69 35.938 3749.28 208.382" stroke="#505050" stroke-width="0.5"/>
<path d="M-7800.91 29.5595C-7529.08 18.7896 -6884.17 11.9705 -6479.13 70.853C-6059.07 129.424 -5513.82 120.792 -5294.86 95.7388C-4977.45 69.1341 -4286.01 28.2087 -3926.4 99.1206C-3491.72 191.649 -2780.83 196.637 -2300.05 174.289C-1819.27 151.941 -1263.56 122.428 -961.585 110.008C-545.077 89.0107 306.74 43.9605 762.179 156.468C1168.16 262.744 1881.18 222.777 2272.46 169.623C2768.21 94.4479 3319 33.5383 3771.22 202.557" stroke="#505050" stroke-width="0.5"/>
<path d="M-7801.55 37.5029C-7533.05 25.0462 -6895.2 14.0936 -6491.83 69.9367C-6069.91 125.396 -5520.78 124.566 -5300.37 100.658C-4986.02 75.269 -4308.45 33.599 -3948.66 96.9125C-3517.22 180.855 -2793.76 185.615 -2309.84 169.954C-1825.92 154.292 -1265.6 125.686 -963.879 110.353C-543.507 84.4321 328.183 32.939 779.717 147.953C1189.3 259.396 1900.55 221.891 2291.82 164.193C2794.8 80.8014 3354.03 31.5127 3794.3 196.93" stroke="#505050" stroke-width="0.5"/>
<path d="M-7802.23 46.3802C-7537.21 32.154 -6906.77 16.8652 -6505.15 69.52C-6081.29 121.714 -5528.07 129.07 -5306.15 106.363C-4995.01 82.2493 -4331.99 39.7981 -3972 95.1408C-3543.97 170.076 -2807.32 174.597 -2320.1 165.95C-1832.89 157.303 -1267.74 129.647 -966.281 111.26C-541.857 80.1734 350.681 21.9215 798.119 139.565C1211.49 256.428 1920.87 221.506 2312.14 159.042C2822.7 67.0304 3390.79 29.9323 3818.51 191.571" stroke="#505050" stroke-width="0.5"/>
<path d="M-7802.93 56.2491C-7541.56 40.1706 -6918.88 20.343 -6519.09 69.6604C-6093.19 118.437 -5535.71 134.361 -5312.21 112.911C-5004.42 90.1324 -4356.63 46.8635 -3996.43 93.8628C-3571.97 159.37 -2821.52 163.641 -2330.85 162.336C-1840.19 161.031 -1269.97 134.371 -968.799 112.785C-540.133 76.2923 374.227 10.9657 817.377 131.362C1234.71 253.899 1942.13 221.68 2333.41 154.226C2851.9 53.1923 3429.25 28.8546 3843.85 186.538" stroke="#505050" stroke-width="0.5"/>
<path d="M-7803.67 67.1623C-7546.11 49.1489 -6931.53 24.5798 -6533.66 70.4108C-6105.63 115.618 -5543.68 140.492 -5318.53 120.355C-5014.24 98.9713 -4382.36 54.8482 -4021.96 93.1315C-3601.21 148.789 -2836.35 152.799 -2342.08 159.164C-1847.81 165.53 -1272.31 139.909 -971.428 114.982C-538.33 72.8416 398.826 0.124402 837.497 123.397C1258.96 251.86 1964.35 222.465 2355.63 149.8C2882.4 39.3401 3469.44 28.3325 3870.32 181.885" stroke="#505050" stroke-width="0.5"/>
<path d="M-7804.44 81.3784C-7550.86 61.3474 -6944.72 31.8341 -6548.84 74.0297C-6118.6 115.514 -5552 149.722 -5325.12 130.954C-5024.49 111.024 -4409.2 66.0106 -4048.58 95.2053C-3631.71 140.593 -2851.81 144.33 -2353.78 158.693C-1855.75 173.056 -1274.74 148.52 -974.169 120.11C-536.45 72.0798 424.476 -8.34393 858.477 117.927C1284.25 252.571 1987.52 226.12 2378.79 148.02C2914.21 27.7321 3511.34 30.6245 3897.92 179.869" stroke="#505050" stroke-width="0.5"/>
<path d="M-7805.24 107.57C-7555.8 85.4384 -6958.45 50.7783 -6564.66 89.1894C-6132.1 126.798 -5560.66 170.722 -5331.98 153.38C-5035.16 134.964 -4437.14 89.023 -4076.28 108.757C-3663.46 143.453 -2867.91 146.907 -2365.97 169.596C-1864.03 192.284 -1277.28 168.877 -977.024 136.84C-534.494 82.6793 451.178 -5.76677 880.316 123.626C1310.58 264.703 2011.63 241.318 2402.91 157.56C2947.32 27.0409 3554.96 44.403 3926.66 189.163" stroke="#505050" stroke-width="0.5"/>
<path d="M-7806.08 134.952C-7560.93 110.637 -6972.73 70.6274 -6581.09 105.105C-6146.14 138.686 -5569.66 192.708 -5339.12 176.848C-5046.25 160.005 -4466.18 113.101 -4105.08 123.001C-3696.46 146.585 -2884.65 149.744 -2378.64 181.086C-1872.63 212.429 -1279.91 190.194 -979.991 154.388C-532.462 93.8551 478.929 -2.92927 903.014 129.708C1337.95 277.472 2036.7 257.273 2427.98 167.634C2981.74 26.4814 3600.3 58.8829 3956.52 198.982" stroke="#505050" stroke-width="0.5"/>
<path d="M-7806.94 163.511C-7566.26 136.931 -6987.54 91.369 -6598.15 121.764C-6160.7 151.165 -5579 215.668 -5346.52 201.346C-5057.76 186.136 -4496.32 138.231 -4134.98 137.925C-3730.71 149.976 -2902.01 152.828 -2391.78 193.152C-1881.56 233.476 -1282.65 212.459 -983.071 172.742C-530.353 105.595 507.732 0.156288 926.572 136.161C1366.35 290.865 2062.71 273.973 2453.99 178.231C3017.46 26.0412 3647.35 74.052 3987.52 209.313" stroke="#505050" stroke-width="0.5"/>
<path d="M-7807.84 193.242C-7571.78 164.313 -7002.89 112.996 -6615.82 139.16C-6175.8 164.227 -5588.68 239.595 -5354.19 226.866C-5069.69 213.349 -4527.56 164.407 -4165.96 153.522C-3766.21 153.62 -2920.01 156.155 -2405.41 205.788C-1890.81 255.421 -1285.48 235.666 -986.261 191.894C-528.164 117.892 537.589 3.48309 950.992 142.978C1395.79 304.876 2089.68 291.411 2480.96 189.343C3054.48 25.7135 3696.13 89.9034 4019.65 220.15" stroke="#505050" stroke-width="0.5"/>
<path d="M-7808.77 224.135C-7577.5 192.775 -7018.79 135.501 -6634.12 157.284C-6191.42 177.866 -5598.71 264.48 -5362.14 253.401C-5082.04 241.636 -4559.9 191.621 -4198.03 169.785C-3802.96 157.508 -2938.65 159.714 -2419.52 218.984C-1900.38 278.254 -1288.42 259.806 -989.566 211.836C-525.901 130.738 568.496 7.0429 976.271 150.151C1426.27 319.496 2117.59 309.579 2508.87 200.962C3092.81 25.4902 3746.62 106.429 4052.91 231.484" stroke="#505050" stroke-width="0.5"/>
<path d="M-7809.73 256.184C-7583.41 222.31 -7035.22 158.876 -6653.05 176.13C-6207.58 192.073 -5609.07 290.315 -5370.35 280.943C-5094.8 270.99 -4593.34 219.865 -4231.19 186.705C-3840.96 161.632 -2957.92 163.498 -2434.1 232.734C-1910.29 301.969 -1291.45 284.871 -992.98 232.561C-523.558 144.125 600.455 10.8281 1002.41 157.673C1457.78 334.718 2146.46 328.469 2537.74 213.081C3132.44 25.3636 3798.83 123.621 4087.3 243.309" stroke="#505050" stroke-width="0.5"/>
<path d="M-7810.72 289.38C-7589.51 252.91 -7052.2 183.113 -6672.59 195.688C-6224.27 206.84 -5619.77 317.094 -5378.83 309.484C-5107.99 301.402 -4627.88 249.131 -4265.44 204.274C-3880.21 165.984 -2977.82 167.5 -2449.17 247.028C-1920.51 326.556 -1294.59 310.854 -996.509 254.061C-521.14 158.045 633.464 14.8307 1029.41 165.534C1490.33 350.533 2176.27 348.074 2567.55 225.691C3173.38 25.3256 3852.76 141.471 4122.82 255.615" stroke="#505050" stroke-width="0.5"/>
<path d="M-7811.74 323.721C-7595.81 284.571 -7069.72 208.209 -6692.76 215.956C-6241.5 222.165 -5630.82 344.813 -5387.59 339.021C-5121.6 332.87 -4663.52 279.417 -4300.79 222.491C-3920.71 170.563 -2998.36 171.717 -2464.71 261.866C-1931.07 352.015 -1297.82 337.752 -1000.15 276.333C-518.645 172.496 667.525 19.0483 1057.27 173.734C1523.91 366.939 2207.03 368.391 2598.31 238.791C3215.62 25.374 3908.4 159.978 4159.48 268.401" stroke="#505050" stroke-width="0.5"/>
<path d="M-7812.79 359.2C-7602.31 317.288 -7087.78 234.157 -6713.55 236.928C-6259.25 238.041 -5642.21 373.466 -5396.62 369.548C-5135.63 365.388 -4700.26 310.715 -4337.23 241.348C-3962.46 175.361 -3019.53 176.142 -2480.74 277.239C-1941.95 378.336 -1301.16 365.558 -1003.9 299.37C-516.073 187.472 702.637 23.4739 1085.99 182.264C1558.54 383.93 2238.75 389.413 2630.02 252.373C3259.16 25.5016 3965.76 179.133 4197.26 281.659" stroke="#505050" stroke-width="0.5"/>
<path d="M-7813.88 395.812C-7609 351.055 -7106.37 260.954 -6734.96 258.599C-6277.54 254.463 -5653.93 403.047 -5405.91 401.06C-5150.08 398.95 -4738.1 343.022 -4374.75 260.841C-4005.46 180.374 -3041.33 180.77 -2497.24 293.144C-1953.16 405.517 -1304.59 394.268 -1007.77 323.168C-513.423 202.966 738.802 28.1028 1115.57 191.121C1594.2 401.501 2271.41 411.135 2662.69 266.432C3304.01 25.7039 4024.84 198.933 4236.18 295.385" stroke="#505050" stroke-width="0.5"/>
</svg>
