<svg width="491" height="194" viewBox="0 0 491 194" fill="none" xmlns="http://www.w3.org/2000/svg">
<g opacity="0.5">
<path d="M-6236.16 1.21987C-5950.17 -2.35643 -5275.14 8.45194 -4862.99 80.2958C-4450.83 152.14 -3922.17 110.231 -3709.36 80.2958C-3378.92 48.5065 -2628.33 10.7567 -2269.51 114.072C-1820.99 243.216 -1163.69 249.176 -696.316 198.314C-228.938 147.451 307.116 114.072 610.188 114.072C1010.22 114.072 1777.29 96.4977 2249.38 198.314C2639.98 282.555 3360.58 232.09 3751.86 198.314C4216.8 158.179 4731.6 47.7117 5234.81 232.09" stroke="white" stroke-width="0.5"/>
<path d="M-6253 433.553C-6053.88 385.869 -5563.52 288.594 -5195 280.964C-4734.36 271.427 -4104 433.553 -3853.48 433.553C-3602.95 433.553 -3215.04 376.332 -2851.37 280.964C-2487.71 185.596 -1501.77 185.597 -952.229 309.575C-402.689 433.553 253.876 423.876 550.251 347.722C1051.3 218.975 2338.02 32.9307 2708 200.3C3192.89 419.646 3867.02 433.553 4258.3 280.964C4912.15 25.9764 5647.64 219.374 5838.23 309.575" stroke="white" stroke-width="0.5"/>
<path d="M-6236.65 5.63758C-5953.16 0.787989 -5283.47 8.4762 -4872.57 78.0258C-4459.02 147.52 -3927.42 111.501 -3713.52 82.4307C-3385.38 51.5591 -2645.26 13.2472 -2286.3 110.827C-1840.23 233.49 -1173.45 239.278 -703.702 193.463C-233.952 147.647 305.582 114.952 608.46 112.754C1011.41 109.037 1793.48 86.5998 2262.62 190.308C2655.95 278.45 3375.2 229.843 3766.48 192.637C4236.87 146.3 4758.05 44.6044 5252.23 226.264" stroke="white" stroke-width="0.5"/>
<path d="M-6237.17 10.6004C-5956.35 4.39481 -5292.33 8.7602 -4882.78 75.8665C-4467.73 142.859 -3933.01 113.113 -3717.95 84.9625C-3392.27 55.0682 -2663.3 16.1577 -2304.19 107.629C-1860.73 223.39 -1183.85 228.995 -711.57 188.555C-239.294 148.114 303.944 116.148 606.616 111.609C1012.67 103.934 1810.72 76.3171 2276.72 182.041C2672.94 274.336 3390.77 227.708 3782.05 186.849C4258.25 133.907 4786.21 41.5534 5270.78 220.317" stroke="white" stroke-width="0.5"/>
<path d="M-6237.72 16.1864C-5959.74 8.54211 -5301.74 9.38201 -4893.61 73.8961C-4476.98 138.234 -3938.94 115.143 -3722.65 87.9692C-3399.58 59.1118 -2682.44 19.5662 -2323.17 104.557C-1882.48 212.995 -1194.87 218.405 -719.919 183.668C-244.963 148.93 302.206 117.738 604.66 110.714C1014.01 98.8399 1829 65.7278 2291.68 173.59C2690.98 270.292 3407.29 225.763 3798.57 181.029C4280.93 121.079 4816.09 38.6368 5290.46 214.329" stroke="white" stroke-width="0.5"/>
<path d="M-6238.3 22.479C-5963.31 13.3133 -5311.69 10.425 -4905.06 72.1978C-4486.76 133.729 -3945.21 117.676 -3727.62 91.5342C-3407.31 63.7733 -2702.68 23.5561 -2343.24 101.694C-1905.48 202.387 -1206.54 207.592 -728.745 178.886C-250.955 150.179 300.37 119.804 602.593 110.153C1015.43 93.8384 1848.35 54.9152 2307.5 165.038C2710.05 266.401 3424.76 224.092 3816.04 175.26C4304.92 107.899 4847.69 35.938 5311.28 208.382" stroke="white" stroke-width="0.5"/>
<path d="M-6238.91 29.5595C-5967.08 18.7896 -5322.17 11.9705 -4917.14 70.853C-4497.07 129.424 -3951.83 120.792 -3732.86 95.7388C-3415.45 69.1341 -2724.01 28.2087 -2364.41 99.1206C-1929.72 191.649 -1218.83 196.637 -738.054 174.289C-257.276 151.941 298.433 122.428 600.413 110.008C1016.92 89.0107 1868.74 43.9605 2324.18 156.468C2730.16 262.744 3443.18 222.777 3834.45 169.623C4330.2 94.4479 4881 33.5383 5333.22 202.557" stroke="white" stroke-width="0.5"/>
<path d="M-6239.55 37.5029C-5971.05 25.0462 -5333.2 14.0936 -4929.83 69.9367C-4507.92 125.396 -3958.78 124.566 -3738.37 100.658C-3424.02 75.269 -2746.45 33.599 -2386.66 96.9125C-1955.22 180.855 -1231.76 185.615 -747.841 169.954C-263.921 154.292 296.396 125.686 598.119 110.353C1018.49 84.4321 1890.18 32.939 2341.71 147.953C2751.3 259.396 3462.54 221.891 3853.82 164.193C4356.8 80.8014 4916.03 31.5127 5356.3 196.93" stroke="white" stroke-width="0.5"/>
<path d="M-6240.23 46.3802C-5975.21 32.154 -5344.77 16.8652 -4943.15 69.52C-4519.29 121.714 -3966.07 129.07 -3744.15 106.363C-3433.01 82.2493 -2769.99 39.7981 -2410 95.1408C-1981.97 170.076 -1245.32 174.597 -758.106 165.95C-270.89 157.303 294.262 129.647 595.717 111.26C1020.14 80.1734 1912.68 21.9215 2360.12 139.565C2773.49 256.428 3482.86 221.506 3874.14 159.042C4384.7 67.0304 4952.78 29.9323 5380.51 191.571" stroke="white" stroke-width="0.5"/>
<path d="M-6240.94 56.2491C-5979.57 40.1706 -5356.88 20.343 -4957.1 69.6604C-4531.2 118.437 -3973.71 134.361 -3750.21 112.911C-3442.42 90.1324 -2794.63 46.8635 -2434.44 93.8628C-2009.97 159.37 -1259.52 163.641 -768.854 162.336C-278.187 161.031 292.026 134.371 593.199 112.785C1021.87 76.2923 1936.22 10.9657 2379.37 131.362C2796.7 253.899 3504.13 221.68 3895.41 154.226C4413.89 53.1923 4991.25 28.8546 5405.85 186.538" stroke="white" stroke-width="0.5"/>
<path d="M-6241.67 67.1623C-5984.12 49.1489 -5369.53 24.5798 -4971.66 70.4108C-4543.63 115.618 -3981.69 140.492 -3756.53 120.355C-3452.24 98.9713 -2820.37 54.8482 -2459.96 93.1315C-2039.21 148.789 -1274.35 152.799 -780.08 159.164C-285.808 165.53 289.691 139.909 590.57 114.982C1023.67 72.8416 1960.82 0.124402 2399.5 123.397C2820.96 251.86 3526.35 222.465 3917.63 149.8C4444.4 39.3401 5031.44 28.3325 5432.32 181.885" stroke="white" stroke-width="0.5"/>
<path d="M-6242.44 81.3784C-5988.86 61.3474 -5382.72 31.8341 -4986.85 74.0297C-4556.6 115.514 -3990 149.722 -3763.12 130.954C-3462.49 111.024 -2847.2 66.0106 -2486.58 95.2053C-2069.71 140.593 -1289.81 144.33 -791.785 158.693C-293.756 173.056 287.256 148.52 587.829 120.11C1025.55 72.0798 1986.47 -8.34393 2420.47 117.927C2846.25 252.571 3549.52 226.12 3940.79 148.02C4476.21 27.7321 5073.34 30.6245 5459.92 179.869" stroke="white" stroke-width="0.5"/>
<path d="M-6243.25 107.57C-5993.8 85.4384 -5396.45 50.7783 -5002.66 89.1894C-4570.1 126.798 -3998.66 170.722 -3769.98 153.38C-3473.16 134.964 -2875.14 89.023 -2514.29 108.757C-2101.46 143.453 -1305.91 146.907 -803.972 169.596C-302.03 192.284 284.72 168.877 584.975 136.84C1027.5 82.6793 2013.18 -5.76677 2442.31 123.626C2872.58 264.703 3573.63 241.318 3964.91 157.56C4509.32 27.0409 5116.96 44.403 5488.66 189.163" stroke="white" stroke-width="0.5"/>
<path d="M-6244.08 134.952C-5998.93 110.637 -5410.73 70.6274 -5019.09 105.105C-4584.14 138.686 -4007.66 192.708 -3777.12 176.848C-3484.25 160.005 -2904.18 113.101 -2543.09 123.001C-2134.46 146.585 -1322.65 149.744 -816.64 181.086C-310.631 212.429 282.084 190.194 582.007 154.388C1029.54 93.8551 2040.93 -2.92927 2465.01 129.708C2899.95 277.472 3598.7 257.273 3989.97 167.634C4543.74 26.4814 5162.3 58.8829 5518.52 198.982" stroke="white" stroke-width="0.5"/>
<path d="M-6244.95 163.511C-6004.26 136.931 -5425.54 91.369 -5036.15 121.764C-4598.7 151.165 -4017 215.668 -3784.52 201.346C-3495.76 186.136 -2934.32 138.231 -2572.98 137.925C-2168.71 149.976 -1340.02 152.828 -829.787 193.152C-319.558 233.476 279.348 212.459 578.927 172.742C1031.64 105.595 2069.73 0.156288 2488.57 136.161C2928.35 290.865 3624.71 273.973 4015.99 178.231C4579.45 26.0412 5209.35 74.052 5549.51 209.313" stroke="white" stroke-width="0.5"/>
<path d="M-6245.84 193.242C-6009.78 164.313 -5440.9 112.996 -5053.82 139.16C-4613.8 164.227 -4026.69 239.595 -3792.2 226.866C-3507.69 213.349 -2965.56 164.407 -2603.96 153.522C-2204.21 153.62 -1358.02 156.155 -843.412 205.788C-328.808 255.421 276.515 235.666 575.737 191.894C1033.83 117.892 2099.59 3.48309 2512.99 142.978C2957.79 304.876 3651.68 291.411 4042.95 189.343C4616.48 25.7135 5258.13 89.9034 5581.65 220.15" stroke="white" stroke-width="0.5"/>
<path d="M-6246.77 224.135C-6015.5 192.775 -5456.79 135.501 -5072.13 157.284C-4629.43 177.866 -4036.71 264.48 -3800.14 253.401C-3520.04 241.636 -2997.9 191.621 -2636.03 169.785C-2240.96 157.508 -1376.65 159.714 -857.518 218.984C-338.385 278.254 273.579 259.806 572.432 211.836C1036.1 130.738 2130.49 7.0429 2538.27 150.151C2988.26 319.496 3679.59 309.579 4070.87 200.962C4654.81 25.4902 5308.62 106.429 5614.9 231.484" stroke="white" stroke-width="0.5"/>
<path d="M-6247.73 256.184C-6021.41 222.31 -5473.23 158.876 -5091.05 176.13C-4645.59 192.073 -4047.07 290.315 -3808.35 280.943C-3532.81 270.99 -3031.34 219.865 -2669.19 186.705C-2278.96 161.632 -1395.92 163.498 -872.102 232.734C-348.287 301.969 270.546 284.871 569.018 232.561C1038.44 144.125 2162.45 10.8281 2564.41 157.673C3019.78 334.718 3708.46 328.469 4099.73 213.081C4694.44 25.3636 5360.83 123.621 5649.3 243.309" stroke="white" stroke-width="0.5"/>
<path d="M-6248.72 289.38C-6027.51 252.91 -5490.2 183.113 -5110.59 195.688C-4662.28 206.84 -4057.77 317.094 -3816.84 309.484C-3545.99 301.402 -3065.88 249.131 -2703.45 204.274C-2318.21 165.984 -1415.82 167.5 -887.168 247.028C-358.516 326.556 267.412 310.854 565.489 254.061C1040.86 158.045 2195.46 14.8307 2591.41 165.534C3052.33 350.533 3738.27 348.074 4129.55 225.691C4735.37 25.3256 5414.75 141.471 5684.82 255.615" stroke="white" stroke-width="0.5"/>
<path d="M-6249.74 323.721C-6033.81 284.571 -5507.72 208.209 -5130.76 215.956C-4679.5 222.165 -4068.82 344.813 -3825.59 339.021C-3559.6 332.87 -3101.52 279.417 -2738.79 222.491C-2358.71 170.563 -1436.36 171.717 -902.714 261.866C-369.071 352.015 264.177 337.752 561.847 276.333C1043.35 172.496 2229.52 19.0483 2619.27 173.734C3085.91 366.939 3769.03 368.391 4160.31 238.791C4777.61 25.374 5470.4 159.978 5721.47 268.401" stroke="white" stroke-width="0.5"/>
<path d="M-6250.8 359.2C-6040.31 317.288 -5525.78 234.157 -5151.55 236.928C-4697.25 238.041 -4080.21 373.466 -3834.62 369.548C-3573.63 365.388 -3138.26 310.715 -2775.23 241.348C-2400.46 175.361 -1457.53 176.142 -918.74 277.239C-379.952 378.336 260.842 365.558 558.094 299.37C1045.92 187.472 2264.64 23.4739 2647.98 182.264C3120.53 383.93 3800.74 389.413 4192.02 252.373C4821.16 25.5016 5527.76 179.133 5759.26 281.659" stroke="white" stroke-width="0.5"/>
<path d="M-6251.88 395.812C-6047 351.055 -5544.38 260.954 -5172.97 258.599C-4715.54 254.463 -4091.93 403.047 -3843.91 401.06C-3588.08 398.95 -3176.1 343.022 -2812.76 260.841C-2443.46 180.374 -1479.33 180.77 -935.244 293.144C-391.157 405.517 257.41 394.268 554.229 323.168C1048.58 202.966 2300.8 28.1028 2677.56 191.121C3156.19 401.501 3833.41 411.135 4224.69 266.432C4866 25.7039 5586.84 198.933 5798.18 295.385" stroke="white" stroke-width="0.5"/>
</g>
</svg>
