<svg width="491" height="194" viewBox="0 0 491 194" fill="none" xmlns="http://www.w3.org/2000/svg">
<g opacity="0.5">
<path d="M-5197.16 1.21987C-4911.17 -2.35643 -4236.14 8.45194 -3823.99 80.2958C-3411.83 152.14 -2883.17 110.231 -2670.36 80.2958C-2339.92 48.5065 -1589.33 10.7567 -1230.51 114.072C-781.988 243.216 -124.695 249.176 342.684 198.314C810.062 147.451 1346.12 114.072 1649.19 114.072C2049.22 114.072 2816.29 96.4977 3288.38 198.314C3678.98 282.555 4399.58 232.09 4790.86 198.314C5255.8 158.179 5770.6 47.7117 6273.81 232.09" stroke="white" stroke-width="0.5"/>
<path d="M-5214 433.553C-5014.88 385.869 -4524.52 288.594 -4156 280.964C-3695.36 271.427 -3065 433.553 -2814.48 433.553C-2563.95 433.553 -2176.04 376.332 -1812.37 280.964C-1448.71 185.596 -462.769 185.597 86.7709 309.575C636.311 433.553 1292.88 423.876 1589.25 347.722C2090.3 218.975 3377.02 32.9307 3747 200.3C4231.89 419.646 4906.02 433.553 5297.3 280.964C5951.15 25.9764 6686.64 219.374 6877.23 309.575" stroke="white" stroke-width="0.5"/>
<path d="M-5197.65 5.63758C-4914.16 0.787989 -4244.47 8.4762 -3833.57 78.0258C-3420.02 147.52 -2888.42 111.501 -2674.52 82.4307C-2346.38 51.5591 -1606.26 13.2472 -1247.3 110.827C-801.232 233.49 -134.452 239.278 335.298 193.463C805.048 147.647 1344.58 114.952 1647.46 112.754C2050.41 109.037 2832.48 86.5998 3301.62 190.308C3694.95 278.45 4414.2 229.843 4805.48 192.637C5275.87 146.3 5797.05 44.6044 6291.23 226.264" stroke="white" stroke-width="0.5"/>
<path d="M-5198.17 10.6004C-4917.35 4.39481 -4253.33 8.7602 -3843.78 75.8665C-3428.73 142.859 -2894.01 113.113 -2678.95 84.9625C-2353.27 55.0682 -1624.3 16.1577 -1265.19 107.629C-821.73 223.39 -144.846 228.995 327.43 188.555C799.706 148.114 1342.94 116.148 1645.62 111.609C2051.67 103.934 2849.72 76.3171 3315.72 182.041C3711.94 274.336 4429.77 227.708 4821.05 186.849C5297.25 133.907 5825.21 41.5534 6309.78 220.317" stroke="white" stroke-width="0.5"/>
<path d="M-5198.72 16.1864C-4920.74 8.54211 -4262.74 9.38201 -3854.61 73.8961C-3437.98 138.234 -2899.94 115.143 -2683.65 87.9692C-2360.58 59.1118 -1643.44 19.5662 -1284.17 104.557C-843.479 212.995 -155.875 218.405 319.081 183.668C794.037 148.93 1341.21 117.738 1643.66 110.714C2053.01 98.8399 2868 65.7278 3330.68 173.59C3729.98 270.292 4446.29 225.763 4837.57 181.029C5319.93 121.079 5855.09 38.6368 6329.46 214.329" stroke="white" stroke-width="0.5"/>
<path d="M-5199.3 22.479C-4924.31 13.3133 -4272.69 10.425 -3866.06 72.1978C-3447.76 133.729 -2906.21 117.676 -2688.62 91.5342C-2368.31 63.7733 -1663.68 23.5561 -1304.24 101.694C-866.476 202.387 -167.536 207.592 310.255 178.886C788.045 150.179 1339.37 119.804 1641.59 110.153C2054.43 93.8384 2887.35 54.9152 3346.5 165.038C3749.05 266.401 4463.76 224.092 4855.04 175.26C5343.92 107.899 5886.69 35.938 6350.28 208.382" stroke="white" stroke-width="0.5"/>
<path d="M-5199.91 29.5595C-4928.08 18.7896 -4283.17 11.9705 -3878.14 70.853C-3458.07 129.424 -2912.83 120.792 -2693.86 95.7388C-2376.45 69.1341 -1685.01 28.2087 -1325.41 99.1206C-890.724 191.649 -179.832 196.637 300.946 174.289C781.724 151.941 1337.43 122.428 1639.41 110.008C2055.92 89.0107 2907.74 43.9605 3363.18 156.468C3769.16 262.744 4482.18 222.777 4873.45 169.623C5369.2 94.4479 5920 33.5383 6372.22 202.557" stroke="white" stroke-width="0.5"/>
<path d="M-5200.55 37.5029C-4932.05 25.0462 -4294.2 14.0936 -3890.83 69.9367C-3468.92 125.396 -2919.78 124.566 -2699.37 100.658C-2385.02 75.269 -1707.45 33.599 -1347.66 96.9125C-916.222 180.855 -192.762 185.615 291.159 169.954C775.079 154.292 1335.4 125.686 1637.12 110.353C2057.49 84.4321 2929.18 32.939 3380.71 147.953C3790.3 259.396 4501.54 221.891 4892.82 164.193C5395.8 80.8014 5955.03 31.5127 6395.3 196.93" stroke="white" stroke-width="0.5"/>
<path d="M-5201.23 46.3802C-4936.21 32.154 -4305.77 16.8652 -3904.15 69.52C-3480.29 121.714 -2927.07 129.07 -2705.15 106.363C-2394.01 82.2493 -1730.99 39.7981 -1371 95.1408C-942.968 170.076 -206.323 174.597 280.894 165.95C768.11 157.303 1333.26 129.647 1634.72 111.26C2059.14 80.1734 2951.68 21.9215 3399.12 139.565C3812.49 256.428 4521.86 221.506 4913.14 159.042C5423.7 67.0304 5991.78 29.9323 6419.51 191.571" stroke="white" stroke-width="0.5"/>
<path d="M-5201.94 56.2491C-4940.57 40.1706 -4317.88 20.343 -3918.1 69.6604C-3492.2 118.437 -2934.71 134.361 -2711.21 112.911C-2403.42 90.1324 -1755.63 46.8635 -1395.44 93.8628C-970.967 159.37 -220.521 163.641 270.146 162.336C760.813 161.031 1331.03 134.371 1632.2 112.785C2060.87 76.2923 2975.22 10.9657 3418.37 131.362C3835.7 253.899 4543.13 221.68 4934.41 154.226C5452.89 53.1923 6030.25 28.8546 6444.85 186.538" stroke="white" stroke-width="0.5"/>
<path d="M-5202.67 67.1623C-4945.12 49.1489 -4330.53 24.5798 -3932.66 70.4108C-3504.63 115.618 -2942.69 140.492 -2717.53 120.355C-2413.24 98.9713 -1781.37 54.8482 -1420.96 93.1315C-1000.21 148.789 -235.351 152.799 258.92 159.164C753.192 165.53 1328.69 139.909 1629.57 114.982C2062.67 72.8416 2999.82 0.124402 3438.5 123.397C3859.96 251.86 4565.35 222.465 4956.63 149.8C5483.4 39.3401 6070.44 28.3325 6471.32 181.885" stroke="white" stroke-width="0.5"/>
<path d="M-5203.44 81.3784C-4949.86 61.3474 -4343.72 31.8341 -3947.85 74.0297C-3517.6 115.514 -2951 149.722 -2724.12 130.954C-2423.49 111.024 -1808.2 66.0106 -1447.58 95.2053C-1030.71 140.593 -250.815 144.33 247.215 158.693C745.244 173.056 1326.26 148.52 1626.83 120.11C2064.55 72.0798 3025.47 -8.34393 3459.47 117.927C3885.25 252.571 4588.52 226.12 4979.79 148.02C5515.21 27.7321 6112.34 30.6245 6498.92 179.869" stroke="white" stroke-width="0.5"/>
<path d="M-5204.25 107.57C-4954.8 85.4384 -4357.45 50.7783 -3963.66 89.1894C-3531.1 126.798 -2959.66 170.722 -2730.98 153.38C-2434.16 134.964 -1836.14 89.023 -1475.29 108.757C-1062.46 143.453 -266.914 146.907 235.028 169.596C736.97 192.284 1323.72 168.877 1623.97 136.84C2066.5 82.6793 3052.18 -5.76677 3481.31 123.626C3911.58 264.703 4612.63 241.318 5003.91 157.56C5548.32 27.0409 6155.96 44.403 6527.66 189.163" stroke="white" stroke-width="0.5"/>
<path d="M-5205.08 134.952C-4959.93 110.637 -4371.73 70.6274 -3980.09 105.105C-3545.14 138.686 -2968.66 192.708 -2738.12 176.848C-2445.25 160.005 -1865.18 113.101 -1504.09 123.001C-1095.46 146.585 -283.648 149.744 222.36 181.086C728.369 212.429 1321.08 190.194 1621.01 154.388C2068.54 93.8551 3079.93 -2.92927 3504.01 129.708C3938.95 277.472 4637.7 257.273 5028.97 167.634C5582.74 26.4814 6201.3 58.8829 6557.52 198.982" stroke="white" stroke-width="0.5"/>
<path d="M-5205.95 163.511C-4965.26 136.931 -4386.54 91.369 -3997.15 121.764C-3559.7 151.165 -2978 215.668 -2745.52 201.346C-2456.76 186.136 -1895.32 138.231 -1533.98 137.925C-1129.71 149.976 -301.016 152.828 209.213 193.152C719.442 233.476 1318.35 212.459 1617.93 172.742C2070.64 105.595 3108.73 0.156288 3527.57 136.161C3967.35 290.865 4663.71 273.973 5054.99 178.231C5618.45 26.0412 6248.35 74.052 6588.51 209.313" stroke="white" stroke-width="0.5"/>
<path d="M-5206.84 193.242C-4970.78 164.313 -4401.9 112.996 -4014.82 139.16C-3574.8 164.227 -2987.69 239.595 -2753.2 226.866C-2468.69 213.349 -1926.56 164.407 -1564.96 153.522C-1165.21 153.62 -319.016 156.155 195.588 205.788C710.192 255.421 1315.51 235.666 1614.74 191.894C2072.83 117.892 3138.59 3.48309 3551.99 142.978C3996.79 304.876 4690.68 291.411 5081.95 189.343C5655.48 25.7135 6297.13 89.9034 6620.65 220.15" stroke="white" stroke-width="0.5"/>
<path d="M-5207.77 224.135C-4976.5 192.775 -4417.79 135.501 -4033.13 157.284C-3590.43 177.866 -2997.71 264.48 -2761.14 253.401C-2481.04 241.636 -1958.9 191.621 -1597.03 169.785C-1201.96 157.508 -337.65 159.714 181.482 218.984C700.615 278.254 1312.58 259.806 1611.43 211.836C2075.1 130.738 3169.49 7.0429 3577.27 150.151C4027.26 319.496 4718.59 309.579 5109.87 200.962C5693.81 25.4902 6347.62 106.429 6653.9 231.484" stroke="white" stroke-width="0.5"/>
<path d="M-5208.73 256.184C-4982.41 222.31 -4434.23 158.876 -4052.05 176.13C-3606.59 192.073 -3008.07 290.315 -2769.35 280.943C-2493.81 270.99 -1992.34 219.865 -1630.19 186.705C-1239.96 161.632 -356.918 163.498 166.898 232.734C690.713 301.969 1309.55 284.871 1608.02 232.561C2077.44 144.125 3201.45 10.8281 3603.41 157.673C4058.78 334.718 4747.46 328.469 5138.73 213.081C5733.44 25.3636 6399.83 123.621 6688.3 243.309" stroke="white" stroke-width="0.5"/>
<path d="M-5209.72 289.38C-4988.51 252.91 -4451.2 183.113 -4071.59 195.688C-3623.28 206.84 -3018.77 317.094 -2777.84 309.484C-2506.99 301.402 -2026.88 249.131 -1664.45 204.274C-1279.21 165.984 -376.82 167.5 151.832 247.028C680.484 326.556 1306.41 310.854 1604.49 254.061C2079.86 158.045 3234.46 14.8307 3630.41 165.534C4091.33 350.533 4777.27 348.074 5168.55 225.691C5774.37 25.3256 6453.75 141.471 6723.82 255.615" stroke="white" stroke-width="0.5"/>
<path d="M-5210.74 323.721C-4994.81 284.571 -4468.72 208.209 -4091.76 215.956C-3640.5 222.165 -3029.82 344.813 -2786.59 339.021C-2520.6 332.87 -2062.52 279.417 -1699.79 222.491C-1319.71 170.563 -397.357 171.717 136.286 261.866C669.929 352.015 1303.18 337.752 1600.85 276.333C2082.35 172.496 3268.52 19.0483 3658.27 173.734C4124.91 366.939 4808.03 368.391 5199.31 238.791C5816.61 25.374 6509.4 159.978 6760.47 268.401" stroke="white" stroke-width="0.5"/>
<path d="M-5211.8 359.2C-5001.31 317.288 -4486.78 234.157 -4112.55 236.928C-3658.25 238.041 -3041.21 373.466 -2795.62 369.548C-2534.63 365.388 -2099.26 310.715 -1736.23 241.348C-1361.46 175.361 -418.528 176.142 120.26 277.239C659.048 378.336 1299.84 365.558 1597.09 299.37C2084.92 187.472 3303.64 23.4739 3686.98 182.264C4159.53 383.93 4839.74 389.413 5231.02 252.373C5860.16 25.5016 6566.76 179.133 6798.26 281.659" stroke="white" stroke-width="0.5"/>
<path d="M-5212.88 395.812C-5008 351.055 -4505.38 260.954 -4133.97 258.599C-3676.54 254.463 -3052.93 403.047 -2804.91 401.06C-2549.08 398.95 -2137.1 343.022 -1773.76 260.841C-1404.46 180.374 -440.331 180.77 103.756 293.144C647.843 405.517 1296.41 394.268 1593.23 323.168C2087.58 202.966 3339.8 28.1028 3716.56 191.121C4195.19 401.501 4872.41 411.135 5263.69 266.432C5905 25.7039 6625.84 198.933 6837.18 295.385" stroke="white" stroke-width="0.5"/>
</g>
</svg>
