<svg width="251" height="137" viewBox="0 0 251 137" fill="none" xmlns="http://www.w3.org/2000/svg">
<path d="M137.877 121.017C128.911 125.714 121.653 126.14 112.687 121.017L23.4575 67.65C20.042 64.2345 19.6225 59.5414 23.4576 57.4035L112.687 4.46332C121.226 -0.65986 128.911 -0.232924 137.877 4.46332L222.41 53.5612C232.657 59.1114 229.668 65.0885 220.703 71.0655L137.877 121.017Z" fill="#CECECE" stroke="#CECECE" stroke-width="0.5"/>
<g filter="url(#filter0_d_434_7199)">
<path d="M224.972 55.2689C230.768 60.8673 229.371 64.2688 221.557 70.6386V83.0198L228.388 79.1773C230.279 77.4803 230.589 76.3144 230.522 74.0541V64.6615C230.462 59.0694 228.909 57.3209 224.972 55.2689Z" fill="white"/>
</g>
<g filter="url(#filter1_d_434_7199)">
<path d="M45.658 80.4579V92.8391L23.0304 79.1771C20.8956 77.4694 20.4688 75.7616 20.4688 72.7731V62.0997C21.3226 64.2344 22.6034 66.796 23.8842 67.2229L45.658 80.4579Z" fill="white"/>
</g>
<g filter="url(#filter2_d_434_7199)">
<path d="M56.3301 99.2429V87.2887L63.1611 91.5581V103.512L56.3301 99.2429Z" fill="white"/>
</g>
<path d="M45.6582 92.839L112.26 132.971M112.26 132.971V120.862M112.26 132.971C120.022 137.69 130.192 137.667 137.877 132.971M137.877 132.971L139.829 131.806M137.877 132.971V131.263M137.877 121.017V124.005M210.883 89.3909L221.556 70.6383V74.0538M210.883 89.3909L213.871 87.6069M210.883 89.3909L207.967 91.1313M213.871 87.6069L221.556 74.0538M213.871 87.6069L216.86 85.8229M221.556 74.0538V77.0424M221.556 77.0424L216.86 85.8229M221.556 77.0424V80.0309M216.86 85.8229L219.208 84.4212M219.208 84.4212L221.556 83.0195V80.0309M219.208 84.4212L221.556 80.0309M207.967 91.1313L218.141 72.773M207.967 91.1313L205.333 92.704M205.333 92.704L214.725 74.9077M205.333 92.704L201.917 94.7428M201.917 94.7428L210.456 77.4693M201.917 94.7428L198.502 96.7817M198.502 96.7817L206.614 79.604M198.502 96.7817L195.513 98.5657M195.513 98.5657L202.771 81.7387M195.513 98.5657L191.856 100.749M191.856 100.749L198.929 84.3003M191.856 100.749L187.941 103.086M187.941 103.086L195.086 86.435M187.941 103.086L184.84 104.937M184.84 104.937L191.244 88.9966M184.84 104.937L181.851 106.721M181.851 106.721L187.941 90.7044M181.851 106.721L178.863 108.505M178.863 108.505L183.986 93.266M178.863 108.505L175.783 110.343M175.783 110.343L180.57 95.4007M175.783 110.343L172.885 112.073M172.885 112.073L177.155 97.5353M172.885 112.073L170.324 113.602M170.324 113.602L173.739 99.67M170.324 113.602L167.335 115.386M167.335 115.386L170.324 101.378M167.335 115.386L163.624 117.601M163.624 117.601L167.335 103.086M163.624 117.601L160.077 119.719M160.077 119.719L163.624 105.442M160.077 119.719L156.472 121.871M156.472 121.871L160.077 107.782M156.472 121.871L152.896 124.005M152.896 124.005C152.835 123.664 155.381 114.471 156.662 109.917M152.896 124.005L148.977 126.345M148.977 126.345L152.392 112.478M148.977 126.345L145.744 128.275M145.744 128.275L149.404 114.186M145.744 128.275L142.573 130.168M142.573 130.168L145.988 116.321M142.573 130.168L139.829 131.806M139.829 131.806L143 118.028M137.877 131.263L140.438 119.719M137.877 131.263V124.005M137.877 124.005L138.731 120.59" stroke="#CECECE" stroke-width="0.5"/>
<g filter="url(#filter3_f_434_7199)">
<path d="M56.2567 56.7648C51.9153 53.7003 63.5215 51.0134 67.8628 48.2043L75.8715 51.9184C76.893 56.0043 76.115 63.149 72.7952 63.149C68.9434 62.6179 61.07 59.8569 56.2567 56.7648Z" fill="#7A7A7A"/>
</g>
<path d="M61.957 54.5982L74.5846 61.8802V67.8151L61.957 60.4995V54.5982Z" fill="#D9D9D9"/>
<path d="M88.1647 54.2118L75.1914 61.8759V67.8108L88.1647 60.1131V54.2118Z" fill="#D9D9D9"/>
<path d="M74.8658 47.0601L62.6992 54.4661L74.8658 62.1366L87.2972 54.4661L74.8658 47.0601Z" fill="#969696" stroke="white"/>
<g filter="url(#filter4_f_434_7199)">
<path d="M82.6317 72.2747C78.2903 69.2102 89.8965 66.5233 94.2378 63.7142L102.247 67.4283C103.268 71.5142 102.49 78.6589 99.1702 78.6589C95.3184 78.1278 87.445 75.3668 82.6317 72.2747Z" fill="#7A7A7A"/>
</g>
<path d="M88.332 70.1081L100.96 77.3901V83.3249L88.332 76.0094V70.1081Z" fill="#D9D9D9"/>
<path d="M114.54 69.7217L101.566 77.3858V83.3206L114.54 75.623V69.7217Z" fill="#D9D9D9"/>
<path d="M101.241 62.57L89.0742 69.976L101.241 77.6465L113.672 69.976L101.241 62.57Z" fill="#969696" stroke="white"/>
<g filter="url(#filter5_f_434_7199)">
<path d="M109.013 87.9273C104.671 84.8629 116.277 82.1759 120.619 79.3669L128.627 83.0809C129.649 87.1668 128.871 94.3115 125.551 94.3115C121.699 93.7805 113.826 91.0195 109.013 87.9273Z" fill="#7A7A7A"/>
</g>
<path d="M114.713 85.7607L127.34 93.0427V98.9776L114.713 91.6621V85.7607Z" fill="#D9D9D9"/>
<path d="M140.921 85.3743L127.947 93.0384V98.9733L140.921 91.2757V85.3743Z" fill="#D9D9D9"/>
<path d="M127.622 78.2227L115.455 85.6286L127.622 93.2991L140.053 85.6286L127.622 78.2227Z" fill="#969696" stroke="white"/>
<g filter="url(#filter6_f_434_7199)">
<path d="M80.9793 40.8638C76.6379 37.7994 88.2441 35.1125 92.5854 32.3034L100.594 36.0174C101.616 40.1033 100.838 47.2481 97.5178 47.2481C93.6661 46.717 85.7926 43.956 80.9793 40.8638Z" fill="#7A7A7A"/>
</g>
<path d="M86.6797 38.6973L99.3073 45.9792V51.9141L86.6797 44.5986V38.6973Z" fill="#D9D9D9"/>
<path d="M112.887 38.3109L99.9141 45.9749V51.9098L112.887 44.2122V38.3109Z" fill="#D9D9D9"/>
<path d="M99.5885 31.1592L87.4219 38.5651L99.5885 46.2356L112.02 38.5651L99.5885 31.1592Z" fill="#969696" stroke="white"/>
<g filter="url(#filter7_f_434_7199)">
<path d="M107.356 56.3737C103.015 53.3092 114.621 50.6223 118.962 47.8132L126.971 51.5273C127.993 55.6132 127.215 62.7579 123.895 62.7579C120.043 62.2268 112.17 59.4658 107.356 56.3737Z" fill="#7A7A7A"/>
</g>
<path d="M113.055 54.2072L125.682 61.4891V67.424L113.055 60.1085V54.2072Z" fill="#D9D9D9"/>
<path d="M139.264 53.8207L126.291 61.4848V67.4197L139.264 59.7221V53.8207Z" fill="#D9D9D9"/>
<path d="M125.965 46.6691L113.799 54.075L125.965 61.7455L138.397 54.075L125.965 46.6691Z" fill="#969696" stroke="white"/>
<g filter="url(#filter8_f_434_7199)">
<path d="M133.735 72.0264C129.394 68.962 141 66.2751 145.341 63.466L153.35 67.18C154.372 71.2659 153.593 78.4107 150.274 78.4107C146.422 77.8796 138.549 75.1186 133.735 72.0264Z" fill="#7A7A7A"/>
</g>
<path d="M139.436 69.8599L152.063 77.1418V83.0767L139.436 75.7612V69.8599Z" fill="#D9D9D9"/>
<path d="M165.643 69.4734L152.67 77.1375V83.0724L165.643 75.3748V69.4734Z" fill="#D9D9D9"/>
<path d="M152.344 62.3218L140.178 69.7277L152.344 77.3982L164.776 69.7277L152.344 62.3218Z" fill="#969696" stroke="white"/>
<g filter="url(#filter9_f_434_7199)">
<path d="M105.7 26.3552C101.359 23.2907 112.965 20.6038 117.306 17.7947L125.315 21.5088C126.336 25.5947 125.558 32.7394 122.239 32.7394C118.387 32.2083 110.513 29.4473 105.7 26.3552Z" fill="#7A7A7A"/>
</g>
<path d="M111.4 24.1886L124.028 31.4706V37.4055L111.4 30.0899V24.1886Z" fill="#D9D9D9"/>
<path d="M137.608 23.8022L124.635 31.4663V37.4011L137.608 29.7035V23.8022Z" fill="#D9D9D9"/>
<path d="M124.309 16.6505L112.143 24.0565L124.309 31.727L136.741 24.0565L124.309 16.6505Z" fill="#969696" stroke="white"/>
<g filter="url(#filter10_f_434_7199)">
<path d="M132.079 41.865C127.738 38.8006 139.344 36.1136 143.685 33.3046L151.694 37.0186C152.715 41.1045 151.937 48.2492 148.617 48.2492C144.766 47.7182 136.892 44.9572 132.079 41.865Z" fill="#7A7A7A"/>
</g>
<path d="M137.779 39.6984L150.407 46.9804V52.9153L137.779 45.5998V39.6984Z" fill="#D9D9D9"/>
<path d="M163.987 39.312L151.014 46.9761V52.911L163.987 45.2133V39.312Z" fill="#D9D9D9"/>
<path d="M150.688 32.1603L138.521 39.5662L150.688 47.2367L163.119 39.5662L150.688 32.1603Z" fill="#969696" stroke="white"/>
<g filter="url(#filter11_f_434_7199)">
<path d="M158.456 57.5178C154.115 54.4533 165.721 51.7664 170.062 48.9573L178.071 52.6714C179.092 56.7573 178.314 63.902 174.994 63.902C171.143 63.3709 163.269 60.6099 158.456 57.5178Z" fill="#7A7A7A"/>
</g>
<path d="M164.156 55.3512L176.784 62.6332V68.568L164.156 61.2525V55.3512Z" fill="#D9D9D9"/>
<path d="M190.364 54.9648L177.391 62.6289V68.5637L190.364 60.8661V54.9648Z" fill="#D9D9D9"/>
<path d="M177.065 47.8131L164.898 55.2191L177.065 62.8896L189.496 55.2191L177.065 47.8131Z" fill="#969696" stroke="white"/>
<defs>
<filter id="filter0_d_434_7199" x="201.557" y="35.2689" width="48.9746" height="67.7509" filterUnits="userSpaceOnUse" color-interpolation-filters="sRGB">
<feFlood flood-opacity="0" result="BackgroundImageFix"/>
<feColorMatrix in="SourceAlpha" type="matrix" values="0 0 0 0 0 0 0 0 0 0 0 0 0 0 0 0 0 0 127 0" result="hardAlpha"/>
<feOffset/>
<feGaussianBlur stdDeviation="10"/>
<feComposite in2="hardAlpha" operator="out"/>
<feColorMatrix type="matrix" values="0 0 0 0 1 0 0 0 0 1 0 0 0 0 1 0 0 0 1 0"/>
<feBlend mode="normal" in2="BackgroundImageFix" result="effect1_dropShadow_434_7199"/>
<feBlend mode="normal" in="SourceGraphic" in2="effect1_dropShadow_434_7199" result="shape"/>
</filter>
<filter id="filter1_d_434_7199" x="0.46875" y="42.0997" width="65.1895" height="70.7394" filterUnits="userSpaceOnUse" color-interpolation-filters="sRGB">
<feFlood flood-opacity="0" result="BackgroundImageFix"/>
<feColorMatrix in="SourceAlpha" type="matrix" values="0 0 0 0 0 0 0 0 0 0 0 0 0 0 0 0 0 0 127 0" result="hardAlpha"/>
<feOffset/>
<feGaussianBlur stdDeviation="10"/>
<feComposite in2="hardAlpha" operator="out"/>
<feColorMatrix type="matrix" values="0 0 0 0 1 0 0 0 0 1 0 0 0 0 1 0 0 0 1 0"/>
<feBlend mode="normal" in2="BackgroundImageFix" result="effect1_dropShadow_434_7199"/>
<feBlend mode="normal" in="SourceGraphic" in2="effect1_dropShadow_434_7199" result="shape"/>
</filter>
<filter id="filter2_d_434_7199" x="36.3301" y="67.2887" width="46.8301" height="56.2236" filterUnits="userSpaceOnUse" color-interpolation-filters="sRGB">
<feFlood flood-opacity="0" result="BackgroundImageFix"/>
<feColorMatrix in="SourceAlpha" type="matrix" values="0 0 0 0 0 0 0 0 0 0 0 0 0 0 0 0 0 0 127 0" result="hardAlpha"/>
<feOffset/>
<feGaussianBlur stdDeviation="10"/>
<feComposite in2="hardAlpha" operator="out"/>
<feColorMatrix type="matrix" values="0 0 0 0 1 0 0 0 0 1 0 0 0 0 1 0 0 0 1 0"/>
<feBlend mode="normal" in2="BackgroundImageFix" result="effect1_dropShadow_434_7199"/>
<feBlend mode="normal" in="SourceGraphic" in2="effect1_dropShadow_434_7199" result="shape"/>
</filter>
<filter id="filter3_f_434_7199" x="45.3008" y="38.2043" width="40.9902" height="34.9446" filterUnits="userSpaceOnUse" color-interpolation-filters="sRGB">
<feFlood flood-opacity="0" result="BackgroundImageFix"/>
<feBlend mode="normal" in="SourceGraphic" in2="BackgroundImageFix" result="shape"/>
<feGaussianBlur stdDeviation="5" result="effect1_foregroundBlur_434_7199"/>
</filter>
<filter id="filter4_f_434_7199" x="71.6758" y="53.7142" width="40.9902" height="34.9446" filterUnits="userSpaceOnUse" color-interpolation-filters="sRGB">
<feFlood flood-opacity="0" result="BackgroundImageFix"/>
<feBlend mode="normal" in="SourceGraphic" in2="BackgroundImageFix" result="shape"/>
<feGaussianBlur stdDeviation="5" result="effect1_foregroundBlur_434_7199"/>
</filter>
<filter id="filter5_f_434_7199" x="98.0566" y="69.3669" width="40.9902" height="34.9446" filterUnits="userSpaceOnUse" color-interpolation-filters="sRGB">
<feFlood flood-opacity="0" result="BackgroundImageFix"/>
<feBlend mode="normal" in="SourceGraphic" in2="BackgroundImageFix" result="shape"/>
<feGaussianBlur stdDeviation="5" result="effect1_foregroundBlur_434_7199"/>
</filter>
<filter id="filter6_f_434_7199" x="70.0234" y="22.3034" width="40.9902" height="34.9446" filterUnits="userSpaceOnUse" color-interpolation-filters="sRGB">
<feFlood flood-opacity="0" result="BackgroundImageFix"/>
<feBlend mode="normal" in="SourceGraphic" in2="BackgroundImageFix" result="shape"/>
<feGaussianBlur stdDeviation="5" result="effect1_foregroundBlur_434_7199"/>
</filter>
<filter id="filter7_f_434_7199" x="96.4004" y="37.8132" width="40.9902" height="34.9446" filterUnits="userSpaceOnUse" color-interpolation-filters="sRGB">
<feFlood flood-opacity="0" result="BackgroundImageFix"/>
<feBlend mode="normal" in="SourceGraphic" in2="BackgroundImageFix" result="shape"/>
<feGaussianBlur stdDeviation="5" result="effect1_foregroundBlur_434_7199"/>
</filter>
<filter id="filter8_f_434_7199" x="122.779" y="53.466" width="40.9902" height="34.9446" filterUnits="userSpaceOnUse" color-interpolation-filters="sRGB">
<feFlood flood-opacity="0" result="BackgroundImageFix"/>
<feBlend mode="normal" in="SourceGraphic" in2="BackgroundImageFix" result="shape"/>
<feGaussianBlur stdDeviation="5" result="effect1_foregroundBlur_434_7199"/>
</filter>
<filter id="filter9_f_434_7199" x="94.7441" y="7.79474" width="40.9902" height="34.9446" filterUnits="userSpaceOnUse" color-interpolation-filters="sRGB">
<feFlood flood-opacity="0" result="BackgroundImageFix"/>
<feBlend mode="normal" in="SourceGraphic" in2="BackgroundImageFix" result="shape"/>
<feGaussianBlur stdDeviation="5" result="effect1_foregroundBlur_434_7199"/>
</filter>
<filter id="filter10_f_434_7199" x="121.123" y="23.3046" width="40.9902" height="34.9446" filterUnits="userSpaceOnUse" color-interpolation-filters="sRGB">
<feFlood flood-opacity="0" result="BackgroundImageFix"/>
<feBlend mode="normal" in="SourceGraphic" in2="BackgroundImageFix" result="shape"/>
<feGaussianBlur stdDeviation="5" result="effect1_foregroundBlur_434_7199"/>
</filter>
<filter id="filter11_f_434_7199" x="147.5" y="38.9573" width="40.9902" height="34.9446" filterUnits="userSpaceOnUse" color-interpolation-filters="sRGB">
<feFlood flood-opacity="0" result="BackgroundImageFix"/>
<feBlend mode="normal" in="SourceGraphic" in2="BackgroundImageFix" result="shape"/>
<feGaussianBlur stdDeviation="5" result="effect1_foregroundBlur_434_7199"/>
</filter>
</defs>
</svg>
