<svg width="240" height="196" viewBox="0 0 240 196" fill="none" xmlns="http://www.w3.org/2000/svg">
<path d="M133.957 177.183C123.746 182.531 115.48 183.018 105.269 177.183L3.64604 116.403C-0.243858 112.514 -0.72163 107.169 3.64612 104.734L105.269 44.4406C114.994 38.6058 123.746 39.0921 133.957 44.4406L230.232 100.358C241.901 106.679 238.498 113.486 228.287 120.293L133.957 177.183Z" fill="#CECECE" stroke="white" stroke-width="0.5"/>
<path d="M233.15 102.302C239.751 108.678 238.159 112.552 229.26 119.807V133.908L237.04 129.531C239.193 127.599 239.547 126.271 239.471 123.697V112.999C239.402 106.631 237.633 104.639 233.15 102.302Z" fill="white"/>
<path d="M28.9301 130.99V145.091L3.1596 129.532C0.72837 127.587 0.242241 125.642 0.242188 122.238V110.082C1.21466 112.513 2.67336 115.431 4.13207 115.917L28.9301 130.99Z" fill="white"/>
<path d="M41.0859 152.385V138.77L48.8657 143.632V157.247L41.0859 152.385Z" fill="white"/>
<path d="M28.9297 145.091L104.782 190.797M104.782 190.797V177.006M104.782 190.797C113.622 196.171 125.204 196.145 133.957 190.797M133.957 190.797L136.18 189.469M133.957 190.797V188.852M133.957 177.182V180.586M217.103 141.164L229.259 119.806V123.696M217.103 141.164L220.506 139.132M217.103 141.164L213.782 143.146M220.506 139.132L229.259 123.696M220.506 139.132L223.91 137.1M229.259 123.696V127.1M229.259 127.1L223.91 137.1M229.259 127.1V130.504M223.91 137.1L226.584 135.504M226.584 135.504L229.259 133.907V130.504M226.584 135.504L229.259 130.504M213.782 143.146L225.369 122.238M213.782 143.146L210.782 144.937M210.782 144.937L221.479 124.669M210.782 144.937L206.892 147.259M206.892 147.259L216.617 127.586M206.892 147.259L203.002 149.581M203.002 149.581L212.24 130.017M203.002 149.581L199.598 151.613M199.598 151.613L207.864 132.449M199.598 151.613L195.433 154.099M195.433 154.099L203.488 135.366M195.433 154.099L190.975 156.76M190.975 156.76L199.112 137.797M190.975 156.76L187.442 158.869M187.442 158.869L194.736 140.715M187.442 158.869L184.039 160.901M184.039 160.901L190.975 142.659M184.039 160.901L180.635 162.932M180.635 162.932L186.47 145.577M180.635 162.932L177.128 165.026M177.128 165.026L182.58 148.008M177.128 165.026L173.828 166.996M173.828 166.996L178.69 150.439M173.828 166.996L170.91 168.738M170.91 168.738L174.8 152.87M170.91 168.738L167.507 170.769M167.507 170.769L170.91 154.815M167.507 170.769L163.28 173.292M163.28 173.292L167.507 156.76M163.28 173.292L159.241 175.704M159.241 175.704L163.28 159.444M159.241 175.704L155.135 178.155M155.135 178.155L159.241 162.109M155.135 178.155L151.062 180.586M151.062 180.586C150.992 180.197 153.892 169.727 155.351 164.54M151.062 180.586L146.599 183.25M146.599 183.25L150.489 167.457M146.599 183.25L142.917 185.448M142.917 185.448L147.085 169.402M142.917 185.448L139.305 187.604M139.305 187.604L143.195 171.834M139.305 187.604L136.18 189.469M136.18 189.469L139.791 173.779M133.957 188.852L136.874 175.704M133.957 188.852V180.586M133.957 180.586L134.929 176.696" stroke="white" stroke-width="0.5"/>
<path d="M118.964 2.51221L67.0246 126.477L47.2949 91.1771L118.964 2.51221Z" fill="white"/>
<path d="M66.9062 126.358L80.2054 94.5716M119.104 1.5979L106.17 32.5129M119.104 1.5979V35.1729M119.104 1.5979L131.192 31.004M119.104 138.77V104.169M170.39 126.358L157.323 94.5716M80.2054 94.5716L119.104 104.169M80.2054 94.5716L93.2356 63.4279M119.104 104.169L157.323 94.5716M119.104 104.169V68.7479M157.323 94.5716L173.262 68.7479M157.323 94.5716L144.521 63.4279M93.2356 63.4279L119.104 68.7479M93.2356 63.4279L106.17 32.5129M119.104 68.7479C127.219 66.9746 143.663 63.4279 144.521 63.4279M119.104 68.7479V35.1729M144.521 63.4279L154.662 45.7719M144.521 63.4279L131.192 31.004M106.17 32.5129L119.104 35.1729M119.104 35.1729L131.192 31.004M131.192 31.004L137.02 23.7531" stroke="white"/>
<path d="M119.198 1.39062L46.8125 91.0101L66.6983 126.54L119.198 138.737L170.636 126.54L191.318 91.0101L119.198 1.39062Z" stroke="white"/>
<circle cx="119.066" cy="103.841" r="2.61059" fill="white" stroke="#969696"/>
<circle cx="119.066" cy="69.0705" r="2.61059" fill="white" stroke="#969696"/>
<circle cx="156.966" cy="94.2217" r="2.61059" fill="white" stroke="#969696"/>
<circle cx="144.564" cy="62.8498" r="2.61059" fill="white" stroke="#969696"/>
<circle cx="93.4524" cy="62.8498" r="2.61059" fill="white" stroke="#969696"/>
<circle cx="80.0207" cy="94.2217" r="2.61059" fill="white" stroke="#969696"/>
<circle cx="118.964" cy="34.3003" r="2.61059" fill="white" stroke="#969696"/>
<circle cx="106.564" cy="32.2141" r="2.61059" fill="white" stroke="#969696"/>
<circle cx="131.366" cy="30.5918" r="2.61059" fill="white" stroke="#969696"/>
</svg>
