<svg width="259" height="257" viewBox="0 0 259 257" fill="none" xmlns="http://www.w3.org/2000/svg">
<path d="M142.606 240.621C133.294 245.499 125.755 245.942 116.443 240.621L23.762 185.19C20.2144 181.642 19.7787 176.767 23.7621 174.547L116.443 119.559C125.312 114.238 133.294 114.681 142.606 119.559L230.409 170.556C241.052 176.321 237.948 182.529 228.635 188.737L142.606 240.621Z" fill="#0F0E0E" stroke="white" stroke-width="0.5"/>
<g filter="url(#filter0_d_561_1061)">
<path d="M233.071 172.33C239.092 178.145 237.64 181.678 229.523 188.294V201.154L236.619 197.163C238.583 195.401 238.905 194.19 238.836 191.842V182.086C238.773 176.278 237.16 174.462 233.071 172.33Z" fill="#F73737"/>
</g>
<g filter="url(#filter1_d_561_1061)">
<path d="M46.8217 198.493V211.353L23.3189 197.163C21.1016 195.389 20.6583 193.615 20.6582 190.511V179.425C21.5451 181.642 22.8754 184.303 24.2058 184.746L46.8217 198.493Z" fill="#F73737"/>
</g>
<g filter="url(#filter2_d_561_1061)">
<path d="M57.9082 218.005V205.588L65.0034 210.023V222.439L57.9082 218.005Z" fill="#F73737"/>
</g>
<path d="M46.8223 211.354L116 253.038M116 253.038V240.46M116 253.038C124.062 257.939 134.625 257.916 142.607 253.038M142.607 253.038L144.635 251.827M142.607 253.038V251.264M142.607 240.621V243.725M218.437 207.772L229.523 188.294V191.842M218.437 207.772L221.541 205.919M218.437 207.772L215.409 209.58M221.541 205.919L229.523 191.842M221.541 205.919L224.645 204.066M229.523 191.842V194.946M229.523 194.946L224.645 204.066M229.523 194.946V198.05M224.645 204.066L227.084 202.61M227.084 202.61L229.523 201.154V198.05M227.084 202.61L229.523 198.05M215.409 209.58L225.976 190.511M215.409 209.58L212.672 211.213M212.672 211.213L222.428 192.729M212.672 211.213L209.125 213.331M209.125 213.331L217.994 195.389M209.125 213.331L205.577 215.449M205.577 215.449L214.003 197.607M205.577 215.449L202.473 217.302M202.473 217.302L210.011 199.824M202.473 217.302L198.674 219.569M198.674 219.569L206.02 202.485M198.674 219.569L194.608 221.996M194.608 221.996L202.029 204.702M194.608 221.996L191.387 223.919M191.387 223.919L198.038 207.362M191.387 223.919L188.282 225.772M188.282 225.772L194.608 209.136M188.282 225.772L185.178 227.625M185.178 227.625L190.5 211.797M185.178 227.625L181.979 229.535M181.979 229.535L186.952 214.014M181.979 229.535L178.97 231.331M178.97 231.331L183.405 216.231M178.97 231.331L176.309 232.92M176.309 232.92L179.857 218.449M176.309 232.92L173.205 234.773M173.205 234.773L176.309 220.223M173.205 234.773L169.351 237.074M169.351 237.074L173.205 221.996M169.351 237.074L165.667 239.273M165.667 239.273L169.351 224.444M165.667 239.273L161.922 241.508M161.922 241.508L165.667 226.874M161.922 241.508L158.208 243.725M158.208 243.725C158.144 243.371 160.789 233.822 162.119 229.091M158.208 243.725L154.137 246.155M154.137 246.155L157.685 231.752M154.137 246.155L150.779 248.16M150.779 248.16L154.58 233.526M150.779 248.16L147.485 250.126M147.485 250.126L151.033 235.743M147.485 250.126L144.635 251.827M144.635 251.827L147.929 237.517M142.607 251.264L145.268 239.273M142.607 251.264V243.725M142.607 243.725L143.494 240.178" stroke="white" stroke-width="0.5"/>
<g filter="url(#filter3_f_561_1061)">
<path d="M147.35 204.85C149.916 202.329 148.905 200.857 144.383 198.173L150.317 194.279L153.099 196.69C155.517 198.369 156.926 198.997 159.775 198.173L171.088 190.013C172.455 189.031 172.059 188.576 171.088 187.788L168.677 184.079L172.386 180.926L176.28 184.079C178.914 185.459 180.322 185.284 182.771 184.079C182.771 184.079 191.487 178.738 192.785 177.217C194.083 175.697 195.55 175.147 194.083 172.767L187.407 168.316L78.9192 137.16L50.9164 154.778C48.3571 156.178 47.5783 159.043 50.9164 161.64L129.547 210.042C133.023 211.667 134.972 211.911 138.449 210.042L147.35 204.85Z" fill="#222222"/>
</g>
<path d="M191.687 152.963L176.545 161.494L161.402 152.75L176.545 143.366L191.687 152.963Z" fill="#0F0E0E" stroke="white" stroke-width="0.3"/>
<path d="M161.402 152.748L176.545 161.493V180.261L161.402 171.303V152.748Z" fill="#150F0F" stroke="white" stroke-width="0.3"/>
<path d="M191.686 171.091V152.963L176.543 161.494V180.262L191.686 171.091Z" fill="#0F0E0E" stroke="white" stroke-width="0.3"/>
<path d="M172.398 168.854L172.451 164.462L168.563 162.24L168.694 166.737L172.398 168.854Z" fill="#F73737" stroke="white" stroke-width="0.3"/>
<path d="M172.638 173.167L172.4 168.855L168.697 166.738L168.565 162.241L164.676 160.019L165.046 168.828L172.638 173.167Z" fill="#161616" stroke="white" stroke-width="0.3"/>
<path d="M168.658 166.775L153.516 175.306L138.373 166.561L153.516 157.177L168.658 166.775Z" fill="#0F0E0E" stroke="white" stroke-width="0.3"/>
<path d="M138.373 166.56L153.516 175.304V194.072L138.373 185.115V166.56Z" fill="#150F0F" stroke="white" stroke-width="0.3"/>
<path d="M168.656 184.903V166.774L153.514 175.305V194.073L168.656 184.903Z" fill="#0F0E0E" stroke="white" stroke-width="0.3"/>
<path d="M149.369 182.665L149.422 178.274L145.533 176.052L145.665 180.549L149.369 182.665Z" fill="#F73737" stroke="white" stroke-width="0.3"/>
<path d="M149.609 186.978L149.371 182.666L145.667 180.55L145.535 176.053L141.647 173.83L142.017 182.639L149.609 186.978Z" fill="#161616" stroke="white" stroke-width="0.3"/>
<path d="M100.705 153.125L85.5625 161.656L70.4199 152.912L85.5625 143.528L100.705 153.125Z" fill="#0F0E0E" stroke="white" stroke-width="0.3"/>
<path d="M70.4199 152.91L85.5625 161.654V180.423L70.4199 171.465V152.91Z" fill="#150F0F" stroke="white" stroke-width="0.3"/>
<path d="M100.703 171.253V153.125L85.5605 161.656V180.424L100.703 171.253Z" fill="#0F0E0E" stroke="white" stroke-width="0.3"/>
<path d="M81.4154 169.016L81.4686 164.625L77.5801 162.403L77.7121 166.9L81.4154 169.016Z" fill="#F73737" stroke="white" stroke-width="0.3"/>
<path d="M81.6554 173.329L81.4176 169.017L77.7143 166.9L77.5824 162.403L73.6938 160.18L74.0635 168.99L81.6554 173.329Z" fill="#161616" stroke="white" stroke-width="0.3"/>
<path d="M122.533 167.202L107.391 175.733L92.248 166.989L107.391 157.605L122.533 167.202Z" fill="#0F0E0E" stroke="white" stroke-width="0.3"/>
<path d="M92.248 166.988L107.391 175.732V194.5L92.248 185.543V166.988Z" fill="#150F0F" stroke="white" stroke-width="0.3"/>
<path d="M122.533 185.33V167.202L107.391 175.733V194.501L122.533 185.33Z" fill="#0F0E0E" stroke="white" stroke-width="0.3"/>
<path d="M103.245 183.093L103.299 178.702L99.4102 176.479L99.5421 180.976L103.245 183.093Z" fill="#F73737" stroke="white" stroke-width="0.3"/>
<path d="M103.485 187.406L103.248 183.094L99.5444 180.977L99.4124 176.48L95.5239 174.258L95.8936 183.067L103.485 187.406Z" fill="#161616" stroke="white" stroke-width="0.3"/>
<path d="M145.945 180.092L130.803 188.623L115.66 179.879L130.803 170.495L145.945 180.092Z" fill="#0F0E0E" stroke="white" stroke-width="0.3"/>
<path d="M115.66 179.877L130.803 188.622V207.39L115.66 198.432V179.877Z" fill="#150F0F" stroke="white" stroke-width="0.3"/>
<path d="M145.943 198.22V180.092L130.801 188.623V207.391L145.943 198.22Z" fill="#0F0E0E" stroke="white" stroke-width="0.3"/>
<path d="M126.658 195.983L126.711 191.591L122.822 189.369L122.954 193.866L126.658 195.983Z" fill="#F73737" stroke="white" stroke-width="0.3"/>
<path d="M126.896 200.296L126.658 195.984L122.955 193.867L122.823 189.37L118.934 187.148L119.304 195.957L126.896 200.296Z" fill="#161616" stroke="white" stroke-width="0.3"/>
<path d="M115.257 99.0432L130.216 107.892L130.215 125.378L114.517 116.956L115.257 99.0432Z" fill="#0F0E0E" stroke="white" stroke-width="0.3"/>
<path d="M130.215 125.378L130.216 107.892L146.47 98.5083L146.284 116.101L130.215 125.378Z" fill="#150F0F" stroke="white" stroke-width="0.3"/>
<path d="M130.958 89.9801L115.259 99.0443L130.218 107.893L146.472 98.5086L130.958 89.9801Z" fill="#161616" stroke="white" stroke-width="0.3"/>
<path d="M138.665 107.802L134.836 109.951L134.855 114.43L138.684 112.067L138.665 107.802Z" fill="#F73737" stroke="white" stroke-width="0.3"/>
<path d="M142.279 105.438L138.664 107.799L138.682 112.065L134.854 114.428L134.873 118.906L142.317 114.182L142.279 105.438Z" fill="#161616" stroke="white" stroke-width="0.3"/>
<path d="M140.523 108.642L155.482 117.49L155.48 134.976L139.782 126.554L140.523 108.642Z" fill="#0F0E0E" stroke="white" stroke-width="0.3"/>
<path d="M155.48 134.977L155.482 117.491L171.736 108.107L171.55 125.699L155.48 134.977Z" fill="#150F0F" stroke="white" stroke-width="0.3"/>
<path d="M156.222 99.5788L140.522 108.643L155.482 117.491L171.736 108.107L156.222 99.5788Z" fill="#161616" stroke="white" stroke-width="0.3"/>
<path d="M163.929 117.401L160.099 119.55L160.119 124.029L163.947 121.666L163.929 117.401Z" fill="#F73737" stroke="white" stroke-width="0.3"/>
<path d="M167.543 115.037L163.927 117.399L163.946 121.664L160.117 124.027L160.137 128.506L167.581 123.781L167.543 115.037Z" fill="#161616" stroke="white" stroke-width="0.3"/>
<path d="M162.351 120.752L177.31 129.6L177.309 147.086L161.61 138.664L162.351 120.752Z" fill="#0F0E0E" stroke="white" stroke-width="0.3"/>
<path d="M177.309 147.087L177.31 129.601L193.564 120.217L193.378 137.81L177.309 147.087Z" fill="#150F0F" stroke="white" stroke-width="0.3"/>
<path d="M178.052 111.689L162.353 120.753L177.312 129.601L193.566 120.217L178.052 111.689Z" fill="#161616" stroke="white" stroke-width="0.3"/>
<path d="M185.759 129.51L181.929 131.66L181.949 136.139L185.778 133.776L185.759 129.51Z" fill="#F73737" stroke="white" stroke-width="0.3"/>
<path d="M189.373 127.146L185.757 129.508L185.776 133.773L181.947 136.136L181.967 140.615L189.411 135.89L189.373 127.146Z" fill="#161616" stroke="white" stroke-width="0.3"/>
<path d="M91.3194 111.968L106.279 120.816L106.277 138.302L90.5791 129.88L91.3194 111.968Z" fill="#0F0E0E" stroke="white" stroke-width="0.3"/>
<path d="M106.277 138.303L106.279 120.817L122.533 111.433L122.346 129.025L106.277 138.303Z" fill="#150F0F" stroke="white" stroke-width="0.3"/>
<path d="M107.019 102.905L91.3193 111.969L106.279 120.817L122.533 111.433L107.019 102.905Z" fill="#161616" stroke="white" stroke-width="0.3"/>
<path d="M114.726 120.726L110.896 122.876L110.916 127.355L114.744 124.992L114.726 120.726Z" fill="#F73737" stroke="white" stroke-width="0.3"/>
<path d="M118.342 118.362L114.726 120.724L114.745 124.989L110.916 127.352L110.936 131.831L118.38 127.106L118.342 118.362Z" fill="#161616" stroke="white" stroke-width="0.3"/>
<path d="M116.585 121.565L131.544 130.413L131.543 147.899L115.845 139.478L116.585 121.565Z" fill="#0F0E0E" stroke="white" stroke-width="0.3"/>
<path d="M131.543 147.9L131.544 130.414L147.798 121.03L147.612 138.623L131.543 147.9Z" fill="#150F0F" stroke="white" stroke-width="0.3"/>
<path d="M132.285 112.502L116.585 121.566L131.544 130.415L147.798 121.031L132.285 112.502Z" fill="#161616" stroke="white" stroke-width="0.3"/>
<path d="M139.991 130.324L136.162 132.474L136.181 136.953L140.01 134.59L139.991 130.324Z" fill="#F73737" stroke="white" stroke-width="0.3"/>
<path d="M143.605 127.96L139.99 130.322L140.008 134.587L136.18 136.95L136.199 141.429L143.643 136.704L143.605 127.96Z" fill="#161616" stroke="white" stroke-width="0.3"/>
<path d="M138.415 133.676L153.374 142.525L153.373 160.011L137.675 151.589L138.415 133.676Z" fill="#0F0E0E" stroke="white" stroke-width="0.3"/>
<path d="M153.373 160.011L153.375 142.525L169.628 133.141L169.442 150.734L153.373 160.011Z" fill="#150F0F" stroke="white" stroke-width="0.3"/>
<path d="M154.115 124.613L138.415 133.678L153.374 142.526L169.628 133.142L154.115 124.613Z" fill="#161616" stroke="white" stroke-width="0.3"/>
<path d="M161.821 142.435L157.992 144.584L158.011 149.063L161.84 146.7L161.821 142.435Z" fill="#F73737" stroke="white" stroke-width="0.3"/>
<path d="M165.435 140.071L161.82 142.433L161.839 146.699L158.01 149.061L158.03 153.54L165.474 148.816L165.435 140.071Z" fill="#161616" stroke="white" stroke-width="0.3"/>
<path d="M68.6046 125.779L83.5639 134.628L83.5624 152.114L67.8643 143.692L68.6046 125.779Z" fill="#0F0E0E" stroke="white" stroke-width="0.3"/>
<path d="M83.5625 152.115L83.564 134.629L99.8178 125.245L99.6316 142.837L83.5625 152.115Z" fill="#150F0F" stroke="white" stroke-width="0.3"/>
<path d="M84.3061 116.716L68.6064 125.781L83.5658 134.629L99.8196 125.245L84.3061 116.716Z" fill="#161616" stroke="white" stroke-width="0.3"/>
<path d="M92.0128 134.538L88.1832 136.688L88.2028 141.166L92.0314 138.804L92.0128 134.538Z" fill="#F73737" stroke="white" stroke-width="0.3"/>
<path d="M95.6267 132.174L92.0113 134.536L92.03 138.801L88.2013 141.164L88.2209 145.643L95.665 140.918L95.6267 132.174Z" fill="#161616" stroke="white" stroke-width="0.3"/>
<path d="M93.8702 135.377L108.83 144.225L108.828 161.711L93.1299 153.289L93.8702 135.377Z" fill="#0F0E0E" stroke="white" stroke-width="0.3"/>
<path d="M108.828 161.712L108.83 144.226L125.083 134.842L124.897 152.434L108.828 161.712Z" fill="#150F0F" stroke="white" stroke-width="0.3"/>
<path d="M109.572 126.314L93.8721 135.378L108.831 144.226L125.085 134.842L109.572 126.314Z" fill="#161616" stroke="white" stroke-width="0.3"/>
<path d="M117.278 144.135L113.449 146.285L113.468 150.764L117.297 148.401L117.278 144.135Z" fill="#F73737" stroke="white" stroke-width="0.3"/>
<path d="M120.892 141.771L117.277 144.133L117.296 148.398L113.467 150.761L113.487 155.24L120.931 150.515L120.892 141.771Z" fill="#161616" stroke="white" stroke-width="0.3"/>
<path d="M115.7 147.488L130.66 156.336L130.658 173.822L114.96 165.4L115.7 147.488Z" fill="#0F0E0E" stroke="white" stroke-width="0.3"/>
<path d="M130.658 173.823L130.66 156.337L146.913 146.953L146.727 164.545L130.658 173.823Z" fill="#150F0F" stroke="white" stroke-width="0.3"/>
<path d="M131.4 138.425L115.7 147.489L130.66 156.337L146.913 146.953L131.4 138.425Z" fill="#161616" stroke="white" stroke-width="0.3"/>
<path d="M139.107 156.246L135.277 158.396L135.297 162.874L139.125 160.512L139.107 156.246Z" fill="#F73737" stroke="white" stroke-width="0.3"/>
<path d="M142.72 153.883L139.105 156.245L139.124 160.51L135.295 162.873L135.315 167.352L142.759 162.627L142.72 153.883Z" fill="#161616" stroke="white" stroke-width="0.3"/>
<g filter="url(#filter4_f_561_1061)">
<path d="M110.578 133.967C107.503 132.209 108.47 129.749 112.687 128.08L123.319 134.493L126.306 129.31C127.304 127.709 128.395 127.631 130.436 127.64L149.239 129.31L155.917 133.527C156.725 134.65 156.751 135.19 155.917 136.076L147.306 141.348L143.88 147.234L140.101 144.511L136.938 147.234C134.914 148.868 133.778 148.355 131.754 147.234L126.306 143.281L124.198 144.511L110.578 133.967Z" fill="#222222"/>
</g>
<path d="M99.3184 99.3564L84.1758 107.887L69.0332 99.1432L84.1758 89.759L99.3184 99.3564Z" fill="#0F0E0E" stroke="white" stroke-width="0.3"/>
<path d="M69.0332 99.1416L84.1758 107.886V126.654L69.0332 117.697V99.1416Z" fill="#150F0F" stroke="white" stroke-width="0.3"/>
<path d="M99.3184 117.484V99.356L84.1758 107.887V126.655L99.3184 117.484Z" fill="#0F0E0E" stroke="white" stroke-width="0.3"/>
<path d="M80.0306 115.247L80.0839 110.856L76.1954 108.633L76.3273 113.131L80.0306 115.247Z" fill="#F73737" stroke="white" stroke-width="0.3"/>
<path d="M80.2706 119.56L80.0329 115.248L76.3295 113.131L76.1976 108.634L72.3091 106.412L72.6788 115.221L80.2706 119.56Z" fill="#161616" stroke="white" stroke-width="0.3"/>
<path d="M150.639 117.057L134.537 123.598L120.626 113.004L136.837 105.616L150.639 117.057Z" fill="#0F0E0E" stroke="#F63737" stroke-width="0.3"/>
<path d="M120.627 113.001L134.538 123.596L132.157 142.213L118.273 131.407L120.627 113.001Z" fill="#150F0F" stroke="#F63737" stroke-width="0.3"/>
<path d="M148.338 135.039L150.637 117.057L134.535 123.598L132.154 142.214L148.338 135.039Z" fill="#0F0E0E" stroke="#F73737" stroke-width="0.3"/>
<path d="M129.492 130.373L130.102 126.024L126.527 123.326L126.087 127.804L129.492 130.373Z" fill="#2A2626" stroke="white" stroke-width="0.3"/>
<path d="M129.181 134.681L129.493 130.374L126.088 127.805L126.527 123.327L122.952 120.629L122.201 129.414L129.181 134.681Z" fill="#161616" stroke="white" stroke-width="0.3"/>
<path d="M172.621 68.065L159.474 79.4331L142.897 73.8699L155.874 61.6657L172.621 68.065Z" fill="#0F0E0E" stroke="#F63737" stroke-width="0.3"/>
<path d="M142.896 73.8689L159.474 79.4321L163.201 97.8266L146.581 92.0544L142.896 73.8689Z" fill="#150F0F" stroke="#F63737" stroke-width="0.3"/>
<path d="M176.222 85.8322L172.622 68.0648L159.475 79.4329L163.202 97.8274L176.222 85.8322Z" fill="#0F0E0E" stroke="#F73737" stroke-width="0.3"/>
<path d="M156.873 87.4701L156.053 83.1557L151.801 81.7497L152.823 86.1311L156.873 87.4701Z" fill="#2A2626" stroke="white" stroke-width="0.3"/>
<path d="M157.965 91.6491L156.876 87.4702L152.826 86.1312L151.804 81.7498L147.551 80.3439L149.663 88.9041L157.965 91.6491Z" fill="#161616" stroke="white" stroke-width="0.3"/>
<path d="M140.393 8.79908L130.32 22.9631L112.896 21.4942L122.605 6.55814L140.393 8.79908Z" fill="#0F0E0E" stroke="#F63737" stroke-width="0.3"/>
<path d="M112.895 21.4929L130.319 22.9619L138.306 39.9458L120.791 38.2839L112.895 21.4929Z" fill="#150F0F" stroke="#F63737" stroke-width="0.3"/>
<path d="M148.107 25.2036L140.392 8.79862L130.32 22.9627L138.307 39.9466L148.107 25.2036Z" fill="#0F0E0E" stroke="#F73737" stroke-width="0.3"/>
<path d="M129.7 31.3876L127.88 27.3911L123.415 27.0348L125.448 31.0482L129.7 31.3876Z" fill="#2A2626" stroke="white" stroke-width="0.3"/>
<path d="M131.752 35.1888L129.702 31.3879L125.45 31.0486L123.417 27.0352L118.952 26.6788L123.035 34.4931L131.752 35.1888Z" fill="#161616" stroke="white" stroke-width="0.3"/>
<path d="M124.482 68.5701L107.537 72.4379L95.5104 59.7449L112.698 55.0594L124.482 68.5701Z" fill="#0F0E0E" stroke="#F63737" stroke-width="0.3"/>
<path d="M95.5098 59.7437L107.537 72.4366L102.194 90.4284L90.2281 77.531L95.5098 59.7437Z" fill="#150F0F" stroke="#F63737" stroke-width="0.3"/>
<path d="M119.321 85.9484L124.481 68.5699L107.536 72.4376L102.194 90.4295L119.321 85.9484Z" fill="#0F0E0E" stroke="#F73737" stroke-width="0.3"/>
<path d="M101.467 78.3138L102.768 74.1193L99.6733 70.882L98.5197 75.2306L101.467 78.3138Z" fill="#2A2626" stroke="white" stroke-width="0.3"/>
<path d="M100.47 82.5156L101.469 78.3143L98.5215 75.2312L99.6752 70.8825L96.5801 67.6452L94.427 76.1951L100.47 82.5156Z" fill="#161616" stroke="white" stroke-width="0.3"/>
<defs>
<filter id="filter0_d_561_1061" x="209.523" y="152.33" width="49.3203" height="68.8242" filterUnits="userSpaceOnUse" color-interpolation-filters="sRGB">
<feFlood flood-opacity="0" result="BackgroundImageFix"/>
<feColorMatrix in="SourceAlpha" type="matrix" values="0 0 0 0 0 0 0 0 0 0 0 0 0 0 0 0 0 0 127 0" result="hardAlpha"/>
<feOffset/>
<feGaussianBlur stdDeviation="10"/>
<feComposite in2="hardAlpha" operator="out"/>
<feColorMatrix type="matrix" values="0 0 0 0 0.966667 0 0 0 0 0.2175 0 0 0 0 0.2175 0 0 0 1 0"/>
<feBlend mode="normal" in2="BackgroundImageFix" result="effect1_dropShadow_561_1061"/>
<feBlend mode="normal" in="SourceGraphic" in2="effect1_dropShadow_561_1061" result="shape"/>
</filter>
<filter id="filter1_d_561_1061" x="0.658203" y="159.425" width="66.1641" height="71.9282" filterUnits="userSpaceOnUse" color-interpolation-filters="sRGB">
<feFlood flood-opacity="0" result="BackgroundImageFix"/>
<feColorMatrix in="SourceAlpha" type="matrix" values="0 0 0 0 0 0 0 0 0 0 0 0 0 0 0 0 0 0 127 0" result="hardAlpha"/>
<feOffset/>
<feGaussianBlur stdDeviation="10"/>
<feComposite in2="hardAlpha" operator="out"/>
<feColorMatrix type="matrix" values="0 0 0 0 0.966667 0 0 0 0 0.2175 0 0 0 0 0.2175 0 0 0 1 0"/>
<feBlend mode="normal" in2="BackgroundImageFix" result="effect1_dropShadow_561_1061"/>
<feBlend mode="normal" in="SourceGraphic" in2="effect1_dropShadow_561_1061" result="shape"/>
</filter>
<filter id="filter2_d_561_1061" x="37.9082" y="185.588" width="47.0957" height="56.8511" filterUnits="userSpaceOnUse" color-interpolation-filters="sRGB">
<feFlood flood-opacity="0" result="BackgroundImageFix"/>
<feColorMatrix in="SourceAlpha" type="matrix" values="0 0 0 0 0 0 0 0 0 0 0 0 0 0 0 0 0 0 127 0" result="hardAlpha"/>
<feOffset/>
<feGaussianBlur stdDeviation="10"/>
<feComposite in2="hardAlpha" operator="out"/>
<feColorMatrix type="matrix" values="0 0 0 0 0.966667 0 0 0 0 0.2175 0 0 0 0 0.2175 0 0 0 1 0"/>
<feBlend mode="normal" in2="BackgroundImageFix" result="effect1_dropShadow_561_1061"/>
<feBlend mode="normal" in="SourceGraphic" in2="effect1_dropShadow_561_1061" result="shape"/>
</filter>
<filter id="filter3_f_561_1061" x="38.6953" y="127.16" width="166" height="94.1934" filterUnits="userSpaceOnUse" color-interpolation-filters="sRGB">
<feFlood flood-opacity="0" result="BackgroundImageFix"/>
<feBlend mode="normal" in="SourceGraphic" in2="BackgroundImageFix" result="shape"/>
<feGaussianBlur stdDeviation="5" result="effect1_foregroundBlur_561_1061"/>
</filter>
<filter id="filter4_f_561_1061" x="98.7773" y="117.64" width="67.7559" height="40.6365" filterUnits="userSpaceOnUse" color-interpolation-filters="sRGB">
<feFlood flood-opacity="0" result="BackgroundImageFix"/>
<feBlend mode="normal" in="SourceGraphic" in2="BackgroundImageFix" result="shape"/>
<feGaussianBlur stdDeviation="5" result="effect1_foregroundBlur_561_1061"/>
</filter>
</defs>
</svg>
