<svg width="285" height="177" viewBox="0 0 285 177" fill="none" xmlns="http://www.w3.org/2000/svg">
<path d="M156.819 158.479C146.431 163.921 138.022 164.415 127.635 158.479L24.2543 96.649C20.2972 92.6919 19.8111 87.2545 24.2544 84.7776L127.635 23.4419C137.528 17.5062 146.431 18.0009 156.819 23.4419L254.758 80.3259C266.629 86.7563 263.167 93.6813 252.78 100.606L156.819 158.479Z" fill="#CECECE" stroke="white" stroke-width="0.5"/>
<g opacity="0.5" filter="url(#filter0_f_434_7062)">
<path d="M112.907 20.9322C120.746 16.0506 129.497 15.5274 139.405 16.9013C152.309 18.6906 164.135 24.8697 174.678 32.5226L184.826 39.8893C209.803 58.0193 226.669 92.0723 200.669 108.703C167.726 129.775 111.304 131.079 103.21 125.346L66.8501 103.641C59.9345 99.5132 55.6992 92.0525 55.6992 83.9985C55.6992 81.2058 56.2105 78.4368 57.2079 75.8284L58.3076 72.9522C60.7296 66.6177 64.7397 61.0123 69.9527 56.6745L112.907 20.9322Z" fill="#7A7A7A"/>
</g>
<g filter="url(#filter1_d_434_7062)">
<path d="M257.727 82.3031C264.442 88.7893 262.823 92.7303 253.77 100.11V114.455L261.684 110.003C263.875 108.037 264.235 106.686 264.157 104.067V93.1852C264.087 86.7064 262.288 84.6806 257.727 82.3031Z" fill="white"/>
</g>
<g filter="url(#filter2_d_434_7062)">
<path d="M49.9769 111.489V125.834L23.7608 110.006C21.2876 108.027 20.793 106.048 20.793 102.586V90.2198C21.7823 92.6931 23.2662 95.6609 24.7501 96.1556L49.9769 111.489Z" fill="white"/>
</g>
<g filter="url(#filter3_d_434_7062)">
<path d="M62.3438 133.252V119.402L70.258 124.348V138.198L62.3438 133.252Z" fill="white"/>
</g>
<path d="M49.9766 125.832L127.141 172.328M127.141 172.328V158.299M127.141 172.328C136.133 177.795 147.916 177.769 156.819 172.328M156.819 172.328L159.082 170.978M156.819 172.328V170.349M156.819 158.478V161.941M241.403 121.837L253.77 100.11V104.067M241.403 121.837L244.866 119.77M241.403 121.837L238.026 123.853M244.866 119.77L253.77 104.067M244.866 119.77L248.328 117.703M253.77 104.067V107.53M253.77 107.53L248.328 117.703M253.77 107.53V110.992M248.328 117.703L251.049 116.079M251.049 116.079L253.77 114.455V110.992M251.049 116.079L253.77 110.992M238.026 123.853L249.812 102.583M238.026 123.853L234.973 125.675M234.973 125.675L245.855 105.057M234.973 125.675L231.016 128.037M231.016 128.037L240.909 108.024M231.016 128.037L227.059 130.399M227.059 130.399L236.457 110.498M227.059 130.399L223.596 132.466M223.596 132.466L232.005 112.971M223.596 132.466L219.359 134.996M219.359 134.996L227.553 115.939M219.359 134.996L214.824 137.703M214.824 137.703L223.102 118.412M214.824 137.703L211.23 139.848M211.23 139.848L218.65 121.38M211.23 139.848L207.768 141.915M207.768 141.915L214.824 123.358M207.768 141.915L204.305 143.982M204.305 143.982L210.241 126.326M204.305 143.982L200.737 146.112M200.737 146.112L206.284 128.799M200.737 146.112L197.38 148.116M197.38 148.116L202.327 131.273M197.38 148.116L194.412 149.887M194.412 149.887L198.369 133.746M194.412 149.887L190.95 151.954M190.95 151.954L194.412 135.724M190.95 151.954L186.65 154.521M186.65 154.521L190.95 137.703M186.65 154.521L182.541 156.974M182.541 156.974L186.65 140.433M182.541 156.974L178.364 159.467M178.364 159.467L182.541 143.144M178.364 159.467L174.221 161.941M174.221 161.941C174.15 161.545 177.1 150.893 178.584 145.617M174.221 161.941L169.68 164.651M169.68 164.651L173.637 148.585M169.68 164.651L165.934 166.887M165.934 166.887L170.175 150.564M165.934 166.887L162.261 169.08M162.261 169.08L166.218 153.037M162.261 169.08L159.082 170.978M159.082 170.978L162.755 155.015M156.819 170.349L159.787 156.974M156.819 170.349V161.941M156.819 161.941L157.809 157.983" stroke="white" stroke-width="0.5"/>
<path d="M77.0603 81.3574C80.6674 -18.7867 211.057 -3.76387 207.85 81.3574C207.833 129.088 75.9051 121.735 77.0603 81.3574Z" fill="#D9D9D9" stroke="white"/>
<path d="M94.4891 96.5815C95.0317 61.6586 106.306 37.2954 131.743 20.8719M142.559 23.0748V107.998M153.174 20.8719C179.138 37.2743 187.624 61.7309 190.428 96.5815M80.8691 72.3464C99.4961 107.998 181.816 113.606 204.248 72.3464M92.0854 44.7062C101.098 78.7557 184.019 81.9603 192.631 44.7062M107.508 27.8818C118.323 44.7062 166.393 46.1082 177.61 27.8818" stroke="white"/>
<ellipse cx="142.559" cy="16.7032" rx="5.56652" ry="2.13632" fill="#505050"/>
<circle cx="142.559" cy="41.2771" r="2.23821" fill="white" stroke="#505050"/>
<circle cx="142.559" cy="71.4438" r="2.23821" fill="white" stroke="#505050"/>
<circle cx="142.559" cy="101.252" r="2.23821" fill="white" stroke="#505050"/>
<circle cx="189.963" cy="88.503" r="2.23821" fill="white" stroke="#505050"/>
<circle cx="183.408" cy="59.7731" r="2.23821" fill="white" stroke="#505050"/>
<circle cx="170.121" cy="34.7238" r="2.23821" fill="white" stroke="#505050"/>
<circle cx="115.264" cy="34.7238" r="2.23821" fill="white" stroke="#505050"/>
<circle cx="101.123" cy="58.251" r="2.23821" fill="white" stroke="#505050"/>
<circle cx="94.5409" cy="87.6298" r="2.23821" fill="white" stroke="#505050"/>
<defs>
<filter id="filter0_f_434_7062" x="39.6992" y="0.243408" width="190.008" height="144.028" filterUnits="userSpaceOnUse" color-interpolation-filters="sRGB">
<feFlood flood-opacity="0" result="BackgroundImageFix"/>
<feBlend mode="normal" in="SourceGraphic" in2="BackgroundImageFix" result="shape"/>
<feGaussianBlur stdDeviation="8" result="effect1_foregroundBlur_434_7062"/>
</filter>
<filter id="filter1_d_434_7062" x="233.77" y="62.3031" width="50.3965" height="72.1518" filterUnits="userSpaceOnUse" color-interpolation-filters="sRGB">
<feFlood flood-opacity="0" result="BackgroundImageFix"/>
<feColorMatrix in="SourceAlpha" type="matrix" values="0 0 0 0 0 0 0 0 0 0 0 0 0 0 0 0 0 0 127 0" result="hardAlpha"/>
<feOffset/>
<feGaussianBlur stdDeviation="10"/>
<feComposite in2="hardAlpha" operator="out"/>
<feColorMatrix type="matrix" values="0 0 0 0 1 0 0 0 0 1 0 0 0 0 1 0 0 0 1 0"/>
<feBlend mode="normal" in2="BackgroundImageFix" result="effect1_dropShadow_434_7062"/>
<feBlend mode="normal" in="SourceGraphic" in2="effect1_dropShadow_434_7062" result="shape"/>
</filter>
<filter id="filter2_d_434_7062" x="0.792969" y="70.2198" width="69.1836" height="75.6143" filterUnits="userSpaceOnUse" color-interpolation-filters="sRGB">
<feFlood flood-opacity="0" result="BackgroundImageFix"/>
<feColorMatrix in="SourceAlpha" type="matrix" values="0 0 0 0 0 0 0 0 0 0 0 0 0 0 0 0 0 0 127 0" result="hardAlpha"/>
<feOffset/>
<feGaussianBlur stdDeviation="10"/>
<feComposite in2="hardAlpha" operator="out"/>
<feColorMatrix type="matrix" values="0 0 0 0 1 0 0 0 0 1 0 0 0 0 1 0 0 0 1 0"/>
<feBlend mode="normal" in2="BackgroundImageFix" result="effect1_dropShadow_434_7062"/>
<feBlend mode="normal" in="SourceGraphic" in2="effect1_dropShadow_434_7062" result="shape"/>
</filter>
<filter id="filter3_d_434_7062" x="42.3438" y="99.4016" width="47.9141" height="58.7964" filterUnits="userSpaceOnUse" color-interpolation-filters="sRGB">
<feFlood flood-opacity="0" result="BackgroundImageFix"/>
<feColorMatrix in="SourceAlpha" type="matrix" values="0 0 0 0 0 0 0 0 0 0 0 0 0 0 0 0 0 0 127 0" result="hardAlpha"/>
<feOffset/>
<feGaussianBlur stdDeviation="10"/>
<feComposite in2="hardAlpha" operator="out"/>
<feColorMatrix type="matrix" values="0 0 0 0 1 0 0 0 0 1 0 0 0 0 1 0 0 0 1 0"/>
<feBlend mode="normal" in2="BackgroundImageFix" result="effect1_dropShadow_434_7062"/>
<feBlend mode="normal" in="SourceGraphic" in2="effect1_dropShadow_434_7062" result="shape"/>
</filter>
</defs>
</svg>
