<svg width="212" height="209" viewBox="0 0 212 209" fill="none" xmlns="http://www.w3.org/2000/svg">
<path d="M116.092 195.97C108.782 199.8 102.863 200.148 95.5526 195.97L22.7931 152.454C20.0081 149.669 19.666 145.842 22.7932 144.099L95.5526 100.931C102.515 96.753 108.781 97.1011 116.092 100.931L185.022 140.966C193.377 145.491 190.94 150.365 183.63 155.239L116.092 195.97Z" fill="#CECECE" stroke="white" stroke-width="0.5"/>
<g filter="url(#filter0_d_434_8205)">
<path d="M187.111 142.358C191.838 146.923 190.698 149.697 184.326 154.891V164.987L189.896 161.853C191.438 160.47 191.692 159.519 191.637 157.676V150.017C191.588 145.457 190.321 144.031 187.111 142.358Z" fill="white"/>
</g>
<g filter="url(#filter1_d_434_8205)">
<path d="M40.8971 162.898V172.993L22.4462 161.853C20.7055 160.461 20.3575 159.068 20.3574 156.631V147.928C21.0537 149.669 22.0981 151.757 23.1425 152.106L40.8971 162.898Z" fill="white"/>
</g>
<g filter="url(#filter2_d_434_8205)">
<path d="M49.5996 178.215V168.468L55.1697 171.949V181.697L49.5996 178.215Z" fill="white"/>
</g>
<path d="M40.8984 172.993L95.2069 205.718M95.2069 205.718V195.844M95.2069 205.718C101.536 209.565 109.828 209.547 116.095 205.718M116.095 205.718L117.687 204.767M116.095 205.718V204.325M116.095 195.97V198.407M175.625 170.182L184.328 154.891V157.676M175.625 170.182L178.062 168.727M175.625 170.182L173.248 171.601M178.062 168.727L184.328 157.676M178.062 168.727L180.499 167.272M184.328 157.676V160.113M184.328 160.113L180.499 167.272M184.328 160.113V162.55M180.499 167.272L182.414 166.129M182.414 166.129L184.328 164.986V162.55M182.414 166.129L184.328 162.55M173.248 171.601L181.543 156.631M173.248 171.601L171.099 172.883M171.099 172.883L178.758 158.372M171.099 172.883L168.314 174.546M168.314 174.546L175.277 160.461M168.314 174.546L165.529 176.208M165.529 176.208L172.144 162.201M165.529 176.208L163.092 177.663M163.092 177.663L169.011 163.942M163.092 177.663L160.11 179.443M160.11 179.443L165.877 166.031M160.11 179.443L156.918 181.349M156.918 181.349L162.744 167.771M156.918 181.349L154.389 182.858M154.389 182.858L159.611 169.86M154.389 182.858L151.952 184.313M151.952 184.313L156.918 171.253M151.952 184.313L149.515 185.768M149.515 185.768L153.693 173.342M149.515 185.768L147.004 187.267M147.004 187.267L150.908 175.082M147.004 187.267L144.641 188.677M144.641 188.677L148.123 176.823M144.641 188.677L142.553 189.924M142.553 189.924L145.338 178.564M142.553 189.924L140.116 191.379M140.116 191.379L142.553 179.956M140.116 191.379L137.09 193.185M137.09 193.185L140.116 181.349M137.09 193.185L134.198 194.911M134.198 194.911L137.09 183.27M134.198 194.911L131.258 196.666M131.258 196.666L134.198 185.178M131.258 196.666L128.342 198.407M128.342 198.407C128.292 198.128 130.368 190.632 131.412 186.919M128.342 198.407L125.146 200.315M125.146 200.315L127.931 189.007M125.146 200.315L122.51 201.888M122.51 201.888L125.494 190.4M122.51 201.888L119.924 203.432M119.924 203.432L122.709 192.141M119.924 203.432L117.687 204.767M117.687 204.767L120.272 193.533M116.095 204.325L118.184 194.911M116.095 204.325V198.407M116.095 198.407L116.791 195.622" stroke="white" stroke-width="0.5"/>
<g opacity="0.7" filter="url(#filter3_f_434_8205)">
<path d="M118.948 165.645C130.898 160.001 133.886 150.707 129.238 144.732C122.879 156.533 116.373 158.928 103.014 160.665C84.7569 159.338 77.122 148.383 75.1303 136.101C73.2255 128.302 76.1912 126.24 80.7735 122.159C78.173 119.667 76.9419 118.166 75.4623 115.188L40.2754 135.769C43.4899 137.575 50.0399 138.12 50.5659 137.097C52.2257 147.387 74.5328 158.143 74.7984 158.674C92.61 170.859 106.666 169.96 118.948 165.645Z" fill="#7A7A7A"/>
</g>
<path d="M103.346 150.043C75.7937 148.715 67.4949 131.454 81.4371 122.823C84.5354 124.874 86.5659 125.913 91.0634 127.47V133.777C91.0634 142.408 117.288 143.072 117.288 133.777V126.474C121.096 125.279 123.078 124.494 126.251 122.823C141.188 133.777 127.91 151.227 103.346 150.043Z" fill="#CECECE" stroke="white" stroke-width="0.5"/>
<path d="M75.4629 136.433C79.7783 167.636 125.588 170.956 132.227 136.433C123.928 157.346 79.7783 151.371 75.4629 136.433Z" fill="#CECECE" stroke="white" stroke-width="0.5"/>
<path d="M103.68 144.068C101.688 144.068 101.688 146.724 103.68 146.724C105.671 146.724 105.671 144.068 103.68 144.068Z" fill="white"/>
<path d="M111.978 143.072C109.986 143.072 109.987 145.728 111.978 145.728C113.97 145.728 113.97 143.072 111.978 143.072Z" fill="white"/>
<path d="M119.281 140.084C117.289 140.084 117.29 142.74 119.281 142.74C121.273 142.74 121.273 140.084 119.281 140.084Z" fill="white"/>
<path d="M124.261 136.101C122.269 136.101 122.269 138.757 124.261 138.757C126.252 138.757 126.252 136.101 124.261 136.101Z" fill="white"/>
<path d="M125.588 130.79C123.596 130.79 123.597 133.445 125.588 133.445C127.58 133.445 127.58 130.79 125.588 130.79Z" fill="white"/>
<path d="M124.261 125.811C122.269 125.811 122.269 128.466 124.261 128.466C126.252 128.466 126.252 125.811 124.261 125.811Z" fill="white"/>
<path d="M95.3803 142.74C93.3884 142.74 93.3885 145.396 95.3803 145.396C97.372 145.396 97.3721 142.74 95.3803 142.74Z" fill="white"/>
<path d="M88.4089 139.753C86.4171 139.753 86.4172 142.408 88.4089 142.408C90.4007 142.408 90.4008 139.753 88.4089 139.753Z" fill="white"/>
<path d="M83.4292 135.769C81.4374 135.769 81.4375 138.425 83.4292 138.425C85.4209 138.425 85.421 135.769 83.4292 135.769Z" fill="white"/>
<path d="M81.7692 130.79C79.7774 130.79 79.7775 133.445 81.7692 133.445C83.7609 133.445 83.761 130.79 81.7692 130.79Z" fill="white"/>
<path d="M83.4292 125.811C81.4374 125.811 81.4375 128.466 83.4292 128.466C85.4209 128.466 85.421 125.811 83.4292 125.811Z" fill="white"/>
<path d="M103.68 144.068C101.688 144.068 101.688 146.724 103.68 146.724C105.671 146.724 105.671 144.068 103.68 144.068Z" stroke="white" stroke-width="0.5"/>
<path d="M111.978 143.072C109.986 143.072 109.987 145.728 111.978 145.728C113.97 145.728 113.97 143.072 111.978 143.072Z" stroke="white" stroke-width="0.5"/>
<path d="M119.281 140.084C117.289 140.084 117.29 142.74 119.281 142.74C121.273 142.74 121.273 140.084 119.281 140.084Z" stroke="white" stroke-width="0.5"/>
<path d="M124.261 136.101C122.269 136.101 122.269 138.757 124.261 138.757C126.252 138.757 126.252 136.101 124.261 136.101Z" stroke="white" stroke-width="0.5"/>
<path d="M125.588 130.79C123.596 130.79 123.597 133.445 125.588 133.445C127.58 133.445 127.58 130.79 125.588 130.79Z" stroke="white" stroke-width="0.5"/>
<path d="M124.261 125.811C122.269 125.811 122.269 128.466 124.261 128.466C126.252 128.466 126.252 125.811 124.261 125.811Z" stroke="white" stroke-width="0.5"/>
<path d="M95.3803 142.74C93.3884 142.74 93.3885 145.396 95.3803 145.396C97.372 145.396 97.3721 142.74 95.3803 142.74Z" stroke="white" stroke-width="0.5"/>
<path d="M88.4089 139.753C86.4171 139.753 86.4172 142.408 88.4089 142.408C90.4007 142.408 90.4008 139.753 88.4089 139.753Z" stroke="white" stroke-width="0.5"/>
<path d="M83.4292 135.769C81.4374 135.769 81.4375 138.425 83.4292 138.425C85.4209 138.425 85.421 135.769 83.4292 135.769Z" stroke="white" stroke-width="0.5"/>
<path d="M81.7692 130.79C79.7774 130.79 79.7775 133.445 81.7692 133.445C83.7609 133.445 83.761 130.79 81.7692 130.79Z" stroke="white" stroke-width="0.5"/>
<path d="M83.4292 125.811C81.4374 125.811 81.4375 128.466 83.4292 128.466C85.4209 128.466 85.421 125.811 83.4292 125.811Z" stroke="white" stroke-width="0.5"/>
<path d="M75.4629 113.196L78.1185 107.553C98.472 111.585 109.703 111.016 129.571 107.553L131.895 113.196C130.567 132.449 78.1185 134.441 75.4629 113.196Z" fill="#CECECE" stroke="white" stroke-width="0.5"/>
<path d="M77.1211 109.545L78.1169 107.553C88.4075 110.541 112.64 112.2 129.569 107.553C118.947 119.503 91.395 120.831 77.1211 109.545Z" fill="#969696" stroke="white" stroke-width="0.5"/>
<path d="M83.4283 99.9834C17.6382 86.9122 27.6603 25.4801 102.682 24.5652C174.796 24.5652 193.637 84.2523 123.926 99.3173C120.2 92.8844 113.636 89.2958 102.682 89.2958C93.7188 89.2958 86.0839 93.9431 83.4283 99.9834Z" fill="#969696" stroke="white" stroke-width="0.5"/>
<path d="M72.8042 97.2618C68.4889 67.0561 138.198 70.0434 135.211 96.266M66.1652 94.94C47.5767 53.4478 158.781 49.1322 141.518 93.9442M60.8548 92.2862C18.3646 27.2213 188.988 32.8642 147.162 91.2903M39.9414 65.0635C61.189 76.9288 69.0434 84.4813 78.7798 98.9226M84.091 98.5906C75.8485 77.2698 69.282 65.3806 47.2443 44.4825M89.4022 92.9474C85.4797 68.9652 81.026 55.4625 66.1652 31.2044M90.0661 25.2292C96.1849 52.2269 98.9889 67.062 96.7052 89.9599M117.95 25.5612C112.873 49.4229 107.761 61.5641 110.979 89.9599M141.519 31.8683C130.613 54.3946 120.999 64.4304 118.614 93.2794M159.776 44.8144C141.048 62.2284 131.972 73.0939 123.261 98.2586M167.411 65.3954C151.477 71.0386 133.552 90.2918 128.904 98.2586" stroke="white" stroke-width="0.5"/>
<path d="M83.4277 99.9214C89.0709 87.3041 115.627 84.3169 123.926 99.2575C108.549 102.061 99.6427 101.967 83.4277 99.9214Z" fill="white"/>
<path d="M103.011 110.541C50.8953 107.885 37.6171 85.6442 39.6086 64.7312C43.5923 87.9678 65.1692 100.582 103.011 101.578C139.194 101.91 170.066 82.6566 167.41 60.7478C175.709 98.2584 131.892 110.541 103.011 110.541Z" fill="#CECECE" stroke="white" stroke-width="0.5"/>
<path d="M61.5191 42.824C36.9553 41.827 58.6182 70.5529 77.4528 70.044C93.7191 70.0442 76.9744 42.6137 61.5191 42.824Z" fill="#CECECE" stroke="white" stroke-width="0.5"/>
<path d="M103.346 69.0463C91.3956 66.3907 90.3995 91.2874 103.346 97.9261C112.308 102.522 116.956 73.03 103.346 69.0463Z" fill="#CECECE" stroke="white" stroke-width="0.5"/>
<path d="M131.893 50.7844C115.627 49.4564 121.603 79.3373 138.532 82.9837C151.146 86.3083 145.835 52.4492 131.893 50.7844Z" fill="#CECECE" stroke="white" stroke-width="0.5"/>
<path d="M111.975 1.99274C96.042 5.97616 89.7346 37.8435 104.008 35.8518C122.266 32.1998 128.241 -2.65526 111.975 1.99274Z" fill="#CECECE" stroke="white" stroke-width="0.5"/>
<path d="M104.009 74.0262C100.689 74.0262 99.6932 80.9972 104.009 84.9806C108.656 88.6321 109.652 74.3582 104.009 74.0262Z" fill="white"/>
<path d="M97.0375 83.6528C99.5814 82.089 101.698 83.5058 103.345 85.9765C104.23 87.3043 106.332 91.6197 105.668 93.9433C102.017 94.9392 97.3695 88.6321 97.0375 83.6528Z" fill="white"/>
<path d="M130.233 58.0925C123.262 55.4366 124.59 68.0511 131.229 70.0428C134.88 71.1383 137.204 63.0718 130.233 58.0925Z" fill="white"/>
<path d="M139.527 61.744C134.88 62.4079 133.884 73.6942 138.2 79.3374C143.598 76.6526 143.843 68.383 139.527 61.744Z" fill="white"/>
<path d="M109.984 6.97192C102.349 9.62754 101.685 21.9098 107.992 19.918C113.635 18.1362 116.623 5.64382 109.984 6.97192Z" fill="white"/>
<path d="M100.689 29.8765C103.171 23.3274 112.639 16.9304 116.291 20.5819C111.975 29.2126 105.458 33.5749 100.689 29.8765Z" fill="white"/>
<path d="M61.5187 61.4119C63.2048 58.0854 74.4648 57.7605 79.1121 63.4036C75.7926 69.3788 67.8258 67.719 61.5187 61.4119Z" fill="white"/>
<path d="M63.1785 46.8061C54.4909 46.8061 61.1599 55.9372 67.8258 57.4285C75.4611 58.0924 70.1497 46.8061 63.1785 46.8061Z" fill="white"/>
<path d="M103.677 3.98084C110.647 -0.995112 113.636 0.33367 117.287 1.99176C111.311 0.332695 104.379 4.89223 100.025 12.283C97.8208 16.272 97.1443 18.6173 96.3734 22.9054C95.4964 28.7453 96.3734 31.5362 98.3659 34.1916C89.5037 27.0641 95.7095 10.291 103.677 3.98084Z" fill="#797979" stroke="white" stroke-width="0.5"/>
<path d="M111.644 75.3537C109.434 70.7007 107.661 70.0425 103.346 69.0466C106.71 70.2892 108.108 71.678 109.985 75.0218C110.805 76.8934 111.17 78.1297 111.644 80.6649C112.195 85.833 111.83 87.3347 111.313 90.2915C110.048 95.0705 109.008 96.343 106.997 97.9264C110.317 96.5986 113.106 92.278 113.304 91.2874C114.632 84.6484 113.968 80.6649 111.644 75.3537Z" fill="#797979" stroke="white" stroke-width="0.5"/>
<path d="M122.599 53.4442C127.29 49.1792 129.202 49.678 132.558 50.7886C129.054 50.5943 127.265 50.8627 124.923 53.1131C123.427 54.5504 121.422 57.9764 122.599 64.3994C123.864 69.7508 125.042 72.2916 127.911 76.0178C131.247 79.8331 133.54 81.412 138.533 82.9887C133.886 82.9887 129.238 82.6568 123.927 74.026C119.944 66.0592 118.284 57.7604 122.599 53.4442Z" fill="#797979" stroke="white" stroke-width="0.5"/>
<path d="M62.1813 40.5004C57.0341 40.1631 55.4184 41.8245 52.5583 44.812C59.1968 40.8314 67.7769 42.7828 73.7996 47.8017C81.7664 54.4407 84.0901 60.4159 84.0901 64.7313C85.4366 59.2702 84.3218 56.4982 80.7706 51.7851C73.9545 44.0219 69.8162 41.4946 62.1813 40.5004Z" fill="#797979"/>
<path d="M52.5547 44.8157C55.417 41.8259 57.0319 40.163 62.1813 40.5004C69.8162 41.4946 73.9545 44.0219 80.7706 51.7851C84.3218 56.4982 85.4366 59.2702 84.0901 64.7313C84.0901 60.4159 81.7664 54.4407 73.7996 47.8017C67.7758 42.7819 59.1937 40.8307 52.5547 44.8141" stroke="white" stroke-width="0.5"/>
<path d="M93.7203 127.802V137.761M96.044 128.134V139.088M92.0605 136.433V127.47M98.6996 139.752V128.466M101.355 140.416V128.466M104.011 140.416V128.466M106.334 140.416V128.466M108.658 140.084V128.134M111.314 139.42V127.802M113.969 138.424V127.138M116.293 136.433V126.806" stroke="white" stroke-width="0.5"/>
<defs>
<filter id="filter0_d_434_8205" x="164.326" y="122.358" width="47.3184" height="62.6284" filterUnits="userSpaceOnUse" color-interpolation-filters="sRGB">
<feFlood flood-opacity="0" result="BackgroundImageFix"/>
<feColorMatrix in="SourceAlpha" type="matrix" values="0 0 0 0 0 0 0 0 0 0 0 0 0 0 0 0 0 0 127 0" result="hardAlpha"/>
<feOffset/>
<feGaussianBlur stdDeviation="10"/>
<feComposite in2="hardAlpha" operator="out"/>
<feColorMatrix type="matrix" values="0 0 0 0 1 0 0 0 0 1 0 0 0 0 1 0 0 0 1 0"/>
<feBlend mode="normal" in2="BackgroundImageFix" result="effect1_dropShadow_434_8205"/>
<feBlend mode="normal" in="SourceGraphic" in2="effect1_dropShadow_434_8205" result="shape"/>
</filter>
<filter id="filter1_d_434_8205" x="0.357422" y="127.928" width="60.5391" height="65.0654" filterUnits="userSpaceOnUse" color-interpolation-filters="sRGB">
<feFlood flood-opacity="0" result="BackgroundImageFix"/>
<feColorMatrix in="SourceAlpha" type="matrix" values="0 0 0 0 0 0 0 0 0 0 0 0 0 0 0 0 0 0 127 0" result="hardAlpha"/>
<feOffset/>
<feGaussianBlur stdDeviation="10"/>
<feComposite in2="hardAlpha" operator="out"/>
<feColorMatrix type="matrix" values="0 0 0 0 1 0 0 0 0 1 0 0 0 0 1 0 0 0 1 0"/>
<feBlend mode="normal" in2="BackgroundImageFix" result="effect1_dropShadow_434_8205"/>
<feBlend mode="normal" in="SourceGraphic" in2="effect1_dropShadow_434_8205" result="shape"/>
</filter>
<filter id="filter2_d_434_8205" x="29.5996" y="148.468" width="45.5703" height="53.229" filterUnits="userSpaceOnUse" color-interpolation-filters="sRGB">
<feFlood flood-opacity="0" result="BackgroundImageFix"/>
<feColorMatrix in="SourceAlpha" type="matrix" values="0 0 0 0 0 0 0 0 0 0 0 0 0 0 0 0 0 0 127 0" result="hardAlpha"/>
<feOffset/>
<feGaussianBlur stdDeviation="10"/>
<feComposite in2="hardAlpha" operator="out"/>
<feColorMatrix type="matrix" values="0 0 0 0 1 0 0 0 0 1 0 0 0 0 1 0 0 0 1 0"/>
<feBlend mode="normal" in2="BackgroundImageFix" result="effect1_dropShadow_434_8205"/>
<feBlend mode="normal" in="SourceGraphic" in2="effect1_dropShadow_434_8205" result="shape"/>
</filter>
<filter id="filter3_f_434_8205" x="30.2754" y="105.188" width="111.049" height="73.3765" filterUnits="userSpaceOnUse" color-interpolation-filters="sRGB">
<feFlood flood-opacity="0" result="BackgroundImageFix"/>
<feBlend mode="normal" in="SourceGraphic" in2="BackgroundImageFix" result="shape"/>
<feGaussianBlur stdDeviation="5" result="effect1_foregroundBlur_434_8205"/>
</filter>
</defs>
</svg>
