<svg width="491" height="194" viewBox="0 0 491 194" fill="none" xmlns="http://www.w3.org/2000/svg">
<g opacity="0.5">
<path d="M-5717.16 1.21987C-5431.17 -2.35643 -4756.14 8.45194 -4343.99 80.2958C-3931.83 152.14 -3403.17 110.231 -3190.36 80.2958C-2859.92 48.5065 -2109.33 10.7567 -1750.51 114.072C-1301.99 243.216 -644.695 249.176 -177.316 198.314C290.062 147.451 826.116 114.072 1129.19 114.072C1529.22 114.072 2296.29 96.4977 2768.38 198.314C3158.98 282.555 3879.58 232.09 4270.86 198.314C4735.8 158.179 5250.6 47.7117 5753.81 232.09" stroke="white" stroke-width="0.5"/>
<path d="M-5734 433.553C-5534.88 385.869 -5044.52 288.594 -4676 280.964C-4215.36 271.427 -3585 433.553 -3334.48 433.553C-3083.95 433.553 -2696.04 376.332 -2332.37 280.964C-1968.71 185.596 -982.769 185.597 -433.229 309.575C116.311 433.553 772.876 423.876 1069.25 347.722C1570.3 218.975 2857.02 32.9307 3227 200.3C3711.89 419.646 4386.02 433.553 4777.3 280.964C5431.15 25.9764 6166.64 219.374 6357.23 309.575" stroke="white" stroke-width="0.5"/>
<path d="M-5717.65 5.63758C-5434.16 0.787989 -4764.47 8.4762 -4353.57 78.0258C-3940.02 147.52 -3408.42 111.501 -3194.52 82.4307C-2866.38 51.5591 -2126.26 13.2472 -1767.3 110.827C-1321.23 233.49 -654.452 239.278 -184.702 193.463C285.048 147.647 824.582 114.952 1127.46 112.754C1530.41 109.037 2312.48 86.5998 2781.62 190.308C3174.95 278.45 3894.2 229.843 4285.48 192.637C4755.87 146.3 5277.05 44.6044 5771.23 226.264" stroke="white" stroke-width="0.5"/>
<path d="M-5718.17 10.6004C-5437.35 4.39481 -4773.33 8.7602 -4363.78 75.8665C-3948.73 142.859 -3414.01 113.113 -3198.95 84.9625C-2873.27 55.0682 -2144.3 16.1577 -1785.19 107.629C-1341.73 223.39 -664.846 228.995 -192.57 188.555C279.706 148.114 822.944 116.148 1125.62 111.609C1531.67 103.934 2329.72 76.3171 2795.72 182.041C3191.94 274.336 3909.77 227.708 4301.05 186.849C4777.25 133.907 5305.21 41.5534 5789.78 220.317" stroke="white" stroke-width="0.5"/>
<path d="M-5718.72 16.1864C-5440.74 8.54211 -4782.74 9.38201 -4374.61 73.8961C-3957.98 138.234 -3419.94 115.143 -3203.65 87.9692C-2880.58 59.1118 -2163.44 19.5662 -1804.17 104.557C-1363.48 212.995 -675.875 218.405 -200.919 183.668C274.037 148.93 821.206 117.738 1123.66 110.714C1533.01 98.8399 2348 65.7278 2810.68 173.59C3209.98 270.292 3926.29 225.763 4317.57 181.029C4799.93 121.079 5335.09 38.6368 5809.46 214.329" stroke="white" stroke-width="0.5"/>
<path d="M-5719.3 22.479C-5444.31 13.3133 -4792.69 10.425 -4386.06 72.1978C-3967.76 133.729 -3426.21 117.676 -3208.62 91.5342C-2888.31 63.7733 -2183.68 23.5561 -1824.24 101.694C-1386.48 202.387 -687.536 207.592 -209.745 178.886C268.045 150.179 819.37 119.804 1121.59 110.153C1534.43 93.8384 2367.35 54.9152 2826.5 165.038C3229.05 266.401 3943.76 224.092 4335.04 175.26C4823.92 107.899 5366.69 35.938 5830.28 208.382" stroke="white" stroke-width="0.5"/>
<path d="M-5719.91 29.5595C-5448.08 18.7896 -4803.17 11.9705 -4398.14 70.853C-3978.07 129.424 -3432.83 120.792 -3213.86 95.7388C-2896.45 69.1341 -2205.01 28.2087 -1845.41 99.1206C-1410.72 191.649 -699.832 196.637 -219.054 174.289C261.724 151.941 817.433 122.428 1119.41 110.008C1535.92 89.0107 2387.74 43.9605 2843.18 156.468C3249.16 262.744 3962.18 222.777 4353.45 169.623C4849.2 94.4479 5400 33.5383 5852.22 202.557" stroke="white" stroke-width="0.5"/>
<path d="M-5720.55 37.5029C-5452.05 25.0462 -4814.2 14.0936 -4410.83 69.9367C-3988.92 125.396 -3439.78 124.566 -3219.37 100.658C-2905.02 75.269 -2227.45 33.599 -1867.66 96.9125C-1436.22 180.855 -712.762 185.615 -228.841 169.954C255.079 154.292 815.396 125.686 1117.12 110.353C1537.49 84.4321 2409.18 32.939 2860.71 147.953C3270.3 259.396 3981.54 221.891 4372.82 164.193C4875.8 80.8014 5435.03 31.5127 5875.3 196.93" stroke="white" stroke-width="0.5"/>
<path d="M-5721.23 46.3802C-5456.21 32.154 -4825.77 16.8652 -4424.15 69.52C-4000.29 121.714 -3447.07 129.07 -3225.15 106.363C-2914.01 82.2493 -2250.99 39.7981 -1891 95.1408C-1462.97 170.076 -726.323 174.597 -239.106 165.95C248.11 157.303 813.262 129.647 1114.72 111.26C1539.14 80.1734 2431.68 21.9215 2879.12 139.565C3292.49 256.428 4001.86 221.506 4393.14 159.042C4903.7 67.0304 5471.78 29.9323 5899.51 191.571" stroke="white" stroke-width="0.5"/>
<path d="M-5721.94 56.2491C-5460.57 40.1706 -4837.88 20.343 -4438.1 69.6604C-4012.2 118.437 -3454.71 134.361 -3231.21 112.911C-2923.42 90.1324 -2275.63 46.8635 -1915.44 93.8628C-1490.97 159.37 -740.521 163.641 -249.854 162.336C240.813 161.031 811.026 134.371 1112.2 112.785C1540.87 76.2923 2455.22 10.9657 2898.37 131.362C3315.7 253.899 4023.13 221.68 4414.41 154.226C4932.89 53.1923 5510.25 28.8546 5924.85 186.538" stroke="white" stroke-width="0.5"/>
<path d="M-5722.67 67.1623C-5465.12 49.1489 -4850.53 24.5798 -4452.66 70.4108C-4024.63 115.618 -3462.69 140.492 -3237.53 120.355C-2933.24 98.9713 -2301.37 54.8482 -1940.96 93.1315C-1520.21 148.789 -755.351 152.799 -261.08 159.164C233.192 165.53 808.691 139.909 1109.57 114.982C1542.67 72.8416 2479.82 0.124402 2918.5 123.397C3339.96 251.86 4045.35 222.465 4436.63 149.8C4963.4 39.3401 5550.44 28.3325 5951.32 181.885" stroke="white" stroke-width="0.5"/>
<path d="M-5723.44 81.3784C-5469.86 61.3474 -4863.72 31.8341 -4467.85 74.0297C-4037.6 115.514 -3471 149.722 -3244.12 130.954C-2943.49 111.024 -2328.2 66.0106 -1967.58 95.2053C-1550.71 140.593 -770.815 144.33 -272.785 158.693C225.244 173.056 806.256 148.52 1106.83 120.11C1544.55 72.0798 2505.47 -8.34393 2939.47 117.927C3365.25 252.571 4068.52 226.12 4459.79 148.02C4995.21 27.7321 5592.34 30.6245 5978.92 179.869" stroke="white" stroke-width="0.5"/>
<path d="M-5724.25 107.57C-5474.8 85.4384 -4877.45 50.7783 -4483.66 89.1894C-4051.1 126.798 -3479.66 170.722 -3250.98 153.38C-2954.16 134.964 -2356.14 89.023 -1995.29 108.757C-1582.46 143.453 -786.914 146.907 -284.972 169.596C216.97 192.284 803.72 168.877 1103.97 136.84C1546.5 82.6793 2532.18 -5.76677 2961.31 123.626C3391.58 264.703 4092.63 241.318 4483.91 157.56C5028.32 27.0409 5635.96 44.403 6007.66 189.163" stroke="white" stroke-width="0.5"/>
<path d="M-5725.08 134.952C-5479.93 110.637 -4891.73 70.6274 -4500.09 105.105C-4065.14 138.686 -3488.66 192.708 -3258.12 176.848C-2965.25 160.005 -2385.18 113.101 -2024.09 123.001C-1615.46 146.585 -803.648 149.744 -297.64 181.086C208.369 212.429 801.084 190.194 1101.01 154.388C1548.54 93.8551 2559.93 -2.92927 2984.01 129.708C3418.95 277.472 4117.7 257.273 4508.97 167.634C5062.74 26.4814 5681.3 58.8829 6037.52 198.982" stroke="white" stroke-width="0.5"/>
<path d="M-5725.95 163.511C-5485.26 136.931 -4906.54 91.369 -4517.15 121.764C-4079.7 151.165 -3498 215.668 -3265.52 201.346C-2976.76 186.136 -2415.32 138.231 -2053.98 137.925C-1649.71 149.976 -821.016 152.828 -310.787 193.152C199.442 233.476 798.348 212.459 1097.93 172.742C1550.64 105.595 2588.73 0.156288 3007.57 136.161C3447.35 290.865 4143.71 273.973 4534.99 178.231C5098.45 26.0412 5728.35 74.052 6068.51 209.313" stroke="white" stroke-width="0.5"/>
<path d="M-5726.84 193.242C-5490.78 164.313 -4921.9 112.996 -4534.82 139.16C-4094.8 164.227 -3507.69 239.595 -3273.2 226.866C-2988.69 213.349 -2446.56 164.407 -2084.96 153.522C-1685.21 153.62 -839.016 156.155 -324.412 205.788C190.192 255.421 795.515 235.666 1094.74 191.894C1552.83 117.892 2618.59 3.48309 3031.99 142.978C3476.79 304.876 4170.68 291.411 4561.95 189.343C5135.48 25.7135 5777.13 89.9034 6100.65 220.15" stroke="white" stroke-width="0.5"/>
<path d="M-5727.77 224.135C-5496.5 192.775 -4937.79 135.501 -4553.13 157.284C-4110.43 177.866 -3517.71 264.48 -3281.14 253.401C-3001.04 241.636 -2478.9 191.621 -2117.03 169.785C-1721.96 157.508 -857.65 159.714 -338.518 218.984C180.615 278.254 792.579 259.806 1091.43 211.836C1555.1 130.738 2649.49 7.0429 3057.27 150.151C3507.26 319.496 4198.59 309.579 4589.87 200.962C5173.81 25.4902 5827.62 106.429 6133.9 231.484" stroke="white" stroke-width="0.5"/>
<path d="M-5728.73 256.184C-5502.41 222.31 -4954.23 158.876 -4572.05 176.13C-4126.59 192.073 -3528.07 290.315 -3289.35 280.943C-3013.81 270.99 -2512.34 219.865 -2150.19 186.705C-1759.96 161.632 -876.918 163.498 -353.102 232.734C170.713 301.969 789.546 284.871 1088.02 232.561C1557.44 144.125 2681.45 10.8281 3083.41 157.673C3538.78 334.718 4227.46 328.469 4618.73 213.081C5213.44 25.3636 5879.83 123.621 6168.3 243.309" stroke="white" stroke-width="0.5"/>
<path d="M-5729.72 289.38C-5508.51 252.91 -4971.2 183.113 -4591.59 195.688C-4143.28 206.84 -3538.77 317.094 -3297.84 309.484C-3026.99 301.402 -2546.88 249.131 -2184.45 204.274C-1799.21 165.984 -896.82 167.5 -368.168 247.028C160.484 326.556 786.412 310.854 1084.49 254.061C1559.86 158.045 2714.46 14.8307 3110.41 165.534C3571.33 350.533 4257.27 348.074 4648.55 225.691C5254.37 25.3256 5933.75 141.471 6203.82 255.615" stroke="white" stroke-width="0.5"/>
<path d="M-5730.74 323.721C-5514.81 284.571 -4988.72 208.209 -4611.76 215.956C-4160.5 222.165 -3549.82 344.813 -3306.59 339.021C-3040.6 332.87 -2582.52 279.417 -2219.79 222.491C-1839.71 170.563 -917.357 171.717 -383.714 261.866C149.929 352.015 783.177 337.752 1080.85 276.333C1562.35 172.496 2748.52 19.0483 3138.27 173.734C3604.91 366.939 4288.03 368.391 4679.31 238.791C5296.61 25.374 5989.4 159.978 6240.47 268.401" stroke="white" stroke-width="0.5"/>
<path d="M-5731.8 359.2C-5521.31 317.288 -5006.78 234.157 -4632.55 236.928C-4178.25 238.041 -3561.21 373.466 -3315.62 369.548C-3054.63 365.388 -2619.26 310.715 -2256.23 241.348C-1881.46 175.361 -938.528 176.142 -399.74 277.239C139.048 378.336 779.842 365.558 1077.09 299.37C1564.92 187.472 2783.64 23.4739 3166.98 182.264C3639.53 383.93 4319.74 389.413 4711.02 252.373C5340.16 25.5016 6046.76 179.133 6278.26 281.659" stroke="white" stroke-width="0.5"/>
<path d="M-5732.88 395.812C-5528 351.055 -5025.38 260.954 -4653.97 258.599C-4196.54 254.463 -3572.93 403.047 -3324.91 401.06C-3069.08 398.95 -2657.1 343.022 -2293.76 260.841C-1924.46 180.374 -960.331 180.77 -416.244 293.144C127.843 405.517 776.41 394.268 1073.23 323.168C1567.58 202.966 2819.8 28.1028 3196.56 191.121C3675.19 401.501 4352.41 411.135 4743.69 266.432C5385 25.7039 6105.84 198.933 6317.18 295.385" stroke="white" stroke-width="0.5"/>
</g>
</svg>
