<svg width="287" height="206" viewBox="0 0 287 206" fill="none" xmlns="http://www.w3.org/2000/svg">
<path d="M157.821 187.589C147.328 193.085 138.834 193.585 128.34 187.589L23.9075 125.129C19.9101 121.131 19.4191 115.639 23.9076 113.137L128.34 51.1764C138.334 45.1804 147.328 45.6801 157.821 51.1764L256.758 108.64C268.75 115.135 265.252 122.131 254.759 129.126L157.821 187.589Z" fill="#0F0E0E" stroke="white" stroke-width="0.5"/>
<g filter="url(#filter0_d_560_584)">
<path d="M259.755 110.639C266.539 117.191 264.903 121.172 255.758 128.627V143.118L263.753 138.621C265.966 136.635 266.33 135.27 266.251 132.625V121.632C266.181 115.087 264.363 113.04 259.755 110.639Z" fill="#F73737"/>
</g>
<g filter="url(#filter1_d_560_584)">
<path d="M49.8912 140.119V154.61L23.4082 138.62C20.9098 136.621 20.4102 134.623 20.4102 131.125V118.633C21.4095 121.131 22.9085 124.13 24.4076 124.629L49.8912 140.119Z" fill="#F73737"/>
</g>
<g filter="url(#filter2_d_560_584)">
<path d="M62.3828 162.105V148.114L70.3777 153.111V167.102L62.3828 162.105Z" fill="#F73737"/>
</g>
<path d="M49.8906 154.61L127.84 201.58M127.84 201.58V187.408M127.84 201.58C136.925 207.102 148.827 207.076 157.821 201.58M157.821 201.58L160.106 200.216M157.821 201.58V199.581M157.821 187.589V191.087M243.266 150.575L255.758 128.627V132.624M243.266 150.575L246.764 148.487M243.266 150.575L239.854 152.612M246.764 148.487L255.758 132.624M246.764 148.487L250.262 146.399M255.758 132.624V136.122M255.758 136.122L250.262 146.399M255.758 136.122V139.62M250.262 146.399L253.01 144.758M253.01 144.758L255.758 143.118V139.62M253.01 144.758L255.758 139.62M239.854 152.612L251.761 131.125M239.854 152.612L236.77 154.452M236.77 154.452L247.763 133.624M236.77 154.452L232.773 156.838M232.773 156.838L242.767 136.622M232.773 156.838L228.776 159.225M228.776 159.225L238.269 139.12M228.776 159.225L225.278 161.313M225.278 161.313L233.772 141.619M225.278 161.313L220.998 163.868M220.998 163.868L229.275 144.617M220.998 163.868L216.416 166.603M216.416 166.603L224.778 147.115M216.416 166.603L212.786 168.77M212.786 168.77L220.281 150.113M212.786 168.77L209.288 170.857M209.288 170.857L216.416 152.112M209.288 170.857L205.79 172.945M205.79 172.945L211.786 155.11M205.79 172.945L202.186 175.097M202.186 175.097L207.789 157.608M202.186 175.097L198.795 177.121M198.795 177.121L203.792 160.107M198.795 177.121L195.797 178.911M195.797 178.911L199.794 162.605M195.797 178.911L192.299 180.999M192.299 180.999L195.797 164.604M192.299 180.999L187.956 183.592M187.956 183.592L192.299 166.603M187.956 183.592L183.804 186.07M183.804 186.07L187.956 169.36M183.804 186.07L179.585 188.588M179.585 188.588L183.804 172.099M179.585 188.588L175.4 191.087M175.4 191.087C175.328 190.687 178.308 179.927 179.807 174.597M175.4 191.087L170.813 193.825M170.813 193.825L174.81 177.595M170.813 193.825L167.029 196.084M167.029 196.084L171.313 179.594M167.029 196.084L163.318 198.299M163.318 198.299L167.315 182.093M163.318 198.299L160.106 200.216M160.106 200.216L163.817 184.091M157.821 199.581L160.819 186.07M157.821 199.581V191.087M157.821 191.087L158.821 187.089" stroke="white" stroke-width="0.5"/>
<g filter="url(#filter3_f_560_584)">
<path d="M154.378 136.089C168.088 132.307 167.616 125.215 163.361 117.178C155.323 129.47 134.993 126.161 128.374 114.341L100.952 63.2795L49.8906 93.0654C57.9917 106.728 76.6464 112.793 112.299 126.161C135.136 136.592 143.152 137.535 154.378 136.089Z" fill="#222222"/>
</g>
<path d="M94.5461 24.1309L82.4121 32.7889L93.4897 40.0392L98.5233 30.5314L94.5461 24.1309Z" fill="#222222"/>
<path d="M122.448 17.4194L111.2 24.7522L122.448 26.3678V17.4194Z" fill="#222222"/>
<path d="M174.241 109.113L169.38 106.534L165.153 115.622L174.241 109.113Z" fill="#222222"/>
<path d="M140.554 120.651L151.797 122.215L153.614 125.301L140.554 133.247V120.651Z" fill="#222222"/>
<path d="M94.5461 24.1309L82.4121 32.7889L93.4897 40.0392L98.5233 30.5314L94.5461 24.1309Z" stroke="white" stroke-width="0.5"/>
<path d="M122.448 17.4194L111.2 24.7522L122.448 26.3678V17.4194Z" stroke="white" stroke-width="0.5"/>
<path d="M174.241 109.113L169.38 106.534L165.153 115.622L174.241 109.113Z" stroke="white" stroke-width="0.5"/>
<path d="M140.554 120.651L151.797 122.215L153.614 125.301L140.554 133.247V120.651Z" stroke="white" stroke-width="0.5"/>
<path d="M102.756 9.46421L118.265 0.506104L125.014 11.0826L137.919 3.70271L155.875 15.0686V28.1709L167.971 40.2076L175.805 35.4324L188.907 57.4142L180.957 62.3036L184.803 76.1995L196.445 83.8951V104.496L183.541 112.3L189.065 120.637L173.2 129.437L165.268 115.625L174.108 109.35L181.567 113.494V93.8402L169.53 86.3419L164.873 71.5821L173.635 66.8069L160.138 44.9828L151.85 49.2056L140.839 37.524V24.1455L122.567 13.8452V17.4364L111.438 24.6585L102.756 9.46421Z" fill="#161616"/>
<path d="M125.014 11.0826L118.265 0.506104L102.756 9.46421L111.438 24.6585L122.567 17.4364V13.8452M125.014 11.0826L122.567 13.8452M125.014 11.0826L137.919 3.70271L155.875 15.0686M122.567 13.8452L140.839 24.1455M155.875 15.0686L140.839 24.1455M155.875 15.0686V28.1709M140.839 24.1455V37.524M155.875 28.1709L140.839 37.524M155.875 28.1709L167.971 40.2076M140.839 37.524L151.85 49.2056L160.138 44.9828M160.138 44.9828L167.971 40.2076M160.138 44.9828L173.635 66.8069M167.971 40.2076L175.805 35.4324L188.907 57.4142L180.957 62.3036M173.635 66.8069L180.957 62.3036M173.635 66.8069L164.873 71.5821L169.53 86.3419M180.957 62.3036L184.803 76.1995M184.803 76.1995L169.53 86.3419M184.803 76.1995L196.445 83.8951M169.53 86.3419L181.567 93.8402M196.445 83.8951L181.567 93.8402M196.445 83.8951V104.496L183.541 112.3M181.567 93.8402V113.494M181.567 113.494L183.541 112.3M181.567 113.494L174.108 109.35L165.268 115.625L173.2 129.437L189.065 120.637L183.541 112.3" stroke="white" stroke-width="0.5"/>
<path d="M122.213 26.2571V13.6075L140.639 23.7998V37.1204L151.638 49.0283L159.812 44.689L173.436 66.7891L164.656 71.3302L169.197 85.9627L181.307 93.7331V113.411L169.197 106.347L164.858 115.631L172.931 129.356L160.721 136.621L151.638 122.09L140.336 120.475V133.291L122.172 122.09V108.567L111.273 97.5678L102.493 101.302L89.6773 79.2015L98.154 74.6604L94.0166 60.5324L81.4023 52.7621L82.0078 32.8821L93.3102 39.7442L98.154 30.4601L89.5764 16.4331L102.493 9.26855L111.165 24.7099L122.213 26.2571Z" fill="#161616" stroke="white" stroke-width="0.5"/>
<path d="M124.224 44.4221C123.618 66.522 135.33 85.8974 154.498 92.356C156.926 68.843 137.55 47.2474 124.224 44.4221Z" fill="#0F0E0E"/>
<path d="M112.119 75.4038C103.744 57.2382 108.789 41.0942 124.33 44.4239C126.168 64.0256 136.642 85.4938 154.604 92.3559C153.898 99.6217 149.962 102.649 143.302 102.649C133.816 102.649 120.754 94.1305 112.119 75.4038Z" fill="#252525"/>
<path d="M125.116 51.4089L108.387 62.788C109.548 70.5091 112.625 77.6225 117.873 85.0901L134.937 75.6766C129.58 67.8851 126.753 60.9862 125.116 51.4089Z" fill="#414141"/>
<path d="M122.01 90.3376L138.346 80.3032C140.108 82.506 141.127 83.4905 143.216 85.0901L126.753 95.1815C124.364 93.4015 123.4 92.3256 122.01 90.3376Z" fill="#414141"/>
<defs>
<filter id="filter0_d_560_584" x="235.758" y="90.6387" width="50.502" height="72.479" filterUnits="userSpaceOnUse" color-interpolation-filters="sRGB">
<feFlood flood-opacity="0" result="BackgroundImageFix"/>
<feColorMatrix in="SourceAlpha" type="matrix" values="0 0 0 0 0 0 0 0 0 0 0 0 0 0 0 0 0 0 127 0" result="hardAlpha"/>
<feOffset/>
<feGaussianBlur stdDeviation="10"/>
<feComposite in2="hardAlpha" operator="out"/>
<feColorMatrix type="matrix" values="0 0 0 0 0.966667 0 0 0 0 0.2175 0 0 0 0 0.2175 0 0 0 1 0"/>
<feBlend mode="normal" in2="BackgroundImageFix" result="effect1_dropShadow_560_584"/>
<feBlend mode="normal" in="SourceGraphic" in2="effect1_dropShadow_560_584" result="shape"/>
</filter>
<filter id="filter1_d_560_584" x="0.410156" y="98.6331" width="69.4805" height="75.9768" filterUnits="userSpaceOnUse" color-interpolation-filters="sRGB">
<feFlood flood-opacity="0" result="BackgroundImageFix"/>
<feColorMatrix in="SourceAlpha" type="matrix" values="0 0 0 0 0 0 0 0 0 0 0 0 0 0 0 0 0 0 127 0" result="hardAlpha"/>
<feOffset/>
<feGaussianBlur stdDeviation="10"/>
<feComposite in2="hardAlpha" operator="out"/>
<feColorMatrix type="matrix" values="0 0 0 0 0.966667 0 0 0 0 0.2175 0 0 0 0 0.2175 0 0 0 1 0"/>
<feBlend mode="normal" in2="BackgroundImageFix" result="effect1_dropShadow_560_584"/>
<feBlend mode="normal" in="SourceGraphic" in2="effect1_dropShadow_560_584" result="shape"/>
</filter>
<filter id="filter2_d_560_584" x="42.3828" y="128.114" width="47.9941" height="58.9878" filterUnits="userSpaceOnUse" color-interpolation-filters="sRGB">
<feFlood flood-opacity="0" result="BackgroundImageFix"/>
<feColorMatrix in="SourceAlpha" type="matrix" values="0 0 0 0 0 0 0 0 0 0 0 0 0 0 0 0 0 0 127 0" result="hardAlpha"/>
<feOffset/>
<feGaussianBlur stdDeviation="10"/>
<feComposite in2="hardAlpha" operator="out"/>
<feColorMatrix type="matrix" values="0 0 0 0 0.966667 0 0 0 0 0.2175 0 0 0 0 0.2175 0 0 0 1 0"/>
<feBlend mode="normal" in2="BackgroundImageFix" result="effect1_dropShadow_560_584"/>
<feBlend mode="normal" in="SourceGraphic" in2="effect1_dropShadow_560_584" result="shape"/>
</filter>
<filter id="filter3_f_560_584" x="39.8906" y="53.2795" width="136.113" height="93.3418" filterUnits="userSpaceOnUse" color-interpolation-filters="sRGB">
<feFlood flood-opacity="0" result="BackgroundImageFix"/>
<feBlend mode="normal" in="SourceGraphic" in2="BackgroundImageFix" result="shape"/>
<feGaussianBlur stdDeviation="5" result="effect1_foregroundBlur_560_584"/>
</filter>
</defs>
</svg>
