<svg width="265" height="251" viewBox="0 0 265 251" fill="none" xmlns="http://www.w3.org/2000/svg">
<path d="M145.539 234.05C135.976 239.059 128.234 239.514 118.671 234.05L23.4925 177.125C19.8493 173.482 19.4018 168.476 23.4925 166.195L118.671 109.726C127.779 104.261 135.976 104.717 145.539 109.726L235.708 162.097C246.637 168.017 243.45 174.393 233.886 180.768L145.539 234.05Z" fill="#0F0E0E" stroke="white" stroke-width="0.5"/>
<g filter="url(#filter0_d_561_1403)">
<path d="M238.44 163.919C244.623 169.891 243.132 173.519 234.797 180.313V193.52L242.083 189.421C244.101 187.611 244.432 186.367 244.36 183.956V173.938C244.296 167.973 242.639 166.108 238.44 163.919Z" fill="#F73737"/>
</g>
<g filter="url(#filter1_d_561_1403)">
<path d="M47.1732 190.787V203.994L23.0371 189.421C20.76 187.599 20.3047 185.778 20.3047 182.59V171.205C21.2155 173.482 22.5817 176.214 23.9479 176.67L47.1732 190.787Z" fill="#F73737"/>
</g>
<g filter="url(#filter2_d_561_1403)">
<path d="M58.5566 210.824V198.073L65.843 202.627V215.378L58.5566 210.824Z" fill="#F73737"/>
</g>
<path d="M47.1738 203.994L118.216 246.802M118.216 246.802V233.885M118.216 246.802C126.495 251.835 137.343 251.811 145.54 246.802M145.54 246.802L147.623 245.558M145.54 246.802V244.98M145.54 234.05V237.238M223.413 200.316L234.798 180.313V183.957M223.413 200.316L226.601 198.413M223.413 200.316L220.303 202.173M226.601 198.413L234.798 183.957M226.601 198.413L229.788 196.51M234.798 183.957V187.144M234.798 187.144L229.788 196.51M234.798 187.144V190.332M229.788 196.51L232.293 195.015M232.293 195.015L234.798 193.52V190.332M232.293 195.015L234.798 190.332M220.303 202.173L231.155 182.59M220.303 202.173L217.493 203.85M217.493 203.85L227.511 184.867M217.493 203.85L213.849 206.025M213.849 206.025L222.957 187.6M213.849 206.025L210.206 208.2M210.206 208.2L218.859 189.877M210.206 208.2L207.018 210.103M207.018 210.103L214.76 192.154M207.018 210.103L203.118 212.431M203.118 212.431L210.662 194.886M203.118 212.431L198.942 214.924M198.942 214.924L206.563 197.163M198.942 214.924L195.634 216.899M195.634 216.899L202.464 199.896M195.634 216.899L192.446 218.802M192.446 218.802L198.942 201.717M192.446 218.802L189.258 220.704M189.258 220.704L194.723 204.45M189.258 220.704L185.973 222.665M185.973 222.665L191.08 206.727M185.973 222.665L182.882 224.51M182.882 224.51L187.436 209.004M182.882 224.51L180.15 226.141M180.15 226.141L183.793 211.281M180.15 226.141L176.962 228.044M176.962 228.044L180.15 213.102M176.962 228.044L173.004 230.407M173.004 230.407L176.962 214.924M173.004 230.407L169.22 232.666M169.22 232.666L173.004 217.437M169.22 232.666L165.375 234.961M165.375 234.961L169.22 219.933M165.375 234.961L161.56 237.238M161.56 237.238C161.495 236.874 164.211 227.068 165.577 222.21M161.56 237.238L157.38 239.734M157.38 239.734L161.023 224.942M157.38 239.734L153.932 241.792M153.932 241.792L157.836 226.764M153.932 241.792L150.549 243.811M150.549 243.811L154.192 229.041M150.549 243.811L147.623 245.558M147.623 245.558L151.005 230.863M145.54 244.98L148.272 232.666M145.54 244.98V237.238M145.54 237.238L146.451 233.595" stroke="white" stroke-width="0.5"/>
<g filter="url(#filter3_f_561_1403)">
<path d="M124.544 189.955C136.777 186.58 169.857 157.637 166.06 150.467C158.89 161.434 124.432 179.993 118.526 169.448L94.0613 123.893L48.5059 150.467C55.7333 162.656 57.8329 169.211 89.6411 181.137C110.016 190.443 114.529 191.244 124.544 189.955Z" fill="#222222"/>
</g>
<path d="M84.0156 175.995C84.0156 178.269 85.9962 179.076 88.8573 176.875L152.462 138.947L159.944 113.418V2.92677C159.944 -0.217198 157.025 -0.652728 152.935 2.92677L87.8285 42.3697C84.9686 44.1105 84.2847 46.4108 84.2847 49.1463L84.0156 175.995Z" fill="#161616" stroke="#EEEEEE" stroke-width="0.5"/>
<path d="M92.3555 181.231C92.3555 183.505 94.3361 184.312 97.1972 182.111L160.801 144.183L168.284 118.654V8.16286C168.284 5.01889 165.365 4.58336 161.275 8.16286L96.1683 47.6058C93.3085 49.3465 92.6246 51.6469 92.6246 54.3824L92.3555 181.231Z" fill="#161616" stroke="#EEEEEE" stroke-width="0.5"/>
<path d="M102.428 186.205C102.428 188.479 104.408 189.286 107.269 187.085L170.874 149.158L178.357 123.628V13.1372C178.357 9.99325 175.437 9.55772 171.347 13.1372L106.241 52.5801C103.381 54.3209 102.697 56.6212 102.697 59.3567L102.428 186.205Z" fill="#161616" stroke="#EEEEEE" stroke-width="0.5"/>
<path d="M110.18 192.503C110.18 194.777 112.16 195.584 115.021 193.383L178.626 155.456L186.109 129.926V19.4353C186.109 16.2913 183.189 15.8558 179.099 19.4353L113.993 58.8782C111.133 60.619 110.449 62.9193 110.449 65.6548L110.18 192.503Z" fill="#0F0E0E" stroke="white" stroke-width="0.5"/>
<path opacity="0.05" d="M123.307 77.1822V70.7713L172.781 41.0674V47.6989L123.307 77.1822Z" fill="#D0D0D0" stroke="white" stroke-width="0.5"/>
<ellipse opacity="0.05" cx="164.451" cy="132.96" rx="8.44264" ry="13.4742" transform="rotate(18.9017 164.451 132.96)" fill="white"/>
<path opacity="0.05" d="M123.307 89.9126V83.5018L172.781 53.7979V60.4293L123.307 89.9126Z" fill="#D0D0D0" stroke="white" stroke-width="0.5"/>
<path opacity="0.05" d="M123.307 115.612V109.201L172.781 79.4976V86.129L123.307 115.612Z" fill="#D0D0D0" stroke="white" stroke-width="0.5"/>
<path opacity="0.05" d="M123.307 129.15V122.739L172.781 93.0352V99.6666L123.307 129.15Z" fill="#D0D0D0" stroke="white" stroke-width="0.5"/>
<path opacity="0.05" d="M123.307 141.906V135.496L160.235 112.836V119.468L123.307 141.906Z" fill="#D0D0D0" stroke="white" stroke-width="0.5"/>
<path opacity="0.05" d="M123.307 104.448V98.0375L160.235 75.3784V82.0099L123.307 104.448Z" fill="#D0D0D0" stroke="white" stroke-width="0.5"/>
<path opacity="0.05" d="M123.307 154.266V147.855L152.584 130.493V137.125L123.307 154.266Z" fill="#D0D0D0" stroke="white" stroke-width="0.5"/>
<path opacity="0.05" d="M123.307 167.115V160.704L152.584 143.343V149.974L123.307 167.115Z" fill="#D0D0D0" stroke="white" stroke-width="0.5"/>
<path d="M141.479 88.2386V81.8277L190.953 52.1238V58.7553L141.479 88.2386Z" fill="#272727" stroke="white" stroke-opacity="0.2" stroke-width="0.5"/>
<path d="M122.914 70.8197L141.559 82.2416M172.381 41.1729L190.774 52.2589M123.451 167.342L141.389 177.946M173.101 121.656L189.354 131.07" stroke="white" stroke-width="0.5"/>
<path d="M141.479 100.968V94.5574L190.953 64.8535V71.485L141.479 100.968Z" fill="white"/>
<path d="M141.479 126.669V120.258L190.953 90.5542V97.1857L141.479 126.669Z" fill="#272727" stroke="white" stroke-opacity="0.2" stroke-width="0.5"/>
<path d="M141.479 140.207V133.796L190.953 104.092V110.723L141.479 140.207Z" fill="#272727" stroke="white" stroke-opacity="0.2" stroke-width="0.5"/>
<path d="M141.479 152.962V146.551L178.407 123.892V130.524L141.479 152.962Z" fill="#272727" stroke="white" stroke-opacity="0.2" stroke-width="0.5"/>
<path d="M141.479 115.503V109.092L178.407 86.4326V93.0641L141.479 115.503Z" fill="#272727" stroke="white" stroke-opacity="0.2" stroke-width="0.5"/>
<path d="M141.479 165.321V158.91L170.756 141.548V148.18L141.479 165.321Z" fill="white"/>
<path d="M141.479 178.171V171.76L170.756 154.398V161.03L141.479 178.171Z" fill="white"/>
<ellipse cx="184.225" cy="143.207" rx="10.2696" ry="14.3273" transform="rotate(18.9017 184.225 143.207)" fill="white"/>
<path d="M178.357 146.155L183.068 151.017L189.298 136.05" stroke="#414141" stroke-width="1.4"/>
<defs>
<filter id="filter0_d_561_1403" x="214.797" y="143.919" width="49.5723" height="69.6011" filterUnits="userSpaceOnUse" color-interpolation-filters="sRGB">
<feFlood flood-opacity="0" result="BackgroundImageFix"/>
<feColorMatrix in="SourceAlpha" type="matrix" values="0 0 0 0 0 0 0 0 0 0 0 0 0 0 0 0 0 0 127 0" result="hardAlpha"/>
<feOffset/>
<feGaussianBlur stdDeviation="10"/>
<feComposite in2="hardAlpha" operator="out"/>
<feColorMatrix type="matrix" values="0 0 0 0 0.966667 0 0 0 0 0.2175 0 0 0 0 0.2175 0 0 0 1 0"/>
<feBlend mode="normal" in2="BackgroundImageFix" result="effect1_dropShadow_561_1403"/>
<feBlend mode="normal" in="SourceGraphic" in2="effect1_dropShadow_561_1403" result="shape"/>
</filter>
<filter id="filter1_d_561_1403" x="0.304688" y="151.205" width="66.8691" height="72.7886" filterUnits="userSpaceOnUse" color-interpolation-filters="sRGB">
<feFlood flood-opacity="0" result="BackgroundImageFix"/>
<feColorMatrix in="SourceAlpha" type="matrix" values="0 0 0 0 0 0 0 0 0 0 0 0 0 0 0 0 0 0 127 0" result="hardAlpha"/>
<feOffset/>
<feGaussianBlur stdDeviation="10"/>
<feComposite in2="hardAlpha" operator="out"/>
<feColorMatrix type="matrix" values="0 0 0 0 0.966667 0 0 0 0 0.2175 0 0 0 0 0.2175 0 0 0 1 0"/>
<feBlend mode="normal" in2="BackgroundImageFix" result="effect1_dropShadow_561_1403"/>
<feBlend mode="normal" in="SourceGraphic" in2="effect1_dropShadow_561_1403" result="shape"/>
</filter>
<filter id="filter2_d_561_1403" x="38.5566" y="178.073" width="47.2871" height="57.3052" filterUnits="userSpaceOnUse" color-interpolation-filters="sRGB">
<feFlood flood-opacity="0" result="BackgroundImageFix"/>
<feColorMatrix in="SourceAlpha" type="matrix" values="0 0 0 0 0 0 0 0 0 0 0 0 0 0 0 0 0 0 127 0" result="hardAlpha"/>
<feOffset/>
<feGaussianBlur stdDeviation="10"/>
<feComposite in2="hardAlpha" operator="out"/>
<feColorMatrix type="matrix" values="0 0 0 0 0.966667 0 0 0 0 0.2175 0 0 0 0 0.2175 0 0 0 1 0"/>
<feBlend mode="normal" in2="BackgroundImageFix" result="effect1_dropShadow_561_1403"/>
<feBlend mode="normal" in="SourceGraphic" in2="effect1_dropShadow_561_1403" result="shape"/>
</filter>
<filter id="filter3_f_561_1403" x="38.5059" y="113.893" width="137.855" height="86.542" filterUnits="userSpaceOnUse" color-interpolation-filters="sRGB">
<feFlood flood-opacity="0" result="BackgroundImageFix"/>
<feBlend mode="normal" in="SourceGraphic" in2="BackgroundImageFix" result="shape"/>
<feGaussianBlur stdDeviation="5" result="effect1_foregroundBlur_561_1403"/>
</filter>
</defs>
</svg>
