<svg width="491" height="194" viewBox="0 0 491 194" fill="none" xmlns="http://www.w3.org/2000/svg">
<g opacity="0.5">
<path d="M-3638.16 1.21987C-3352.17 -2.35643 -2677.14 8.45194 -2264.99 80.2958C-1852.83 152.14 -1324.17 110.231 -1111.36 80.2958C-780.915 48.5065 -30.3265 10.7567 328.491 114.072C777.012 243.216 1434.31 249.176 1901.68 198.314C2369.06 147.451 2905.12 114.072 3208.19 114.072C3608.22 114.072 4375.29 96.4977 4847.38 198.314C5237.98 282.555 5958.58 232.09 6349.86 198.314C6814.8 158.179 7329.6 47.7117 7832.81 232.09" stroke="white" stroke-width="0.5"/>
<path d="M-3655 433.553C-3455.88 385.869 -2965.52 288.594 -2597 280.964C-2136.36 271.427 -1506 433.553 -1255.48 433.553C-1004.95 433.553 -617.041 376.332 -253.375 280.964C110.292 185.596 1096.23 185.597 1645.77 309.575C2195.31 433.553 2851.88 423.876 3148.25 347.722C3649.3 218.975 4936.02 32.9307 5306 200.3C5790.89 419.646 6465.02 433.553 6856.3 280.964C7510.15 25.9764 8245.64 219.374 8436.23 309.575" stroke="white" stroke-width="0.5"/>
<path d="M-3638.65 5.63758C-3355.16 0.787989 -2685.47 8.4762 -2274.57 78.0258C-1861.02 147.52 -1329.42 111.501 -1115.52 82.4307C-787.381 51.5591 -47.2617 13.2472 311.696 110.827C757.768 233.49 1424.55 239.278 1894.3 193.463C2364.05 147.647 2903.58 114.952 3206.46 112.754C3609.41 109.037 4391.48 86.5998 4860.62 190.308C5253.95 278.45 5973.2 229.843 6364.48 192.637C6834.87 146.3 7356.05 44.6044 7850.23 226.264" stroke="white" stroke-width="0.5"/>
<path d="M-3639.17 10.6004C-3358.35 4.39481 -2694.33 8.7602 -2284.78 75.8665C-1869.73 142.859 -1335.01 113.113 -1119.95 84.9625C-794.269 55.0682 -65.2995 16.1577 293.807 107.629C737.27 223.39 1414.15 228.995 1886.43 188.555C2358.71 148.114 2901.94 116.148 3204.62 111.609C3610.67 103.934 4408.72 76.3171 4874.72 182.041C5270.94 274.336 5988.77 227.708 6380.05 186.849C6856.25 133.907 7384.21 41.5534 7868.78 220.317" stroke="white" stroke-width="0.5"/>
<path d="M-3639.72 16.1864C-3361.74 8.54211 -2703.74 9.38201 -2295.61 73.8961C-1878.98 138.234 -1340.94 115.143 -1124.65 87.9692C-801.578 59.1118 -84.4387 19.5662 274.826 104.557C715.521 212.995 1403.13 218.405 1878.08 183.668C2353.04 148.93 2900.21 117.738 3202.66 110.714C3612.01 98.8399 4427 65.7278 4889.68 173.59C5288.98 270.292 6005.29 225.763 6396.57 181.029C6878.93 121.079 7414.09 38.6368 7888.46 214.329" stroke="white" stroke-width="0.5"/>
<path d="M-3640.3 22.479C-3365.31 13.3133 -2713.69 10.425 -2307.06 72.1978C-1888.76 133.729 -1347.21 117.676 -1129.62 91.5342C-809.305 63.7733 -104.676 23.5561 254.756 101.694C692.524 202.387 1391.46 207.592 1869.25 178.886C2347.04 150.179 2898.37 119.804 3200.59 110.153C3613.43 93.8384 4446.35 54.9152 4905.5 165.038C5308.05 266.401 6022.76 224.092 6414.04 175.26C6902.92 107.899 7445.69 35.938 7909.28 208.382" stroke="white" stroke-width="0.5"/>
<path d="M-3640.91 29.5595C-3369.08 18.7896 -2724.17 11.9705 -2319.14 70.853C-1899.07 129.424 -1353.83 120.792 -1134.86 95.7388C-817.454 69.1341 -126.014 28.2087 233.594 99.1206C668.276 191.649 1379.17 196.637 1859.95 174.289C2340.72 151.941 2896.43 122.428 3198.41 110.008C3614.92 89.0107 4466.74 43.9605 4922.18 156.468C5328.16 262.744 6041.18 222.777 6432.45 169.623C6928.2 94.4479 7479 33.5383 7931.22 202.557" stroke="white" stroke-width="0.5"/>
<path d="M-3641.55 37.5029C-3373.05 25.0462 -2735.2 14.0936 -2331.83 69.9367C-1909.92 125.396 -1360.78 124.566 -1140.37 100.658C-826.023 75.269 -148.453 33.599 211.34 96.9125C642.778 180.855 1366.24 185.615 1850.16 169.954C2334.08 154.292 2894.4 125.686 3196.12 110.353C3616.49 84.4321 4488.18 32.939 4939.71 147.953C5349.3 259.396 6060.54 221.891 6451.82 164.193C6954.8 80.8014 7514.03 31.5127 7954.3 196.93" stroke="white" stroke-width="0.5"/>
<path d="M-3642.23 46.3802C-3377.21 32.154 -2746.77 16.8652 -2345.15 69.52C-1921.29 121.714 -1368.07 129.07 -1146.15 106.363C-835.009 82.2493 -171.989 39.7981 187.999 95.1408C616.032 170.076 1352.68 174.597 1839.89 165.95C2327.11 157.303 2892.26 129.647 3193.72 111.26C3618.14 80.1734 4510.68 21.9215 4958.12 139.565C5371.49 256.428 6080.86 221.506 6472.14 159.042C6982.7 67.0304 7550.78 29.9323 7978.51 191.571" stroke="white" stroke-width="0.5"/>
<path d="M-3642.94 56.2491C-3381.57 40.1706 -2758.88 20.343 -2359.1 69.6604C-1933.2 118.437 -1375.71 134.361 -1152.21 112.911C-844.417 90.1324 -196.629 46.8635 163.563 93.8628C588.033 159.37 1338.48 163.641 1829.15 162.336C2319.81 161.031 2890.03 134.371 3191.2 112.785C3619.87 76.2923 4534.22 10.9657 4977.37 131.362C5394.7 253.899 6102.13 221.68 6493.41 154.226C7011.89 53.1923 7589.25 28.8546 8003.85 186.538" stroke="white" stroke-width="0.5"/>
<path d="M-3643.67 67.1623C-3386.12 49.1489 -2771.53 24.5798 -2373.66 70.4108C-1945.63 115.618 -1383.69 140.492 -1158.53 120.355C-854.245 98.9713 -222.366 54.8482 138.038 93.1315C558.785 148.789 1323.65 152.799 1817.92 159.164C2312.19 165.53 2887.69 139.909 3188.57 114.982C3621.67 72.8416 4558.82 0.124402 4997.5 123.397C5418.96 251.86 6124.35 222.465 6515.63 149.8C7042.4 39.3401 7629.44 28.3325 8030.32 181.885" stroke="white" stroke-width="0.5"/>
<path d="M-3644.44 81.3784C-3390.86 61.3474 -2784.72 31.8341 -2388.85 74.0297C-1958.6 115.514 -1392 149.722 -1165.12 130.954C-864.493 111.024 -249.204 66.0106 111.422 95.2053C528.287 140.593 1308.19 144.33 1806.21 158.693C2304.24 173.056 2885.26 148.52 3185.83 120.11C3623.55 72.0798 4584.47 -8.34393 5018.47 117.927C5444.25 252.571 6147.52 226.12 6538.79 148.02C7074.21 27.7321 7671.34 30.6245 8057.92 179.869" stroke="white" stroke-width="0.5"/>
<path d="M-3645.25 107.57C-3395.8 85.4384 -2798.45 50.7783 -2404.66 89.1894C-1972.1 126.798 -1400.66 170.722 -1171.98 153.38C-875.162 134.964 -277.144 89.023 83.7134 108.757C496.538 143.453 1292.09 146.907 1794.03 169.596C2295.97 192.284 2882.72 168.877 3182.97 136.84C3625.5 82.6793 4611.18 -5.76677 5040.31 123.626C5470.58 264.703 6171.63 241.318 6562.91 157.56C7107.32 27.0409 7714.96 44.403 8086.66 189.163" stroke="white" stroke-width="0.5"/>
<path d="M-3646.08 134.952C-3400.93 110.637 -2812.73 70.6274 -2421.09 105.105C-1986.14 138.686 -1409.66 192.708 -1179.12 176.848C-886.251 160.005 -306.184 113.101 54.9132 123.001C463.538 146.585 1275.35 149.744 1781.36 181.086C2287.37 212.429 2880.08 190.194 3180.01 154.388C3627.54 93.8551 4638.93 -2.92927 5063.01 129.708C5497.95 277.472 6196.7 257.273 6587.97 167.634C7141.74 26.4814 7760.3 58.8829 8116.52 198.982" stroke="white" stroke-width="0.5"/>
<path d="M-3646.95 163.511C-3406.26 136.931 -2827.54 91.369 -2438.15 121.764C-2000.7 151.165 -1419 215.668 -1186.52 201.346C-897.76 186.136 -336.323 138.231 25.0226 137.925C429.289 149.976 1257.98 152.828 1768.21 193.152C2278.44 233.476 2877.35 212.459 3176.93 172.742C3629.64 105.595 4667.73 0.156288 5086.57 136.161C5526.35 290.865 6222.71 273.973 6613.99 178.231C7177.45 26.0412 7807.35 74.052 8147.51 209.313" stroke="white" stroke-width="0.5"/>
<path d="M-3647.84 193.242C-3411.78 164.313 -2842.9 112.996 -2455.82 139.16C-2015.8 164.227 -1428.69 239.595 -1194.2 226.866C-909.689 213.349 -367.562 164.407 -5.95773 153.522C393.79 153.62 1239.98 156.155 1754.59 205.788C2269.19 255.421 2874.51 235.666 3173.74 191.894C3631.83 117.892 4697.59 3.48309 5110.99 142.978C5555.79 304.876 6249.68 291.411 6640.95 189.343C7214.48 25.7135 7856.13 89.9034 8179.65 220.15" stroke="white" stroke-width="0.5"/>
<path d="M-3648.77 224.135C-3417.5 192.775 -2858.79 135.501 -2474.13 157.284C-2031.43 177.866 -1438.71 264.48 -1202.14 253.401C-922.037 241.636 -399.902 191.621 -38.0302 169.785C357.041 157.508 1221.35 159.714 1740.48 218.984C2259.61 278.254 2871.58 259.806 3170.43 211.836C3634.1 130.738 4728.49 7.0429 5136.27 150.151C5586.26 319.496 6277.59 309.579 6668.87 200.962C7252.81 25.4902 7906.62 106.429 8212.9 231.484" stroke="white" stroke-width="0.5"/>
<path d="M-3649.73 256.184C-3423.41 222.31 -2875.23 158.876 -2493.05 176.13C-2047.59 192.073 -1449.07 290.315 -1210.35 280.943C-934.805 270.99 -433.34 219.865 -71.1924 186.705C319.042 161.632 1202.08 163.498 1725.9 232.734C2249.71 301.969 2868.55 284.871 3167.02 232.561C3636.44 144.125 4760.45 10.8281 5162.41 157.673C5617.78 334.718 6306.46 328.469 6697.73 213.081C7292.44 25.3636 7958.83 123.621 8247.3 243.309" stroke="white" stroke-width="0.5"/>
<path d="M-3650.72 289.38C-3429.51 252.91 -2892.2 183.113 -2512.59 195.688C-2064.28 206.84 -1459.77 317.094 -1218.84 309.484C-947.994 301.402 -467.88 249.131 -105.446 204.274C279.793 165.984 1182.18 167.5 1710.83 247.028C2239.48 326.556 2865.41 310.854 3163.49 254.061C3638.86 158.045 4793.46 14.8307 5189.41 165.534C5650.33 350.533 6336.27 348.074 6727.55 225.691C7333.37 25.3256 8012.75 141.471 8282.82 255.615" stroke="white" stroke-width="0.5"/>
<path d="M-3651.74 323.721C-3435.81 284.571 -2909.72 208.209 -2532.76 215.956C-2081.5 222.165 -1470.82 344.813 -1227.59 339.021C-961.604 332.87 -503.52 279.417 -140.792 222.491C239.292 170.563 1161.64 171.717 1695.29 261.866C2228.93 352.015 2862.18 337.752 3159.85 276.333C3641.35 172.496 4827.52 19.0483 5217.27 173.734C5683.91 366.939 6367.03 368.391 6758.31 238.791C7375.61 25.374 8068.4 159.978 8319.47 268.401" stroke="white" stroke-width="0.5"/>
<path d="M-3652.8 359.2C-3442.31 317.288 -2927.78 234.157 -2553.55 236.928C-2099.25 238.041 -1482.21 373.466 -1236.62 369.548C-975.633 365.388 -540.261 310.715 -177.229 241.348C197.542 175.361 1140.47 176.142 1679.26 277.239C2218.05 378.336 2858.84 365.558 3156.09 299.37C3643.92 187.472 4862.64 23.4739 5245.98 182.264C5718.53 383.93 6398.74 389.413 6790.02 252.373C7419.16 25.5016 8125.76 179.133 8357.26 281.659" stroke="white" stroke-width="0.5"/>
<path d="M-3653.88 395.812C-3449 351.055 -2946.38 260.954 -2574.97 258.599C-2117.54 254.463 -1493.93 403.047 -1245.91 401.06C-990.082 398.95 -578.101 343.022 -214.756 260.841C154.542 180.374 1118.67 180.77 1662.76 293.144C2206.84 405.517 2855.41 394.268 3152.23 323.168C3646.58 202.966 4898.8 28.1028 5275.56 191.121C5754.19 401.501 6431.41 411.135 6822.69 266.432C7464 25.7039 8184.84 198.933 8396.18 295.385" stroke="white" stroke-width="0.5"/>
</g>
</svg>
