<svg width="295" height="300" fill="none" xmlns="http://www.w3.org/2000/svg"><path d="M162.525 280.426c-10.884 5.701-19.694 6.22-30.578 0L23.628 215.642c-4.146-4.146-4.655-9.843 0-12.438l108.319-64.266c10.365-6.219 19.694-5.701 30.578 0l102.618 59.601c12.439 6.738 8.811 13.994-2.073 21.249l-100.545 60.638Z" fill="#CECECE" stroke="#fff" stroke-width=".5"/><g opacity=".5" filter="url(#a)"><path d="M116.514 136.308c8.458-5.267 17.93-5.691 28.694-4.089 12.886 1.917 24.722 8.027 35.265 15.68l13.287 9.645c24.977 18.13 42.16 52.052 16.66 69.439-34.19 23.312-95.423 24.849-104.066 18.727l-38.097-22.741a23.971 23.971 0 0 1-10.103-29.142l1.152-3.014a41.442 41.442 0 0 1 12.202-17.055l45.006-37.45Z" fill="#7A7A7A"/></g><g filter="url(#b)"><path d="M268.252 200.611c7.037 6.796 5.34 10.926-4.146 18.658v15.03l8.293-4.664c2.295-2.06 2.672-3.476 2.591-6.22v-11.402c-.073-6.788-1.959-8.911-6.738-11.402Z" fill="#fff"/></g><g filter="url(#c)"><path d="M50.578 231.191v15.03L23.11 229.636c-2.592-2.073-3.11-4.146-3.11-7.774v-12.957c1.037 2.592 2.591 5.701 4.146 6.22l26.432 16.066Z" fill="#fff"/></g><g filter="url(#d)"><path d="M63.536 253.993v-14.512l8.292 5.183v14.512l-8.292-5.183Z" fill="#fff"/></g><path d="m50.578 246.22 80.85 48.717m0 0v-14.699m0 14.699c9.422 5.728 21.768 5.701 31.097 0m0 0 2.37-1.415m-2.37 1.415v-2.073m0-12.438v3.628m88.624-42.02 12.957-22.764v4.146m-12.957 18.618 3.628-2.166m-3.628 2.166-3.539 2.113m7.167-4.279 9.329-16.452m-9.329 16.452 3.628-2.165m5.701-14.287v3.628m0 0-5.701 10.659m5.701-10.659v3.628m-5.701 7.031 2.85-1.702m0 0 2.851-1.702v-3.627m-2.851 5.329 2.851-5.329m-16.496 13.475 12.35-22.286m-12.35 22.286-3.198 1.909m0 0 11.402-21.604m-11.402 21.604-4.147 2.475m0 0 10.366-20.969m-10.366 20.969-4.146 2.475m0 0 9.847-20.853m-9.847 20.853-3.628 2.165m0 0 8.811-20.426m-8.811 20.426-4.439 2.65m0 0 8.585-19.967m-8.585 19.967-4.752 2.837m0 0 8.673-20.212m-8.673 20.212-3.766 2.248m0 0 7.775-19.351m-7.775 19.351-3.627 2.165m0 0 7.393-19.443m-7.393 19.443-3.628 2.166m0 0 6.219-18.499m-6.219 18.499-3.739 2.232m0 0 5.812-18.14m-5.812 18.14-3.517 2.099m0 0 5.183-17.647m-5.183 17.647-3.11 1.857m0 0 4.146-16.913m-4.146 16.913-3.628 2.165m0 0 3.628-17.005m-3.628 17.005-4.505 2.69m0 0 4.505-17.622m-4.505 17.622-4.305 2.57m0 0 4.305-17.331m-4.305 17.331-4.377 2.612m0 0 4.377-17.103m-4.377 17.103-4.341 2.592m0 0c-.074-.415 3.017-11.575 4.571-17.103m-4.571 17.103-4.757 2.84m0 0 4.146-16.834M176 286.894l-3.925 2.342m0 0 4.443-17.103m-4.443 17.103-3.85 2.298m0 0 4.147-16.809m-4.147 16.809-3.33 1.988m0 0 3.849-16.724m-6.219 16.066 3.109-14.014m-3.109 14.014v-8.81m0 0 1.036-4.147" stroke="#fff" stroke-width=".5"/><g filter="url(#e)"><path d="m56.293 92.422-10.107 5.972 75.802 46.4c5.053 3.216 15.62-2.757 10.566-5.972l-76.26-46.4Z" fill="#222"/></g><g filter="url(#f)"><path d="M222.137 134.227c1.838-1.378.919-3.216-1.378-4.594l-17.917-10.566-65.235-35.834v7.81l73.505 44.562c1.837 1.838 3.675 3.216 5.972 1.838l5.053-3.216Z" fill="#222"/></g><path d="M87.992 213.244v-32.158c0-4.594-.92-7.538-5.973-10.566-6.919-4.146-9.188-7.351-9.188-12.404v-16.998m34.456 37.211v-16.538m15.16 9.188v20.673c0 4.594-1.378 7.17-5.054 9.648-5.534 3.73-10.106 6.431-10.106 11.944v11.026m19.294-11.026v-8.269c0-2.757.749-4.594 3.216-6.432 4.45-3.313 8.729-5.513 8.729-10.107v-8.728m11.485.918v14.701c0 5.973 1.378 10.107 6.891 13.323 4.594 2.297 8.269 5.972 8.269 11.485v16.079m0-46.859v-16.079m19.295-11.485v21.132c0 5.973 2.757 8.27 7.351 11.486 8.269 4.134 11.944 8.728 11.944 13.782v4.594m0-23.43v-13.323c0-3.675 1.378-6.431 5.054-8.728 9.682-5.383 14.241-9.188 14.241-14.242v-14.701" stroke="#fff" stroke-width=".5"/><path d="M39.295 102.53c-11.026 5.972-10.107 12.403 0 18.376l91.421 55.128c11.485 6.432 20.214 6.432 29.861 0l94.638-56.966c6.891-4.136 7.809-9.649 0-14.701l-100.61-63.398c-4.134-3.217-8.269-2.757-11.944 0L39.295 102.53Z" fill="#969696" stroke="#fff" stroke-width=".5"/><path d="M78.803 98.394V62.1c0-5.053 3.676-10.107 11.945-5.054l24.808 14.701c12.863 7.81 14.241 12.863 14.241 19.295v38.131c0 4.594-5.972 6.891-11.025 4.594l-33.537-20.214c-5.053-3.675-6.431-8.269-6.431-15.16Z" fill="#CECECE" stroke="#fff" stroke-width=".5"/><path d="m82.939 55.208 6.89-3.675c5.054-2.296 6.892-1.377 11.486 1.837l26.186 15.622c8.269 4.135 10.566 11.944 10.566 18.835v34.456c0 2.756-.459 4.594-2.756 6.431l-8.27 5.054c2.297-1.378 2.757-3.216 2.757-5.513V90.584c-.46-7.35-2.864-11.77-11.485-16.998L89.83 56.588c-2.719-1.36-4.233-1.759-6.891-1.38Z" stroke="#fff" stroke-width=".5"/><path d="m89.37 56.13 8.27-5.054m-4.595 7.35 8.269-5.053m-5.053 6.891 8.269-5.053m-4.594 7.35 8.269-5.053m-.918 9.188 7.809-5.054M103.152 64.4l8.269-5.054m-.919 9.648 8.27-5.053m-4.135 7.35 7.351-5.513m-3.216 7.81 6.891-5.513m-4.594 7.35 8.269-5.512m-5.053 8.269 8.269-5.513m-5.972 7.81 8.269-5.053m-6.432 8.269 7.81-5.054m-6.891 7.81 8.269-4.594m-7.81 8.729 8.27-4.594m-8.27 9.188 8.27-5.053m-8.27 8.728 8.27-4.594m-8.27 8.729 8.27-5.054m-8.27 9.188 8.27-5.053m-8.27 9.188 8.27-5.053m-8.27 9.188 8.27-5.054m-8.27 9.648c.368 0 5.666-3.676 8.27-5.513m-8.27 9.188 8.27-5.054m-8.27 9.648 8.27-5.513" stroke="#fff" stroke-width=".5"/><path d="m137.606 83.233 58.804 35.374c12.461 8.713 22.469 8.269 24.808 1.838 9.188-25.267-1.837-46.4-22.97-59.723-3.216-45.021-35.145-67.238-50.075-46.402-9.188-12.862-28.942-11.483-28.942 10.11-11.945-7.813-16.539-1.382-19.296 7.35-2.296 9.188.739 20.59 5.973 24.348L127.5 68.992c6.891 4.134 8.835 7.56 10.106 14.241Z" fill="#CECECE" stroke="#fff" stroke-width=".5"/><path d="M220.3 122.281c7.162-4.786 10.107-8.269 12.404-12.863 3.216-22.051-3.839-41.529-26.186-52.831.459-33.994-26.645-70.287-50.994-49.156-9.188-5.973-14.703-9.536-27.105-.458m-7.809 9.188c-3.676-.92-8.631.446-12.864 5.053" stroke="#fff" stroke-width=".5"/><path d="m110.042 20.754 6.432-4.594m-2.756 5.513 6.431-5.053m-3.215 6.431 2.297-1.837m13.782-15.16 7.35-4.595m-3.216 5.054 6.432-5.054m-2.756 6.432 6.891-5.053m-3.676 7.35 6.891-5.513m-4.594 7.35 7.81-5.512m4.135.46 8.269-5.514m-3.216 5.054L170.684 1m-2.297 6.432 7.81-5.513m-4.135 7.35 7.81-5.972m-5.054 7.35 8.27-5.512m-5.513 7.81 8.269-5.513m-5.513 7.81 8.269-5.513m-6.431 7.81 8.728-5.513m-6.431 7.81 8.269-5.513m-6.432 8.269 8.27-5.513m-6.432 8.27 8.269-5.514m-6.891 8.27 8.27-5.972m-6.892 9.188 8.27-6.432m-6.891 8.729 8.728-5.513m-7.81 8.729 8.729-5.054m-7.35 8.27 8.269-5.514m-7.35 8.27 8.269-5.513m-7.351 9.188 8.27-5.513m-7.81 8.27 8.728-5.054m-8.269 8.729 8.729-5.513m-8.269 9.188 8.269-5.513m-7.81 9.188 8.269-5.513m-5.513 7.81 6.891-5.053m-4.134 6.89 7.35-5.053m-4.594 7.35 7.81-5.512m-5.513 7.35 8.269-5.053m-5.972 7.35 8.269-5.053m-5.972 7.35 8.269-5.053m-6.431 7.81c.367 0 5.972-3.37 8.729-5.054m-6.892 7.81 8.729-5.513m-6.891 8.27 8.729-5.513m-7.351 8.269 8.729-5.513m-7.351 8.729 8.729-5.972m-7.81 8.728 8.729-5.513m-7.81 8.73 8.729-5.514m-8.269 8.729 8.728-5.053m-8.269 8.269 8.729-5.513m-8.729 9.647 9.188-5.972m-9.188 9.188 8.729-5.053m-9.648 9.647c.368 0 6.585-3.675 9.648-5.513m-10.567 9.648 10.107-6.432m-11.026 9.648 7.81-4.594" stroke="#fff" stroke-width=".5"/><ellipse cx="145.417" cy="226.107" rx="3.216" ry="2.297" fill="#fff"/><ellipse cx="127.041" cy="191.193" rx="3.216" ry="2.297" fill="#fff"/><ellipse cx="184.006" cy="178.33" rx="3.216" ry="2.297" fill="#fff"/><path d="M206.977 214.163c0 1.269-1.439 2.297-3.215 2.297-1.776 0-3.216-1.028-3.216-2.297 0-1.268 1.44-2.297 3.216-2.297 1.776 0 3.215 1.029 3.215 2.297ZM206.977 191.193c0 1.268-1.439 2.297-3.215 2.297-1.776 0-3.216-1.029-3.216-2.297 0-1.269 1.44-2.297 3.216-2.297 1.776 0 3.215 1.028 3.215 2.297ZM168.387 238.052c0 1.269-1.439 2.297-3.215 2.297-1.776 0-3.216-1.028-3.216-2.297 0-1.269 1.44-2.297 3.216-2.297 1.776 0 3.215 1.028 3.215 2.297ZM129.798 214.163c0 1.269-1.44 2.297-3.216 2.297-1.776 0-3.216-1.028-3.216-2.297 0-1.268 1.44-2.297 3.216-2.297 1.776 0 3.216 1.029 3.216 2.297ZM91.207 214.163c0 1.269-1.44 2.297-3.215 2.297-1.776 0-3.216-1.028-3.216-2.297 0-1.268 1.44-2.297 3.216-2.297 1.776 0 3.215 1.029 3.215 2.297ZM110.503 179.248c0 1.269-1.44 2.297-3.216 2.297-1.776 0-3.216-1.028-3.216-2.297 0-1.268 1.44-2.297 3.216-2.297 1.776 0 3.216 1.029 3.216 2.297ZM110.503 226.107c0 1.268-1.44 2.297-3.216 2.297-1.776 0-3.216-1.029-3.216-2.297 0-1.269 1.44-2.297 3.216-2.297 1.776 0 3.216 1.028 3.216 2.297ZM168.387 190.735c0 1.268-1.439 2.297-3.215 2.297-1.776 0-3.216-1.029-3.216-2.297 0-1.269 1.44-2.297 3.216-2.297 1.776 0 3.215 1.028 3.215 2.297Z" fill="#fff"/><ellipse cx="146.335" cy="156.277" rx="3.216" ry="2.297" fill="#fff"/><ellipse cx="164.712" cy="144.334" rx="3.216" ry="2.297" fill="#fff"/><ellipse opacity=".4" cx="126.121" cy="237.134" rx="3.216" ry="2.297" fill="#fff"/><ellipse opacity=".4" cx="146.335" cy="249.078" rx="3.216" ry="2.297" fill="#fff"/><ellipse opacity=".4" cx="146.335" cy="202.22" rx="3.216" ry="2.297" fill="#fff"/><ellipse opacity=".4" cx="106.826" cy="202.22" rx="3.216" ry="2.297" fill="#fff"/><ellipse opacity=".4" cx="68.237" cy="202.22" rx="3.216" ry="2.297" fill="#fff"/><ellipse opacity=".4" cx="88.45" cy="190.275" rx="3.216" ry="2.297" fill="#fff"/><ellipse opacity=".4" cx="184.925" cy="226.108" rx="3.216" ry="2.297" fill="#fff"/><ellipse opacity=".4" cx="165.63" cy="214.162" rx="3.216" ry="2.297" fill="#fff"/><ellipse opacity=".4" cx="184.006" cy="202.22" rx="3.216" ry="2.297" fill="#fff"/><ellipse opacity=".4" cx="223.515" cy="202.22" rx="3.216" ry="2.297" fill="#fff"/><ellipse cx="184.006" cy="133.308" rx="3.216" ry="2.297" fill="#fff"/><ellipse cx="165.63" cy="121.364" rx="3.216" ry="2.297" fill="#fff"/><ellipse cx="146.335" cy="133.308" rx="3.216" ry="2.297" fill="#fff"/><ellipse cx="146.335" cy="109.419" rx="3.216" ry="2.297" fill="#fff"/><path d="m174.818 74.505 9.188 5.513V66.696c0-6.431-9.188-9.188-9.188-5.054v12.863Z" stroke="#969696" stroke-width=".5"/><path d="m179.872 96.098 4.135-16.08-9.189-5.512-3.215 16.998 8.269 4.594Z" stroke="#969696" stroke-width=".5"/><path d="M184.007 92.422V80.02l-4.135 16.079 4.135-3.676Z" fill="#969696"/><path d="m181.71 65.778-4.594-2.298v1.838l4.594 2.297v-1.837Z" fill="#505050"/><path d="m161.037 66.814 9.188 5.513V59.004c0-6.43-9.188-9.188-9.188-5.053v12.863ZM166.09 88.407l4.135-16.079-9.188-5.513-3.216 16.998 8.269 4.594Z" stroke="#969696" stroke-width=".5"/><path d="M170.225 84.731V72.327l-4.135 16.08 4.135-3.676Z" fill="#969696"/><path d="m167.928 58.086-4.594-2.297v1.838l4.594 2.297v-1.838Z" fill="#505050"/><path d="M155.524 74.505V63.02l-9.188-5.972V70.83c0 4.135 9.188 10.107 9.188 3.675ZM146.336 57.046l9.188 5.973-3.675-14.242-8.269-5.053 2.756 13.322Z" stroke="#969696" stroke-width=".5"/><path d="m155.524 47.4-3.675 1.378 3.675 14.241V47.4Z" fill="#969696"/><path d="M147.714 41.887c-1.225.612-3.767 1.837-4.135 1.837l8.27 5.054 3.675-1.378-7.81-5.513ZM141.282 65.317V53.832l-9.188-5.973v13.782c0 4.135 9.188 10.107 9.188 3.676ZM132.094 47.858l9.188 5.972-3.675-14.241-8.269-5.054 2.756 13.323Z" stroke="#969696" stroke-width=".5"/><path d="m141.282 38.21-3.675 1.38 3.675 14.24V38.21Z" fill="#969696"/><path d="M133.472 32.698c-1.225.613-3.767 1.838-4.134 1.838l8.269 5.053 3.675-1.378-7.81-5.513Z" stroke="#969696" stroke-width=".5"/><defs><filter id="a" x="40.574" y="115.396" width="198.432" height="149.38" filterUnits="userSpaceOnUse" color-interpolation-filters="sRGB"><feFlood flood-opacity="0" result="BackgroundImageFix"/><feBlend in="SourceGraphic" in2="BackgroundImageFix" result="shape"/><feGaussianBlur stdDeviation="8" result="effect1_foregroundBlur_512_1413"/></filter><filter id="b" x="244.106" y="180.611" width="50.894" height="73.688" filterUnits="userSpaceOnUse" color-interpolation-filters="sRGB"><feFlood flood-opacity="0" result="BackgroundImageFix"/><feColorMatrix in="SourceAlpha" values="0 0 0 0 0 0 0 0 0 0 0 0 0 0 0 0 0 0 127 0" result="hardAlpha"/><feOffset/><feGaussianBlur stdDeviation="10"/><feComposite in2="hardAlpha" operator="out"/><feColorMatrix values="0 0 0 0 1 0 0 0 0 1 0 0 0 0 1 0 0 0 1 0"/><feBlend in2="BackgroundImageFix" result="effect1_dropShadow_512_1413"/><feBlend in="SourceGraphic" in2="effect1_dropShadow_512_1413" result="shape"/></filter><filter id="c" x="0" y="188.905" width="70.578" height="77.315" filterUnits="userSpaceOnUse" color-interpolation-filters="sRGB"><feFlood flood-opacity="0" result="BackgroundImageFix"/><feColorMatrix in="SourceAlpha" values="0 0 0 0 0 0 0 0 0 0 0 0 0 0 0 0 0 0 127 0" result="hardAlpha"/><feOffset/><feGaussianBlur stdDeviation="10"/><feComposite in2="hardAlpha" operator="out"/><feColorMatrix values="0 0 0 0 1 0 0 0 0 1 0 0 0 0 1 0 0 0 1 0"/><feBlend in2="BackgroundImageFix" result="effect1_dropShadow_512_1413"/><feBlend in="SourceGraphic" in2="effect1_dropShadow_512_1413" result="shape"/></filter><filter id="d" x="43.536" y="219.481" width="48.292" height="59.694" filterUnits="userSpaceOnUse" color-interpolation-filters="sRGB"><feFlood flood-opacity="0" result="BackgroundImageFix"/><feColorMatrix in="SourceAlpha" values="0 0 0 0 0 0 0 0 0 0 0 0 0 0 0 0 0 0 127 0" result="hardAlpha"/><feOffset/><feGaussianBlur stdDeviation="10"/><feComposite in2="hardAlpha" operator="out"/><feColorMatrix values="0 0 0 0 1 0 0 0 0 1 0 0 0 0 1 0 0 0 1 0"/><feBlend in2="BackgroundImageFix" result="effect1_dropShadow_512_1413"/><feBlend in="SourceGraphic" in2="effect1_dropShadow_512_1413" result="shape"/></filter><filter id="e" x="36.186" y="82.422" width="107.703" height="73.295" filterUnits="userSpaceOnUse" color-interpolation-filters="sRGB"><feFlood flood-opacity="0" result="BackgroundImageFix"/><feBlend in="SourceGraphic" in2="BackgroundImageFix" result="shape"/><feGaussianBlur stdDeviation="5" result="effect1_foregroundBlur_512_1413"/></filter><filter id="f" x="127.607" y="73.233" width="105.508" height="74.769" filterUnits="userSpaceOnUse" color-interpolation-filters="sRGB"><feFlood flood-opacity="0" result="BackgroundImageFix"/><feBlend in="SourceGraphic" in2="BackgroundImageFix" result="shape"/><feGaussianBlur stdDeviation="5" result="effect1_foregroundBlur_512_1413"/></filter></defs></svg>