<svg width="300" height="270" fill="none" xmlns="http://www.w3.org/2000/svg"><path d="M165.319 249.782c-11.097 5.813-20.08 6.342-31.177 0L23.699 183.728c-4.228-4.227-4.747-10.036 0-12.682l110.443-65.526c10.568-6.341 20.08-5.813 31.177 0l104.63 60.77c12.683 6.87 8.984 14.268-2.113 21.666l-102.517 61.826Z" fill="#CECECE" stroke="#fff" stroke-width=".5"/><g filter="url(#a)"><path d="M118.406 102.839c8.725-5.433 18.506-5.812 29.641-4.112 12.878 1.967 24.716 8.05 35.259 15.703l14.637 10.624c24.977 18.13 42.281 51.998 16.996 69.696-34.7 24.287-98.013 25.925-106.891 19.636l-38.845-23.187a24.441 24.441 0 0 1-10.3-29.713l1.174-3.073a42.256 42.256 0 0 1 12.441-17.39l45.888-38.184Z" fill="#7A7A7A"/></g><g filter="url(#b)"><path d="M273.12 168.403c7.175 6.93 5.445 11.14-4.227 19.024v15.325l8.455-4.756c2.341-2.101 2.725-3.544 2.642-6.342v-11.625c-.074-6.922-1.997-9.086-6.87-11.626Z" fill="#fff"/></g><g filter="url(#c)"><path d="M51.178 199.581v15.325l-28.007-16.91c-2.643-2.114-3.17-4.228-3.171-7.927v-13.211c1.057 2.643 2.642 5.813 4.227 6.342l26.95 16.381Z" fill="#fff"/></g><g filter="url(#d)"><path d="M64.388 222.831v-14.796l8.455 5.285v14.796l-8.455-5.285Z" fill="#fff"/></g><path d="m51.178 214.905 82.435 49.673m0 0V249.59m0 14.988c9.607 5.84 22.195 5.813 31.706 0m0 0 2.417-1.442m-2.417 1.442v-2.114m0-12.682v3.699m90.363-42.844 13.211-23.21v4.227m-13.211 18.983 3.699-2.208m-3.699 2.208-3.609 2.155m7.308-4.363 9.512-16.775m-9.512 16.775 3.699-2.208m5.813-14.567v3.699m0 0-5.813 10.868m5.813-10.868v3.699m-5.813 7.169 2.906-1.735m0 0 2.907-1.735v-3.699m-2.907 5.434 2.907-5.434m-16.82 13.74 12.592-22.723m-12.592 22.723-3.261 1.946m0 0 11.626-22.027m-11.626 22.027-4.227 2.524m0 0 10.568-21.38m-10.568 21.38-4.228 2.523m0 0 10.04-21.261m-10.04 21.261-3.699 2.208m0 0 8.983-20.827m-8.983 20.827-4.526 2.702m0 0 8.753-20.358m-8.753 20.358-4.846 2.893m0 0 8.844-20.609m-8.844 20.609-3.839 2.291m0 0 7.927-19.73m-7.927 19.73-3.699 2.209m0 0 7.538-19.825m-7.538 19.825-3.699 2.208m0 0 6.341-18.862m-6.341 18.862-3.812 2.275m0 0 5.926-18.495m-5.926 18.495-3.586 2.141m0 0 5.284-17.994m-5.284 17.994-3.171 1.893m0 0 4.228-17.245m-4.228 17.245-3.699 2.208m0 0 3.699-17.339m-3.699 17.339-4.593 2.742m0 0 4.593-17.967m-4.593 17.967-4.39 2.62m0 0 4.39-17.671m-4.39 17.671-4.462 2.664m0 0 4.462-17.438m-4.462 17.438-4.427 2.642m0 0c-.075-.423 3.076-11.802 4.661-17.438m-4.661 17.438-4.85 2.896m0 0 4.227-17.164m-4.227 17.164-4.002 2.388m0 0 4.53-17.438m-4.53 17.438-3.925 2.343m0 0 4.228-17.139m-4.228 17.139-3.396 2.028m0 0 3.925-17.053m-6.342 16.381 3.171-14.289m-3.171 14.289v-8.983m0 0 1.057-4.227" stroke="#fff" stroke-width=".5"/><path d="M186.255 174.222c-7.924 3.552-16.897 5.98-26.933 6.997-3.497.355-7.123.539-10.879.539-4.126 0-8.095-.222-11.909-.648-9.838-1.101-18.64-3.567-26.419-7.121-14.126-6.456-24.877-16.503-32.322-28.486-3.04-4.894-5.53-10.111-7.473-15.538a85.08 85.08 0 0 1-.605-1.751c-3.89-11.655-5.3-24.21-4.279-36.576.903-10.93 3.708-21.712 8.381-31.594a83.243 83.243 0 0 1 7.978-13.466 77.671 77.671 0 0 1 11.289-12.43c7.607-6.729 16.746-12.087 27.394-15.504a83.482 83.482 0 0 1 7.769-2.082c6.274-1.365 13.008-2.095 20.196-2.095 7.787 0 15.041.857 21.756 2.45 13.341 3.164 24.556 9.229 33.603 17.231A77.531 77.531 0 0 1 214.71 46.06a83.067 83.067 0 0 1 8.359 13.984c4.673 9.882 7.478 20.664 8.381 31.594.833 10.084.049 20.294-2.379 30.04a86.97 86.97 0 0 1-1.9 6.536c-2.021 6.057-4.712 11.871-8.078 17.289-7.536 12.129-18.458 22.274-32.838 28.719Z" fill="#CECECE"/><path d="M148.443 26.897c1.355 0 2.474.194 3.365.518m-3.365-.518c-1.439 0-2.588.194-3.473.518m3.473-.518v-7.769m0-4.661v4.661m0-4.661c-10.25 0-19.576 1.486-27.965 4.178m27.965-4.178c23.26 0 41.758 7.651 55.359 19.681m-51.994-6.733c5.087-5.1 10.104-9.84 18.391-10.498 47.131 17.185 18.639 51.932-21.756 51.932-40.395 0-64.22-29.522-27.965-50.205m31.33 8.771c1.217.443 2.008 1.13 2.39 1.897m-9.228-1.897c-4.939-5.095-9.472-8.287-16.723-10.853m16.723 10.853c-1.209.443-1.926 1.13-2.221 1.897m5.694-10.184c-33.665 1.036-31.074 29.522 0 29.522 33.149 0 30.559-30.04 0-29.522Zm-5.694 10.184c-26.025-2.335-39.443 1.335-60.954 17.266m60.954-17.266c-.214.559-.206 1.16 0 1.743M81.795 46.578a77.671 77.671 0 0 1 11.289-12.43m-11.29 12.43a83.243 83.243 0 0 0-7.977 13.466m80.381-30.732C184.282 28.094 197.329 32 214.71 46.06m-60.512-16.748c.275.554.337 1.15.193 1.729m60.319 15.02a77.526 77.526 0 0 0-10.908-11.913M214.71 46.06a83.067 83.067 0 0 1 8.359 13.984m-68.678-29.003c48.955 17.091 70.708 52.31 72.78 97.173m-72.78-97.173c-.191.77-.748 1.508-1.655 2.071m74.435 95.102a86.97 86.97 0 0 0 1.9-6.536m-1.9 6.536c-2.021 6.057-4.712 11.871-8.078 17.289m-66.357-112.39c48.021 42.987 56.308 116.533 33.519 141.109m-33.519-141.11c-.809.503-1.898.867-3.254.99m36.773 140.12c-7.924 3.552-16.897 5.98-26.933 6.997m26.933-6.997c14.38-6.445 25.302-16.59 32.838-28.719m-69.611-111.4c-.331.03-.677.045-1.039.045a8.61 8.61 0 0 1-1.551-.137m2.59.091c17.091 54.946 22.789 131.6 9.84 147.117m0 0c-3.497.355-7.123.539-10.879.539-4.126 0-8.095-.222-11.909-.648m10.358-147.099c-12.948 51.412-23.824 115.635-10.358 147.099m10.358-147.099c-1.03-.188-1.904-.56-2.589-1.039m-7.769 148.138c-9.838-1.101-18.64-3.567-26.419-7.121m34.188-141.017C104.94 63.67 84.741 146.02 110.115 173.99m34.188-141.017c-.773-.54-1.307-1.215-1.554-1.917m-32.634 142.934c-14.126-6.456-24.877-16.503-32.322-28.486m64.956-114.448c-44.024 13.97-73.077 48.78-72.429 98.91m0 0a85.08 85.08 0 0 1-.605-1.751m.605 1.751c1.943 5.427 4.432 10.644 7.473 15.538m42.685-126.858c-10.648 3.416-19.787 8.774-27.394 15.503m0 0c-22.327 27.45 10.302 55.36 55.359 55.36 39.366 0 79.246-23.248 55.359-55.36M73.817 60.044c-8.18 29.463 31.641 53.347 74.626 53.347 41.437 0 78.728-17.092 74.626-53.347m-149.252 0c-4.673 9.882-7.478 20.664-8.38 31.594m157.632-31.594c4.673 9.882 7.478 20.664 8.381 31.594m0 0c-7.387 31.076-46.749 44.024-83.007 44.024-34.698 0-74.626-12.948-83.007-44.024m166.014 0c.833 10.084.049 20.294-2.379 30.04M65.436 91.638c-1.022 12.366.39 24.921 4.28 36.576m159.355-6.536c-19.822 23.918-40.745 34.183-80.628 34.183-32.626 0-59.559-10.358-78.728-27.647m149.378 17.289c-22.48 20.199-40.089 26.414-70.65 26.414-30.561 0-49.2-8.287-70.65-26.414" stroke="#4E4E4E" stroke-width=".5"/><path d="M192.988 69.367H177.45v15.02h15.538v-15.02ZM246.334 150.681v-14.502h15.538v14.502h-15.538ZM180.04 140.323v-15.02h15.537v15.02H180.04ZM93.028 140.841h14.502v13.466H93.028v-13.466ZM113.227 87.494V71.956h15.538v15.538h-15.538ZM98.207 104.586V91.12h14.502v13.466H98.207ZM229.761 1v13.984h14.502V1h-14.502ZM69.203 9.805v14.502h-15.02V9.805h15.02Z" fill="#fff"/><path d="M177.45 84.386h15.538v-15.02H177.45v15.02Zm0 0-7.251 8.287m35.219 19.164 40.916 24.342m0 0v14.502h15.538v-14.502h-15.538Zm-75.099-18.127 8.805 7.251m0 0v15.02h15.537v-15.02H180.04Zm-61.634-.518-10.876 16.056m0 0H93.028v13.466h14.502v-13.466Zm99.442-104.104 22.789-21.753m0 0V1h14.502v13.984h-14.502ZM85.777 40.362 69.203 24.307m0 0V9.805h-15.02v14.502h15.02Zm44.024 47.65v15.537h15.538V71.956h-15.538ZM98.207 91.12v13.466h14.502V91.12H98.207Z" stroke="#fff"/><defs><filter id="a" x="41.291" y="81.83" width="202.045" height="151.681" filterUnits="userSpaceOnUse" color-interpolation-filters="sRGB"><feFlood flood-opacity="0" result="BackgroundImageFix"/><feBlend in="SourceGraphic" in2="BackgroundImageFix" result="shape"/><feGaussianBlur stdDeviation="8" result="effect1_foregroundBlur_329_110"/></filter><filter id="b" x="248.893" y="148.403" width="51.107" height="74.349" filterUnits="userSpaceOnUse" color-interpolation-filters="sRGB"><feFlood flood-opacity="0" result="BackgroundImageFix"/><feColorMatrix in="SourceAlpha" values="0 0 0 0 0 0 0 0 0 0 0 0 0 0 0 0 0 0 127 0" result="hardAlpha"/><feOffset/><feGaussianBlur stdDeviation="10"/><feComposite in2="hardAlpha" operator="out"/><feColorMatrix values="0 0 0 0 1 0 0 0 0 1 0 0 0 0 1 0 0 0 1 0"/><feBlend in2="BackgroundImageFix" result="effect1_dropShadow_329_110"/><feBlend in="SourceGraphic" in2="effect1_dropShadow_329_110" result="shape"/></filter><filter id="c" x="0" y="156.858" width="71.178" height="78.047" filterUnits="userSpaceOnUse" color-interpolation-filters="sRGB"><feFlood flood-opacity="0" result="BackgroundImageFix"/><feColorMatrix in="SourceAlpha" values="0 0 0 0 0 0 0 0 0 0 0 0 0 0 0 0 0 0 127 0" result="hardAlpha"/><feOffset/><feGaussianBlur stdDeviation="10"/><feComposite in2="hardAlpha" operator="out"/><feColorMatrix values="0 0 0 0 1 0 0 0 0 1 0 0 0 0 1 0 0 0 1 0"/><feBlend in2="BackgroundImageFix" result="effect1_dropShadow_329_110"/><feBlend in="SourceGraphic" in2="effect1_dropShadow_329_110" result="shape"/></filter><filter id="d" x="44.388" y="188.035" width="48.455" height="60.08" filterUnits="userSpaceOnUse" color-interpolation-filters="sRGB"><feFlood flood-opacity="0" result="BackgroundImageFix"/><feColorMatrix in="SourceAlpha" values="0 0 0 0 0 0 0 0 0 0 0 0 0 0 0 0 0 0 127 0" result="hardAlpha"/><feOffset/><feGaussianBlur stdDeviation="10"/><feComposite in2="hardAlpha" operator="out"/><feColorMatrix values="0 0 0 0 1 0 0 0 0 1 0 0 0 0 1 0 0 0 1 0"/><feBlend in2="BackgroundImageFix" result="effect1_dropShadow_329_110"/><feBlend in="SourceGraphic" in2="effect1_dropShadow_329_110" result="shape"/></filter></defs></svg>