<svg width="491" height="194" viewBox="0 0 491 194" fill="none" xmlns="http://www.w3.org/2000/svg">
<g opacity="0.5">
<path d="M-519.164 1.21987C-233.17 -2.35643 441.857 8.45194 854.012 80.2958C1266.17 152.14 1794.83 110.231 2007.64 80.2958C2338.08 48.5065 3088.67 10.7567 3447.49 114.072C3896.01 243.216 4553.31 249.176 5020.68 198.314C5488.06 147.451 6024.12 114.072 6327.19 114.072C6727.22 114.072 7494.29 96.4977 7966.38 198.314C8356.98 282.555 9077.58 232.09 9468.86 198.314C9933.8 158.179 10448.6 47.7117 10951.8 232.09" stroke="white" stroke-width="0.5"/>
<path d="M-536 433.553C-336.882 385.869 153.484 288.594 521.999 280.964C982.643 271.427 1613 433.553 1863.52 433.553C2114.05 433.553 2501.96 376.332 2865.63 280.964C3229.29 185.596 4215.23 185.597 4764.77 309.575C5314.31 433.553 5970.88 423.876 6267.25 347.722C6768.3 218.975 8055.02 32.9307 8425 200.3C8909.89 419.646 9584.02 433.553 9975.3 280.964C10629.2 25.9764 11364.6 219.374 11555.2 309.575" stroke="white" stroke-width="0.5"/>
<path d="M-519.648 5.63758C-236.162 0.787989 433.534 8.4762 844.43 78.0258C1257.98 147.52 1789.58 111.501 2003.48 82.4307C2331.62 51.5591 3071.74 13.2472 3430.7 110.827C3876.77 233.49 4543.55 239.278 5013.3 193.463C5483.05 147.647 6022.58 114.952 6325.46 112.754C6728.41 109.037 7510.48 86.5998 7979.62 190.308C8372.95 278.45 9092.2 229.843 9483.48 192.637C9953.87 146.3 10475 44.6044 10969.2 226.264" stroke="white" stroke-width="0.5"/>
<path d="M-520.166 10.6004C-239.351 4.39481 424.669 8.7602 834.222 75.8665C1249.27 142.859 1783.99 113.113 1999.05 84.9625C2324.73 55.0682 3053.7 16.1577 3412.81 107.629C3856.27 223.39 4533.15 228.995 5005.43 188.555C5477.71 148.114 6020.94 116.148 6323.62 111.609C6729.67 103.934 7527.72 76.3171 7993.72 182.041C8389.94 274.336 9107.77 227.708 9499.05 186.849C9975.25 133.907 10503.2 41.5534 10987.8 220.317" stroke="white" stroke-width="0.5"/>
<path d="M-520.717 16.1864C-242.735 8.54211 415.261 9.38201 823.391 73.8961C1240.02 138.234 1778.06 115.143 1994.35 87.9692C2317.42 59.1118 3034.56 19.5662 3393.83 104.557C3834.52 212.995 4522.13 218.405 4997.08 183.668C5472.04 148.93 6019.21 117.738 6321.66 110.714C6731.01 98.8399 7546 65.7278 8008.68 173.59C8407.98 270.292 9124.29 225.763 9515.57 181.029C9997.93 121.079 10533.1 38.6368 11007.5 214.329" stroke="white" stroke-width="0.5"/>
<path d="M-521.297 22.479C-246.312 13.3133 405.315 10.425 811.939 72.1978C1230.24 133.729 1771.79 117.676 1989.38 91.5342C2309.69 63.7733 3014.32 23.5561 3373.76 101.694C3811.52 202.387 4510.46 207.592 4988.25 178.886C5466.04 150.179 6017.37 119.804 6319.59 110.153C6732.43 93.8384 7565.35 54.9152 8024.5 165.038C8427.05 266.401 9141.76 224.092 9533.04 175.26C10021.9 107.899 10564.7 35.938 11028.3 208.382" stroke="white" stroke-width="0.5"/>
<path d="M-521.91 29.5595C-250.085 18.7896 394.826 11.9705 799.864 70.853C1219.93 129.424 1765.17 120.792 1984.14 95.7388C2301.55 69.1341 2992.99 28.2087 3352.59 99.1206C3787.28 191.649 4498.17 196.637 4978.95 174.289C5459.72 151.941 6015.43 122.428 6317.41 110.008C6733.92 89.0107 7585.74 43.9605 8041.18 156.468C8447.16 262.744 9160.18 222.777 9551.45 169.623C10047.2 94.4479 10598 33.5383 11050.2 202.557" stroke="white" stroke-width="0.5"/>
<path d="M-522.555 37.5029C-254.052 25.0462 383.797 14.0936 787.166 69.9367C1209.08 125.396 1758.22 124.566 1978.63 100.658C2292.98 75.269 2970.55 33.599 3330.34 96.9125C3761.78 180.855 4485.24 185.615 4969.16 169.954C5453.08 154.292 6013.4 125.686 6315.12 110.353C6735.49 84.4321 7607.18 32.939 8058.71 147.953C8468.3 259.396 9179.54 221.891 9570.82 164.193C10073.8 80.8014 10633 31.5127 11073.3 196.93" stroke="white" stroke-width="0.5"/>
<path d="M-523.229 46.3802C-258.211 32.154 372.23 16.8652 773.848 69.52C1197.71 121.714 1750.93 129.07 1972.85 106.363C2283.99 82.2493 2947.01 39.7981 3307 95.1408C3735.03 170.076 4471.68 174.597 4958.89 165.95C5446.11 157.303 6011.26 129.647 6312.72 111.26C6737.14 80.1734 7629.68 21.9215 8077.12 139.565C8490.49 256.428 9199.86 221.506 9591.14 159.042C10101.7 67.0304 10669.8 29.9323 11097.5 191.571" stroke="white" stroke-width="0.5"/>
<path d="M-523.936 56.2491C-262.566 40.1706 360.119 20.343 759.905 69.6604C1185.8 118.437 1743.29 134.361 1966.79 112.911C2274.58 90.1324 2922.37 46.8635 3282.56 93.8628C3707.03 159.37 4457.48 163.641 4948.15 162.336C5438.81 161.031 6009.03 134.371 6310.2 112.785C6738.87 76.2923 7653.22 10.9657 8096.37 131.362C8513.7 253.899 9221.13 221.68 9612.41 154.226C10130.9 53.1923 10708.2 28.8546 11122.8 186.538" stroke="white" stroke-width="0.5"/>
<path d="M-524.674 67.1623C-267.115 49.1489 347.469 24.5798 745.34 70.4108C1173.37 115.618 1735.31 140.492 1960.47 120.355C2264.76 98.9713 2896.63 54.8482 3257.04 93.1315C3677.79 148.789 4442.65 152.799 4936.92 159.164C5431.19 165.53 6006.69 139.909 6307.57 114.982C6740.67 72.8416 7677.82 0.124402 8116.5 123.397C8537.96 251.86 9243.35 222.465 9634.63 149.8C10161.4 39.3401 10748.4 28.3325 11149.3 181.885" stroke="white" stroke-width="0.5"/>
<path d="M-525.443 81.3784C-271.859 61.3474 334.279 31.8341 730.153 74.0297C1160.4 115.514 1727 149.722 1953.88 130.954C2254.51 111.024 2869.8 66.0106 3230.42 95.2053C3647.29 140.593 4427.19 144.33 4925.21 158.693C5423.24 173.056 6004.26 148.52 6304.83 120.11C6742.55 72.0798 7703.47 -8.34393 8137.47 117.927C8563.25 252.571 9266.52 226.12 9657.79 148.02C10193.2 27.7321 10790.3 30.6245 11176.9 179.869" stroke="white" stroke-width="0.5"/>
<path d="M-526.246 107.57C-276.799 85.4384 320.545 50.7783 714.342 89.1894C1146.9 126.798 1718.34 170.722 1947.02 153.38C2243.84 134.964 2841.86 89.023 3202.71 108.757C3615.54 143.453 4411.09 146.907 4913.03 169.596C5414.97 192.284 6001.72 168.877 6301.97 136.84C6744.5 82.6793 7730.18 -5.76677 8159.31 123.626C8589.58 264.703 9290.63 241.318 9681.91 157.56C10226.3 27.0409 10834 44.403 11205.7 189.163" stroke="white" stroke-width="0.5"/>
<path d="M-527.08 134.952C-281.932 110.637 306.272 70.6274 697.909 105.105C1132.86 138.686 1709.34 192.708 1939.88 176.848C2232.75 160.005 2812.82 113.101 3173.91 123.001C3582.54 146.585 4394.35 149.744 4900.36 181.086C5406.37 212.429 5999.08 190.194 6299.01 154.388C6746.54 93.8551 7757.93 -2.92927 8182.01 129.708C8616.95 277.472 9315.7 257.273 9706.97 167.634C10260.7 26.4814 10879.3 58.8829 11235.5 198.982" stroke="white" stroke-width="0.5"/>
<path d="M-527.945 163.511C-287.26 136.931 291.458 91.369 680.853 121.764C1118.3 151.165 1700 215.668 1932.48 201.346C2221.24 186.136 2782.68 138.231 3144.02 137.925C3548.29 149.976 4376.98 152.828 4887.21 193.152C5397.44 233.476 5996.35 212.459 6295.93 172.742C6748.64 105.595 7786.73 0.156288 8205.57 136.161C8645.35 290.865 9341.71 273.973 9732.99 178.231C10296.5 26.0412 10926.4 74.052 11266.5 209.313" stroke="white" stroke-width="0.5"/>
<path d="M-528.842 193.242C-292.783 164.313 276.104 112.996 663.175 139.16C1103.2 164.227 1690.31 239.595 1924.8 226.866C2209.31 213.349 2751.44 164.407 3113.04 153.522C3512.79 153.62 4358.98 156.155 4873.59 205.788C5388.19 255.421 5993.51 235.666 6292.74 191.894C6750.83 117.892 7816.59 3.48309 8229.99 142.978C8674.79 304.876 9368.68 291.411 9759.95 189.343C10333.5 25.7135 10975.1 89.9034 11298.6 220.15" stroke="white" stroke-width="0.5"/>
<path d="M-529.77 224.135C-298.499 192.775 260.209 135.501 644.875 157.284C1087.57 177.866 1680.29 264.48 1916.86 253.401C2196.96 241.636 2719.1 191.621 3080.97 169.785C3476.04 157.508 4340.35 159.714 4859.48 218.984C5378.61 278.254 5990.58 259.806 6289.43 211.836C6753.1 130.738 7847.49 7.0429 8255.27 150.151C8705.26 319.496 9396.59 309.579 9787.87 200.962C10371.8 25.4902 11025.6 106.429 11331.9 231.484" stroke="white" stroke-width="0.5"/>
<path d="M-530.729 256.184C-304.409 222.31 243.774 158.876 625.953 176.13C1071.41 192.073 1669.93 290.315 1908.65 280.943C2184.19 270.99 2685.66 219.865 3047.81 186.705C3438.04 161.632 4321.08 163.498 4844.9 232.734C5368.71 301.969 5987.55 284.871 6286.02 232.561C6755.44 144.125 7879.45 10.8281 8281.41 157.673C8736.78 334.718 9425.46 328.469 9816.73 213.081C10411.4 25.3636 11077.8 123.621 11366.3 243.309" stroke="white" stroke-width="0.5"/>
<path d="M-531.719 289.38C-310.514 252.91 226.798 183.113 606.408 195.688C1054.72 206.84 1659.23 317.094 1900.16 309.484C2171.01 301.402 2651.12 249.131 3013.55 204.274C3398.79 165.984 4301.18 167.5 4829.83 247.028C5358.48 326.556 5984.41 310.854 6282.49 254.061C6757.86 158.045 7912.46 14.8307 8308.41 165.534C8769.33 350.533 9455.27 348.074 9846.55 225.691C10452.4 25.3256 11131.8 141.471 11401.8 255.615" stroke="white" stroke-width="0.5"/>
<path d="M-532.742 323.721C-316.815 284.571 209.28 208.209 586.239 215.956C1037.5 222.165 1648.18 344.813 1891.41 339.021C2157.4 332.87 2615.48 279.417 2978.21 222.491C3358.29 170.563 4280.64 171.717 4814.29 261.866C5347.93 352.015 5981.18 337.752 6278.85 276.333C6760.35 172.496 7946.52 19.0483 8336.27 173.734C8802.91 366.939 9486.03 368.391 9877.31 238.791C10494.6 25.374 11187.4 159.978 11438.5 268.401" stroke="white" stroke-width="0.5"/>
<path d="M-533.797 359.2C-323.309 317.288 191.222 234.157 565.448 236.928C1019.75 238.041 1636.79 373.466 1882.38 369.548C2143.37 365.388 2578.74 310.715 2941.77 241.348C3316.54 175.361 4259.47 176.142 4798.26 277.239C5337.05 378.336 5977.84 365.558 6275.09 299.37C6762.92 187.472 7981.64 23.4739 8364.98 182.264C8837.53 383.93 9517.74 389.413 9909.02 252.373C10538.2 25.5016 11244.8 179.133 11476.3 281.659" stroke="white" stroke-width="0.5"/>
<path d="M-534.883 395.812C-329.998 351.055 172.623 260.954 544.035 258.599C1001.46 254.463 1625.07 403.047 1873.09 401.06C2128.92 398.95 2540.9 343.022 2904.24 260.841C3273.54 180.374 4237.67 180.77 4781.76 293.144C5325.84 405.517 5974.41 394.268 6271.23 323.168C6765.58 202.966 8017.8 28.1028 8394.56 191.121C8873.19 401.501 9550.41 411.135 9941.69 266.432C10583 25.7039 11303.8 198.933 11515.2 295.385" stroke="white" stroke-width="0.5"/>
</g>
</svg>
