<svg width="286" height="212" viewBox="0 0 286 212" fill="none" xmlns="http://www.w3.org/2000/svg">
<path d="M157.369 193.63C146.904 199.112 138.433 199.61 127.969 193.63L23.8226 131.342C19.8361 127.355 19.3465 121.878 23.8227 119.383L127.969 57.5928C137.935 51.6132 146.904 52.1115 157.369 57.5928L256.033 114.898C267.992 121.376 264.504 128.352 254.04 135.328L157.369 193.63Z" fill="#CECECE" stroke="white" stroke-width="0.5"/>
<g opacity="0.5" filter="url(#filter0_f_434_6830)">
<path d="M128.904 47.8279C129.459 47.8944 130.018 47.9674 130.581 48.0464C143.482 49.8571 155.309 56.0244 165.852 63.6773L176.487 71.3971C201.464 89.5271 221.545 126.238 194.399 140.921C171.337 153.395 137.178 148.169 129.668 142.849L93.0382 120.984C86.0713 116.825 81.8047 109.309 81.8047 101.196C81.8047 98.3824 82.3198 95.5929 83.3245 92.9651L88.1539 80.3345L91.1577 74.8911C99.4094 59.9378 111.946 45.7976 128.904 47.8279Z" fill="#7A7A7A"/>
</g>
<g filter="url(#filter1_d_434_6830)">
<path d="M259.031 116.883C265.797 123.418 264.165 127.388 255.045 134.822V149.273L263.018 144.789C265.225 142.808 265.588 141.447 265.509 138.809V127.846C265.439 121.319 263.626 119.279 259.031 116.883Z" fill="white"/>
</g>
<g filter="url(#filter2_d_434_6830)">
<path d="M49.734 146.292V160.742L23.3238 144.797C20.8322 142.803 20.334 140.81 20.334 137.322V124.865C21.3306 127.356 22.8255 130.346 24.3204 130.844L49.734 146.292Z" fill="white"/>
</g>
<g filter="url(#filter3_d_434_6830)">
<path d="M62.1914 168.215V154.263L70.1643 159.246V173.198L62.1914 168.215Z" fill="white"/>
</g>
<path d="M49.7344 160.74L127.47 207.581M127.47 207.581V193.448M127.47 207.581C136.529 213.088 148.399 213.063 157.368 207.581M157.368 207.581L159.647 206.221M157.368 207.581V205.588M157.368 193.629V197.117M242.579 156.716L255.036 134.829V138.815M242.579 156.716L246.067 154.634M242.579 156.716L239.176 158.747M246.067 154.634L255.036 138.815M246.067 154.634L249.555 152.551M255.036 138.815V142.303M255.036 142.303L249.555 152.551M255.036 142.303V145.791M249.555 152.551L252.296 150.915M252.296 150.915L255.036 149.279V145.791M252.296 150.915L255.036 145.791M239.176 158.747L251.05 137.32M239.176 158.747L236.101 160.583M236.101 160.583L247.063 139.812M236.101 160.583L232.114 162.962M232.114 162.962L242.08 142.801M232.114 162.962L228.128 165.342M228.128 165.342L237.596 145.293M228.128 165.342L224.64 167.424M224.64 167.424L233.111 147.784M224.64 167.424L220.371 169.972M220.371 169.972L228.626 150.774M220.371 169.972L215.802 172.7M215.802 172.7L224.141 153.266M215.802 172.7L212.182 174.861M212.182 174.861L219.657 156.256M212.182 174.861L208.694 176.943M208.694 176.943L215.802 158.249M208.694 176.943L205.206 179.025M205.206 179.025L211.185 161.239M205.206 179.025L201.611 181.171M201.611 181.171L207.199 163.73M201.611 181.171L198.229 183.19M198.229 183.19L203.212 166.222M198.229 183.19L195.24 184.974M195.24 184.974L199.226 168.713M195.24 184.974L191.751 187.057M191.751 187.057L195.24 170.707M191.751 187.057L187.42 189.642M187.42 189.642L191.751 172.7M187.42 189.642L183.28 192.113M183.28 192.113L187.42 175.45M183.28 192.113L179.072 194.625M179.072 194.625L183.28 178.181M179.072 194.625L174.898 197.117M174.898 197.117C174.827 196.718 177.799 185.988 179.294 180.673M174.898 197.117L170.324 199.847M170.324 199.847L174.311 183.662M170.324 199.847L166.551 202.1M166.551 202.1L170.823 185.656M166.551 202.1L162.85 204.309M162.85 204.309L166.836 188.147M162.85 204.309L159.647 206.221M159.647 206.221L163.348 190.14M157.368 205.588L160.358 192.113M157.368 205.588V197.117M157.368 197.117L158.365 193.13" stroke="white" stroke-width="0.5"/>
<path d="M117.826 0.0761719L195.458 47.3618L165.445 64.9999L86.9863 18.591L117.826 0.0761719Z" fill="#D9D9D9"/>
<path d="M145.4 54.9597L163.947 65.1926V86.3554L145.4 74.7852V54.9597Z" fill="#505050"/>
<path d="M87.064 109.976L101.692 101.088M145.063 74.7365V53.5378M145.063 74.7365L131.008 83.2755M145.063 74.7365L163.279 86.4222M164.518 87.217L163.279 86.4222M131.008 83.2755L164.518 104.286M131.008 83.2755L116.32 92.2003M131.008 83.2755V45.3697M116.32 92.2003L164.518 122.64M116.32 92.2003L101.692 101.088M116.32 92.2003V36.9273M101.692 101.088L164.518 139.801M101.692 101.088V28.2088M145.154 144.206L164.518 132.276M125.424 132.827L164.518 108.966M106.336 121.631L163.279 86.4222M86.6055 42.9838L107.07 31.0537M86.6055 65.5591L125.24 42.0661M86.6055 87.9508L144.329 53.0784" stroke="white"/>
<path d="M87.1159 18.5876L165.406 64.9691L164.133 66.0657L85.5273 19.7112L87.1159 18.5876Z" fill="white"/>
<path d="M87.1159 109.043L165.406 155.425L164.133 156.521L85.5273 110.167L87.1159 109.043Z" fill="white"/>
<path d="M87.1159 18.5876V109.286L85.843 110.383L85.5273 19.7112L87.1159 18.5876Z" fill="white"/>
<path d="M165.192 64.6724L165.192 157.399L163.604 156.458V65.7961L165.192 64.6724Z" fill="white"/>
<path d="M195.444 47.3631L195.445 138.483L165.191 157.543L165.43 65.0124L195.444 47.3631Z" fill="#D9D9D9"/>
<defs>
<filter id="filter0_f_434_6830" x="65.8047" y="31.6328" width="157.568" height="132.981" filterUnits="userSpaceOnUse" color-interpolation-filters="sRGB">
<feFlood flood-opacity="0" result="BackgroundImageFix"/>
<feBlend mode="normal" in="SourceGraphic" in2="BackgroundImageFix" result="shape"/>
<feGaussianBlur stdDeviation="8" result="effect1_foregroundBlur_434_6830"/>
</filter>
<filter id="filter1_d_434_6830" x="235.045" y="96.8835" width="50.4746" height="72.3899" filterUnits="userSpaceOnUse" color-interpolation-filters="sRGB">
<feFlood flood-opacity="0" result="BackgroundImageFix"/>
<feColorMatrix in="SourceAlpha" type="matrix" values="0 0 0 0 0 0 0 0 0 0 0 0 0 0 0 0 0 0 127 0" result="hardAlpha"/>
<feOffset/>
<feGaussianBlur stdDeviation="10"/>
<feComposite in2="hardAlpha" operator="out"/>
<feColorMatrix type="matrix" values="0 0 0 0 1 0 0 0 0 1 0 0 0 0 1 0 0 0 1 0"/>
<feBlend mode="normal" in2="BackgroundImageFix" result="effect1_dropShadow_434_6830"/>
<feBlend mode="normal" in="SourceGraphic" in2="effect1_dropShadow_434_6830" result="shape"/>
</filter>
<filter id="filter2_d_434_6830" x="0.333984" y="104.865" width="69.4004" height="75.878" filterUnits="userSpaceOnUse" color-interpolation-filters="sRGB">
<feFlood flood-opacity="0" result="BackgroundImageFix"/>
<feColorMatrix in="SourceAlpha" type="matrix" values="0 0 0 0 0 0 0 0 0 0 0 0 0 0 0 0 0 0 127 0" result="hardAlpha"/>
<feOffset/>
<feGaussianBlur stdDeviation="10"/>
<feComposite in2="hardAlpha" operator="out"/>
<feColorMatrix type="matrix" values="0 0 0 0 1 0 0 0 0 1 0 0 0 0 1 0 0 0 1 0"/>
<feBlend mode="normal" in2="BackgroundImageFix" result="effect1_dropShadow_434_6830"/>
<feBlend mode="normal" in="SourceGraphic" in2="effect1_dropShadow_434_6830" result="shape"/>
</filter>
<filter id="filter3_d_434_6830" x="42.1914" y="134.263" width="47.9727" height="58.9356" filterUnits="userSpaceOnUse" color-interpolation-filters="sRGB">
<feFlood flood-opacity="0" result="BackgroundImageFix"/>
<feColorMatrix in="SourceAlpha" type="matrix" values="0 0 0 0 0 0 0 0 0 0 0 0 0 0 0 0 0 0 127 0" result="hardAlpha"/>
<feOffset/>
<feGaussianBlur stdDeviation="10"/>
<feComposite in2="hardAlpha" operator="out"/>
<feColorMatrix type="matrix" values="0 0 0 0 1 0 0 0 0 1 0 0 0 0 1 0 0 0 1 0"/>
<feBlend mode="normal" in2="BackgroundImageFix" result="effect1_dropShadow_434_6830"/>
<feBlend mode="normal" in="SourceGraphic" in2="effect1_dropShadow_434_6830" result="shape"/>
</filter>
</defs>
</svg>
