<svg width="276" height="176" viewBox="0 0 276 176" fill="none" xmlns="http://www.w3.org/2000/svg">
<path d="M129.768 61.3081C110.926 57.3044 111.366 78.5449 114.695 89.5716L120.818 93.3404C114.634 78.722 116.107 61.3081 129.297 65.7835C142.016 70.099 156.147 89.5716 152.85 112.654L156.619 114.773C163.685 97.1087 148.375 67.432 129.768 61.3081Z" fill="#CECECE" stroke="white" stroke-width="0.5"/>
<path d="M150.259 111.005L153.321 108.885M148.375 109.828L153.321 106.766M146.491 108.885L153.321 104.646M144.606 107.708L153.321 102.526M142.958 106.53L153.085 100.642M141.073 105.588L152.85 98.5221M139.425 104.41L152.379 96.6379M137.776 103.468L151.908 94.5181M135.892 102.291L151.437 92.8694M134.007 101.348L150.966 90.9851M132.594 100.406L150.259 89.1009M130.71 98.9931L149.552 87.4522M128.826 98.051L148.846 85.8035M126.942 96.8734L148.139 84.1548M125.528 95.6957L147.197 82.5061M123.644 94.5181L146.255 81.0929M121.76 93.576C121.948 93.3875 137.54 84.0763 145.313 79.4442M121.76 91.2207L144.371 77.7955M121.289 89.572C121.666 89.1951 136.049 80.6218 143.193 76.3823M120.818 87.6877L141.78 74.9691M120.347 85.8035L140.602 73.556M119.64 83.9193L139.189 72.1428M119.64 81.7995L137.776 70.9651M119.169 80.1508L136.363 69.7875M118.934 78.2666L134.714 68.6098M118.934 75.9113L133.065 67.4322M118.934 73.556L131.181 66.4901M119.405 71.2007L128.355 65.548M120.111 69.0809L125.999 65.0769" stroke="white" stroke-width="0.5"/>
<path d="M123.408 94.7535C118.283 83.3129 118.227 74.7334 122.231 65.7833C117.049 68.6097 114.929 78.7374 120.817 93.3403L123.408 94.7535Z" fill="#979797" stroke="white" stroke-width="0.5"/>
<g filter="url(#filter0_d_434_7380)">
<path d="M161.565 111.712L156.619 114.538C157.141 113.085 157.451 112.21 158.032 110.534L162.272 107.943C162.202 109.349 162.042 110.176 161.565 111.712Z" fill="white"/>
<path d="M158.503 105.353C158.492 103.542 158.419 102.732 158.268 101.349L162.507 98.5222C162.728 99.9055 162.793 100.76 162.743 102.526L158.503 105.353Z" fill="white"/>
</g>
<path d="M129.533 58.2463C143.901 58.2463 158.974 77.0887 162.507 98.5219M162.743 102.526C162.561 105.061 162.46 106.411 162.272 108.179" stroke="white" stroke-width="0.5"/>
<g filter="url(#filter1_d_434_7380)">
<path d="M131.182 58.0105C129.049 58.8904 128.135 59.6003 126.471 60.8369C123.708 60.7381 122.122 60.9492 119.17 62.2501C124.251 58.321 126.812 57.7923 131.182 58.0105Z" fill="white"/>
</g>
<path d="M123.407 94.7531L156.617 114.773M156.617 114.773C120.818 125.136 84.2515 103.251 113.75 88.8648M156.617 114.773C177.815 108.885 180.17 92.6333 159.915 87.9227" stroke="white" stroke-width="0.5"/>
<path d="M114.93 66.9611C69.0004 73.7915 52.7494 109.121 114.93 122.782C154.027 129.848 207.492 116.893 202.075 90.5141C198.593 73.556 172.273 66.1659 145.077 65.0769" stroke="white" stroke-width="0.5"/>
<path d="M218.798 111.004L216.677 116.657L223.98 115.715L225.393 111.004H218.798Z" fill="white"/>
<path d="M62.642 54.7125H69.7078L67.3525 59.66L60.5222 59.189L62.642 54.7125Z" fill="white"/>
<path d="M55.1034 62.014C-6.13267 100.641 108.334 167.767 216.677 116.657M216.677 116.657L218.798 111.004H225.393L223.98 115.715L216.677 116.657ZM231.046 104.88C267.317 63.1927 156.383 17.7356 69.7078 54.7125M69.7078 54.7125H62.642L60.5222 59.189L67.3525 59.66L69.7078 54.7125Z" stroke="white" stroke-width="0.5"/>
<path d="M116.814 165.177C131.161 166.216 139.162 166.397 153.322 165.648M116.814 168.003C131.335 169.177 139.356 169.304 153.322 168.003M116.814 170.594C131.335 171.371 139.356 171.445 153.322 170.594" stroke="white" stroke-width="0.5"/>
<path d="M190.535 157.404V168.003C235.757 154.578 277.541 129.643 274.855 84.6259" stroke="white" stroke-width="0.5"/>
<path d="M268.494 116.187V105.117C270.378 102.055 274.147 92.8697 274.853 85.8038C275.254 98.1759 273.396 104.744 268.494 116.187Z" fill="#969696" stroke="white" stroke-width="0.5"/>
<path d="M197.129 158.582V163.529M201.604 157.169V162.115M206.315 155.756V160.702M210.79 154.107V159.053M215.5 152.223V157.169M219.975 150.103V155.049M224.686 147.984V152.93M228.925 145.628V150.574M233.872 143.037V147.984M238.347 139.976V144.922" stroke="white" stroke-width="0.5"/>
<path d="M182.998 157.169V147.042L190.535 157.405V168.004L182.998 157.169Z" fill="#969696" stroke="white" stroke-width="0.5"/>
<path d="M68.2949 162.351V151.752C100.616 161.867 119.994 164.579 157.561 162.351V172.95C121.617 174.202 101.606 174.202 68.2949 162.351Z" stroke="white" stroke-width="0.5"/>
<path d="M77.9516 142.566L68.2949 151.752C101.766 161.997 121.196 164.81 157.561 162.351L154.499 151.045C123.884 152.636 107.07 151.151 77.9516 142.566Z" fill="#CECECE" stroke="white" stroke-width="0.5"/>
<g filter="url(#filter2_d_434_7380)">
<path d="M74.1822 157.64C71.8272 157.64 71.8274 160.938 74.1822 160.938C76.3025 160.938 76.3025 157.64 74.1822 157.64Z" fill="white"/>
<path d="M86.9013 161.173C84.5463 161.173 84.5465 164.47 86.9013 164.47C89.0216 164.47 89.0216 161.173 86.9013 161.173Z" fill="white"/>
<path d="M93.2606 162.351C90.9056 162.351 90.9058 165.648 93.2606 165.648C95.3809 165.648 95.3809 162.351 93.2606 162.351Z" fill="white"/>
</g>
<path d="M99.7359 163.764C97.3809 163.764 97.3811 167.062 99.7359 167.062C101.856 167.062 101.856 163.764 99.7359 163.764Z" stroke="white" stroke-width="0.5"/>
<path d="M105.978 164.706C103.623 164.706 103.623 168.004 105.978 168.004C108.098 168.004 108.098 164.706 105.978 164.706Z" stroke="white" stroke-width="0.5"/>
<path d="M80.7779 159.525C78.4229 159.525 78.4231 162.822 80.7779 162.822C82.8982 162.822 82.8982 159.525 80.7779 159.525Z" stroke="white" stroke-width="0.5"/>
<path d="M131.18 10.6816C3.52353 19.3963 -17.2032 100.183 54.1615 133.392L43.0925 140.446C-6.60429 110.063 -13.4347 61.544 33.9069 29.04C99.3841 -13.355 190.534 -4.87531 242.115 29.04C317.955 84.6249 246.59 145.156 190.534 157.404L182.997 147.053C325.492 111.946 255.54 2.19192 131.18 10.6816Z" fill="#CECECE" stroke="white" stroke-width="0.5"/>
<path d="M1.87523 78.7382C-1.18612 104.411 1.87523 120.898 43.0929 150.81V140.447C9.41256 119.58 0.827394 95.2252 1.87523 78.7382Z" stroke="white" stroke-width="0.5"/>
<path d="M2.81641 101.583V95.9308L3.99405 99.2282V105.587L2.81641 101.583Z" fill="white"/>
<path d="M6.58488 111.711V106.059L8.23358 108.885V115.244L6.58488 111.711Z" fill="white"/>
<path d="M11.531 119.955V113.831L12.9442 116.422V122.075L11.531 119.955Z" fill="white"/>
<path d="M16.9482 126.314V121.132L18.3614 123.488V128.434L16.9482 126.314Z" fill="white"/>
<path d="M2.81641 101.583V95.9308L3.99405 99.2282V105.587L2.81641 101.583Z" stroke="white" stroke-width="0.5"/>
<path d="M6.58488 111.711V106.059L8.23358 108.885V115.244L6.58488 111.711Z" stroke="white" stroke-width="0.5"/>
<path d="M11.531 119.955V113.831L12.9442 116.422V122.075L11.531 119.955Z" stroke="white" stroke-width="0.5"/>
<path d="M16.9482 126.314V121.132L18.3614 123.488V128.434L16.9482 126.314Z" stroke="white" stroke-width="0.5"/>
<path d="M31.7891 142.095V132.674L42.8589 140.446V150.574L31.7891 142.095Z" fill="#969696" stroke="white" stroke-width="0.5"/>
<path d="M54.3992 143.98V133.381L43.0938 140.447V150.81L54.3992 143.98Z" fill="#969696" stroke="white" stroke-width="0.5"/>
<path d="M13.6523 85.0973C19.434 57.0792 55.8121 21.5043 142.958 20.7977C198.779 20.7977 260.016 50.0034 261.665 88.1592" stroke="white" stroke-width="0.5"/>
<path d="M37.4413 49.7671V39.8748C19.07 54.7132 13.1817 67.6673 13.6528 84.861C17.4212 69.5516 25.1937 60.1304 37.4413 49.7671Z" fill="#969696"/>
<path d="M43.565 45.292V35.6353L47.8045 32.809V42.7012L43.565 45.292Z" fill="#969696"/>
<path d="M37.4413 49.7671V39.8748C19.07 54.7132 13.1817 67.6673 13.6528 84.861C17.4212 69.5516 25.1937 60.1304 37.4413 49.7671Z" stroke="white" stroke-width="0.5"/>
<path d="M43.565 45.292V35.6353L47.8045 32.809V42.7012L43.565 45.292Z" stroke="white" stroke-width="0.5"/>
<g filter="url(#filter3_d_434_7380)">
<path d="M53.6914 33.7511V31.3958L55.3401 30.4536V32.8089L53.6914 33.7511Z" fill="white"/>
<path d="M53.6914 37.5195V35.1642L55.3401 34.2221V36.5774L53.6914 37.5195Z" fill="white"/>
<path d="M58.1665 31.6313V29.276L59.8152 28.3339V30.6892L58.1665 31.6313Z" fill="white"/>
<path d="M58.1665 35.3998V33.0445L59.8152 32.1024V34.4576L58.1665 35.3998Z" fill="white"/>
<path d="M62.6415 29.7471V27.3918L64.2902 26.4496V28.8049L62.6415 29.7471Z" fill="white"/>
<path d="M62.6415 33.5155V31.1602L64.2902 30.2181V32.5734L62.6415 33.5155Z" fill="white"/>
<path d="M67.1166 27.8628V25.5075L68.7653 24.5654V26.9207L67.1166 27.8628Z" fill="white"/>
<path d="M67.1166 31.6313V29.276L68.7653 28.3339V30.6892L67.1166 31.6313Z" fill="white"/>
<path d="M71.3561 26.4496V24.0944L73.0048 23.1522V25.5075L71.3561 26.4496Z" fill="white"/>
<path d="M71.3561 30.2181V27.8628L73.0048 26.9207V29.276L71.3561 30.2181Z" fill="white"/>
<path d="M76.0667 24.8009V22.4456L77.7154 21.5035V23.8588L76.0667 24.8009Z" fill="white"/>
<path d="M76.0667 28.5694V26.2141L77.7154 25.272V27.6273L76.0667 28.5694Z" fill="white"/>
<path d="M80.5418 23.3878V21.0325L82.1905 20.0904V22.4456L80.5418 23.3878Z" fill="white"/>
<path d="M80.5418 27.1562V24.8009L82.1905 23.8588V26.2141L80.5418 27.1562Z" fill="white"/>
<path d="M85.0168 22.2101V19.8548L86.6655 18.9127V21.268L85.0168 22.2101Z" fill="white"/>
<path d="M85.0168 25.9786V23.6233L86.6655 22.6812V25.0365L85.0168 25.9786Z" fill="white"/>
<path d="M89.4919 20.7969V18.4416L91.1406 17.4995V19.8548L89.4919 20.7969Z" fill="white"/>
<path d="M89.4919 24.5654V22.2101L91.1406 21.268V23.6233L89.4919 24.5654Z" fill="white"/>
<path d="M93.7314 20.0904V17.7351L95.3801 16.7929V19.1482L93.7314 20.0904Z" fill="white"/>
<path d="M93.7314 23.8588V21.5035L95.3801 20.5614V22.9167L93.7314 23.8588Z" fill="white"/>
<path d="M98.442 18.6772V16.3219L100.091 15.3798V17.7351L98.442 18.6772Z" fill="white"/>
<path d="M98.442 22.4456V20.0904L100.091 19.1482V21.5035L98.442 22.4456Z" fill="white"/>
</g>
<path d="M158.504 18.9126V14.4375L163.214 14.9086V19.3836L158.504 18.9126Z" fill="white"/>
<path d="M168.396 20.3257V15.6151L173.107 16.3217V20.7968L168.396 20.3257Z" fill="white"/>
<path d="M178.053 21.5034V17.2639L182.999 18.206V22.681L178.053 21.5034Z" fill="white"/>
<path d="M46.627 143.98C53.8776 148.145 58.5475 150.236 68.2957 153.401M51.8086 140.918C59.084 144.672 63.2936 146.472 71.122 148.926M185.118 154.578C174.293 156.945 168.134 158.067 156.384 158.347M187.945 158.818C176.45 161.128 169.885 162.206 157.561 163.057" stroke="white" stroke-width="0.5"/>
<g filter="url(#filter4_d_434_7380)">
<path d="M188.18 24.095V19.3844L192.89 20.562V25.2726L188.18 24.095Z" fill="white"/>
</g>
<path d="M240.703 52.1226V41.7593C242.769 43.6494 243.914 44.7163 245.885 46.7054V56.8332C243.818 54.8766 242.683 53.8453 240.703 52.1226Z" fill="#969696"/>
<path d="M247.298 58.2463V48.3541C248.78 49.8334 249.665 50.9009 251.302 53.0647V62.7214L247.298 58.2463Z" fill="#969696"/>
<path d="M252.48 64.3701V54.7134C253.666 56.452 254.375 57.5955 255.777 59.895V69.3162C254.526 67.1654 253.803 66.0713 252.48 64.3701Z" fill="#969696"/>
<path d="M257.661 72.8492V63.428L257.699 63.516C258.467 65.3039 258.91 66.3341 259.545 68.1386V77.3242C258.838 75.4448 258.43 74.444 257.661 72.8492Z" fill="#969696"/>
<path d="M240.703 52.1226V41.7593C242.769 43.6494 243.914 44.7163 245.885 46.7054V56.8332C243.818 54.8766 242.683 53.8453 240.703 52.1226Z" stroke="white" stroke-width="0.5"/>
<path d="M247.298 58.2463V48.3541C248.78 49.8334 249.665 50.9009 251.302 53.0647V62.7214L247.298 58.2463Z" stroke="white" stroke-width="0.5"/>
<path d="M252.48 64.3701V54.7134C253.666 56.452 254.375 57.5955 255.777 59.895V69.3162C254.526 67.1654 253.803 66.0713 252.48 64.3701Z" stroke="white" stroke-width="0.5"/>
<path d="M257.661 72.8492V63.428L257.699 63.516C258.467 65.3039 258.91 66.3341 259.545 68.1386V77.3242C258.838 75.4448 258.43 74.444 257.661 72.8492Z" stroke="white" stroke-width="0.5"/>
<defs>
<filter id="filter0_d_434_7380" x="136.619" y="78.5222" width="46.1406" height="56.016" filterUnits="userSpaceOnUse" color-interpolation-filters="sRGB">
<feFlood flood-opacity="0" result="BackgroundImageFix"/>
<feColorMatrix in="SourceAlpha" type="matrix" values="0 0 0 0 0 0 0 0 0 0 0 0 0 0 0 0 0 0 127 0" result="hardAlpha"/>
<feOffset/>
<feGaussianBlur stdDeviation="10"/>
<feComposite in2="hardAlpha" operator="out"/>
<feColorMatrix type="matrix" values="0 0 0 0 1 0 0 0 0 1 0 0 0 0 1 0 0 0 1 0"/>
<feBlend mode="normal" in2="BackgroundImageFix" result="effect1_dropShadow_434_7380"/>
<feBlend mode="normal" in="SourceGraphic" in2="effect1_dropShadow_434_7380" result="shape"/>
</filter>
<filter id="filter1_d_434_7380" x="99.1699" y="37.9689" width="52.0117" height="44.2811" filterUnits="userSpaceOnUse" color-interpolation-filters="sRGB">
<feFlood flood-opacity="0" result="BackgroundImageFix"/>
<feColorMatrix in="SourceAlpha" type="matrix" values="0 0 0 0 0 0 0 0 0 0 0 0 0 0 0 0 0 0 127 0" result="hardAlpha"/>
<feOffset/>
<feGaussianBlur stdDeviation="10"/>
<feComposite in2="hardAlpha" operator="out"/>
<feColorMatrix type="matrix" values="0 0 0 0 1 0 0 0 0 1 0 0 0 0 1 0 0 0 1 0"/>
<feBlend mode="normal" in2="BackgroundImageFix" result="effect1_dropShadow_434_7380"/>
<feBlend mode="normal" in="SourceGraphic" in2="effect1_dropShadow_434_7380" result="shape"/>
</filter>
<filter id="filter2_d_434_7380" x="62.416" y="147.64" width="42.4355" height="28.0081" filterUnits="userSpaceOnUse" color-interpolation-filters="sRGB">
<feFlood flood-opacity="0" result="BackgroundImageFix"/>
<feColorMatrix in="SourceAlpha" type="matrix" values="0 0 0 0 0 0 0 0 0 0 0 0 0 0 0 0 0 0 127 0" result="hardAlpha"/>
<feOffset/>
<feGaussianBlur stdDeviation="5"/>
<feComposite in2="hardAlpha" operator="out"/>
<feColorMatrix type="matrix" values="0 0 0 0 1 0 0 0 0 1 0 0 0 0 1 0 0 0 1 0"/>
<feBlend mode="normal" in2="BackgroundImageFix" result="effect1_dropShadow_434_7380"/>
<feBlend mode="normal" in="SourceGraphic" in2="effect1_dropShadow_434_7380" result="shape"/>
</filter>
<filter id="filter3_d_434_7380" x="43.6914" y="5.37976" width="66.3984" height="42.1398" filterUnits="userSpaceOnUse" color-interpolation-filters="sRGB">
<feFlood flood-opacity="0" result="BackgroundImageFix"/>
<feColorMatrix in="SourceAlpha" type="matrix" values="0 0 0 0 0 0 0 0 0 0 0 0 0 0 0 0 0 0 127 0" result="hardAlpha"/>
<feOffset/>
<feGaussianBlur stdDeviation="5"/>
<feComposite in2="hardAlpha" operator="out"/>
<feColorMatrix type="matrix" values="0 0 0 0 1 0 0 0 0 1 0 0 0 0 1 0 0 0 1 0"/>
<feBlend mode="normal" in2="BackgroundImageFix" result="effect1_dropShadow_434_7380"/>
<feBlend mode="normal" in="SourceGraphic" in2="effect1_dropShadow_434_7380" result="shape"/>
</filter>
<filter id="filter4_d_434_7380" x="178.18" y="9.3844" width="24.7109" height="25.8882" filterUnits="userSpaceOnUse" color-interpolation-filters="sRGB">
<feFlood flood-opacity="0" result="BackgroundImageFix"/>
<feColorMatrix in="SourceAlpha" type="matrix" values="0 0 0 0 0 0 0 0 0 0 0 0 0 0 0 0 0 0 127 0" result="hardAlpha"/>
<feOffset/>
<feGaussianBlur stdDeviation="5"/>
<feComposite in2="hardAlpha" operator="out"/>
<feColorMatrix type="matrix" values="0 0 0 0 1 0 0 0 0 1 0 0 0 0 1 0 0 0 1 0"/>
<feBlend mode="normal" in2="BackgroundImageFix" result="effect1_dropShadow_434_7380"/>
<feBlend mode="normal" in="SourceGraphic" in2="effect1_dropShadow_434_7380" result="shape"/>
</filter>
</defs>
</svg>
