<svg width="262" height="238" viewBox="0 0 262 238" fill="none" xmlns="http://www.w3.org/2000/svg">
<path d="M143.91 221.393C134.448 226.35 126.788 226.8 117.325 221.393L23.1532 165.07C19.5485 161.465 19.1058 156.512 23.1533 154.256L117.325 98.3834C126.337 92.9765 134.448 93.4271 143.91 98.3834L233.126 150.201C243.94 156.058 240.786 162.367 231.323 168.675L143.91 221.393Z" fill="#CECECE" stroke="#CECECE" stroke-width="0.5"/>
<g filter="url(#filter0_d_382_1176)">
<path d="M235.831 152.003C241.949 157.912 240.474 161.502 232.227 168.224V181.291L239.436 177.236C241.432 175.445 241.76 174.214 241.689 171.829V161.916C241.625 156.014 239.986 154.169 235.831 152.003Z" fill="white"/>
</g>
<g filter="url(#filter1_d_382_1176)">
<path d="M46.5845 178.588V191.654L22.7035 177.236C20.4505 175.433 20 173.631 20 170.477V159.212C20.9012 161.465 22.2529 164.169 23.6047 164.619L46.5845 178.588Z" fill="white"/>
</g>
<g filter="url(#filter2_d_382_1176)">
<path d="M57.8477 198.413V185.796L65.057 190.302V202.919L57.8477 198.413Z" fill="white"/>
</g>
<path d="M46.584 191.654L116.875 234.009M116.875 234.009V221.23M116.875 234.009C125.067 238.989 135.8 238.966 143.91 234.009M143.91 234.009L145.971 232.779M143.91 234.009V232.207M143.91 221.393V224.547M220.96 188.015L232.225 168.224V171.829M220.96 188.015L224.114 186.132M220.96 188.015L217.883 189.852M224.114 186.132L232.225 171.829M224.114 186.132L227.268 184.25M232.225 171.829V174.983M232.225 174.983L227.268 184.25M232.225 174.983V178.137M227.268 184.25L229.747 182.77M229.747 182.77L232.225 181.291V178.137M229.747 182.77L232.225 178.137M217.883 189.852L228.62 170.477M217.883 189.852L215.103 191.512M215.103 191.512L225.016 172.73M215.103 191.512L211.498 193.664M211.498 193.664L220.51 175.433M211.498 193.664L207.893 195.815M207.893 195.815L216.454 177.686M207.893 195.815L204.739 197.698M204.739 197.698L212.399 179.939M204.739 197.698L200.88 200.002M200.88 200.002L208.344 182.643M200.88 200.002L196.748 202.468M196.748 202.468L204.289 184.896M196.748 202.468L193.475 204.422M193.475 204.422L200.233 187.599M193.475 204.422L190.321 206.305M190.321 206.305L196.748 189.401M190.321 206.305L187.166 208.188M187.166 208.188L192.573 192.105M187.166 208.188L183.916 210.128M183.916 210.128L188.969 194.358M183.916 210.128L180.858 211.954M180.858 211.954L185.364 196.611M180.858 211.954L178.155 213.567M178.155 213.567L181.759 198.864M178.155 213.567L175.001 215.45M175.001 215.45L178.155 200.666M175.001 215.45L171.084 217.788M171.084 217.788L175.001 202.468M171.084 217.788L167.341 220.023M167.341 220.023L171.084 204.955M167.341 220.023L163.536 222.294M163.536 222.294L167.341 207.425M163.536 222.294L159.762 224.547M159.762 224.547C159.697 224.187 162.384 214.484 163.736 209.678M159.762 224.547L155.625 227.016M155.625 227.016L159.23 212.381M155.625 227.016L152.213 229.053M152.213 229.053L156.076 214.184M152.213 229.053L148.867 231.051M148.867 231.051L152.471 216.436M148.867 231.051L145.971 232.779M145.971 232.779L149.317 218.239M143.91 232.207L146.614 220.023M143.91 232.207V224.547M143.91 224.547L144.811 220.942" stroke="#CECECE" stroke-width="0.5"/>
<path d="M187.106 23.3767L191.273 27.7727M191.273 27.7727C190.384 29.2373 188.729 29.9863 186.272 29.21C177.938 25.4605 177.938 15.0418 186.272 16.2916C191.445 17.7293 193.249 24.518 191.273 27.7727ZM186.272 60.0483H180.235M180.235 60.0483C179.322 56.411 181.335 53.0563 186.272 53.7967C191.445 55.2343 193.249 62.023 191.273 65.2777C190.384 66.7423 188.729 67.4913 186.272 66.7151C182.875 65.1868 180.863 62.5507 180.235 60.0483ZM186.272 41.2958L189.606 37.0841M189.606 37.0841C192.126 39.7616 192.737 44.1141 191.273 46.526C190.384 47.9906 188.729 48.7396 186.272 47.9633C177.938 44.2138 177.938 33.7951 186.272 35.0449C187.612 35.4172 188.726 36.1484 189.606 37.0841Z" stroke="#CECECE" stroke-width="0.5"/>
<path d="M199.191 28.7941V23.3767L202.942 25.4603V30.8777L199.191 28.7941Z" fill="#CECECE"/>
<path d="M199.191 37.962V32.9613L202.942 35.0449V40.0456L199.191 37.962Z" fill="#CECECE"/>
<path d="M199.191 47.9633V42.9627L202.942 44.6296V49.6302L199.191 47.9633Z" fill="#CECECE"/>
<path d="M206.276 32.9613V27.5439L210.026 29.6275V35.0449L206.276 32.9613Z" fill="#CECECE"/>
<path d="M206.276 42.5459V37.1286L210.026 39.2122V44.6296L206.276 42.5459Z" fill="#CECECE"/>
<path d="M206.276 52.1306V46.7132L210.026 48.7968V54.2142L206.276 52.1306Z" fill="#CECECE"/>
<path d="M213.36 38.3787V32.9613L217.11 35.0449V40.4623L213.36 38.3787Z" fill="#CECECE"/>
<path d="M213.36 47.9633V42.5459L217.11 44.6296V50.047L213.36 47.9633Z" fill="#CECECE"/>
<path d="M213.36 57.548V52.1306L217.11 54.2142V59.6316L213.36 57.548Z" fill="#CECECE"/>
<path d="M220.23 44.6296V39.2122L222.528 42.1292V47.5466L220.23 44.6296Z" fill="#CECECE"/>
<path d="M220.23 53.7975V48.3801L222.528 51.2971V56.7145L220.23 53.7975Z" fill="#CECECE"/>
<path d="M222.528 66.2991L220.23 63.3821V60.6734V57.9647L222.528 60.8817V66.2991Z" fill="#CECECE"/>
<path d="M225.445 51.7138V46.7132L227.112 49.6302V54.2142L225.445 51.7138Z" fill="#CECECE"/>
<path d="M225.445 61.2985V56.2978L227.112 59.2149V63.7988L225.445 61.2985Z" fill="#CECECE"/>
<path d="M225.445 70.4664V65.4657L227.112 68.3827V72.9667L225.445 70.4664Z" fill="#CECECE"/>
<g filter="url(#filter3_d_382_1176)">
<path d="M199.191 47.9634V42.9627L202.942 44.6296V49.6302L199.191 47.9634Z" fill="white"/>
<path d="M206.276 32.9613V27.5439L210.026 29.6276V35.045L206.276 32.9613Z" fill="white"/>
<path d="M213.36 47.9634V42.546L217.11 44.6296V50.047L213.36 47.9634Z" fill="white"/>
<path d="M220.23 63.3821V57.9647L222.528 60.8818V66.2991L220.23 63.3821Z" fill="white"/>
<path d="M225.445 51.7139V46.7132L227.112 49.6302V54.2142L225.445 51.7139Z" fill="white"/>
</g>
<path d="M197.941 72.5499V58.3813L201.275 60.0482V73.8001M204.609 75.8837V67.966L207.526 69.6329V77.9673M210.443 80.0509V67.5492L213.36 69.6329V82.5513M217.111 85.4683V67.5492L220.028 70.4663V89.2188M222.945 91.3024V77.9673L225.862 80.8844V87.5519" stroke="#CECECE" stroke-width="0.5"/>
<path d="M82.9164 85.885C86.2597 67.5492 99.5853 64.2155 116.671 58.3813C118.749 65.6603 122.931 69.6329 130.849 70.4663C142.93 69.8032 146.864 66.9491 150.018 58.3813C203.359 70.883 191.69 112.972 134.173 118.389C99.1775 118.389 80.8423 100.887 82.9164 85.885Z" fill="#969696" stroke="#CECECE" stroke-width="0.5"/>
<path d="M109.597 85.4682C112.516 78.0804 120.432 72.5389 132.1 72.5389C166.271 71.7164 168.772 102.97 132.1 102.543C120.431 102.543 105.315 96.303 109.597 85.4682Z" fill="#969696" stroke="#CECECE" stroke-width="0.5"/>
<g filter="url(#filter4_f_382_1176)">
<path d="M102.93 67.1324C86.6768 76.717 99.5951 86.3016 109.18 87.5518C111.119 79.2281 117.931 73.3835 130.849 72.55V70.4663C127.315 70.063 125.313 69.423 121.681 66.7157C114.336 64.1531 110.43 63.7988 102.93 67.1324Z" fill="#7A7A7A"/>
</g>
<path d="M112.096 95.8832C115.43 81.301 150.852 80.4668 155.019 95.8832M128.349 102.554L125.432 73.3833M138.767 102.137L141.684 73.3833M117.931 99.6368L111.68 81.7178M148.768 99.6368L155.436 80.0509M119.597 100.47C127.682 95.8832 137.516 95.4696 147.101 100.47" stroke="#CECECE" stroke-width="0.5"/>
<path d="M84.1758 95.0529L86.1873 98.8469C103.308 125.815 166.967 124.334 182.522 94.2195L150.018 157.145C145.017 170.896 123.764 170.896 117.097 157.145L86.1873 98.8469C85.4207 97.6393 84.7473 96.3746 84.1758 95.0529Z" fill="#CECECE" stroke="white" stroke-width="0.5"/>
<g filter="url(#filter5_f_382_1176)">
<path d="M140.434 177.147C152.519 173.813 152.102 167.563 148.351 160.478C141.267 171.313 123.348 168.396 117.514 157.978L93.3439 112.972L48.3379 139.225C55.4782 151.267 71.9207 156.613 103.345 168.396C123.474 177.59 130.539 178.421 140.434 177.147Z" fill="#7A7A7A"/>
</g>
<path d="M127.098 125.474C122.514 125.474 122.514 127.141 122.514 130.474V181.731C122.514 185.065 123.764 187.007 130.015 186.732C165.918 185.153 177.521 180.348 197.524 171.313C226.788 158.095 233.779 134.642 233.779 130.474V63.3821C233.779 75.4312 228.653 85.9426 220.027 94.7222C200.609 114.485 163.454 125.474 127.098 125.474Z" fill="#969696" stroke="white" stroke-width="0.5"/>
<path d="M177.105 7.54103C214.193 18.3758 233.779 41.2956 233.779 63.3819C232.946 78.384 228.706 85.0963 220.027 94.722C215.86 87.5518 193.528 73.8723 178.772 70.0494C172.938 68.3825 172.938 66.7156 172.938 63.3819V9.62464C172.938 7.54103 173.771 6.29086 177.105 7.54103Z" stroke="#CECECE" stroke-width="0.5"/>
<path d="M71.2566 170.063V116.723C71.2566 114.639 68.7562 112.972 65.0057 111.305C43.7529 98.3867 31.2512 88.8021 27.084 62.9653V118.806C27.084 141.726 34.585 153.811 64.589 172.563C69.5897 176.314 71.2566 173.814 71.2566 170.063Z" fill="#969696" stroke="white" stroke-width="0.5"/>
<path d="M233.778 77.1338C232.524 83.1279 230.22 88.6907 227.011 93.8027M129.598 145.06C184.605 145.06 224.61 123.39 233.778 88.802M129.598 155.894C183.772 158.811 233.778 125.89 233.778 98.3866M129.598 167.563C200.857 165.896 233.778 131.724 233.778 109.638M233.778 120.473C233.778 126.883 231.444 133.533 227.011 139.955M145.433 133.337C140.249 133.841 134.959 134.138 129.598 134.225V179.231C135.05 179.124 140.332 178.801 145.433 178.282M145.433 133.337V178.282M145.433 133.337C150.84 132.812 156.132 132.062 161.269 131.094M145.433 178.282C150.926 177.723 156.209 176.938 161.269 175.953M161.269 131.094V175.953M161.269 131.094C166.439 130.119 171.453 128.921 176.271 127.508M161.269 175.953C166.515 174.932 171.52 173.695 176.271 172.272M176.271 127.508V172.272M176.271 127.508C181.145 126.077 185.818 124.425 190.249 122.557M176.271 172.272C181.212 170.793 185.877 169.112 190.249 167.263M190.249 122.557V167.263M190.249 122.557C195.061 120.527 199.587 118.243 203.774 115.71M190.249 167.263C195.131 165.198 199.647 162.924 203.774 160.487M203.774 115.71V160.487M203.774 115.71C208.452 112.881 212.706 109.742 216.464 106.304M203.774 160.487C208.533 157.677 212.775 154.65 216.464 151.476M216.464 106.304V151.476M216.464 106.304C220.622 102.499 224.171 98.3277 227.011 93.8027M216.464 151.476C220.741 147.796 224.276 143.919 227.011 139.955M227.011 93.8027V139.955" stroke="white" stroke-width="0.5"/>
<path d="M119.18 1.29064C55.8378 4.62442 27.084 40.4626 27.084 62.9656C29.2253 77.2501 32.8359 83.8536 41.6693 94.2195C60.7347 75.4731 76.2572 70.4663 96.2599 66.2991C106.886 61.0564 113.222 59.2674 124.597 56.2977V7.12476C124.597 2.95753 124.597 0.873791 119.18 1.29064Z" stroke="#CECECE" stroke-width="0.5"/>
<path d="M27.084 119.64C27.9222 126.695 29.6298 132.601 32.0847 137.69M62.9221 152.561C45.0031 142.143 33.0968 136.63 27.084 108.388M62.9221 140.892C47.0867 131.308 33.7516 125.58 27.084 96.7199M62.9221 129.224C47.0867 119.64 33.8397 114.162 27.084 85.0517M27.084 71.7166C28.4006 78.1927 30.082 83.5 32.0847 87.953M50.4204 158.139C54.2433 160.835 58.4332 163.359 62.9221 165.896V116.723C58.489 113.952 54.2971 111.528 50.4204 108.915M50.4204 158.139V108.915M50.4204 158.139C46.7225 155.531 43.3681 152.761 40.4191 149.661M50.4204 108.915C46.7899 106.468 43.4358 103.856 40.4191 100.638M40.4191 149.661V100.638M40.4191 149.661C37.097 146.17 34.2894 142.259 32.0847 137.69M40.4191 100.638C37.2434 97.2512 34.4416 93.1937 32.0847 87.953M32.0847 87.953V137.69" stroke="white" stroke-width="0.5"/>
<path d="M42.0859 70.8831V87.9687" stroke="#CECECE" stroke-width="0.5"/>
<path d="M46.2539 66.2991V83.3847" stroke="#CECECE" stroke-width="0.5"/>
<path d="M52.0879 62.1318V79.2175" stroke="#CECECE" stroke-width="0.5"/>
<path d="M57.9219 57.9646V75.0502" stroke="#CECECE" stroke-width="0.5"/>
<path d="M63.7559 54.6309V71.7165" stroke="#CECECE" stroke-width="0.5"/>
<path d="M70.4238 51.2971V68.3827" stroke="#CECECE" stroke-width="0.5"/>
<path d="M77.0918 48.7966V65.8823" stroke="#CECECE" stroke-width="0.5"/>
<path d="M83.7578 46.2964V63.382" stroke="#CECECE" stroke-width="0.5"/>
<path d="M43.3363 80.4676C43.3363 79.2175 40.8359 79.2175 40.8359 80.4676V83.3847C40.8359 84.6349 43.3363 84.6349 43.3363 83.3847V80.4676Z" fill="white"/>
<path d="M47.5042 73.0709C47.5042 71.8208 45.0039 71.8208 45.0039 73.0709V75.988C45.0039 77.2382 47.5042 77.2382 47.5042 75.988V73.0709Z" fill="#CECECE"/>
<path d="M92.5094 57.9646L99.5937 56.2977M92.5094 55.0476L99.5937 53.3807M92.5094 52.5472L99.5937 50.8803M90.4258 45.4634C90.4258 44.2133 102.094 40.4623 102.094 42.9631V57.1312C102.094 59.6315 90.4258 62.9653 90.4258 60.0483V45.4634Z" stroke="#CECECE" stroke-width="0.5"/>
<path d="M92.5098 49.6301V46.713L99.594 44.6294V47.9632L92.5098 49.6301Z" fill="#CECECE"/>
<path d="M106.678 55.0475L113.346 54.214M106.261 52.5556L113.346 51.7137M104.178 42.1376C104.178 40.4697 115.846 38.3781 115.846 40.8789V54.6392C115.846 57.1395 104.178 60.0481 104.178 57.1311V42.1376Z" stroke="#CECECE" stroke-width="0.5"/>
<path d="M113.763 48.38L106.262 49.2135V43.7961L113.763 42.9626V48.38Z" fill="#CECECE"/>
<path d="M90.4258 16.2924V38.3787L115.429 33.7948V32.5446M90.4258 16.2924L115.429 11.7085V32.5446M90.4258 16.2924C93.9374 18.5825 95.4271 20.5906 96.6766 26.2938C97.3157 29.2108 100.01 28.7941 100.844 26.2938L102.511 18.3761C102.927 14.6256 105.011 16.2924 105.011 18.7928L105.845 26.2938C105.845 28.3774 107.511 29.6276 108.762 27.9607C110.832 24.0888 111.775 23.1834 112.512 27.1272C112.826 30.2488 114.839 33.9309 115.429 32.5446M107.928 15.459L112.512 15.0423M92.9261 35.4617L97.0933 34.2115" stroke="#CECECE" stroke-width="0.5"/>
<path d="M72.0917 46.7161V44.6324C62.5627 44.8239 61.8126 35.045 69.5905 26.2938C74.8427 20.3844 83.7591 21.2931 82.9256 29.6304H85.426C85.426 15.0425 70.0832 17.9596 63.3406 30.8806C58.3391 40.4652 64.5898 47.9662 72.0917 46.7161Z" fill="#CECECE"/>
<path d="M43.7536 62.9652C36.7142 62.2845 39.5862 51.297 44.587 42.9625L41.6698 41.2957C34.5858 51.7137 33.3355 68.3826 44.587 65.0488L43.7536 62.9652Z" fill="#CECECE"/>
<path d="M42.9199 42.1294C51.2544 31.2947 59.5888 40.4618 47.5039 60.0484" stroke="#CECECE" stroke-width="0.5"/>
<path d="M84.1762 29.6274C83.0178 35.6635 82.3538 39.0427 75.8418 43.796" stroke="#CECECE" stroke-width="0.5"/>
<path d="M53.3382 71.7164C53.3382 70.4663 50.8379 70.4663 50.8379 71.7164V74.6335C50.8379 75.8837 53.3382 75.8837 53.3382 74.6335V71.7164Z" fill="white"/>
<path d="M59.1722 61.4027C59.1722 60.1526 56.6719 60.1526 56.6719 61.4027V64.3198C56.6719 65.5699 59.1722 65.5699 59.1722 64.3198V61.4027Z" fill="#CECECE"/>
<path d="M65.0062 64.2154C65.0062 62.9653 62.5059 62.9653 62.5059 64.2154V67.1325C62.5059 68.3827 65.0062 68.3827 65.0062 67.1325V64.2154Z" fill="white"/>
<path d="M71.6742 53.0682C71.6742 51.8181 69.1738 51.8181 69.1738 53.0682V55.9853C69.1738 57.2355 71.6742 57.2355 71.6742 55.9853V53.0682Z" fill="#CECECE"/>
<path d="M78.3421 55.5684C78.3421 54.3183 75.8418 54.3183 75.8418 55.5684V58.4855C75.8418 59.7357 78.3421 59.7357 78.3421 58.4855V55.5684Z" fill="white"/>
<path d="M85.0081 49.7342C85.0081 48.4841 82.5078 48.4841 82.5078 49.7342V52.6513C82.5078 53.9015 85.0081 53.9015 85.0081 52.6513V49.7342Z" fill="#CECECE"/>
<circle cx="129.598" cy="145.06" r="1.25017" fill="white"/>
<circle cx="129.598" cy="155.894" r="1.25017" fill="white"/>
<circle cx="129.598" cy="167.563" r="1.25017" fill="white"/>
<circle cx="129.598" cy="179.231" r="1.25017" fill="white"/>
<circle cx="161.27" cy="175.897" r="1.25017" fill="white"/>
<circle cx="161.27" cy="164.229" r="1.25017" fill="white"/>
<circle cx="161.27" cy="153.394" r="1.25017" fill="white"/>
<circle cx="161.27" cy="142.559" r="1.25017" fill="white"/>
<circle cx="161.27" cy="130.891" r="1.25017" fill="white"/>
<circle cx="145.434" cy="133.392" r="1.25017" fill="white"/>
<circle cx="145.434" cy="144.226" r="1.25017" fill="white"/>
<circle cx="145.434" cy="155.061" r="1.25017" fill="white"/>
<circle cx="145.434" cy="166.729" r="1.25017" fill="white"/>
<circle cx="145.434" cy="178.398" r="1.25017" fill="white"/>
<circle cx="176.272" cy="172.563" r="1.25017" fill="white"/>
<circle cx="176.272" cy="160.895" r="1.25017" fill="white"/>
<circle cx="176.272" cy="150.06" r="1.25017" fill="white"/>
<circle cx="176.272" cy="139.226" r="1.25017" fill="white"/>
<circle cx="176.272" cy="127.557" r="1.25017" fill="white"/>
<circle cx="190.44" cy="167.563" r="1.25017" fill="white"/>
<circle cx="190.44" cy="155.894" r="1.25017" fill="white"/>
<circle cx="190.44" cy="145.06" r="1.25017" fill="white"/>
<circle cx="190.44" cy="134.225" r="1.25017" fill="white"/>
<circle cx="190.44" cy="122.557" r="1.25017" fill="white"/>
<path d="M204.608 115.889C204.608 116.58 204.048 117.139 203.358 117.139C202.667 117.139 202.107 116.58 202.107 115.889C202.107 115.199 202.667 114.639 203.358 114.639C204.048 114.639 204.608 115.199 204.608 115.889Z" fill="white"/>
<path d="M204.608 127.141C204.608 127.831 204.048 128.391 203.358 128.391C202.667 128.391 202.107 127.831 202.107 127.141C202.107 126.45 202.667 125.89 203.358 125.89C204.048 125.89 204.608 126.45 204.608 127.141Z" fill="white"/>
<path d="M204.608 137.975C204.608 138.666 204.048 139.225 203.358 139.225C202.667 139.225 202.107 138.666 202.107 137.975C202.107 137.285 202.667 136.725 203.358 136.725C204.048 136.725 204.608 137.285 204.608 137.975Z" fill="white"/>
<path d="M204.608 149.227C204.608 149.917 204.048 150.477 203.358 150.477C202.667 150.477 202.107 149.917 202.107 149.227C202.107 148.537 202.667 147.977 203.358 147.977C204.048 147.977 204.608 148.537 204.608 149.227Z" fill="white"/>
<path d="M204.608 160.478C204.608 161.169 204.048 161.729 203.358 161.729C202.667 161.729 202.107 161.169 202.107 160.478C202.107 159.788 202.667 159.228 203.358 159.228C204.048 159.228 204.608 159.788 204.608 160.478Z" fill="white"/>
<path d="M217.526 105.888C217.526 106.578 216.966 107.138 216.276 107.138C215.585 107.138 215.025 106.578 215.025 105.888C215.025 105.197 215.585 104.637 216.276 104.637C216.966 104.637 217.526 105.197 217.526 105.888Z" fill="white"/>
<path d="M217.526 117.556C217.526 118.247 216.966 118.806 216.276 118.806C215.585 118.806 215.025 118.247 215.025 117.556C215.025 116.866 215.585 116.306 216.276 116.306C216.966 116.306 217.526 116.866 217.526 117.556Z" fill="white"/>
<path d="M217.526 128.391C217.526 129.081 216.966 129.641 216.276 129.641C215.585 129.641 215.025 129.081 215.025 128.391C215.025 127.7 215.585 127.141 216.276 127.141C216.966 127.141 217.526 127.7 217.526 128.391Z" fill="white"/>
<path d="M217.526 140.059C217.526 140.749 216.966 141.309 216.276 141.309C215.585 141.309 215.025 140.749 215.025 140.059C215.025 139.369 215.585 138.809 216.276 138.809C216.966 138.809 217.526 139.369 217.526 140.059Z" fill="white"/>
<path d="M132.931 35.4617C111.678 35.4617 109.178 70.4664 132.931 70.4664C156.684 70.4664 157.518 35.4617 132.931 35.4617Z" fill="#969696" stroke="#CECECE" stroke-width="0.5"/>
<g filter="url(#filter6_f_382_1176)">
<path d="M130.847 35.4617C112.929 47.5466 122.93 69.2162 144.183 67.1326C115.846 82.968 104.594 40.8791 130.847 35.4617Z" fill="#7A7A7A"/>
</g>
<path d="M146.684 45.4629C139.183 45.4629 135.433 65.0488 143.767 67.1325C150.434 63.7987 154.602 47.5465 146.684 45.4629Z" stroke="#CECECE" stroke-width="0.5"/>
<g filter="url(#filter7_d_382_1176)">
<path d="M140.433 51.7144C147.518 49.6304 145.434 62.9654 139.183 58.7987C139.035 55.6131 139.457 54.1561 140.433 51.7144Z" fill="white"/>
</g>
<path d="M217.526 150.894C217.526 151.584 216.966 152.144 216.276 152.144C215.585 152.144 215.025 151.584 215.025 150.894C215.025 150.203 215.585 149.644 216.276 149.644C216.966 149.644 217.526 150.203 217.526 150.894Z" fill="white"/>
<path d="M228.362 94.2194C228.362 94.9099 227.802 95.4696 227.111 95.4696C226.421 95.4696 225.861 94.9099 225.861 94.2194C225.861 93.529 226.421 92.9692 227.111 92.9692C227.802 92.9692 228.362 93.529 228.362 94.2194Z" fill="white"/>
<path d="M228.362 105.888C228.362 106.578 227.802 107.138 227.111 107.138C226.421 107.138 225.861 106.578 225.861 105.888C225.861 105.197 226.421 104.637 227.111 104.637C227.802 104.637 228.362 105.197 228.362 105.888Z" fill="white"/>
<path d="M228.362 116.723C228.362 117.413 227.802 117.973 227.111 117.973C226.421 117.973 225.861 117.413 225.861 116.723C225.861 116.032 226.421 115.472 227.111 115.472C227.802 115.472 228.362 116.032 228.362 116.723Z" fill="white"/>
<path d="M228.362 128.391C228.362 129.081 227.802 129.641 227.111 129.641C226.421 129.641 225.861 129.081 225.861 128.391C225.861 127.7 226.421 127.141 227.111 127.141C227.802 127.141 228.362 127.7 228.362 128.391Z" fill="white"/>
<path d="M228.362 139.226C228.362 139.916 227.802 140.476 227.111 140.476C226.421 140.476 225.861 139.916 225.861 139.226C225.861 138.535 226.421 137.975 227.111 137.975C227.802 137.975 228.362 138.535 228.362 139.226Z" fill="white"/>
<defs>
<filter id="filter0_d_382_1176" x="212.227" y="132.003" width="49.4707" height="69.2878" filterUnits="userSpaceOnUse" color-interpolation-filters="sRGB">
<feFlood flood-opacity="0" result="BackgroundImageFix"/>
<feColorMatrix in="SourceAlpha" type="matrix" values="0 0 0 0 0 0 0 0 0 0 0 0 0 0 0 0 0 0 127 0" result="hardAlpha"/>
<feOffset/>
<feGaussianBlur stdDeviation="10"/>
<feComposite in2="hardAlpha" operator="out"/>
<feColorMatrix type="matrix" values="0 0 0 0 1 0 0 0 0 1 0 0 0 0 1 0 0 0 1 0"/>
<feBlend mode="normal" in2="BackgroundImageFix" result="effect1_dropShadow_382_1176"/>
<feBlend mode="normal" in="SourceGraphic" in2="effect1_dropShadow_382_1176" result="shape"/>
</filter>
<filter id="filter1_d_382_1176" x="0" y="139.212" width="66.584" height="72.4419" filterUnits="userSpaceOnUse" color-interpolation-filters="sRGB">
<feFlood flood-opacity="0" result="BackgroundImageFix"/>
<feColorMatrix in="SourceAlpha" type="matrix" values="0 0 0 0 0 0 0 0 0 0 0 0 0 0 0 0 0 0 127 0" result="hardAlpha"/>
<feOffset/>
<feGaussianBlur stdDeviation="10"/>
<feComposite in2="hardAlpha" operator="out"/>
<feColorMatrix type="matrix" values="0 0 0 0 1 0 0 0 0 1 0 0 0 0 1 0 0 0 1 0"/>
<feBlend mode="normal" in2="BackgroundImageFix" result="effect1_dropShadow_382_1176"/>
<feBlend mode="normal" in="SourceGraphic" in2="effect1_dropShadow_382_1176" result="shape"/>
</filter>
<filter id="filter2_d_382_1176" x="37.8477" y="165.796" width="47.209" height="57.1221" filterUnits="userSpaceOnUse" color-interpolation-filters="sRGB">
<feFlood flood-opacity="0" result="BackgroundImageFix"/>
<feColorMatrix in="SourceAlpha" type="matrix" values="0 0 0 0 0 0 0 0 0 0 0 0 0 0 0 0 0 0 127 0" result="hardAlpha"/>
<feOffset/>
<feGaussianBlur stdDeviation="10"/>
<feComposite in2="hardAlpha" operator="out"/>
<feColorMatrix type="matrix" values="0 0 0 0 1 0 0 0 0 1 0 0 0 0 1 0 0 0 1 0"/>
<feBlend mode="normal" in2="BackgroundImageFix" result="effect1_dropShadow_382_1176"/>
<feBlend mode="normal" in="SourceGraphic" in2="effect1_dropShadow_382_1176" result="shape"/>
</filter>
<filter id="filter3_d_382_1176" x="189.191" y="17.5439" width="47.9199" height="58.7551" filterUnits="userSpaceOnUse" color-interpolation-filters="sRGB">
<feFlood flood-opacity="0" result="BackgroundImageFix"/>
<feColorMatrix in="SourceAlpha" type="matrix" values="0 0 0 0 0 0 0 0 0 0 0 0 0 0 0 0 0 0 127 0" result="hardAlpha"/>
<feOffset/>
<feGaussianBlur stdDeviation="5"/>
<feComposite in2="hardAlpha" operator="out"/>
<feColorMatrix type="matrix" values="0 0 0 0 1 0 0 0 0 1 0 0 0 0 1 0 0 0 1 0"/>
<feBlend mode="normal" in2="BackgroundImageFix" result="effect1_dropShadow_382_1176"/>
<feBlend mode="normal" in="SourceGraphic" in2="effect1_dropShadow_382_1176" result="shape"/>
</filter>
<filter id="filter4_f_382_1176" x="85.1895" y="54.7129" width="55.6602" height="42.8389" filterUnits="userSpaceOnUse" color-interpolation-filters="sRGB">
<feFlood flood-opacity="0" result="BackgroundImageFix"/>
<feBlend mode="normal" in="SourceGraphic" in2="BackgroundImageFix" result="shape"/>
<feGaussianBlur stdDeviation="5" result="effect1_foregroundBlur_382_1176"/>
</filter>
<filter id="filter5_f_382_1176" x="38.3379" y="102.972" width="122.344" height="84.6443" filterUnits="userSpaceOnUse" color-interpolation-filters="sRGB">
<feFlood flood-opacity="0" result="BackgroundImageFix"/>
<feBlend mode="normal" in="SourceGraphic" in2="BackgroundImageFix" result="shape"/>
<feGaussianBlur stdDeviation="5" result="effect1_foregroundBlur_382_1176"/>
</filter>
<filter id="filter6_f_382_1176" x="112.033" y="31.4617" width="36.1504" height="43.2122" filterUnits="userSpaceOnUse" color-interpolation-filters="sRGB">
<feFlood flood-opacity="0" result="BackgroundImageFix"/>
<feBlend mode="normal" in="SourceGraphic" in2="BackgroundImageFix" result="shape"/>
<feGaussianBlur stdDeviation="2" result="effect1_foregroundBlur_382_1176"/>
</filter>
<filter id="filter7_d_382_1176" x="129.154" y="41.4917" width="25.7324" height="28.1187" filterUnits="userSpaceOnUse" color-interpolation-filters="sRGB">
<feFlood flood-opacity="0" result="BackgroundImageFix"/>
<feColorMatrix in="SourceAlpha" type="matrix" values="0 0 0 0 0 0 0 0 0 0 0 0 0 0 0 0 0 0 127 0" result="hardAlpha"/>
<feOffset/>
<feGaussianBlur stdDeviation="5"/>
<feComposite in2="hardAlpha" operator="out"/>
<feColorMatrix type="matrix" values="0 0 0 0 1 0 0 0 0 1 0 0 0 0 1 0 0 0 1 0"/>
<feBlend mode="normal" in2="BackgroundImageFix" result="effect1_dropShadow_382_1176"/>
<feBlend mode="normal" in="SourceGraphic" in2="effect1_dropShadow_382_1176" result="shape"/>
</filter>
</defs>
</svg>
