<svg width="270" height="273" viewBox="0 0 270 273" fill="none" xmlns="http://www.w3.org/2000/svg">
<circle cx="173.524" cy="181.389" r="1.1138" fill="white"/>
<path d="M197.576 108.431C193.643 110.491 190.459 110.678 186.526 108.431L147.381 85.019C145.883 83.5206 145.699 81.4618 147.381 80.524L186.526 57.2996C190.271 55.0521 193.643 55.2394 197.576 57.2996L234.66 78.8384C239.155 81.2732 237.844 83.8953 233.911 86.5173L197.576 108.431Z" fill="#CECECE" stroke="white" stroke-width="0.5"/>
<g filter="url(#filter0_f_434_7255)">
<path d="M183.456 58.0784C185.038 57.0929 186.719 56.5765 188.512 56.388C196.145 55.5854 202.007 62.7107 203.944 70.1373C204.335 71.6328 204.586 73.1773 204.531 74.7219C203.834 94.46 185.194 92.5977 180.949 89.5908L165.09 75.4515C163.364 73.9036 163.572 71.1408 165.509 69.8678L183.456 58.0784Z" fill="#7A7A7A"/>
</g>
<g filter="url(#filter1_d_434_7255)">
<path d="M235.785 79.5861C238.328 82.042 237.715 83.5342 234.287 86.3286V91.7601L237.284 90.0745C238.113 89.33 238.25 88.8185 238.22 87.827V83.7065C238.194 81.2533 237.512 80.4863 235.785 79.5861Z" fill="white"/>
</g>
<g filter="url(#filter2_d_434_7255)">
<path d="M157.121 90.6377V96.0692L147.194 90.0758C146.258 89.3266 146.07 88.5775 146.07 87.2664V82.5841C146.445 83.5206 147.007 84.6443 147.569 84.8316L157.121 90.6377Z" fill="white"/>
</g>
<g filter="url(#filter3_d_434_7255)">
<path d="M161.803 98.8781V93.6339L164.799 95.5068V100.751L161.803 98.8781Z" fill="white"/>
</g>
<path d="M157.121 96.0686L186.339 113.674M186.339 113.674V108.362M186.339 113.674C189.744 115.744 194.205 115.734 197.576 113.674M197.576 113.674L198.433 113.163M197.576 113.674V112.925M197.576 108.43V109.741M229.604 94.5559L234.286 86.3293V87.8277M229.604 94.5559L230.915 93.7733M229.604 94.5559L228.324 95.3194M230.915 93.7733L234.286 87.8277M230.915 93.7733L232.226 92.9907M234.286 87.8277V89.1387M234.286 89.1387L232.226 92.9907M234.286 89.1387V90.4498M232.226 92.9907L233.256 92.3758M233.256 92.3758L234.286 91.7608V90.4498M233.256 92.3758L234.286 90.4498M228.324 95.3194L232.788 87.2658M228.324 95.3194L227.169 96.0093M227.169 96.0093L231.289 88.2023M227.169 96.0093L225.67 96.9038M225.67 96.9038L229.416 89.326M225.67 96.9038L224.172 97.7982M224.172 97.7982L227.731 90.2625M224.172 97.7982L222.861 98.5808M222.861 98.5808L226.045 91.199M222.861 98.5808L221.257 99.5385M221.257 99.5385L224.359 92.3227M221.257 99.5385L219.539 100.564M219.539 100.564L222.674 93.2592M219.539 100.564L218.179 101.376M218.179 101.376L220.988 94.383M218.179 101.376L216.868 102.158M216.868 102.158L219.539 95.1321M216.868 102.158L215.557 102.941M215.557 102.941L217.804 96.2559M215.557 102.941L214.205 103.748M214.205 103.748L216.306 97.1923M214.205 103.748L212.934 104.506M212.934 104.506L214.807 98.1288M212.934 104.506L211.811 105.177M211.811 105.177L213.309 99.0653M211.811 105.177L210.5 105.96M210.5 105.96L211.811 99.8145M210.5 105.96L208.872 106.932M208.872 106.932L210.5 100.564M208.872 106.932L207.316 107.86M207.316 107.86L208.872 101.597M207.316 107.86L205.734 108.805M205.734 108.805L207.316 102.624M205.734 108.805L204.165 109.741M204.165 109.741C204.138 109.591 205.255 105.558 205.817 103.56M204.165 109.741L202.446 110.767M202.446 110.767L203.944 104.684M202.446 110.767L201.028 111.614M201.028 111.614L202.633 105.433M201.028 111.614L199.637 112.444M199.637 112.444L201.135 106.37M199.637 112.444L198.433 113.163M198.433 113.163L199.824 107.119M197.576 112.925L198.7 107.86M197.576 112.925V109.741M197.576 109.741L197.951 108.243" stroke="white" stroke-width="0.5"/>
<path d="M191.785 89.3277L170.701 63.9424L191.785 76.8671V89.3277Z" fill="#969696" stroke="white" stroke-width="0.5"/>
<path d="M191.746 76.8794V78.4564M191.746 76.8794L198.211 81.5373M191.746 76.8794L193.158 76.009M193.158 87.622L191.746 89.3222V86.5005M193.158 87.622L191.746 86.5005M193.158 87.622L193.914 86.711M191.746 86.5005V84.9464M191.746 84.9464L193.914 86.711M191.746 84.9464V83.3672M193.914 86.711L194.847 85.5876M194.847 85.5876L191.746 83.3672M194.847 85.5876L195.545 84.748M191.746 83.3672V81.5373M191.746 81.5373L195.545 84.748M191.746 81.5373V80.0333M195.545 84.748L196.506 83.5901M191.746 80.0333L196.506 83.5901M191.746 80.0333V78.4564M196.506 83.5901L197.41 82.5013M191.746 78.4564L197.41 82.5013M197.41 82.5013L198.211 81.5373M198.211 81.5373L199.118 80.4445M199.118 80.4445L193.158 76.009M199.118 80.4445L200.201 79.1408M193.158 76.009L194.847 74.9674M200.201 79.1408L194.847 74.9674M200.201 79.1408L201.14 78.0098M194.847 74.9674L196.246 74.1055M196.246 74.1055L201.14 78.0098M196.246 74.1055L197.673 73.2256M201.14 78.0098L202.079 76.8794M197.673 73.2256L202.079 76.8794M197.673 73.2256L199.009 72.4017M202.079 76.8794L202.957 75.8222M199.009 72.4017L202.957 75.8222M199.009 72.4017L200.378 71.558M202.957 75.8222L203.902 74.6839M200.378 71.558L203.902 74.6839M200.378 71.558L201.549 70.8358M203.902 74.6839L204.813 73.5876M201.549 70.8358C201.557 70.8311 203.728 72.6684 204.813 73.5876M201.549 70.8358L202.957 69.968M204.813 73.5876L205.686 72.5359M202.957 69.968L205.686 72.5359M202.957 69.968L204.137 69.2407M205.686 72.5359L206.498 71.558M204.137 69.2407L206.498 71.558M204.137 69.2407L205.534 68.3789M206.498 71.558L207.39 70.4841M205.534 68.3789L207.39 70.4841M205.534 68.3789L206.851 67.5671M207.39 70.4841L208.349 69.3284M206.851 67.5671C206.94 67.754 207.887 68.8192 208.349 69.3284M206.851 67.5671L208.156 66.763M208.349 69.3284L209.366 68.1039M208.156 66.763L212.918 63.8268L209.366 68.1039M208.156 66.763C208.163 66.7582 208.966 67.6549 209.366 68.1039" stroke="white" stroke-width="0.5"/>
<path d="M191.717 28.9225L170.627 58.1413L191.717 71.0251V28.9225Z" fill="#969696" stroke="white" stroke-width="0.5"/>
<path d="M191.721 32.3628V28.9012L193.498 31.327M191.721 32.3628L193.498 31.327M191.721 32.3628V33.475M193.498 31.327L194.012 32.0292M191.721 33.475L194.012 32.0292M191.721 33.475V34.6276M194.012 32.0292L194.632 32.8759M191.721 34.6276L194.632 32.8759M191.721 34.6276V36.2411M194.632 32.8759L195.372 33.8855M191.721 36.2411L195.372 33.8855M191.721 36.2411V37.8015M195.372 33.8855L196.121 34.9075M191.721 37.8015L196.121 34.9075M191.721 37.8015V39.3441M196.121 34.9075L196.957 36.0487M191.721 39.3441L196.957 36.0487M191.721 39.3441V40.9399M196.957 36.0487L197.797 37.196M191.721 40.9399L197.797 37.196M191.721 40.9399V42.3939M197.797 37.196L198.621 38.3203M191.721 42.3939L198.621 38.3203M191.721 42.3939V43.9365M198.621 38.3203L199.528 39.5591M191.721 43.9365L199.528 39.5591M191.721 43.9365V45.5855M199.528 39.5591L200.281 40.5865M191.721 45.5855L200.281 40.5865M191.721 45.5855V47.4295M200.281 40.5865L201.11 41.7192M191.721 47.4295L201.11 41.7192M191.721 47.4295V48.9544M201.11 41.7192L201.941 42.8527M191.721 48.9544L201.941 42.8527M191.721 48.9544V50.8339M201.941 42.8527L202.735 43.9365M191.721 50.8339L202.735 43.9365M191.721 50.8339V52.2347M202.735 43.9365L203.52 45.0089M191.721 52.2347L203.52 45.0089M191.721 52.2347V53.7241M203.52 45.0089L204.197 45.9332M191.721 53.7241L204.197 45.9332M191.721 53.7241V55.5682M204.197 45.9332L205.177 47.2697M191.721 55.5682L205.177 47.2697M191.721 55.5682V57.1108M205.177 47.2697L206.096 48.5255M191.721 57.1108L206.096 48.5255M191.721 57.1108V58.6816M206.096 48.5255L206.875 49.588M191.721 58.6816L206.875 49.588M191.721 58.6816V60.4297M206.875 49.588L207.669 50.6724M191.721 60.4297L207.669 50.6724M191.721 60.4297V62.0257M207.669 50.6724L208.437 51.7206M191.721 62.0257L208.437 51.7206M191.721 62.0257V63.5838M208.437 51.7206L209.211 52.7771M191.721 63.5838L209.211 52.7771M191.721 63.5838V65.1418M209.211 52.7771L210.122 54.0214M191.721 65.1418L210.122 54.0214M191.721 65.1418V66.8519M210.122 54.0214L210.862 55.0316M191.721 66.8519L210.862 55.0316M191.721 66.8519V68.562M210.862 55.0316L211.667 56.1292M191.721 68.562V70.9711L213.067 58.041L211.667 56.1292M191.721 68.562L211.667 56.1292" stroke="white" stroke-width="0.5"/>
<path d="M174.895 60.7416L170.609 63.846L191.73 76.877L212.937 63.7588L208.783 60.7416L191.73 71.0612L174.895 60.7416Z" fill="#969696" stroke="white" stroke-width="0.5"/>
<g opacity="0.4" filter="url(#filter4_f_434_7255)">
<path d="M125.703 163.026C126.645 162.439 127.544 161.911 128.447 161.469C133.936 158.781 139.067 164.275 140.61 170.19C140.921 171.381 141.121 172.611 141.077 173.841C140.522 189.561 125.676 188.078 122.295 185.683L109.766 174.512C109.701 174.454 109.618 174.422 109.531 174.422C109.182 174.422 109.046 173.968 109.338 173.777L125.703 163.026Z" fill="#7A7A7A"/>
</g>
<g opacity="0.4" filter="url(#filter5_f_434_7255)">
<path d="M157.019 180.283C157.961 179.697 158.86 179.169 159.763 178.726C165.253 176.038 170.384 181.533 171.926 187.447C172.237 188.639 172.437 189.869 172.394 191.099C171.839 206.819 156.993 205.336 153.612 202.941L141.082 191.769C141.018 191.712 140.934 191.68 140.848 191.68C140.499 191.68 140.363 191.226 140.655 191.034L157.019 180.283Z" fill="#7A7A7A"/>
</g>
<g opacity="0.4" filter="url(#filter6_f_434_7255)">
<path d="M194.373 160.882C195.315 160.296 196.213 159.768 197.117 159.325C202.606 156.637 207.737 162.132 209.28 168.046C209.591 169.237 209.791 170.468 209.747 171.698C209.192 187.418 194.346 185.934 190.965 183.54L178.435 172.368C178.371 172.31 178.288 172.279 178.201 172.279C177.852 172.279 177.716 171.825 178.008 171.633L194.373 160.882Z" fill="#7A7A7A"/>
</g>
<path d="M179.04 123.635L161.11 133.736L143.18 123.382L161.11 112.27L179.04 123.635Z" fill="#969696" stroke="white" stroke-width="0.5"/>
<path d="M143.18 123.381L161.11 133.735V155.959L143.18 145.352V123.381Z" fill="#CECECE" stroke="white" stroke-width="0.5"/>
<path d="M179.04 145.099V123.633L161.109 133.735V155.958L179.04 145.099Z" fill="#969696" stroke="white" stroke-width="0.5"/>
<path d="M156.203 142.451L156.266 137.252L151.662 134.62L151.818 139.945L156.203 142.451Z" fill="#505050" stroke="white" stroke-width="0.5"/>
<path d="M169.781 134.37L165.19 136.811L165.093 142.114L169.689 139.42L169.781 134.37Z" fill="#505050" stroke="white" stroke-width="0.5"/>
<path d="M156.485 147.557L156.204 142.451L151.819 139.945L151.662 134.62L147.058 131.989L147.496 142.419L156.485 147.557Z" fill="#CECECE" stroke="white" stroke-width="0.5"/>
<path d="M174.102 131.703L169.78 134.435L169.726 139.486L165.151 142.215L165.094 147.518L173.992 142.057L174.102 131.703Z" fill="#CECECE" stroke="white" stroke-width="0.5"/>
<path d="M146.255 143.855L128.325 153.956L110.395 143.602L128.325 132.491L146.255 143.855Z" fill="#969696" stroke="white" stroke-width="0.5"/>
<path d="M110.395 143.601L128.325 153.955V176.179L110.395 165.572V143.601Z" fill="#CECECE" stroke="white" stroke-width="0.5"/>
<path d="M146.255 165.32V143.854L128.324 153.955V176.179L146.255 165.32Z" fill="#969696" stroke="white" stroke-width="0.5"/>
<path d="M123.418 162.672L123.481 157.472L118.877 154.84L119.033 160.165L123.418 162.672Z" fill="#505050" stroke="white" stroke-width="0.5"/>
<path d="M136.996 154.59L132.405 157.032L132.308 162.334L136.904 159.64L136.996 154.59Z" fill="#505050" stroke="white" stroke-width="0.5"/>
<path d="M123.7 167.777L123.419 162.672L119.033 160.165L118.877 154.84L114.273 152.209L114.711 162.64L123.7 167.777Z" fill="#CECECE" stroke="white" stroke-width="0.5"/>
<path d="M141.317 151.924L136.994 154.656L136.941 159.706L132.366 162.436L132.309 167.739L141.207 162.277L141.317 151.924Z" fill="#CECECE" stroke="white" stroke-width="0.5"/>
<path d="M42.4883 131.453C42.4883 133.142 43.9597 133.742 46.0853 132.107L93.3388 103.929L98.898 84.9627V2.87584C98.898 0.540094 96.7288 0.216527 93.6903 2.87584L45.321 32.1791C43.1963 33.4724 42.6882 35.1814 42.6882 37.2137L42.4883 131.453Z" fill="#CECECE" stroke="#EEEEEE" stroke-width="0.5"/>
<path d="M48.6836 135.343C48.6836 137.033 50.155 137.632 52.2806 135.997L99.5341 107.819L105.093 88.8529V6.76598C105.093 4.43023 102.924 4.10666 99.8857 6.76598L51.5163 36.0692C49.3916 37.3625 48.8835 39.0715 48.8835 41.1038L48.6836 135.343Z" fill="#CECECE" stroke="#EEEEEE" stroke-width="0.5"/>
<path d="M56.168 139.038C56.168 140.728 57.6394 141.327 59.765 139.692L107.018 111.514L112.578 92.5479V10.461C112.578 8.1253 110.409 7.80173 107.37 10.461L59.0006 39.7643C56.876 41.0576 56.3679 42.7666 56.3679 44.7989L56.168 139.038Z" fill="#CECECE" stroke="#EEEEEE" stroke-width="0.5"/>
<path d="M61.9258 143.717C61.9258 145.407 63.3972 146.006 65.5228 144.371L112.776 116.194L118.336 97.2271V15.1402C118.336 12.8045 116.166 12.4809 113.128 15.1402L64.7585 44.4435C62.6338 45.7368 62.1257 47.4458 62.1257 49.4781L61.9258 143.717Z" fill="#969696" stroke="white" stroke-width="0.5"/>
<path opacity="0.3" d="M71.6797 58.0425V53.2797L108.436 31.2118V36.1385L71.6797 58.0425Z" fill="#D0D0D0" stroke="white" stroke-width="0.5"/>
<ellipse opacity="0.3" cx="102.246" cy="99.4811" rx="6.27228" ry="10.0103" transform="rotate(18.9017 102.246 99.4811)" fill="white"/>
<path opacity="0.3" d="M71.6797 67.5005V62.7377L108.436 40.6698V45.5965L71.6797 67.5005Z" fill="#D0D0D0" stroke="white" stroke-width="0.5"/>
<path opacity="0.3" d="M71.6797 86.5933V81.8305L108.436 59.7626V64.6893L71.6797 86.5933Z" fill="#D0D0D0" stroke="white" stroke-width="0.5"/>
<path opacity="0.3" d="M71.6797 96.6507V91.8878L108.436 69.8199V74.7467L71.6797 96.6507Z" fill="#D0D0D0" stroke="white" stroke-width="0.5"/>
<path opacity="0.3" d="M71.6797 106.128V101.365L99.1151 84.531V89.4577L71.6797 106.128Z" fill="#D0D0D0" stroke="white" stroke-width="0.5"/>
<path opacity="0.3" d="M71.6797 78.2987V73.5359L99.1151 56.7018V61.6285L71.6797 78.2987Z" fill="#D0D0D0" stroke="white" stroke-width="0.5"/>
<path opacity="0.3" d="M71.6797 115.31V110.547L93.4307 97.6482V102.575L71.6797 115.31Z" fill="#D0D0D0" stroke="white" stroke-width="0.5"/>
<path opacity="0.3" d="M71.6797 124.857V120.094L93.4307 107.196V112.122L71.6797 124.857Z" fill="#D0D0D0" stroke="white" stroke-width="0.5"/>
<path d="M85.1797 66.2565V61.4937L121.936 39.4258V44.3525L85.1797 66.2565Z" fill="#D0D0D0" stroke="white" stroke-width="0.5"/>
<path d="M71.3867 53.3152L85.2385 61.8008M108.137 31.2897L121.802 39.5258M71.7857 125.024L85.1119 132.902M108.672 91.0826L120.747 98.0771" stroke="white" stroke-width="0.5"/>
<path d="M85.1797 75.7141V70.9513L121.936 48.8834V53.8101L85.1797 75.7141Z" fill="#D0D0D0" stroke="white" stroke-width="0.5"/>
<path d="M85.1797 94.8078V90.0449L121.936 67.9771V72.9038L85.1797 94.8078Z" fill="#D0D0D0" stroke="white" stroke-width="0.5"/>
<path d="M85.1797 104.865V100.102L121.936 78.0339V82.9607L85.1797 104.865Z" fill="#D0D0D0" stroke="white" stroke-width="0.5"/>
<path d="M85.1797 114.341V109.579L112.615 92.7445V97.6712L85.1797 114.341Z" fill="#D0D0D0" stroke="white" stroke-width="0.5"/>
<path d="M85.1797 86.5116V81.7488L112.615 64.9147V69.8414L85.1797 86.5116Z" fill="#D0D0D0" stroke="white" stroke-width="0.5"/>
<path d="M85.1797 123.523V118.76L106.931 105.862V110.788L85.1797 123.523Z" fill="#D0D0D0" stroke="white" stroke-width="0.5"/>
<path d="M85.1797 133.07V128.307L106.931 115.409V120.335L85.1797 133.07Z" fill="#D0D0D0" stroke="white" stroke-width="0.5"/>
<ellipse cx="116.936" cy="107.094" rx="7.62956" ry="10.6442" transform="rotate(18.9017 116.936 107.094)" fill="white"/>
<path d="M112.578 109.284L116.078 112.896L120.706 101.777" stroke="black" stroke-width="0.5"/>
<path d="M205.937 141.058L188.006 151.159L170.076 140.805L188.006 129.693L205.937 141.058Z" fill="#969696" stroke="white" stroke-width="0.5"/>
<path d="M170.076 140.804L188.006 151.158V173.382L170.076 162.775V140.804Z" fill="#CECECE" stroke="white" stroke-width="0.5"/>
<path d="M205.936 162.522V141.056L188.006 151.158V173.381L205.936 162.522Z" fill="#969696" stroke="white" stroke-width="0.5"/>
<path d="M183.1 159.874L183.163 154.674L178.559 152.043L178.715 157.368L183.1 159.874Z" fill="#505050" stroke="white" stroke-width="0.5"/>
<path d="M183.382 164.98L183.1 159.874L178.715 157.368L178.559 152.043L173.954 149.412L174.392 159.842L183.382 164.98Z" fill="#CECECE" stroke="white" stroke-width="0.5"/>
<path d="M173.525 160.018L155.594 170.119L137.664 159.765L155.594 148.653L173.525 160.018Z" fill="#969696" stroke="white" stroke-width="0.5"/>
<path d="M137.664 159.764L155.594 170.118V192.342L137.664 181.735V159.764Z" fill="#CECECE" stroke="white" stroke-width="0.5"/>
<path d="M173.524 181.482V160.016L155.594 170.118V192.342L173.524 181.482Z" fill="#969696" stroke="white" stroke-width="0.5"/>
<path d="M150.686 178.834L150.749 173.635L146.144 171.003L146.301 176.328L150.686 178.834Z" fill="#505050" stroke="white" stroke-width="0.5"/>
<path d="M150.97 183.94L150.688 178.835L146.303 176.328L146.147 171.003L141.542 168.372L141.98 178.803L150.97 183.94Z" fill="#CECECE" stroke="white" stroke-width="0.5"/>
<circle cx="246.382" cy="203.023" r="15.591" fill="#CECECE"/>
<path d="M41.3662 93.6512C38.6968 95.6376 38.2935 96.4641 39.7641 97.4188L44.1507 100.131M44.1507 100.131L48.602 97.7183M44.1507 100.131L39.7641 103.002C38.5763 103.792 38.6593 104.666 39.7641 105.414L44.1507 108.326M44.1507 108.326L54.7587 102.003M44.1507 108.326L39.7641 111.114C38.7425 111.738 38.7425 112.861 40.1569 113.776L44.6498 116.48M44.6498 116.48L61.9556 106.122M44.6498 116.48L37.1617 121.015C35.1649 122.221 34.832 123.428 34.832 125.175V149.178C34.832 150.343 35.0817 151.341 36.5794 152.173L110.172 196.733M92.0812 218.701L113.92 205.132M123.685 205.132L152.504 222.23C155.185 223.993 156.688 224.01 159.366 222.23L210.904 191.429C213.025 189.854 214.417 189.798 216.943 191.429L228.328 198.423M173.966 181.822L193.492 193.677C195.541 195.17 196.735 195.295 198.993 193.677L210.904 186.781C212.592 185.564 213.607 185.51 215.497 186.781L231.458 196.389M206.664 162.296L225.725 173.764C227.918 175.412 227.872 176.273 225.725 177.715L218.906 181.822C217.228 183.069 217.279 183.75 218.906 184.999L226.109 189.291M234.248 194.142L226.109 189.291M225.128 190.28V212.863C224.934 213.47 224.907 213.911 225.128 214.289M260.063 210.049L266.454 213.578V215.331L247.802 226.486H246.422M232.459 210.049L225.128 214.289M225.128 214.289C225.346 214.664 225.808 214.978 226.591 215.331L245.151 226.486H246.422M246.422 202.693V226.486M245.151 200.921L226.109 189.291M226.591 187.926C227.132 187.723 239.189 180.303 245.151 176.619H246.422V187.642M247.802 176.619L266.454 187.926M247.802 200.921L266.454 189.291M267.602 190.28V213.578M234.904 192.999L225.128 187.236C224.11 186.252 223.894 185.655 226.109 184.241L267.091 159.501C269.694 157.94 269.564 157.076 267.091 155.517L235.494 136.505L226.803 137.229L205.346 150.085M234.861 132.069L247.354 125.097C249.05 123.699 250.576 123.018 247.354 120.752L213.676 100.744" stroke="white"/>
<circle cx="246.5" cy="176.059" r="1.47671" fill="white"/>
<circle cx="267.602" cy="188.737" r="1.47671" fill="white"/>
<circle cx="246.5" cy="201.546" r="1.47671" fill="white"/>
<circle cx="246.5" cy="227.422" r="1.47671" fill="white"/>
<circle cx="225.475" cy="188.737" r="1.47671" fill="white"/>
<circle cx="228.86" cy="198.956" r="1.1138" fill="white"/>
<circle cx="205.936" cy="161.889" r="1.1138" fill="white"/>
<circle cx="213.088" cy="100.506" r="1.1138" fill="white"/>
<circle cx="62.6255" cy="105.653" r="1.1138" fill="white"/>
<circle cx="55.106" cy="101.708" r="1.1138" fill="white"/>
<circle cx="49.0786" cy="97.4395" r="1.1138" fill="white"/>
<circle cx="41.9322" cy="93.6512" r="1.1138" fill="white"/>
<circle cx="231.905" cy="196.728" r="1.1138" fill="white"/>
<circle cx="235.088" cy="194.744" r="1.1138" fill="white"/>
<circle cx="225.086" cy="214.548" r="1.47671" fill="white"/>
<circle cx="267.602" cy="214.548" r="1.47671" fill="white"/>
<path opacity="0.4" d="M203.222 147.088C203.489 146.948 203.682 146.97 203.664 147.35L203.79 160.557C203.813 160.868 203.694 160.989 203.458 161.118L191.784 167.387C191.581 167.497 191.401 167.413 191.393 167.156L191.267 153.949C191.254 153.621 191.335 153.484 191.612 153.327L203.222 147.088Z" stroke="white" stroke-width="0.5"/>
<path opacity="0.4" d="M172.048 167.404C172.315 167.264 172.508 167.286 172.49 167.666L172.617 180.873C172.639 181.184 172.52 181.305 172.285 181.434L160.61 187.703C160.408 187.813 160.228 187.729 160.219 187.472L160.093 174.265C160.081 173.937 160.161 173.801 160.438 173.643L172.048 167.404Z" stroke="white" stroke-width="0.5"/>
<path opacity="0.4" d="M207.364 153.799C207.553 153.699 207.69 153.715 207.677 153.985L207.767 163.352C207.783 163.573 207.699 163.658 207.531 163.749L199.251 168.196C199.108 168.274 198.98 168.215 198.974 168.032L198.884 158.665C198.876 158.432 198.933 158.336 199.129 158.224L207.364 153.799Z" stroke="white" stroke-width="0.5"/>
<path opacity="0.4" d="M176.19 174.115C176.379 174.015 176.516 174.031 176.503 174.301L176.593 183.667C176.609 183.888 176.525 183.974 176.358 184.065L168.077 188.512C167.934 188.59 167.806 188.531 167.8 188.348L167.71 178.981C167.702 178.748 167.759 178.652 167.955 178.54L176.19 174.115Z" stroke="white" stroke-width="0.5"/>
<g filter="url(#filter7_f_434_7255)">
<ellipse cx="121.251" cy="206.121" rx="5.41307" ry="3.28065" fill="#2F2F2F"/>
</g>
<circle cx="119.04" cy="202.091" r="5.68662" fill="#CECECE"/>
<path opacity="0.4" d="M110.916 197.487V206.694L119.04 211.839M110.916 197.487L119.04 202.091M110.916 197.487L119.04 192.342L127.164 197.217M119.04 211.839V202.091M119.04 211.839L127.164 206.423V197.217M119.04 202.091L127.164 197.217" stroke="white" stroke-width="0.5"/>
<g filter="url(#filter8_f_434_7255)">
<ellipse cx="233.608" cy="138.317" rx="5.41307" ry="3.28065" fill="#2F2F2F"/>
</g>
<circle cx="231.398" cy="134.286" r="5.68662" fill="#CECECE"/>
<path opacity="0.4" d="M223.273 129.683V138.89L231.397 144.035M223.273 129.683L231.397 134.286M223.273 129.683L231.397 124.538L239.521 129.412M231.397 144.035V134.286M231.397 144.035L239.521 138.619V129.412M231.397 134.286L239.521 129.412" stroke="white" stroke-width="0.5"/>
<path d="M134.891 143.362C134.891 144.265 134.223 145.136 133.023 145.795C131.833 146.45 130.172 146.863 128.323 146.863C126.475 146.863 124.813 146.45 123.623 145.795C122.424 145.136 121.756 144.265 121.756 143.362C121.756 142.459 122.424 141.588 123.623 140.929C124.813 140.274 126.475 139.861 128.323 139.861C130.172 139.861 131.833 140.274 133.023 140.929C134.223 141.588 134.891 142.459 134.891 143.362Z" stroke="white" stroke-width="0.5"/>
<path d="M131.763 143.362C131.763 143.823 131.42 144.294 130.747 144.665C130.082 145.031 129.148 145.264 128.101 145.264C127.055 145.264 126.12 145.031 125.456 144.665C124.782 144.294 124.439 143.823 124.439 143.362C124.439 142.901 124.782 142.43 125.456 142.059C126.12 141.693 127.055 141.46 128.101 141.46C129.148 141.46 130.082 141.693 130.747 142.059C131.42 142.43 131.763 142.901 131.763 143.362Z" stroke="white" stroke-width="0.5"/>
<circle cx="128.215" cy="143.362" r="0.94556" fill="white"/>
<circle cx="161.11" cy="123.003" r="0.94556" fill="white"/>
<path d="M72.1573 260.247C68.2448 262.297 65.0776 262.483 61.1651 260.247L22.2266 236.959C20.7361 235.468 20.553 233.42 22.2266 232.487L61.1651 209.385C64.8912 207.149 68.2448 207.336 72.1573 209.385L109.046 230.81C113.518 233.232 112.214 235.841 108.301 238.449L72.1573 260.247Z" fill="#CECECE" stroke="white" stroke-width="0.5"/>
<g filter="url(#filter9_d_434_7255)">
<path d="M110.153 231.555C112.682 233.998 112.072 235.482 108.662 238.262V243.665L111.643 241.988C112.468 241.247 112.604 240.739 112.575 239.752V235.653C112.548 233.213 111.871 232.45 110.153 231.555Z" fill="white"/>
</g>
<g filter="url(#filter10_d_434_7255)">
<path d="M31.9141 242.548V247.951L22.0397 241.989C21.1082 241.244 20.9219 240.499 20.9219 239.195V234.537C21.2945 235.468 21.8534 236.586 22.4123 236.773L31.9141 242.548Z" fill="white"/>
</g>
<g filter="url(#filter11_d_434_7255)">
<path d="M36.5723 250.745V245.528L39.5532 247.391V252.608L36.5723 250.745Z" fill="white"/>
</g>
<path d="M31.9141 247.95L60.9782 265.464M60.9782 265.464V260.179M60.9782 265.464C64.3653 267.523 68.8032 267.513 72.1567 265.464M72.1567 265.464L73.0088 264.955M72.1567 265.464V264.718M72.1567 260.247V261.551M104.015 246.446L108.673 238.262V239.753M104.015 246.446L105.32 245.667M104.015 246.446L102.743 247.205M105.32 245.667L108.673 239.753M105.32 245.667L106.624 244.889M108.673 239.753V241.057M108.673 241.057L106.624 244.889M108.673 241.057V242.361M106.624 244.889L107.649 244.277M107.649 244.277L108.673 243.665V242.361M107.649 244.277L108.673 242.361M102.743 247.205L107.183 239.194M102.743 247.205L101.593 247.892M101.593 247.892L105.692 240.126M101.593 247.892L100.103 248.781M100.103 248.781L103.829 241.243M100.103 248.781L98.6125 249.671M98.6125 249.671L102.152 242.175M98.6125 249.671L97.3084 250.45M97.3084 250.45L100.476 243.106M97.3084 250.45L95.7125 251.402M95.7125 251.402L98.7988 244.224M95.7125 251.402L94.0042 252.422M94.0042 252.422L97.1221 245.156M94.0042 252.422L92.6507 253.23M92.6507 253.23L95.4453 246.274M92.6507 253.23L91.3465 254.008M91.3465 254.008L94.0042 247.019M91.3465 254.008L90.0423 254.787M90.0423 254.787L92.2781 248.137M90.0423 254.787L88.6984 255.589M88.6984 255.589L90.7876 249.068M88.6984 255.589L87.434 256.344M87.434 256.344L89.2971 250M87.434 256.344L86.3162 257.011M86.3162 257.011L87.8066 250.931M86.3162 257.011L85.012 257.79M85.012 257.79L86.3162 251.677M85.012 257.79L83.3926 258.756M83.3926 258.756L85.012 252.422M83.3926 258.756L81.8448 259.68M81.8448 259.68L83.3926 253.45M81.8448 259.68L80.2715 260.619M80.2715 260.619L81.8448 254.471M80.2715 260.619L78.711 261.551M78.711 261.551C78.6842 261.402 79.7954 257.39 80.3543 255.403M78.711 261.551L77.0007 262.572M77.0007 262.572L78.4912 256.521M77.0007 262.572L75.5899 263.414M75.5899 263.414L77.1871 257.266M75.5899 263.414L74.2061 264.24M74.2061 264.24L75.6966 258.197M74.2061 264.24L73.0088 264.955M73.0088 264.955L74.3924 258.943M72.1567 264.718L73.2746 259.68M72.1567 264.718V261.551M72.1567 261.551L72.5293 260.061" stroke="white" stroke-width="0.5"/>
<g filter="url(#filter12_f_434_7255)">
<path d="M52.0611 213.747C53.2437 213.011 54.372 212.348 55.506 211.792C62.399 208.417 68.8411 215.316 70.7783 222.743C71.1684 224.238 71.4196 225.783 71.365 227.327C70.6683 247.065 52.0275 245.203 47.7824 242.196L32.0498 228.169C31.9689 228.097 31.8643 228.057 31.7559 228.057C31.3173 228.057 31.1469 227.487 31.5134 227.246L52.0611 213.747Z" fill="#7A7A7A"/>
</g>
<path d="M60.4121 213.6C70.455 209.527 75.995 201.838 75.995 189.897" stroke="white" stroke-width="0.5"/>
<path d="M47.07 214.491V223.993L50.6235 222.158L53.2493 220.802L55.6564 225.266L55.5883 225.224L51.3237 232.312L43.3586 227.76L45.9752 223.367L39.1172 219.448V209.43L45.2624 205.711L47.2506 198.585L43.3001 196.106L49.9102 185.106L53.835 187.456L59.6705 181.646V174.777L68.966 169.097L75.327 173.242L78.8812 167.857L86.834 172.144L93.2892 175.707L90.604 179.735L97.3173 184.021L91.3268 187.12L88.9513 182.214L90.604 179.735L93.2892 175.707L86.834 172.144L82.3928 179.735L76.9704 180.406V176.688V174.313L67.5717 179.322V186.139L62.1493 191.716L57.7597 189.805L51.2012 201.064L55.3326 203.129L52.9571 210.462L47.07 214.491Z" fill="#505050"/>
<path d="M67.5165 233.887L61.0394 229.905L62.221 228.242L67.5165 227.935V233.887Z" fill="#505050"/>
<path d="M47.07 214.491V223.993M47.07 214.491L39.1172 209.43M47.07 214.491L52.9571 210.462M47.07 223.993L50.6235 222.158M47.07 223.993L45.9752 223.367M39.1172 209.43V219.448L45.9752 223.367M39.1172 209.43L45.2624 205.711M52.9571 210.462L45.2624 205.711M52.9571 210.462L55.3326 203.129L51.2012 201.064M45.2624 205.711L47.2506 198.585M51.2012 201.064L47.2506 198.585M51.2012 201.064L57.7597 189.805M47.2506 198.585L43.3001 196.106L49.9102 185.106L53.835 187.456M57.7597 189.805L62.1493 191.716L67.5717 186.139M57.7597 189.805L53.835 187.456M67.5717 186.139V179.322M67.5717 186.139L59.6705 181.646M67.5717 179.322L76.9704 174.313M67.5717 179.322L59.6705 174.777M76.9704 174.313V176.688M76.9704 174.313L75.327 173.242M59.6705 174.777L68.966 169.097L75.327 173.242M59.6705 174.777V181.646M59.6705 181.646L53.835 187.456M82.3928 179.735L76.9704 180.406V176.688M82.3928 179.735L76.9704 176.688M82.3928 179.735L86.834 172.144M86.834 172.144L78.8812 167.857L75.327 173.242M86.834 172.144L93.2892 175.707L90.604 179.735M90.604 179.735L88.9513 182.214L91.3268 187.12L97.3173 184.021L90.604 179.735ZM50.6235 222.158L53.2493 220.802L55.6564 225.266L55.5883 225.224M50.6235 222.158L55.5883 225.224M45.9752 223.367L43.3586 227.76L51.3237 232.312L55.5883 225.224M61.0394 229.905L67.5165 233.887V227.935L62.221 228.242L61.0394 229.905Z" stroke="white" stroke-width="0.5"/>
<path fill-rule="evenodd" clip-rule="evenodd" d="M55.5892 225.244L51.2945 232.347L57.7426 235.631L62.1607 228.227L67.5938 227.69V234.198L76.9077 228.824V221.779L82.5796 215.928L86.7589 217.779L93.3263 207.211L88.9679 204.525L91.3561 197.3L97.3265 194.076V183.986L91.3561 187.151L88.9679 182.374L93.3263 175.687L86.8186 172.105C85.4653 174.613 82.699 179.628 82.4602 179.628C82.2213 179.628 78.7386 180.106 77.0271 180.344V174.195L67.5938 179.21V186.076L62.101 191.748L57.862 189.778L51.3542 201.062L55.235 203.032L53.2051 210.256L47.1152 214.316V223.929L53.2051 220.704L55.5892 225.244ZM76.0543 189.257C66.3817 192.063 60.4675 201.105 60.6507 213.079C70.5952 208.188 75.6358 202.153 76.0543 189.257Z" fill="#D9D9D9"/>
<path d="M51.2945 232.347L51.0806 232.217L50.9414 232.448L51.181 232.57L51.2945 232.347ZM55.5892 225.244L55.8031 225.374L55.8761 225.253L55.8106 225.128L55.5892 225.244ZM57.7426 235.631L57.6291 235.853L57.8375 235.959L57.9573 235.759L57.7426 235.631ZM62.1607 228.227L62.1361 227.978L62.0106 227.991L61.946 228.099L62.1607 228.227ZM67.5938 227.69H67.8438V227.414L67.5692 227.441L67.5938 227.69ZM67.5938 234.198H67.3438V234.63L67.7187 234.414L67.5938 234.198ZM76.9077 228.824L77.0326 229.041L77.1577 228.969V228.824H76.9077ZM76.9077 221.779L76.7281 221.605L76.6577 221.678V221.779H76.9077ZM82.5796 215.928L82.6808 215.699L82.5214 215.629L82.4001 215.754L82.5796 215.928ZM86.7589 217.779L86.6576 218.007L86.8564 218.095L86.9712 217.911L86.7589 217.779ZM93.3263 207.211L93.5387 207.343L93.6711 207.13L93.4575 206.998L93.3263 207.211ZM88.9679 204.525L88.7305 204.446L88.6685 204.634L88.8367 204.737L88.9679 204.525ZM91.3561 197.3L91.2373 197.08L91.1499 197.128L91.1187 197.222L91.3561 197.3ZM97.3265 194.076L97.4453 194.296L97.5765 194.226V194.076H97.3265ZM97.3265 183.986H97.5765V183.571L97.2094 183.765L97.3265 183.986ZM91.3561 187.151L91.1325 187.262L91.247 187.491L91.4732 187.372L91.3561 187.151ZM88.9679 182.374L88.7585 182.238L88.6802 182.358L88.7443 182.486L88.9679 182.374ZM93.3263 175.687L93.5358 175.824L93.6828 175.598L93.4469 175.468L93.3263 175.687ZM86.8186 172.105L86.9391 171.886L86.7183 171.765L86.5986 171.986L86.8186 172.105ZM82.4602 179.628V179.878V179.628ZM77.0271 180.344H76.7771V180.632L77.0616 180.592L77.0271 180.344ZM77.0271 174.195H77.2771V173.779L76.9097 173.974L77.0271 174.195ZM67.5938 179.21L67.4764 178.989L67.3438 179.06V179.21H67.5938ZM67.5938 186.076L67.7734 186.25L67.8438 186.177V186.076H67.5938ZM62.101 191.748L61.9956 191.975L62.1569 192.05L62.2806 191.922L62.101 191.748ZM57.862 189.778L57.9674 189.551L57.7598 189.454L57.6454 189.653L57.862 189.778ZM51.3542 201.062L51.1377 200.937L51.0059 201.165L51.2411 201.285L51.3542 201.062ZM55.235 203.032L55.4757 203.1L55.5312 202.902L55.3482 202.809L55.235 203.032ZM53.2051 210.256L53.3437 210.464L53.4207 210.413L53.4457 210.324L53.2051 210.256ZM47.1152 214.316L46.9766 214.108L46.8652 214.182V214.316H47.1152ZM47.1152 223.929H46.8652V224.344L47.2322 224.149L47.1152 223.929ZM53.2051 220.704L53.4264 220.588L53.3098 220.366L53.0881 220.484L53.2051 220.704ZM76.0543 189.257L76.3042 189.265L76.3153 188.921L75.9846 189.017L76.0543 189.257ZM60.6507 213.079L60.4007 213.083L60.4068 213.478L60.761 213.304L60.6507 213.079ZM80.7884 189.778L80.8491 189.535L80.8374 189.533L80.7884 189.778ZM71.9522 217.003L72.084 217.215L71.9522 217.003ZM51.5084 232.476L55.8031 225.374L55.3753 225.115L51.0806 232.217L51.5084 232.476ZM57.856 235.408L51.4079 232.124L51.181 232.57L57.6291 235.853L57.856 235.408ZM61.946 228.099L57.5279 235.502L57.9573 235.759L62.3754 228.355L61.946 228.099ZM67.5692 227.441L62.1361 227.978L62.1853 228.476L67.6184 227.939L67.5692 227.441ZM67.8438 234.198V227.69H67.3438V234.198H67.8438ZM76.7827 228.608L67.4689 233.981L67.7187 234.414L77.0326 229.041L76.7827 228.608ZM76.6577 221.779V228.824H77.1577V221.779H76.6577ZM82.4001 215.754L76.7281 221.605L77.0872 221.953L82.7591 216.102L82.4001 215.754ZM86.8601 217.55L82.6808 215.699L82.4783 216.156L86.6576 218.007L86.8601 217.55ZM93.114 207.079L86.5465 217.647L86.9712 217.911L93.5387 207.343L93.114 207.079ZM88.8367 204.737L93.1951 207.424L93.4575 206.998L89.0991 204.312L88.8367 204.737ZM91.1187 197.222L88.7305 204.446L89.2053 204.603L91.5935 197.379L91.1187 197.222ZM97.2077 193.857L91.2373 197.08L91.4749 197.52L97.4453 194.296L97.2077 193.857ZM97.0765 183.986V194.076H97.5765V183.986H97.0765ZM91.4732 187.372L97.4436 184.207L97.2094 183.765L91.239 186.93L91.4732 187.372ZM88.7443 182.486L91.1325 187.262L91.5797 187.039L89.1915 182.262L88.7443 182.486ZM93.1169 175.551L88.7585 182.238L89.1774 182.511L93.5358 175.824L93.1169 175.551ZM86.698 172.324L93.2058 175.906L93.4469 175.468L86.9391 171.886L86.698 172.324ZM82.4602 179.878C82.5161 179.878 82.5593 179.86 82.583 179.849C82.6085 179.836 82.629 179.822 82.6435 179.811C82.6722 179.788 82.698 179.762 82.7192 179.739C82.7625 179.69 82.8117 179.626 82.8641 179.553C82.9702 179.404 83.1066 179.192 83.2644 178.936C83.5809 178.423 83.9931 177.715 84.4388 176.93C85.3306 175.361 86.3614 173.479 87.0386 172.224L86.5986 171.986C85.9224 173.239 84.8934 175.118 84.0041 176.683C83.5592 177.466 83.1505 178.168 82.8388 178.674C82.6826 178.927 82.5531 179.127 82.4568 179.263C82.4081 179.331 82.3721 179.377 82.348 179.404C82.3355 179.417 82.332 179.42 82.3362 179.416C82.3384 179.415 82.3478 179.407 82.3634 179.4C82.3772 179.393 82.4117 179.378 82.4602 179.378V179.878ZM77.0616 180.592C77.9171 180.473 79.2152 180.294 80.3291 180.144C80.8861 180.07 81.3965 180.003 81.7823 179.954C81.9753 179.93 82.1363 179.911 82.256 179.897C82.316 179.891 82.3646 179.886 82.4013 179.882C82.4196 179.881 82.4341 179.88 82.4451 179.879C82.4571 179.878 82.4611 179.878 82.4602 179.878V179.378C82.413 179.378 82.3158 179.388 82.2007 179.4C82.0775 179.414 81.9139 179.434 81.7201 179.458C81.3322 179.507 80.8201 179.574 80.2627 179.649C79.1476 179.798 77.8485 179.977 76.9925 180.097L77.0616 180.592ZM76.7771 174.195V180.344H77.2771V174.195H76.7771ZM67.7111 179.431L77.1444 174.416L76.9097 173.974L67.4764 178.989L67.7111 179.431ZM67.8438 186.076V179.21H67.3438V186.076H67.8438ZM62.2806 191.922L67.7734 186.25L67.4142 185.902L61.9214 191.574L62.2806 191.922ZM57.7566 190.004L61.9956 191.975L62.2064 191.521L57.9674 189.551L57.7566 190.004ZM51.5708 201.187L58.0786 189.903L57.6454 189.653L51.1377 200.937L51.5708 201.187ZM55.3482 202.809L51.4674 200.839L51.2411 201.285L55.1218 203.255L55.3482 202.809ZM53.4457 210.324L55.4757 203.1L54.9943 202.964L52.9644 210.189L53.4457 210.324ZM47.2539 214.524L53.3437 210.464L53.0664 210.048L46.9766 214.108L47.2539 214.524ZM47.3652 223.929V214.316H46.8652V223.929H47.3652ZM53.0881 220.484L46.9983 223.708L47.2322 224.149L53.322 220.925L53.0881 220.484ZM55.8106 225.128L53.4264 220.588L52.9837 220.821L55.3679 225.361L55.8106 225.128ZM75.9846 189.017C66.1802 191.861 60.2162 201.022 60.4007 213.083L60.9007 213.075C60.7188 201.187 66.5831 192.265 76.124 189.497L75.9846 189.017ZM60.761 213.304C65.7533 210.848 69.5417 208.093 72.131 204.311C74.7214 200.528 76.0939 195.744 76.3042 189.265L75.8044 189.249C75.5962 195.665 74.2392 200.347 71.7185 204.029C69.1968 207.712 65.4926 210.419 60.5404 212.855L60.761 213.304ZM60.6195 211.629C60.6195 207.127 62.7886 201.136 66.4091 196.56C70.0294 191.985 75.0487 188.885 80.7394 190.023L80.8374 189.533C74.8858 188.342 69.6957 191.601 66.017 196.25C62.3387 200.898 60.1195 206.997 60.1195 211.629H60.6195ZM80.7278 190.02C82.5735 190.482 83.6139 191.917 83.966 193.986C84.3198 196.065 83.9672 198.751 83.0346 201.602C81.1691 207.305 77.0199 213.563 71.8203 216.79L72.084 217.215C77.4086 213.91 81.618 207.541 83.5098 201.757C84.4559 198.865 84.8316 196.092 84.4589 193.902C84.0846 191.702 82.9438 190.059 80.849 189.535L80.7278 190.02ZM71.8203 216.79C68.4791 218.864 65.6826 219.02 63.7405 217.978C61.797 216.935 60.6195 214.644 60.6195 211.629H60.1195C60.1195 214.764 61.3486 217.261 63.504 218.418C65.6608 219.576 68.6555 219.343 72.084 217.215L71.8203 216.79Z" fill="white"/>
<path d="M79.5095 209.713C69.4029 222.809 61.8118 218.726 60.6484 213.557C72.6894 208.146 74.7606 202.066 76.0221 189.642C83.8922 187.322 88.7802 195.663 79.5095 209.713Z" fill="#CECECE"/>
<path d="M69.6127 207.618L66.8672 210.025L74.5131 215.221L76.9209 212.898L69.6127 207.618Z" fill="white"/>
<path d="M75.8648 193.635C75.2156 198.566 74.3402 201.149 71.556 205.336L79.0753 210.237C82.1547 205.985 83.2636 203.374 83.8488 198.282L75.8648 193.635Z" fill="white"/>
<defs>
<filter id="filter0_f_434_7255" x="147.916" y="40.326" width="72.623" height="67.1326" filterUnits="userSpaceOnUse" color-interpolation-filters="sRGB">
<feFlood flood-opacity="0" result="BackgroundImageFix"/>
<feBlend mode="normal" in="SourceGraphic" in2="BackgroundImageFix" result="shape"/>
<feGaussianBlur stdDeviation="8" result="effect1_foregroundBlur_434_7255"/>
</filter>
<filter id="filter1_d_434_7255" x="214.287" y="59.5861" width="43.9375" height="52.1741" filterUnits="userSpaceOnUse" color-interpolation-filters="sRGB">
<feFlood flood-opacity="0" result="BackgroundImageFix"/>
<feColorMatrix in="SourceAlpha" type="matrix" values="0 0 0 0 0 0 0 0 0 0 0 0 0 0 0 0 0 0 127 0" result="hardAlpha"/>
<feOffset/>
<feGaussianBlur stdDeviation="10"/>
<feComposite in2="hardAlpha" operator="out"/>
<feColorMatrix type="matrix" values="0 0 0 0 1 0 0 0 0 1 0 0 0 0 1 0 0 0 1 0"/>
<feBlend mode="normal" in2="BackgroundImageFix" result="effect1_dropShadow_434_7255"/>
<feBlend mode="normal" in="SourceGraphic" in2="effect1_dropShadow_434_7255" result="shape"/>
</filter>
<filter id="filter2_d_434_7255" x="126.07" y="62.5841" width="51.0508" height="53.4851" filterUnits="userSpaceOnUse" color-interpolation-filters="sRGB">
<feFlood flood-opacity="0" result="BackgroundImageFix"/>
<feColorMatrix in="SourceAlpha" type="matrix" values="0 0 0 0 0 0 0 0 0 0 0 0 0 0 0 0 0 0 127 0" result="hardAlpha"/>
<feOffset/>
<feGaussianBlur stdDeviation="10"/>
<feComposite in2="hardAlpha" operator="out"/>
<feColorMatrix type="matrix" values="0 0 0 0 1 0 0 0 0 1 0 0 0 0 1 0 0 0 1 0"/>
<feBlend mode="normal" in2="BackgroundImageFix" result="effect1_dropShadow_434_7255"/>
<feBlend mode="normal" in="SourceGraphic" in2="effect1_dropShadow_434_7255" result="shape"/>
</filter>
<filter id="filter3_d_434_7255" x="141.803" y="73.6339" width="42.9961" height="47.1172" filterUnits="userSpaceOnUse" color-interpolation-filters="sRGB">
<feFlood flood-opacity="0" result="BackgroundImageFix"/>
<feColorMatrix in="SourceAlpha" type="matrix" values="0 0 0 0 0 0 0 0 0 0 0 0 0 0 0 0 0 0 127 0" result="hardAlpha"/>
<feOffset/>
<feGaussianBlur stdDeviation="10"/>
<feComposite in2="hardAlpha" operator="out"/>
<feColorMatrix type="matrix" values="0 0 0 0 1 0 0 0 0 1 0 0 0 0 1 0 0 0 1 0"/>
<feBlend mode="normal" in2="BackgroundImageFix" result="effect1_dropShadow_434_7255"/>
<feBlend mode="normal" in="SourceGraphic" in2="effect1_dropShadow_434_7255" result="shape"/>
</filter>
<filter id="filter4_f_434_7255" x="93.1797" y="144.767" width="63.9043" height="58.4036" filterUnits="userSpaceOnUse" color-interpolation-filters="sRGB">
<feFlood flood-opacity="0" result="BackgroundImageFix"/>
<feBlend mode="normal" in="SourceGraphic" in2="BackgroundImageFix" result="shape"/>
<feGaussianBlur stdDeviation="8" result="effect1_foregroundBlur_434_7255"/>
</filter>
<filter id="filter5_f_434_7255" x="124.496" y="162.025" width="63.9043" height="58.4036" filterUnits="userSpaceOnUse" color-interpolation-filters="sRGB">
<feFlood flood-opacity="0" result="BackgroundImageFix"/>
<feBlend mode="normal" in="SourceGraphic" in2="BackgroundImageFix" result="shape"/>
<feGaussianBlur stdDeviation="8" result="effect1_foregroundBlur_434_7255"/>
</filter>
<filter id="filter6_f_434_7255" x="161.85" y="142.624" width="63.9043" height="58.4036" filterUnits="userSpaceOnUse" color-interpolation-filters="sRGB">
<feFlood flood-opacity="0" result="BackgroundImageFix"/>
<feBlend mode="normal" in="SourceGraphic" in2="BackgroundImageFix" result="shape"/>
<feGaussianBlur stdDeviation="8" result="effect1_foregroundBlur_434_7255"/>
</filter>
<filter id="filter7_f_434_7255" x="111.838" y="198.841" width="18.8262" height="14.5613" filterUnits="userSpaceOnUse" color-interpolation-filters="sRGB">
<feFlood flood-opacity="0" result="BackgroundImageFix"/>
<feBlend mode="normal" in="SourceGraphic" in2="BackgroundImageFix" result="shape"/>
<feGaussianBlur stdDeviation="2" result="effect1_foregroundBlur_434_7255"/>
</filter>
<filter id="filter8_f_434_7255" x="224.195" y="131.036" width="18.8262" height="14.5613" filterUnits="userSpaceOnUse" color-interpolation-filters="sRGB">
<feFlood flood-opacity="0" result="BackgroundImageFix"/>
<feBlend mode="normal" in="SourceGraphic" in2="BackgroundImageFix" result="shape"/>
<feGaussianBlur stdDeviation="2" result="effect1_foregroundBlur_434_7255"/>
</filter>
<filter id="filter9_d_434_7255" x="88.6621" y="211.555" width="43.916" height="52.1101" filterUnits="userSpaceOnUse" color-interpolation-filters="sRGB">
<feFlood flood-opacity="0" result="BackgroundImageFix"/>
<feColorMatrix in="SourceAlpha" type="matrix" values="0 0 0 0 0 0 0 0 0 0 0 0 0 0 0 0 0 0 127 0" result="hardAlpha"/>
<feOffset/>
<feGaussianBlur stdDeviation="10"/>
<feComposite in2="hardAlpha" operator="out"/>
<feColorMatrix type="matrix" values="0 0 0 0 1 0 0 0 0 1 0 0 0 0 1 0 0 0 1 0"/>
<feBlend mode="normal" in2="BackgroundImageFix" result="effect1_dropShadow_434_7255"/>
<feBlend mode="normal" in="SourceGraphic" in2="effect1_dropShadow_434_7255" result="shape"/>
</filter>
<filter id="filter10_d_434_7255" x="0.921875" y="214.537" width="50.9922" height="53.4142" filterUnits="userSpaceOnUse" color-interpolation-filters="sRGB">
<feFlood flood-opacity="0" result="BackgroundImageFix"/>
<feColorMatrix in="SourceAlpha" type="matrix" values="0 0 0 0 0 0 0 0 0 0 0 0 0 0 0 0 0 0 127 0" result="hardAlpha"/>
<feOffset/>
<feGaussianBlur stdDeviation="10"/>
<feComposite in2="hardAlpha" operator="out"/>
<feColorMatrix type="matrix" values="0 0 0 0 1 0 0 0 0 1 0 0 0 0 1 0 0 0 1 0"/>
<feBlend mode="normal" in2="BackgroundImageFix" result="effect1_dropShadow_434_7255"/>
<feBlend mode="normal" in="SourceGraphic" in2="effect1_dropShadow_434_7255" result="shape"/>
</filter>
<filter id="filter11_d_434_7255" x="16.5723" y="225.528" width="42.9805" height="47.0797" filterUnits="userSpaceOnUse" color-interpolation-filters="sRGB">
<feFlood flood-opacity="0" result="BackgroundImageFix"/>
<feColorMatrix in="SourceAlpha" type="matrix" values="0 0 0 0 0 0 0 0 0 0 0 0 0 0 0 0 0 0 127 0" result="hardAlpha"/>
<feOffset/>
<feGaussianBlur stdDeviation="10"/>
<feComposite in2="hardAlpha" operator="out"/>
<feColorMatrix type="matrix" values="0 0 0 0 1 0 0 0 0 1 0 0 0 0 1 0 0 0 1 0"/>
<feBlend mode="normal" in2="BackgroundImageFix" result="effect1_dropShadow_434_7255"/>
<feBlend mode="normal" in="SourceGraphic" in2="effect1_dropShadow_434_7255" result="shape"/>
</filter>
<filter id="filter12_f_434_7255" x="15.3125" y="194.911" width="72.0605" height="65.1525" filterUnits="userSpaceOnUse" color-interpolation-filters="sRGB">
<feFlood flood-opacity="0" result="BackgroundImageFix"/>
<feBlend mode="normal" in="SourceGraphic" in2="BackgroundImageFix" result="shape"/>
<feGaussianBlur stdDeviation="8" result="effect1_foregroundBlur_434_7255"/>
</filter>
</defs>
</svg>
