<svg width="265" height="252" viewBox="0 0 265 252" fill="none" xmlns="http://www.w3.org/2000/svg">
<path d="M145.539 234.968C135.976 239.977 128.234 240.432 118.671 234.968L23.4925 178.043C19.8493 174.4 19.4018 169.394 23.4925 167.113L118.671 110.644C127.779 105.179 135.976 105.635 145.539 110.644L235.708 163.015C246.637 168.935 243.45 175.311 233.886 181.686L145.539 234.968Z" fill="#CECECE" stroke="white" stroke-width="0.5"/>
<g filter="url(#filter0_d_561_1403)">
<path d="M238.44 164.837C244.623 170.809 243.132 174.437 234.797 181.231V194.438L242.083 190.339C244.101 188.529 244.432 187.285 244.36 184.874V174.856C244.296 168.891 242.639 167.026 238.44 164.837Z" fill="white"/>
</g>
<g filter="url(#filter1_d_561_1403)">
<path d="M47.1732 191.705V204.912L23.0371 190.339C20.76 188.517 20.3047 186.696 20.3047 183.508V172.123C21.2155 174.4 22.5817 177.132 23.9479 177.588L47.1732 191.705Z" fill="white"/>
</g>
<g filter="url(#filter2_d_561_1403)">
<path d="M58.5566 211.742V198.991L65.843 203.545V216.296L58.5566 211.742Z" fill="white"/>
</g>
<path d="M47.1738 204.912L118.216 247.72M118.216 247.72V234.803M118.216 247.72C126.495 252.753 137.343 252.729 145.54 247.72M145.54 247.72L147.623 246.476M145.54 247.72V245.898M145.54 234.968V238.156M223.413 201.234L234.798 181.231V184.875M223.413 201.234L226.601 199.331M223.413 201.234L220.303 203.091M226.601 199.331L234.798 184.875M226.601 199.331L229.788 197.428M234.798 184.875V188.062M234.798 188.062L229.788 197.428M234.798 188.062V191.25M229.788 197.428L232.293 195.933M232.293 195.933L234.798 194.438V191.25M232.293 195.933L234.798 191.25M220.303 203.091L231.155 183.508M220.303 203.091L217.493 204.768M217.493 204.768L227.511 185.785M217.493 204.768L213.849 206.943M213.849 206.943L222.957 188.518M213.849 206.943L210.206 209.118M210.206 209.118L218.859 190.795M210.206 209.118L207.018 211.021M207.018 211.021L214.76 193.072M207.018 211.021L203.118 213.349M203.118 213.349L210.662 195.804M203.118 213.349L198.942 215.842M198.942 215.842L206.563 198.081M198.942 215.842L195.634 217.817M195.634 217.817L202.464 200.814M195.634 217.817L192.446 219.72M192.446 219.72L198.942 202.635M192.446 219.72L189.258 221.622M189.258 221.622L194.723 205.368M189.258 221.622L185.973 223.583M185.973 223.583L191.08 207.645M185.973 223.583L182.882 225.428M182.882 225.428L187.436 209.922M182.882 225.428L180.15 227.059M180.15 227.059L183.793 212.198M180.15 227.059L176.962 228.962M176.962 228.962L180.15 214.02M176.962 228.962L173.004 231.325M173.004 231.325L176.962 215.842M173.004 231.325L169.22 233.584M169.22 233.584L173.004 218.355M169.22 233.584L165.375 235.879M165.375 235.879L169.22 220.851M165.375 235.879L161.56 238.156M161.56 238.156C161.495 237.792 164.211 227.986 165.577 223.128M161.56 238.156L157.38 240.652M157.38 240.652L161.023 225.86M157.38 240.652L153.932 242.71M153.932 242.71L157.836 227.682M153.932 242.71L150.549 244.729M150.549 244.729L154.192 229.959M150.549 244.729L147.623 246.476M147.623 246.476L151.005 231.781M145.54 245.898L148.272 233.584M145.54 245.898V238.156M145.54 238.156L146.451 234.513" stroke="white" stroke-width="0.5"/>
<g filter="url(#filter3_f_561_1403)">
<path d="M124.544 190.873C136.777 187.498 169.857 158.555 166.06 151.385C158.89 162.352 124.432 180.911 118.526 170.366L94.0613 124.811L48.5059 151.385C55.7333 163.574 57.8329 170.129 89.6411 182.055C110.016 191.361 114.529 192.162 124.544 190.873Z" fill="#797979"/>
</g>
<path d="M83.6016 177.333C83.6016 179.616 85.5893 180.426 88.4608 178.217L152.295 140.152L159.805 114.53V3.63903C159.805 0.483683 156.875 0.0465769 152.77 3.63903L87.4282 43.2247C84.558 44.9718 83.8716 47.2804 83.8716 50.0258L83.6016 177.333Z" fill="#CECECE" stroke="#EEEEEE" stroke-width="0.5"/>
<path d="M91.9688 182.588C91.9688 184.871 93.9565 185.68 96.828 183.471L160.662 145.407L168.172 119.785V8.89392C168.172 5.73857 165.242 5.30146 161.137 8.89392L95.7954 48.4796C92.9252 50.2266 92.2388 52.5353 92.2388 55.2807L91.9688 182.588Z" fill="#CECECE" stroke="#EEEEEE" stroke-width="0.5"/>
<path d="M102.082 187.58C102.082 189.862 104.07 190.672 106.941 188.463L170.776 150.398L178.286 124.776V13.8856C178.286 10.7303 175.355 10.2932 171.251 13.8856L105.909 53.4713C103.038 55.2183 102.352 57.527 102.352 60.2724L102.082 187.58Z" fill="#CECECE" stroke="#EEEEEE" stroke-width="0.5"/>
<path d="M109.861 193.901C109.861 196.184 111.849 196.993 114.721 194.784L178.555 156.72L186.065 131.098V20.2069C186.065 17.0516 183.135 16.6144 179.03 20.2069L113.688 59.7925C110.818 61.5396 110.131 63.8483 110.131 66.5937L109.861 193.901Z" fill="#969696" stroke="white" stroke-width="0.5"/>
<path opacity="0.3" d="M123.035 78.1635V71.7294L172.689 41.918V48.5735L123.035 78.1635Z" fill="#D0D0D0" stroke="white" stroke-width="0.5"/>
<ellipse opacity="0.3" cx="164.329" cy="134.143" rx="8.47319" ry="13.5229" transform="rotate(18.9017 164.329 134.143)" fill="white"/>
<path opacity="0.3" d="M123.035 90.9403V84.5062L172.689 54.6948V61.3503L123.035 90.9403Z" fill="#D0D0D0" stroke="white" stroke-width="0.5"/>
<path opacity="0.3" d="M123.035 116.733V110.299L172.689 80.4873V87.1428L123.035 116.733Z" fill="#D0D0D0" stroke="white" stroke-width="0.5"/>
<path opacity="0.3" d="M123.035 130.319V123.885L172.689 94.0737V100.729L123.035 130.319Z" fill="#D0D0D0" stroke="white" stroke-width="0.5"/>
<path opacity="0.3" d="M123.035 143.122V136.688L160.098 113.947V120.602L123.035 143.122Z" fill="#D0D0D0" stroke="white" stroke-width="0.5"/>
<path opacity="0.3" d="M123.035 105.527V99.0931L160.098 76.3521V83.0075L123.035 105.527Z" fill="#D0D0D0" stroke="white" stroke-width="0.5"/>
<path opacity="0.3" d="M123.035 155.526V149.092L152.419 131.667V138.322L123.035 155.526Z" fill="#D0D0D0" stroke="white" stroke-width="0.5"/>
<path opacity="0.3" d="M123.035 168.423V161.989L152.419 144.564V151.219L123.035 168.423Z" fill="#D0D0D0" stroke="white" stroke-width="0.5"/>
<path d="M141.275 89.2596V82.8256L190.929 53.0142V59.6696L141.275 89.2596Z" fill="#D0D0D0" stroke="white" stroke-width="0.5"/>
<path d="M122.639 71.7776L141.351 83.2408M172.285 42.0234L190.744 53.1496M123.178 168.649L141.18 179.291M173.007 122.797L189.319 132.246" stroke="white" stroke-width="0.5"/>
<path d="M141.275 102.036V95.6015L190.929 65.79V72.4455L141.275 102.036Z" fill="#D0D0D0" stroke="white" stroke-width="0.5"/>
<path d="M141.275 127.829V121.395L190.929 91.584V98.2395L141.275 127.829Z" fill="#D0D0D0" stroke="white" stroke-width="0.5"/>
<path d="M141.275 141.415V134.981L190.929 105.17V111.825L141.275 141.415Z" fill="#D0D0D0" stroke="white" stroke-width="0.5"/>
<path d="M141.275 154.218V147.784L178.338 125.042V131.698L141.275 154.218Z" fill="#D0D0D0" stroke="white" stroke-width="0.5"/>
<path d="M141.275 116.622V110.188L178.338 87.4468V94.1023L141.275 116.622Z" fill="#D0D0D0" stroke="white" stroke-width="0.5"/>
<path d="M141.275 166.621V160.187L170.659 142.762V149.418L141.275 166.621Z" fill="#D0D0D0" stroke="white" stroke-width="0.5"/>
<path d="M141.275 179.518V173.084L170.659 155.659V162.315L141.275 179.518Z" fill="#D0D0D0" stroke="white" stroke-width="0.5"/>
<ellipse cx="184.173" cy="144.426" rx="10.3067" ry="14.3791" transform="rotate(18.9017 184.173 144.426)" fill="white"/>
<path d="M178.287 147.386L183.015 152.265L189.267 137.244" stroke="black" stroke-width="0.5"/>
<defs>
<filter id="filter0_d_561_1403" x="214.797" y="144.837" width="49.5723" height="69.6011" filterUnits="userSpaceOnUse" color-interpolation-filters="sRGB">
<feFlood flood-opacity="0" result="BackgroundImageFix"/>
<feColorMatrix in="SourceAlpha" type="matrix" values="0 0 0 0 0 0 0 0 0 0 0 0 0 0 0 0 0 0 127 0" result="hardAlpha"/>
<feOffset/>
<feGaussianBlur stdDeviation="10"/>
<feComposite in2="hardAlpha" operator="out"/>
<feColorMatrix type="matrix" values="0 0 0 0 1 0 0 0 0 1 0 0 0 0 1 0 0 0 1 0"/>
<feBlend mode="normal" in2="BackgroundImageFix" result="effect1_dropShadow_561_1403"/>
<feBlend mode="normal" in="SourceGraphic" in2="effect1_dropShadow_561_1403" result="shape"/>
</filter>
<filter id="filter1_d_561_1403" x="0.304688" y="152.123" width="66.8691" height="72.7886" filterUnits="userSpaceOnUse" color-interpolation-filters="sRGB">
<feFlood flood-opacity="0" result="BackgroundImageFix"/>
<feColorMatrix in="SourceAlpha" type="matrix" values="0 0 0 0 0 0 0 0 0 0 0 0 0 0 0 0 0 0 127 0" result="hardAlpha"/>
<feOffset/>
<feGaussianBlur stdDeviation="10"/>
<feComposite in2="hardAlpha" operator="out"/>
<feColorMatrix type="matrix" values="0 0 0 0 1 0 0 0 0 1 0 0 0 0 1 0 0 0 1 0"/>
<feBlend mode="normal" in2="BackgroundImageFix" result="effect1_dropShadow_561_1403"/>
<feBlend mode="normal" in="SourceGraphic" in2="effect1_dropShadow_561_1403" result="shape"/>
</filter>
<filter id="filter2_d_561_1403" x="38.5566" y="178.991" width="47.2871" height="57.3052" filterUnits="userSpaceOnUse" color-interpolation-filters="sRGB">
<feFlood flood-opacity="0" result="BackgroundImageFix"/>
<feColorMatrix in="SourceAlpha" type="matrix" values="0 0 0 0 0 0 0 0 0 0 0 0 0 0 0 0 0 0 127 0" result="hardAlpha"/>
<feOffset/>
<feGaussianBlur stdDeviation="10"/>
<feComposite in2="hardAlpha" operator="out"/>
<feColorMatrix type="matrix" values="0 0 0 0 1 0 0 0 0 1 0 0 0 0 1 0 0 0 1 0"/>
<feBlend mode="normal" in2="BackgroundImageFix" result="effect1_dropShadow_561_1403"/>
<feBlend mode="normal" in="SourceGraphic" in2="effect1_dropShadow_561_1403" result="shape"/>
</filter>
<filter id="filter3_f_561_1403" x="38.5059" y="114.811" width="137.855" height="86.542" filterUnits="userSpaceOnUse" color-interpolation-filters="sRGB">
<feFlood flood-opacity="0" result="BackgroundImageFix"/>
<feBlend mode="normal" in="SourceGraphic" in2="BackgroundImageFix" result="shape"/>
<feGaussianBlur stdDeviation="5" result="effect1_foregroundBlur_561_1403"/>
</filter>
</defs>
</svg>
