<svg width="296" height="221" viewBox="0 0 296 221" fill="none" xmlns="http://www.w3.org/2000/svg">
<path d="M162.618 201.685C151.743 207.382 142.938 207.9 132.062 201.685L23.8205 136.947C19.6773 132.804 19.1684 127.111 23.8206 124.517L132.062 60.2974C142.42 54.0827 151.742 54.6006 162.618 60.2974L265.163 119.856C277.593 126.589 273.967 133.84 263.092 141.09L162.618 201.685Z" fill="#CECECE" stroke="#CECECE" stroke-width="0.5"/>
<g filter="url(#filter0_d_561_4932)">
<path d="M268.27 121.928C275.302 128.719 273.606 132.845 264.127 140.572V155.592L272.413 150.93C274.708 148.872 275.084 147.457 275.003 144.716V133.322C274.93 126.538 273.046 124.417 268.27 121.928Z" fill="white"/>
</g>
<g filter="url(#filter1_d_561_4932)">
<path d="M50.7516 152.484V167.503L23.3027 150.93C20.7132 148.858 20.1954 146.787 20.1953 143.162V130.214C21.2311 132.804 22.7848 135.911 24.3385 136.429L50.7516 152.484Z" fill="white"/>
</g>
<g filter="url(#filter2_d_561_4932)">
<path d="M63.6992 175.271V160.77L71.9857 165.949V180.45L63.6992 175.271Z" fill="white"/>
</g>
<path d="M50.75 167.503L131.543 216.186M131.543 216.186V201.497M131.543 216.186C140.958 221.91 153.295 221.883 162.617 216.186M162.617 216.186L164.986 214.772M162.617 216.186V214.114M162.617 201.685V205.31M251.178 163.32L264.126 140.572V144.715M251.178 163.32L254.804 161.156M251.178 163.32L247.641 165.431M254.804 161.156L264.126 144.715M254.804 161.156L258.429 158.992M264.126 144.715V148.341M264.126 148.341L258.429 158.992M264.126 148.341V151.966M258.429 158.992L261.277 157.292M261.277 157.292L264.126 155.591V151.966M261.277 157.292L264.126 151.966M247.641 165.431L259.983 143.162M247.641 165.431L244.446 167.339M244.446 167.339L255.839 145.751M244.446 167.339L240.302 169.812M240.302 169.812L250.66 148.858M240.302 169.812L236.159 172.286M236.159 172.286L245.999 151.448M236.159 172.286L232.534 174.45M232.534 174.45L241.338 154.037M232.534 174.45L228.098 177.098M228.098 177.098L236.677 157.145M228.098 177.098L223.349 179.933M223.349 179.933L232.016 159.734M223.349 179.933L219.586 182.179M219.586 182.179L227.355 162.842M219.586 182.179L215.961 184.343M215.961 184.343L223.349 164.913M215.961 184.343L212.336 186.507M212.336 186.507L218.55 168.021M212.336 186.507L208.6 188.737M208.6 188.737L214.407 170.61M208.6 188.737L205.085 190.835M205.085 190.835L210.264 173.2M205.085 190.835L201.978 192.69M201.978 192.69L206.121 175.789M201.978 192.69L198.352 194.854M198.352 194.854L201.978 177.861M198.352 194.854L193.85 197.541M193.85 197.541L198.352 179.933M193.85 197.541L189.548 200.11M189.548 200.11L193.85 182.791M189.548 200.11L185.174 202.72M185.174 202.72L189.548 185.63M185.174 202.72L180.836 205.31M180.836 205.31C180.762 204.896 183.851 193.743 185.405 188.219M180.836 205.31L176.082 208.148M176.082 208.148L180.226 191.326M176.082 208.148L172.161 210.489M172.161 210.489L176.6 193.398M172.161 210.489L168.314 212.785M168.314 212.785L172.457 195.988M168.314 212.785L164.986 214.772M164.986 214.772L168.832 198.059M162.617 214.114L165.724 200.11M162.617 214.114V205.31M162.617 205.31L163.653 201.167" stroke="#CECECE" stroke-width="0.5"/>
<g filter="url(#filter3_f_561_4932)">
<ellipse cx="148.739" cy="129.185" rx="61.8556" ry="20.4438" transform="rotate(-28.171 148.739 129.185)" fill="#7A7A7A"/>
</g>
<path d="M117.434 24.3195C97.4749 35.5248 85.131 53.6411 84.8688 84.5482M84.8688 84.5482L98.8755 91.5515M84.8688 84.5482C79.2662 91.5515 74.0137 97.8545 74.0137 111.861" stroke="white" stroke-width="0.5"/>
<g filter="url(#filter4_d_561_4932)">
<path d="M73.6646 110.811L86.2706 117.814C85.5527 128.381 90.1229 136.023 98.1768 137.774C97.01 138.264 95.7256 138.124 93.9748 137.424L79.6175 129.02C74.0152 126.218 73.3148 118.865 73.6646 110.811Z" fill="white"/>
</g>
<g filter="url(#filter5_d_561_4932)">
<path d="M197.975 23.6189C195.662 22.5153 194.721 22.516 193.072 22.5684C195.294 27.7942 195.202 30.4703 194.671 35.1744C206.128 29.5677 209.563 30.9047 214.432 35.1744C212.07 31.4963 207.577 28.7814 197.975 23.6189Z" fill="white"/>
</g>
<path d="M175.563 25.0204C182.301 20.5817 190.62 22.9178 188.519 34.4749M198.324 39.7258C204.977 34.4749 211.63 37.6248 211.63 47.0793M144.398 26.4194C149.704 19.8491 152.643 16.1445 161.206 11.3622C167.293 8.01919 170.394 8.3217 175.563 11.3622L186.068 17.3155" stroke="white" stroke-width="0.5"/>
<g filter="url(#filter6_d_561_4932)">
<path d="M116.385 24.3201L130.041 33.0733C142.82 26.7486 150.351 28.1718 157.354 37.2761C154.108 32.0294 149.913 29.0282 139.846 23.6188C131.322 18.5893 125.752 20.209 116.385 24.3201Z" fill="white"/>
</g>
<path d="M157.355 37.6223C138.096 8.55835 92.5739 60.7337 98.8767 91.548C87.6715 105.907 81.7186 122.365 90.8231 133.57C95.3752 138.823 102.379 138.823 110.082 133.57L127.24 123.766C119.095 109 125.139 80.6951 144.749 66.3382C163.658 51.281 192.722 58.6345 187.119 88.3987C224.237 74.0419 227.388 16.6145 194.823 35.1712C197.974 8.91039 169.26 12.0621 157.355 37.6223Z" fill="#CECECE" stroke="white" stroke-width="0.5"/>
<path d="M164.36 63.8769C131.444 76.833 118.138 140.563 152.805 133.21C189.222 123.766 202.878 50.9318 164.36 63.8769Z" fill="white" stroke="white" stroke-width="0.5"/>
<path d="M149.653 91.9032C154.555 84.1991 160.858 78.9465 169.612 79.9975M145.801 104.159C151.585 89.1015 167.861 78.2463 173.464 88.4011M149.653 117.465C143.7 104.159 162.259 79.2968 170.312 92.6031C172.063 96.455 171.363 100.307 168.211 102.758C165.76 104.664 164.009 104.159 163.309 101.007C162.609 96.8051 159.457 96.455 157.706 99.9566C155.08 105.209 155.956 112.563 163.659 113.263M167.511 100.657C167.511 93.6536 163.961 92.0187 159.107 95.0543C151.753 99.6542 150.703 112.212 156.656 117.465M168.912 106.96C161.208 111.512 158.407 107.31 159.807 101.707" stroke="#505050"/>
<path d="M141.247 132.521C133.024 128.321 127.59 126.218 124.438 116.763C121.637 102.407 126.539 86.9992 134.593 76.8444C143.442 65.687 150.701 61.437 161.556 58.9858" stroke="white" stroke-width="0.5"/>
<path d="M126.539 111.86L129.691 113.261M126.539 106.257L130.741 108.008M128.29 100.304L132.142 102.055M129.691 94.0015L133.542 96.1025" stroke="white" stroke-width="0.5"/>
<path d="M132.143 87.6981C132.423 88.2584 134.827 89.3322 135.994 89.7991M135.994 83.1459L139.146 84.8968M137.745 78.2436L140.897 80.6948M142.648 74.7419L145.099 76.8429" stroke="white" stroke-width="0.5"/>
<g filter="url(#filter7_d_561_4932)">
<path d="M165.057 63.5367L158.404 59.3347C162.539 57.9956 165.057 57.9352 168.909 58.2849C174.862 58.8252 178.619 62.1973 180.815 64.2384C176.613 62.4876 170.759 62.3091 165.057 63.5367Z" fill="white"/>
</g>
<defs>
<filter id="filter0_d_561_4932" x="244.127" y="101.928" width="50.8867" height="73.6637" filterUnits="userSpaceOnUse" color-interpolation-filters="sRGB">
<feFlood flood-opacity="0" result="BackgroundImageFix"/>
<feColorMatrix in="SourceAlpha" type="matrix" values="0 0 0 0 0 0 0 0 0 0 0 0 0 0 0 0 0 0 127 0" result="hardAlpha"/>
<feOffset/>
<feGaussianBlur stdDeviation="10"/>
<feComposite in2="hardAlpha" operator="out"/>
<feColorMatrix type="matrix" values="0 0 0 0 1 0 0 0 0 1 0 0 0 0 1 0 0 0 1 0"/>
<feBlend mode="normal" in2="BackgroundImageFix" result="effect1_dropShadow_561_4932"/>
<feBlend mode="normal" in="SourceGraphic" in2="effect1_dropShadow_561_4932" result="shape"/>
</filter>
<filter id="filter1_d_561_4932" x="0.195312" y="110.214" width="70.5566" height="77.2889" filterUnits="userSpaceOnUse" color-interpolation-filters="sRGB">
<feFlood flood-opacity="0" result="BackgroundImageFix"/>
<feColorMatrix in="SourceAlpha" type="matrix" values="0 0 0 0 0 0 0 0 0 0 0 0 0 0 0 0 0 0 127 0" result="hardAlpha"/>
<feOffset/>
<feGaussianBlur stdDeviation="10"/>
<feComposite in2="hardAlpha" operator="out"/>
<feColorMatrix type="matrix" values="0 0 0 0 1 0 0 0 0 1 0 0 0 0 1 0 0 0 1 0"/>
<feBlend mode="normal" in2="BackgroundImageFix" result="effect1_dropShadow_561_4932"/>
<feBlend mode="normal" in="SourceGraphic" in2="effect1_dropShadow_561_4932" result="shape"/>
</filter>
<filter id="filter2_d_561_4932" x="43.6992" y="140.77" width="48.2871" height="59.6803" filterUnits="userSpaceOnUse" color-interpolation-filters="sRGB">
<feFlood flood-opacity="0" result="BackgroundImageFix"/>
<feColorMatrix in="SourceAlpha" type="matrix" values="0 0 0 0 0 0 0 0 0 0 0 0 0 0 0 0 0 0 127 0" result="hardAlpha"/>
<feOffset/>
<feGaussianBlur stdDeviation="10"/>
<feComposite in2="hardAlpha" operator="out"/>
<feColorMatrix type="matrix" values="0 0 0 0 1 0 0 0 0 1 0 0 0 0 1 0 0 0 1 0"/>
<feBlend mode="normal" in2="BackgroundImageFix" result="effect1_dropShadow_561_4932"/>
<feBlend mode="normal" in="SourceGraphic" in2="effect1_dropShadow_561_4932" result="shape"/>
</filter>
<filter id="filter3_f_561_4932" x="77.3535" y="78.864" width="142.77" height="100.641" filterUnits="userSpaceOnUse" color-interpolation-filters="sRGB">
<feFlood flood-opacity="0" result="BackgroundImageFix"/>
<feBlend mode="normal" in="SourceGraphic" in2="BackgroundImageFix" result="shape"/>
<feGaussianBlur stdDeviation="8" result="effect1_foregroundBlur_561_4932"/>
</filter>
<filter id="filter4_d_561_4932" x="53.5898" y="90.8109" width="64.5859" height="67.2529" filterUnits="userSpaceOnUse" color-interpolation-filters="sRGB">
<feFlood flood-opacity="0" result="BackgroundImageFix"/>
<feColorMatrix in="SourceAlpha" type="matrix" values="0 0 0 0 0 0 0 0 0 0 0 0 0 0 0 0 0 0 127 0" result="hardAlpha"/>
<feOffset/>
<feGaussianBlur stdDeviation="10"/>
<feComposite in2="hardAlpha" operator="out"/>
<feColorMatrix type="matrix" values="0 0 0 0 1 0 0 0 0 1 0 0 0 0 1 0 0 0 1 0"/>
<feBlend mode="normal" in2="BackgroundImageFix" result="effect1_dropShadow_561_4932"/>
<feBlend mode="normal" in="SourceGraphic" in2="effect1_dropShadow_561_4932" result="shape"/>
</filter>
<filter id="filter5_d_561_4932" x="173.072" y="2.55127" width="61.3594" height="52.623" filterUnits="userSpaceOnUse" color-interpolation-filters="sRGB">
<feFlood flood-opacity="0" result="BackgroundImageFix"/>
<feColorMatrix in="SourceAlpha" type="matrix" values="0 0 0 0 0 0 0 0 0 0 0 0 0 0 0 0 0 0 127 0" result="hardAlpha"/>
<feOffset/>
<feGaussianBlur stdDeviation="10"/>
<feComposite in2="hardAlpha" operator="out"/>
<feColorMatrix type="matrix" values="0 0 0 0 1 0 0 0 0 1 0 0 0 0 1 0 0 0 1 0"/>
<feBlend mode="normal" in2="BackgroundImageFix" result="effect1_dropShadow_561_4932"/>
<feBlend mode="normal" in="SourceGraphic" in2="effect1_dropShadow_561_4932" result="shape"/>
</filter>
<filter id="filter6_d_561_4932" x="96.3848" y="0.487549" width="80.9688" height="56.7886" filterUnits="userSpaceOnUse" color-interpolation-filters="sRGB">
<feFlood flood-opacity="0" result="BackgroundImageFix"/>
<feColorMatrix in="SourceAlpha" type="matrix" values="0 0 0 0 0 0 0 0 0 0 0 0 0 0 0 0 0 0 127 0" result="hardAlpha"/>
<feOffset/>
<feGaussianBlur stdDeviation="10"/>
<feComposite in2="hardAlpha" operator="out"/>
<feColorMatrix type="matrix" values="0 0 0 0 1 0 0 0 0 1 0 0 0 0 1 0 0 0 1 0"/>
<feBlend mode="normal" in2="BackgroundImageFix" result="effect1_dropShadow_561_4932"/>
<feBlend mode="normal" in="SourceGraphic" in2="effect1_dropShadow_561_4932" result="shape"/>
</filter>
<filter id="filter7_d_561_4932" x="138.404" y="38.1036" width="62.4102" height="46.1348" filterUnits="userSpaceOnUse" color-interpolation-filters="sRGB">
<feFlood flood-opacity="0" result="BackgroundImageFix"/>
<feColorMatrix in="SourceAlpha" type="matrix" values="0 0 0 0 0 0 0 0 0 0 0 0 0 0 0 0 0 0 127 0" result="hardAlpha"/>
<feOffset/>
<feGaussianBlur stdDeviation="10"/>
<feComposite in2="hardAlpha" operator="out"/>
<feColorMatrix type="matrix" values="0 0 0 0 1 0 0 0 0 1 0 0 0 0 1 0 0 0 1 0"/>
<feBlend mode="normal" in2="BackgroundImageFix" result="effect1_dropShadow_561_4932"/>
<feBlend mode="normal" in="SourceGraphic" in2="effect1_dropShadow_561_4932" result="shape"/>
</filter>
</defs>
</svg>
