<svg width="288" height="265" fill="none" xmlns="http://www.w3.org/2000/svg"><path d="M158.613 246.081c-10.585 5.544-19.154 6.048-29.739 0L23.529 183.075c-4.033-4.032-4.528-9.573 0-12.097l105.345-62.502c10.081-6.048 19.154-5.544 29.739 0l99.801 57.966c12.097 6.552 8.569 13.609-2.016 20.665l-97.785 58.974Z" fill="#CECECE" stroke="#fff" stroke-width=".5"/><g opacity=".5" filter="url(#a)"><path d="M113.864 105.919c8.086-5.036 17.124-5.52 27.372-4.056 12.897 1.843 24.727 7.993 35.27 15.646l11.397 8.273c24.977 18.13 41.976 52.131 16.175 69.068-33.45 21.959-91.782 23.355-100.094 17.467L66.932 190.2a23.311 23.311 0 0 1-9.825-28.342l1.12-2.931a40.309 40.309 0 0 1 11.867-16.587l43.77-36.421Z" fill="#7A7A7A"/></g><g filter="url(#b)"><path d="M261.438 168.456c6.843 6.61 5.193 10.625-4.032 18.146v14.617l8.064-4.536c2.233-2.004 2.6-3.38 2.52-6.049v-11.089c-.071-6.602-1.904-8.666-6.552-11.089Z" fill="#fff"/></g><g filter="url(#c)"><path d="M49.739 198.196v14.618l-26.715-16.13c-2.52-2.016-3.024-4.032-3.024-7.56v-12.602c1.008 2.521 2.52 5.545 4.032 6.049l25.707 15.625Z" fill="#fff"/></g><g filter="url(#d)"><path d="M62.34 220.373V206.26l8.065 5.04v14.113l-8.065-5.04Z" fill="#fff"/></g><path d="m49.739 212.813 78.631 47.38m0 0v-14.296m0 14.296c9.163 5.571 21.17 5.545 30.242 0m0 0 2.306-1.376m-2.306 1.376v-2.016m0-12.097v3.528m86.192-40.866 12.601-22.139v4.032m-12.601 18.107 3.528-2.106m-3.528 2.106-3.442 2.055m6.97-4.161 9.073-16.001m-9.073 16.001 3.529-2.106m5.544-13.895v3.528m0 0-5.544 10.367m5.544-10.367v3.529m-5.544 6.838 2.772-1.655m0 0 2.772-1.655v-3.528m-2.772 5.183 2.772-5.183m-16.043 13.105 12.011-21.674m-12.011 21.674-3.11 1.856m0 0 11.089-21.01m-11.089 21.01-4.033 2.408m0 0 10.081-20.394m-10.081 20.394-4.032 2.407m0 0 9.577-20.281m-9.577 20.281-3.529 2.106m0 0 8.569-19.866m-8.569 19.866-4.317 2.577m0 0 8.35-19.419m-8.35 19.419-4.622 2.759m0 0 8.435-19.658m-8.435 19.658-3.662 2.186m0 0 7.561-18.82m-7.561 18.82-3.528 2.106m0 0 7.19-18.909m-7.19 18.909-3.528 2.106m0 0 6.048-17.991m-6.048 17.991-3.636 2.171m0 0 5.652-17.642m-5.652 17.642-3.421 2.042m0 0 5.041-17.164m-5.041 17.164-3.024 1.805m0 0 4.032-16.448m-4.032 16.448-3.529 2.106m0 0 3.529-16.538m-3.529 16.538-4.381 2.616m0 0 4.381-17.138m-4.381 17.138-4.187 2.499m0 0 4.187-16.855m-4.187 16.855-4.257 2.541m0 0 4.257-16.634m-4.257 16.634-4.222 2.52m0 0c-.072-.403 2.934-11.257 4.446-16.633m-4.446 16.633-4.626 2.762m0 0 4.032-16.371m-4.032 16.371-3.817 2.279m0 0 4.321-16.634m-4.321 16.634-3.744 2.234m0 0 4.032-16.348m-4.032 16.348-3.239 1.934m0 0 3.743-16.265m-6.049 15.625 3.025-13.63m-3.025 13.63v-8.569m0 0 1.008-4.032" stroke="#fff" stroke-width=".5"/><g filter="url(#e)"><ellipse cx="134.852" cy="189.973" rx="38.617" ry="23.571" transform="rotate(11.846 134.852 189.973)" fill="#7A7A7A"/></g><g filter="url(#f)"><ellipse cx="164.944" cy="155.872" rx="38.617" ry="23.571" transform="rotate(11.846 164.944 155.872)" fill="#7A7A7A"/></g><path d="M166.443 166.5c8.002 7.305 40.107 10.316 50.152-3.511m1.505 7.523c-13.541 13.04-29.089 13.541-44.636 9.027M177.477 164.995v4.514m5.015-3.511v3.511m5.015-2.508v2.508m4.514-2.508v3.01m5.015-3.511v3.511m5.015-4.013v3.009m4.514-4.513v3.009m5.517-4.514v2.006M176.976 174.025v5.015m5.015-4.012v4.513m5.015-4.012v4.012m5.015-3.009v3.009m5.015-3.009v2.508m4.514-3.511v2.508m4.514-3.009v1.504m5.015-3.511v1.004" stroke="#fff" stroke-width=".5"/><g filter="url(#g)"><path d="M169.453 171.515v-12.538l3.009 1.504v16.049l-3.009-5.015Z" fill="#fff"/></g><path d="M144.107 118.355c-.055 10.102-12.068 20.562-33.333 20.562-20.456 0-30.98-9.448-31.395-19.057m64.728-1.505c.052-9.434-10.325-18.556-33.333-18.557-21.425 0-31.824 10.118-31.395 20.062m64.728-1.505v23.07M79.379 119.86v24.574m35.408 26.581c-29.59-2.006-35.408-12.036-35.408-20.061 0 10.579 1.274 18.262 8.828 22.93m22.066 5.155c-.683-.037-1.352-.079-2.006-.126m-15.045-16.424c-11.165-7.912-9.53-19.559 2.006-23.572m-12.037 3.01c13.541-12.538 42.629-14.544 56.672 0m-9.027-1.505c9.027 6.019 9.916 13.479 2.507 20.061m10.764-9.529v4.012m0 7.523v-7.523m-5.247 7.523c2.555-2.709 3.733-4.343 5.247-7.523m-55.9 16.049v2.869m0 0c1.434.886 3.094 1.664 5.015 2.332m0-4.198v4.198m0 0a41.11 41.11 0 0 0 5.015 1.369m0-3.701v3.701m0 0c1.544.326 3.213.604 5.015.835m0-4.536v4.536m0 0c1.568.2 3.238.365 5.015.493m0-3.886v3.886m12.741-102.184c-1.174-10.202 10.259-21.063 33.399-21.063 20.487 0 31.025 9.822 31.034 19.559m-64.433 1.504c1.039 9.035 11.965 17.554 33.399 17.554 20.881 0 31.043-9.488 31.034-19.058m-64.433 1.504v17.554m64.433-19.058v49.149m-43.07-84.757c-22.126 0-33.561-10.162-33.291-20.06M164.939 34.1c5.538-3.692 8.549-8.619 8.864-13.54m0 0C174.43 10.77 164.396 1 142.371 1c-22.227 0-33.034 9.16-33.291 18.556m64.723 1.003c0 10.03.665 12.037-3.849 18.055-13.039 12.538-41.626 15.046-57.675 0-3.199-4.514-3.199-8.024-3.199-19.058M130.334 202.108v5.015m4.514-3.511v5.015m5.015-4.012v3.511m5.016-3.511v3.511m5.015-4.012v3.51m4.513-3.51v3.009m5.016-4.012v2.006m4.513-4.013v1.004M170.455 198.597c-9.801 13.068-35.239 15.278-51.656 6.628" stroke="#fff" stroke-width=".5"/><g filter="url(#h)" fill="#fff"><path d="M122.309 206.623v-8.526c1.003.502 1.772.868 3.009 1.003v9.027c-1.349-.408-2.021-.731-3.009-1.504ZM169.452 201.106v-9.027c3.178-3.774 4.119-6.171 4.514-10.532v12.036c0 3.009-1.757 4.781-4.514 7.523Z"/></g><g filter="url(#i)"><path d="M216.596 172.018v-18.556c3.178-3.775 4.118-6.171 4.513-10.532v12.036c0 3.009 2.508 14.043-4.513 17.052Z" fill="#fff"/></g><path d="M190.016 124.375c-46.642 0-43.132 38.115 0 38.115 41.123-1.003 41.123-38.115 0-38.115Z" fill="#CECECE" stroke="#fff" stroke-width=".5"/><path d="M199.042 129.39c-31.094-6.52-45.739 14.346-29.59 25.578m13.04 4.011c19.444 2.121 45.137-9.529 25.076-26.079" stroke="#4E4E4E" stroke-width=".5"/><g filter="url(#j)"><path d="M155.911 163.994v-20.562c1.101 7.705 4.267 10.385 10.532 14.544v11.033c-4.062-2.816-6.377-3.813-10.532-5.015Z" fill="#fff"/></g><path d="M141.87 162.487c-43.018.079-42.033 38.691 0 38.617 42.032-.073 41.625-38.693 0-38.617Z" fill="#CECECE" stroke="#fff" stroke-width=".5"/><path d="M151.9 167.506c-30.594-7.524-46.642 14.543-29.59 25.578M160.425 171.015c16.049 11.535 1.883 28.088-25.076 26.079" stroke="#4E4E4E" stroke-width=".5"/><g filter="url(#k)"><path d="M109.771 195.59c-.501-4.513-1.002-8.525-.501-15.045.001 7.021 2.894 9.88 9.528 15.547v9.529c-5.358-3.285-6.884-5.12-9.027-10.031Z" fill="#fff"/></g><defs><filter id="f" x="116.836" y="121.472" width="96.214" height="68.801" filterUnits="userSpaceOnUse" color-interpolation-filters="sRGB"><feFlood flood-opacity="0" result="BackgroundImageFix"/><feBlend in="SourceGraphic" in2="BackgroundImageFix" result="shape"/><feGaussianBlur stdDeviation="5" result="effect1_foregroundBlur_512_1379"/></filter><filter id="a" x="39.569" y="85.141" width="193.364" height="146.157" filterUnits="userSpaceOnUse" color-interpolation-filters="sRGB"><feFlood flood-opacity="0" result="BackgroundImageFix"/><feBlend in="SourceGraphic" in2="BackgroundImageFix" result="shape"/><feGaussianBlur stdDeviation="8" result="effect1_foregroundBlur_512_1379"/></filter><filter id="c" x="0" y="156.522" width="69.739" height="76.291" filterUnits="userSpaceOnUse" color-interpolation-filters="sRGB"><feFlood flood-opacity="0" result="BackgroundImageFix"/><feColorMatrix in="SourceAlpha" values="0 0 0 0 0 0 0 0 0 0 0 0 0 0 0 0 0 0 127 0" result="hardAlpha"/><feOffset/><feGaussianBlur stdDeviation="10"/><feComposite in2="hardAlpha" operator="out"/><feColorMatrix values="0 0 0 0 1 0 0 0 0 1 0 0 0 0 1 0 0 0 1 0"/><feBlend in2="BackgroundImageFix" result="effect1_dropShadow_512_1379"/><feBlend in="SourceGraphic" in2="effect1_dropShadow_512_1379" result="shape"/></filter><filter id="d" x="42.34" y="186.26" width="48.065" height="59.153" filterUnits="userSpaceOnUse" color-interpolation-filters="sRGB"><feFlood flood-opacity="0" result="BackgroundImageFix"/><feColorMatrix in="SourceAlpha" values="0 0 0 0 0 0 0 0 0 0 0 0 0 0 0 0 0 0 127 0" result="hardAlpha"/><feOffset/><feGaussianBlur stdDeviation="10"/><feComposite in2="hardAlpha" operator="out"/><feColorMatrix values="0 0 0 0 1 0 0 0 0 1 0 0 0 0 1 0 0 0 1 0"/><feBlend in2="BackgroundImageFix" result="effect1_dropShadow_512_1379"/><feBlend in="SourceGraphic" in2="effect1_dropShadow_512_1379" result="shape"/></filter><filter id="e" x="86.745" y="155.573" width="96.214" height="68.801" filterUnits="userSpaceOnUse" color-interpolation-filters="sRGB"><feFlood flood-opacity="0" result="BackgroundImageFix"/><feBlend in="SourceGraphic" in2="BackgroundImageFix" result="shape"/><feGaussianBlur stdDeviation="5" result="effect1_foregroundBlur_512_1379"/></filter><filter id="b" x="237.406" y="148.456" width="50.595" height="72.763" filterUnits="userSpaceOnUse" color-interpolation-filters="sRGB"><feFlood flood-opacity="0" result="BackgroundImageFix"/><feColorMatrix in="SourceAlpha" values="0 0 0 0 0 0 0 0 0 0 0 0 0 0 0 0 0 0 127 0" result="hardAlpha"/><feOffset/><feGaussianBlur stdDeviation="10"/><feComposite in2="hardAlpha" operator="out"/><feColorMatrix values="0 0 0 0 1 0 0 0 0 1 0 0 0 0 1 0 0 0 1 0"/><feBlend in2="BackgroundImageFix" result="effect1_dropShadow_512_1379"/><feBlend in="SourceGraphic" in2="effect1_dropShadow_512_1379" result="shape"/></filter><filter id="g" x="149.453" y="138.977" width="43.009" height="57.553" filterUnits="userSpaceOnUse" color-interpolation-filters="sRGB"><feFlood flood-opacity="0" result="BackgroundImageFix"/><feColorMatrix in="SourceAlpha" values="0 0 0 0 0 0 0 0 0 0 0 0 0 0 0 0 0 0 127 0" result="hardAlpha"/><feOffset/><feGaussianBlur stdDeviation="10"/><feComposite in2="hardAlpha" operator="out"/><feColorMatrix values="0 0 0 0 1 0 0 0 0 1 0 0 0 0 1 0 0 0 1 0"/><feBlend in2="BackgroundImageFix" result="effect1_dropShadow_512_1379"/><feBlend in="SourceGraphic" in2="effect1_dropShadow_512_1379" result="shape"/></filter><filter id="h" x="102.309" y="161.547" width="91.656" height="66.58" filterUnits="userSpaceOnUse" color-interpolation-filters="sRGB"><feFlood flood-opacity="0" result="BackgroundImageFix"/><feColorMatrix in="SourceAlpha" values="0 0 0 0 0 0 0 0 0 0 0 0 0 0 0 0 0 0 127 0" result="hardAlpha"/><feOffset/><feGaussianBlur stdDeviation="10"/><feComposite in2="hardAlpha" operator="out"/><feColorMatrix values="0 0 0 0 1 0 0 0 0 1 0 0 0 0 1 0 0 0 1 0"/><feBlend in2="BackgroundImageFix" result="effect1_dropShadow_512_1379"/><feBlend in="SourceGraphic" in2="effect1_dropShadow_512_1379" result="shape"/></filter><filter id="i" x="196.596" y="122.93" width="44.949" height="69.088" filterUnits="userSpaceOnUse" color-interpolation-filters="sRGB"><feFlood flood-opacity="0" result="BackgroundImageFix"/><feColorMatrix in="SourceAlpha" values="0 0 0 0 0 0 0 0 0 0 0 0 0 0 0 0 0 0 127 0" result="hardAlpha"/><feOffset/><feGaussianBlur stdDeviation="10"/><feComposite in2="hardAlpha" operator="out"/><feColorMatrix values="0 0 0 0 1 0 0 0 0 1 0 0 0 0 1 0 0 0 1 0"/><feBlend in2="BackgroundImageFix" result="effect1_dropShadow_512_1379"/><feBlend in="SourceGraphic" in2="effect1_dropShadow_512_1379" result="shape"/></filter><filter id="j" x="135.911" y="123.432" width="50.532" height="65.577" filterUnits="userSpaceOnUse" color-interpolation-filters="sRGB"><feFlood flood-opacity="0" result="BackgroundImageFix"/><feColorMatrix in="SourceAlpha" values="0 0 0 0 0 0 0 0 0 0 0 0 0 0 0 0 0 0 127 0" result="hardAlpha"/><feOffset/><feGaussianBlur stdDeviation="10"/><feComposite in2="hardAlpha" operator="out"/><feColorMatrix values="0 0 0 0 1 0 0 0 0 1 0 0 0 0 1 0 0 0 1 0"/><feBlend in2="BackgroundImageFix" result="effect1_dropShadow_512_1379"/><feBlend in="SourceGraphic" in2="effect1_dropShadow_512_1379" result="shape"/></filter><filter id="k" x="89.063" y="160.545" width="49.736" height="65.076" filterUnits="userSpaceOnUse" color-interpolation-filters="sRGB"><feFlood flood-opacity="0" result="BackgroundImageFix"/><feColorMatrix in="SourceAlpha" values="0 0 0 0 0 0 0 0 0 0 0 0 0 0 0 0 0 0 127 0" result="hardAlpha"/><feOffset/><feGaussianBlur stdDeviation="10"/><feComposite in2="hardAlpha" operator="out"/><feColorMatrix values="0 0 0 0 1 0 0 0 0 1 0 0 0 0 1 0 0 0 1 0"/><feBlend in2="BackgroundImageFix" result="effect1_dropShadow_512_1379"/><feBlend in="SourceGraphic" in2="effect1_dropShadow_512_1379" result="shape"/></filter></defs></svg>