<svg width="491" height="194" viewBox="0 0 491 194" fill="none" xmlns="http://www.w3.org/2000/svg">
<g opacity="0.5">
<path d="M-4157.16 1.21987C-3871.17 -2.35643 -3196.14 8.45194 -2783.99 80.2958C-2371.83 152.14 -1843.17 110.231 -1630.36 80.2958C-1299.92 48.5065 -549.326 10.7567 -190.509 114.072C258.012 243.216 915.305 249.176 1382.68 198.314C1850.06 147.451 2386.12 114.072 2689.19 114.072C3089.22 114.072 3856.29 96.4977 4328.38 198.314C4718.98 282.555 5439.58 232.09 5830.86 198.314C6295.8 158.179 6810.6 47.7117 7313.81 232.09" stroke="white" stroke-width="0.5"/>
<path d="M-4174 433.553C-3974.88 385.869 -3484.52 288.594 -3116 280.964C-2655.36 271.427 -2025 433.553 -1774.48 433.553C-1523.95 433.553 -1136.04 376.332 -772.375 280.964C-408.708 185.596 577.231 185.597 1126.77 309.575C1676.31 433.553 2332.88 423.876 2629.25 347.722C3130.3 218.975 4417.02 32.9307 4787 200.3C5271.89 419.646 5946.02 433.553 6337.3 280.964C6991.15 25.9764 7726.64 219.374 7917.23 309.575" stroke="white" stroke-width="0.5"/>
<path d="M-4157.65 5.63758C-3874.16 0.787989 -3204.47 8.4762 -2793.57 78.0258C-2380.02 147.52 -1848.42 111.501 -1634.52 82.4307C-1306.38 51.5591 -566.262 13.2472 -207.304 110.827C238.768 233.49 905.548 239.278 1375.3 193.463C1845.05 147.647 2384.58 114.952 2687.46 112.754C3090.41 109.037 3872.48 86.5998 4341.62 190.308C4734.95 278.45 5454.2 229.843 5845.48 192.637C6315.87 146.3 6837.05 44.6044 7331.23 226.264" stroke="white" stroke-width="0.5"/>
<path d="M-4158.17 10.6004C-3877.35 4.39481 -3213.33 8.7602 -2803.78 75.8665C-2388.73 142.859 -1854.01 113.113 -1638.95 84.9625C-1313.27 55.0682 -584.299 16.1577 -225.193 107.629C218.27 223.39 895.154 228.995 1367.43 188.555C1839.71 148.114 2382.94 116.148 2685.62 111.609C3091.67 103.934 3889.72 76.3171 4355.72 182.041C4751.94 274.336 5469.77 227.708 5861.05 186.849C6337.25 133.907 6865.21 41.5534 7349.78 220.317" stroke="white" stroke-width="0.5"/>
<path d="M-4158.72 16.1864C-3880.74 8.54211 -3222.74 9.38201 -2814.61 73.8961C-2397.98 138.234 -1859.94 115.143 -1643.65 87.9692C-1320.58 59.1118 -603.439 19.5662 -244.174 104.557C196.521 212.995 884.125 218.405 1359.08 183.668C1834.04 148.93 2381.21 117.738 2683.66 110.714C3093.01 98.8399 3908 65.7278 4370.68 173.59C4769.98 270.292 5486.29 225.763 5877.57 181.029C6359.93 121.079 6895.09 38.6368 7369.46 214.329" stroke="white" stroke-width="0.5"/>
<path d="M-4159.3 22.479C-3884.31 13.3133 -3232.69 10.425 -2826.06 72.1978C-2407.76 133.729 -1866.21 117.676 -1648.62 91.5342C-1328.31 63.7733 -623.676 23.5561 -264.244 101.694C173.524 202.387 872.464 207.592 1350.25 178.886C1828.04 150.179 2379.37 119.804 2681.59 110.153C3094.43 93.8384 3927.35 54.9152 4386.5 165.038C4789.05 266.401 5503.76 224.092 5895.04 175.26C6383.92 107.899 6926.69 35.938 7390.28 208.382" stroke="white" stroke-width="0.5"/>
<path d="M-4159.91 29.5595C-3888.08 18.7896 -3243.17 11.9705 -2838.14 70.853C-2418.07 129.424 -1872.83 120.792 -1653.86 95.7388C-1336.45 69.1341 -645.014 28.2087 -285.406 99.1206C149.276 191.649 860.168 196.637 1340.95 174.289C1821.72 151.941 2377.43 122.428 2679.41 110.008C3095.92 89.0107 3947.74 43.9605 4403.18 156.468C4809.16 262.744 5522.18 222.777 5913.45 169.623C6409.2 94.4479 6960 33.5383 7412.22 202.557" stroke="white" stroke-width="0.5"/>
<path d="M-4160.55 37.5029C-3892.05 25.0462 -3254.2 14.0936 -2850.83 69.9367C-2428.92 125.396 -1879.78 124.566 -1659.37 100.658C-1345.02 75.269 -667.453 33.599 -307.66 96.9125C123.778 180.855 847.238 185.615 1331.16 169.954C1815.08 154.292 2375.4 125.686 2677.12 110.353C3097.49 84.4321 3969.18 32.939 4420.71 147.953C4830.3 259.396 5541.54 221.891 5932.82 164.193C6435.8 80.8014 6995.03 31.5127 7435.3 196.93" stroke="white" stroke-width="0.5"/>
<path d="M-4161.23 46.3802C-3896.21 32.154 -3265.77 16.8652 -2864.15 69.52C-2440.29 121.714 -1887.07 129.07 -1665.15 106.363C-1354.01 82.2493 -690.989 39.7981 -331.001 95.1408C97.0316 170.076 833.677 174.597 1320.89 165.95C1808.11 157.303 2373.26 129.647 2674.72 111.26C3099.14 80.1734 3991.68 21.9215 4439.12 139.565C4852.49 256.428 5561.86 221.506 5953.14 159.042C6463.7 67.0304 7031.78 29.9323 7459.51 191.571" stroke="white" stroke-width="0.5"/>
<path d="M-4161.94 56.2491C-3900.57 40.1706 -3277.88 20.343 -2878.1 69.6604C-2452.2 118.437 -1894.71 134.361 -1671.21 112.911C-1363.42 90.1324 -715.629 46.8635 -355.437 93.8628C69.0326 159.37 819.479 163.641 1310.15 162.336C1800.81 161.031 2371.03 134.371 2672.2 112.785C3100.87 76.2923 4015.22 10.9657 4458.37 131.362C4875.7 253.899 5583.13 221.68 5974.41 154.226C6492.89 53.1923 7070.25 28.8546 7484.85 186.538" stroke="white" stroke-width="0.5"/>
<path d="M-4162.67 67.1623C-3905.12 49.1489 -3290.53 24.5798 -2892.66 70.4108C-2464.63 115.618 -1902.69 140.492 -1677.53 120.355C-1373.24 98.9713 -741.366 54.8482 -380.962 93.1315C39.7852 148.789 804.649 152.799 1298.92 159.164C1793.19 165.53 2368.69 139.909 2669.57 114.982C3102.67 72.8416 4039.82 0.124402 4478.5 123.397C4899.96 251.86 5605.35 222.465 5996.63 149.8C6523.4 39.3401 7110.44 28.3325 7511.32 181.885" stroke="white" stroke-width="0.5"/>
<path d="M-4163.44 81.3784C-3909.86 61.3474 -3303.72 31.8341 -2907.85 74.0297C-2477.6 115.514 -1911 149.722 -1684.12 130.954C-1383.49 111.024 -768.204 66.0106 -407.578 95.2053C9.28726 140.593 789.185 144.33 1287.21 158.693C1785.24 173.056 2366.26 148.52 2666.83 120.11C3104.55 72.0798 4065.47 -8.34393 4499.47 117.927C4925.25 252.571 5628.52 226.12 6019.79 148.02C6555.21 27.7321 7152.34 30.6245 7538.92 179.869" stroke="white" stroke-width="0.5"/>
<path d="M-4164.25 107.57C-3914.8 85.4384 -3317.45 50.7783 -2923.66 89.1894C-2491.1 126.798 -1919.66 170.722 -1690.98 153.38C-1394.16 134.964 -796.144 89.023 -435.287 108.757C-22.4618 143.453 773.086 146.907 1275.03 169.596C1776.97 192.284 2363.72 168.877 2663.97 136.84C3106.5 82.6793 4092.18 -5.76677 4521.31 123.626C4951.58 264.703 5652.63 241.318 6043.91 157.56C6588.32 27.0409 7195.96 44.403 7567.66 189.163" stroke="white" stroke-width="0.5"/>
<path d="M-4165.08 134.952C-3919.93 110.637 -3331.73 70.6274 -2940.09 105.105C-2505.14 138.686 -1928.66 192.708 -1698.12 176.848C-1405.25 160.005 -825.184 113.101 -464.087 123.001C-55.4619 146.585 756.352 149.744 1262.36 181.086C1768.37 212.429 2361.08 190.194 2661.01 154.388C3108.54 93.8551 4119.93 -2.92927 4544.01 129.708C4978.95 277.472 5677.7 257.273 6068.97 167.634C6622.74 26.4814 7241.3 58.8829 7597.52 198.982" stroke="white" stroke-width="0.5"/>
<path d="M-4165.95 163.511C-3925.26 136.931 -3346.54 91.369 -2957.15 121.764C-2519.7 151.165 -1938 215.668 -1705.52 201.346C-1416.76 186.136 -855.323 138.231 -493.977 137.925C-89.7115 149.976 738.984 152.828 1249.21 193.152C1759.44 233.476 2358.35 212.459 2657.93 172.742C3110.64 105.595 4148.73 0.156288 4567.57 136.161C5007.35 290.865 5703.71 273.973 6094.99 178.231C6658.45 26.0412 7288.35 74.052 7628.51 209.313" stroke="white" stroke-width="0.5"/>
<path d="M-4166.84 193.242C-3930.78 164.313 -3361.9 112.996 -2974.82 139.16C-2534.8 164.227 -1947.69 239.595 -1713.2 226.866C-1428.69 213.349 -886.562 164.407 -524.958 153.522C-125.21 153.62 720.984 156.155 1235.59 205.788C1750.19 255.421 2355.51 235.666 2654.74 191.894C3112.83 117.892 4178.59 3.48309 4591.99 142.978C5036.79 304.876 5730.68 291.411 6121.95 189.343C6695.48 25.7135 7337.13 89.9034 7660.65 220.15" stroke="white" stroke-width="0.5"/>
<path d="M-4167.77 224.135C-3936.5 192.775 -3377.79 135.501 -2993.13 157.284C-2550.43 177.866 -1957.71 264.48 -1721.14 253.401C-1441.04 241.636 -918.902 191.621 -557.03 169.785C-161.959 157.508 702.35 159.714 1221.48 218.984C1740.61 278.254 2352.58 259.806 2651.43 211.836C3115.1 130.738 4209.49 7.0429 4617.27 150.151C5067.26 319.496 5758.59 309.579 6149.87 200.962C6733.81 25.4902 7387.62 106.429 7693.9 231.484" stroke="white" stroke-width="0.5"/>
<path d="M-4168.73 256.184C-3942.41 222.31 -3394.23 158.876 -3012.05 176.13C-2566.59 192.073 -1968.07 290.315 -1729.35 280.943C-1453.81 270.99 -952.34 219.865 -590.192 186.705C-199.958 161.632 683.082 163.498 1206.9 232.734C1730.71 301.969 2349.55 284.871 2648.02 232.561C3117.44 144.125 4241.45 10.8281 4643.41 157.673C5098.78 334.718 5787.46 328.469 6178.73 213.081C6773.44 25.3636 7439.83 123.621 7728.3 243.309" stroke="white" stroke-width="0.5"/>
<path d="M-4169.72 289.38C-3948.51 252.91 -3411.2 183.113 -3031.59 195.688C-2583.28 206.84 -1978.77 317.094 -1737.84 309.484C-1466.99 301.402 -986.88 249.131 -624.446 204.274C-239.207 165.984 663.18 167.5 1191.83 247.028C1720.48 326.556 2346.41 310.854 2644.49 254.061C3119.86 158.045 4274.46 14.8307 4670.41 165.534C5131.33 350.533 5817.27 348.074 6208.55 225.691C6814.37 25.3256 7493.75 141.471 7763.82 255.615" stroke="white" stroke-width="0.5"/>
<path d="M-4170.74 323.721C-3954.81 284.571 -3428.72 208.209 -3051.76 215.956C-2600.5 222.165 -1989.82 344.813 -1746.59 339.021C-1480.6 332.87 -1022.52 279.417 -659.792 222.491C-279.708 170.563 642.643 171.717 1176.29 261.866C1709.93 352.015 2343.18 337.752 2640.85 276.333C3122.35 172.496 4308.52 19.0483 4698.27 173.734C5164.91 366.939 5848.03 368.391 6239.31 238.791C6856.61 25.374 7549.4 159.978 7800.47 268.401" stroke="white" stroke-width="0.5"/>
<path d="M-4171.8 359.2C-3961.31 317.288 -3446.78 234.157 -3072.55 236.928C-2618.25 238.041 -2001.21 373.466 -1755.62 369.548C-1494.63 365.388 -1059.26 310.715 -696.229 241.348C-321.458 175.361 621.472 176.142 1160.26 277.239C1699.05 378.336 2339.84 365.558 2637.09 299.37C3124.92 187.472 4343.64 23.4739 4726.98 182.264C5199.53 383.93 5879.74 389.413 6271.02 252.373C6900.16 25.5016 7606.76 179.133 7838.26 281.659" stroke="white" stroke-width="0.5"/>
<path d="M-4172.88 395.812C-3968 351.055 -3465.38 260.954 -3093.97 258.599C-2636.54 254.463 -2012.93 403.047 -1764.91 401.06C-1509.08 398.95 -1097.1 343.022 -733.756 260.841C-364.458 180.374 599.669 180.77 1143.76 293.144C1687.84 405.517 2336.41 394.268 2633.23 323.168C3127.58 202.966 4379.8 28.1028 4756.56 191.121C5235.19 401.501 5912.41 411.135 6303.69 266.432C6945 25.7039 7665.84 198.933 7877.18 295.385" stroke="white" stroke-width="0.5"/>
</g>
</svg>
