<svg width="491" height="194" viewBox="0 0 491 194" fill="none" xmlns="http://www.w3.org/2000/svg">
<path d="M-9847.16 1.21987C-9561.17 -2.35643 -8886.14 8.45194 -8473.99 80.2958C-8061.83 152.14 -7533.17 110.231 -7320.36 80.2958C-6989.91 48.5065 -6239.32 10.7567 -5880.51 114.072C-5431.99 243.216 -4774.69 249.176 -4307.31 198.314C-3839.94 147.451 -3303.88 114.072 -3000.81 114.072C-2600.78 114.072 -1833.71 96.4977 -1361.62 198.314C-971.014 282.555 -250.416 232.09 140.861 198.314C605.8 158.179 1120.6 47.7117 1623.81 232.09" stroke="#505050" stroke-width="0.5"/>
<path d="M-9864 433.553C-9664.88 385.869 -9174.51 288.594 -8806 280.964C-8345.36 271.427 -7715 433.553 -7464.47 433.553C-7213.95 433.553 -6826.04 376.332 -6462.37 280.964C-6098.71 185.596 -5112.77 185.597 -4563.23 309.575C-4013.69 433.553 -3357.12 423.876 -3060.75 347.722C-2559.7 218.975 -1272.98 32.9307 -902.995 200.3C-418.107 419.646 256.023 433.553 647.301 280.964C1301.16 25.9764 2036.64 219.374 2227.23 309.575" stroke="#505050" stroke-width="0.5"/>
<path d="M-9847.65 5.63758C-9564.16 0.787989 -8894.46 8.4762 -8483.57 78.0258C-8070.01 147.52 -7538.42 111.501 -7324.51 82.4307C-6996.38 51.5591 -6256.26 13.2472 -5897.3 110.827C-5451.23 233.49 -4784.45 239.278 -4314.7 193.463C-3844.95 147.647 -3305.42 114.952 -3002.54 112.754C-2599.59 109.037 -1817.52 86.5998 -1348.38 190.308C-955.05 278.45 -235.794 229.843 155.484 192.637C625.877 146.3 1147.05 44.6044 1641.23 226.264" stroke="#505050" stroke-width="0.5"/>
<path d="M-9848.16 10.6004C-9567.35 4.39481 -8903.33 8.7602 -8493.78 75.8665C-8078.73 142.859 -7544.01 113.113 -7328.95 84.9625C-7003.27 55.0682 -6274.3 16.1577 -5915.19 107.629C-5471.73 223.39 -4794.84 228.995 -4322.57 188.555C-3850.29 148.114 -3307.05 116.148 -3004.38 111.609C-2598.33 103.934 -1800.28 76.3171 -1334.28 182.041C-938.053 274.336 -220.226 227.708 171.052 186.849C647.253 133.907 1175.21 41.5534 1659.78 220.317" stroke="#505050" stroke-width="0.5"/>
<path d="M-9848.71 16.1864C-9570.73 8.54211 -8912.74 9.38201 -8504.61 73.8961C-8087.98 138.234 -7549.94 115.143 -7333.65 87.9692C-7010.58 59.1118 -6293.44 19.5662 -5934.17 104.557C-5493.48 212.995 -4805.87 218.405 -4330.92 183.668C-3855.96 148.93 -3308.79 117.738 -3006.34 110.714C-2596.99 98.8399 -1781.99 65.7278 -1319.32 173.59C-920.02 270.292 -203.708 225.763 187.57 181.029C669.932 121.079 1205.09 38.6368 1679.46 214.329" stroke="#505050" stroke-width="0.5"/>
<path d="M-9849.29 22.479C-9574.31 13.3133 -8922.68 10.425 -8516.06 72.1978C-8097.76 133.729 -7556.21 117.676 -7338.62 91.5342C-7018.3 63.7733 -6313.67 23.5561 -5954.24 101.694C-5516.47 202.387 -4817.53 207.592 -4339.74 178.886C-3861.95 150.179 -3310.63 119.804 -3008.4 110.153C-2595.57 93.8384 -1762.65 54.9152 -1303.5 165.038C-900.948 266.401 -186.239 224.092 205.039 175.26C693.918 107.899 1236.69 35.938 1700.28 208.382" stroke="#505050" stroke-width="0.5"/>
<path d="M-9849.91 29.5595C-9578.08 18.7896 -8933.17 11.9705 -8528.13 70.853C-8108.07 129.424 -7562.82 120.792 -7343.86 95.7388C-7026.45 69.1341 -6335.01 28.2087 -5975.4 99.1206C-5540.72 191.649 -4829.83 196.637 -4349.05 174.289C-3868.27 151.941 -3312.56 122.428 -3010.59 110.008C-2594.08 89.0107 -1742.26 43.9605 -1286.82 156.468C-880.84 262.744 -167.821 222.777 223.457 169.623C719.206 94.4479 1270 33.5383 1722.22 202.557" stroke="#505050" stroke-width="0.5"/>
<path d="M-9850.55 37.5029C-9582.05 25.0462 -8944.2 14.0936 -8540.83 69.9367C-8118.91 125.396 -7569.78 124.566 -7349.37 100.658C-7035.02 75.269 -6357.45 33.599 -5997.66 96.9125C-5566.22 180.855 -4842.76 185.615 -4358.84 169.954C-3874.92 154.292 -3314.6 125.686 -3012.88 110.353C-2592.51 84.4321 -1720.82 32.939 -1269.28 147.953C-859.696 259.396 -148.454 221.891 242.824 164.193C745.798 80.8014 1305.03 31.5127 1745.3 196.93" stroke="#505050" stroke-width="0.5"/>
<path d="M-9851.23 46.3802C-9586.21 32.154 -8955.77 16.8652 -8554.15 69.52C-8130.29 121.714 -7577.07 129.07 -7355.15 106.363C-7044.01 82.2493 -6380.99 39.7981 -6021 95.1408C-5592.97 170.076 -4856.32 174.597 -4369.1 165.95C-3881.89 157.303 -3316.74 129.647 -3015.28 111.26C-2590.86 80.1734 -1698.32 21.9215 -1250.88 139.565C-837.512 256.428 -128.133 221.506 263.144 159.042C773.698 67.0304 1341.79 29.9323 1769.51 191.571" stroke="#505050" stroke-width="0.5"/>
<path d="M-9851.93 56.2491C-9590.56 40.1706 -8967.88 20.343 -8568.09 69.6604C-8142.19 118.437 -7584.71 134.361 -7361.21 112.911C-7053.42 90.1324 -6405.63 46.8635 -6045.43 93.8628C-5620.97 159.37 -4870.52 163.641 -4379.85 162.336C-3889.19 161.031 -3318.97 134.371 -3017.8 112.785C-2589.13 76.2923 -1674.77 10.9657 -1231.62 131.362C-814.295 253.899 -106.868 221.68 284.41 154.226C802.897 53.1923 1380.25 28.8546 1794.85 186.538" stroke="#505050" stroke-width="0.5"/>
<path d="M-9852.67 67.1623C-9595.11 49.1489 -8980.53 24.5798 -8582.66 70.4108C-8154.63 115.618 -7592.68 140.492 -7367.53 120.355C-7063.24 98.9713 -6431.36 54.8482 -6070.96 93.1315C-5650.21 148.789 -4885.35 152.799 -4391.08 159.164C-3896.81 165.53 -3321.31 139.909 -3020.43 114.982C-2587.33 72.8416 -1650.17 0.124402 -1211.5 123.397C-790.038 251.86 -84.6501 222.465 306.628 149.8C833.402 39.3401 1420.44 28.3325 1821.32 181.885" stroke="#505050" stroke-width="0.5"/>
<path d="M-9853.44 81.3784C-9599.86 61.3474 -8993.72 31.8341 -8597.84 74.0297C-8167.6 115.514 -7601 149.722 -7374.12 130.954C-7073.49 111.024 -6458.2 66.0106 -6097.58 95.2053C-5680.71 140.593 -4900.81 144.33 -4402.78 158.693C-3904.75 173.056 -3323.74 148.52 -3023.17 120.11C-2585.45 72.0798 -1624.52 -8.34393 -1190.52 117.927C-764.745 252.571 -61.483 226.12 329.795 148.02C865.211 27.7321 1462.34 30.6245 1848.92 179.869" stroke="#505050" stroke-width="0.5"/>
<path d="M-9854.24 107.57C-9604.8 85.4384 -9007.45 50.7783 -8613.66 89.1894C-8181.1 126.798 -7609.66 170.722 -7380.98 153.38C-7084.16 134.964 -6486.14 89.023 -6125.28 108.757C-5712.46 143.453 -4916.91 146.907 -4414.97 169.596C-3913.03 192.284 -3326.28 168.877 -3026.02 136.84C-2583.49 82.6793 -1597.82 -5.76677 -1168.68 123.626C-738.417 264.703 -37.367 241.318 353.911 157.56C898.323 27.0409 1505.96 44.403 1877.66 189.163" stroke="#505050" stroke-width="0.5"/>
<path d="M-9855.08 134.952C-9609.93 110.637 -9021.73 70.6274 -8630.09 105.105C-8195.14 138.686 -7618.66 192.708 -7388.12 176.848C-7095.25 160.005 -6515.18 113.101 -6154.08 123.001C-5745.46 146.585 -4933.65 149.744 -4427.64 181.086C-3921.63 212.429 -3328.91 190.194 -3028.99 154.388C-2581.46 93.8551 -1570.07 -2.92927 -1145.99 129.708C-711.052 277.472 -12.3028 257.273 378.975 167.634C932.738 26.4814 1551.3 58.8829 1907.52 198.982" stroke="#505050" stroke-width="0.5"/>
<path d="M-9855.94 163.511C-9615.26 136.931 -9036.54 91.369 -8647.15 121.764C-8209.7 151.165 -7628 215.668 -7395.52 201.346C-7106.76 186.136 -6545.32 138.231 -6183.98 137.925C-5779.71 149.976 -4951.01 152.828 -4440.78 193.152C-3930.56 233.476 -3331.65 212.459 -3032.07 172.742C-2579.35 105.595 -1541.27 0.156288 -1122.43 136.161C-682.651 290.865 13.7115 273.973 404.989 178.231C968.456 26.0412 1598.35 74.052 1938.52 209.313" stroke="#505050" stroke-width="0.5"/>
<path d="M-9856.84 193.242C-9620.78 164.313 -9051.89 112.996 -8664.82 139.16C-8224.8 164.227 -7637.68 239.595 -7403.19 226.866C-7118.69 213.349 -6576.56 164.407 -6214.96 153.522C-5815.21 153.62 -4969.01 156.155 -4454.41 205.788C-3939.81 255.421 -3334.48 235.666 -3035.26 191.894C-2577.16 117.892 -1511.41 3.48309 -1098.01 142.978C-653.21 304.876 40.6784 291.411 431.956 189.343C1005.48 25.7135 1647.13 89.9034 1970.65 220.15" stroke="#505050" stroke-width="0.5"/>
<path d="M-9857.77 224.135C-9626.5 192.775 -9067.79 135.501 -8683.12 157.284C-8240.42 177.866 -7647.71 264.48 -7411.14 253.401C-7131.04 241.636 -6608.9 191.621 -6247.03 169.785C-5851.96 157.508 -4987.65 159.714 -4468.52 218.984C-3949.38 278.254 -3337.42 259.806 -3038.57 211.836C-2574.9 130.738 -1480.5 7.0429 -1072.73 150.151C-622.735 319.496 68.5919 309.579 459.87 200.962C1043.81 25.4902 1697.62 106.429 2003.91 231.484" stroke="#505050" stroke-width="0.5"/>
<path d="M-9858.73 256.184C-9632.41 222.31 -9084.22 158.876 -8702.05 176.13C-8256.58 192.073 -7658.07 290.315 -7419.35 280.943C-7143.8 270.99 -6642.34 219.865 -6280.19 186.705C-5889.96 161.632 -5006.92 163.498 -4483.1 232.734C-3959.29 301.969 -3340.45 284.871 -3041.98 232.561C-2572.56 144.125 -1448.54 10.8281 -1046.59 157.673C-591.22 334.718 97.4579 328.469 488.736 213.081C1083.44 25.3636 1749.83 123.621 2038.3 243.309" stroke="#505050" stroke-width="0.5"/>
<path d="M-9859.72 289.38C-9638.51 252.91 -9101.2 183.113 -8721.59 195.688C-8273.27 206.84 -7668.77 317.094 -7427.83 309.484C-7156.99 301.402 -6676.88 249.131 -6314.44 204.274C-5929.21 165.984 -5026.82 167.5 -4498.17 247.028C-3969.51 326.556 -3343.59 310.854 -3045.51 254.061C-2570.14 158.045 -1415.54 14.8307 -1019.59 165.534C-558.672 350.533 127.271 348.074 518.548 225.691C1124.38 25.3256 1803.76 141.471 2073.82 255.615" stroke="#505050" stroke-width="0.5"/>
<path d="M-9860.74 323.721C-9644.81 284.571 -9118.72 208.209 -8741.76 215.956C-8290.5 222.165 -7679.82 344.813 -7436.59 339.021C-7170.6 332.87 -6712.52 279.417 -6349.79 222.491C-5969.71 170.563 -5047.36 171.717 -4513.71 261.866C-3980.07 352.015 -3346.82 337.752 -3049.15 276.333C-2567.65 172.496 -1381.48 19.0483 -991.732 173.734C-525.086 366.939 158.034 368.391 549.312 238.791C1166.62 25.374 1859.4 159.978 2110.48 268.401" stroke="#505050" stroke-width="0.5"/>
<path d="M-9861.79 359.2C-9651.31 317.288 -9136.78 234.157 -8762.55 236.928C-8308.25 238.041 -7691.21 373.466 -7445.62 369.548C-7184.63 365.388 -6749.26 310.715 -6386.23 241.348C-6011.46 175.361 -5068.53 176.142 -4529.74 277.239C-3990.95 378.336 -3350.16 365.558 -3052.9 299.37C-2565.07 187.472 -1346.36 23.4739 -963.013 182.264C-490.464 383.93 189.746 389.413 581.024 252.373C1210.16 25.5016 1916.76 179.133 2148.26 281.659" stroke="#505050" stroke-width="0.5"/>
<path d="M-9862.88 395.812C-9658 351.055 -9155.37 260.954 -8783.96 258.599C-8326.54 254.463 -7702.93 403.047 -7454.91 401.06C-7199.08 398.95 -6787.1 343.022 -6423.75 260.841C-6054.46 180.374 -5090.33 180.77 -4546.24 293.144C-4002.16 405.517 -3353.59 394.268 -3056.77 323.168C-2562.42 202.966 -1310.2 28.1028 -933.434 191.121C-454.803 401.501 222.41 411.135 613.688 266.432C1255.01 25.7039 1975.84 198.933 2187.18 295.385" stroke="#505050" stroke-width="0.5"/>
</svg>
