<svg width="491" height="194" viewBox="0 0 491 194" fill="none" xmlns="http://www.w3.org/2000/svg">
<path d="M-10883.2 1.21987C-10597.2 -2.35643 -9922.22 8.45194 -9510.07 80.2958C-9097.91 152.14 -8569.25 110.231 -8356.44 80.2958C-8025.99 48.5065 -7275.4 10.7567 -6916.59 114.072C-6468.07 243.216 -5810.77 249.176 -5343.39 198.314C-4876.02 147.451 -4339.96 114.072 -4036.89 114.072C-3636.86 114.072 -2869.79 96.4977 -2397.7 198.314C-2007.09 282.555 -1286.5 232.09 -895.219 198.314C-430.28 158.179 84.5248 47.7117 587.731 232.09" stroke="#505050" stroke-width="0.5"/>
<path d="M-10900.1 433.553C-10701 385.869 -10210.6 288.594 -9842.08 280.964C-9381.44 271.427 -8751.08 433.553 -8500.55 433.553C-8250.03 433.553 -7862.12 376.332 -7498.45 280.964C-7134.79 185.596 -6148.85 185.597 -5599.31 309.575C-5049.77 433.553 -4393.2 423.876 -4096.83 347.722C-3595.78 218.975 -2309.06 32.9307 -1939.07 200.3C-1454.19 419.646 -780.057 433.553 -388.779 280.964C265.077 25.9764 1000.56 219.374 1191.15 309.575" stroke="#505050" stroke-width="0.5"/>
<path d="M-10883.7 5.63758C-10600.2 0.787989 -9930.54 8.4762 -9519.65 78.0258C-9106.09 147.52 -8574.5 111.501 -8360.59 82.4307C-8032.46 51.5591 -7292.34 13.2472 -6933.38 110.827C-6487.31 233.49 -5820.53 239.278 -5350.78 193.463C-4881.03 147.647 -4341.5 114.952 -4038.62 112.754C-3635.67 109.037 -2853.6 86.5998 -2384.46 190.308C-1991.13 278.45 -1271.87 229.843 -880.596 192.637C-410.204 146.3 110.972 44.6044 605.153 226.264" stroke="#505050" stroke-width="0.5"/>
<path d="M-10884.2 10.6004C-10603.4 4.39481 -9939.41 8.7602 -9529.86 75.8665C-9114.81 142.859 -8580.09 113.113 -8365.03 84.9625C-8039.35 55.0682 -7310.38 16.1577 -6951.27 107.629C-6507.81 223.39 -5830.92 228.995 -5358.65 188.555C-4886.37 148.114 -4343.13 116.148 -4040.46 111.609C-3634.41 103.934 -2836.36 76.3171 -2370.36 182.041C-1974.13 274.336 -1256.31 227.708 -865.028 186.849C-388.828 133.907 139.133 41.5534 623.703 220.317" stroke="#505050" stroke-width="0.5"/>
<path d="M-10884.8 16.1864C-10606.8 8.54211 -9948.82 9.38201 -9540.69 73.8961C-9124.06 138.234 -8586.02 115.143 -8369.73 87.9692C-8046.66 59.1118 -7329.52 19.5662 -6970.25 104.557C-6529.56 212.995 -5841.95 218.405 -5367 183.668C-4892.04 148.93 -4344.87 117.738 -4042.42 110.714C-3633.07 98.8399 -2818.07 65.7278 -2355.4 173.59C-1956.1 270.292 -1239.79 225.763 -848.51 181.029C-366.148 121.079 169.01 38.6368 643.384 214.329" stroke="#505050" stroke-width="0.5"/>
<path d="M-10885.4 22.479C-10610.4 13.3133 -9958.76 10.425 -9552.14 72.1978C-9133.84 133.729 -8592.29 117.676 -8374.7 91.5342C-8054.38 63.7733 -7349.75 23.5561 -6990.32 101.694C-6552.55 202.387 -5853.61 207.592 -5375.82 178.886C-4898.03 150.179 -4346.71 119.804 -4044.48 110.153C-3631.65 93.8384 -2798.73 54.9152 -2339.58 165.038C-1937.03 266.401 -1222.32 224.092 -831.041 175.26C-342.162 107.899 200.607 35.938 664.198 208.382" stroke="#505050" stroke-width="0.5"/>
<path d="M-10886 29.5595C-10614.2 18.7896 -9969.25 11.9705 -9564.21 70.853C-9144.15 129.424 -8598.9 120.792 -8379.94 95.7388C-8062.53 69.1341 -7371.09 28.2087 -7011.48 99.1206C-6576.8 191.649 -5865.91 196.637 -5385.13 174.289C-4904.35 151.941 -4348.64 122.428 -4046.67 110.008C-3630.16 89.0107 -2778.34 43.9605 -2322.9 156.468C-1916.92 262.744 -1203.9 222.777 -812.623 169.623C-316.874 94.4479 233.922 33.5383 686.143 202.557" stroke="#505050" stroke-width="0.5"/>
<path d="M-10886.6 37.5029C-10618.1 25.0462 -9980.28 14.0936 -9576.91 69.9367C-9154.99 125.396 -8605.86 124.566 -8385.45 100.658C-8071.1 75.269 -7393.53 33.599 -7033.74 96.9125C-6602.3 180.855 -5878.84 185.615 -5394.92 169.954C-4911 154.292 -4350.68 125.686 -4048.96 110.353C-3628.59 84.4321 -2756.9 32.939 -2305.36 147.953C-1895.78 259.396 -1184.53 221.891 -793.256 164.193C-290.282 80.8014 268.954 31.5127 709.219 196.93" stroke="#505050" stroke-width="0.5"/>
<path d="M-10887.3 46.3802C-10622.3 32.154 -9991.85 16.8652 -9590.23 69.52C-9166.37 121.714 -8613.15 129.07 -8391.23 106.363C-8080.09 82.2493 -7417.07 39.7981 -7057.08 95.1408C-6629.05 170.076 -5892.4 174.597 -5405.18 165.95C-4917.97 157.303 -4352.82 129.647 -4051.36 111.26C-3626.94 80.1734 -2734.4 21.9215 -2286.96 139.565C-1873.59 256.428 -1164.21 221.506 -772.936 159.042C-262.382 67.0304 305.706 29.9323 733.43 191.571" stroke="#505050" stroke-width="0.5"/>
<path d="M-10888 56.2491C-10626.6 40.1706 -10004 20.343 -9604.17 69.6604C-9178.27 118.437 -8620.79 134.361 -8397.29 112.911C-8089.5 90.1324 -7441.71 46.8635 -7081.52 93.8628C-6657.05 159.37 -5906.6 163.641 -5415.93 162.336C-4925.27 161.031 -4355.05 134.371 -4053.88 112.785C-3625.21 76.2923 -2710.85 10.9657 -2267.7 131.362C-1850.37 253.899 -1142.95 221.68 -751.67 154.226C-233.183 53.1923 344.172 28.8546 758.767 186.538" stroke="#505050" stroke-width="0.5"/>
<path d="M-10888.8 67.1623C-10631.2 49.1489 -10016.6 24.5798 -9618.74 70.4108C-9190.71 115.618 -8628.76 140.492 -8403.61 120.355C-8099.32 98.9713 -7467.44 54.8482 -7107.04 93.1315C-6686.29 148.789 -5921.43 152.799 -5427.16 159.164C-4932.89 165.53 -4357.39 139.909 -4056.51 114.982C-3623.41 72.8416 -2686.25 0.124402 -2247.58 123.397C-1826.12 251.86 -1120.73 222.465 -729.452 149.8C-202.678 39.3401 384.358 28.3325 785.239 181.885" stroke="#505050" stroke-width="0.5"/>
<path d="M-10889.5 81.3784C-10635.9 61.3474 -10029.8 31.8341 -9633.92 74.0297C-9203.68 115.514 -8637.08 149.722 -8410.2 130.954C-8109.57 111.024 -7494.28 66.0106 -7133.66 95.2053C-6716.79 140.593 -5936.89 144.33 -5438.86 158.693C-4940.83 173.056 -4359.82 148.52 -4059.25 120.11C-3621.53 72.0798 -2660.6 -8.34393 -2226.6 117.927C-1800.83 252.571 -1097.56 226.12 -706.285 148.02C-170.869 27.7321 426.262 30.6245 812.843 179.869" stroke="#505050" stroke-width="0.5"/>
<path d="M-10890.3 107.57C-10640.9 85.4384 -10043.5 50.7783 -9649.74 89.1894C-9217.18 126.798 -8645.74 170.722 -8417.06 153.38C-8120.24 134.964 -7522.22 89.023 -7161.36 108.757C-6748.54 143.453 -5952.99 146.907 -5451.05 169.596C-4949.11 192.284 -4362.36 168.877 -4062.1 136.84C-3619.57 82.6793 -2633.9 -5.76677 -2204.76 123.626C-1774.5 264.703 -1073.45 241.318 -682.169 157.56C-137.757 27.0409 469.883 44.403 841.577 189.163" stroke="#505050" stroke-width="0.5"/>
<path d="M-10891.2 134.952C-10646 110.637 -10057.8 70.6274 -9666.17 105.105C-9231.22 138.686 -8654.74 192.708 -8424.2 176.848C-8131.33 160.005 -7551.26 113.101 -7190.16 123.001C-6781.54 146.585 -5969.73 149.744 -5463.72 181.086C-4957.71 212.429 -4364.99 190.194 -4065.07 154.388C-3617.54 93.8551 -2606.15 -2.92927 -2182.07 129.708C-1747.13 277.472 -1048.38 257.273 -657.105 167.634C-103.342 26.4814 515.219 58.8829 871.441 198.982" stroke="#505050" stroke-width="0.5"/>
<path d="M-10892 163.511C-10651.3 136.931 -10072.6 91.369 -9683.23 121.764C-9245.78 151.165 -8664.08 215.668 -8431.6 201.346C-8142.84 186.136 -7581.4 138.231 -7220.06 137.925C-6815.79 149.976 -5987.09 152.828 -5476.86 193.152C-4966.64 233.476 -4367.73 212.459 -4068.15 172.742C-3615.43 105.595 -2577.35 0.156288 -2158.51 136.161C-1718.73 290.865 -1022.37 273.973 -631.091 178.231C-67.6236 26.0412 562.274 74.052 902.436 209.313" stroke="#505050" stroke-width="0.5"/>
<path d="M-10892.9 193.242C-10656.9 164.313 -10088 112.996 -9700.9 139.16C-9260.88 164.227 -8673.76 239.595 -8439.27 226.866C-8154.77 213.349 -7612.64 164.407 -7251.04 153.522C-6851.29 153.62 -6005.09 156.155 -5490.49 205.788C-4975.89 255.421 -4370.56 235.666 -4071.34 191.894C-3613.24 117.892 -2547.49 3.48309 -2134.09 142.978C-1689.29 304.876 -995.402 291.411 -604.124 189.343C-30.5978 25.7135 611.05 89.9034 934.568 220.15" stroke="#505050" stroke-width="0.5"/>
<path d="M-10893.8 224.135C-10662.6 192.775 -10103.9 135.501 -9719.2 157.284C-9276.5 177.866 -8683.79 264.48 -8447.22 253.401C-8167.12 241.636 -7644.98 191.621 -7283.11 169.785C-6888.04 157.508 -6023.73 159.714 -5504.6 218.984C-4985.46 278.254 -4373.5 259.806 -4074.65 211.836C-3610.98 130.738 -2516.58 7.0429 -2108.81 150.151C-1658.81 319.496 -967.488 309.579 -576.21 200.962C7.72873 25.4902 661.54 106.429 967.826 231.484" stroke="#505050" stroke-width="0.5"/>
<path d="M-10894.8 256.184C-10668.5 222.31 -10120.3 158.876 -9738.13 176.13C-9292.66 192.073 -8694.15 290.315 -8455.43 280.943C-8179.88 270.99 -7678.42 219.865 -7316.27 186.705C-6926.04 161.632 -6043 163.498 -5519.18 232.734C-4995.37 301.969 -4376.53 284.871 -4078.06 232.561C-3608.64 144.125 -2484.62 10.8281 -2082.67 157.673C-1627.3 334.718 -938.622 328.469 -547.344 213.081C47.3621 25.3636 713.751 123.621 1002.22 243.309" stroke="#505050" stroke-width="0.5"/>
<path d="M-10895.8 289.38C-10674.6 252.91 -10137.3 183.113 -9757.67 195.688C-9309.35 206.84 -8704.85 317.094 -8463.91 309.484C-8193.07 301.402 -7712.96 249.131 -7350.52 204.274C-6965.29 165.984 -6062.9 167.5 -5534.25 247.028C-5005.59 326.556 -4379.67 310.854 -4081.59 254.061C-3606.22 158.045 -2451.62 14.8307 -2055.67 165.534C-1594.75 350.533 -908.809 348.074 -517.532 225.691C88.2961 25.3256 767.676 141.471 1037.74 255.615" stroke="#505050" stroke-width="0.5"/>
<path d="M-10896.8 323.721C-10680.9 284.571 -10154.8 208.209 -9777.84 215.956C-9326.58 222.165 -8715.9 344.813 -8472.67 339.021C-8206.68 332.87 -7748.6 279.417 -7385.87 222.491C-7005.79 170.563 -6083.44 171.717 -5549.79 261.866C-5016.15 352.015 -4382.9 337.752 -4085.23 276.333C-3603.73 172.496 -2417.56 19.0483 -2027.81 173.734C-1561.17 366.939 -878.046 368.391 -486.769 238.791C130.535 25.374 823.32 159.978 1074.4 268.401" stroke="#505050" stroke-width="0.5"/>
<path d="M-10897.9 359.2C-10687.4 317.288 -10172.9 234.157 -9798.63 236.928C-9344.33 238.041 -8727.29 373.466 -8481.7 369.548C-8220.71 365.388 -7785.34 310.715 -7422.31 241.348C-7047.54 175.361 -6104.61 176.142 -5565.82 277.239C-5027.03 378.336 -4386.24 365.558 -4088.98 299.37C-3601.15 187.472 -2382.44 23.4739 -1999.09 182.264C-1526.54 383.93 -846.334 389.413 -455.056 252.373C174.077 25.5016 880.681 179.133 1112.18 281.659" stroke="#505050" stroke-width="0.5"/>
<path d="M-10899 395.812C-10694.1 351.055 -10191.5 260.954 -9820.04 258.599C-9362.62 254.463 -8739.01 403.047 -8490.99 401.06C-8235.16 398.95 -7823.18 343.022 -7459.83 260.841C-7090.54 180.374 -6126.41 180.77 -5582.32 293.144C-5038.24 405.517 -4389.67 394.268 -4092.85 323.168C-3598.5 202.966 -2346.28 28.1028 -1969.51 191.121C-1490.88 401.501 -813.67 411.135 -422.392 266.432C218.926 25.7039 939.762 198.933 1151.1 295.385" stroke="#505050" stroke-width="0.5"/>
</svg>
