<svg width="185" height="213" viewBox="0 0 185 213" fill="none" xmlns="http://www.w3.org/2000/svg">
<path d="M103.793 199.021C95.9742 203.117 89.6446 203.489 81.8256 199.021L4.00794 152.48C1.02926 149.501 0.663413 145.408 4.008 143.544L81.8256 97.3745C89.2722 92.9065 95.9742 93.2789 103.793 97.3745L177.515 140.193C186.451 145.033 183.845 150.246 176.026 155.458L103.793 199.021Z" fill="#CECECE" stroke="white" stroke-width="0.5"/>
<path d="M179.75 141.682C184.805 146.564 183.586 149.531 176.771 155.086V165.884L182.729 162.533C184.378 161.053 184.649 160.036 184.59 158.065V149.873C184.538 144.996 183.183 143.472 179.75 141.682Z" fill="white"/>
<path d="M23.37 163.65V174.447L3.63634 162.533C1.77464 161.043 1.40238 159.554 1.40234 156.948V147.639C2.14701 149.501 3.26401 151.735 4.38101 152.107L23.37 163.65Z" fill="white"/>
<path d="M32.6777 180.032V169.607L38.6351 173.33V183.756L32.6777 180.032Z" fill="white"/>
<path d="M23.3691 174.447L81.4531 209.446M81.4531 209.446V198.886M81.4531 209.446C88.222 213.561 97.0911 213.542 103.793 209.446M103.793 209.446L105.496 208.43M103.793 209.446V207.957M103.793 199.021V201.627M167.462 171.44L176.77 155.085V158.064M167.462 171.44L170.068 169.884M167.462 171.44L164.919 172.957M170.068 169.884L176.77 158.064M170.068 169.884L172.675 168.328M176.77 158.064V160.67M176.77 160.67L172.675 168.328M176.77 160.67V163.277M172.675 168.328L174.722 167.106M174.722 167.106L176.77 165.883V163.277M174.722 167.106L176.77 163.277M164.919 172.957L173.792 156.947M164.919 172.957L162.622 174.329M162.622 174.329L170.813 158.809M162.622 174.329L159.643 176.107M159.643 176.107L167.09 161.043M159.643 176.107L156.664 177.885M156.664 177.885L163.739 162.904M156.664 177.885L154.058 179.441M154.058 179.441L160.388 164.766M154.058 179.441L150.869 181.345M150.869 181.345L157.037 167M150.869 181.345L147.455 183.383M147.455 183.383L153.686 168.862M147.455 183.383L144.75 184.997M144.75 184.997L150.335 171.096M144.75 184.997L142.143 186.553M142.143 186.553L147.455 172.585M142.143 186.553L139.537 188.109M139.537 188.109L144.005 174.819M139.537 188.109L136.851 189.712M136.851 189.712L141.026 176.681M136.851 189.712L134.324 191.221M134.324 191.221L138.048 178.542M134.324 191.221L132.09 192.554M132.09 192.554L135.069 180.404M132.09 192.554L129.484 194.11M129.484 194.11L132.09 181.893M129.484 194.11L126.248 196.042M126.248 196.042L129.484 183.383M126.248 196.042L123.154 197.889M123.154 197.889L126.248 185.438M123.154 197.889L120.01 199.765M120.01 199.765L123.154 187.478M120.01 199.765L116.892 201.627M116.892 201.627C116.838 201.329 119.059 193.312 120.176 189.34M116.892 201.627L113.474 203.667M113.474 203.667L116.452 191.574M113.474 203.667L110.654 205.35M110.654 205.35L113.846 193.063M110.654 205.35L107.889 207.001M107.889 207.001L110.867 194.925M107.889 207.001L105.496 208.43M105.496 208.43L108.261 196.414M103.793 207.957L106.027 197.889M103.793 207.957V201.627M103.793 201.627L104.538 198.648" stroke="white" stroke-width="0.5"/>
<path d="M29.45 67.8899V50.1384L81.2843 81.0259C89.9863 85.9564 94.7051 85.6367 102.941 81.0259L160.101 46.5881V70.7301L100.811 106.233C94.4203 109.428 90.515 109.783 83.4145 106.233L30.8702 75.3455L26.9648 73.9254L29.45 67.8899Z" fill="#969696"/>
<path d="M29.45 109.428V86.3514L81.2843 117.594C89.4499 122.209 95.1304 122.209 102.941 117.949L160.101 83.5112V106.943L101.166 142.091C96.9056 144.576 90.8701 145.641 83.7695 142.091L79.991 139.961L79.8642 121.854L34.7755 94.5171L31.5802 95.5821V108.008L33.3554 109.073V112.145L30.8702 110.72V110.313L29.45 109.428Z" fill="#969696"/>
<path d="M29.8051 139.251V121.499L81.6393 152.742C90.2875 157.449 95.0986 157.199 103.651 152.742L160.811 117.949V142.091L100.811 177.949C95.1304 181.144 89.86 181.274 83.4145 177.949L27.3199 143.866L29.8051 139.251Z" fill="#969696"/>
<path d="M29.45 67.8899V50.1384L81.2843 81.0259C89.9863 85.9564 94.7051 85.6367 102.941 81.0259L160.101 46.5881V70.7301L100.811 106.233C94.4203 109.428 90.515 109.783 83.4145 106.233L30.8702 75.3455L26.9648 73.9254L29.45 67.8899Z" stroke="white" stroke-width="0.5"/>
<path d="M29.45 109.428V86.3514L81.2843 117.594C89.4499 122.209 95.1304 122.209 102.941 117.949L160.101 83.5112V106.943L101.166 142.091C96.9056 144.576 90.8701 145.641 83.7695 142.091L79.991 139.961L79.8642 121.854L34.7755 94.5171L31.5802 95.5821V108.008L33.3554 109.073V112.145L30.8702 110.72V110.313L29.45 109.428Z" stroke="white" stroke-width="0.5"/>
<path d="M29.8051 139.251V121.499L81.6393 152.742C90.2875 157.449 95.0986 157.199 103.651 152.742L160.811 117.949V142.091L100.811 177.949C95.1304 181.144 89.86 181.274 83.4145 177.949L27.3199 143.866L29.8051 139.251Z" stroke="white" stroke-width="0.5"/>
<g filter="url(#filter0_f_434_8073)">
<path d="M162.23 145.286L159.745 142.801L103.295 176.529C94.7057 182.868 89.7919 182.214 80.9286 176.529L26.6091 143.511L20.5736 137.476L10.6328 143.866L24.834 152.387L21.9937 154.517C19.8636 157.002 22.3488 159.487 25.544 157.002L29.0943 154.517L73.4729 181.499L70.6327 183.629C68.1475 185.404 69.9227 188.245 73.4729 185.76L77.3783 183.274L80.5735 185.404C89.7604 191.658 95.0772 190.883 104.715 185.404L160.455 152.387C163.735 150.195 164.36 148.126 162.23 145.286Z" fill="#7A7A7A"/>
</g>
<path d="M31.5781 95.5823V108.008L77.7319 135.346V123.63L31.5781 95.5823Z" fill="#CECECE" stroke="white" stroke-width="0.5"/>
<path d="M37.2586 102.682C35.2104 101.998 34.7735 105.877 37.2586 106.942C39.3893 107.653 39.3892 103.393 37.2586 102.682Z" fill="white"/>
<path d="M42.5845 105.878C40.5363 105.194 40.0994 109.073 42.5845 110.138C44.7152 110.849 44.7151 106.589 42.5845 105.878Z" fill="white"/>
<path d="M47.91 109.073C45.8617 108.39 45.4249 112.268 47.91 113.334C50.0406 114.045 50.0406 109.784 47.91 109.073Z" fill="white"/>
<path d="M61.4004 121.499V118.304L73.4714 125.76V128.955L61.4004 121.499Z" stroke="white" stroke-width="0.5"/>
<path d="M34.7734 94.5176L31.5781 95.5827L77.7319 123.63V135.346L79.8621 134.991V121.855L34.7734 94.5176Z" fill="#969696" stroke="white" stroke-width="0.5"/>
<path d="M77.7324 123.629L79.8626 121.854" stroke="white" stroke-width="0.5"/>
<path d="M160.81 142.091L102.23 177.239C95.4843 181.499 89.0938 181.499 82.3482 177.239L77.3778 174.399L27.9785 144.181" stroke="white" stroke-width="0.5"/>
<path d="M26.2545 107.298V84.2216C24.4793 83.1565 23.1178 81.8026 21.9941 79.6062V102.328C21.9941 104.813 23.8891 105.958 26.2545 107.298Z" fill="white"/>
<path d="M26.2545 127.535V119.369C24.4793 118.304 23.1178 116.95 21.9941 114.754V131.085C21.9941 131.085 24.1243 127.89 26.2545 127.535Z" fill="white"/>
<path d="M26.2545 56.5288V48.3632C24.4793 47.2981 23.1178 45.9443 21.9941 43.7478V60.0791C21.9941 60.0791 24.1243 56.8839 26.2545 56.5288Z" fill="white"/>
<path d="M28.0293 85.2861V108.212L29.8044 109.428V86.3512L28.0293 85.2861Z" fill="white"/>
<path d="M28.0293 120.434V126.825L29.8044 125.405V121.499L28.0293 120.434Z" fill="white"/>
<path d="M28.0293 130.375V139.961L29.8044 138.896V129.665L28.0293 130.375Z" fill="white"/>
<path d="M28.0293 49.4285V55.819L29.8044 54.3989V50.4936L28.0293 49.4285Z" fill="white"/>
<path d="M28.0293 59.3695V68.9553L29.8044 67.8902V58.6594L28.0293 59.3695Z" fill="white"/>
<path d="M160.455 107.298V83.156C162.554 81.8134 163.212 80.3333 163.65 77.8306V101.262C163.65 105.168 162.94 105.878 160.455 107.298Z" fill="white"/>
<path d="M160.455 142.801V118.304C162.554 116.962 163.212 115.836 163.65 113.334V136.766C163.65 140.671 162.94 141.381 160.455 142.801Z" fill="white"/>
<path d="M25.8985 119.014C20.2182 115.819 21.2832 111.558 27.3187 109.073L30.8691 110.493V114.754L82.7033 146.351C89.0938 149.902 95.4844 149.902 101.52 146.351L154.419 115.109V110.138L158.325 108.718C165.425 111.914 164.36 116.174 159.39 119.014L104.715 152.032C95.9628 157.148 90.752 158.085 80.2181 152.032L25.8985 119.014Z" fill="#CECECE" stroke="white" stroke-width="0.5"/>
<path d="M25.8985 83.8662C20.2182 80.6709 21.2832 76.4105 27.3187 73.9253L30.8691 75.3455V79.6058L82.7033 111.203C89.0938 114.754 95.4844 114.754 101.52 111.203L154.419 79.9608V74.9904L158.325 73.5703C165.425 76.7656 164.36 81.0259 159.39 83.8662L104.715 116.884C95.9628 122 90.752 122.937 80.2181 116.884L25.8985 83.8662Z" fill="#CECECE" stroke="white" stroke-width="0.5"/>
<path d="M26.2523 48.0082C21.9926 45.168 19.1522 40.9076 26.2523 37.3573L81.2824 4.69468C89.8031 -0.275992 95.1285 -0.630689 104.004 4.69468L160.454 38.0674C165.424 40.5528 163.649 44.4581 160.454 46.5881L101.519 82.091C94.7735 85.6415 90.5132 85.2864 83.4126 82.091L26.2523 48.0082Z" fill="#CECECE" stroke="white" stroke-width="0.5"/>
<g filter="url(#filter1_f_434_8073)">
<ellipse cx="92.6449" cy="46.7025" rx="20.2367" ry="11.9739" fill="#7A7A7A"/>
</g>
<path d="M80.8465 32.7982C84.0424 31.0759 85.7752 30.5499 88.8025 30.0888C86.9039 32.8885 86.9858 35.4392 89.345 38.1268C83.8574 38.0248 81.1177 35.4174 80.8465 32.7982Z" fill="white"/>
<path d="M93.5038 37.4043C90.4299 35.3271 90.7011 31.4435 94.0463 29.5469C97.9498 29.6393 99.7854 30.0393 102.635 31.1726C98.011 32.3725 95.7888 33.4771 93.5038 37.4043Z" fill="white"/>
<path d="M106.342 33.1595C102.635 32.9789 97.6627 35.4174 97.301 38.6687C102.114 37.0722 104.9 36.7534 110.139 37.9462C109.65 35.9835 108.15 34.3336 106.342 33.1595Z" fill="white"/>
<path d="M110.501 41.1976C106.975 39.1203 102.783 39.0876 98.2955 41.1976C103.969 42.3047 105.616 43.5829 107.427 46.3455C109.456 44.3818 109.934 43.2436 110.501 41.1976Z" fill="white"/>
<path d="M104.172 48.7841C104.172 45.5327 100.171 43.6233 95.9449 43.6361C98.3664 46.6352 98.4162 48.338 96.3065 51.4032C99.6838 50.8125 101.416 50.2683 104.172 48.7841Z" fill="white"/>
<path d="M91.4244 51.6741C95.1312 48.8744 94.5887 46.3455 91.6956 44.3586C89.6664 47.6757 87.6671 48.8921 83.1067 50.3194C85.9595 51.2347 87.7039 51.6063 91.4244 51.6741Z" fill="white"/>
<path d="M75.3315 43.8167C80.6797 44.8222 83.4577 44.6189 88.0793 43.0942C87.4464 46.1649 83.6492 48.5131 79.2191 48.2422C77.0613 46.8084 76.2626 45.8154 75.3315 43.8167Z" fill="white"/>
<path d="M74.7891 40.746C79.8885 42.6308 83.4684 42.2813 87.0848 40.475C82.0488 39.561 79.9565 38.4474 77.5013 35.3271C75.5998 37.234 74.9852 38.416 74.7891 40.746Z" fill="white"/>
<path d="M160.455 71.0851V46.5881C162.554 45.2455 163.212 44.1204 163.65 41.6177V65.0496C163.65 68.9549 162.94 69.665 160.455 71.0851Z" fill="white"/>
<path d="M36.1953 133.924C36.1953 131.44 39.0355 132.86 39.0355 135.344V143.865C39.0355 145.286 36.1953 145.286 36.1953 142.445V133.924Z" fill="white"/>
<path d="M41.1657 136.765C41.1657 134.281 44.006 135.701 44.006 138.185V146.706C44.006 148.127 41.1657 148.127 41.1657 145.286V136.765Z" fill="white"/>
<path d="M46.1361 140.316C46.1361 137.831 48.9764 139.252 48.9764 141.736V150.256C48.9764 151.677 46.1361 151.677 46.1361 148.836V140.316Z" fill="white"/>
<path d="M51.4616 142.445C51.4616 139.961 54.3018 141.381 54.3018 143.865V152.386C54.3018 153.807 51.4616 153.807 51.4616 150.965V142.445Z" fill="white"/>
<path d="M56.0769 145.996C56.0769 143.512 58.9172 144.932 58.9172 147.416V155.937C58.9172 157.358 56.0769 157.358 56.0769 154.517V145.996Z" fill="white"/>
<path d="M61.0473 148.836C61.0473 146.352 63.8876 147.772 63.8876 150.256V158.777C63.8876 160.198 61.0473 160.198 61.0473 157.357V148.836Z" fill="white"/>
<path d="M66.0177 151.676C66.0177 149.192 68.858 150.612 68.858 153.097V161.617C68.858 163.038 66.0177 163.038 66.0177 160.197V151.676Z" fill="white"/>
<path d="M71.3432 154.517V159.842L73.8284 158.422V154.872C73.8284 153.452 71.3432 152.386 71.3432 154.517Z" fill="white"/>
<path d="M154.064 96.1344C154.064 93.7177 151.286 95.0993 151.286 97.516V105.805C151.286 107.188 154.064 107.188 154.064 104.424V96.1344Z" fill="white"/>
<path d="M149.202 98.8985C149.202 96.4818 146.424 97.8634 146.424 100.28V108.57C146.424 109.952 149.202 109.952 149.202 107.188V98.8985Z" fill="white"/>
<path d="M144.34 102.352C144.34 99.9357 141.561 101.317 141.561 103.734V112.023C141.561 113.406 144.34 113.406 144.34 110.642V102.352Z" fill="white"/>
<path d="M139.13 104.424C139.13 102.007 136.352 103.389 136.352 105.805V114.095C136.352 115.477 139.13 115.477 139.13 112.713V104.424Z" fill="white"/>
<path d="M134.615 107.879C134.615 105.462 131.837 106.844 131.837 109.26V117.55C131.837 118.932 134.615 118.932 134.615 116.168V107.879Z" fill="white"/>
<path d="M129.753 110.642C129.753 108.225 126.974 109.607 126.974 112.023V120.313C126.974 121.695 129.753 121.695 129.753 118.931V110.642Z" fill="white"/>
<path d="M124.89 113.405C124.89 110.988 122.112 112.37 122.112 114.787V123.076C122.112 124.459 124.89 124.459 124.89 121.694V113.405Z" fill="white"/>
<path d="M119.627 116.168C119.627 113.751 116.848 115.133 116.848 117.55V125.839C116.848 127.222 119.627 127.222 119.627 124.458V116.168Z" fill="white"/>
<path d="M115.011 118.931C115.011 116.515 112.233 117.896 112.233 120.313V128.602C112.233 129.985 115.011 129.985 115.011 127.221V118.931Z" fill="white"/>
<path d="M109.979 121.694C109.979 119.278 107.201 120.659 107.201 123.076V131.365C107.201 132.748 109.979 132.748 109.979 129.984V121.694Z" fill="white"/>
<path d="M36.1953 62.0871C36.1953 59.603 39.0355 61.0232 39.0355 63.5073V72.028C39.0355 73.449 36.1953 73.449 36.1953 70.6078V62.0871Z" fill="white"/>
<path d="M41.1657 64.9283C41.1657 62.4442 44.006 63.8643 44.006 66.3484V74.8691C44.006 76.2902 41.1657 76.2902 41.1657 73.449V64.9283Z" fill="white"/>
<path d="M46.1361 68.4786C46.1361 65.9945 48.9764 67.4146 48.9764 69.8987V78.4194C48.9764 79.8405 46.1361 79.8405 46.1361 76.9993V68.4786Z" fill="white"/>
<path d="M51.4616 70.6078C51.4616 68.1237 54.3018 69.5439 54.3018 72.028V80.5487C54.3018 81.9697 51.4616 81.9697 51.4616 79.1285V70.6078Z" fill="white"/>
<path d="M56.0769 74.1591C56.0769 71.6749 58.9172 73.0951 58.9172 75.5792V84.0999C58.9172 85.5209 56.0769 85.5209 56.0769 82.6798V74.1591Z" fill="white"/>
<path d="M61.0473 76.9993C61.0473 74.5152 63.8876 75.9353 63.8876 78.4194V86.9401C63.8876 88.3612 61.0473 88.3612 61.0473 85.52V76.9993Z" fill="white"/>
<path d="M66.0177 79.8395C66.0177 77.3554 68.858 78.7756 68.858 81.2596V89.7803C68.858 91.2014 66.0177 91.2014 66.0177 88.3602V79.8395Z" fill="white"/>
<path d="M71.3432 82.6798V88.0052L73.8284 85.9964V83.0348C73.8284 81.6147 71.3432 80.5487 71.3432 82.6798Z" fill="white"/>
<path d="M84.123 174.044V158.068M101.164 174.044V158.068" stroke="white" stroke-width="0.5"/>
<path d="M84.123 139.961V123.985M101.164 139.961V123.985" stroke="white" stroke-width="0.5"/>
<path d="M84.123 102.328V86.3516M101.164 102.328V86.3516" stroke="white" stroke-width="0.5"/>
<path d="M107.555 158.776C108.265 156.291 109.685 154.516 111.815 153.451M109.685 158.776C110.069 157.294 110.425 156.543 111.815 155.581M111.105 159.131C111.285 158.437 111.46 158.066 112.171 157.711M113.236 152.741C114.991 152.322 115.836 152.425 117.141 153.096M118.206 154.161C119.271 156.291 118.968 157.999 118.206 160.196M117.496 162.326C116.671 165.031 115.366 166.232 112.881 167.297M111.105 168.007C109.685 168.362 108.437 168.252 107.2 167.297M106.845 160.551C106.222 162.906 106.147 164.176 106.845 166.232M113.236 154.871C114.197 154.364 114.741 154.361 115.721 154.871M110.395 161.261C110.279 162.139 110.411 162.552 111.105 163.037M108.265 160.906C107.854 162.348 107.846 163.118 108.265 164.457M108.975 165.167C109.945 165.637 110.395 165.877 111.46 165.522M113.236 157.356C114.656 157.356 115.011 158.776 114.656 159.841M116.076 156.291C116.786 157.356 116.786 158.776 116.076 159.841M112.526 162.682C113.403 162.288 113.723 161.981 113.946 161.261M115.366 161.971C114.946 163.638 114.373 164.259 112.881 164.812M125.307 147.771C126.017 145.286 127.437 143.51 129.567 142.445M127.437 147.771C127.821 146.288 128.177 145.537 129.567 144.575M128.857 148.126C129.037 147.432 129.212 147.061 129.922 146.706M130.987 141.735C132.743 141.317 133.587 141.42 134.892 142.09M135.957 143.155C137.023 145.286 136.719 146.994 135.957 149.191M135.247 151.321C134.423 154.025 133.117 155.226 130.632 156.291M128.857 157.002C127.437 157.357 126.188 157.247 124.952 156.291M124.597 149.546C123.974 151.901 123.899 153.171 124.597 155.226M130.987 143.865C131.948 143.359 132.492 143.356 133.472 143.865M128.147 150.256C128.031 151.133 128.163 151.546 128.857 152.031M126.017 149.901C125.605 151.343 125.597 152.113 126.017 153.451M126.727 154.161C127.697 154.631 128.147 154.871 129.212 154.516M130.987 146.351C132.407 146.351 132.762 147.771 132.407 148.836M133.827 145.286C134.537 146.351 134.537 147.771 133.827 148.836M130.277 151.676C131.155 151.282 131.474 150.976 131.697 150.256M133.117 150.966C132.697 152.632 132.125 153.254 130.632 153.806M142.703 136.766C143.413 134.281 144.833 132.506 146.963 131.44M144.833 136.766C145.217 135.283 145.573 134.533 146.963 133.571M146.253 137.121C146.433 136.427 146.608 136.056 147.318 135.701M148.383 130.73C150.139 130.312 150.984 130.415 152.289 131.085M153.354 132.151C154.419 134.281 154.116 135.989 153.354 138.186M152.644 140.316C151.819 143.02 150.514 144.221 148.028 145.287M146.253 145.997C144.833 146.352 143.585 146.242 142.348 145.287M141.993 138.541C141.37 140.896 141.295 142.166 141.993 144.221M148.383 132.861C149.344 132.354 149.888 132.351 150.869 132.861M145.543 139.251C145.427 140.128 145.559 140.541 146.253 141.026M143.413 138.896C143.002 140.338 142.993 141.108 143.413 142.446M144.123 143.156C145.093 143.626 145.543 143.866 146.608 143.511M148.383 135.346C149.804 135.346 150.159 136.766 149.804 137.831M151.224 134.281C151.934 135.346 151.934 136.766 151.224 137.831M147.673 140.671C148.551 140.277 148.871 139.971 149.093 139.251M150.514 139.961C150.094 141.628 149.521 142.249 148.028 142.801" stroke="white" stroke-width="0.5"/>
<path d="M107.555 86.9542C108.265 84.469 109.685 82.6938 111.815 81.6287M109.685 86.9542C110.069 85.4716 110.425 84.7209 111.815 83.7589M111.105 87.3092C111.285 86.615 111.46 86.2441 112.171 85.8891M113.236 80.9187C114.991 80.5002 115.836 80.6033 117.141 81.2737M118.206 82.3388C119.271 84.469 118.968 86.1772 118.206 88.3743M117.496 90.5045C116.671 93.2087 115.366 94.4098 112.881 95.4749M111.105 96.1849C109.685 96.54 108.437 96.43 107.2 95.4749M106.845 88.7293C106.222 91.0844 106.147 92.3541 106.845 94.4098M113.236 83.0488C114.197 82.5421 114.741 82.5392 115.721 83.0488M110.395 89.4394C110.279 90.3165 110.411 90.7296 111.105 91.2145M108.265 89.0843C107.854 90.5263 107.846 91.2959 108.265 92.6346M108.975 93.3447C109.945 93.8148 110.395 94.0548 111.46 93.6997M113.236 85.5341C114.656 85.5341 115.011 86.9542 114.656 88.0193M116.076 84.469C116.786 85.5341 116.786 86.9542 116.076 88.0193M112.526 90.8595C113.403 90.4657 113.723 90.1592 113.946 89.4394M115.366 90.1494C114.946 91.8158 114.373 92.437 112.881 92.9897M125.307 75.9487C126.017 73.4635 127.437 71.6884 129.567 70.6233M127.437 75.9487C127.821 74.4662 128.177 73.7155 129.567 72.7535M128.857 76.3038C129.037 75.6096 129.212 75.2387 129.922 74.8836M130.987 69.9132C132.743 69.4947 133.587 69.5979 134.892 70.2683M135.957 71.3334C137.023 73.4635 136.719 75.1717 135.957 77.3688M135.247 79.499C134.423 82.2032 133.117 83.4044 130.632 84.4694M128.857 85.1795C127.437 85.5345 126.188 85.4246 124.952 84.4694M124.597 77.7239C123.974 80.079 123.899 81.3487 124.597 83.4044M130.987 72.0434C131.948 71.5366 132.492 71.5337 133.472 72.0434M128.147 78.4339C128.031 79.311 128.163 79.7242 128.857 80.2091M126.017 78.0789C125.605 79.5209 125.597 80.2905 126.017 81.6292M126.727 82.3393C127.697 82.8093 128.147 83.0493 129.212 82.6943M130.987 74.5286C132.407 74.5286 132.762 75.9487 132.407 77.0138M133.827 73.4635C134.537 74.5286 134.537 75.9487 133.827 77.0138M130.277 79.8541C131.155 79.4603 131.474 79.1537 131.697 78.4339M133.117 79.144C132.697 80.8104 132.125 81.4315 130.632 81.9842M142.703 64.9439C143.413 62.4587 144.833 60.6835 146.963 59.6184M144.833 64.9439C145.217 63.4613 145.573 62.7106 146.963 61.7486M146.253 65.2989C146.433 64.6047 146.608 64.2338 147.318 63.8788M148.383 58.9084C150.139 58.4899 150.984 58.5931 152.289 59.2634M153.354 60.3285C154.419 62.4587 154.116 64.1669 153.354 66.364M152.644 68.4942C151.819 71.1984 150.514 72.3995 148.028 73.4646M146.253 74.1746C144.833 74.5296 143.585 74.4197 142.348 73.4646M141.993 66.719C141.37 69.0741 141.295 70.3438 141.993 72.3995M148.383 61.0385C149.344 60.5318 149.888 60.5289 150.869 61.0385M145.543 67.4291C145.427 68.3062 145.559 68.7193 146.253 69.2042M143.413 67.074C143.002 68.516 142.993 69.2856 143.413 70.6243M144.123 71.3344C145.093 71.8045 145.543 72.0444 146.608 71.6894M148.383 63.5237C149.804 63.5237 150.159 64.9439 149.804 66.009M151.224 62.4587C151.934 63.5237 151.934 64.9439 151.224 66.009M147.673 68.8492C148.551 68.4554 148.871 68.1489 149.093 67.4291M150.514 68.1391C150.094 69.8055 149.521 70.4267 148.028 70.9794" stroke="white" stroke-width="0.5"/>
<path d="M84.4785 106.943L30.8691 75.3459V79.6063L81.6383 110.494C89.3847 114.459 93.8951 115.164 102.585 110.494L154.419 79.9613V74.4099L100.455 106.943C94.3119 110.034 90.7997 109.579 84.4785 106.943Z" fill="#6F6F6F"/>
<path d="M100.455 142.446C94.3119 145.537 90.7997 145.082 84.4785 142.446C81.2833 141.114 79.8631 140.671 79.8631 138.541V134.991H77.3779L33.3543 109.074V112.314L30.8691 110.849V114.754L81.6383 145.642C89.0939 150.257 96.1945 149.902 102.585 145.642L154.419 115.109V110.494L100.455 142.446Z" fill="#6F6F6F"/>
<path d="M80.2175 100.552V85.2861C71.853 89.2218 73.1169 90.6116 73.1169 93.0968C73.5053 90.2267 74.7259 89.3161 78.0873 88.4814V97.7121L77.3773 99.1323V100.552L73.827 103.748L80.2175 100.552Z" stroke="white" stroke-width="0.5"/>
<path d="M76.3123 84.5764C78.3975 83.4366 80.2176 83.5114 80.2176 85.2864C72.6393 88.9063 73.1171 90.2567 73.117 93.097L69.2118 93.807C68.8568 89.9017 70.5076 88.1438 76.3123 84.5764Z" stroke="white" stroke-width="0.5"/>
<path d="M73.1178 93.0973L72.7627 100.198L78.0882 97.7127L77.3781 99.1328V100.553L73.8278 103.748C71.3426 104.813 69.5675 103.748 68.8574 101.618L69.2125 92.0322" stroke="white" stroke-width="0.5"/>
<path d="M80.2175 172.671V157.405C71.853 161.341 73.1169 162.73 73.1169 165.216C73.5053 162.346 74.7259 161.435 78.0873 160.6V169.831L77.3773 171.251V172.671L73.827 175.867L80.2175 172.671Z" stroke="white" stroke-width="0.5"/>
<path d="M76.3123 156.695C78.3975 155.555 80.2176 155.63 80.2176 157.405C72.6393 161.025 73.1171 162.375 73.117 165.216L69.2118 165.926C68.8568 162.02 70.5076 160.262 76.3123 156.695Z" stroke="white" stroke-width="0.5"/>
<path d="M73.1178 165.215L72.7627 172.316L78.0882 169.831L77.3781 171.251V172.671L73.8278 175.866C71.3426 176.931 69.5675 175.866 68.8574 173.736L69.2125 164.15" stroke="white" stroke-width="0.5"/>
<path d="M31.9343 142.139V126.873C23.5698 130.809 24.8337 132.198 24.8337 134.683C25.2221 131.813 26.4427 130.903 29.8041 130.068V139.299L29.0941 140.719V142.139L25.5438 145.334L31.9343 142.139Z" stroke="white" stroke-width="0.5"/>
<path d="M28.0311 126.163C30.1163 125.023 31.9364 125.098 31.9364 126.873C24.3581 130.493 24.8359 131.843 24.8358 134.683L20.9305 135.393C20.5755 131.488 22.2264 129.73 28.0311 126.163Z" fill="#CECECE" stroke="white" stroke-width="0.5"/>
<path d="M24.8346 134.683L24.4795 141.784L29.805 139.298L28.0285 144.231L25.5446 145.334C23.0594 146.399 21.2843 145.334 20.5742 143.204L20.9292 133.618" stroke="white" stroke-width="0.5"/>
<path d="M31.9343 71.1332V55.8669C23.5698 59.8026 24.8337 61.1924 24.8337 63.6776C25.2221 60.8075 26.4427 59.8969 29.8041 59.0622V68.293L29.0941 69.7131V71.1332L25.5438 74.3285L31.9343 71.1332Z" stroke="white" stroke-width="0.5"/>
<path d="M28.0311 55.1569C30.1163 54.0171 31.9364 54.0919 31.9364 55.867C24.3581 59.4869 24.8359 60.8373 24.8358 63.6775L20.9305 64.3876C20.5755 60.4823 22.2264 58.7243 28.0311 55.1569Z" fill="#CECECE" stroke="white" stroke-width="0.5"/>
<path d="M24.4795 70.7777L24.8346 63.6771L20.864 64.3749L20.5742 72.1978C21.2843 74.328 23.0594 75.3931 25.5446 74.328L29.0949 71.1328V69.7126L29.805 68.2925L24.4795 70.7777Z" fill="#CECECE"/>
<path d="M20.9292 62.6121L20.864 64.3749M20.864 64.3749L20.5742 72.1978C21.2843 74.328 23.0594 75.3931 25.5446 74.328L29.0949 71.1328V69.7126L29.805 68.2925L24.4795 70.7777L24.8346 63.6771L20.864 64.3749Z" stroke="white" stroke-width="0.5"/>
<defs>
<filter id="filter0_f_434_8073" x="0.632812" y="127.476" width="172.838" height="72.3333" filterUnits="userSpaceOnUse" color-interpolation-filters="sRGB">
<feFlood flood-opacity="0" result="BackgroundImageFix"/>
<feBlend mode="normal" in="SourceGraphic" in2="BackgroundImageFix" result="shape"/>
<feGaussianBlur stdDeviation="5" result="effect1_foregroundBlur_434_8073"/>
</filter>
<filter id="filter1_f_434_8073" x="62.4082" y="24.7285" width="60.4727" height="43.9478" filterUnits="userSpaceOnUse" color-interpolation-filters="sRGB">
<feFlood flood-opacity="0" result="BackgroundImageFix"/>
<feBlend mode="normal" in="SourceGraphic" in2="BackgroundImageFix" result="shape"/>
<feGaussianBlur stdDeviation="5" result="effect1_foregroundBlur_434_8073"/>
</filter>
</defs>
</svg>
