<svg width="243" height="282" fill="none" xmlns="http://www.w3.org/2000/svg"><path d="M135.43 263.138c-10.342 5.417-18.714 5.91-29.056 0L3.447 201.579c-3.94-3.94-4.424-9.353 0-11.82l102.927-61.066c9.849-5.91 18.714-5.417 29.056 0l97.509 56.634c11.82 6.402 8.372 13.297-1.97 20.192l-95.539 57.619Z" fill="#0F0E0E" stroke="#fff" stroke-width=".5"/><path d="M235.895 187.297c6.686 6.458 5.074 10.381-3.94 17.729v14.282l7.88-4.433c2.181-1.957 2.539-3.302 2.462-5.909v-10.835c-.069-6.45-1.861-8.467-6.402-10.834ZM29.056 216.353v14.282L2.955 214.876C.492 212.906 0 210.936 0 207.489v-12.312c.985 2.462 2.462 5.417 3.94 5.909l25.116 15.267ZM41.368 238.022v-13.79l7.88 4.925v13.789l-7.88-4.924Z" fill="#F73737"/><path d="m29.055 230.634 76.826 46.292m0 0v-13.967m0 13.967c8.953 5.443 20.684 5.418 29.549 0m0 0 2.252-1.344m-2.252 1.344v-1.97m0-11.819v3.447m84.212-39.928 12.312-21.631v3.94m-12.312 17.691 3.448-2.057m-3.448 2.057-3.363 2.008m6.811-4.065 8.864-15.634m-8.864 15.634 3.447-2.058m5.417-13.576v3.447m0 0-5.417 10.129m5.417-10.129v3.448m-5.417 6.681 2.709-1.617m0 0 2.708-1.617v-3.447m-2.708 5.064 2.708-5.064m-15.675 12.804 11.735-21.176m-11.735 21.176-3.039 1.814m0 0 10.835-20.528m-10.835 20.528-3.94 2.352m0 0 9.85-19.925m-9.85 19.925-3.939 2.352m0 0 9.357-19.815m-9.357 19.815-3.448 2.058m0 0 8.372-19.41m-8.372 19.41-4.218 2.518m0 0 8.158-18.973m-8.158 18.973-4.516 2.695m0 0 8.242-19.206m-8.242 19.206-3.577 2.136m0 0 7.387-18.387m-7.387 18.387-3.448 2.058m0 0 7.025-18.475m-7.025 18.475-3.447 2.058m0 0 5.91-17.579m-5.91 17.579-3.553 2.12m0 0 5.523-17.236m-5.523 17.236-3.342 1.995m0 0 4.925-16.769m-4.925 16.769-2.954 1.764m0 0 3.939-16.07m-3.939 16.07-3.448 2.058m0 0 3.448-16.159m-3.448 16.159-4.281 2.555m0 0 4.281-16.744m-4.281 16.744-4.091 2.443m0 0 4.091-16.469m-4.091 16.469-4.158 2.482m0 0 4.158-16.252m-4.158 16.252-4.125 2.462m0 0c-.071-.394 2.866-10.998 4.343-16.251m-4.343 16.251-4.521 2.699m0 0 3.94-15.995m-3.94 15.995-3.729 2.226m0 0 4.221-16.251m-4.221 16.251-3.658 2.184m0 0 3.94-15.973m-3.94 15.973-3.165 1.889m0 0 3.657-15.892m-5.909 15.266 2.954-13.316m-2.954 13.316v-8.372m0 0 .985-3.939" stroke="#fff" stroke-width=".5"/><path d="M37.097 89.695v-23.48l68.56 40.854c11.509 6.522 17.751 6.099 28.644 0l75.603-45.55v31.932l-78.42 46.959c-8.453 4.226-13.618 4.696-23.01 0L38.975 99.556l-5.165-1.878 3.287-7.983Z" fill="#161616"/><path d="M37.097 144.636v-30.523l68.56 41.324c10.8 6.104 18.313 6.104 28.644.469l75.603-45.55v30.993l-77.951 46.489c-5.635 3.287-13.618 4.696-23.009 0l-4.998-2.818-.168-23.948-59.637-36.158-4.226 1.408v16.436l2.348 1.409v3.756l-3.288-.469v-1.409l-1.878-1.409Z" fill="#161616"/><path d="M37.567 184.081v-23.479l68.559 41.324c11.439 6.226 17.802 5.895 29.114 0l75.604-46.02v31.932l-79.36 47.428c-7.514 4.226-14.485 4.399-23.01 0l-74.194-45.08 3.287-6.105Z" fill="#161616"/><path d="M37.097 89.695v-23.48l68.56 40.854c11.509 6.522 17.751 6.099 28.644 0l75.603-45.55v31.932l-78.42 46.959c-8.453 4.226-13.618 4.696-23.01 0L38.975 99.556l-5.165-1.878 3.287-7.983Z" stroke="#fff" stroke-width=".5"/><path d="M37.097 144.636v-30.523l68.56 41.324c10.8 6.104 18.313 6.104 28.644.469l75.603-45.55v30.993l-77.951 46.489c-5.635 3.287-13.618 4.696-23.009 0l-4.998-2.818-.168-23.948-59.637-36.158-4.226 1.408v16.436l2.348 1.409v3.756l-3.288-.469v-1.409l-1.878-1.409Z" stroke="#fff" stroke-width=".5"/><path d="M37.567 184.081v-23.479l68.559 41.324c11.439 6.226 17.802 5.895 29.114 0l75.604-46.02v31.932l-79.36 47.428c-7.514 4.226-14.485 4.399-23.01 0l-74.194-45.08 3.287-6.105Z" stroke="#fff" stroke-width=".5"/><g filter="url(#a)"><path d="m212.722 192.064-3.287-3.287-74.664 44.611c-11.362 8.385-17.861 7.519-29.584 0L33.34 189.716l-7.983-7.983-13.148 8.453 18.783 11.27-3.756 2.817c-2.818 3.288.47 6.575 4.696 3.288l4.695-3.288 58.699 35.689-3.757 2.817c-3.287 2.348-.94 6.105 3.757 2.818l5.165-3.287 4.226 2.817c12.152 8.272 19.184 7.246 31.932 0l73.725-43.671c4.338-2.899 5.165-5.635 2.348-9.392Z" fill="#222"/></g><path d="M39.915 126.322v16.436l61.046 36.158v-15.497l-61.046-37.097Z" fill="#111010" stroke="#fff" stroke-width=".5"/><path d="M47.428 135.713c-2.71-.905-3.287 4.226 0 5.635 2.818.94 2.818-4.695 0-5.635ZM54.472 139.94c-2.71-.904-3.287 4.226 0 5.635 2.818.94 2.818-4.695 0-5.635ZM61.516 144.166c-2.71-.904-3.287 4.227 0 5.635 2.818.941 2.818-4.694 0-5.635Z" fill="#fff"/><path d="M79.36 160.602v-4.226l15.966 9.861v4.227l-15.966-9.862Z" stroke="#fff" stroke-width=".5"/><path d="m44.141 124.914-4.226 1.409 61.046 37.097v15.496l2.818-.469v-17.375l-59.638-36.158Z" fill="#161616" stroke="#fff" stroke-width=".5"/><path d="m100.961 163.419 2.817-2.348M210.844 187.838l-77.482 46.489c-8.922 5.635-17.374 5.635-26.296 0l-6.575-3.757-67.62-41.323" stroke="#fff" stroke-width=".5"/><path d="M32.87 141.819v-30.523c-2.347-1.409-4.148-3.199-5.634-6.105v30.054c0 3.287 2.506 4.801 5.635 6.574ZM32.87 168.585v-10.801c-2.347-1.408-4.148-3.199-5.634-6.104v21.601s2.817-4.227 5.635-4.696ZM32.87 74.668v-10.8c-2.347-1.41-4.148-3.2-5.634-6.105v21.6s2.817-4.226 5.635-4.695ZM35.219 112.704v30.323l2.348 1.609v-30.523l-2.348-1.409ZM35.219 159.193v8.453l2.348-1.878v-5.166l-2.348-1.409ZM35.219 172.342v12.678l2.348-1.408v-12.21l-2.348.94ZM35.219 65.276v8.453l2.348-1.878v-5.166l-2.348-1.409ZM35.219 78.424v12.68l2.348-1.41V77.486l-2.348.94ZM210.374 141.818v-31.931c2.776-1.776 3.646-3.734 4.226-7.044v30.992c0 5.166-.939 6.105-4.226 7.983ZM210.374 188.777v-32.401c2.776-1.776 3.646-3.264 4.226-6.574v30.992c0 5.166-.939 6.105-4.226 7.983Z" fill="#F73737"/><path d="M32.401 157.315c-7.513-4.226-6.104-9.861 1.879-13.148l4.696 1.878v5.635l68.559 41.793c8.453 4.696 16.905 4.696 24.888 0l69.968-41.323v-6.574l5.166-1.879c9.391 4.227 7.983 9.862 1.408 13.618l-72.316 43.672c-11.576 6.767-18.468 8.006-32.401 0l-71.847-43.672Z" fill="#0F0E0E" stroke="#fff" stroke-width=".5"/><path d="M32.401 110.826c-7.513-4.226-6.104-9.861 1.879-13.148l4.696 1.878v5.635l68.559 41.793c8.453 4.696 16.905 4.696 24.888 0l69.968-41.323v-6.575l5.166-1.878c9.391 4.226 7.983 9.861 1.408 13.618l-72.316 43.671c-11.576 6.767-18.468 8.006-32.401 0l-71.847-43.671Z" fill="#0F0E0E" stroke="#fff" stroke-width=".5"/><path d="M32.87 63.398c-5.634-3.757-9.39-9.392 0-14.088l72.787-43.202c11.27-6.574 18.314-7.043 30.053 0l74.664 44.141c6.575 3.288 4.227 8.453 0 11.27l-77.951 46.959c-8.922 4.696-14.557 4.226-23.949 0L32.87 63.398Z" fill="#0F0E0E" stroke="#fff" stroke-width=".5"/><g filter="url(#b)"><ellipse cx="120.683" cy="61.67" rx="26.766" ry="15.838" fill="#222"/></g><path d="M105.078 43.28c4.227-2.278 6.519-2.974 10.523-3.584-2.511 3.703-2.403 7.077.717 10.632-7.258-.135-10.882-3.584-11.24-7.048ZM121.819 49.372c-4.066-2.747-3.707-7.884.718-10.392 5.163.122 7.591.65 11.36 2.15-6.116 1.587-9.056 3.048-12.078 8.242ZM138.8 43.758c-4.903-.24-11.48 2.986-11.959 7.287 6.366-2.112 10.052-2.534 16.981-.956-.647-2.596-2.631-4.778-5.022-6.331ZM144.3 54.39c-4.663-2.748-10.208-2.791-16.143 0 7.504 1.464 9.683 3.154 12.078 6.809 2.684-2.598 3.315-4.103 4.065-6.81ZM135.93 64.424c0-4.3-5.293-6.826-10.882-6.81 3.203 3.968 3.269 6.22.478 10.274 4.467-.781 6.758-1.501 10.404-3.464ZM119.069 68.246c4.903-3.703 4.185-7.047.358-9.675-2.684 4.387-5.328 5.996-11.36 7.884 3.773 1.21 6.081 1.702 11.002 1.791ZM97.783 57.854c7.074 1.33 10.748 1.06 16.861-.956-.837 4.062-5.859 7.167-11.719 6.81-2.854-1.897-3.91-3.21-5.142-5.854ZM97.066 53.792c6.744 2.493 11.48 2.031 16.263-.358-6.661-1.21-9.428-2.682-12.676-6.81-2.515 2.523-3.328 4.086-3.587 7.168Z" fill="#fff"/><path d="M210.374 93.92v-32.4c2.776-1.776 3.646-3.264 4.226-6.575v30.993c0 5.165-.939 6.105-4.226 7.983Z" fill="#F73737"/><path d="M46.02 177.036c0-3.286 3.756-1.407 3.756 1.878v11.27c0 1.88-3.757 1.88-3.757-1.878v-11.27ZM52.594 180.794c0-3.286 3.756-1.407 3.756 1.878v11.27c0 1.88-3.756 1.88-3.756-1.878v-11.27ZM59.168 185.49c0-3.286 3.757-1.408 3.757 1.878v11.27c0 1.88-3.757 1.88-3.757-1.878v-11.27ZM66.212 188.306c0-3.286 3.756-1.407 3.756 1.878v11.27c0 1.88-3.756 1.88-3.756-1.878v-11.27ZM72.316 193.003c0-3.286 3.757-1.407 3.757 1.878v11.27c0 1.88-3.757 1.88-3.757-1.878v-11.27ZM78.89 196.76c0-3.286 3.757-1.408 3.757 1.878v11.27c0 1.88-3.757 1.88-3.757-1.878v-11.27ZM85.465 200.516c0-3.285 3.756-1.407 3.756 1.879v11.27c0 1.879-3.756 1.879-3.756-1.879v-11.27ZM92.508 204.273v7.044l3.288-1.878v-4.696c0-1.879-3.288-3.289-3.288-.47ZM201.922 127.053c0-3.197-3.675-1.369-3.675 1.827v10.964c0 1.829 3.675 1.829 3.675-1.827v-10.964ZM195.491 130.709c0-3.197-3.675-1.369-3.675 1.827V143.5c0 1.829 3.675 1.829 3.675-1.827v-10.964ZM189.059 135.277c0-3.196-3.675-1.369-3.675 1.828v10.964c0 1.828 3.675 1.828 3.675-1.828v-10.964ZM182.169 138.017c0-3.196-3.675-1.369-3.675 1.827v10.965c0 1.828 3.675 1.828 3.675-1.828v-10.964ZM176.197 142.587c0-3.197-3.675-1.369-3.675 1.827v10.964c0 1.829 3.675 1.829 3.675-1.827v-10.964ZM169.765 146.241c0-3.196-3.675-1.369-3.675 1.828v10.964c0 1.828 3.675 1.828 3.675-1.827v-10.965ZM163.334 149.896c0-3.196-3.675-1.369-3.675 1.827v10.965c0 1.828 3.675 1.828 3.675-1.828v-10.964ZM156.372 153.551c0-3.197-3.675-1.369-3.675 1.827v10.964c0 1.829 3.675 1.829 3.675-1.827v-10.964ZM150.268 157.206c0-3.197-3.676-1.37-3.676 1.827v10.964c0 1.829 3.676 1.829 3.676-1.827v-10.964ZM143.612 160.86c0-3.196-3.675-1.369-3.675 1.828v10.964c0 1.828 3.675 1.828 3.675-1.828V160.86ZM46.02 82.02c0-3.286 3.756-1.408 3.756 1.878v11.27c0 1.88-3.757 1.88-3.757-1.879V82.02ZM52.594 85.777c0-3.285 3.756-1.407 3.756 1.879v11.27c0 1.879-3.756 1.879-3.756-1.879v-11.27ZM59.168 90.473c0-3.286 3.757-1.407 3.757 1.878v11.27c0 1.88-3.757 1.88-3.757-1.878v-11.27ZM66.212 93.29c0-3.286 3.756-1.408 3.756 1.878v11.27c0 1.879-3.756 1.879-3.756-1.879v-11.27ZM72.316 97.987c0-3.286 3.757-1.408 3.757 1.878v11.27c0 1.879-3.757 1.879-3.757-1.878v-11.27ZM78.89 101.743c0-3.285 3.757-1.407 3.757 1.878v11.271c0 1.879-3.757 1.879-3.757-1.879v-11.27ZM85.465 105.5c0-3.286 3.756-1.407 3.756 1.878v11.27c0 1.88-3.756 1.88-3.756-1.878V105.5ZM92.508 109.257v7.043l3.288-2.657v-3.917c0-1.878-3.288-3.288-3.288-.469Z" fill="#fff"/><path d="M109.413 230.101V208.97m22.54 21.131V208.97M109.413 185.021V163.89m22.54 21.131V163.89M109.413 135.245v-21.132m22.54 21.132v-21.132M140.406 209.907c.939-3.287 2.818-5.635 5.635-7.044m-2.817 7.044c.508-1.961.979-2.954 2.817-4.226m-.939 4.696c.238-.919.469-1.409 1.409-1.879m1.408-6.574c2.323-.554 3.44-.417 5.166.47m1.409 1.408c1.408 2.818 1.007 5.077 0 7.983m-.94 2.818c-1.09 3.577-2.817 5.165-6.104 6.574m-2.348.939c-1.878.47-3.53.324-5.166-.939m-.469-8.922c-.824 3.115-.923 4.794 0 7.513m8.452-15.026c1.271-.671 1.991-.675 3.287 0m-7.043 8.452c-.154 1.16.021 1.707.939 2.348m-3.757-2.818c-.544 1.908-.555 2.926 0 4.696m.939.939c1.284.622 1.879.94 3.287.47m2.348-10.8c1.879 0 2.348 1.878 1.879 3.287m1.878-4.696a4.266 4.266 0 0 1 0 4.696m-4.696 3.756c1.161-.52 1.584-.926 1.879-1.878m1.878.939c-.555 2.204-1.313 3.026-3.287 3.757m16.435-22.54c.939-3.287 2.818-5.635 5.635-7.043m-2.817 7.043c.508-1.961.979-2.953 2.817-4.226m-.939 4.696c.238-.918.47-1.409 1.409-1.878m1.409-6.575c2.322-.553 3.439-.417 5.165.47m1.409 1.409c1.409 2.817 1.007 5.077 0 7.983m-.939 2.817c-1.091 3.577-2.818 5.166-6.105 6.574m-2.348.94c-1.878.469-3.53.324-5.165-.94m-.47-8.922c-.823 3.115-.923 4.795 0 7.514m8.453-15.027c1.271-.67 1.99-.674 3.287 0m-7.044 8.453c-.154 1.16.021 1.706.939 2.347m-3.757-2.817c-.544 1.907-.555 2.925 0 4.696m.94.939c1.283.622 1.878.939 3.287.47m2.348-10.801c1.878 0 2.348 1.878 1.878 3.287m1.878-4.696a4.266 4.266 0 0 1 0 4.696m-4.696 3.757c1.161-.521 1.584-.926 1.879-1.878m1.878.939c-.555 2.204-1.313 3.025-3.287 3.756m15.966-22.538c.939-3.287 2.817-5.635 5.635-7.044m-2.818 7.044c.509-1.961.979-2.954 2.818-4.227m-.939 4.696c.237-.918.469-1.409 1.409-1.878m1.408-6.574c2.323-.554 3.44-.417 5.166.469m1.408 1.409c1.409 2.818 1.008 5.077 0 7.983m-.939 2.817c-1.09 3.577-2.817 5.166-6.104 6.575m-2.348.939c-1.879.469-3.53.324-5.166-.939m-.469-8.922c-.824 3.115-.923 4.794 0 7.513m8.452-15.027c1.271-.67 1.991-.674 3.287 0m-7.043 8.453c-.154 1.16.021 1.706.939 2.348m-3.757-2.818c-.544 1.907-.555 2.925 0 4.696m.939.939c1.284.622 1.879.939 3.287.47m2.348-10.801c1.879 0 2.348 1.879 1.879 3.287m1.878-4.695a4.265 4.265 0 0 1 0 4.695m-4.696 3.757c1.161-.521 1.584-.926 1.878-1.878m1.879.939c-.555 2.204-1.313 3.026-3.287 3.757M140.406 114.91c.939-3.287 2.818-5.635 5.635-7.044m-2.817 7.044c.508-1.961.979-2.954 2.817-4.226m-.939 4.695c.238-.918.469-1.408 1.409-1.878m1.408-6.574c2.323-.554 3.44-.417 5.166.469m1.409 1.409c1.408 2.818 1.007 5.077 0 7.983m-.94 2.818c-1.09 3.576-2.817 5.165-6.104 6.574m-2.348.939c-1.878.47-3.53.324-5.166-.939m-.469-8.922c-.824 3.115-.923 4.794 0 7.513m8.452-15.027c1.271-.67 1.991-.674 3.287 0m-7.043 8.453c-.154 1.16.021 1.707.939 2.348m-3.757-2.818c-.544 1.908-.555 2.926 0 4.696m.939.939c1.284.622 1.879.94 3.287.47m2.348-10.8c1.879 0 2.348 1.878 1.879 3.287m1.878-4.696a4.266 4.266 0 0 1 0 4.696m-4.696 3.756c1.161-.521 1.584-.926 1.879-1.878m1.878.939c-.555 2.204-1.313 3.026-3.287 3.757m16.435-22.54c.939-3.287 2.818-5.635 5.635-7.043m-2.817 7.043c.508-1.96.979-2.953 2.817-4.226m-.939 4.696c.238-.918.47-1.409 1.409-1.878m1.409-6.575c2.322-.553 3.439-.417 5.165.47m1.409 1.409c1.409 2.817 1.007 5.077 0 7.983m-.939 2.817c-1.091 3.577-2.818 5.166-6.105 6.574m-2.348.94c-1.878.469-3.53.324-5.165-.94m-.47-8.922c-.823 3.115-.923 4.795 0 7.514m8.453-15.027c1.271-.67 1.99-.674 3.287 0m-7.044 8.452c-.154 1.161.021 1.707.939 2.348m-3.757-2.817c-.544 1.907-.555 2.925 0 4.696m.94.939c1.283.622 1.878.939 3.287.469m2.348-10.8c1.878 0 2.348 1.878 1.878 3.287m1.878-4.696a4.266 4.266 0 0 1 0 4.696m-4.696 3.757c1.161-.521 1.584-.927 1.879-1.879m1.878.94c-.555 2.204-1.313 3.025-3.287 3.756m15.966-22.538c.939-3.288 2.817-5.636 5.635-7.044m-2.818 7.044c.509-1.961.979-2.954 2.818-4.227m-.939 4.696c.237-.918.469-1.409 1.409-1.878m1.408-6.574c2.323-.554 3.44-.417 5.166.47m1.408 1.408c1.409 2.817 1.008 5.077 0 7.983m-.939 2.817c-1.09 3.577-2.817 5.166-6.104 6.575m-2.348.939c-1.879.47-3.53.324-5.166-.94m-.469-8.921c-.824 3.114-.923 4.794 0 7.513m8.452-15.027c1.271-.67 1.991-.674 3.287 0m-7.043 8.453c-.154 1.16.021 1.706.939 2.348m-3.757-2.818c-.544 1.907-.555 2.925 0 4.696m.939.94c1.284.62 1.879.938 3.287.469m2.348-10.8c1.879 0 2.348 1.878 1.879 3.286m1.878-4.696a4.266 4.266 0 0 1 0 4.696m-4.696 3.757c1.161-.52 1.584-.926 1.878-1.878m1.879.939c-.555 2.204-1.313 3.025-3.287 3.757" stroke="#fff" stroke-width=".5"/><path d="M109.883 141.35 38.976 99.557v5.635l67.15 40.853c10.246 5.245 16.212 6.178 27.706 0l68.559-40.384v-6.574l-71.377 42.263c-8.125 4.087-12.77 3.485-21.131 0Z" fill="#222"/><path d="M131.014 188.308c-8.125 4.087-12.77 3.486-21.131 0-4.226-1.762-6.105-2.348-6.105-5.165v-4.696h-3.287l-58.228-34.28v4.285l-3.287-1.937v5.165l67.15 40.854c9.862 6.105 19.253 5.635 27.706 0l68.559-40.384v-6.105l-71.377 42.263Z" fill="#222"/><path d="M104.248 132.896v-20.192c-11.063 5.206-9.392 7.044-9.392 10.331.514-3.796 2.129-5.001 6.575-6.105v12.21l-.94 1.878v1.878l-4.695 4.227 8.452-4.227Z" stroke="#fff" stroke-width=".5"/><path d="M99.082 111.765c2.758-1.507 5.166-1.408 5.166.939-10.024 4.788-9.392 6.575-9.392 10.331l-5.165.939c-.47-5.165 1.714-7.49 9.391-12.209Z" stroke="#fff" stroke-width=".5"/><path d="m94.856 123.036-.47 9.391 7.044-3.287-.939 1.879v1.878l-4.696 4.226c-3.287 1.409-5.635 0-6.574-2.817l.47-12.679M104.248 228.285v-20.192c-11.063 5.205-9.392 7.044-9.392 10.331.514-3.797 2.129-5.001 6.575-6.105v12.209l-.94 1.879v1.878l-4.695 4.226 8.452-4.226Z" stroke="#fff" stroke-width=".5"/><path d="M99.082 207.154c2.758-1.508 5.166-1.409 5.166.939-10.024 4.788-9.392 6.574-9.392 10.331l-5.165.939c-.47-5.165 1.714-7.491 9.391-12.209Z" stroke="#fff" stroke-width=".5"/><path d="m94.856 218.423-.47 9.392 7.044-3.287-.939 1.878v1.879l-4.696 4.226c-3.287 1.409-5.635 0-6.574-2.818l.47-12.678M40.385 187.901v-20.192c-11.064 5.206-9.392 7.044-9.392 10.331.514-3.796 2.128-5.001 6.574-6.105v12.209l-.94 1.879v1.878l-4.695 4.226 8.453-4.226Z" stroke="#fff" stroke-width=".5"/><path d="M35.219 166.77c2.758-1.507 5.165-1.408 5.165.939-10.023 4.788-9.391 6.574-9.392 10.331l-5.165.939c-.47-5.165 1.714-7.49 9.392-12.209Z" stroke="#fff" stroke-width=".5"/><path d="m30.993 178.04-.47 9.391 7.044-3.287-.94 1.879v1.878l-4.695 4.226c-3.287 1.409-5.635 0-6.574-2.817l.47-12.679M40.385 93.984V73.792c-11.064 5.206-9.392 7.044-9.392 10.33.514-3.795 2.128-5 6.574-6.104v12.21l-.94 1.878v1.878l-4.695 4.226 8.453-4.226Z" stroke="#fff" stroke-width=".5"/><path d="M35.219 72.853c2.758-1.507 5.165-1.408 5.165.94-10.023 4.787-9.391 6.573-9.392 10.33l-5.165.94c-.47-5.166 1.714-7.491 9.392-12.21Z" stroke="#fff" stroke-width=".5"/><path d="m30.993 84.123-.47 9.391 7.044-3.287-.94 1.879v1.878l-4.695 4.226c-3.287 1.409-5.635 0-6.574-2.817l.47-12.68" stroke="#fff" stroke-width=".5"/><defs><filter id="a" x="2.209" y="171.733" width="222.154" height="89.22" filterUnits="userSpaceOnUse" color-interpolation-filters="sRGB"><feFlood flood-opacity="0" result="BackgroundImageFix"/><feBlend in="SourceGraphic" in2="BackgroundImageFix" result="shape"/><feGaussianBlur stdDeviation="5" result="effect1_foregroundBlur_331_799"/></filter><filter id="b" x="83.917" y="35.833" width="73.533" height="51.675" filterUnits="userSpaceOnUse" color-interpolation-filters="sRGB"><feFlood flood-opacity="0" result="BackgroundImageFix"/><feBlend in="SourceGraphic" in2="BackgroundImageFix" result="shape"/><feGaussianBlur stdDeviation="5" result="effect1_foregroundBlur_331_799"/></filter></defs></svg>