<svg width="306" height="209" viewBox="0 0 306 209" fill="none" xmlns="http://www.w3.org/2000/svg">
<path d="M168.759 188.722C157.414 194.664 148.23 195.205 136.885 188.722L23.9765 121.193C19.6547 116.871 19.1238 110.932 23.9766 108.227L136.885 41.2385C147.69 34.7558 157.414 35.2961 168.759 41.2385L275.724 103.365C288.69 110.388 284.908 117.952 273.564 125.515L168.759 188.722Z" fill="#CECECE" stroke="#CECECE" stroke-width="0.5"/>
<g filter="url(#filter0_d_561_5003)">
<path d="M278.966 105.526C286.301 112.61 284.532 116.914 274.645 124.974V140.641L283.288 135.779C285.681 133.632 286.074 132.156 285.989 129.296V117.411C285.913 110.335 283.948 108.123 278.966 105.526Z" fill="white"/>
</g>
<g filter="url(#filter1_d_561_5003)">
<path d="M52.069 137.399V153.066L23.4367 135.778C20.7355 133.617 20.1954 131.457 20.1953 127.675V114.169C21.2758 116.87 22.8965 120.112 24.5172 120.652L52.069 137.399Z" fill="white"/>
</g>
<g filter="url(#filter2_d_561_5003)">
<path d="M65.5742 161.17V146.043L74.2179 151.446V166.572L65.5742 161.17Z" fill="white"/>
</g>
<path d="M52.0684 153.066L136.344 203.848M136.344 203.848V188.525M136.344 203.848C146.166 209.818 159.034 209.79 168.758 203.848M168.758 203.848L171.229 202.373M168.758 203.848V201.687M168.758 188.721V192.503M261.138 148.703L274.644 124.974V129.296M261.138 148.703L264.92 146.445M261.138 148.703L257.449 150.905M264.92 146.445L274.644 129.296M264.92 146.445L268.701 144.188M274.644 129.296V133.077M274.644 133.077L268.701 144.188M274.644 133.077V136.859M268.701 144.188L271.672 142.414M271.672 142.414L274.644 140.64V136.859M271.672 142.414L274.644 136.859M257.449 150.905L270.322 127.675M257.449 150.905L254.115 152.895M254.115 152.895L266 130.376M254.115 152.895L249.793 155.475M249.793 155.475L260.598 133.617M249.793 155.475L245.471 158.055M245.471 158.055L255.736 136.319M245.471 158.055L241.69 160.312M241.69 160.312L250.874 139.02M241.69 160.312L237.062 163.074M237.062 163.074L246.011 142.261M237.062 163.074L232.109 166.031M232.109 166.031L241.149 144.962M232.109 166.031L228.184 168.374M228.184 168.374L236.287 148.204M228.184 168.374L224.402 170.632M224.402 170.632L232.109 150.365M224.402 170.632L220.621 172.889M220.621 172.889L227.103 153.606M220.621 172.889L216.724 175.215M216.724 175.215L222.782 156.307M216.724 175.215L213.057 177.404M213.057 177.404L218.46 159.008M213.057 177.404L209.816 179.339M209.816 179.339L214.138 161.71M209.816 179.339L206.034 181.596M206.034 181.596L209.816 163.87M206.034 181.596L201.338 184.399M201.338 184.399L206.034 166.031M201.338 184.399L196.85 187.078M196.85 187.078L201.338 169.013M196.85 187.078L192.288 189.802M192.288 189.802L196.85 171.974M192.288 189.802L187.763 192.503M187.763 192.503C187.686 192.071 190.908 180.438 192.529 174.675M187.763 192.503L182.804 195.463M182.804 195.463L187.126 177.916M182.804 195.463L178.713 197.905M178.713 197.905L183.345 180.077M178.713 197.905L174.701 200.3M174.701 200.3L179.023 182.779M174.701 200.3L171.229 202.373M171.229 202.373L175.241 184.939M168.758 201.687L172 187.078M168.758 201.687V192.503M168.758 192.503L169.839 188.181" stroke="#CECECE" stroke-width="0.5"/>
<g opacity="0.6" filter="url(#filter3_f_561_5003)">
<path d="M70.9474 105.078C61.165 96.1179 64.2113 93.882 70.9474 90.3227L114.079 65.3518L195.802 114.726C201.783 118.381 203.338 120.667 200.342 125.509L164.588 147.075C154.84 152.193 149.363 153.339 139.617 147.075L70.9474 105.078Z" fill="#7A7A7A"/>
<path d="M70.9474 105.078C61.165 96.1179 64.2113 93.882 70.9474 90.3227L114.079 65.3518L195.802 114.726C201.783 118.381 203.338 120.667 200.342 125.509L164.588 147.075C154.84 152.193 149.363 153.339 139.617 147.075L70.9474 105.078Z" stroke="white" stroke-width="0.5"/>
</g>
<path d="M108.398 73.8651L115.209 69.325H188.986L199.202 76.1352C203.746 79.5403 205.101 82.9431 199.202 86.3505L162.313 108.484C154.189 113.513 149.738 112.903 141.882 108.484L108.398 88.0531C100.715 82.2104 102.354 79.1681 108.398 73.8651Z" fill="#969696" stroke="white" stroke-width="0.5"/>
<path d="M107.837 64.784C101.593 61.3788 101.594 57.9737 107.837 54.0011L145.293 31.3003C150.788 27.3862 154.047 27.2266 160.048 31.3003L196.369 52.866C203.254 57.7972 203.747 60.8113 195.802 65.919L162.318 85.7822C154.458 90.715 150.008 90.3852 141.888 85.7822L107.837 64.784Z" fill="#969696" stroke="white" stroke-width="0.5"/>
<g opacity="0.6" filter="url(#filter4_f_561_5003)">
<path d="M143.021 96.5659L108.402 73.8651L115.213 69.325L143.021 86.3505C150.136 90.2417 154.112 90.1778 161.182 86.3505L189.558 69.8925L197.503 75.0002L161.182 96.5659C154.196 100.621 150.198 100.906 143.021 96.5659Z" fill="#7A7A7A"/>
</g>
<path d="M97.6183 37.5435L147.56 68.1896M157.775 68.1896L207.15 38.1111M152.668 73.8648V135.157M93.0781 42.6512V95.4306C93.0781 105.078 95.9157 107.348 102.726 112.456L143.02 136.86C150.003 141.246 154.36 141.279 161.748 136.86L205.447 110.754C210.555 107.348 212.257 103.943 212.257 98.2682V46.0564C212.257 37.5436 210.555 32.4359 200.907 27.3282L161.181 2.92484C154.37 -0.480281 150.266 -0.396437 143.587 2.92484L101.591 29.0308C95.9157 32.4359 93.0781 36.976 93.0781 42.6512Z" stroke="white" stroke-width="0.5"/>
<path d="M185.022 71.0264C164.588 83.5118 165.155 108.483 177.644 107.348C197.504 102.807 204.315 61.9461 185.022 71.0264Z" stroke="white" stroke-width="0.5"/>
<circle cx="182.18" cy="89.1873" r="2.27008" fill="white"/>
<circle cx="182.181" cy="89.188" r="3.40512" fill="white"/>
<defs>
<filter id="filter0_d_561_5003" x="254.645" y="85.5261" width="51.3555" height="75.115" filterUnits="userSpaceOnUse" color-interpolation-filters="sRGB">
<feFlood flood-opacity="0" result="BackgroundImageFix"/>
<feColorMatrix in="SourceAlpha" type="matrix" values="0 0 0 0 0 0 0 0 0 0 0 0 0 0 0 0 0 0 127 0" result="hardAlpha"/>
<feOffset/>
<feGaussianBlur stdDeviation="10"/>
<feComposite in2="hardAlpha" operator="out"/>
<feColorMatrix type="matrix" values="0 0 0 0 1 0 0 0 0 1 0 0 0 0 1 0 0 0 1 0"/>
<feBlend mode="normal" in2="BackgroundImageFix" result="effect1_dropShadow_561_5003"/>
<feBlend mode="normal" in="SourceGraphic" in2="effect1_dropShadow_561_5003" result="shape"/>
</filter>
<filter id="filter1_d_561_5003" x="0.195312" y="94.1692" width="71.873" height="78.8967" filterUnits="userSpaceOnUse" color-interpolation-filters="sRGB">
<feFlood flood-opacity="0" result="BackgroundImageFix"/>
<feColorMatrix in="SourceAlpha" type="matrix" values="0 0 0 0 0 0 0 0 0 0 0 0 0 0 0 0 0 0 127 0" result="hardAlpha"/>
<feOffset/>
<feGaussianBlur stdDeviation="10"/>
<feComposite in2="hardAlpha" operator="out"/>
<feColorMatrix type="matrix" values="0 0 0 0 1 0 0 0 0 1 0 0 0 0 1 0 0 0 1 0"/>
<feBlend mode="normal" in2="BackgroundImageFix" result="effect1_dropShadow_561_5003"/>
<feBlend mode="normal" in="SourceGraphic" in2="effect1_dropShadow_561_5003" result="shape"/>
</filter>
<filter id="filter2_d_561_5003" x="45.5742" y="126.043" width="48.6445" height="60.5288" filterUnits="userSpaceOnUse" color-interpolation-filters="sRGB">
<feFlood flood-opacity="0" result="BackgroundImageFix"/>
<feColorMatrix in="SourceAlpha" type="matrix" values="0 0 0 0 0 0 0 0 0 0 0 0 0 0 0 0 0 0 127 0" result="hardAlpha"/>
<feOffset/>
<feGaussianBlur stdDeviation="10"/>
<feComposite in2="hardAlpha" operator="out"/>
<feColorMatrix type="matrix" values="0 0 0 0 1 0 0 0 0 1 0 0 0 0 1 0 0 0 1 0"/>
<feBlend mode="normal" in2="BackgroundImageFix" result="effect1_dropShadow_561_5003"/>
<feBlend mode="normal" in="SourceGraphic" in2="effect1_dropShadow_561_5003" result="shape"/>
</filter>
<filter id="filter3_f_561_5003" x="48.4512" y="49.0614" width="169.625" height="118.543" filterUnits="userSpaceOnUse" color-interpolation-filters="sRGB">
<feFlood flood-opacity="0" result="BackgroundImageFix"/>
<feBlend mode="normal" in="SourceGraphic" in2="BackgroundImageFix" result="shape"/>
<feGaussianBlur stdDeviation="8" result="effect1_foregroundBlur_561_5003"/>
</filter>
<filter id="filter4_f_561_5003" x="105.402" y="66.325" width="95.1016" height="36.3898" filterUnits="userSpaceOnUse" color-interpolation-filters="sRGB">
<feFlood flood-opacity="0" result="BackgroundImageFix"/>
<feBlend mode="normal" in="SourceGraphic" in2="BackgroundImageFix" result="shape"/>
<feGaussianBlur stdDeviation="1.5" result="effect1_foregroundBlur_561_5003"/>
</filter>
</defs>
</svg>
