<svg width="491" height="194" viewBox="0 0 491 194" fill="none" xmlns="http://www.w3.org/2000/svg">
<g opacity="0.5">
<path d="M-1039.16 1.21987C-753.17 -2.35643 -78.1426 8.45194 334.012 80.2958C746.167 152.14 1274.83 110.231 1487.64 80.2958C1818.08 48.5065 2568.67 10.7567 2927.49 114.072C3376.01 243.216 4033.31 249.176 4500.68 198.314C4968.06 147.451 5504.12 114.072 5807.19 114.072C6207.22 114.072 6974.29 96.4977 7446.38 198.314C7836.98 282.555 8557.58 232.09 8948.86 198.314C9413.8 158.179 9928.6 47.7117 10431.8 232.09" stroke="white" stroke-width="0.5"/>
<path d="M-1056 433.553C-856.882 385.869 -366.516 288.594 1.99912 280.964C462.643 271.427 1093 433.553 1343.52 433.553C1594.05 433.553 1981.96 376.332 2345.63 280.964C2709.29 185.596 3695.23 185.597 4244.77 309.575C4794.31 433.553 5450.88 423.876 5747.25 347.722C6248.3 218.975 7535.02 32.9307 7905 200.3C8389.89 419.646 9064.02 433.553 9455.3 280.964C10109.2 25.9764 10844.6 219.374 11035.2 309.575" stroke="white" stroke-width="0.5"/>
<path d="M-1039.65 5.63758C-756.162 0.787989 -86.4656 8.4762 324.43 78.0258C737.984 147.52 1269.58 111.501 1483.48 82.4307C1811.62 51.5591 2551.74 13.2472 2910.7 110.827C3356.77 233.49 4023.55 239.278 4493.3 193.463C4963.05 147.647 5502.58 114.952 5805.46 112.754C6208.41 109.037 6990.48 86.5998 7459.62 190.308C7852.95 278.45 8572.2 229.843 8963.48 192.637C9433.87 146.3 9955.05 44.6044 10449.2 226.264" stroke="white" stroke-width="0.5"/>
<path d="M-1040.17 10.6004C-759.351 4.39481 -95.3312 8.7602 314.222 75.8665C729.268 142.859 1263.99 113.113 1479.05 84.9625C1804.73 55.0682 2533.7 16.1577 2892.81 107.629C3336.27 223.39 4013.15 228.995 4485.43 188.555C4957.71 148.114 5500.94 116.148 5803.62 111.609C6209.67 103.934 7007.72 76.3171 7473.72 182.041C7869.94 274.336 8587.77 227.708 8979.05 186.849C9455.25 133.907 9983.21 41.5534 10467.8 220.317" stroke="white" stroke-width="0.5"/>
<path d="M-1040.72 16.1864C-762.735 8.54211 -104.739 9.38201 303.391 73.8961C720.018 138.234 1258.06 115.143 1474.35 87.9692C1797.42 59.1118 2514.56 19.5662 2873.83 104.557C3314.52 212.995 4002.13 218.405 4477.08 183.668C4952.04 148.93 5499.21 117.738 5801.66 110.714C6211.01 98.8399 7026 65.7278 7488.68 173.59C7887.98 270.292 8604.29 225.763 8995.57 181.029C9477.93 121.079 10013.1 38.6368 10487.5 214.329" stroke="white" stroke-width="0.5"/>
<path d="M-1041.3 22.479C-766.312 13.3133 -114.685 10.425 291.939 72.1978C710.239 133.729 1251.79 117.676 1469.38 91.5342C1789.69 63.7733 2494.32 23.5561 2853.76 101.694C3291.52 202.387 3990.46 207.592 4468.25 178.886C4946.04 150.179 5497.37 119.804 5799.59 110.153C6212.43 93.8384 7045.35 54.9152 7504.5 165.038C7907.05 266.401 8621.76 224.092 9013.04 175.26C9501.92 107.899 10044.7 35.938 10508.3 208.382" stroke="white" stroke-width="0.5"/>
<path d="M-1041.91 29.5595C-770.085 18.7896 -125.174 11.9705 279.864 70.853C699.927 129.424 1245.17 120.792 1464.14 95.7388C1781.55 69.1341 2472.99 28.2087 2832.59 99.1206C3267.28 191.649 3978.17 196.637 4458.95 174.289C4939.72 151.941 5495.43 122.428 5797.41 110.008C6213.92 89.0107 7065.74 43.9605 7521.18 156.468C7927.16 262.744 8640.18 222.777 9031.45 169.623C9527.2 94.4479 10078 33.5383 10530.2 202.557" stroke="white" stroke-width="0.5"/>
<path d="M-1042.55 37.5029C-774.052 25.0462 -136.203 14.0936 267.166 69.9367C689.083 125.396 1238.22 124.566 1458.63 100.658C1772.98 75.269 2450.55 33.599 2810.34 96.9125C3241.78 180.855 3965.24 185.615 4449.16 169.954C4933.08 154.292 5493.4 125.686 5795.12 110.353C6215.49 84.4321 7087.18 32.939 7538.71 147.953C7948.3 259.396 8659.54 221.891 9050.82 164.193C9553.8 80.8014 10113 31.5127 10553.3 196.93" stroke="white" stroke-width="0.5"/>
<path d="M-1043.23 46.3802C-778.211 32.154 -147.77 16.8652 253.848 69.52C677.71 121.714 1230.93 129.07 1452.85 106.363C1763.99 82.2493 2427.01 39.7981 2787 95.1408C3215.03 170.076 3951.68 174.597 4438.89 165.95C4926.11 157.303 5491.26 129.647 5792.72 111.26C6217.14 80.1734 7109.68 21.9215 7557.12 139.565C7970.49 256.428 8679.86 221.506 9071.14 159.042C9581.7 67.0304 10149.8 29.9323 10577.5 191.571" stroke="white" stroke-width="0.5"/>
<path d="M-1043.94 56.2491C-782.566 40.1706 -159.881 20.343 239.905 69.6604C665.804 118.437 1223.29 134.361 1446.79 112.911C1754.58 90.1324 2402.37 46.8635 2762.56 93.8628C3187.03 159.37 3937.48 163.641 4428.15 162.336C4918.81 161.031 5489.03 134.371 5790.2 112.785C6218.87 76.2923 7133.22 10.9657 7576.37 131.362C7993.7 253.899 8701.13 221.68 9092.41 154.226C9610.89 53.1923 10188.2 28.8546 10602.8 186.538" stroke="white" stroke-width="0.5"/>
<path d="M-1044.67 67.1623C-787.115 49.1489 -172.531 24.5798 225.34 70.4108C653.366 115.618 1215.31 140.492 1440.47 120.355C1744.76 98.9713 2376.63 54.8482 2737.04 93.1315C3157.79 148.789 3922.65 152.799 4416.92 159.164C4911.19 165.53 5486.69 139.909 5787.57 114.982C6220.67 72.8416 7157.82 0.124402 7596.5 123.397C8017.96 251.86 8723.35 222.465 9114.63 149.8C9641.4 39.3401 10228.4 28.3325 10629.3 181.885" stroke="white" stroke-width="0.5"/>
<path d="M-1045.44 81.3784C-791.859 61.3474 -185.721 31.8341 210.153 74.0297C640.397 115.514 1207 149.722 1433.88 130.954C1734.51 111.024 2349.8 66.0106 2710.42 95.2053C3127.29 140.593 3907.19 144.33 4405.21 158.693C4903.24 173.056 5484.26 148.52 5784.83 120.11C6222.55 72.0798 7183.47 -8.34393 7617.47 117.927C8043.25 252.571 8746.52 226.12 9137.79 148.02C9673.21 27.7321 10270.3 30.6245 10656.9 179.869" stroke="white" stroke-width="0.5"/>
<path d="M-1046.25 107.57C-796.799 85.4384 -199.455 50.7783 194.342 89.1894C626.895 126.798 1198.34 170.722 1427.02 153.38C1723.84 134.964 2321.86 89.023 2682.71 108.757C3095.54 143.453 3891.09 146.907 4393.03 169.596C4894.97 192.284 5481.72 168.877 5781.97 136.84C6224.5 82.6793 7210.18 -5.76677 7639.31 123.626C8069.58 264.703 8770.63 241.318 9161.91 157.56C9706.32 27.0409 10314 44.403 10685.7 189.163" stroke="white" stroke-width="0.5"/>
<path d="M-1047.08 134.952C-801.932 110.637 -213.728 70.6274 177.909 105.105C612.862 138.686 1189.34 192.708 1419.88 176.848C1712.75 160.005 2292.82 113.101 2653.91 123.001C3062.54 146.585 3874.35 149.744 4380.36 181.086C4886.37 212.429 5479.08 190.194 5779.01 154.388C6226.54 93.8551 7237.93 -2.92927 7662.01 129.708C8096.95 277.472 8795.7 257.273 9186.97 167.634C9740.74 26.4814 10359.3 58.8829 10715.5 198.982" stroke="white" stroke-width="0.5"/>
<path d="M-1047.95 163.511C-807.26 136.931 -228.542 91.369 160.853 121.764C598.297 151.165 1180 215.668 1412.48 201.346C1701.24 186.136 2262.68 138.231 2624.02 137.925C3028.29 149.976 3856.98 152.828 4367.21 193.152C4877.44 233.476 5476.35 212.459 5775.93 172.742C6228.64 105.595 7266.73 0.156288 7685.57 136.161C8125.35 290.865 8821.71 273.973 9212.99 178.231C9776.45 26.0412 10406.4 74.052 10746.5 209.313" stroke="white" stroke-width="0.5"/>
<path d="M-1048.84 193.242C-812.783 164.313 -243.896 112.996 143.175 139.16C583.201 164.227 1170.31 239.595 1404.8 226.866C1689.31 213.349 2231.44 164.407 2593.04 153.522C2992.79 153.62 3838.98 156.155 4353.59 205.788C4868.19 255.421 5473.51 235.666 5772.74 191.894C6230.83 117.892 7296.59 3.48309 7709.99 142.978C8154.79 304.876 8848.68 291.411 9239.95 189.343C9813.48 25.7135 10455.1 89.9034 10778.6 220.15" stroke="white" stroke-width="0.5"/>
<path d="M-1049.77 224.135C-818.499 192.775 -259.791 135.501 124.875 157.284C567.573 177.866 1160.29 264.48 1396.86 253.401C1676.96 241.636 2199.1 191.621 2560.97 169.785C2956.04 157.508 3820.35 159.714 4339.48 218.984C4858.61 278.254 5470.58 259.806 5769.43 211.836C6233.1 130.738 7327.49 7.0429 7735.27 150.151C8185.26 319.496 8876.59 309.579 9267.87 200.962C9851.81 25.4902 10505.6 106.429 10811.9 231.484" stroke="white" stroke-width="0.5"/>
<path d="M-1050.73 256.184C-824.409 222.31 -276.226 158.876 105.953 176.13C551.415 192.073 1149.93 290.315 1388.65 280.943C1664.19 270.99 2165.66 219.865 2527.81 186.705C2918.04 161.632 3801.08 163.498 4324.9 232.734C4848.71 301.969 5467.55 284.871 5766.02 232.561C6235.44 144.125 7359.45 10.8281 7761.41 157.673C8216.78 334.718 8905.46 328.469 9296.73 213.081C9891.44 25.3636 10557.8 123.621 10846.3 243.309" stroke="white" stroke-width="0.5"/>
<path d="M-1051.72 289.38C-830.514 252.91 -293.202 183.113 86.4078 195.688C534.724 206.84 1139.23 317.094 1380.16 309.484C1651.01 301.402 2131.12 249.131 2493.55 204.274C2878.79 165.984 3781.18 167.5 4309.83 247.028C4838.48 326.556 5464.41 310.854 5762.49 254.061C6237.86 158.045 7392.46 14.8307 7788.41 165.534C8249.33 350.533 8935.27 348.074 9326.55 225.691C9932.37 25.3256 10611.8 141.471 10881.8 255.615" stroke="white" stroke-width="0.5"/>
<path d="M-1052.74 323.721C-836.815 284.571 -310.72 208.209 66.2389 215.956C517.501 222.165 1128.18 344.813 1371.41 339.021C1637.4 332.87 2095.48 279.417 2458.21 222.491C2838.29 170.563 3760.64 171.717 4294.29 261.866C4827.93 352.015 5461.18 337.752 5758.85 276.333C6240.35 172.496 7426.52 19.0483 7816.27 173.734C8282.91 366.939 8966.03 368.391 9357.31 238.791C9974.61 25.374 10667.4 159.978 10918.5 268.401" stroke="white" stroke-width="0.5"/>
<path d="M-1053.8 359.2C-843.309 317.288 -328.778 234.157 45.4479 236.928C499.746 238.041 1116.79 373.466 1362.38 369.548C1623.37 365.388 2058.74 310.715 2421.77 241.348C2796.54 175.361 3739.47 176.142 4278.26 277.239C4817.05 378.336 5457.84 365.558 5755.09 299.37C6242.92 187.472 7461.64 23.4739 7844.98 182.264C8317.53 383.93 8997.74 389.413 9389.02 252.373C10018.2 25.5016 10724.8 179.133 10956.3 281.659" stroke="white" stroke-width="0.5"/>
<path d="M-1054.88 395.812C-849.998 351.055 -347.377 260.954 24.0347 258.599C481.46 254.463 1105.07 403.047 1353.09 401.06C1608.92 398.95 2020.9 343.022 2384.24 260.841C2753.54 180.374 3717.67 180.77 4261.76 293.144C4805.84 405.517 5454.41 394.268 5751.23 323.168C6245.58 202.966 7497.8 28.1028 7874.56 191.121C8353.19 401.501 9030.41 411.135 9421.69 266.432C10063 25.7039 10783.8 198.933 10995.2 295.385" stroke="white" stroke-width="0.5"/>
</g>
</svg>
