<svg width="260" height="269" fill="none" xmlns="http://www.w3.org/2000/svg"><path d="M142.72 251.574c-9.372 4.908-16.958 5.355-26.329 0l-93.267-55.782c-3.57-3.57-4.009-8.476 0-10.71l93.267-55.336c8.925-5.355 16.957-4.909 26.329 0l88.358 51.32c10.71 5.801 7.586 12.048-1.785 18.296l-86.573 52.212Z" fill="#0F0E0E" stroke="#fff" stroke-width=".5"/><g filter="url(#a)"><path d="M233.756 182.851c6.058 5.851 4.597 9.407-3.57 16.065v12.941l7.14-4.016c1.976-1.774 2.301-2.993 2.231-5.355v-9.818c-.063-5.845-1.686-7.672-5.801-9.817Z" fill="#F73737"/></g><g filter="url(#b)"><path d="M46.329 209.179v12.941l-23.652-14.28c-2.23-1.785-2.677-3.57-2.677-6.693V189.99c.892 2.232 2.231 4.909 3.57 5.355l22.759 13.834Z" fill="#F73737"/></g><g filter="url(#c)"><path d="M57.484 228.813v-12.495l7.14 4.463v12.495l-7.14-4.463Z" fill="#F73737"/></g><path d="m46.328 222.121 69.616 41.948m0 0v-12.657m0 12.657c8.113 4.932 18.742 4.909 26.775 0m0 0 2.041-1.218m-2.041 1.218v-1.785m0-10.71v3.124m76.309-36.181 11.157-19.601v3.57m-11.157 16.031 3.124-1.865m-3.124 1.865-3.047 1.819m6.171-3.684 8.033-14.166m-8.033 14.166 3.124-1.864m4.909-12.302v3.124m0 0-4.909 9.178m4.909-9.178v3.124m-4.909 6.054 2.454-1.465m0 0 2.455-1.466v-3.123m-2.455 4.589 2.455-4.589m-14.204 11.602 10.634-19.189m-10.634 19.189-2.754 1.644m0 0 9.818-18.601m-9.818 18.601-3.57 2.131m0 0 8.925-18.055m-8.925 18.055-3.57 2.131m0 0 8.479-17.955m-8.479 17.955-3.124 1.865m0 0 7.587-17.588m-7.587 17.588-3.822 2.282m0 0 7.392-17.193m-7.392 17.193-4.092 2.442m0 0 7.468-17.404m-7.468 17.404-3.242 1.936m0 0 6.694-16.662m-6.694 16.662-3.124 1.864m0 0 6.366-16.741m-6.366 16.741-3.124 1.865m0 0 5.355-15.929m-5.355 15.929-3.219 1.922m0 0 5.004-15.619m-5.004 15.619-3.028 1.807m0 0 4.462-15.195m-4.462 15.195-2.678 1.599m0 0 3.57-14.563m-3.57 14.563-3.124 1.864m0 0 3.124-14.642m-3.124 14.642-3.878 2.316m0 0 3.878-15.173m-3.878 15.173-3.708 2.213m0 0 3.708-14.923m-3.708 14.923-3.768 2.249m0 0 3.768-14.726m-3.768 14.726-3.738 2.232m0 0c-.064-.357 2.597-9.967 3.936-14.727m-3.936 14.727-4.096 2.445m0 0 3.57-14.494m-3.57 14.494-3.38 2.017m0 0 3.826-14.726m-3.826 14.726-3.314 1.979m0 0 3.57-14.474m-3.57 14.474-2.868 1.712m0 0 3.314-14.401m-5.355 13.834 2.677-12.067m-2.677 12.067v-7.586m0 0 .892-3.57" stroke="#fff" stroke-width=".5"/><g filter="url(#d)"><path d="M146.378 212.702c15.319-7.234 19.148-19.149 13.191-26.808-8.152 15.127-16.491 18.198-33.615 20.425-23.404-1.702-33.19-15.744-35.744-31.488-2.441-9.997 1.36-12.641 7.234-17.872-3.334-3.194-4.912-5.119-6.808-8.936L45.53 174.405c4.12 2.316 12.517 3.014 13.191 1.702 2.128 13.191 30.722 26.978 31.063 27.659 22.832 15.619 40.849 14.467 56.593 8.936Z" fill="#222"/></g><path d="M126.378 192.703c-35.318-1.702-45.956-23.829-28.084-34.892 3.971 2.628 6.574 3.961 12.339 5.957v8.085c0 11.063 33.616 11.914 33.616 0v-9.362c4.882-1.532 7.423-2.538 11.489-4.68 19.148 14.042 2.128 36.409-29.36 34.892Z" stroke="#fff" stroke-width=".5"/><path d="M90.635 175.257c5.531 39.998 64.252 44.253 72.763 0-10.638 26.807-67.231 19.148-72.763 0Z" stroke="#fff" stroke-width=".5"/><path d="M126.805 185.043c-2.553 0-2.553 3.404 0 3.404 2.554 0 2.554-3.404 0-3.404ZM137.443 183.766c-2.553 0-2.553 3.405 0 3.405s2.553-3.405 0-3.405ZM146.805 179.937c-2.554 0-2.554 3.404 0 3.404 2.553 0 2.553-3.404 0-3.404ZM153.187 174.831c-2.553 0-2.553 3.404 0 3.404s2.554-3.404 0-3.404ZM154.889 168.022c-2.553 0-2.553 3.404 0 3.404s2.554-3.404 0-3.404ZM153.187 161.64c-2.553 0-2.553 3.404 0 3.404s2.554-3.404 0-3.404ZM116.167 183.341c-2.553 0-2.553 3.404 0 3.404s2.553-3.404 0-3.404ZM107.231 179.511c-2.553 0-2.553 3.404 0 3.404s2.553-3.404 0-3.404ZM100.847 174.405c-2.553 0-2.553 3.404 0 3.404s2.554-3.404 0-3.404ZM98.72 168.022c-2.554 0-2.553 3.404 0 3.404s2.553-3.404 0-3.404ZM100.847 161.64c-2.553 0-2.553 3.404 0 3.404s2.554-3.404 0-3.404Z" fill="#fff"/><path d="M126.805 185.043c-2.553 0-2.553 3.404 0 3.404 2.554 0 2.554-3.404 0-3.404ZM137.443 183.766c-2.553 0-2.553 3.405 0 3.405s2.553-3.405 0-3.405ZM146.805 179.937c-2.554 0-2.554 3.404 0 3.404 2.553 0 2.553-3.404 0-3.404ZM153.187 174.831c-2.553 0-2.553 3.404 0 3.404s2.554-3.404 0-3.404ZM154.889 168.022c-2.553 0-2.553 3.404 0 3.404s2.554-3.404 0-3.404ZM153.187 161.64c-2.553 0-2.553 3.404 0 3.404s2.554-3.404 0-3.404ZM116.167 183.341c-2.553 0-2.553 3.404 0 3.404s2.553-3.404 0-3.404ZM107.231 179.511c-2.553 0-2.553 3.404 0 3.404s2.553-3.404 0-3.404ZM100.847 174.405c-2.553 0-2.553 3.404 0 3.404s2.554-3.404 0-3.404ZM98.72 168.022c-2.554 0-2.553 3.404 0 3.404s2.553-3.404 0-3.404ZM100.847 161.64c-2.553 0-2.553 3.404 0 3.404s2.554-3.404 0-3.404Z" stroke="#fff" stroke-width=".5"/><path d="m90.637 145.471 3.404-7.234c26.09 5.168 40.487 4.439 65.955 0l2.978 7.234c-1.702 24.68-68.933 27.233-72.337 0Z" stroke="#fff" stroke-width=".5"/><path d="m92.762 140.79 1.276-2.553c13.191 3.83 44.254 5.958 65.955 0-13.616 15.319-48.934 17.021-67.231 2.553Z" stroke="#fff" stroke-width=".5"/><path d="M100.848 128.533c-84.333-16.756-71.486-95.503 24.681-96.676 92.439 0 116.591 76.511 27.232 95.822-4.776-8.246-13.191-12.846-27.232-12.846-11.49 0-21.276 5.957-24.681 13.7Z" fill="#150F0F" stroke="#fff" stroke-width=".5"/><path d="M87.23 125.044c-5.53-38.719 83.827-34.89 79.998-1.276m-88.507-1.7c-23.828-53.187 118.719-58.719 96.591-1.276m-103.399-2.126c-54.466-83.403 164.249-76.17 110.634-1.276M45.106 83.77c27.236 15.21 37.304 24.892 49.785 43.403m6.808-.425c-10.566-27.33-18.983-42.57-47.232-69.36m54.04 62.126c-5.028-30.742-10.737-48.05-29.786-79.146m30.637-7.659c7.844 34.607 11.438 53.624 8.51 82.975m27.233-82.55c-6.508 30.588-13.061 46.151-8.935 82.55m39.147-74.465c-13.979 28.876-26.304 41.74-29.361 78.72m52.764-62.125c-24.007 22.322-35.641 36.25-46.806 68.508m56.593-42.126c-20.425 7.234-43.402 31.914-49.36 42.126" stroke="#fff" stroke-width=".5"/><path d="M100.848 128.454c7.233-16.174 41.275-20.003 51.912-.851-19.71 3.594-31.127 3.474-51.912.851Z" fill="#F73737"/><path d="M125.953 142.066c-66.806-3.404-83.826-31.913-81.274-58.72 5.107 29.785 32.765 45.955 81.274 47.232 46.381.425 85.954-24.255 82.55-52.339 10.638 48.083-45.53 63.827-82.55 63.827Z" fill="#161616" stroke="#fff" stroke-width=".5"/><path d="M72.763 55.264c-31.488-1.278-3.719 35.544 20.424 34.892 20.851 0-.613-35.162-20.424-34.892ZM126.379 88.876c-15.319-3.404-16.596 28.51 0 37.02 11.488 5.891 17.446-31.913 0-37.02ZM162.973 65.467c-20.85-1.702-13.191 36.601 8.51 41.275 16.17 4.262 9.362-39.14-8.51-41.275ZM137.441 2.924c-20.424 5.106-28.51 45.955-10.213 43.402 23.404-4.681 31.064-49.36 10.213-43.402Z" fill="#161616" stroke="#fff" stroke-width=".5"/><path d="M127.228 95.26c-4.255 0-5.531 8.936 0 14.042 5.958 4.681 7.234-13.616 0-14.042ZM118.293 107.6c3.261-2.005 5.973-.188 8.084 2.979 1.135 1.702 3.83 7.233 2.979 10.212-4.681 1.277-10.638-6.808-11.063-13.191ZM160.844 74.835c-8.936-3.404-7.234 12.766 1.277 15.319 4.68 1.404 7.659-8.936-1.277-15.319Z" fill="#fff"/><path d="M172.758 79.516c-5.957.851-7.233 15.319-1.702 22.552 6.92-3.441 7.234-14.042 1.702-22.552ZM134.888 9.306c-9.787 3.404-10.638 19.148-2.553 16.595 7.233-2.284 11.063-18.297 2.553-16.595ZM122.973 38.666c3.181-8.394 15.319-16.595 19.999-11.914-5.531 11.064-13.886 16.655-19.999 11.915ZM72.763 79.09c2.16-4.264 16.595-4.68 22.552 2.553-4.255 7.66-14.468 5.532-22.552-2.553ZM74.89 60.368c-11.136 0-2.587 11.705 5.957 13.616 9.788.851 2.98-13.616-5.957-13.616Z" fill="#fff"/><path d="M126.805 5.472c8.935-6.379 12.766-4.675 17.446-2.55-7.66-2.126-16.546 3.718-22.128 13.192-2.825 5.113-3.692 8.12-4.68 13.616-1.124 7.486 0 11.064 2.554 14.468-11.36-9.137-3.405-30.637 6.808-38.726ZM137.017 96.962c-2.834-5.965-5.106-6.809-10.638-8.085 4.313 1.593 6.104 3.373 8.51 7.66 1.052 2.398 1.52 3.983 2.128 7.233.706 6.625.238 8.55-.426 12.34-1.621 6.126-2.954 7.757-5.531 9.787 4.255-1.702 7.83-7.241 8.084-8.511 1.702-8.51.851-13.616-2.127-20.424ZM151.059 68.878c6.013-5.468 8.464-4.828 12.765-3.404-4.491-.25-6.784.095-9.786 2.98-1.918 1.842-4.487 6.233-2.979 14.467 1.622 6.86 3.131 10.116 6.809 14.893 4.277 4.89 7.216 6.914 13.616 8.936-5.957 0-11.915-.426-18.723-11.49-5.106-10.212-7.233-20.85-1.702-26.382Z" fill="#161616" stroke="#fff" stroke-width=".5"/><path d="M73.615 52.285c-6.598-.433-8.669 1.697-12.335 5.527 8.51-5.103 19.508-2.602 27.228 3.832 10.213 8.51 13.191 16.17 13.191 21.701 1.726-7 .297-10.553-4.255-16.595-8.737-9.951-14.042-13.19-23.829-14.465Z" fill="#161616"/><path d="M61.275 57.816c3.67-3.832 5.74-5.964 12.34-5.531 9.787 1.274 15.092 4.514 23.83 14.465 4.551 6.042 5.98 9.595 4.254 16.595 0-5.531-2.978-13.19-13.19-21.701-7.722-6.435-18.723-8.936-27.234-3.83M114.04 164.194v12.765m2.978-12.34v14.042m-5.106-3.404v-11.489m8.51 15.744v-14.467m3.405 15.318v-15.318m3.404 15.318v-15.318m2.978 15.318v-15.318m2.979 14.893v-15.319m3.404 14.468v-14.893m3.404 13.616v-14.467m2.979 11.914v-12.34" stroke="#fff" stroke-width=".5"/><defs><filter id="a" x="210.186" y="162.851" width="49.381" height="69.006" filterUnits="userSpaceOnUse" color-interpolation-filters="sRGB"><feFlood flood-opacity="0" result="BackgroundImageFix"/><feColorMatrix in="SourceAlpha" values="0 0 0 0 0 0 0 0 0 0 0 0 0 0 0 0 0 0 127 0" result="hardAlpha"/><feOffset/><feGaussianBlur stdDeviation="10"/><feComposite in2="hardAlpha" operator="out"/><feColorMatrix values="0 0 0 0 0.966667 0 0 0 0 0.2175 0 0 0 0 0.2175 0 0 0 1 0"/><feBlend in2="BackgroundImageFix" result="effect1_dropShadow_410_578"/><feBlend in="SourceGraphic" in2="effect1_dropShadow_410_578" result="shape"/></filter><filter id="b" x="0" y="169.99" width="66.328" height="72.13" filterUnits="userSpaceOnUse" color-interpolation-filters="sRGB"><feFlood flood-opacity="0" result="BackgroundImageFix"/><feColorMatrix in="SourceAlpha" values="0 0 0 0 0 0 0 0 0 0 0 0 0 0 0 0 0 0 127 0" result="hardAlpha"/><feOffset/><feGaussianBlur stdDeviation="10"/><feComposite in2="hardAlpha" operator="out"/><feColorMatrix values="0 0 0 0 0.966667 0 0 0 0 0.2175 0 0 0 0 0.2175 0 0 0 1 0"/><feBlend in2="BackgroundImageFix" result="effect1_dropShadow_410_578"/><feBlend in="SourceGraphic" in2="effect1_dropShadow_410_578" result="shape"/></filter><filter id="c" x="37.484" y="196.318" width="47.141" height="56.958" filterUnits="userSpaceOnUse" color-interpolation-filters="sRGB"><feFlood flood-opacity="0" result="BackgroundImageFix"/><feColorMatrix in="SourceAlpha" values="0 0 0 0 0 0 0 0 0 0 0 0 0 0 0 0 0 0 127 0" result="hardAlpha"/><feOffset/><feGaussianBlur stdDeviation="10"/><feComposite in2="hardAlpha" operator="out"/><feColorMatrix values="0 0 0 0 0.966667 0 0 0 0 0.2175 0 0 0 0 0.2175 0 0 0 1 0"/><feBlend in2="BackgroundImageFix" result="effect1_dropShadow_410_578"/><feBlend in="SourceGraphic" in2="effect1_dropShadow_410_578" result="shape"/></filter><filter id="d" x="35.531" y="138.023" width="136.711" height="88.421" filterUnits="userSpaceOnUse" color-interpolation-filters="sRGB"><feFlood flood-opacity="0" result="BackgroundImageFix"/><feBlend in="SourceGraphic" in2="BackgroundImageFix" result="shape"/><feGaussianBlur stdDeviation="5" result="effect1_foregroundBlur_410_578"/></filter></defs></svg>