<svg width="491" height="194" viewBox="0 0 491 194" fill="none" xmlns="http://www.w3.org/2000/svg">
<path d="M-7279.16 1.21987C-6993.17 -2.35643 -6318.14 8.45194 -5905.99 80.2958C-5493.83 152.14 -4965.17 110.231 -4752.36 80.2958C-4421.92 48.5065 -3671.33 10.7567 -3312.51 114.072C-2863.99 243.216 -2206.69 249.176 -1739.32 198.314C-1271.94 147.451 -735.884 114.072 -432.812 114.072C-32.7793 114.072 734.288 96.4977 1206.38 198.314C1596.98 282.555 2317.58 232.09 2708.86 198.314C3173.8 158.179 3688.6 47.7117 4191.81 232.09" stroke="#505050" stroke-width="0.5"/>
<path d="M-7296 433.553C-7096.88 385.869 -6606.52 288.594 -6238 280.964C-5777.36 271.427 -5147 433.553 -4896.48 433.553C-4645.95 433.553 -4258.04 376.332 -3894.37 280.964C-3530.71 185.596 -2544.77 185.597 -1995.23 309.575C-1445.69 433.553 -789.124 423.876 -492.749 347.722C8.30198 218.975 1295.02 32.9307 1665 200.3C2149.89 419.646 2824.02 433.553 3215.3 280.964C3869.15 25.9764 4604.64 219.374 4795.23 309.575" stroke="#505050" stroke-width="0.5"/>
<path d="M-7279.65 5.63758C-6996.16 0.787989 -6326.47 8.4762 -5915.57 78.0258C-5502.02 147.52 -4970.42 111.501 -4756.52 82.4307C-4428.38 51.5591 -3688.26 13.2472 -3329.3 110.827C-2883.23 233.49 -2216.45 239.278 -1746.7 193.463C-1276.95 147.647 -737.418 114.952 -434.54 112.754C-31.5911 109.037 750.478 86.5998 1219.62 190.308C1612.95 278.45 2332.2 229.843 2723.48 192.637C3193.87 146.3 3715.05 44.6044 4209.23 226.264" stroke="#505050" stroke-width="0.5"/>
<path d="M-7280.17 10.6004C-6999.35 4.39481 -6335.33 8.7602 -5925.78 75.8665C-5510.73 142.859 -4976.01 113.113 -4760.95 84.9625C-4435.27 55.0682 -3706.3 16.1577 -3347.19 107.629C-2903.73 223.39 -2226.85 228.995 -1754.57 188.555C-1282.29 148.114 -739.056 116.148 -436.384 111.609C-30.329 103.934 767.715 76.3171 1233.72 182.041C1629.94 274.336 2347.77 227.708 2739.05 186.849C3215.25 133.907 3743.21 41.5534 4227.78 220.317" stroke="#505050" stroke-width="0.5"/>
<path d="M-7280.72 16.1864C-7002.74 8.54211 -6344.74 9.38201 -5936.61 73.8961C-5519.98 138.234 -4981.94 115.143 -4765.65 87.9692C-4442.58 59.1118 -3725.44 19.5662 -3366.17 104.557C-2925.48 212.995 -2237.87 218.405 -1762.92 183.668C-1287.96 148.93 -740.794 117.738 -438.34 110.714C-28.9902 98.8399 786.004 65.7278 1248.68 173.59C1647.98 270.292 2364.29 225.763 2755.57 181.029C3237.93 121.079 3773.09 38.6368 4247.46 214.329" stroke="#505050" stroke-width="0.5"/>
<path d="M-7281.3 22.479C-7006.31 13.3133 -6354.69 10.425 -5948.06 72.1978C-5529.76 133.729 -4988.21 117.676 -4770.62 91.5342C-4450.31 63.7733 -3745.68 23.5561 -3386.24 101.694C-2948.48 202.387 -2249.54 207.592 -1771.75 178.886C-1293.96 150.179 -742.63 119.804 -440.407 110.153C-27.5728 93.8384 805.346 54.9152 1264.5 165.038C1667.05 266.401 2381.76 224.092 2773.04 175.26C3261.92 107.899 3804.69 35.938 4268.28 208.382" stroke="#505050" stroke-width="0.5"/>
<path d="M-7281.91 29.5595C-7010.08 18.7896 -6365.17 11.9705 -5960.14 70.853C-5540.07 129.424 -4994.83 120.792 -4775.86 95.7388C-4458.45 69.1341 -3767.01 28.2087 -3407.41 99.1206C-2972.72 191.649 -2261.83 196.637 -1781.05 174.289C-1300.28 151.941 -744.567 122.428 -442.587 110.008C-26.0794 89.0107 825.738 43.9605 1281.18 156.468C1687.16 262.744 2400.18 222.777 2791.45 169.623C3287.2 94.4479 3838 33.5383 4290.22 202.557" stroke="#505050" stroke-width="0.5"/>
<path d="M-7282.55 37.5029C-7014.05 25.0462 -6376.2 14.0936 -5972.83 69.9367C-5550.92 125.396 -5001.78 124.566 -4781.37 100.658C-4467.02 75.269 -3789.45 33.599 -3429.66 96.9125C-2998.22 180.855 -2274.76 185.615 -1790.84 169.954C-1306.92 154.292 -746.604 125.686 -444.881 110.353C-24.5094 84.4321 847.181 32.939 1298.71 147.953C1708.3 259.396 2419.54 221.891 2810.82 164.193C3313.8 80.8014 3873.03 31.5127 4313.3 196.93" stroke="#505050" stroke-width="0.5"/>
<path d="M-7283.23 46.3802C-7018.21 32.154 -6387.77 16.8652 -5986.15 69.52C-5562.29 121.714 -5009.07 129.07 -4787.15 106.363C-4476.01 82.2493 -3812.99 39.7981 -3453 95.1408C-3024.97 170.076 -2288.32 174.597 -1801.11 165.95C-1313.89 157.303 -748.738 129.647 -447.283 111.26C-22.8589 80.1734 869.679 21.9215 1317.12 139.565C1730.49 256.428 2439.86 221.506 2831.14 159.042C3341.7 67.0304 3909.78 29.9323 4337.51 191.571" stroke="#505050" stroke-width="0.5"/>
<path d="M-7283.94 56.2491C-7022.57 40.1706 -6399.88 20.343 -6000.1 69.6604C-5574.2 118.437 -5016.71 134.361 -4793.21 112.911C-4485.42 90.1324 -3837.63 46.8635 -3477.44 93.8628C-3052.97 159.37 -2302.52 163.641 -1811.85 162.336C-1321.19 161.031 -750.974 134.371 -449.801 112.785C-21.135 76.2923 893.225 10.9657 1336.37 131.362C1753.7 253.899 2461.13 221.68 2852.41 154.226C3370.89 53.1923 3948.25 28.8546 4362.85 186.538" stroke="#505050" stroke-width="0.5"/>
<path d="M-7284.67 67.1623C-7027.12 49.1489 -6412.53 24.5798 -6014.66 70.4108C-5586.63 115.618 -5024.69 140.492 -4799.53 120.355C-4495.24 98.9713 -3863.37 54.8482 -3502.96 93.1315C-3082.21 148.789 -2317.35 152.799 -1823.08 159.164C-1328.81 165.53 -753.309 139.909 -452.43 114.982C-19.3319 72.8416 917.824 0.124402 1356.5 123.397C1777.96 251.86 2483.35 222.465 2874.63 149.8C3401.4 39.3401 3988.44 28.3325 4389.32 181.885" stroke="#505050" stroke-width="0.5"/>
<path d="M-7285.44 81.3784C-7031.86 61.3474 -6425.72 31.8341 -6029.85 74.0297C-5599.6 115.514 -5033 149.722 -4806.12 130.954C-4505.49 111.024 -3890.2 66.0106 -3529.58 95.2053C-3112.71 140.593 -2332.81 144.33 -1834.79 158.693C-1336.76 173.056 -755.744 148.52 -455.171 120.11C-17.4521 72.0798 943.475 -8.34393 1377.47 117.927C1803.25 252.571 2506.52 226.12 2897.79 148.02C3433.21 27.7321 4030.34 30.6245 4416.92 179.869" stroke="#505050" stroke-width="0.5"/>
<path d="M-7286.25 107.57C-7036.8 85.4384 -6439.45 50.7783 -6045.66 89.1894C-5613.1 126.798 -5041.66 170.722 -4812.98 153.38C-4516.16 134.964 -3918.14 89.023 -3557.29 108.757C-3144.46 143.453 -2348.91 146.907 -1846.97 169.596C-1345.03 192.284 -758.28 168.877 -458.025 136.84C-15.4964 82.6793 970.176 -5.76677 1399.31 123.626C1829.58 264.703 2530.63 241.318 2921.91 157.56C3466.32 27.0409 4073.96 44.403 4445.66 189.163" stroke="#505050" stroke-width="0.5"/>
<path d="M-7287.08 134.952C-7041.93 110.637 -6453.73 70.6274 -6062.09 105.105C-5627.14 138.686 -5050.66 192.708 -4820.12 176.848C-4527.25 160.005 -3947.18 113.101 -3586.09 123.001C-3177.46 146.585 -2365.65 149.744 -1859.64 181.086C-1353.63 212.429 -760.916 190.194 -460.993 154.388C-13.4641 93.8551 997.927 -2.92927 1422.01 129.708C1856.95 277.472 2555.7 257.273 2946.97 167.634C3500.74 26.4814 4119.3 58.8829 4475.52 198.982" stroke="#505050" stroke-width="0.5"/>
<path d="M-7287.95 163.511C-7047.26 136.931 -6468.54 91.369 -6079.15 121.764C-5641.7 151.165 -5060 215.668 -4827.52 201.346C-4538.76 186.136 -3977.32 138.231 -3615.98 137.925C-3211.71 149.976 -2383.02 152.828 -1872.79 193.152C-1362.56 233.476 -763.652 212.459 -464.073 172.742C-11.3551 105.595 1026.73 0.156288 1445.57 136.161C1885.35 290.865 2581.71 273.973 2972.99 178.231C3536.45 26.0412 4166.35 74.052 4506.51 209.313" stroke="#505050" stroke-width="0.5"/>
<path d="M-7288.84 193.242C-7052.78 164.313 -6483.9 112.996 -6096.82 139.16C-5656.8 164.227 -5069.69 239.595 -4835.2 226.866C-4550.69 213.349 -4008.56 164.407 -3646.96 153.522C-3247.21 153.62 -2401.02 156.155 -1886.41 205.788C-1371.81 255.421 -766.485 235.666 -467.263 191.894C-9.16622 117.892 1056.59 3.48309 1469.99 142.978C1914.79 304.876 2608.68 291.411 2999.95 189.343C3573.48 25.7135 4215.13 89.9034 4538.65 220.15" stroke="#505050" stroke-width="0.5"/>
<path d="M-7289.77 224.135C-7058.5 192.775 -6499.79 135.501 -6115.13 157.284C-5672.43 177.866 -5079.71 264.48 -4843.14 253.401C-4563.04 241.636 -4040.9 191.621 -3679.03 169.785C-3283.96 157.508 -2419.65 159.714 -1900.52 218.984C-1381.39 278.254 -769.421 259.806 -470.568 211.836C-6.90268 130.738 1087.49 7.0429 1495.27 150.151C1945.26 319.496 2636.59 309.579 3027.87 200.962C3611.81 25.4902 4265.62 106.429 4571.9 231.484" stroke="#505050" stroke-width="0.5"/>
<path d="M-7290.73 256.184C-7064.41 222.31 -6516.23 158.876 -6134.05 176.13C-5688.59 192.073 -5090.07 290.315 -4851.35 280.943C-4575.81 270.99 -4074.34 219.865 -3712.19 186.705C-3321.96 161.632 -2438.92 163.498 -1915.1 232.734C-1391.29 301.969 -772.454 284.871 -473.982 232.561C-4.55996 144.125 1119.45 10.8281 1521.41 157.673C1976.78 334.718 2665.46 328.469 3056.73 213.081C3651.44 25.3636 4317.83 123.621 4606.3 243.309" stroke="#505050" stroke-width="0.5"/>
<path d="M-7291.72 289.38C-7070.51 252.91 -6533.2 183.113 -6153.59 195.688C-5705.28 206.84 -5100.77 317.094 -4859.84 309.484C-4588.99 301.402 -4108.88 249.131 -3746.45 204.274C-3361.21 165.984 -2458.82 167.5 -1930.17 247.028C-1401.52 326.556 -775.588 310.854 -477.511 254.061C-2.14182 158.045 1152.46 14.8307 1548.41 165.534C2009.33 350.533 2695.27 348.074 3086.55 225.691C3692.37 25.3256 4371.75 141.471 4641.82 255.615" stroke="#505050" stroke-width="0.5"/>
<path d="M-7292.74 323.721C-7076.81 284.571 -6550.72 208.209 -6173.76 215.956C-5722.5 222.165 -5111.82 344.813 -4868.59 339.021C-4602.6 332.87 -4144.52 279.417 -3781.79 222.491C-3401.71 170.563 -2479.36 171.717 -1945.71 261.866C-1412.07 352.015 -778.823 337.752 -481.153 276.333C0.352873 172.496 1186.52 19.0483 1576.27 173.734C2042.91 366.939 2726.03 368.391 3117.31 238.791C3734.61 25.374 4427.4 159.978 4678.47 268.401" stroke="#505050" stroke-width="0.5"/>
<path d="M-7293.8 359.2C-7083.31 317.288 -6568.78 234.157 -6194.55 236.928C-5740.25 238.041 -5123.21 373.466 -4877.62 369.548C-4616.63 365.388 -4181.26 310.715 -3818.23 241.348C-3443.46 175.361 -2500.53 176.142 -1961.74 277.239C-1422.95 378.336 -782.158 365.558 -484.906 299.37C2.92487 187.472 1221.64 23.4739 1604.98 182.264C2077.53 383.93 2757.74 389.413 3149.02 252.373C3778.16 25.5016 4484.76 179.133 4716.26 281.659" stroke="#505050" stroke-width="0.5"/>
<path d="M-7294.88 395.812C-7090 351.055 -6587.38 260.954 -6215.97 258.599C-5758.54 254.463 -5134.93 403.047 -4886.91 401.06C-4631.08 398.95 -4219.1 343.022 -3855.76 260.841C-3486.46 180.374 -2522.33 180.77 -1978.24 293.144C-1434.16 405.517 -785.59 394.268 -488.771 323.168C5.57545 202.966 1257.8 28.1028 1634.56 191.121C2113.19 401.501 2790.41 411.135 3181.69 266.432C3823 25.7039 4543.84 198.933 4755.18 295.385" stroke="#505050" stroke-width="0.5"/>
</svg>
