<svg width="491" height="194" viewBox="0 0 491 194" fill="none" xmlns="http://www.w3.org/2000/svg">
<path d="M-8837.16 1.21987C-8551.17 -2.35643 -7876.14 8.45194 -7463.99 80.2958C-7051.83 152.14 -6523.17 110.231 -6310.36 80.2958C-5979.91 48.5065 -5229.32 10.7567 -4870.51 114.072C-4421.99 243.216 -3764.69 249.176 -3297.31 198.314C-2829.94 147.451 -2293.88 114.072 -1990.81 114.072C-1590.78 114.072 -823.71 96.4977 -351.619 198.314C38.9858 282.555 759.584 232.09 1150.86 198.314C1615.8 158.179 2130.6 47.7117 2633.81 232.09" stroke="#505050" stroke-width="0.5"/>
<path d="M-8854 433.553C-8654.88 385.869 -8164.51 288.594 -7796 280.964C-7335.36 271.427 -6705 433.553 -6454.47 433.553C-6203.95 433.553 -5816.04 376.332 -5452.37 280.964C-5088.71 185.596 -4102.77 185.597 -3553.23 309.575C-3003.69 433.553 -2347.12 423.876 -2050.75 347.722C-1549.7 218.975 -262.982 32.9307 107.005 200.3C591.893 419.646 1266.02 433.553 1657.3 280.964C2311.16 25.9764 3046.64 219.374 3237.23 309.575" stroke="#505050" stroke-width="0.5"/>
<path d="M-8837.65 5.63758C-8554.16 0.787989 -7884.46 8.4762 -7473.57 78.0258C-7060.01 147.52 -6528.42 111.501 -6314.51 82.4307C-5986.38 51.5591 -5246.26 13.2472 -4887.3 110.827C-4441.23 233.49 -3774.45 239.278 -3304.7 193.463C-2834.95 147.647 -2295.42 114.952 -1992.54 112.754C-1589.59 109.037 -807.52 86.5998 -338.377 190.308C54.9496 278.45 774.206 229.843 1165.48 192.637C1635.88 146.3 2157.05 44.6044 2651.23 226.264" stroke="#505050" stroke-width="0.5"/>
<path d="M-8838.16 10.6004C-8557.35 4.39481 -7893.33 8.7602 -7483.78 75.8665C-7068.73 142.859 -6534.01 113.113 -6318.95 84.9625C-5993.27 55.0682 -5264.3 16.1577 -4905.19 107.629C-4461.73 223.39 -3784.84 228.995 -3312.57 188.555C-2840.29 148.114 -2297.05 116.148 -1994.38 111.609C-1588.33 103.934 -790.283 76.3171 -324.278 182.041C71.9465 274.336 789.774 227.708 1181.05 186.849C1657.25 133.907 2185.21 41.5534 2669.78 220.317" stroke="#505050" stroke-width="0.5"/>
<path d="M-8838.71 16.1864C-8560.73 8.54211 -7902.74 9.38201 -7494.61 73.8961C-7077.98 138.234 -6539.94 115.143 -6323.65 87.9692C-6000.58 59.1118 -5283.44 19.5662 -4924.17 104.557C-4483.48 212.995 -3795.87 218.405 -3320.92 183.668C-2845.96 148.93 -2298.79 117.738 -1996.34 110.714C-1586.99 98.8399 -771.994 65.7278 -309.32 173.59C89.9804 270.292 806.292 225.763 1197.57 181.029C1679.93 121.079 2215.09 38.6368 2689.46 214.329" stroke="#505050" stroke-width="0.5"/>
<path d="M-8839.29 22.479C-8564.31 13.3133 -7912.68 10.425 -7506.06 72.1978C-7087.76 133.729 -6546.21 117.676 -6328.62 91.5342C-6008.3 63.7733 -5303.67 23.5561 -4944.24 101.694C-4506.47 202.387 -3807.53 207.592 -3329.74 178.886C-2851.95 150.179 -2300.63 119.804 -1998.4 110.153C-1585.57 93.8384 -752.652 54.9152 -293.5 165.038C109.052 266.401 823.761 224.092 1215.04 175.26C1703.92 107.899 2246.69 35.938 2710.28 208.382" stroke="#505050" stroke-width="0.5"/>
<path d="M-8839.91 29.5595C-8568.08 18.7896 -7923.17 11.9705 -7518.13 70.853C-7098.07 129.424 -6552.82 120.792 -6333.86 95.7388C-6016.45 69.1341 -5325.01 28.2087 -4965.4 99.1206C-4530.72 191.649 -3819.83 196.637 -3339.05 174.289C-2858.27 151.941 -2302.56 122.428 -2000.59 110.008C-1584.08 89.0107 -732.26 43.9605 -276.821 156.468C129.16 262.744 842.179 222.777 1233.46 169.623C1729.21 94.4479 2280 33.5383 2732.22 202.557" stroke="#505050" stroke-width="0.5"/>
<path d="M-8840.55 37.5029C-8572.05 25.0462 -7934.2 14.0936 -7530.83 69.9367C-7108.91 125.396 -6559.78 124.566 -6339.37 100.658C-6025.02 75.269 -5347.45 33.599 -4987.66 96.9125C-4556.22 180.855 -3832.76 185.615 -3348.84 169.954C-2864.92 154.292 -2304.6 125.686 -2002.88 110.353C-1582.51 84.4321 -710.817 32.939 -259.283 147.953C150.304 259.396 861.546 221.891 1252.82 164.193C1755.8 80.8014 2315.03 31.5127 2755.3 196.93" stroke="#505050" stroke-width="0.5"/>
<path d="M-8841.23 46.3802C-8576.21 32.154 -7945.77 16.8652 -7544.15 69.52C-7120.29 121.714 -6567.07 129.07 -6345.15 106.363C-6034.01 82.2493 -5370.99 39.7981 -5011 95.1408C-4582.97 170.076 -3846.32 174.597 -3359.1 165.95C-2871.89 157.303 -2306.74 129.647 -2005.28 111.26C-1580.86 80.1734 -688.319 21.9215 -240.881 139.565C172.488 256.428 881.867 221.506 1273.14 159.042C1783.7 67.0304 2351.79 29.9323 2779.51 191.571" stroke="#505050" stroke-width="0.5"/>
<path d="M-8841.93 56.2491C-8580.56 40.1706 -7957.88 20.343 -7558.09 69.6604C-7132.19 118.437 -6574.71 134.361 -6351.21 112.911C-6043.42 90.1324 -5395.63 46.8635 -5035.43 93.8628C-4610.97 159.37 -3860.52 163.641 -3369.85 162.336C-2879.19 161.031 -2308.97 134.371 -2007.8 112.785C-1579.13 76.2923 -664.773 10.9657 -221.623 131.362C195.705 253.899 903.132 221.68 1294.41 154.226C1812.9 53.1923 2390.25 28.8546 2804.85 186.538" stroke="#505050" stroke-width="0.5"/>
<path d="M-8842.67 67.1623C-8585.11 49.1489 -7970.53 24.5798 -7572.66 70.4108C-7144.63 115.618 -6582.68 140.492 -6357.53 120.355C-6053.24 98.9713 -5421.36 54.8482 -5060.96 93.1315C-4640.21 148.789 -3875.35 152.799 -3381.08 159.164C-2886.81 165.53 -2311.31 139.909 -2010.43 114.982C-1577.33 72.8416 -640.174 0.124402 -201.503 123.397C219.962 251.86 925.35 222.465 1316.63 149.8C1843.4 39.3401 2430.44 28.3325 2831.32 181.885" stroke="#505050" stroke-width="0.5"/>
<path d="M-8843.44 81.3784C-8589.86 61.3474 -7983.72 31.8341 -7587.84 74.0297C-7157.6 115.514 -6591 149.722 -6364.12 130.954C-6063.49 111.024 -5448.2 66.0106 -5087.58 95.2053C-4670.71 140.593 -3890.81 144.33 -3392.78 158.693C-2894.75 173.056 -2313.74 148.52 -2013.17 120.11C-1575.45 72.0798 -614.524 -8.34393 -180.523 117.927C245.255 252.571 948.517 226.12 1339.79 148.02C1875.21 27.7321 2472.34 30.6245 2858.92 179.869" stroke="#505050" stroke-width="0.5"/>
<path d="M-8844.24 107.57C-8594.8 85.4384 -7997.45 50.7783 -7603.66 89.1894C-7171.1 126.798 -6599.66 170.722 -6370.98 153.38C-6074.16 134.964 -5476.14 89.023 -5115.28 108.757C-4702.46 143.453 -3906.91 146.907 -3404.97 169.596C-2903.03 192.284 -2316.28 168.877 -2016.02 136.84C-1573.49 82.6793 -587.822 -5.76677 -158.684 123.626C271.583 264.703 972.633 241.318 1363.91 157.56C1908.32 27.0409 2515.96 44.403 2887.66 189.163" stroke="#505050" stroke-width="0.5"/>
<path d="M-8845.08 134.952C-8599.93 110.637 -8011.73 70.6274 -7620.09 105.105C-7185.14 138.686 -6608.66 192.708 -6378.12 176.848C-6085.25 160.005 -5505.18 113.101 -5144.08 123.001C-4735.46 146.585 -3923.65 149.744 -3417.64 181.086C-2911.63 212.429 -2318.91 190.194 -2018.99 154.388C-1571.46 93.8551 -560.071 -2.92927 -135.986 129.708C298.948 277.472 997.697 257.273 1388.98 167.634C1942.74 26.4814 2561.3 58.8829 2917.52 198.982" stroke="#505050" stroke-width="0.5"/>
<path d="M-8845.94 163.511C-8605.26 136.931 -8026.54 91.369 -7637.15 121.764C-7199.7 151.165 -6618 215.668 -6385.52 201.346C-6096.76 186.136 -5535.32 138.231 -5173.98 137.925C-4769.71 149.976 -3941.01 152.828 -3430.78 193.152C-2920.56 233.476 -2321.65 212.459 -2022.07 172.742C-1569.35 105.595 -531.268 0.156288 -112.428 136.161C327.349 290.865 1023.71 273.973 1414.99 178.231C1978.46 26.0412 2608.35 74.052 2948.52 209.313" stroke="#505050" stroke-width="0.5"/>
<path d="M-8846.84 193.242C-8610.78 164.313 -8041.89 112.996 -7654.82 139.16C-7214.8 164.227 -6627.68 239.595 -6393.19 226.866C-6108.69 213.349 -5566.56 164.407 -5204.96 153.522C-4805.21 153.62 -3959.01 156.155 -3444.41 205.788C-2929.81 255.421 -2324.48 235.666 -2025.26 191.894C-1567.16 117.892 -501.411 3.48309 -88.008 142.978C356.79 304.876 1050.68 291.411 1441.96 189.343C2015.48 25.7135 2657.13 89.9034 2980.65 220.15" stroke="#505050" stroke-width="0.5"/>
<path d="M-8847.77 224.135C-8616.5 192.775 -8057.79 135.501 -7673.12 157.284C-7230.42 177.866 -6637.71 264.48 -6401.14 253.401C-6121.04 241.636 -5598.9 191.621 -5237.03 169.785C-4841.96 157.508 -3977.65 159.714 -3458.52 218.984C-2939.38 278.254 -2327.42 259.806 -2028.57 211.836C-1564.9 130.738 -470.504 7.0429 -62.7289 150.151C387.265 319.496 1078.59 309.579 1469.87 200.962C2053.81 25.4902 2707.62 106.429 3013.91 231.484" stroke="#505050" stroke-width="0.5"/>
<path d="M-8848.73 256.184C-8622.41 222.31 -8074.22 158.876 -7692.05 176.13C-7246.58 192.073 -6648.07 290.315 -6409.35 280.943C-6133.8 270.99 -5632.34 219.865 -5270.19 186.705C-4879.96 161.632 -3996.92 163.498 -3473.1 232.734C-2949.29 301.969 -2330.45 284.871 -2031.98 232.561C-1562.56 144.125 -438.545 10.8281 -36.5884 157.673C418.78 334.718 1107.46 328.469 1498.74 213.081C2093.44 25.3636 2759.83 123.621 3048.3 243.309" stroke="#505050" stroke-width="0.5"/>
<path d="M-8849.72 289.38C-8628.51 252.91 -8091.2 183.113 -7711.59 195.688C-7263.27 206.84 -6658.77 317.094 -6417.83 309.484C-6146.99 301.402 -5666.88 249.131 -5304.44 204.274C-4919.21 165.984 -4016.82 167.5 -3488.17 247.028C-2959.51 326.556 -2333.59 310.854 -2035.51 254.061C-1560.14 158.045 -405.536 14.8307 -9.59036 165.534C451.328 350.533 1137.27 348.074 1528.55 225.691C2134.38 25.3256 2813.76 141.471 3083.82 255.615" stroke="#505050" stroke-width="0.5"/>
<path d="M-8850.74 323.721C-8634.81 284.571 -8108.72 208.209 -7731.76 215.956C-7280.5 222.165 -6669.82 344.813 -6426.59 339.021C-6160.6 332.87 -5702.52 279.417 -5339.79 222.491C-4959.71 170.563 -4037.36 171.717 -3503.71 261.866C-2970.07 352.015 -2336.82 337.752 -2039.15 276.333C-1557.65 172.496 -371.475 19.0483 18.2679 173.734C484.914 366.939 1168.03 368.391 1559.31 238.791C2176.62 25.374 2869.4 159.978 3120.48 268.401" stroke="#505050" stroke-width="0.5"/>
<path d="M-8851.79 359.2C-8641.31 317.288 -8126.78 234.157 -7752.55 236.928C-7298.25 238.041 -6681.21 373.466 -6435.62 369.548C-6174.63 365.388 -5739.26 310.715 -5376.23 241.348C-5001.46 175.361 -4058.53 176.142 -3519.74 277.239C-2980.95 378.336 -2340.16 365.558 -2042.9 299.37C-1555.07 187.472 -336.363 23.4739 46.9866 182.264C519.536 383.93 1199.75 389.413 1591.02 252.373C2220.16 25.5016 2926.76 179.133 3158.26 281.659" stroke="#505050" stroke-width="0.5"/>
<path d="M-8852.88 395.812C-8648 351.055 -8145.37 260.954 -7773.96 258.599C-7316.54 254.463 -6692.93 403.047 -6444.91 401.06C-6189.08 398.95 -5777.1 343.022 -5413.75 260.841C-5044.46 180.374 -4080.33 180.77 -3536.24 293.144C-2992.16 405.517 -2343.59 394.268 -2046.77 323.168C-1552.42 202.966 -300.198 28.1028 76.5661 191.121C555.197 401.501 1232.41 411.135 1623.69 266.432C2265.01 25.7039 2985.84 198.933 3197.18 295.385" stroke="#505050" stroke-width="0.5"/>
</svg>
