<svg width="258" height="263" fill="none" xmlns="http://www.w3.org/2000/svg"><path d="M144.202 243.678c-11.012 5.768-19.927 6.292-30.938 0L3.67 178.131c-4.195-4.194-4.71-9.959 0-12.584l109.594-65.022c10.487-6.293 19.926-5.768 30.938 0l103.825 60.302c12.585 6.817 8.914 14.158-2.098 21.499l-101.727 61.352Z" fill="#0F0E0E" stroke="#fff" stroke-width=".5"/><path d="M251.173 162.925c7.12 6.876 5.403 11.054-4.194 18.877v15.207l8.389-4.719c2.323-2.085 2.705-3.517 2.622-6.293v-11.536c-.074-6.868-1.981-9.016-6.817-11.536ZM30.938 193.862v15.207l-27.792-16.78C.524 190.192 0 188.094 0 184.424v-13.11c1.049 2.622 2.622 5.769 4.195 6.293l26.743 16.255ZM44.047 216.934v-14.682l8.39 5.244v14.682l-8.39-5.244Z" fill="#F73737"/><path d="m30.938 209.069 81.801 49.291m0 0v-14.873m0 14.873c9.533 5.795 22.024 5.768 31.462 0m0 0 2.399-1.432m-2.399 1.432v-2.098m0-12.585v3.671m89.668-42.514 13.109-23.032v4.195m-13.109 18.837 3.67-2.191m-3.67 2.191-3.581 2.138m7.251-4.329 9.439-16.646m-9.439 16.646 3.671-2.191m5.768-14.455v3.67m0 0-5.768 10.785m5.768-10.785v3.671m-5.768 7.114 2.884-1.722m0 0 2.884-1.722v-3.67m-2.884 5.392 2.884-5.392m-16.69 13.634 12.495-22.548m-12.495 22.548-3.236 1.931m0 0 11.536-21.858m-11.536 21.858-4.195 2.504m0 0 10.487-21.215m-10.487 21.215-4.195 2.504m0 0 9.963-21.097m-9.963 21.097-3.671 2.191m0 0 8.915-20.667m-8.915 20.667-4.491 2.682m0 0 8.686-20.202m-8.686 20.202-4.808 2.87m0 0 8.775-20.451m-8.775 20.451-3.81 2.274m0 0 7.866-19.578m-7.866 19.578-3.671 2.191m0 0 7.481-19.672m-7.481 19.672-3.67 2.191m0 0 6.292-18.717m-6.292 18.717-3.783 2.258m0 0 5.88-18.353m-5.88 18.353-3.558 2.124m0 0 5.243-17.855m-5.243 17.855-3.147 1.878m0 0 4.195-17.111m-4.195 17.111-3.67 2.192m0 0 3.67-17.206m-3.67 17.206-4.558 2.72m0 0 4.558-17.828m-4.558 17.828-4.356 2.601m0 0 4.356-17.535m-4.356 17.535-4.428 2.643m0 0 4.428-17.304m-4.428 17.304-4.393 2.622m0 0c-.075-.42 3.053-11.711 4.626-17.304m-4.626 17.304-4.813 2.873m0 0 4.195-17.031m-4.195 17.031-3.971 2.371m0 0 4.495-17.305m-4.495 17.305-3.895 2.325m0 0 4.195-17.008m-4.195 17.008-3.369 2.011m0 0 3.894-16.921m-6.293 16.255 3.147-14.179m-3.147 14.179v-8.914m0 0 1.049-4.195" stroke="#fff" stroke-width=".5"/><g filter="url(#a)"><path d="M233.5 162.316 148.5 218c-13.385 5.782-21.114 7.086-36 0L21 162.316l39.765-30.2L116.112 125 233.5 162.316Z" fill="#222"/></g><path d="M112 197c12 7 22 7.5 33.5 0l75.5-44.704V69l-79 46.5c-10.411 5.358-16.328 5.23-27 0l-77-46v84l74 43.5Z" fill="#150F0F"/><path d="m221.5 152-.5.296m0 0L145.5 197c-11.5 7.5-21.5 7-33.5 0l-74-43.5v-84l77 46c10.672 5.23 16.589 5.358 27 0L221 69v83.296Z" stroke="#fff" stroke-width=".5"/><path d="M62.502 113.5c-6.002 0-4.502 10 2.5 12 5.998 0 1.498-12-2.5-12Z" fill="#150F0F" stroke="#fff" stroke-width=".5"/><path d="m71.5 107-11 7c5-2.5 8.5 6 7 10.5l13-8c0-5-2.5-9.5-9-9.5Z" fill="#161616" stroke="#fff" stroke-width=".5"/><path d="M78.5 110 67 117.5l.5 1 11.5-7-.5-1.5ZM80 113l-12 7.5c.103 1.33.13 2.082 0 3.5l12.5-7.5c.023-1.578-.114-2.319-.5-3.5Z" fill="#F73737"/><path d="M71 150.499c-9.88-10.889-12.588-17.44-11.5-30-1.5-2.999-.5-6.499 2-6.999l10-6.501c4.5-.499 7.997 2.6 9 8.001 8.367 6.208 12 14 14 21 1.714 6 2.5 10 6.5 10 0-9-3.19-16.932-10-27-11.5-17-30.5-25.5-37.5-12.001-6.5 18.001-2.427 33.436 12.5 51 8.5 10.001 14.5 2 5-7.5Z" stroke="#fff" stroke-width=".5"/><path d="M89.5 135c-2.634-7.927-5.255-11.573-11.5-17l2.5-1.5V115c9.965 8.13 10.957 12.761 14 21 1.47 7.286 2.846 9.612 6.5 10-2.5 6.5-10.5-1-11.5-11ZM75.5 161.5c-18.855-19.647-23.597-31.481-22-54C50 117 48 127 54.5 141c11 19 17.24 23.241 21 20.5Z" fill="#161616" stroke="#fff" stroke-width=".2"/><path d="M67.5 133v-4.5L69 132l1.5-1.5v4m2 2 .5-1.333m2 3.333-.5-3m0 0-.5-3-1 2.667m1.5.333-1.5-.333m4.5-.667 1 3.25m1 3.25-1-3.25m0 0-2 1.75 3.5-3M117 122.5V195m24-73v72.5" stroke="#fff" stroke-width=".5"/><path d="M228.5 143V60.5c-.457 3.47-2.287 5.32-7.5 8.5v84c4.5-3 7.5-4.5 7.5-10ZM28.5 141.5V60c.469 4.185 3.528 6.303 10 10v84.5c-8.598-4.988-10-7.5-10-13ZM43 156.5V73l7 4v84l-7-4.5ZM53.5 107V79l2 1.5v24c-.804.7-1.238 1.216-2 2.5ZM53.5 163v-24.5c.603 2.519 1.003 3.733 2 5v21l-2-1.5Z" fill="#F73737"/><path d="M34.663 67.282c-6.76-3.944-8.302-9.9 0-14.5l76-45c13.799-9.542 21.708-8.529 36 0l76 45.5c7.5 5 8.501 9 0 14.5l-77 45.5c-13.5 8.5-22 7.5-34 0l-77-46Z" fill="#0F0E0E" stroke="#fff" stroke-width=".5"/><path d="M205 154v-12c0-3.5 7.5-7 7.5-2.5V152c0 3.5-7.5 7-7.5 2ZM184.5 121.667v-12c0-3.5 7.5-7 7.5-2.5v12.5c0 3.5-7.5 7-7.5 2ZM163.5 164.667v-12c0-3.5 7.5-7 7.5-2.5v12.5c0 3.5-7.5 7-7.5 2Z" fill="#150F0F" stroke="#fff" stroke-width=".5"/><path d="M199.5 140.001c0-1.501 3-.501 5.5 1.5V156c-2.5 0-5.5-1.5-5.5-4.5v-11.499ZM179 107.668c0-1.501 3-.501 5.5 1.5v14.499c-2.5 0-5.5-1.5-5.5-4.5v-11.499ZM158 150.668c0-1.501 3-.501 5.5 1.5v14.499c-2.5 0-5.5-1.5-5.5-4.5v-11.499Z" fill="#161616" stroke="#fff" stroke-width=".5"/><path d="M199.5 139.5c2.5-5 9-5.501 12.5-1.5-3-1.5-5.675.582-7 3.5-1.5-1.5-3.5-2.5-5.5-2ZM179 107.167c2.5-5 9-5.501 12.5-1.5-3-1.5-5.675.582-7 3.5-1.5-1.5-3.5-2.5-5.5-2ZM158 150.167c2.5-5 9-5.501 12.5-1.5-3-1.5-5.675.582-7 3.5-1.5-1.5-3.5-2.5-5.5-2Z" fill="#161616" stroke="#fff" stroke-width=".5"/><path d="M179.001 160.5V120c0 2.5 3.499 4.5 7.999 4.5v31c0 6-.5 9.5-3.499 11-4.15 1.272-4.5-1-4.5-6Z" stroke="#fff" stroke-width=".5"/><path d="M184 128.5c0 31.5-.5 34.5-5 35.5 1 5 8 3.5 8-6v-33.5c-4 0-8-2-8-4.5v8.5h5Z" fill="#161616" stroke="#fff" stroke-width=".2"/><path d="M199.5 140.001v-43c0-5.501 8-10 8-3.5V135.5" stroke="#fff" stroke-width=".5"/><path d="M204 135.501v-45c2-.5 3.5 0 3.5 3v42c-1.366-.419-2.133-.32-3.5 0Z" fill="#161616" stroke="#fff" stroke-width=".2"/><path d="M158 163v12c0 6.5 8 3 8-2v-6" stroke="#fff" stroke-width=".5"/><path d="M163 171h-5v-7.5c1 2 3.404 3.152 8 4v5.5c0 5-7 7-7.5 3.5 2.641-1.521 3.507-2.816 4.5-5.5ZM163 115v31c1.172-.183 1.829-.202 3 0v-23.5c0-4.5-.5-7.5-3-7.5Z" fill="#161616" stroke="#fff" stroke-width=".2"/><path d="M158 150.999v-29.5c0-5.999 8-9.999 8-2V146" stroke="#fff" stroke-width=".5"/><g filter="url(#b)"><ellipse cx="128.5" cy="64.16" rx="28.5" ry="16.863" fill="#222"/></g><path d="M111.884 44.579c4.501-2.426 6.941-3.166 11.204-3.816-2.673 3.943-2.558 7.535.764 11.32-7.728-.143-11.586-3.815-11.968-7.504ZM129.709 51.066c-4.329-2.926-3.947-8.395.764-11.066 5.498.13 8.083.694 12.096 2.29-6.512 1.69-9.642 3.245-12.86 8.776ZM147.79 45.088c-5.221-.255-12.224 3.18-12.733 7.759 6.778-2.249 10.702-2.698 18.081-1.018-.69-2.764-2.802-5.088-5.348-6.741ZM153.647 56.408c-4.966-2.925-10.87-2.971-17.189 0 7.99 1.56 10.31 3.36 12.86 7.25 2.858-2.766 3.53-4.368 4.329-7.25ZM144.734 67.092c0-4.579-5.635-7.268-11.587-7.25 3.411 4.224 3.481 6.622.51 10.939 4.756-.832 7.195-1.598 11.077-3.689ZM126.781 71.163c5.22-3.943 4.456-7.505.382-10.303-2.858 4.671-5.674 6.385-12.096 8.395 4.017 1.289 6.474 1.812 11.714 1.908ZM104.117 60.097c7.532 1.416 11.444 1.13 17.953-1.018-.892 4.325-6.239 7.632-12.478 7.25-3.039-2.019-4.164-3.417-5.475-6.232ZM103.353 55.772c7.181 2.655 12.223 2.162 17.316-.381-7.092-1.288-10.039-2.856-13.496-7.25-2.678 2.685-3.544 4.35-3.82 7.631Z" fill="#fff"/><defs><filter id="a" x="11" y="115" width="232.5" height="117.838" filterUnits="userSpaceOnUse" color-interpolation-filters="sRGB"><feFlood flood-opacity="0" result="BackgroundImageFix"/><feBlend in="SourceGraphic" in2="BackgroundImageFix" result="shape"/><feGaussianBlur stdDeviation="5" result="effect1_foregroundBlur_331_505"/></filter><filter id="b" x="90" y="37.297" width="77" height="53.727" filterUnits="userSpaceOnUse" color-interpolation-filters="sRGB"><feFlood flood-opacity="0" result="BackgroundImageFix"/><feBlend in="SourceGraphic" in2="BackgroundImageFix" result="shape"/><feGaussianBlur stdDeviation="5" result="effect1_foregroundBlur_331_505"/></filter></defs></svg>