<svg width="290" height="261" fill="none" xmlns="http://www.w3.org/2000/svg"><path d="M160.909 240.058c-11.524 6.037-20.853 6.585-32.377 0L13.841 171.463c-4.39-4.39-4.93-10.422 0-13.17l114.691-68.046c10.975-6.585 20.853-6.036 32.377 0l108.654 63.107c13.17 7.134 9.329 14.817-2.195 22.499l-106.459 64.205Z" fill="#0F0E0E" stroke="#fff" stroke-width=".5"/><g filter="url(#a)"><path d="M272.856 155.549c7.45 7.196 5.653 11.568-4.391 19.755v15.914l8.781-4.939c2.43-2.181 2.83-3.679 2.743-6.585v-12.072c-.077-7.188-2.073-9.436-7.133-12.073Z" fill="#F73737"/></g><g filter="url(#b)"><path d="M42.377 187.927v15.914L13.293 186.28c-2.744-2.195-3.293-4.39-3.293-8.231V164.33c1.098 2.744 2.744 6.036 4.39 6.585l27.987 17.012Z" fill="#F73737"/></g><g filter="url(#c)"><path d="M56.096 212.071v-15.365l8.78 5.488v15.365l-8.78-5.488Z" fill="#F73737"/></g><path d="m42.376 203.84 85.607 51.584m0 0v-15.565m0 15.565c9.976 6.064 23.047 6.036 32.925 0m0 0 2.51-1.499m-2.51 1.499v-2.195m0-13.171v3.842m93.838-44.492 13.719-24.103v4.39m-13.719 19.713 3.841-2.293m-3.841 2.293-3.747 2.237m7.588-4.53 9.878-17.42m-9.878 17.42 3.842-2.293m6.036-15.127v3.841m0 0-6.036 11.286m6.036-11.286v3.841m-6.036 7.445 3.018-1.802m0 0 3.018-1.801v-3.842m-3.018 5.643 3.018-5.643m-17.466 14.268 13.076-23.597m-13.076 23.597-3.387 2.022m0 0 12.073-22.875m-12.073 22.875-4.39 2.62m0 0 10.975-22.202m-10.975 22.202-4.39 2.621m0 0 10.426-22.079m-10.426 22.079-3.841 2.293m0 0 9.329-21.629m-9.329 21.629-4.701 2.806m0 0 9.091-21.142m-9.091 21.142-5.032 3.003m0 0 9.184-21.401m-9.184 21.401-3.986 2.38m0 0 8.231-20.489m-8.231 20.489-3.842 2.293m0 0 7.828-20.587m-7.828 20.587-3.841 2.293m0 0 6.585-19.587m-6.585 19.587-3.958 2.363m0 0 6.153-19.206m-6.153 19.206-3.725 2.223m0 0 5.488-18.685m-5.488 18.685-3.292 1.966m0 0 4.39-17.908m-4.39 17.908-3.841 2.293m0 0 3.841-18.006m-3.841 18.006-4.77 2.847m0 0 4.77-18.658m-4.77 18.658-4.559 2.722m0 0 4.559-18.351m-4.559 18.351-4.634 2.766m0 0 4.634-18.109m-4.634 18.109-4.597 2.744m0 0c-.079-.439 3.194-12.256 4.841-18.109m-4.841 18.109-5.037 3.007m0 0 4.39-17.824m-4.39 17.824-4.156 2.48m0 0 4.705-18.109m-4.705 18.109-4.075 2.433m0 0 4.39-17.798m-4.39 17.798-3.527 2.105m0 0 4.075-17.708m-6.585 17.012 3.293-14.839m-3.293 14.839V243.9m0 0 1.098-4.39" stroke="#fff" stroke-width=".5"/><g filter="url(#d)"><path d="M22.622 150.268 145 86.609l111.951 70.793L145 226 22.622 150.268Z" fill="#222"/></g><path d="m77.5 167.828-48.293-29.085c13.049-6.249 18.659-10.975 24.147-20.853 7.88-12.453 11.74-17.642 18.11-25.244 7.682-7.683 12.073-5.592 22.5 0 7.513 4.03 11.72 3.361 19.207-1.098 7.156-5.007 8.826-8.627 10.975-15.365 7.122-19.143 13.72-31.83 24.147-44.452 3.841-5.488 12.432-8.231 17.012 0 5.518 9.919 8.849 16.94 14.817 29.635 2.744 7.134 8.781 7.683 10.976 14.817 2.314 7.521 19.642 33.283 23.597 35.121 10.243-2.74 14.864-2.631 21.403 0 9.878 10.427 11.524 18.11 23.597 27.439l-46.646 26.89-21.951-4.39-22.5 33.476-24.695 13.719-22.5-13.719-21.952-19.208-21.951-7.683Z" fill="#150F0F" stroke="#fff" stroke-width=".5"/><path d="m52.256 153.013 46.372-27.988M145 97.037c2.542-3.22 3.666-6.2 4.939-14.268 2.881-25.793 4.573-40.028 10.976-55.427M145 97.037c-.878-.878-16.097-9.878-23.597-14.268L145 97.037Zm0 0 22.774 13.857M145 97.037l-46.372 27.988m137.47 27.439-22.775-13.857m-22.774-13.857 23.597-13.445m-23.597 13.445c-2.82 1.432-4.467 1.738-7.683 0-3.817-2.062-7.28-3.089-11.524-3.074m19.207 3.074-22.775-13.856m22.775 13.856 22.774 13.857M145 124.75c4.39 1.921 9.355.894 15.366-1.372 4.368-1.124 7.88-1.69 10.976-1.702M145 124.75 95.061 93.195M145 124.75l22.774-13.856M145 124.75l-23.049 16.738m45.823-30.594c2.39-2.014 3.389-4.559 5.214-8.918 4.038-14.703 6.418-22.762 13.719-32.378M76.403 88.805l22.225 36.22m0 0 23.323 16.463m0 0c-2.649.82-4.168 1.036-7.134-.549-5.681-3.811-8.897-5.717-14.817-7.683m21.951 8.232L145 152.425m-45-19.169c-3.66-.001-6.407.585-15.915 5.488-4.939.549-8.188 0-10.975-3.292-5.856-6.045-9.503-9.665-19.207-18.11M100 133.256c-4.038 4.289-6.456 7.672-10.976 15.366-5.532 10.434-8.517 13.999-13.72 18.11M100 133.256c6.7 8.978 10.543 14.842 17.561 27.44 1.249 1.732 2.369 3.134 4.39 4.797m46.647 29.227L145 180.061m0 0-12.622-7.841c-5.232-2.974-8.319-4.993-10.427-6.727M145 180.061l-23.597 14.659M145 180.061l22.774-13.818m45.549-27.636 22.775-27.302m-22.775 27.302-22.774 13.818m23.597 12.112-23.597-12.112m0 0-19.207-30.749m19.207 30.749-22.775 13.818m3.568-44.567c-10.232 13.056-15.973 20.278-26.342 30.749m22.774 13.818c2.889 1.303 4.325.891 6.86 0 6.487-3.496 10.12-5.393 16.464-4.999m-23.324 4.999L145 152.425m0 0-23.049 13.068m0 0-22.5 10.02" stroke="#fff" stroke-width=".5"/><circle cx="235.549" cy="112.402" r="3.841" fill="#fff"/><circle cx="170.793" cy="122.281" r="3.841" fill="#fff"/><circle cx="99.451" cy="134.354" r="3.841" fill="#fff"/><circle cx="144.451" cy="181.548" r="3.841" fill="#fff"/><circle cx="76.403" cy="89.354" r="3.841" fill="#fff"/><path fill="#fff" d="M92.317 59.171h14.268v14.268H92.317zM69.268 6.488h14.268v14.268H69.268zM164.756 1h14.268v14.268h-14.268zM229.512 47.098h14.268v14.268h-14.268zM138.415 138.195h14.268v14.268h-14.268zM110.976 66.853h12.073v1.098h-12.073zM110.976 71.244h12.073v1.098h-12.073z"/><path d="M111.524 64.11v-4.94h14.818v4.94h-14.818ZM99.451 76.183v52.683" stroke="#fff" stroke-width=".5"/><path fill="#fff" d="M87.927 14.171H100v1.098H87.927zM183.415 8.683h12.073v1.098h-12.073zM248.171 54.78h12.073v1.098h-12.073zM157.073 145.878h12.073v1.098h-12.073zM87.927 18.561H100v1.098H87.927zM183.415 13.073h12.073v1.098h-12.073zM248.171 59.171h12.073v1.098h-12.073zM157.073 150.269h12.073v1.098h-12.073z"/><path d="M88.476 11.427V6.488h14.817v4.94H88.476ZM183.964 5.939V1h14.817v4.939h-14.817ZM248.72 52.037v-4.94h14.817v4.94H248.72ZM157.622 143.134v-4.939h14.817v4.939h-14.817ZM145 155.207v19.756m25.793-57.622v-98.78m65.305 88.353V65.756M76.403 83.866V24.598" stroke="#fff" stroke-width=".5"/><defs><filter id="a" x="258.465" y="145.549" width="31.535" height="55.669" filterUnits="userSpaceOnUse" color-interpolation-filters="sRGB"><feFlood flood-opacity="0" result="BackgroundImageFix"/><feColorMatrix in="SourceAlpha" values="0 0 0 0 0 0 0 0 0 0 0 0 0 0 0 0 0 0 127 0" result="hardAlpha"/><feOffset/><feGaussianBlur stdDeviation="5"/><feComposite in2="hardAlpha" operator="out"/><feColorMatrix values="0 0 0 0 0.966667 0 0 0 0 0.2175 0 0 0 0 0.2175 0 0 0 1 0"/><feBlend in2="BackgroundImageFix" result="effect1_dropShadow_331_593"/><feBlend in="SourceGraphic" in2="effect1_dropShadow_331_593" result="shape"/></filter><filter id="b" x="0" y="154.33" width="52.377" height="59.511" filterUnits="userSpaceOnUse" color-interpolation-filters="sRGB"><feFlood flood-opacity="0" result="BackgroundImageFix"/><feColorMatrix in="SourceAlpha" values="0 0 0 0 0 0 0 0 0 0 0 0 0 0 0 0 0 0 127 0" result="hardAlpha"/><feOffset/><feGaussianBlur stdDeviation="5"/><feComposite in2="hardAlpha" operator="out"/><feColorMatrix values="0 0 0 0 0.966667 0 0 0 0 0.2175 0 0 0 0 0.2175 0 0 0 1 0"/><feBlend in2="BackgroundImageFix" result="effect1_dropShadow_331_593"/><feBlend in="SourceGraphic" in2="effect1_dropShadow_331_593" result="shape"/></filter><filter id="c" x="46.096" y="186.706" width="28.78" height="40.852" filterUnits="userSpaceOnUse" color-interpolation-filters="sRGB"><feFlood flood-opacity="0" result="BackgroundImageFix"/><feColorMatrix in="SourceAlpha" values="0 0 0 0 0 0 0 0 0 0 0 0 0 0 0 0 0 0 127 0" result="hardAlpha"/><feOffset/><feGaussianBlur stdDeviation="5"/><feComposite in2="hardAlpha" operator="out"/><feColorMatrix values="0 0 0 0 0.966667 0 0 0 0 0.2175 0 0 0 0 0.2175 0 0 0 1 0"/><feBlend in2="BackgroundImageFix" result="effect1_dropShadow_331_593"/><feBlend in="SourceGraphic" in2="effect1_dropShadow_331_593" result="shape"/></filter><filter id="d" x="6.622" y="70.609" width="266.329" height="171.391" filterUnits="userSpaceOnUse" color-interpolation-filters="sRGB"><feFlood flood-opacity="0" result="BackgroundImageFix"/><feBlend in="SourceGraphic" in2="BackgroundImageFix" result="shape"/><feGaussianBlur stdDeviation="8" result="effect1_foregroundBlur_331_593"/></filter></defs></svg>