<svg width="491" height="194" viewBox="0 0 491 194" fill="none" xmlns="http://www.w3.org/2000/svg">
<g opacity="0.5">
<path d="M-2079.16 1.21987C-1793.17 -2.35643 -1118.14 8.45194 -705.988 80.2958C-293.833 152.14 234.83 110.231 447.642 80.2958C778.085 48.5065 1528.67 10.7567 1887.49 114.072C2336.01 243.216 2993.31 249.176 3460.68 198.314C3928.06 147.451 4464.12 114.072 4767.19 114.072C5167.22 114.072 5934.29 96.4977 6406.38 198.314C6796.98 282.555 7517.58 232.09 7908.86 198.314C8373.8 158.179 8888.6 47.7117 9391.81 232.09" stroke="white" stroke-width="0.5"/>
<path d="M-2096 433.553C-1896.88 385.869 -1406.52 288.594 -1038 280.964C-577.357 271.427 52.9976 433.553 303.523 433.553C554.049 433.553 941.959 376.332 1305.63 280.964C1669.29 185.596 2655.23 185.597 3204.77 309.575C3754.31 433.553 4410.88 423.876 4707.25 347.722C5208.3 218.975 6495.02 32.9307 6865 200.3C7349.89 419.646 8024.02 433.553 8415.3 280.964C9069.15 25.9764 9804.64 219.374 9995.23 309.575" stroke="white" stroke-width="0.5"/>
<path d="M-2079.65 5.63758C-1796.16 0.787989 -1126.47 8.4762 -715.57 78.0258C-302.016 147.52 229.583 111.501 443.484 82.4307C771.619 51.5591 1511.74 13.2472 1870.7 110.827C2316.77 233.49 2983.55 239.278 3453.3 193.463C3923.05 147.647 4462.58 114.952 4765.46 112.754C5168.41 109.037 5950.48 86.5998 6419.62 190.308C6812.95 278.45 7532.2 229.843 7923.48 192.637C8393.87 146.3 8915.05 44.6044 9409.23 226.264" stroke="white" stroke-width="0.5"/>
<path d="M-2080.17 10.6004C-1799.35 4.39481 -1135.33 8.7602 -725.778 75.8665C-310.732 142.859 223.993 113.113 439.053 84.9625C764.731 55.0682 1493.7 16.1577 1852.81 107.629C2296.27 223.39 2973.15 228.995 3445.43 188.555C3917.71 148.114 4460.94 116.148 4763.62 111.609C5169.67 103.934 5967.72 76.3171 6433.72 182.041C6829.94 274.336 7547.77 227.708 7939.05 186.849C8415.25 133.907 8943.21 41.5534 9427.78 220.317" stroke="white" stroke-width="0.5"/>
<path d="M-2080.72 16.1864C-1802.74 8.54211 -1144.74 9.38201 -736.609 73.8961C-319.982 138.234 218.06 115.143 434.35 87.9692C757.422 59.1118 1474.56 19.5662 1833.83 104.557C2274.52 212.995 2962.13 218.405 3437.08 183.668C3912.04 148.93 4459.21 117.738 4761.66 110.714C5171.01 98.8399 5986 65.7278 6448.68 173.59C6847.98 270.292 7564.29 225.763 7955.57 181.029C8437.93 121.079 8973.09 38.6368 9447.46 214.329" stroke="white" stroke-width="0.5"/>
<path d="M-2081.3 22.479C-1806.31 13.3133 -1154.69 10.425 -748.061 72.1978C-329.761 133.729 211.789 117.676 429.38 91.5342C749.695 63.7733 1454.32 23.5561 1813.76 101.694C2251.52 202.387 2950.46 207.592 3428.25 178.886C3906.04 150.179 4457.37 119.804 4759.59 110.153C5172.43 93.8384 6005.35 54.9152 6464.5 165.038C6867.05 266.401 7581.76 224.092 7973.04 175.26C8461.92 107.899 9004.69 35.938 9468.28 208.382" stroke="white" stroke-width="0.5"/>
<path d="M-2081.91 29.5595C-1810.08 18.7896 -1165.17 11.9705 -760.136 70.853C-340.073 129.424 205.175 120.792 424.137 95.7388C741.546 69.1341 1432.99 28.2087 1792.59 99.1206C2227.28 191.649 2938.17 196.637 3418.95 174.289C3899.72 151.941 4455.43 122.428 4757.41 110.008C5173.92 89.0107 6025.74 43.9605 6481.18 156.468C6887.16 262.744 7600.18 222.777 7991.45 169.623C8487.2 94.4479 9038 33.5383 9490.22 202.557" stroke="white" stroke-width="0.5"/>
<path d="M-2082.55 37.5029C-1814.05 25.0462 -1176.2 14.0936 -772.834 69.9367C-350.917 125.396 198.22 124.566 418.625 100.658C732.977 75.269 1410.55 33.599 1770.34 96.9125C2201.78 180.855 2925.24 185.615 3409.16 169.954C3893.08 154.292 4453.4 125.686 4755.12 110.353C5175.49 84.4321 6047.18 32.939 6498.71 147.953C6908.3 259.396 7619.54 221.891 8010.82 164.193C8513.8 80.8014 9073.03 31.5127 9513.3 196.93" stroke="white" stroke-width="0.5"/>
<path d="M-2083.23 46.3802C-1818.21 32.154 -1187.77 16.8652 -786.152 69.52C-362.29 121.714 190.927 129.07 412.845 106.363C723.991 82.2493 1387.01 39.7981 1747 95.1408C2175.03 170.076 2911.68 174.597 3398.89 165.95C3886.11 157.303 4451.26 129.647 4752.72 111.26C5177.14 80.1734 6069.68 21.9215 6517.12 139.565C6930.49 256.428 7639.86 221.506 8031.14 159.042C8541.7 67.0304 9109.78 29.9323 9537.51 191.571" stroke="white" stroke-width="0.5"/>
<path d="M-2083.94 56.2491C-1822.57 40.1706 -1199.88 20.343 -800.095 69.6604C-374.196 118.437 183.291 134.361 406.792 112.911C714.583 90.1324 1362.37 46.8635 1722.56 93.8628C2147.03 159.37 2897.48 163.641 3388.15 162.336C3878.81 161.031 4449.03 134.371 4750.2 112.785C5178.87 76.2923 6093.22 10.9657 6536.37 131.362C6953.7 253.899 7661.13 221.68 8052.41 154.226C8570.89 53.1923 9148.25 28.8546 9562.85 186.538" stroke="white" stroke-width="0.5"/>
<path d="M-2084.67 67.1623C-1827.12 49.1489 -1212.53 24.5798 -814.66 70.4108C-386.634 115.618 175.314 140.492 400.471 120.355C704.755 98.9713 1336.63 54.8482 1697.04 93.1315C2117.79 148.789 2882.65 152.799 3376.92 159.164C3871.19 165.53 4446.69 139.909 4747.57 114.982C5180.67 72.8416 6117.82 0.124402 6556.5 123.397C6977.96 251.86 7683.35 222.465 8074.63 149.8C8601.4 39.3401 9188.44 28.3325 9589.32 181.885" stroke="white" stroke-width="0.5"/>
<path d="M-2085.44 81.3784C-1831.86 61.3474 -1225.72 31.8341 -829.847 74.0297C-399.603 115.514 166.997 149.722 393.879 130.954C694.507 111.024 1309.8 66.0106 1670.42 95.2053C2087.29 140.593 2867.19 144.33 3365.21 158.693C3863.24 173.056 4444.26 148.52 4744.83 120.11C5182.55 72.0798 6143.47 -8.34393 6577.47 117.927C7003.25 252.571 7706.52 226.12 8097.79 148.02C8633.21 27.7321 9230.34 30.6245 9616.92 179.869" stroke="white" stroke-width="0.5"/>
<path d="M-2086.25 107.57C-1836.8 85.4384 -1239.45 50.7783 -845.658 89.1894C-413.105 126.798 158.338 170.722 387.015 153.38C683.838 134.964 1281.86 89.023 1642.71 108.757C2055.54 143.453 2851.09 146.907 3353.03 169.596C3854.97 192.284 4441.72 168.877 4741.97 136.84C5184.5 82.6793 6170.18 -5.76677 6599.31 123.626C7029.58 264.703 7730.63 241.318 8121.91 157.56C8666.32 27.0409 9273.96 44.403 9645.66 189.163" stroke="white" stroke-width="0.5"/>
<path d="M-2087.08 134.952C-1841.93 110.637 -1253.73 70.6274 -862.091 105.105C-427.138 138.686 149.337 192.708 379.881 176.848C672.749 160.005 1252.82 113.101 1613.91 123.001C2022.54 146.585 2834.35 149.744 3340.36 181.086C3846.37 212.429 4439.08 190.194 4739.01 154.388C5186.54 93.8551 6197.93 -2.92927 6622.01 129.708C7056.95 277.472 7755.7 257.273 8146.97 167.634C8700.74 26.4814 9319.3 58.8829 9675.52 198.982" stroke="white" stroke-width="0.5"/>
<path d="M-2087.95 163.511C-1847.26 136.931 -1268.54 91.369 -879.147 121.764C-441.703 151.165 139.996 215.668 372.477 201.346C661.24 186.136 1222.68 138.231 1584.02 137.925C1988.29 149.976 2816.98 152.828 3327.21 193.152C3837.44 233.476 4436.35 212.459 4735.93 172.742C5188.64 105.595 6226.73 0.156288 6645.57 136.161C7085.35 290.865 7781.71 273.973 8172.99 178.231C8736.45 26.0412 9366.35 74.052 9706.51 209.313" stroke="white" stroke-width="0.5"/>
<path d="M-2088.84 193.242C-1852.78 164.313 -1283.9 112.996 -896.825 139.16C-456.799 164.227 130.315 239.595 364.804 226.866C649.311 213.349 1191.44 164.407 1553.04 153.522C1952.79 153.62 2798.98 156.155 3313.59 205.788C3828.19 255.421 4433.51 235.666 4732.74 191.894C5190.83 117.892 6256.59 3.48309 6669.99 142.978C7114.79 304.876 7808.68 291.411 8199.95 189.343C8773.48 25.7135 9415.13 89.9034 9738.65 220.15" stroke="white" stroke-width="0.5"/>
<path d="M-2089.77 224.135C-1858.5 192.775 -1299.79 135.501 -915.125 157.284C-472.427 177.866 120.292 264.48 356.86 253.401C636.963 241.636 1159.1 191.621 1520.97 169.785C1916.04 157.508 2780.35 159.714 3299.48 218.984C3818.61 278.254 4430.58 259.806 4729.43 211.836C5193.1 130.738 6287.49 7.0429 6695.27 150.151C7145.26 319.496 7836.59 309.579 8227.87 200.962C8811.81 25.4902 9465.62 106.429 9771.9 231.484" stroke="white" stroke-width="0.5"/>
<path d="M-2090.73 256.184C-1864.41 222.31 -1316.23 158.876 -934.047 176.13C-488.585 192.073 109.93 290.315 348.647 280.943C624.195 270.99 1125.66 219.865 1487.81 186.705C1878.04 161.632 2761.08 163.498 3284.9 232.734C3808.71 301.969 4427.55 284.871 4726.02 232.561C5195.44 144.125 6319.45 10.8281 6721.41 157.673C7176.78 334.718 7865.46 328.469 8256.73 213.081C8851.44 25.3636 9517.83 123.621 9806.3 243.309" stroke="white" stroke-width="0.5"/>
<path d="M-2091.72 289.38C-1870.51 252.91 -1333.2 183.113 -953.592 195.688C-505.276 206.84 99.2258 317.094 340.163 309.484C611.006 301.402 1091.12 249.131 1453.55 204.274C1838.79 165.984 2741.18 167.5 3269.83 247.028C3798.48 326.556 4424.41 310.854 4722.49 254.061C5197.86 158.045 6352.46 14.8307 6748.41 165.534C7209.33 350.533 7895.27 348.074 8286.55 225.691C8892.37 25.3256 9571.75 141.471 9841.82 255.615" stroke="white" stroke-width="0.5"/>
<path d="M-2092.74 323.721C-1876.81 284.571 -1350.72 208.209 -973.761 215.956C-522.499 222.165 88.1795 344.813 331.408 339.021C597.396 332.87 1055.48 279.417 1418.21 222.491C1798.29 170.563 2720.64 171.717 3254.29 261.866C3787.93 352.015 4421.18 337.752 4718.85 276.333C5200.35 172.496 6386.52 19.0483 6776.27 173.734C7242.91 366.939 7926.03 368.391 8317.31 238.791C8934.61 25.374 9627.4 159.978 9878.47 268.401" stroke="white" stroke-width="0.5"/>
<path d="M-2093.8 359.2C-1883.31 317.288 -1368.78 234.157 -994.552 236.928C-540.254 238.041 76.7927 373.466 322.383 369.548C583.367 365.388 1018.74 310.715 1381.77 241.348C1756.54 175.361 2699.47 176.142 3238.26 277.239C3777.05 378.336 4417.84 365.558 4715.09 299.37C5202.92 187.472 6421.64 23.4739 6804.98 182.264C7277.53 383.93 7957.74 389.413 8349.02 252.373C8978.16 25.5016 9684.76 179.133 9916.26 281.659" stroke="white" stroke-width="0.5"/>
<path d="M-2094.88 395.812C-1890 351.055 -1387.38 260.954 -1015.97 258.599C-558.54 254.463 65.0656 403.047 313.088 401.06C568.918 398.95 980.899 343.022 1344.24 260.841C1713.54 180.374 2677.67 180.77 3221.76 293.144C3765.84 405.517 4414.41 394.268 4711.23 323.168C5205.58 202.966 6457.8 28.1028 6834.56 191.121C7313.19 401.501 7990.41 411.135 8381.69 266.432C9023 25.7039 9743.84 198.933 9955.18 295.385" stroke="white" stroke-width="0.5"/>
</g>
</svg>
