<svg width="289" height="184" viewBox="0 0 289 184" fill="none" xmlns="http://www.w3.org/2000/svg">
<path d="M158.933 164.869C148.368 170.403 139.815 170.906 129.25 164.869L24.1031 101.982C20.0783 97.9571 19.584 92.4268 24.1032 89.9076L129.25 27.5237C139.312 21.4866 148.368 21.9897 158.933 27.5237L258.546 85.3798C270.62 91.92 267.098 98.9634 256.533 106.007L158.933 164.869Z" fill="#CECECE" stroke="#CECECE" stroke-width="0.5"/>
<g filter="url(#filter0_d_561_4971)">
<path d="M261.566 87.3922C268.396 93.9893 266.749 97.9976 257.541 105.504V120.093L265.591 115.566C267.819 113.566 268.185 112.192 268.106 109.528V98.4603C268.035 91.8708 266.205 89.8104 261.566 87.3922Z" fill="white"/>
</g>
<g filter="url(#filter1_d_561_4971)">
<path d="M50.2647 117.074V131.664L23.6006 115.565C21.0851 113.553 20.5821 111.54 20.582 108.019V95.4414C21.5882 97.9569 23.0975 100.975 24.6068 101.479L50.2647 117.074Z" fill="white"/>
</g>
<g filter="url(#filter2_d_561_4971)">
<path d="M62.8418 139.21V125.124L70.8913 130.155V144.241L62.8418 139.21Z" fill="white"/>
</g>
<path d="M50.2637 131.664L128.747 178.955M128.747 178.955V164.686M128.747 178.955C137.893 184.515 149.877 184.489 158.932 178.955M158.932 178.955L161.233 177.582M158.932 178.955V176.943M158.932 164.869V168.39M244.962 127.601L257.539 105.503V109.528M244.962 127.601L248.483 125.499M244.962 127.601L241.526 129.652M248.483 125.499L257.539 109.528M248.483 125.499L252.005 123.397M257.539 109.528V113.05M257.539 113.05L252.005 123.397M257.539 113.05V116.571M252.005 123.397L254.772 121.745M254.772 121.745L257.539 120.093V116.571M254.772 121.745L257.539 116.571M241.526 129.652L253.514 108.019M241.526 129.652L238.422 131.505M238.422 131.505L249.49 110.534M238.422 131.505L234.397 133.908M234.397 133.908L244.459 113.553M234.397 133.908L230.372 136.31M230.372 136.31L239.931 116.068M230.372 136.31L226.85 138.412M226.85 138.412L235.403 118.584M226.85 138.412L222.541 140.985M222.541 140.985L230.875 121.602M222.541 140.985L217.928 143.739M217.928 143.739L226.347 124.118M217.928 143.739L214.273 145.92M214.273 145.92L221.819 127.136M214.273 145.92L210.751 148.023M210.751 148.023L217.928 129.149M210.751 148.023L207.23 150.125M207.23 150.125L213.267 132.167M207.23 150.125L203.6 152.291M203.6 152.291L209.242 134.683M203.6 152.291L200.186 154.329M200.186 154.329L205.217 137.198M200.186 154.329L197.168 156.131M197.168 156.131L201.192 139.714M197.168 156.131L193.646 158.233M193.646 158.233L197.168 141.726M193.646 158.233L189.273 160.844M189.273 160.844L193.646 143.739M189.273 160.844L185.093 163.339M185.093 163.339L189.273 146.515M185.093 163.339L180.845 165.875M180.845 165.875L185.093 149.273M180.845 165.875L176.631 168.39M176.631 168.39C176.559 167.988 179.559 157.154 181.069 151.788M176.631 168.39L172.013 171.147M172.013 171.147L176.038 154.807M172.013 171.147L168.203 173.421M168.203 173.421L172.516 156.819M168.203 173.421L164.466 175.652M164.466 175.652L168.491 159.335M164.466 175.652L161.233 177.582M161.233 177.582L164.97 161.347M158.932 176.943L161.951 163.339M158.932 176.943V168.39M158.932 168.39L159.939 164.366" stroke="#CECECE" stroke-width="0.5"/>
<g filter="url(#filter3_f_561_4971)">
<path d="M223.502 89.1004C225.796 99.8259 231.762 134.288 159.85 140.605C98.1423 140.605 71.8775 118.728 69.5835 108.002C67.2894 97.2768 91.7366 82.9553 124.188 76.0143C156.639 69.0733 221.208 78.375 223.502 89.1004Z" fill="#7A7A7A"/>
</g>
<path d="M221.021 84.0934C221.021 96.7933 212.448 108.376 198.404 116.811C184.371 125.239 164.952 130.469 143.475 130.469C121.999 130.469 102.58 125.239 88.5462 116.811C74.5029 108.376 65.9297 96.7933 65.9297 84.0934C65.9297 71.3936 74.5029 59.8109 88.5462 51.3763C102.58 42.9477 121.999 37.7183 143.475 37.7183C164.952 37.7183 184.371 42.9477 198.404 51.3763C212.448 59.8109 221.021 71.3936 221.021 84.0934Z" fill="#969696" stroke="white"/>
<g filter="url(#filter4_f_561_4971)">
<ellipse cx="144.35" cy="91.8766" rx="26.5214" ry="17.4811" fill="#7A7A7A"/>
</g>
<path d="M128.888 69.347C133.076 66.8324 135.347 66.0645 139.315 65.3913C136.826 69.4788 136.934 73.2026 140.026 77.1264C132.834 76.9774 129.243 73.1707 128.888 69.347Z" fill="white"/>
<path d="M145.476 76.0715C141.448 73.0389 141.803 67.3692 146.187 64.6002C151.303 64.7351 153.709 65.3191 157.443 66.9736C151.383 68.7254 148.471 70.3381 145.476 76.0715Z" fill="white"/>
<path d="M162.301 69.8744C157.443 69.6107 150.926 73.1707 150.453 77.9175C156.76 75.5867 160.412 75.1212 167.278 76.8627C166.636 73.9973 164.671 71.5885 162.301 69.8744Z" fill="white"/>
<path d="M167.752 81.6094C163.131 78.5768 157.637 78.529 151.756 81.6094C159.191 83.2258 161.35 85.0919 163.723 89.1251C166.383 86.2582 167.008 84.5965 167.752 81.6094Z" fill="white"/>
<path d="M159.458 92.6852C159.458 87.9384 154.213 85.1508 148.675 85.1695C151.849 89.5481 151.914 92.034 149.149 96.5089C153.575 95.6466 155.845 94.8521 159.458 92.6852Z" fill="white"/>
<path d="M142.751 96.9045C147.609 92.817 146.898 89.1251 143.106 86.2243C140.447 91.067 137.827 92.8429 131.85 94.9267C135.589 96.2629 137.875 96.8054 142.751 96.9045Z" fill="white"/>
<path d="M121.66 85.4332C128.669 86.9011 132.31 86.6044 138.367 84.3784C137.537 88.8614 132.561 92.2896 126.755 91.8941C123.927 89.8008 122.88 88.3512 121.66 85.4332Z" fill="white"/>
<path d="M120.949 80.9501C127.632 83.7019 132.324 83.1917 137.063 80.5546C130.464 79.2201 127.722 77.5943 124.504 73.0389C122.012 75.8229 121.206 77.5485 120.949 80.9501Z" fill="white"/>
<path opacity="0.6" d="M221.021 74.7126C221.021 87.4124 212.448 98.9951 198.404 107.43C184.371 115.858 164.952 121.088 143.475 121.088C121.999 121.088 102.58 115.858 88.5462 107.43C74.5029 98.9951 65.9297 87.4124 65.9297 74.7126C65.9297 62.0127 74.5029 50.43 88.5462 41.9955C102.58 33.5668 121.999 28.3374 143.475 28.3374C164.952 28.3374 184.371 33.5668 198.404 41.9955C212.448 50.43 221.021 62.0127 221.021 74.7126Z" stroke="white"/>
<path opacity="0.3" d="M221.021 65.3315C221.021 78.0313 212.448 89.614 198.404 98.0486C184.371 106.477 164.952 111.707 143.475 111.707C121.999 111.707 102.58 106.477 88.5462 98.0486C74.5029 89.614 65.9297 78.0313 65.9297 65.3315C65.9297 52.6316 74.5029 41.0489 88.5462 32.6143C102.58 24.1857 121.999 18.9563 143.475 18.9563C164.952 18.9563 184.371 24.1857 198.404 32.6143C212.448 41.0489 221.021 52.6316 221.021 65.3315Z" stroke="white"/>
<path opacity="0.2" d="M221.021 56.2738C221.021 68.9737 212.448 80.5564 198.404 88.991C184.371 97.4196 164.952 102.649 143.475 102.649C121.999 102.649 102.58 97.4196 88.5462 88.991C74.5029 80.5564 65.9297 68.9737 65.9297 56.2738C65.9297 43.574 74.5029 31.9913 88.5462 23.5567C102.58 15.1281 121.999 9.89868 143.475 9.89868C164.952 9.89868 184.371 15.1281 198.404 23.5567C212.448 31.9913 221.021 43.574 221.021 56.2738Z" stroke="white"/>
<path opacity="0.1" d="M221.021 46.8927C221.021 59.5926 212.448 71.1753 198.404 79.6098C184.371 88.0385 164.952 93.2679 143.475 93.2679C121.999 93.2679 102.58 88.0385 88.5462 79.6098C74.5029 71.1753 65.9297 59.5926 65.9297 46.8927C65.9297 34.1929 74.5029 22.6102 88.5462 14.1756C102.58 5.747 121.999 0.517578 143.475 0.517578C164.952 0.517578 184.371 5.747 198.404 14.1756C212.448 22.6102 221.021 34.1929 221.021 46.8927Z" stroke="white"/>
<defs>
<filter id="filter0_d_561_4971" x="237.541" y="67.3922" width="50.5742" height="72.7013" filterUnits="userSpaceOnUse" color-interpolation-filters="sRGB">
<feFlood flood-opacity="0" result="BackgroundImageFix"/>
<feColorMatrix in="SourceAlpha" type="matrix" values="0 0 0 0 0 0 0 0 0 0 0 0 0 0 0 0 0 0 127 0" result="hardAlpha"/>
<feOffset/>
<feGaussianBlur stdDeviation="10"/>
<feComposite in2="hardAlpha" operator="out"/>
<feColorMatrix type="matrix" values="0 0 0 0 1 0 0 0 0 1 0 0 0 0 1 0 0 0 1 0"/>
<feBlend mode="normal" in2="BackgroundImageFix" result="effect1_dropShadow_561_4971"/>
<feBlend mode="normal" in="SourceGraphic" in2="effect1_dropShadow_561_4971" result="shape"/>
</filter>
<filter id="filter1_d_561_4971" x="0.582031" y="75.4414" width="69.6836" height="76.2229" filterUnits="userSpaceOnUse" color-interpolation-filters="sRGB">
<feFlood flood-opacity="0" result="BackgroundImageFix"/>
<feColorMatrix in="SourceAlpha" type="matrix" values="0 0 0 0 0 0 0 0 0 0 0 0 0 0 0 0 0 0 127 0" result="hardAlpha"/>
<feOffset/>
<feGaussianBlur stdDeviation="10"/>
<feComposite in2="hardAlpha" operator="out"/>
<feColorMatrix type="matrix" values="0 0 0 0 1 0 0 0 0 1 0 0 0 0 1 0 0 0 1 0"/>
<feBlend mode="normal" in2="BackgroundImageFix" result="effect1_dropShadow_561_4971"/>
<feBlend mode="normal" in="SourceGraphic" in2="effect1_dropShadow_561_4971" result="shape"/>
</filter>
<filter id="filter2_d_561_4971" x="42.8418" y="105.124" width="48.0488" height="59.1177" filterUnits="userSpaceOnUse" color-interpolation-filters="sRGB">
<feFlood flood-opacity="0" result="BackgroundImageFix"/>
<feColorMatrix in="SourceAlpha" type="matrix" values="0 0 0 0 0 0 0 0 0 0 0 0 0 0 0 0 0 0 127 0" result="hardAlpha"/>
<feOffset/>
<feGaussianBlur stdDeviation="10"/>
<feComposite in2="hardAlpha" operator="out"/>
<feColorMatrix type="matrix" values="0 0 0 0 1 0 0 0 0 1 0 0 0 0 1 0 0 0 1 0"/>
<feBlend mode="normal" in2="BackgroundImageFix" result="effect1_dropShadow_561_4971"/>
<feBlend mode="normal" in="SourceGraphic" in2="effect1_dropShadow_561_4971" result="shape"/>
</filter>
<filter id="filter3_f_561_4971" x="53.4336" y="57.6187" width="187.248" height="98.9863" filterUnits="userSpaceOnUse" color-interpolation-filters="sRGB">
<feFlood flood-opacity="0" result="BackgroundImageFix"/>
<feBlend mode="normal" in="SourceGraphic" in2="BackgroundImageFix" result="shape"/>
<feGaussianBlur stdDeviation="8" result="effect1_foregroundBlur_561_4971"/>
</filter>
<filter id="filter4_f_561_4971" x="107.828" y="64.3955" width="73.043" height="54.9623" filterUnits="userSpaceOnUse" color-interpolation-filters="sRGB">
<feFlood flood-opacity="0" result="BackgroundImageFix"/>
<feBlend mode="normal" in="SourceGraphic" in2="BackgroundImageFix" result="shape"/>
<feGaussianBlur stdDeviation="5" result="effect1_foregroundBlur_561_4971"/>
</filter>
</defs>
</svg>
