<svg width="491" height="194" viewBox="0 0 491 194" fill="none" xmlns="http://www.w3.org/2000/svg">
<g opacity="0.5">
<path d="M-4677.16 1.21987C-4391.17 -2.35643 -3716.14 8.45194 -3303.99 80.2958C-2891.83 152.14 -2363.17 110.231 -2150.36 80.2958C-1819.92 48.5065 -1069.33 10.7567 -710.509 114.072C-261.988 243.216 395.305 249.176 862.684 198.314C1330.06 147.451 1866.12 114.072 2169.19 114.072C2569.22 114.072 3336.29 96.4977 3808.38 198.314C4198.98 282.555 4919.58 232.09 5310.86 198.314C5775.8 158.179 6290.6 47.7117 6793.81 232.09" stroke="white" stroke-width="0.5"/>
<path d="M-4694 433.553C-4494.88 385.869 -4004.52 288.594 -3636 280.964C-3175.36 271.427 -2545 433.553 -2294.48 433.553C-2043.95 433.553 -1656.04 376.332 -1292.37 280.964C-928.708 185.596 57.2309 185.597 606.771 309.575C1156.31 433.553 1812.88 423.876 2109.25 347.722C2610.3 218.975 3897.02 32.9307 4267 200.3C4751.89 419.646 5426.02 433.553 5817.3 280.964C6471.15 25.9764 7206.64 219.374 7397.23 309.575" stroke="white" stroke-width="0.5"/>
<path d="M-4677.65 5.63758C-4394.16 0.787989 -3724.47 8.4762 -3313.57 78.0258C-2900.02 147.52 -2368.42 111.501 -2154.52 82.4307C-1826.38 51.5591 -1086.26 13.2472 -727.304 110.827C-281.232 233.49 385.548 239.278 855.298 193.463C1325.05 147.647 1864.58 114.952 2167.46 112.754C2570.41 109.037 3352.48 86.5998 3821.62 190.308C4214.95 278.45 4934.2 229.843 5325.48 192.637C5795.87 146.3 6317.05 44.6044 6811.23 226.264" stroke="white" stroke-width="0.5"/>
<path d="M-4678.17 10.6004C-4397.35 4.39481 -3733.33 8.7602 -3323.78 75.8665C-2908.73 142.859 -2374.01 113.113 -2158.95 84.9625C-1833.27 55.0682 -1104.3 16.1577 -745.193 107.629C-301.73 223.39 375.154 228.995 847.43 188.555C1319.71 148.114 1862.94 116.148 2165.62 111.609C2571.67 103.934 3369.72 76.3171 3835.72 182.041C4231.94 274.336 4949.77 227.708 5341.05 186.849C5817.25 133.907 6345.21 41.5534 6829.78 220.317" stroke="white" stroke-width="0.5"/>
<path d="M-4678.72 16.1864C-4400.74 8.54211 -3742.74 9.38201 -3334.61 73.8961C-2917.98 138.234 -2379.94 115.143 -2163.65 87.9692C-1840.58 59.1118 -1123.44 19.5662 -764.174 104.557C-323.479 212.995 364.125 218.405 839.081 183.668C1314.04 148.93 1861.21 117.738 2163.66 110.714C2573.01 98.8399 3388 65.7278 3850.68 173.59C4249.98 270.292 4966.29 225.763 5357.57 181.029C5839.93 121.079 6375.09 38.6368 6849.46 214.329" stroke="white" stroke-width="0.5"/>
<path d="M-4679.3 22.479C-4404.31 13.3133 -3752.69 10.425 -3346.06 72.1978C-2927.76 133.729 -2386.21 117.676 -2168.62 91.5342C-1848.31 63.7733 -1143.68 23.5561 -784.244 101.694C-346.476 202.387 352.464 207.592 830.255 178.886C1308.04 150.179 1859.37 119.804 2161.59 110.153C2574.43 93.8384 3407.35 54.9152 3866.5 165.038C4269.05 266.401 4983.76 224.092 5375.04 175.26C5863.92 107.899 6406.69 35.938 6870.28 208.382" stroke="white" stroke-width="0.5"/>
<path d="M-4679.91 29.5595C-4408.08 18.7896 -3763.17 11.9705 -3358.14 70.853C-2938.07 129.424 -2392.83 120.792 -2173.86 95.7388C-1856.45 69.1341 -1165.01 28.2087 -805.406 99.1206C-370.724 191.649 340.168 196.637 820.946 174.289C1301.72 151.941 1857.43 122.428 2159.41 110.008C2575.92 89.0107 3427.74 43.9605 3883.18 156.468C4289.16 262.744 5002.18 222.777 5393.45 169.623C5889.2 94.4479 6440 33.5383 6892.22 202.557" stroke="white" stroke-width="0.5"/>
<path d="M-4680.55 37.5029C-4412.05 25.0462 -3774.2 14.0936 -3370.83 69.9367C-2948.92 125.396 -2399.78 124.566 -2179.37 100.658C-1865.02 75.269 -1187.45 33.599 -827.66 96.9125C-396.222 180.855 327.238 185.615 811.159 169.954C1295.08 154.292 1855.4 125.686 2157.12 110.353C2577.49 84.4321 3449.18 32.939 3900.71 147.953C4310.3 259.396 5021.54 221.891 5412.82 164.193C5915.8 80.8014 6475.03 31.5127 6915.3 196.93" stroke="white" stroke-width="0.5"/>
<path d="M-4681.23 46.3802C-4416.21 32.154 -3785.77 16.8652 -3384.15 69.52C-2960.29 121.714 -2407.07 129.07 -2185.15 106.363C-1874.01 82.2493 -1210.99 39.7981 -851.001 95.1408C-422.968 170.076 313.677 174.597 800.894 165.95C1288.11 157.303 1853.26 129.647 2154.72 111.26C2579.14 80.1734 3471.68 21.9215 3919.12 139.565C4332.49 256.428 5041.86 221.506 5433.14 159.042C5943.7 67.0304 6511.78 29.9323 6939.51 191.571" stroke="white" stroke-width="0.5"/>
<path d="M-4681.94 56.2491C-4420.57 40.1706 -3797.88 20.343 -3398.1 69.6604C-2972.2 118.437 -2414.71 134.361 -2191.21 112.911C-1883.42 90.1324 -1235.63 46.8635 -875.437 93.8628C-450.967 159.37 299.479 163.641 790.146 162.336C1280.81 161.031 1851.03 134.371 2152.2 112.785C2580.87 76.2923 3495.22 10.9657 3938.37 131.362C4355.7 253.899 5063.13 221.68 5454.41 154.226C5972.89 53.1923 6550.25 28.8546 6964.85 186.538" stroke="white" stroke-width="0.5"/>
<path d="M-4682.67 67.1623C-4425.12 49.1489 -3810.53 24.5798 -3412.66 70.4108C-2984.63 115.618 -2422.69 140.492 -2197.53 120.355C-1893.24 98.9713 -1261.37 54.8482 -900.962 93.1315C-480.215 148.789 284.649 152.799 778.92 159.164C1273.19 165.53 1848.69 139.909 2149.57 114.982C2582.67 72.8416 3519.82 0.124402 3958.5 123.397C4379.96 251.86 5085.35 222.465 5476.63 149.8C6003.4 39.3401 6590.44 28.3325 6991.32 181.885" stroke="white" stroke-width="0.5"/>
<path d="M-4683.44 81.3784C-4429.86 61.3474 -3823.72 31.8341 -3427.85 74.0297C-2997.6 115.514 -2431 149.722 -2204.12 130.954C-1903.49 111.024 -1288.2 66.0106 -927.578 95.2053C-510.713 140.593 269.185 144.33 767.215 158.693C1265.24 173.056 1846.26 148.52 2146.83 120.11C2584.55 72.0798 3545.47 -8.34393 3979.47 117.927C4405.25 252.571 5108.52 226.12 5499.79 148.02C6035.21 27.7321 6632.34 30.6245 7018.92 179.869" stroke="white" stroke-width="0.5"/>
<path d="M-4684.25 107.57C-4434.8 85.4384 -3837.45 50.7783 -3443.66 89.1894C-3011.1 126.798 -2439.66 170.722 -2210.98 153.38C-1914.16 134.964 -1316.14 89.023 -955.287 108.757C-542.462 143.453 253.086 146.907 755.028 169.596C1256.97 192.284 1843.72 168.877 2143.97 136.84C2586.5 82.6793 3572.18 -5.76677 4001.31 123.626C4431.58 264.703 5132.63 241.318 5523.91 157.56C6068.32 27.0409 6675.96 44.403 7047.66 189.163" stroke="white" stroke-width="0.5"/>
<path d="M-4685.08 134.952C-4439.93 110.637 -3851.73 70.6274 -3460.09 105.105C-3025.14 138.686 -2448.66 192.708 -2218.12 176.848C-1925.25 160.005 -1345.18 113.101 -984.087 123.001C-575.462 146.585 236.352 149.744 742.36 181.086C1248.37 212.429 1841.08 190.194 2141.01 154.388C2588.54 93.8551 3599.93 -2.92927 4024.01 129.708C4458.95 277.472 5157.7 257.273 5548.97 167.634C6102.74 26.4814 6721.3 58.8829 7077.52 198.982" stroke="white" stroke-width="0.5"/>
<path d="M-4685.95 163.511C-4445.26 136.931 -3866.54 91.369 -3477.15 121.764C-3039.7 151.165 -2458 215.668 -2225.52 201.346C-1936.76 186.136 -1375.32 138.231 -1013.98 137.925C-609.711 149.976 218.984 152.828 729.213 193.152C1239.44 233.476 1838.35 212.459 2137.93 172.742C2590.64 105.595 3628.73 0.156288 4047.57 136.161C4487.35 290.865 5183.71 273.973 5574.99 178.231C6138.45 26.0412 6768.35 74.052 7108.51 209.313" stroke="white" stroke-width="0.5"/>
<path d="M-4686.84 193.242C-4450.78 164.313 -3881.9 112.996 -3494.82 139.16C-3054.8 164.227 -2467.69 239.595 -2233.2 226.866C-1948.69 213.349 -1406.56 164.407 -1044.96 153.522C-645.21 153.62 200.984 156.155 715.588 205.788C1230.19 255.421 1835.51 235.666 2134.74 191.894C2592.83 117.892 3658.59 3.48309 4071.99 142.978C4516.79 304.876 5210.68 291.411 5601.95 189.343C6175.48 25.7135 6817.13 89.9034 7140.65 220.15" stroke="white" stroke-width="0.5"/>
<path d="M-4687.77 224.135C-4456.5 192.775 -3897.79 135.501 -3513.13 157.284C-3070.43 177.866 -2477.71 264.48 -2241.14 253.401C-1961.04 241.636 -1438.9 191.621 -1077.03 169.785C-681.959 157.508 182.35 159.714 701.482 218.984C1220.61 278.254 1832.58 259.806 2131.43 211.836C2595.1 130.738 3689.49 7.0429 4097.27 150.151C4547.26 319.496 5238.59 309.579 5629.87 200.962C6213.81 25.4902 6867.62 106.429 7173.9 231.484" stroke="white" stroke-width="0.5"/>
<path d="M-4688.73 256.184C-4462.41 222.31 -3914.23 158.876 -3532.05 176.13C-3086.59 192.073 -2488.07 290.315 -2249.35 280.943C-1973.81 270.99 -1472.34 219.865 -1110.19 186.705C-719.958 161.632 163.082 163.498 686.898 232.734C1210.71 301.969 1829.55 284.871 2128.02 232.561C2597.44 144.125 3721.45 10.8281 4123.41 157.673C4578.78 334.718 5267.46 328.469 5658.73 213.081C6253.44 25.3636 6919.83 123.621 7208.3 243.309" stroke="white" stroke-width="0.5"/>
<path d="M-4689.72 289.38C-4468.51 252.91 -3931.2 183.113 -3551.59 195.688C-3103.28 206.84 -2498.77 317.094 -2257.84 309.484C-1986.99 301.402 -1506.88 249.131 -1144.45 204.274C-759.207 165.984 143.18 167.5 671.832 247.028C1200.48 326.556 1826.41 310.854 2124.49 254.061C2599.86 158.045 3754.46 14.8307 4150.41 165.534C4611.33 350.533 5297.27 348.074 5688.55 225.691C6294.37 25.3256 6973.75 141.471 7243.82 255.615" stroke="white" stroke-width="0.5"/>
<path d="M-4690.74 323.721C-4474.81 284.571 -3948.72 208.209 -3571.76 215.956C-3120.5 222.165 -2509.82 344.813 -2266.59 339.021C-2000.6 332.87 -1542.52 279.417 -1179.79 222.491C-799.708 170.563 122.643 171.717 656.286 261.866C1189.93 352.015 1823.18 337.752 2120.85 276.333C2602.35 172.496 3788.52 19.0483 4178.27 173.734C4644.91 366.939 5328.03 368.391 5719.31 238.791C6336.61 25.374 7029.4 159.978 7280.47 268.401" stroke="white" stroke-width="0.5"/>
<path d="M-4691.8 359.2C-4481.31 317.288 -3966.78 234.157 -3592.55 236.928C-3138.25 238.041 -2521.21 373.466 -2275.62 369.548C-2014.63 365.388 -1579.26 310.715 -1216.23 241.348C-841.458 175.361 101.472 176.142 640.26 277.239C1179.05 378.336 1819.84 365.558 2117.09 299.37C2604.92 187.472 3823.64 23.4739 4206.98 182.264C4679.53 383.93 5359.74 389.413 5751.02 252.373C6380.16 25.5016 7086.76 179.133 7318.26 281.659" stroke="white" stroke-width="0.5"/>
<path d="M-4692.88 395.812C-4488 351.055 -3985.38 260.954 -3613.97 258.599C-3156.54 254.463 -2532.93 403.047 -2284.91 401.06C-2029.08 398.95 -1617.1 343.022 -1253.76 260.841C-884.458 180.374 79.6688 180.77 623.756 293.144C1167.84 405.517 1816.41 394.268 2113.23 323.168C2607.58 202.966 3859.8 28.1028 4236.56 191.121C4715.19 401.501 5392.41 411.135 5783.69 266.432C6425 25.7039 7145.84 198.933 7357.18 295.385" stroke="white" stroke-width="0.5"/>
</g>
</svg>
