<svg width="491" height="194" viewBox="0 0 491 194" fill="none" xmlns="http://www.w3.org/2000/svg">
<path d="M-10377.2 1.21987C-10091.2 -2.35643 -9416.14 8.45194 -9003.99 80.2958C-8591.83 152.14 -8063.17 110.231 -7850.36 80.2958C-7519.91 48.5065 -6769.32 10.7567 -6410.51 114.072C-5961.99 243.216 -5304.69 249.176 -4837.31 198.314C-4369.94 147.451 -3833.88 114.072 -3530.81 114.072C-3130.78 114.072 -2363.71 96.4977 -1891.62 198.314C-1501.01 282.555 -780.416 232.09 -389.139 198.314C75.8003 158.179 590.605 47.7117 1093.81 232.09" stroke="#505050" stroke-width="0.5"/>
<path d="M-10394 433.553C-10194.9 385.869 -9704.51 288.594 -9336 280.964C-8875.36 271.427 -8245 433.553 -7994.47 433.553C-7743.95 433.553 -7356.04 376.332 -6992.37 280.964C-6628.71 185.596 -5642.77 185.597 -5093.23 309.575C-4543.69 433.553 -3887.12 423.876 -3590.75 347.722C-3089.7 218.975 -1802.98 32.9307 -1432.99 200.3C-948.107 419.646 -273.977 433.553 117.301 280.964C771.157 25.9764 1506.64 219.374 1697.23 309.575" stroke="#505050" stroke-width="0.5"/>
<path d="M-10377.6 5.63758C-10094.2 0.787989 -9424.46 8.4762 -9013.57 78.0258C-8600.01 147.52 -8068.42 111.501 -7854.51 82.4307C-7526.38 51.5591 -6786.26 13.2472 -6427.3 110.827C-5981.23 233.49 -5314.45 239.278 -4844.7 193.463C-4374.95 147.647 -3835.42 114.952 -3532.54 112.754C-3129.59 109.037 -2347.52 86.5998 -1878.38 190.308C-1485.05 278.45 -765.794 229.843 -374.516 192.637C95.8765 146.3 617.052 44.6044 1111.23 226.264" stroke="#505050" stroke-width="0.5"/>
<path d="M-10378.2 10.6004C-10097.3 4.39481 -9433.33 8.7602 -9023.78 75.8665C-8608.73 142.859 -8074.01 113.113 -7858.95 84.9625C-7533.27 55.0682 -6804.3 16.1577 -6445.19 107.629C-6001.73 223.39 -5324.84 228.995 -4852.57 188.555C-4380.29 148.114 -3837.05 116.148 -3534.38 111.609C-3128.33 103.934 -2330.28 76.3171 -1864.28 182.041C-1468.05 274.336 -750.226 227.708 -358.948 186.849C117.253 133.907 645.213 41.5534 1129.78 220.317" stroke="#505050" stroke-width="0.5"/>
<path d="M-10378.7 16.1864C-10100.7 8.54211 -9442.74 9.38201 -9034.61 73.8961C-8617.98 138.234 -8079.94 115.143 -7863.65 87.9692C-7540.58 59.1118 -6823.44 19.5662 -6464.17 104.557C-6023.48 212.995 -5335.87 218.405 -4860.92 183.668C-4385.96 148.93 -3838.79 117.738 -3536.34 110.714C-3126.99 98.8399 -2311.99 65.7278 -1849.32 173.59C-1450.02 270.292 -733.708 225.763 -342.43 181.029C139.932 121.079 675.09 38.6368 1149.46 214.329" stroke="#505050" stroke-width="0.5"/>
<path d="M-10379.3 22.479C-10104.3 13.3133 -9452.68 10.425 -9046.06 72.1978C-8627.76 133.729 -8086.21 117.676 -7868.62 91.5342C-7548.3 63.7733 -6843.67 23.5561 -6484.24 101.694C-6046.47 202.387 -5347.53 207.592 -4869.74 178.886C-4391.95 150.179 -3840.63 119.804 -3538.4 110.153C-3125.57 93.8384 -2292.65 54.9152 -1833.5 165.038C-1430.95 266.401 -716.239 224.092 -324.961 175.26C163.918 107.899 706.688 35.938 1170.28 208.382" stroke="#505050" stroke-width="0.5"/>
<path d="M-10379.9 29.5595C-10108.1 18.7896 -9463.17 11.9705 -9058.13 70.853C-8638.07 129.424 -8092.82 120.792 -7873.86 95.7388C-7556.45 69.1341 -6865.01 28.2087 -6505.4 99.1206C-6070.72 191.649 -5359.83 196.637 -4879.05 174.289C-4398.27 151.941 -3842.56 122.428 -3540.59 110.008C-3124.08 89.0107 -2272.26 43.9605 -1816.82 156.468C-1410.84 262.744 -697.821 222.777 -306.543 169.623C189.206 94.4479 740.002 33.5383 1192.22 202.557" stroke="#505050" stroke-width="0.5"/>
<path d="M-10380.6 37.5029C-10112 25.0462 -9474.2 14.0936 -9070.83 69.9367C-8648.91 125.396 -8099.78 124.566 -7879.37 100.658C-7565.02 75.269 -6887.45 33.599 -6527.66 96.9125C-6096.22 180.855 -5372.76 185.615 -4888.84 169.954C-4404.92 154.292 -3844.6 125.686 -3542.88 110.353C-3122.51 84.4321 -2250.82 32.939 -1799.28 147.953C-1389.7 259.396 -678.454 221.891 -287.176 164.193C215.798 80.8014 775.034 31.5127 1215.3 196.93" stroke="#505050" stroke-width="0.5"/>
<path d="M-10381.2 46.3802C-10116.2 32.154 -9485.77 16.8652 -9084.15 69.52C-8660.29 121.714 -8107.07 129.07 -7885.15 106.363C-7574.01 82.2493 -6910.99 39.7981 -6551 95.1408C-6122.97 170.076 -5386.32 174.597 -4899.1 165.95C-4411.89 157.303 -3846.74 129.647 -3545.28 111.26C-3120.86 80.1734 -2228.32 21.9215 -1780.88 139.565C-1367.51 256.428 -658.133 221.506 -266.856 159.042C243.698 67.0304 811.786 29.9323 1239.51 191.571" stroke="#505050" stroke-width="0.5"/>
<path d="M-10381.9 56.2491C-10120.6 40.1706 -9497.88 20.343 -9098.09 69.6604C-8672.19 118.437 -8114.71 134.361 -7891.21 112.911C-7583.42 90.1324 -6935.63 46.8635 -6575.43 93.8628C-6150.97 159.37 -5400.52 163.641 -4909.85 162.336C-4419.19 161.031 -3848.97 134.371 -3547.8 112.785C-3119.13 76.2923 -2204.77 10.9657 -1761.62 131.362C-1344.29 253.899 -636.868 221.68 -245.59 154.226C272.897 53.1923 850.252 28.8546 1264.85 186.538" stroke="#505050" stroke-width="0.5"/>
<path d="M-10382.7 67.1623C-10125.1 49.1489 -9510.53 24.5798 -9112.66 70.4108C-8684.63 115.618 -8122.68 140.492 -7897.53 120.355C-7593.24 98.9713 -6961.36 54.8482 -6600.96 93.1315C-6180.21 148.789 -5415.35 152.799 -4921.08 159.164C-4426.81 165.53 -3851.31 139.909 -3550.43 114.982C-3117.33 72.8416 -2180.17 0.124402 -1741.5 123.397C-1320.04 251.86 -614.65 222.465 -223.372 149.8C303.402 39.3401 890.438 28.3325 1291.32 181.885" stroke="#505050" stroke-width="0.5"/>
<path d="M-10383.4 81.3784C-10129.9 61.3474 -9523.72 31.8341 -9127.84 74.0297C-8697.6 115.514 -8131 149.722 -7904.12 130.954C-7603.49 111.024 -6988.2 66.0106 -6627.58 95.2053C-6210.71 140.593 -5430.81 144.33 -4932.78 158.693C-4434.75 173.056 -3853.74 148.52 -3553.17 120.11C-3115.45 72.0798 -2154.52 -8.34393 -1720.52 117.927C-1294.75 252.571 -591.483 226.12 -200.205 148.02C335.211 27.7321 932.342 30.6245 1318.92 179.869" stroke="#505050" stroke-width="0.5"/>
<path d="M-10384.2 107.57C-10134.8 85.4384 -9537.45 50.7783 -9143.66 89.1894C-8711.1 126.798 -8139.66 170.722 -7910.98 153.38C-7614.16 134.964 -7016.14 89.023 -6655.28 108.757C-6242.46 143.453 -5446.91 146.907 -4944.97 169.596C-4443.03 192.284 -3856.28 168.877 -3556.02 136.84C-3113.49 82.6793 -2127.82 -5.76677 -1698.68 123.626C-1268.42 264.703 -567.367 241.318 -176.089 157.56C368.323 27.0409 975.963 44.403 1347.66 189.163" stroke="#505050" stroke-width="0.5"/>
<path d="M-10385.1 134.952C-10139.9 110.637 -9551.73 70.6274 -9160.09 105.105C-8725.14 138.686 -8148.66 192.708 -7918.12 176.848C-7625.25 160.005 -7045.18 113.101 -6684.08 123.001C-6275.46 146.585 -5463.65 149.744 -4957.64 181.086C-4451.63 212.429 -3858.91 190.194 -3558.99 154.388C-3111.46 93.8551 -2100.07 -2.92927 -1675.99 129.708C-1241.05 277.472 -542.303 257.273 -151.025 167.634C402.738 26.4814 1021.3 58.8829 1377.52 198.982" stroke="#505050" stroke-width="0.5"/>
<path d="M-10385.9 163.511C-10145.3 136.931 -9566.54 91.369 -9177.15 121.764C-8739.7 151.165 -8158 215.668 -7925.52 201.346C-7636.76 186.136 -7075.32 138.231 -6713.98 137.925C-6309.71 149.976 -5481.01 152.828 -4970.78 193.152C-4460.56 233.476 -3861.65 212.459 -3562.07 172.742C-3109.35 105.595 -2071.27 0.156288 -1652.43 136.161C-1212.65 290.865 -516.289 273.973 -125.011 178.231C438.456 26.0412 1068.35 74.052 1408.52 209.313" stroke="#505050" stroke-width="0.5"/>
<path d="M-10386.8 193.242C-10150.8 164.313 -9581.89 112.996 -9194.82 139.16C-8754.8 164.227 -8167.68 239.595 -7933.19 226.866C-7648.69 213.349 -7106.56 164.407 -6744.96 153.522C-6345.21 153.62 -5499.01 156.155 -4984.41 205.788C-4469.81 255.421 -3864.48 235.666 -3565.26 191.894C-3107.16 117.892 -2041.41 3.48309 -1628.01 142.978C-1183.21 304.876 -489.322 291.411 -98.0438 189.343C475.482 25.7135 1117.13 89.9034 1440.65 220.15" stroke="#505050" stroke-width="0.5"/>
<path d="M-10387.8 224.135C-10156.5 192.775 -9597.79 135.501 -9213.12 157.284C-8770.42 177.866 -8177.71 264.48 -7941.14 253.401C-7661.04 241.636 -7138.9 191.621 -6777.03 169.785C-6381.96 157.508 -5517.65 159.714 -4998.52 218.984C-4479.38 278.254 -3867.42 259.806 -3568.57 211.836C-3104.9 130.738 -2010.5 7.0429 -1602.73 150.151C-1152.73 319.496 -461.408 309.579 -70.1302 200.962C513.809 25.4902 1167.62 106.429 1473.91 231.484" stroke="#505050" stroke-width="0.5"/>
<path d="M-10388.7 256.184C-10162.4 222.31 -9614.22 158.876 -9232.05 176.13C-8786.58 192.073 -8188.07 290.315 -7949.35 280.943C-7673.8 270.99 -7172.34 219.865 -6810.19 186.705C-6419.96 161.632 -5536.92 163.498 -5013.1 232.734C-4489.29 301.969 -3870.45 284.871 -3571.98 232.561C-3102.56 144.125 -1978.54 10.8281 -1576.59 157.673C-1121.22 334.718 -432.542 328.469 -41.2642 213.081C553.442 25.3636 1219.83 123.621 1508.3 243.309" stroke="#505050" stroke-width="0.5"/>
<path d="M-10389.7 289.38C-10168.5 252.91 -9631.2 183.113 -9251.59 195.688C-8803.27 206.84 -8198.77 317.094 -7957.83 309.484C-7686.99 301.402 -7206.88 249.131 -6844.44 204.274C-6459.21 165.984 -5556.82 167.5 -5028.17 247.028C-4499.51 326.556 -3873.59 310.854 -3575.51 254.061C-3100.14 158.045 -1945.54 14.8307 -1549.59 165.534C-1088.67 350.533 -402.729 348.074 -11.4516 225.691C594.376 25.3256 1273.76 141.471 1543.82 255.615" stroke="#505050" stroke-width="0.5"/>
<path d="M-10390.7 323.721C-10174.8 284.571 -9648.72 208.209 -9271.76 215.956C-8820.5 222.165 -8209.82 344.813 -7966.59 339.021C-7700.6 332.87 -7242.52 279.417 -6879.79 222.491C-6499.71 170.563 -5577.36 171.717 -5043.71 261.866C-4510.07 352.015 -3876.82 337.752 -3579.15 276.333C-3097.65 172.496 -1911.48 19.0483 -1521.73 173.734C-1055.09 366.939 -371.966 368.391 19.3116 238.791C636.615 25.374 1329.4 159.978 1580.48 268.401" stroke="#505050" stroke-width="0.5"/>
<path d="M-10391.8 359.2C-10181.3 317.288 -9666.78 234.157 -9292.55 236.928C-8838.25 238.041 -8221.21 373.466 -7975.62 369.548C-7714.63 365.388 -7279.26 310.715 -6916.23 241.348C-6541.46 175.361 -5598.53 176.142 -5059.74 277.239C-4520.95 378.336 -3880.16 365.558 -3582.9 299.37C-3095.07 187.472 -1876.36 23.4739 -1493.01 182.264C-1020.46 383.93 -340.254 389.413 51.0241 252.373C680.158 25.5016 1386.76 179.133 1618.26 281.659" stroke="#505050" stroke-width="0.5"/>
<path d="M-10392.9 395.812C-10188 351.055 -9685.37 260.954 -9313.96 258.599C-8856.54 254.463 -8232.93 403.047 -7984.91 401.06C-7729.08 398.95 -7317.1 343.022 -6953.75 260.841C-6584.46 180.374 -5620.33 180.77 -5076.24 293.144C-4532.16 405.517 -3883.59 394.268 -3586.77 323.168C-3092.42 202.966 -1840.2 28.1028 -1463.43 191.121C-984.803 401.501 -307.59 411.135 83.6881 266.432C725.006 25.7039 1445.84 198.933 1657.18 295.385" stroke="#505050" stroke-width="0.5"/>
</svg>
