<svg width="224" height="234" fill="none" xmlns="http://www.w3.org/2000/svg"><path d="M84.532 199.119c-4.375-2.551-3.281-5.468 0-7.472l19.502-12.03c4.178-2.394 7.655-2.916 12.029 0l21.689 12.941c2.005 2.005 1.823 4.374 0 5.65l-21.689 12.941c-4.01 2.187-7.837 2.187-11.847 0l-19.684-12.03Z" fill="#CECECE" stroke="#fff" stroke-width=".5"/><g filter="url(#a)"><path d="M93.827 193.835c-3.463 2.165-7.045.861-9.843-1.822l9.478-5.833c2.916 2.734 3.28 5.833.365 7.655Z" fill="#7A7A7A"/></g><g filter="url(#b)"><path d="M111.505 186.543c-4.557.547-7.155-1.937-10.025-5.285 3.172-2.235 5.833-3.646 8.931-3.646 1.725.136 2.614.352 4.01 1.094 2.005 3.281 1.276 6.926-2.916 7.837Z" fill="#7A7A7A"/></g><g filter="url(#c)"><path d="M104.035 204.406c-4.74-2.734-4.01-8.749 2.004-9.478 1.122 1.846 2.443 2.205 5.286 2.37 4.557 1.64 4.375 4.921 2.916 8.019-1.275 2.187-3.645 2.916-5.832 1.823l-4.374-2.734Z" fill="#7A7A7A"/></g><g filter="url(#d)"><path d="M123.171 192.195c-3.099-2.188-3.281-6.38-.182-8.384l11.664 6.926c.729 2.916-1.275 4.556-3.645 4.556-2.749-.379-4.402-.891-7.837-3.098Z" fill="#7A7A7A"/></g><path d="m134.892 202.933-19.01 11.68c-3.828 2.187-7.473 2.369-11.118 0l-18.955-11.3" stroke="#fff" stroke-width=".5"/><path d="M84.348 187.821c-3.278 1.574-4.379 5.026-.183 7.473l19.321 11.665c4.921 2.916 9.66 2.552 13.487 0l19.502-11.665c3.828-2.369 3.646-5.468 0-7.29l-19.502-11.848c-5.42-3.619-8.298-3.069-13.305 0l-19.32 11.665Z" stroke="#fff" stroke-width=".5"/><g filter="url(#e)"><path d="M81.432 199.302v-7.837c.1 2.026 1.275 3.098 4.374 4.833v7.014l-3.645-2.369c-.73-.547-.73-1.094-.73-1.641Z" fill="#fff"/></g><g filter="url(#f)"><path d="M87.813 204.587v-7.108l2.004 1.276v7.108l-2.004-1.276Z" fill="#fff"/></g><g filter="url(#g)"><path d="M91.457 206.593v-6.856l1.094.659v6.926l-1.094-.729Z" fill="#fff"/></g><path d="M103.123 212.424v-4.009h.547v4.009h-.547ZM116.611 212.424v-4.009h.546v4.009h-.546Z" fill="#fff"/><g filter="url(#h)"><path d="M134.652 203.312v-6.926c3.486-2.023 4.33-3.043 4.739-4.739v6.744c0 2.005-1.093 2.734-4.739 4.921Z" fill="#fff"/></g><path d="M59.38 74.634V72.81l1.822 1.823h-1.823ZM56.463 72.993v-1.822l1.822 1.822h-1.822Z" fill="#fff"/><path d="M59.38 74.634V72.81l1.822 1.823h-1.823ZM56.463 72.993v-1.822l1.822 1.822h-1.822Z" stroke="#fff" stroke-width=".5"/><path d="m205.19 94.501-12.941 7.291-12.94-7.473 12.94-8.02 12.941 8.202Z" fill="#969696" stroke="#fff" stroke-width=".5"/><path d="m179.309 94.318 12.94 7.473v16.039l-12.94-7.655V94.318Z" fill="#CECECE" stroke="#fff" stroke-width=".5"/><path d="M205.191 109.993V94.501l-12.941 7.29v16.039l12.941-7.837Z" fill="#969696" stroke="#fff" stroke-width=".5"/><path d="m198.812 102.339-3.281 1.823v3.827l3.281-2.005v-3.645Z" fill="#505050" stroke="#fff" stroke-width=".5"/><path d="m201.91 100.334-3.098 2.005v3.645l-3.281 2.005v3.828l6.379-4.01v-7.473Z" fill="#CECECE" stroke="#fff" stroke-width=".5"/><path d="m222.688 54.767-12.941 7.29-12.94-7.472 12.94-8.02 12.941 8.202Z" fill="#969696" stroke="#fff" stroke-width=".5"/><path d="m196.807 54.585 12.94 7.473v16.04l-12.94-7.656V54.585Z" fill="#CECECE" stroke="#fff" stroke-width=".5"/><path d="M222.689 70.258V54.766l-12.941 7.29v16.04l12.941-7.838Z" fill="#969696" stroke="#fff" stroke-width=".5"/><path d="m216.31 62.605-3.281 1.822v3.828l3.281-2.005v-3.645Z" fill="#505050" stroke="#fff" stroke-width=".5"/><path d="m219.409 60.6-3.099 2.005v3.645l-3.281 2.005v3.827l6.38-4.01V60.6Z" fill="#CECECE" stroke="#fff" stroke-width=".5"/><path d="m146.137 23.052-12.94 7.29-12.941-7.472 12.941-8.02 12.94 8.202Z" fill="#969696" stroke="#fff" stroke-width=".5"/><path d="m120.256 22.87 12.941 7.472v16.04l-12.941-7.656V22.869Z" fill="#CECECE" stroke="#fff" stroke-width=".5"/><path d="M146.138 38.544V23.05l-12.941 7.29v16.04l12.941-7.837Z" fill="#969696" stroke="#fff" stroke-width=".5"/><path d="m139.759 30.89-3.28 1.822v3.828l3.28-2.005V30.89Z" fill="#505050" stroke="#fff" stroke-width=".5"/><path d="m142.858 28.885-3.099 2.005v3.645l-3.28 2.005v3.828l6.379-4.01v-7.473Z" fill="#CECECE" stroke="#fff" stroke-width=".5"/><path d="m96.196 46.749-12.94 7.29-12.942-7.472 12.941-8.02 12.94 8.202Z" fill="#969696" stroke="#fff" stroke-width=".5"/><path d="m70.314 46.566 12.941 7.473v16.039l-12.94-7.655V46.566Z" fill="#CECECE" stroke="#fff" stroke-width=".5"/><path d="M96.197 62.24V46.748l-12.941 7.29v16.04l12.94-7.838Z" fill="#969696" stroke="#fff" stroke-width=".5"/><path d="m89.818 54.587-3.28 1.822v3.828l3.28-2.005v-3.645Z" fill="#505050" stroke="#fff" stroke-width=".5"/><path d="m92.916 52.581-3.098 2.005v3.645l-3.28 2.005v3.828l6.378-4.01V52.58Z" fill="#CECECE" stroke="#fff" stroke-width=".5"/><path d="m49.9 91.586-12.94 7.29-12.94-7.472 12.94-8.02 12.94 8.202Z" fill="#969696" stroke="#fff" stroke-width=".5"/><path d="m24.02 91.404 12.94 7.472v16.04l-12.94-7.656V91.404Z" fill="#CECECE" stroke="#fff" stroke-width=".5"/><path d="M49.79 107.216V91.724l-12.94 7.29v16.039l12.94-7.837Z" fill="#969696" stroke="#fff" stroke-width=".5"/><path d="m43.523 99.424-3.28 1.822v3.828l3.28-2.005v-3.645Z" fill="#505050" stroke="#fff" stroke-width=".5"/><path d="m46.621 97.419-3.098 2.005v3.645l-3.28 2.005v3.827l6.378-4.01v-7.472Z" fill="#CECECE" stroke="#fff" stroke-width=".5"/><path d="m167.647 75.546-12.941 7.29-12.94-7.472 12.94-8.02 12.941 8.202Z" fill="#969696" stroke="#fff" stroke-width=".5"/><path d="m141.766 75.363 12.94 7.473v16.039l-12.94-7.655V75.363Z" fill="#CECECE" stroke="#fff" stroke-width=".5"/><path d="M167.648 91.037V75.545l-12.941 7.29v16.04l12.941-7.838Z" fill="#969696" stroke="#fff" stroke-width=".5"/><path d="m151.165 89.126.046-3.752-3.324-1.9.113 3.844 3.165 1.808Z" fill="#505050" stroke="#fff" stroke-width=".5"/><path d="m151.37 92.811-.203-3.685-3.165-1.809-.113-3.843-3.323-1.899.316 7.528 6.488 3.708Z" fill="#CECECE" stroke="#fff" stroke-width=".5"/><path d="m185.874 11.389-12.941 7.29-12.941-7.473 12.941-8.02 12.941 8.203Z" fill="#969696" stroke="#fff" stroke-width=".5"/><path d="m159.992 11.206 12.941 7.473v16.039l-12.941-7.655V11.206Z" fill="#CECECE" stroke="#fff" stroke-width=".5"/><path d="M185.874 26.88V11.388l-12.94 7.29v16.04l12.94-7.838Z" fill="#969696" stroke="#fff" stroke-width=".5"/><path d="m169.392 24.969.045-3.753-3.323-1.899.113 3.843 3.165 1.809Z" fill="#505050" stroke="#fff" stroke-width=".5"/><path d="m169.596 28.654-.203-3.685-3.165-1.809-.112-3.843-3.324-1.9.316 7.529 6.488 3.708Z" fill="#CECECE" stroke="#fff" stroke-width=".5"/><path d="m70.315 9.202-12.94 7.29L44.433 9.02 57.374 1l12.941 8.202Z" fill="#969696" stroke="#fff" stroke-width=".5"/><path d="m44.434 9.019 12.94 7.473V32.53l-12.94-7.655V9.019Z" fill="#CECECE" stroke="#fff" stroke-width=".5"/><path d="M70.314 24.693V9.201l-12.941 7.29v16.04l12.94-7.838Z" fill="#969696" stroke="#fff" stroke-width=".5"/><path d="m53.833 22.782.046-3.753-3.324-1.899.113 3.843 3.165 1.81Z" fill="#505050" stroke="#fff" stroke-width=".5"/><path d="m54.036 26.467-.203-3.685-3.165-1.809-.113-3.843-3.323-1.9.316 7.529 6.488 3.708Z" fill="#CECECE" stroke="#fff" stroke-width=".5"/><path d="m38.967 38.362-12.94 7.291-12.941-7.473 12.94-8.02 12.941 8.202Z" fill="#969696" stroke="#fff" stroke-width=".5"/><path d="m13.086 38.18 12.94 7.472v16.04l-12.94-7.656V38.18Z" fill="#CECECE" stroke="#fff" stroke-width=".5"/><path d="M38.968 53.854V38.362l-12.94 7.29v16.04l12.94-7.838Z" fill="#969696" stroke="#fff" stroke-width=".5"/><path d="m22.485 51.943.046-3.753-3.323-1.9.113 3.844 3.164 1.809Z" fill="#505050" stroke="#fff" stroke-width=".5"/><path d="m22.69 55.628-.203-3.685-3.165-1.81-.113-3.842-3.323-1.9.316 7.529 6.488 3.708Z" fill="#CECECE" stroke="#fff" stroke-width=".5"/><path d="m49.717 52.945 7.655 4.557v-1.276l-7.655-4.739v-1.276l7.655 4.557v-7.473" stroke="#fff" stroke-width=".5"/><path d="M50.266 49.482v-1.458l1.093.73v1.457l-1.093-.729ZM52.635 50.758V49.3l1.094.73v1.457l-1.094-.729ZM54.822 52.034v-1.458l1.094.729v1.458l-1.094-.729Z" fill="#fff"/><path d="M50.266 49.482v-1.458l1.093.73v1.457l-1.093-.729ZM52.635 50.758V49.3l1.094.73v1.457l-1.094-.729ZM54.822 52.034v-1.458l1.094.729v1.458l-1.094-.729ZM72.502 33.99c-1.458 0-1.823 2.916-.365 2.37 1.276-.548 1.64-2.37.365-2.37ZM75.965 31.802c-1.459 0-1.823 2.917-.365 2.37 1.276-.547 1.64-2.37.365-2.37Z" stroke="#fff" stroke-width=".5"/><path d="M160.916 115.097c-1.458 0-1.823 2.916-.365 2.369 1.276-.547 1.641-2.369.365-2.369ZM164.379 112.909c-1.458 0-1.823 2.917-.365 2.37 1.276-.547 1.641-2.369.365-2.37Z" fill="#fff"/><path d="M160.916 115.097c-1.458 0-1.823 2.916-.365 2.369 1.276-.547 1.641-2.369.365-2.369ZM164.379 112.909c-1.458 0-1.823 2.917-.365 2.37 1.276-.547 1.641-2.369.365-2.37Z" stroke="#fff" stroke-width=".5"/><path d="m174.75 104.526-1.275.911v1.458l1.275-.911v-1.458ZM174.75 106.895l-1.275.911v1.458l1.275-.911v-1.458ZM174.75 109.082l-1.275.912v1.458l1.275-.912v-1.458Z" fill="#fff"/><path d="m174.75 104.526-1.275.911v1.458l1.275-.911v-1.458ZM174.75 106.895l-1.275.911v1.458l1.275-.911v-1.458ZM174.75 109.082l-1.275.912v1.458l1.275-.912v-1.458Z" stroke="#fff" stroke-width=".5"/><path d="m86.718 28.158-1.823 1.276v2.733l1.823-1.275v-2.734Z" fill="#fff"/><path d="m84.713 33.99 6.561-4.01m-6.561 5.468 6.561-4.01m-6.561 5.468 6.561-3.827m-6.379-3.645 1.823-1.276v2.734l-1.823 1.275v-2.733Z" stroke="#fff" stroke-width=".5"/><path d="m184.23 75.364-1.823 1.275v2.734l1.823-1.276v-2.733Z" fill="#fff"/><path d="m182.225 81.196 6.561-4.01m-6.561 5.468 6.561-4.01m-6.561 5.468 6.561-3.827m-6.379-3.646 1.823-1.275v2.733l-1.823 1.276V76.64Z" stroke="#fff" stroke-width=".5"/><path opacity=".3" d="M3.06 169.047c-2.37-1.458-3.099-3.098 0-4.739l104.254-63.063c2.369-1.64 3.887-1.268 6.015 0l104.619 63.246c1.822 1.093 2.005 2.916 0 4.192l-104.255 63.063c-2.551 1.64-4.01 1.64-6.561.182L3.06 169.047Z" stroke="#fff" stroke-width=".5"/><path opacity=".7" d="M26.364 176.266c-1.86-1.14-2.431-2.423 0-3.706l81.79-49.316c1.859-1.283 3.049-.992 4.719 0l82.076 49.459c1.43.855 1.573 2.28 0 3.278l-81.79 49.316c-2.002 1.283-3.146 1.283-5.148.143l-81.647-49.174Z" stroke="#fff" stroke-width=".5"/><path d="m137.936 110.54-12.941 7.291-12.94-7.473 12.94-8.02 12.941 8.202Z" fill="#969696" stroke="#fff" stroke-width=".5"/><path d="m112.055 110.357 12.94 7.473v16.039l-12.94-7.655v-15.857Z" fill="#CECECE" stroke="#fff" stroke-width=".5"/><path d="M137.937 126.032v-15.493l-12.941 7.291v16.039l12.941-7.837Z" fill="#969696" stroke="#fff" stroke-width=".5"/><path d="m131.558 118.377-3.281 1.823v3.827l3.281-2.005v-3.645Z" fill="#505050" stroke="#fff" stroke-width=".5"/><path d="m134.657 116.372-3.099 2.005v3.645l-3.281 2.005v3.828l6.38-4.01v-7.473Z" fill="#CECECE" stroke="#fff" stroke-width=".5"/><path d="m98.02 101.061-12.94 7.291-12.941-7.473 12.94-8.02 12.941 8.202Z" fill="#969696" stroke="#fff" stroke-width=".5"/><path d="m72.139 100.878 12.94 7.473v16.039l-12.94-7.655v-15.857Z" fill="#CECECE" stroke="#fff" stroke-width=".5"/><path d="M98.02 116.553V101.06l-12.94 7.291v16.039l12.94-7.837Z" fill="#969696" stroke="#fff" stroke-width=".5"/><path d="m81.538 114.642.046-3.753-3.324-1.899.113 3.843 3.165 1.809Z" fill="#505050" stroke="#fff" stroke-width=".5"/><path d="m81.743 118.326-.203-3.685-3.165-1.808-.113-3.844-3.323-1.899.316 7.528 6.488 3.708Z" fill="#CECECE" stroke="#fff" stroke-width=".5"/><path d="m68.13 137.881-12.941 7.291-12.941-7.473 12.94-8.02 12.941 8.202Z" fill="#969696" stroke="#fff" stroke-width=".5"/><path d="m42.248 137.698 12.94 7.473v16.039l-12.94-7.655v-15.857Z" fill="#CECECE" stroke="#fff" stroke-width=".5"/><path d="M68.13 153.373V137.88l-12.94 7.291v16.039l12.94-7.837Z" fill="#969696" stroke="#fff" stroke-width=".5"/><path d="m51.648 151.462.045-3.753-3.323-1.899.113 3.843 3.165 1.809Z" fill="#505050" stroke="#fff" stroke-width=".5"/><path d="m51.852 155.146-.203-3.685-3.165-1.808-.113-3.844-3.323-1.899.316 7.528 6.488 3.708Z" fill="#CECECE" stroke="#fff" stroke-width=".5"/><path d="m172.749 142.255-12.941 7.29-12.941-7.472 12.941-8.02 12.941 8.202Z" fill="#969696" stroke="#fff" stroke-width=".5"/><path d="m146.867 142.072 12.941 7.473v16.039l-12.941-7.655v-15.857Z" fill="#CECECE" stroke="#fff" stroke-width=".5"/><path d="M172.749 157.746v-15.492l-12.94 7.29v16.04l12.94-7.838Z" fill="#969696" stroke="#fff" stroke-width=".5"/><path d="m156.267 155.835.045-3.753-3.323-1.899.113 3.843 3.165 1.809Z" fill="#505050" stroke="#fff" stroke-width=".5"/><path d="m156.471 159.52-.203-3.685-3.165-1.809-.112-3.843-3.324-1.899.316 7.528 6.488 3.708Z" fill="#CECECE" stroke="#fff" stroke-width=".5"/><path opacity=".2" d="M49.254 179.207c-1.353-.832-1.769-1.768 0-2.705l59.515-35.992c1.353-.936 2.219-.724 3.434 0l59.723 36.096c1.041.625 1.145 1.665 0 2.393l-59.515 35.992c-1.457.936-2.289.936-3.746.104l-59.411-35.888Z" stroke="#fff" stroke-width=".5"/><path opacity=".7" d="M70.714 182.538c-.878-.54-1.148-1.147 0-1.755l38.633-23.36c.878-.608 1.441-.47 2.229 0l38.768 23.428c.675.405.743 1.08 0 1.552l-38.633 23.361c-.946.607-1.486.607-2.431.067l-38.566-23.293Z" stroke="#fff" stroke-width=".5"/><path d="M109.682 49.117v-2.005l1.458.912v2.005l-1.458-.912ZM112.416 50.758v-2.005l1.458.911v2.005l-1.458-.911ZM109.682 52.398v-2.005l1.458.912v2.005l-1.458-.912Z" fill="#fff"/><path d="M109.682 49.117v-2.005l1.458.912v2.005l-1.458-.912ZM112.416 50.758v-2.005l1.458.911v2.005l-1.458-.911ZM109.682 52.398v-2.005l1.458.912v2.005l-1.458-.912Z" stroke="#fff" stroke-width=".5"/><path d="m22.452 109.326 1.69-1.078.015 1.72-1.69 1.077-.015-1.719ZM22.537 112.513l1.691-1.078.015 1.72-1.69 1.077-.016-1.719ZM19.685 111.088l1.69-1.077.015 1.719-1.69 1.078-.015-1.72Z" fill="#fff"/><path d="m22.452 109.326 1.69-1.078.015 1.72-1.69 1.077-.015-1.719ZM22.537 112.513l1.691-1.078.015 1.72-1.69 1.077-.016-1.719ZM19.685 111.088l1.69-1.077.015 1.719-1.69 1.078-.015-1.72ZM136.84 56.59v7.474l7.837-4.74v1.459l-7.837 4.556v1.459l7.837-4.557" stroke="#fff" stroke-width=".5"/><path d="M138.117 61.875v-1.458l1.276-.73v1.459l-1.276.73ZM140.304 60.6V59.14l1.276-.729v1.458l-1.276.73ZM142.492 59.323v-1.458l1.275-.729v1.458l-1.275.73Z" fill="#fff"/><path d="M138.117 61.875v-1.458l1.276-.73v1.459l-1.276.73ZM140.304 60.6V59.14l1.276-.729v1.458l-1.276.73ZM142.492 59.323v-1.458l1.275-.729v1.458l-1.275.73Z" stroke="#fff" stroke-width=".5"/><path d="M37.873 78.28v-1.458l1.276-.73v1.459l-1.276.729ZM40.06 77.004v-1.458l1.276-.73v1.459l-1.276.729ZM42.247 75.728V74.27l1.276-.729v1.458l-1.276.73Z" fill="#fff"/><path d="M37.873 78.28v-1.458l1.276-.73v1.459l-1.276.729ZM40.06 77.004v-1.458l1.276-.73v1.459l-1.276.729ZM42.247 75.728V74.27l1.276-.729v1.458l-1.276.73Z" stroke="#fff" stroke-width=".5"/><path d="m175.482 38.912-.912 2.916 2.187-1.276-1.275-1.64ZM174.57 45.29l.912-2.915 1.275 1.64-2.187 1.276Z" fill="#fff"/><path d="m175.482 38.912-.912 2.916 2.187-1.276-1.275-1.64ZM174.57 45.29l.912-2.915 1.275 1.64-2.187 1.276Z" stroke="#fff" stroke-width=".5"/><path d="M104.214 79.738v-1.823h1.641l-1.641 1.823ZM101.48 81.196v-1.823h1.641l-1.641 1.823Z" fill="#fff"/><path d="M104.214 79.738v-1.823h1.641l-1.641 1.823ZM101.48 81.196v-1.823h1.641l-1.641 1.823Z" stroke="#fff" stroke-width=".5"/><path d="M84.531 85.752v-1.64h.73v1.094l-.73.546ZM86.172 84.659v-2.552h.729v2.005l-.73.547ZM87.812 83.747v-3.463h.729v2.917l-.729.546Z" fill="#fff"/><path d="M84.531 85.752v-1.64h.73v1.094l-.73.546ZM86.172 84.659v-2.552h.729v2.005l-.73.547ZM87.812 83.747v-3.463h.729v2.917l-.729.546Z" stroke="#fff" stroke-width=".5"/><path d="M28.76 129.678v-1.641h.729v1.094l-.73.547ZM30.4 128.584v-2.552h.73v2.005l-.73.547ZM32.04 127.673v-3.463h.73v2.916l-.73.547Z" fill="#fff"/><path d="M28.76 129.678v-1.641h.729v1.094l-.73.547ZM30.4 128.584v-2.552h.73v2.005l-.73.547ZM32.04 127.673v-3.463h.73v2.916l-.73.547Z" stroke="#fff" stroke-width=".5"/><path d="M58.65 120.565v-2.734l1.64 1.093v2.734l-1.64-1.093ZM126.088 86.116v-2.734l1.64 1.094v2.734l-1.64-1.094Z" fill="#fff" stroke="#fff" stroke-width=".5"/><path d="m58.65 122.206 6.197 3.827m-6.197-2.187 6.197 3.645m-6.197-2.004 6.197 3.645M126.088 87.757l6.197 3.827m-6.197-2.187 6.197 3.645m-6.197-2.005 6.197 3.646" stroke="#fff" stroke-width=".5"/><path d="M110.413 101.245c-1.458-.912-1.458 1.458 0 2.369 1.276.797 1.276-1.276 0-2.369ZM110.412 104.708c-1.458-.912-1.458 1.458 0 2.369 1.276.797 1.276-1.276 0-2.369Z" fill="#fff"/><path d="M110.413 101.245c-1.458-.912-1.458 1.458 0 2.369 1.276.797 1.276-1.276 0-2.369ZM110.412 104.708c-1.458-.912-1.458 1.458 0 2.369 1.276.797 1.276-1.276 0-2.369Z" stroke="#fff" stroke-width=".5"/><path d="M152.697 108.534v-2.916l.729.182v3.099l-.729-.365ZM154.338 109.263v-1.64l.546.182v1.641l-.546-.183ZM155.978 109.992v-1.093l.547.182v1.094l-.547-.183Z" fill="#fff"/><path d="M152.697 108.534v-2.916l.729.182v3.099l-.729-.365ZM154.338 109.263v-1.64l.546.182v1.641l-.546-.183ZM155.978 109.992v-1.093l.547.182v1.094l-.547-.183ZM55.005 137.332v-16.039c0-3.281 0-4.921-4.557-1.641l-20.96 12.759c-2.734 1.823-3.828 1.094-3.828-1.64v-23.148c0-.911.29-1.531 1.458-2.369l3.463-2.187" stroke="#fff" stroke-width=".5"/><path d="M55.914 137.515a.911.911 0 1 1-1.822 0 .911.911 0 0 1 1.822 0Z" fill="#fff"/><path d="M37.141 91.038v-6.744c0-2.005.183-2.734 1.458-3.645L53 72.083m0 0 23.876-14.4m-23.877 14.4 31.896 19.502m0 0V88.85c0-1.094.365-1.823 1.276-2.37l21.507-12.758M84.894 91.585v9.113m22.783-26.975V105.8c0 1.276 0 2.005.911 2.552l3.281 2.005m-4.192-36.635V48.57c0-1.823.182-2.734 1.64-3.646l16.586-10.024m-.911 74.91V95.777c0-1.458.365-2.005 1.823-.912l28.25 17.133c2.188 1.276 3.463 1.276 5.286 0l11.3-6.926m0 0V95.048c0-1.276-.182-2.005-1.458-2.734l-8.019-5.104m9.477 17.862v9.296m0 0 13.488-8.02m-13.488 8.02v9.477c0 2.005-.182 2.917-1.64 3.828l-8.02 4.921c-1.64 1.094-2.187 1.64-2.187 2.916v6.562m32.261-48.482V75.728c0-2.005.364-2.734 2.005-3.828l8.202-5.103m-60.329 8.384-5.833-3.463c-1.458-.911-.729-2.187 1.094-3.098l34.265-20.778c.911-.547 1.094-1.094 1.094-2.552V34.536m-89.31 11.847V34.72c0-.671-.364-1.459-1.093-2.005l-6.085-3.75m-11.959-7.368 11.959 7.368m0 0L49.717 44.925c-2.005 1.094-2.551 2.005-2.551 3.281v8.202c0 1.276-1.276 2.005-2.552 1.093l-11.665-7.29" stroke="#fff" stroke-width=".5"/><circle cx="126.271" cy="34.719" r=".911" fill="#fff"/><path d="M85.807 100.698a.911.911 0 1 1-1.822 0 .911.911 0 0 1 1.822 0ZM38.053 91.22a.911.911 0 1 1-1.822 0 .911.911 0 0 1 1.822 0ZM33.315 49.847a.911.911 0 1 1-1.823 0 .911.911 0 0 1 1.823 0ZM84.166 46.749a.911.911 0 1 1-1.822 0 .911.911 0 0 1 1.822 0ZM64.664 21.231a.911.911 0 1 1-1.822 0 .911.911 0 0 1 1.822 0ZM162.903 87.028a.911.911 0 1 1-1.823 0 .911.911 0 0 1 1.823 0ZM125.905 110.176a.911.911 0 1 1-1.823 0 .911.911 0 0 1 1.823 0ZM160.717 142.436a.911.911 0 1 1-1.823.001.911.911 0 0 1 1.823-.001ZM186.598 105.984a.911.911 0 1 1-1.822 0 .911.911 0 0 1 1.822 0ZM192.977 94.137a.911.911 0 1 1-1.822 0 .911.911 0 0 1 1.822 0ZM203.731 66.433a.911.911 0 1 1-1.822 0 .911.911 0 0 1 1.822 0ZM110.413 187.454c-6.379 0-6.926 9.842 0 9.842 6.197 0 6.014-9.842 0-9.842ZM130.097 175.607c-6.379 0-6.926 9.842 0 9.842 6.196 0 6.014-9.842 0-9.842ZM110.413 166.676c-6.379 0-6.926 9.842 0 9.842 6.197 0 6.014-9.842 0-9.842ZM90.728 175.607c-6.38 0-6.926 9.842 0 9.842 6.196 0 6.014-9.842 0-9.842Z" fill="#fff"/><defs><filter id="a" x="73.984" y="176.18" width="31.855" height="28.743" filterUnits="userSpaceOnUse" color-interpolation-filters="sRGB"><feFlood flood-opacity="0" result="BackgroundImageFix"/><feBlend in="SourceGraphic" in2="BackgroundImageFix" result="shape"/><feGaussianBlur stdDeviation="5" result="effect1_foregroundBlur_932_635"/></filter><filter id="b" x="91.481" y="167.612" width="34.01" height="29.006" filterUnits="userSpaceOnUse" color-interpolation-filters="sRGB"><feFlood flood-opacity="0" result="BackgroundImageFix"/><feBlend in="SourceGraphic" in2="BackgroundImageFix" result="shape"/><feGaussianBlur stdDeviation="5" result="effect1_foregroundBlur_932_635"/></filter><filter id="c" x="90.939" y="184.928" width="34.221" height="32.714" filterUnits="userSpaceOnUse" color-interpolation-filters="sRGB"><feFlood flood-opacity="0" result="BackgroundImageFix"/><feBlend in="SourceGraphic" in2="BackgroundImageFix" result="shape"/><feGaussianBlur stdDeviation="5" result="effect1_foregroundBlur_932_635"/></filter><filter id="d" x="110.754" y="173.811" width="34.051" height="31.482" filterUnits="userSpaceOnUse" color-interpolation-filters="sRGB"><feFlood flood-opacity="0" result="BackgroundImageFix"/><feBlend in="SourceGraphic" in2="BackgroundImageFix" result="shape"/><feGaussianBlur stdDeviation="5" result="effect1_foregroundBlur_932_635"/></filter><filter id="e" x="61.432" y="171.465" width="44.375" height="51.847" filterUnits="userSpaceOnUse" color-interpolation-filters="sRGB"><feFlood flood-opacity="0" result="BackgroundImageFix"/><feColorMatrix in="SourceAlpha" values="0 0 0 0 0 0 0 0 0 0 0 0 0 0 0 0 0 0 127 0" result="hardAlpha"/><feOffset/><feGaussianBlur stdDeviation="10"/><feComposite in2="hardAlpha" operator="out"/><feColorMatrix values="0 0 0 0 1 0 0 0 0 1 0 0 0 0 1 0 0 0 1 0"/><feBlend in2="BackgroundImageFix" result="effect1_dropShadow_932_635"/><feBlend in="SourceGraphic" in2="effect1_dropShadow_932_635" result="shape"/></filter><filter id="f" x="67.813" y="177.479" width="42.006" height="48.384" filterUnits="userSpaceOnUse" color-interpolation-filters="sRGB"><feFlood flood-opacity="0" result="BackgroundImageFix"/><feColorMatrix in="SourceAlpha" values="0 0 0 0 0 0 0 0 0 0 0 0 0 0 0 0 0 0 127 0" result="hardAlpha"/><feOffset/><feGaussianBlur stdDeviation="10"/><feComposite in2="hardAlpha" operator="out"/><feColorMatrix values="0 0 0 0 1 0 0 0 0 1 0 0 0 0 1 0 0 0 1 0"/><feBlend in2="BackgroundImageFix" result="effect1_dropShadow_932_635"/><feBlend in="SourceGraphic" in2="effect1_dropShadow_932_635" result="shape"/></filter><filter id="g" x="71.457" y="179.737" width="41.094" height="47.585" filterUnits="userSpaceOnUse" color-interpolation-filters="sRGB"><feFlood flood-opacity="0" result="BackgroundImageFix"/><feColorMatrix in="SourceAlpha" values="0 0 0 0 0 0 0 0 0 0 0 0 0 0 0 0 0 0 127 0" result="hardAlpha"/><feOffset/><feGaussianBlur stdDeviation="10"/><feComposite in2="hardAlpha" operator="out"/><feColorMatrix values="0 0 0 0 1 0 0 0 0 1 0 0 0 0 1 0 0 0 1 0"/><feBlend in2="BackgroundImageFix" result="effect1_dropShadow_932_635"/><feBlend in="SourceGraphic" in2="effect1_dropShadow_932_635" result="shape"/></filter><filter id="h" x="114.652" y="171.647" width="44.738" height="51.665" filterUnits="userSpaceOnUse" color-interpolation-filters="sRGB"><feFlood flood-opacity="0" result="BackgroundImageFix"/><feColorMatrix in="SourceAlpha" values="0 0 0 0 0 0 0 0 0 0 0 0 0 0 0 0 0 0 127 0" result="hardAlpha"/><feOffset/><feGaussianBlur stdDeviation="10"/><feComposite in2="hardAlpha" operator="out"/><feColorMatrix values="0 0 0 0 1 0 0 0 0 1 0 0 0 0 1 0 0 0 1 0"/><feBlend in2="BackgroundImageFix" result="effect1_dropShadow_932_635"/><feBlend in="SourceGraphic" in2="effect1_dropShadow_932_635" result="shape"/></filter></defs></svg>