<svg width="207" height="210" viewBox="0 0 207 210" fill="none" xmlns="http://www.w3.org/2000/svg">
<path d="M115.378 194.419C106.567 199.034 99.4347 199.453 90.6239 194.419L2.9359 141.974C-0.420584 138.617 -0.83284 134.005 2.93597 131.904L90.6239 79.8789C99.015 74.8443 106.567 75.2638 115.378 79.8789L198.451 128.128C208.52 133.583 205.583 139.456 196.772 145.33L115.378 194.419Z" fill="#CECECE" stroke="white" stroke-width="0.5"/>
<path d="M200.97 129.807C206.666 135.308 205.292 138.651 197.613 144.911V157.078L204.326 153.302C206.185 151.634 206.49 150.488 206.424 148.267V139.037C206.365 133.542 204.839 131.823 200.97 129.807Z" fill="white"/>
<path d="M24.754 154.56V166.728L2.51736 153.302C0.419514 151.623 4.5826e-05 149.945 0 147.008V136.519C0.839119 138.617 2.0978 141.134 3.35648 141.554L24.754 154.56Z" fill="white"/>
<path d="M35.2422 173.021V161.273L41.9551 165.469V177.216L35.2422 173.021Z" fill="white"/>
<path d="M24.7539 166.727L90.2052 206.166M90.2052 206.166V194.266M90.2052 206.166C97.8327 210.803 107.827 210.781 115.379 206.166M115.379 206.166L117.298 205.021M115.379 206.166V204.488M115.379 194.418V197.355M187.123 163.339L197.612 144.91V148.267M187.123 163.339L190.06 161.586M187.123 163.339L184.258 165.049M190.06 161.586L197.612 148.267M190.06 161.586L192.997 159.833M197.612 148.267V151.204M197.612 151.204L192.997 159.833M197.612 151.204V154.141M192.997 159.833L195.305 158.455M195.305 158.455L197.612 157.078V154.141M195.305 158.455L197.612 154.141M184.258 165.049L194.256 147.008M184.258 165.049L181.669 166.595M181.669 166.595L190.899 149.106M181.669 166.595L178.313 168.598M178.313 168.598L186.704 151.623M178.313 168.598L174.956 170.602M174.956 170.602L182.928 153.721M174.956 170.602L172.019 172.355M172.019 172.355L179.152 155.819M172.019 172.355L168.425 174.5M168.425 174.5L175.376 158.336M168.425 174.5L164.578 176.797M164.578 176.797L171.6 160.434M164.578 176.797L161.53 178.616M161.53 178.616L167.824 162.951M161.53 178.616L158.593 180.37M158.593 180.37L164.578 164.63M158.593 180.37L155.656 182.123M155.656 182.123L160.691 167.147M155.656 182.123L152.63 183.929M152.63 183.929L157.335 169.245M152.63 183.929L149.783 185.629M149.783 185.629L153.978 171.343M149.783 185.629L147.265 187.132M147.265 187.132L150.622 173.44M147.265 187.132L144.328 188.885M144.328 188.885L147.265 175.119M144.328 188.885L140.681 191.062M140.681 191.062L144.328 176.797M140.681 191.062L137.196 193.143M137.196 193.143L140.681 179.113M137.196 193.143L133.653 195.258M133.653 195.258L137.196 181.412M133.653 195.258L130.139 197.355M130.139 197.355C130.078 197.02 132.581 187.985 133.839 183.51M130.139 197.355L126.287 199.654M126.287 199.654L129.644 186.027M126.287 199.654L123.11 201.551M123.11 201.551L126.707 187.705M123.11 201.551L119.994 203.411M119.994 203.411L123.35 189.803M119.994 203.411L117.298 205.021M117.298 205.021L120.413 191.482M115.379 204.488L117.896 193.143M115.379 204.488V197.355M115.379 197.355L116.218 193.999" stroke="white" stroke-width="0.5"/>
<g filter="url(#filter0_f_434_7960)">
<path d="M186.829 129.319L118.818 173.873C108.108 178.5 101.924 179.543 90.0138 173.873L16.8027 129.319L48.6196 105.156L92.9039 99.4622L186.829 129.319Z" fill="#7A7A7A"/>
</g>
<path d="M89.6133 157.071C99.2147 162.672 107.216 163.072 116.417 157.071L176.827 121.302V54.6553L113.617 91.8609C105.286 96.1482 100.553 96.0455 92.0137 91.8609L30.4043 55.0553V122.266L89.6133 157.071Z" fill="#969696"/>
<path d="M177.227 121.065L176.827 121.302M176.827 121.302L116.417 157.071C107.216 163.072 99.2147 162.672 89.6133 157.071L30.4043 122.266V55.0553L92.0137 91.8609C100.553 96.0455 105.286 96.1482 113.617 91.8609L176.827 54.6553V121.302Z" stroke="white" stroke-width="0.5"/>
<path d="M50.0087 90.2607C45.2067 90.2607 46.4065 98.262 52.009 99.8622C56.8081 99.8622 53.2076 90.2607 50.0087 90.2607Z" fill="white" stroke="white" stroke-width="0.5"/>
<path d="M57.2095 85.0601L48.4082 90.6609C52.4088 88.6606 55.2092 95.4616 54.0091 99.0622L64.4106 92.6612C64.4106 88.6606 62.4103 85.0601 57.2095 85.0601Z" fill="#CECECE" stroke="white" stroke-width="0.5"/>
<path d="M62.8088 87.4602L53.6074 93.4611L54.0075 94.2612L63.2089 88.6604L62.8088 87.4602Z" fill="white"/>
<path d="M64.0097 89.8606L54.4082 95.8615C54.4907 96.9256 54.5123 97.5273 54.4082 98.6619L64.4097 92.661C64.4281 91.3986 64.3184 90.8058 64.0097 89.8606Z" fill="white"/>
<path d="M56.8093 119.865C48.9039 111.152 46.7377 105.91 47.6079 95.8609C46.4079 93.4613 47.2081 90.6608 49.2084 90.2608L57.2096 85.0593C60.8101 84.6599 63.6081 87.1396 64.4107 91.4609C71.1053 96.4278 74.0121 102.663 75.6124 108.263C76.984 113.064 77.6127 116.265 80.8132 116.265C80.8132 109.064 78.2612 102.717 72.812 94.6616C63.6106 81.0594 48.4082 74.258 42.8075 85.0593C37.6066 99.4622 40.8655 111.812 52.809 125.865C59.6099 133.868 64.4107 127.466 56.8093 119.865Z" stroke="white" stroke-width="0.5"/>
<path d="M71.6116 107.463C69.5039 101.121 67.4072 98.2032 62.4102 93.8613L64.4105 92.6611V91.4609C72.3835 97.9661 73.1774 101.671 75.6122 108.263C76.7886 114.093 77.8895 115.955 80.813 116.265C78.8126 121.465 72.4117 115.465 71.6116 107.463Z" fill="#CECECE" stroke="white" stroke-width="0.2"/>
<path d="M60.4091 128.667C45.3234 112.946 41.5292 103.478 42.8064 85.46C40.0066 93.0611 38.4066 101.062 43.6066 112.264C52.4079 127.466 57.4008 130.86 60.4091 128.667Z" fill="#CECECE" stroke="white" stroke-width="0.2"/>
<path d="M54.0078 105.863V102.262L55.208 105.063L56.4082 103.863V107.063M58.0084 108.663L58.4085 107.597M60.0087 110.264L59.6087 107.863M59.6087 107.863L59.2086 105.463L58.4085 107.597M59.6087 107.863L58.4085 107.597M62.009 107.063L62.8091 109.664M63.6093 112.264L62.8091 109.664M62.8091 109.664L61.2089 111.064L64.0093 108.663" stroke="white" stroke-width="0.5"/>
<path d="M93.6133 97.4618V155.471M112.816 97.0618V155.071" stroke="white" stroke-width="0.5"/>
<path d="M182.827 113.864V47.8542C182.462 50.6311 180.997 52.1103 176.826 54.6553V121.865C180.427 119.465 182.827 118.265 182.827 113.864Z" fill="white"/>
<path d="M22.8027 112.664V47.4543C23.1782 50.8026 25.6258 52.4979 30.8039 55.4556V123.066C23.925 119.075 22.8028 117.065 22.8027 112.664Z" fill="white"/>
<path d="M34.4043 124.666V57.8557L40.0051 61.0562V128.266L34.4043 124.666Z" fill="white"/>
<path d="M42.8066 85.0599V62.6565L44.4069 63.8567V83.0596C43.7634 83.6197 43.4163 84.0323 42.8066 85.0599Z" fill="white"/>
<path d="M42.8066 129.867V110.264C43.2892 112.279 43.6092 113.251 44.4069 114.264V131.067L42.8066 129.867Z" fill="white"/>
<path d="M27.7345 53.2805C22.3252 50.1253 21.0916 45.3601 27.7345 41.6788L88.5436 5.67332C99.5846 -1.9616 105.912 -1.1504 117.348 5.67332L178.157 42.0788C184.158 46.0798 184.959 49.2803 178.157 53.6806L116.548 90.0861C105.746 96.8875 98.9452 96.0874 89.3437 90.0861L27.7345 53.2805Z" fill="#CECECE" stroke="white" stroke-width="0.5"/>
<path d="M164.025 122.666V113.064C164.025 110.264 170.026 107.463 170.026 111.064V121.065C170.026 123.866 164.025 126.666 164.025 122.666Z" fill="white" stroke="white" stroke-width="0.5"/>
<path d="M147.623 96.7954V87.1939C147.623 84.3935 153.624 81.5933 153.624 85.1936V95.1952C153.624 97.9956 147.623 100.796 147.623 96.7954Z" fill="white" stroke="white" stroke-width="0.5"/>
<path d="M130.82 131.2V121.599C130.82 118.799 136.821 115.998 136.821 119.599V129.6C136.821 132.401 130.82 135.201 130.82 131.2Z" fill="#CECECE" stroke="white" stroke-width="0.5"/>
<path d="M159.625 111.465C159.625 110.264 162.025 111.064 164.026 112.665V124.266C162.025 124.266 159.625 123.066 159.625 120.665V111.465Z" fill="#CECECE" stroke="white" stroke-width="0.5"/>
<path d="M143.223 85.5944C143.223 84.3936 145.623 85.1937 147.623 86.7946V98.3955C145.623 98.3955 143.223 97.1953 143.223 94.7949V85.5944Z" fill="#CECECE" stroke="white" stroke-width="0.5"/>
<path d="M126.42 120C126.42 118.799 128.82 119.599 130.821 121.2V132.801C128.82 132.801 126.42 131.601 126.42 129.2V120Z" fill="#CECECE" stroke="white" stroke-width="0.5"/>
<path d="M159.625 111.064C161.625 107.063 166.826 106.663 169.627 109.864C167.226 108.663 165.086 110.33 164.026 112.664C162.825 111.464 161.225 110.664 159.625 111.064Z" fill="#CECECE" stroke="white" stroke-width="0.5"/>
<path d="M143.223 85.1935C145.223 81.1927 150.424 80.7922 153.224 83.9934C150.824 82.7931 148.684 84.4592 147.623 86.7936C146.423 85.5935 144.823 84.7934 143.223 85.1935Z" fill="#CECECE" stroke="white" stroke-width="0.5"/>
<path d="M126.42 119.599C128.42 115.598 133.621 115.198 136.421 118.399C134.021 117.198 131.881 118.864 130.821 121.199C129.62 119.999 128.02 119.199 126.42 119.599Z" fill="#CECECE" stroke="white" stroke-width="0.5"/>
<path d="M143.223 127.866V95.4614C143.223 97.4617 146.022 99.062 149.623 99.062V123.866C149.623 128.666 149.223 131.467 146.823 132.667C143.503 133.685 143.223 131.867 143.223 127.866Z" stroke="white" stroke-width="0.5"/>
<path d="M147.223 102.262C147.223 127.466 146.823 129.867 143.223 130.667C144.023 134.667 149.624 133.467 149.624 125.866V99.062C146.423 99.062 143.223 97.4617 143.223 95.4614V102.262H147.223Z" fill="#CECECE" stroke="white" stroke-width="0.2"/>
<path d="M159.625 111.465V77.0593C159.625 72.6581 166.026 69.0577 166.026 74.2589V107.863" stroke="white" stroke-width="0.5"/>
<path d="M163.225 107.865V71.8592C164.825 71.4584 166.025 71.8581 166.025 74.2596V107.865C164.932 107.529 164.318 107.608 163.225 107.865Z" fill="#CECECE" stroke="white" stroke-width="0.2"/>
<path d="M126.42 129.867V139.468C126.42 144.669 132.821 141.869 132.821 137.868V133.067" stroke="white" stroke-width="0.5"/>
<path d="M130.421 136.268H126.42V130.267C127.22 131.867 129.144 132.789 132.821 133.467V137.868C132.821 141.869 127.22 143.469 126.82 140.668C128.933 139.452 129.626 138.415 130.421 136.268Z" fill="#CECECE" stroke="white" stroke-width="0.2"/>
<path d="M130.42 91.4609V116.265C131.358 116.118 131.883 116.103 132.82 116.265V97.4618C132.82 93.8613 132.42 91.4609 130.42 91.4609Z" fill="#CECECE" stroke="white" stroke-width="0.2"/>
<path d="M126.42 120.264V96.6607C126.42 91.8609 132.821 88.6604 132.821 95.0604V116.265" stroke="white" stroke-width="0.5"/>
<g filter="url(#filter1_f_434_7960)">
<ellipse cx="102.815" cy="50.783" rx="22.8035" ry="13.4927" fill="#7A7A7A"/>
</g>
<path d="M89.5211 35.1154C93.1224 33.1746 95.0749 32.5819 98.4862 32.0623C96.3468 35.2172 96.439 38.0914 99.0975 41.1199C92.9139 41.0049 89.8267 38.0668 89.5211 35.1154Z" fill="white"/>
<path d="M103.784 40.3057C100.32 37.965 100.626 33.5889 104.395 31.4517C108.794 31.5558 110.862 32.0065 114.073 33.2835C108.863 34.6357 106.359 35.8804 103.784 40.3057Z" fill="white"/>
<path d="M118.25 35.5225C114.073 35.319 108.47 38.0668 108.063 41.7305C113.486 39.9315 116.626 39.5722 122.529 40.9164C121.978 38.7047 120.288 36.8455 118.25 35.5225Z" fill="white"/>
<path d="M122.937 44.5801C118.964 42.2394 114.24 42.2025 109.183 44.5801C115.576 45.8277 117.433 47.268 119.473 50.3811C121.76 48.1682 122.298 46.8857 122.937 44.5801Z" fill="white"/>
<path d="M115.805 53.1289C115.805 49.4651 111.296 47.3135 106.535 47.3279C109.263 50.7075 109.319 52.6262 106.942 56.0802C110.748 55.4146 112.699 54.8014 115.805 53.1289Z" fill="white"/>
<path d="M101.441 56.3855C105.618 53.2306 105.006 50.3811 101.746 48.1421C99.4597 51.8799 97.2067 53.2506 92.068 54.859C95.2826 55.8904 97.2483 56.3091 101.441 56.3855Z" fill="white"/>
<path d="M83.3066 47.5315C89.3331 48.6645 92.4635 48.4354 97.6712 46.7173C96.9581 50.1775 92.6793 52.8236 87.6873 52.5183C85.2558 50.9026 84.3558 49.7837 83.3066 47.5315Z" fill="white"/>
<path d="M82.6953 44.0713C88.4415 46.1952 92.4755 45.8014 96.5506 43.7659C90.8758 42.7359 88.5182 41.4811 85.7516 37.965C83.6089 40.1138 82.9163 41.4457 82.6953 44.0713Z" fill="white"/>
<defs>
<filter id="filter0_f_434_7960" x="6.80273" y="89.4622" width="190.025" height="98.2822" filterUnits="userSpaceOnUse" color-interpolation-filters="sRGB">
<feFlood flood-opacity="0" result="BackgroundImageFix"/>
<feBlend mode="normal" in="SourceGraphic" in2="BackgroundImageFix" result="shape"/>
<feGaussianBlur stdDeviation="5" result="effect1_foregroundBlur_434_7960"/>
</filter>
<filter id="filter1_f_434_7960" x="70.0117" y="27.2903" width="65.6074" height="46.9854" filterUnits="userSpaceOnUse" color-interpolation-filters="sRGB">
<feFlood flood-opacity="0" result="BackgroundImageFix"/>
<feBlend mode="normal" in="SourceGraphic" in2="BackgroundImageFix" result="shape"/>
<feGaussianBlur stdDeviation="5" result="effect1_foregroundBlur_434_7960"/>
</filter>
</defs>
</svg>
