<svg width="491" height="194" viewBox="0 0 491 194" fill="none" xmlns="http://www.w3.org/2000/svg">
<g opacity="0.5">
<path d="M-1559.16 1.21987C-1273.17 -2.35643 -598.143 8.45194 -185.988 80.2958C226.167 152.14 754.83 110.231 967.642 80.2958C1298.08 48.5065 2048.67 10.7567 2407.49 114.072C2856.01 243.216 3513.31 249.176 3980.68 198.314C4448.06 147.451 4984.12 114.072 5287.19 114.072C5687.22 114.072 6454.29 96.4977 6926.38 198.314C7316.98 282.555 8037.58 232.09 8428.86 198.314C8893.8 158.179 9408.6 47.7117 9911.81 232.09" stroke="white" stroke-width="0.5"/>
<path d="M-1576 433.553C-1376.88 385.869 -886.516 288.594 -518.001 280.964C-57.3571 271.427 572.998 433.553 823.523 433.553C1074.05 433.553 1461.96 376.332 1825.63 280.964C2189.29 185.596 3175.23 185.597 3724.77 309.575C4274.31 433.553 4930.88 423.876 5227.25 347.722C5728.3 218.975 7015.02 32.9307 7385 200.3C7869.89 419.646 8544.02 433.553 8935.3 280.964C9589.15 25.9764 10324.6 219.374 10515.2 309.575" stroke="white" stroke-width="0.5"/>
<path d="M-1559.65 5.63758C-1276.16 0.787989 -606.466 8.4762 -195.57 78.0258C217.984 147.52 749.583 111.501 963.484 82.4307C1291.62 51.5591 2031.74 13.2472 2390.7 110.827C2836.77 233.49 3503.55 239.278 3973.3 193.463C4443.05 147.647 4982.58 114.952 5285.46 112.754C5688.41 109.037 6470.48 86.5998 6939.62 190.308C7332.95 278.45 8052.2 229.843 8443.48 192.637C8913.87 146.3 9435.05 44.6044 9929.23 226.264" stroke="white" stroke-width="0.5"/>
<path d="M-1560.17 10.6004C-1279.35 4.39481 -615.331 8.7602 -205.778 75.8665C209.268 142.859 743.993 113.113 959.053 84.9625C1284.73 55.0682 2013.7 16.1577 2372.81 107.629C2816.27 223.39 3493.15 228.995 3965.43 188.555C4437.71 148.114 4980.94 116.148 5283.62 111.609C5689.67 103.934 6487.72 76.3171 6953.72 182.041C7349.94 274.336 8067.77 227.708 8459.05 186.849C8935.25 133.907 9463.21 41.5534 9947.78 220.317" stroke="white" stroke-width="0.5"/>
<path d="M-1560.72 16.1864C-1282.74 8.54211 -624.739 9.38201 -216.609 73.8961C200.018 138.234 738.06 115.143 954.35 87.9692C1277.42 59.1118 1994.56 19.5662 2353.83 104.557C2794.52 212.995 3482.13 218.405 3957.08 183.668C4432.04 148.93 4979.21 117.738 5281.66 110.714C5691.01 98.8399 6506 65.7278 6968.68 173.59C7367.98 270.292 8084.29 225.763 8475.57 181.029C8957.93 121.079 9493.09 38.6368 9967.46 214.329" stroke="white" stroke-width="0.5"/>
<path d="M-1561.3 22.479C-1286.31 13.3133 -634.685 10.425 -228.061 72.1978C190.239 133.729 731.789 117.676 949.38 91.5342C1269.69 63.7733 1974.32 23.5561 2333.76 101.694C2771.52 202.387 3470.46 207.592 3948.25 178.886C4426.04 150.179 4977.37 119.804 5279.59 110.153C5692.43 93.8384 6525.35 54.9152 6984.5 165.038C7387.05 266.401 8101.76 224.092 8493.04 175.26C8981.92 107.899 9524.69 35.938 9988.28 208.382" stroke="white" stroke-width="0.5"/>
<path d="M-1561.91 29.5595C-1290.08 18.7896 -645.174 11.9705 -240.136 70.853C179.927 129.424 725.175 120.792 944.137 95.7388C1261.55 69.1341 1952.99 28.2087 2312.59 99.1206C2747.28 191.649 3458.17 196.637 3938.95 174.289C4419.72 151.941 4975.43 122.428 5277.41 110.008C5693.92 89.0107 6545.74 43.9605 7001.18 156.468C7407.16 262.744 8120.18 222.777 8511.45 169.623C9007.2 94.4479 9558 33.5383 10010.2 202.557" stroke="white" stroke-width="0.5"/>
<path d="M-1562.55 37.5029C-1294.05 25.0462 -656.203 14.0936 -252.834 69.9367C169.083 125.396 718.22 124.566 938.625 100.658C1252.98 75.269 1930.55 33.599 2290.34 96.9125C2721.78 180.855 3445.24 185.615 3929.16 169.954C4413.08 154.292 4973.4 125.686 5275.12 110.353C5695.49 84.4321 6567.18 32.939 7018.71 147.953C7428.3 259.396 8139.54 221.891 8530.82 164.193C9033.8 80.8014 9593.03 31.5127 10033.3 196.93" stroke="white" stroke-width="0.5"/>
<path d="M-1563.23 46.3802C-1298.21 32.154 -667.77 16.8652 -266.152 69.52C157.71 121.714 710.927 129.07 932.845 106.363C1243.99 82.2493 1907.01 39.7981 2267 95.1408C2695.03 170.076 3431.68 174.597 3918.89 165.95C4406.11 157.303 4971.26 129.647 5272.72 111.26C5697.14 80.1734 6589.68 21.9215 7037.12 139.565C7450.49 256.428 8159.86 221.506 8551.14 159.042C9061.7 67.0304 9629.78 29.9323 10057.5 191.571" stroke="white" stroke-width="0.5"/>
<path d="M-1563.94 56.2491C-1302.57 40.1706 -679.881 20.343 -280.095 69.6604C145.804 118.437 703.291 134.361 926.792 112.911C1234.58 90.1324 1882.37 46.8635 2242.56 93.8628C2667.03 159.37 3417.48 163.641 3908.15 162.336C4398.81 161.031 4969.03 134.371 5270.2 112.785C5698.87 76.2923 6613.22 10.9657 7056.37 131.362C7473.7 253.899 8181.13 221.68 8572.41 154.226C9090.89 53.1923 9668.25 28.8546 10082.8 186.538" stroke="white" stroke-width="0.5"/>
<path d="M-1564.67 67.1623C-1307.12 49.1489 -692.531 24.5798 -294.66 70.4108C133.366 115.618 695.314 140.492 920.471 120.355C1224.76 98.9713 1856.63 54.8482 2217.04 93.1315C2637.79 148.789 3402.65 152.799 3896.92 159.164C4391.19 165.53 4966.69 139.909 5267.57 114.982C5700.67 72.8416 6637.82 0.124402 7076.5 123.397C7497.96 251.86 8203.35 222.465 8594.63 149.8C9121.4 39.3401 9708.44 28.3325 10109.3 181.885" stroke="white" stroke-width="0.5"/>
<path d="M-1565.44 81.3784C-1311.86 61.3474 -705.721 31.8341 -309.847 74.0297C120.397 115.514 686.997 149.722 913.879 130.954C1214.51 111.024 1829.8 66.0106 2190.42 95.2053C2607.29 140.593 3387.19 144.33 3885.21 158.693C4383.24 173.056 4964.26 148.52 5264.83 120.11C5702.55 72.0798 6663.47 -8.34393 7097.47 117.927C7523.25 252.571 8226.52 226.12 8617.79 148.02C9153.21 27.7321 9750.34 30.6245 10136.9 179.869" stroke="white" stroke-width="0.5"/>
<path d="M-1566.25 107.57C-1316.8 85.4384 -719.455 50.7783 -325.658 89.1894C106.895 126.798 678.338 170.722 907.015 153.38C1203.84 134.964 1801.86 89.023 2162.71 108.757C2575.54 143.453 3371.09 146.907 3873.03 169.596C4374.97 192.284 4961.72 168.877 5261.97 136.84C5704.5 82.6793 6690.18 -5.76677 7119.31 123.626C7549.58 264.703 8250.63 241.318 8641.91 157.56C9186.32 27.0409 9793.96 44.403 10165.7 189.163" stroke="white" stroke-width="0.5"/>
<path d="M-1567.08 134.952C-1321.93 110.637 -733.728 70.6274 -342.091 105.105C92.8617 138.686 669.337 192.708 899.881 176.848C1192.75 160.005 1772.82 113.101 2133.91 123.001C2542.54 146.585 3354.35 149.744 3860.36 181.086C4366.37 212.429 4959.08 190.194 5259.01 154.388C5706.54 93.8551 6717.93 -2.92927 7142.01 129.708C7576.95 277.472 8275.7 257.273 8666.97 167.634C9220.74 26.4814 9839.3 58.8829 10195.5 198.982" stroke="white" stroke-width="0.5"/>
<path d="M-1567.95 163.511C-1327.26 136.931 -748.542 91.369 -359.147 121.764C78.2967 151.165 659.996 215.668 892.477 201.346C1181.24 186.136 1742.68 138.231 2104.02 137.925C2508.29 149.976 3336.98 152.828 3847.21 193.152C4357.44 233.476 4956.35 212.459 5255.93 172.742C5708.64 105.595 6746.73 0.156288 7165.57 136.161C7605.35 290.865 8301.71 273.973 8692.99 178.231C9256.45 26.0412 9886.35 74.052 10226.5 209.313" stroke="white" stroke-width="0.5"/>
<path d="M-1568.84 193.242C-1332.78 164.313 -763.896 112.996 -376.825 139.16C63.2009 164.227 650.315 239.595 884.804 226.866C1169.31 213.349 1711.44 164.407 2073.04 153.522C2472.79 153.62 3318.98 156.155 3833.59 205.788C4348.19 255.421 4953.51 235.666 5252.74 191.894C5710.83 117.892 6776.59 3.48309 7189.99 142.978C7634.79 304.876 8328.68 291.411 8719.95 189.343C9293.48 25.7135 9935.13 89.9034 10258.6 220.15" stroke="white" stroke-width="0.5"/>
<path d="M-1569.77 224.135C-1338.5 192.775 -779.791 135.501 -395.125 157.284C47.5733 177.866 640.292 264.48 876.86 253.401C1156.96 241.636 1679.1 191.621 2040.97 169.785C2436.04 157.508 3300.35 159.714 3819.48 218.984C4338.61 278.254 4950.58 259.806 5249.43 211.836C5713.1 130.738 6807.49 7.0429 7215.27 150.151C7665.26 319.496 8356.59 309.579 8747.87 200.962C9331.81 25.4902 9985.62 106.429 10291.9 231.484" stroke="white" stroke-width="0.5"/>
<path d="M-1570.73 256.184C-1344.41 222.31 -796.226 158.876 -414.047 176.13C31.4146 192.073 629.93 290.315 868.647 280.943C1144.19 270.99 1645.66 219.865 2007.81 186.705C2398.04 161.632 3281.08 163.498 3804.9 232.734C4328.71 301.969 4947.55 284.871 5246.02 232.561C5715.44 144.125 6839.45 10.8281 7241.41 157.673C7696.78 334.718 8385.46 328.469 8776.73 213.081C9371.44 25.3636 10037.8 123.621 10326.3 243.309" stroke="white" stroke-width="0.5"/>
<path d="M-1571.72 289.38C-1350.51 252.91 -813.202 183.113 -433.592 195.688C14.7242 206.84 619.226 317.094 860.163 309.484C1131.01 301.402 1611.12 249.131 1973.55 204.274C2358.79 165.984 3261.18 167.5 3789.83 247.028C4318.48 326.556 4944.41 310.854 5242.49 254.061C5717.86 158.045 6872.46 14.8307 7268.41 165.534C7729.33 350.533 8415.27 348.074 8806.55 225.691C9412.37 25.3256 10091.8 141.471 10361.8 255.615" stroke="white" stroke-width="0.5"/>
<path d="M-1572.74 323.721C-1356.81 284.571 -830.72 208.209 -453.761 215.956C-2.49915 222.165 608.18 344.813 851.408 339.021C1117.4 332.87 1575.48 279.417 1938.21 222.491C2318.29 170.563 3240.64 171.717 3774.29 261.866C4307.93 352.015 4941.18 337.752 5238.85 276.333C5720.35 172.496 6906.52 19.0483 7296.27 173.734C7762.91 366.939 8446.03 368.391 8837.31 238.791C9454.61 25.374 10147.4 159.978 10398.5 268.401" stroke="white" stroke-width="0.5"/>
<path d="M-1573.8 359.2C-1363.31 317.288 -848.778 234.157 -474.552 236.928C-20.2539 238.041 596.793 373.466 842.383 369.548C1103.37 365.388 1538.74 310.715 1901.77 241.348C2276.54 175.361 3219.47 176.142 3758.26 277.239C4297.05 378.336 4937.84 365.558 5235.09 299.37C5722.92 187.472 6941.64 23.4739 7324.98 182.264C7797.53 383.93 8477.74 389.413 8869.02 252.373C9498.16 25.5016 10204.8 179.133 10436.3 281.659" stroke="white" stroke-width="0.5"/>
<path d="M-1574.88 395.812C-1370 351.055 -867.377 260.954 -495.965 258.599C-38.5397 254.463 585.066 403.047 833.088 401.06C1088.92 398.95 1500.9 343.022 1864.24 260.841C2233.54 180.374 3197.67 180.77 3741.76 293.144C4285.84 405.517 4934.41 394.268 5231.23 323.168C5725.58 202.966 6977.8 28.1028 7354.56 191.121C7833.19 401.501 8510.41 411.135 8901.69 266.432C9543 25.7039 10263.8 198.933 10475.2 295.385" stroke="white" stroke-width="0.5"/>
</g>
</svg>
