<svg width="305" height="319" fill="none" xmlns="http://www.w3.org/2000/svg"><path d="M115.17 271.788c-5.979-3.488-4.484-7.474 0-10.214l26.655-16.441c5.711-3.273 10.463-3.986 16.442 0l29.645 17.687c2.74 2.74 2.491 5.979 0 7.722l-29.645 17.688c-5.481 2.989-10.712 2.989-16.193 0l-26.904-16.442Z" fill="#CECECE" stroke="#fff" stroke-width=".5"/><g filter="url(#a)"><path d="M127.875 264.565c-4.734 2.959-9.629 1.177-13.453-2.491l12.954-7.971c3.986 3.736 4.484 7.971.499 10.462Z" fill="#7A7A7A"/></g><g filter="url(#b)"><path d="M152.039 254.599c-6.228.748-9.779-2.648-13.701-7.224 4.334-3.055 7.971-4.982 12.206-4.982 2.357.185 3.573.48 5.481 1.494 2.74 4.484 1.744 9.467-3.986 10.712Z" fill="#7A7A7A"/></g><g filter="url(#c)"><path d="M141.825 279.014c-6.477-3.737-5.48-11.958 2.74-12.954 1.534 2.522 3.338 3.013 7.225 3.238 6.228 2.242 5.979 6.726 3.986 10.961-1.744 2.99-4.983 3.986-7.972 2.491l-5.979-3.736Z" fill="#7A7A7A"/></g><g filter="url(#d)"><path d="M167.983 262.324c-4.236-2.99-4.485-8.719-.25-11.46l15.944 9.467c.996 3.986-1.744 6.228-4.983 6.228-3.757-.518-6.016-1.219-10.711-4.235Z" fill="#7A7A7A"/></g><path d="m184 277-25.982 15.965c-5.232 2.989-10.214 3.238-15.196 0l-25.909-15.445" stroke="#fff" stroke-width=".5"/><path d="M114.921 256.346c-4.48 2.151-5.985 6.868-.25 10.213l26.407 15.944c6.726 3.986 13.203 3.488 18.435 0l26.655-15.944c5.231-3.238 4.982-7.473 0-9.964l-26.655-16.193c-7.408-4.947-11.343-4.195-18.186 0l-26.406 15.944Z" stroke="#fff" stroke-width=".5"/><g filter="url(#e)"><path d="M110.935 272.038v-10.712c.138 2.769 1.744 4.235 5.978 6.606v9.587l-4.982-3.239c-.996-.747-.996-1.494-.996-2.242Z" fill="#fff"/></g><g filter="url(#f)"><path d="M119.654 279.261v-9.715l2.74 1.744v9.715l-2.74-1.744Z" fill="#fff"/></g><g filter="url(#g)"><path d="M124.636 282.003v-9.371l1.495.901V283l-1.495-.997Z" fill="#fff"/></g><path d="M140.58 289.974v-5.481h.747v5.481h-.747ZM159.014 289.974v-5.481h.748v5.481h-.748Z" fill="#fff"/><g filter="url(#h)"><path d="M183.677 277.519v-9.467c4.764-2.764 5.918-4.158 6.477-6.477v9.217c0 2.741-1.495 3.737-6.477 6.727Z" fill="#fff"/></g><path d="M80.792 101.642v-2.49l2.491 2.49h-2.491ZM76.806 99.4v-2.49l2.491 2.49h-2.491Z" fill="#fff"/><path d="M80.792 101.642v-2.49l2.491 2.49h-2.491ZM76.806 99.4v-2.49l2.491 2.49h-2.491Z" stroke="#fff" stroke-width=".5"/><path d="m280.085 128.797-17.688 9.965-17.687-10.214 17.687-10.961 17.688 11.21Z" fill="#969696" stroke="#fff" stroke-width=".5"/><path d="m244.71 128.547 17.688 10.214v21.922L244.71 150.22v-21.673Z" fill="#CECECE" stroke="#fff" stroke-width=".5"/><path d="M280.085 149.971v-21.175l-17.687 9.965v21.922l17.687-10.712Z" fill="#969696" stroke="#fff" stroke-width=".5"/><path d="m271.366 139.51-4.484 2.491v5.231l4.484-2.74v-4.982Z" fill="#505050" stroke="#fff" stroke-width=".5"/><path d="m275.601 136.77-4.235 2.74v4.982l-4.484 2.74v5.232l8.719-5.481V136.77Z" fill="#CECECE" stroke="#fff" stroke-width=".5"/><path d="m304 74.489-17.688 9.964-17.687-10.214 17.687-10.96L304 74.488Z" fill="#969696" stroke="#fff" stroke-width=".5"/><path d="m268.626 74.24 17.687 10.214v21.922l-17.687-10.463V74.24Z" fill="#CECECE" stroke="#fff" stroke-width=".5"/><path d="M304 95.662V74.487l-17.687 9.965v21.922L304 95.662Z" fill="#969696" stroke="#fff" stroke-width=".5"/><path d="m295.281 85.201-4.484 2.491v5.232l4.484-2.74V85.2Z" fill="#505050" stroke="#fff" stroke-width=".5"/><path d="m299.516 82.46-4.235 2.741v4.983l-4.484 2.74v5.231l8.719-5.48V82.46Z" fill="#CECECE" stroke="#fff" stroke-width=".5"/><path d="m199.371 31.14-17.687 9.965-17.687-10.213 17.687-10.961 17.687 11.21Z" fill="#969696" stroke="#fff" stroke-width=".5"/><path d="m163.997 30.89 17.687 10.214v21.923l-17.687-10.463V30.89Z" fill="#CECECE" stroke="#fff" stroke-width=".5"/><path d="M199.371 52.315V31.14l-17.687 9.964v21.922l17.687-10.712Z" fill="#969696" stroke="#fff" stroke-width=".5"/><path d="m190.652 41.853-4.484 2.492v5.231l4.484-2.74v-4.983Z" fill="#505050" stroke="#fff" stroke-width=".5"/><path d="m194.887 39.113-4.235 2.74v4.983l-4.484 2.74v5.232l8.719-5.481V39.113Z" fill="#CECECE" stroke="#fff" stroke-width=".5"/><path d="m131.113 63.53-17.687 9.964L95.739 63.28l17.687-10.96 17.687 11.21Z" fill="#969696" stroke="#fff" stroke-width=".5"/><path d="m95.739 63.28 17.687 10.213v21.922L95.738 84.952V63.28Z" fill="#CECECE" stroke="#fff" stroke-width=".5"/><path d="M131.113 84.703V63.528l-17.687 9.965v21.922l17.687-10.712Z" fill="#969696" stroke="#fff" stroke-width=".5"/><path d="m122.394 74.242-4.484 2.491v5.232l4.484-2.74v-4.983Z" fill="#505050" stroke="#fff" stroke-width=".5"/><path d="m126.629 71.501-4.235 2.74v4.983l-4.484 2.74v5.231l8.719-5.48V71.5Z" fill="#CECECE" stroke="#fff" stroke-width=".5"/><path d="m67.838 124.812-17.687 9.964-17.688-10.213 17.688-10.961 17.687 11.21Z" fill="#969696" stroke="#fff" stroke-width=".5"/><path d="m32.463 124.562 17.688 10.214v21.922l-17.688-10.462v-21.674Z" fill="#CECECE" stroke="#fff" stroke-width=".5"/><path d="M67.687 146.175V125L50 134.965v21.922l17.687-10.712Z" fill="#969696" stroke="#fff" stroke-width=".5"/><path d="m59.119 135.524-4.484 2.492v5.231l4.484-2.74v-4.983Z" fill="#505050" stroke="#fff" stroke-width=".5"/><path d="m63.354 132.784-4.235 2.74v4.983l-4.484 2.74v5.231l8.719-5.48v-10.214Z" fill="#CECECE" stroke="#fff" stroke-width=".5"/><path d="m228.769 102.889-17.687 9.965-17.688-10.214 17.688-10.961 17.687 11.21Z" fill="#969696" stroke="#fff" stroke-width=".5"/><path d="m193.394 102.639 17.688 10.213v21.923l-17.688-10.463v-21.673Z" fill="#CECECE" stroke="#fff" stroke-width=".5"/><path d="M228.769 124.063v-21.175l-17.687 9.964v21.923l17.687-10.712Z" fill="#969696" stroke="#fff" stroke-width=".5"/><path d="m206.242 121.451.062-5.13-4.542-2.595.154 5.252 4.326 2.473Z" fill="#505050" stroke="#fff" stroke-width=".5"/><path d="m206.52 126.487-.278-5.037-4.325-2.472-.154-5.253-4.542-2.596.431 10.29 8.868 5.068Z" fill="#CECECE" stroke="#fff" stroke-width=".5"/><path d="m253.681 15.2-17.688 9.964-17.687-10.214 17.687-10.96 17.688 11.21Z" fill="#969696" stroke="#fff" stroke-width=".5"/><path d="m218.306 14.95 17.687 10.213v21.922l-17.687-10.463V14.95Z" fill="#CECECE" stroke="#fff" stroke-width=".5"/><path d="M253.681 36.373V15.198l-17.688 9.965v21.922l17.688-10.712Z" fill="#969696" stroke="#fff" stroke-width=".5"/><path d="m231.154 33.761.062-5.129-4.542-2.596.154 5.253 4.326 2.472Z" fill="#505050" stroke="#fff" stroke-width=".5"/><path d="m231.432 38.797-.278-5.036-4.326-2.472-.154-5.253-4.542-2.596.432 10.29 8.868 5.068Z" fill="#CECECE" stroke="#fff" stroke-width=".5"/><path d="m95.74 12.21-17.687 9.965L60.366 11.96 78.053 1l17.688 11.21Z" fill="#969696" stroke="#fff" stroke-width=".5"/><path d="m60.366 11.96 17.687 10.214v21.922L60.366 33.633V11.96Z" fill="#CECECE" stroke="#fff" stroke-width=".5"/><path d="M95.74 33.384V12.209l-17.686 9.965v21.922L95.74 33.384Z" fill="#969696" stroke="#fff" stroke-width=".5"/><path d="m73.214 30.772.062-5.13-4.542-2.595.154 5.253 4.326 2.472Z" fill="#505050" stroke="#fff" stroke-width=".5"/><path d="m73.492 35.808-.278-5.036-4.326-2.473-.154-5.252-4.542-2.596.432 10.29 8.868 5.067Z" fill="#CECECE" stroke="#fff" stroke-width=".5"/><path d="M52.893 52.067 35.206 62.03 17.519 51.818l17.687-10.962 17.687 11.21Z" fill="#969696" stroke="#fff" stroke-width=".5"/><path d="M17.519 51.816 35.206 62.03v21.922L17.519 73.49V51.816Z" fill="#CECECE" stroke="#fff" stroke-width=".5"/><path d="M52.893 73.24V52.065L35.206 62.03v21.922L52.893 73.24Z" fill="#969696" stroke="#fff" stroke-width=".5"/><path d="m30.366 70.629.063-5.13-4.542-2.596.154 5.253 4.325 2.472Z" fill="#505050" stroke="#fff" stroke-width=".5"/><path d="m30.644 75.665-.277-5.037-4.326-2.472-.154-5.253-4.542-2.596.432 10.29 8.867 5.068Z" fill="#CECECE" stroke="#fff" stroke-width=".5"/><path d="m67.589 71.998 10.463 6.228v-1.744l-10.463-6.477v-1.744l10.463 6.228V64.275" stroke="#fff" stroke-width=".5"/><path d="M68.336 67.265v-1.993l1.495.997v1.993l-1.495-.997ZM71.574 69.01v-1.994l1.495.997v1.993l-1.495-.997ZM74.564 70.753V68.76l1.495.996v1.993l-1.495-.996Z" fill="#fff"/><path d="M68.336 67.265v-1.993l1.495.997v1.993l-1.495-.997ZM71.574 69.01v-1.994l1.495.997v1.993l-1.495-.997ZM74.564 70.753V68.76l1.495.996v1.993l-1.495-.996ZM98.728 46.09c-1.993 0-2.491 3.986-.498 3.238 1.744-.747 2.242-3.238.498-3.238ZM103.461 43.1c-1.993 0-2.491 3.986-.498 3.24 1.744-.748 2.242-3.24.498-3.24Z" stroke="#fff" stroke-width=".5"/><path d="M219.573 156.946c-1.994 0-2.492 3.986-.499 3.239 1.744-.747 2.242-3.238.499-3.239ZM224.306 153.957c-1.993 0-2.492 3.986-.499 3.239 1.744-.748 2.242-3.239.499-3.239Z" fill="#fff"/><path d="M219.573 156.946c-1.994 0-2.492 3.986-.499 3.239 1.744-.747 2.242-3.238.499-3.239ZM224.306 153.957c-1.993 0-2.492 3.986-.499 3.239 1.744-.748 2.242-3.239.499-3.239Z" stroke="#fff" stroke-width=".5"/><path d="m238.482 142.498-1.744 1.246v1.993l1.744-1.246v-1.993ZM238.482 145.737l-1.744 1.245v1.993l1.744-1.246v-1.992ZM238.482 148.726l-1.744 1.246v1.992l1.744-1.245v-1.993Z" fill="#fff"/><path d="m238.482 142.498-1.744 1.246v1.993l1.744-1.246v-1.993ZM238.482 145.737l-1.744 1.245v1.993l1.744-1.246v-1.992ZM238.482 148.726l-1.744 1.246v1.992l1.744-1.245v-1.993Z" stroke="#fff" stroke-width=".5"/><path d="m118.159 38.12-2.491 1.743V43.6l2.491-1.744v-3.737Z" fill="#fff"/><path d="m115.419 46.09 8.968-5.48m-8.968 7.474 8.968-5.48m-8.968 7.473 8.968-5.232m-8.719-4.982 2.491-1.744v3.737l-2.491 1.744v-3.737Z" stroke="#fff" stroke-width=".5"/><path d="m251.436 102.64-2.491 1.743v3.737l2.491-1.744v-3.736Z" fill="#fff"/><path d="m248.696 110.611 8.968-5.48m-8.968 7.473 8.968-5.48m-8.968 7.473 8.968-5.231m-8.719-4.983 2.491-1.743v3.736l-2.491 1.744v-3.737Z" stroke="#fff" stroke-width=".5"/><path opacity=".3" d="M3.815 230.686c-3.239-1.993-4.235-4.235 0-6.477l142.494-86.194c3.239-2.243 5.313-1.734 8.221 0l142.993 86.443c2.491 1.495 2.74 3.986 0 5.73l-142.495 86.194c-3.487 2.242-5.48 2.242-8.968.249L3.815 230.686Z" stroke="#fff" stroke-width=".5"/><path opacity=".7" d="M35.668 240.553c-2.54-1.559-3.322-3.312 0-5.065l111.79-67.405c2.541-1.754 4.168-1.356 6.45 0l112.181 67.599c1.954 1.169 2.15 3.117 0 4.481l-111.79 67.405c-2.737 1.753-4.3 1.753-7.036.195l-111.595-67.21Z" stroke="#fff" stroke-width=".5"/><path d="m188.161 150.719-17.687 9.965-17.688-10.214 17.688-10.961 17.687 11.21Z" fill="#969696" stroke="#fff" stroke-width=".5"/><path d="m152.786 150.469 17.687 10.214v21.922l-17.687-10.463v-21.673Z" fill="#CECECE" stroke="#fff" stroke-width=".5"/><path d="M188.161 171.893v-21.175l-17.688 9.964v21.923l17.688-10.712Z" fill="#969696" stroke="#fff" stroke-width=".5"/><path d="m179.441 161.431-4.484 2.491v5.231l4.484-2.74v-4.982Z" fill="#505050" stroke="#fff" stroke-width=".5"/><path d="m183.676 158.69-4.235 2.741v4.982l-4.484 2.74v5.232l8.719-5.481V158.69Z" fill="#CECECE" stroke="#fff" stroke-width=".5"/><path d="m133.606 137.763-17.687 9.965-17.688-10.214 17.688-10.961 17.687 11.21Z" fill="#969696" stroke="#fff" stroke-width=".5"/><path d="m98.231 137.513 17.688 10.213v21.923l-17.688-10.463v-21.673Z" fill="#CECECE" stroke="#fff" stroke-width=".5"/><path d="M133.606 158.937v-21.175l-17.687 9.964v21.923l17.687-10.712Z" fill="#969696" stroke="#fff" stroke-width=".5"/><path d="m111.079 156.325.062-5.129-4.542-2.596.154 5.253 4.326 2.472Z" fill="#505050" stroke="#fff" stroke-width=".5"/><path d="m111.357 161.361-.278-5.037-4.326-2.472-.154-5.253-4.542-2.596.432 10.29 8.868 5.068Z" fill="#CECECE" stroke="#fff" stroke-width=".5"/><path d="m92.751 188.088-17.687 9.965-17.687-10.214 17.687-10.961 17.687 11.21Z" fill="#969696" stroke="#fff" stroke-width=".5"/><path d="m57.377 187.838 17.687 10.214v21.922l-17.687-10.463v-21.673Z" fill="#CECECE" stroke="#fff" stroke-width=".5"/><path d="M92.752 209.262v-21.175l-17.688 9.965v21.922l17.688-10.712Z" fill="#969696" stroke="#fff" stroke-width=".5"/><path d="m70.224 206.65.063-5.129-4.542-2.596.154 5.253 4.325 2.472Z" fill="#505050" stroke="#fff" stroke-width=".5"/><path d="m70.502 211.686-.277-5.036-4.326-2.473-.154-5.253-4.542-2.595.432 10.289 8.867 5.068Z" fill="#CECECE" stroke="#fff" stroke-width=".5"/><path d="m235.744 194.066-17.687 9.964-17.687-10.213 17.687-10.962 17.687 11.211Z" fill="#969696" stroke="#fff" stroke-width=".5"/><path d="m200.37 193.815 17.687 10.214v21.922l-17.687-10.462v-21.674Z" fill="#CECECE" stroke="#fff" stroke-width=".5"/><path d="M235.744 215.239v-21.175l-17.687 9.965v21.922l17.687-10.712Z" fill="#969696" stroke="#fff" stroke-width=".5"/><path d="m213.217 212.627.062-5.129-4.542-2.596.155 5.253 4.325 2.472Z" fill="#505050" stroke="#fff" stroke-width=".5"/><path d="m213.495 217.664-.277-5.037-4.326-2.472-.154-5.253-4.542-2.596.432 10.29 8.867 5.068Z" fill="#CECECE" stroke="#fff" stroke-width=".5"/><path opacity=".2" d="M66.954 244.572c-1.85-1.138-2.418-2.417 0-3.697l81.345-49.193c1.848-1.28 3.033-.99 4.693 0l81.629 49.335c1.422.854 1.565 2.275 0 3.271l-81.345 49.193c-1.991 1.28-3.129 1.28-5.12.142l-81.203-49.051Z" stroke="#fff" stroke-width=".5"/><path opacity=".7" d="M96.284 249.126c-1.2-.739-1.57-1.569 0-2.4l52.803-31.928c1.2-.831 1.968-.643 3.046 0l52.988 32.021c.923.553 1.015 1.476 0 2.122l-52.803 31.929c-1.293.83-2.031.83-3.324.092l-52.71-31.836Z" stroke="#fff" stroke-width=".5"/><path d="M149.548 66.767v-2.74l1.993 1.245v2.74l-1.993-1.245ZM153.285 69.009v-2.74l1.993 1.245v2.74l-1.993-1.245ZM149.548 71.25v-2.74l1.993 1.246v2.74l-1.993-1.245Z" fill="#fff"/><path d="M149.548 66.767v-2.74l1.993 1.245v2.74l-1.993-1.245ZM153.285 69.009v-2.74l1.993 1.245v2.74l-1.993-1.245ZM149.548 71.25v-2.74l1.993 1.246v2.74l-1.993-1.245Z" stroke="#fff" stroke-width=".5"/><path d="m30.32 149.058 2.312-1.472.02 2.35-2.311 1.472-.02-2.35ZM30.437 153.414l2.311-1.472.02 2.35-2.31 1.473-.02-2.351ZM26.539 151.468l2.31-1.473.021 2.35-2.311 1.473-.02-2.35Z" fill="#fff"/><path d="m30.32 149.058 2.312-1.472.02 2.35-2.311 1.472-.02-2.35ZM30.437 153.414l2.311-1.472.02 2.35-2.31 1.473-.02-2.351ZM26.539 151.468l2.31-1.473.021 2.35-2.311 1.473-.02-2.35ZM186.666 76.981v10.214l10.712-6.477v1.993l-10.712 6.228v1.993l10.712-6.228" stroke="#fff" stroke-width=".5"/><path d="M188.41 84.204V82.21l1.744-.997v1.993l-1.744.997ZM191.399 82.46v-1.993l1.744-.997v1.993l-1.744.997ZM194.389 80.716v-1.993l1.744-.996v1.992l-1.744.997Z" fill="#fff"/><path d="M188.41 84.204V82.21l1.744-.997v1.993l-1.744.997ZM191.399 82.46v-1.993l1.744-.997v1.993l-1.744.997ZM194.389 80.716v-1.993l1.744-.996v1.992l-1.744.997Z" stroke="#fff" stroke-width=".5"/><path d="M51.396 106.625v-1.992l1.744-.997v1.993l-1.744.996ZM54.385 104.882v-1.993l1.744-.997v1.993l-1.744.997ZM57.375 103.138v-1.993l1.744-.997v1.993l-1.744.997Z" fill="#fff"/><path d="M51.396 106.625v-1.992l1.744-.997v1.993l-1.744.996ZM54.385 104.882v-1.993l1.744-.997v1.993l-1.744.997ZM57.375 103.138v-1.993l1.744-.997v1.993l-1.744.997Z" stroke="#fff" stroke-width=".5"/><path d="m239.479 52.817-1.246 3.986 2.989-1.744-1.743-2.242ZM238.233 61.536l1.246-3.985 1.743 2.242-2.989 1.743Z" fill="#fff"/><path d="m239.479 52.817-1.246 3.986 2.989-1.744-1.743-2.242ZM238.233 61.536l1.246-3.985 1.743 2.242-2.989 1.743Z" stroke="#fff" stroke-width=".5"/><path d="M142.074 108.618v-2.491h2.242l-2.242 2.491ZM138.338 110.611v-2.491h2.242l-2.242 2.491Z" fill="#fff"/><path d="M142.074 108.618v-2.491h2.242l-2.242 2.491ZM138.338 110.611v-2.491h2.242l-2.242 2.491Z" stroke="#fff" stroke-width=".5"/><path d="M115.17 116.839v-2.242h.996v1.494l-.996.748ZM117.412 115.344v-3.488h.996v2.741l-.996.747ZM119.654 114.098v-4.733h.996v3.986l-.996.747Z" fill="#fff"/><path d="M115.17 116.839v-2.242h.996v1.494l-.996.748ZM117.412 115.344v-3.488h.996v2.741l-.996.747ZM119.654 114.098v-4.733h.996v3.986l-.996.747Z" stroke="#fff" stroke-width=".5"/><path d="M38.94 176.876v-2.242h.997v1.494l-.997.748ZM41.182 175.381v-3.487h.997v2.74l-.997.747ZM43.425 174.136v-4.734h.996v3.986l-.996.748Z" fill="#fff"/><path d="M38.94 176.876v-2.242h.997v1.494l-.997.748ZM41.182 175.381v-3.487h.997v2.74l-.997.747ZM43.425 174.136v-4.734h.996v3.986l-.996.748Z" stroke="#fff" stroke-width=".5"/><path d="M79.795 164.42v-3.736l2.242 1.494v3.737l-2.242-1.495ZM171.968 117.336V113.6l2.242 1.494v3.737l-2.242-1.495Z" fill="#fff" stroke="#fff" stroke-width=".5"/><path d="m79.795 166.663 8.47 5.232m-8.47-2.99 8.47 4.982m-8.47-2.74 8.47 4.982M171.968 119.578l8.47 5.232m-8.47-2.99 8.47 4.982m-8.47-2.74 8.47 4.983" stroke="#fff" stroke-width=".5"/><path d="M150.546 138.014c-1.993-1.246-1.993 1.992 0 3.238 1.744 1.09 1.744-1.744 0-3.238ZM150.544 142.747c-1.993-1.246-1.993 1.993 0 3.238 1.744 1.09 1.744-1.743 0-3.238Z" fill="#fff"/><path d="M150.546 138.014c-1.993-1.246-1.993 1.992 0 3.238 1.744 1.09 1.744-1.744 0-3.238ZM150.544 142.747c-1.993-1.246-1.993 1.993 0 3.238 1.744 1.09 1.744-1.743 0-3.238Z" stroke="#fff" stroke-width=".5"/><path d="M208.339 147.977v-3.986l.997.249v4.235l-.997-.498ZM210.581 148.974v-2.243l.748.25v2.242l-.748-.249ZM212.823 149.97v-1.495l.748.249v1.495l-.748-.249Z" fill="#fff"/><path d="M208.339 147.977v-3.986l.997.249v4.235l-.997-.498ZM210.581 148.974v-2.243l.748.25v2.242l-.748-.249ZM212.823 149.97v-1.495l.748.249v1.495l-.748-.249ZM74.813 187.337v-21.922c0-4.484 0-6.726-6.228-2.242l-28.648 17.439c-3.737 2.491-5.232 1.494-5.232-2.242v-31.638c0-1.246.396-2.093 1.993-3.239l4.733-2.989" stroke="#fff" stroke-width=".5"/><path d="M76.058 187.587a1.246 1.246 0 1 1-2.491 0 1.246 1.246 0 0 1 2.492 0Z" fill="#fff"/><path d="M50.4 124.064v-9.218c0-2.74.249-3.736 1.992-4.982l19.68-11.709m0 0 32.635-19.68m-32.634 19.68 43.595 26.656m0 0v-3.737c0-1.495.498-2.491 1.744-3.238l29.395-17.438m-31.139 24.413v12.456m31.139-36.869v43.844c0 1.744 0 2.74 1.246 3.488l4.484 2.74m-5.73-50.072V66.019c0-2.49.25-3.736 2.242-4.982l22.67-13.701m-1.246 102.386v-19.181c0-1.993.499-2.741 2.492-1.246l38.613 23.417c2.989 1.744 4.733 1.744 7.224 0l15.445-9.467m0 0v-13.701c0-1.744-.249-2.74-1.993-3.737l-10.961-6.975m12.954 24.413v12.705m0 0 18.435-10.961m-18.435 10.961v12.954c0 2.741-.249 3.986-2.242 5.232l-10.961 6.726c-2.242 1.495-2.989 2.242-2.989 3.986v8.968m44.093-66.265v-24.413c0-2.74.498-3.737 2.74-5.232l11.211-6.975m-82.458 11.459-7.971-4.733c-1.993-1.245-.997-2.99 1.494-4.235l46.834-28.399c1.246-.747 1.495-1.495 1.495-3.487V46.837M113.426 63.03V47.087c0-.917-.498-1.993-1.495-2.74l-8.317-5.126m-16.345-10.07 16.345 10.07m0 0L67.589 61.037c-2.74 1.495-3.488 2.74-3.488 4.484v11.21c0 1.744-1.744 2.74-3.488 1.495L44.67 68.262" stroke="#fff" stroke-width=".5"/><circle cx="172.217" cy="47.086" r="1.246" fill="#fff"/><path d="M116.914 137.266a1.246 1.246 0 1 1-2.492 0 1.246 1.246 0 0 1 2.492 0ZM51.645 124.311a1.246 1.246 0 1 1-2.492 0 1.246 1.246 0 0 1 2.492 0ZM45.168 67.763a1.246 1.246 0 1 1-2.49 0 1.246 1.246 0 0 1 2.49 0ZM114.672 63.529a1.246 1.246 0 1 1-2.492 0 1.246 1.246 0 0 1 2.492 0ZM88.016 28.652a1.246 1.246 0 1 1-2.491 0 1.246 1.246 0 0 1 2.491 0ZM222.289 118.582a1.245 1.245 0 1 1-2.49.001 1.245 1.245 0 0 1 2.49-.001ZM171.719 150.221a1.246 1.246 0 1 1-2.492 0 1.246 1.246 0 0 1 2.492 0ZM219.3 194.314a1.245 1.245 0 1 1-2.49.001 1.245 1.245 0 0 1 2.49-.001ZM254.675 144.492a1.245 1.245 0 1 1-2.49 0 1.245 1.245 0 0 1 2.49 0ZM263.394 128.298a1.246 1.246 0 1 1-2.492 0 1.246 1.246 0 0 1 2.492 0ZM278.092 90.433a1.246 1.246 0 1 1-2.492 0 1.246 1.246 0 0 1 2.492 0ZM150.546 255.844c-8.719 0-9.467 13.452 0 13.452 8.469 0 8.219-13.452 0-13.452ZM177.449 239.652c-8.719 0-9.467 13.452 0 13.452 8.469 0 8.22-13.452 0-13.452ZM150.546 227.445c-8.719 0-9.467 13.453 0 13.453 8.469 0 8.219-13.453 0-13.453ZM123.64 239.652c-8.719 0-9.467 13.452 0 13.452 8.469 0 8.219-13.452 0-13.452Z" fill="#fff"/><defs><filter id="a" x="104.422" y="244.103" width="36.204" height="31.949" filterUnits="userSpaceOnUse" color-interpolation-filters="sRGB"><feFlood flood-opacity="0" result="BackgroundImageFix"/><feBlend in="SourceGraphic" in2="BackgroundImageFix" result="shape"/><feGaussianBlur stdDeviation="5" result="effect1_foregroundBlur_931_366"/></filter><filter id="b" x="128.338" y="232.393" width="39.149" height="32.31" filterUnits="userSpaceOnUse" color-interpolation-filters="sRGB"><feFlood flood-opacity="0" result="BackgroundImageFix"/><feBlend in="SourceGraphic" in2="BackgroundImageFix" result="shape"/><feGaussianBlur stdDeviation="5" result="effect1_foregroundBlur_931_366"/></filter><filter id="c" x="127.595" y="256.06" width="39.438" height="37.378" filterUnits="userSpaceOnUse" color-interpolation-filters="sRGB"><feFlood flood-opacity="0" result="BackgroundImageFix"/><feBlend in="SourceGraphic" in2="BackgroundImageFix" result="shape"/><feGaussianBlur stdDeviation="5" result="effect1_foregroundBlur_931_366"/></filter><filter id="d" x="154.679" y="240.864" width="39.205" height="35.694" filterUnits="userSpaceOnUse" color-interpolation-filters="sRGB"><feFlood flood-opacity="0" result="BackgroundImageFix"/><feBlend in="SourceGraphic" in2="BackgroundImageFix" result="shape"/><feGaussianBlur stdDeviation="5" result="effect1_foregroundBlur_931_366"/></filter><filter id="e" x="90.935" y="241.326" width="45.979" height="56.192" filterUnits="userSpaceOnUse" color-interpolation-filters="sRGB"><feFlood flood-opacity="0" result="BackgroundImageFix"/><feColorMatrix in="SourceAlpha" values="0 0 0 0 0 0 0 0 0 0 0 0 0 0 0 0 0 0 127 0" result="hardAlpha"/><feOffset/><feGaussianBlur stdDeviation="10"/><feComposite in2="hardAlpha" operator="out"/><feColorMatrix values="0 0 0 0 1 0 0 0 0 1 0 0 0 0 1 0 0 0 1 0"/><feBlend in2="BackgroundImageFix" result="effect1_dropShadow_931_366"/><feBlend in="SourceGraphic" in2="effect1_dropShadow_931_366" result="shape"/></filter><filter id="f" x="99.654" y="249.546" width="42.74" height="51.459" filterUnits="userSpaceOnUse" color-interpolation-filters="sRGB"><feFlood flood-opacity="0" result="BackgroundImageFix"/><feColorMatrix in="SourceAlpha" values="0 0 0 0 0 0 0 0 0 0 0 0 0 0 0 0 0 0 127 0" result="hardAlpha"/><feOffset/><feGaussianBlur stdDeviation="10"/><feComposite in2="hardAlpha" operator="out"/><feColorMatrix values="0 0 0 0 1 0 0 0 0 1 0 0 0 0 1 0 0 0 1 0"/><feBlend in2="BackgroundImageFix" result="effect1_dropShadow_931_366"/><feBlend in="SourceGraphic" in2="effect1_dropShadow_931_366" result="shape"/></filter><filter id="g" x="104.636" y="252.632" width="41.495" height="50.368" filterUnits="userSpaceOnUse" color-interpolation-filters="sRGB"><feFlood flood-opacity="0" result="BackgroundImageFix"/><feColorMatrix in="SourceAlpha" values="0 0 0 0 0 0 0 0 0 0 0 0 0 0 0 0 0 0 127 0" result="hardAlpha"/><feOffset/><feGaussianBlur stdDeviation="10"/><feComposite in2="hardAlpha" operator="out"/><feColorMatrix values="0 0 0 0 1 0 0 0 0 1 0 0 0 0 1 0 0 0 1 0"/><feBlend in2="BackgroundImageFix" result="effect1_dropShadow_931_366"/><feBlend in="SourceGraphic" in2="effect1_dropShadow_931_366" result="shape"/></filter><filter id="h" x="163.677" y="241.575" width="46.477" height="55.943" filterUnits="userSpaceOnUse" color-interpolation-filters="sRGB"><feFlood flood-opacity="0" result="BackgroundImageFix"/><feColorMatrix in="SourceAlpha" values="0 0 0 0 0 0 0 0 0 0 0 0 0 0 0 0 0 0 127 0" result="hardAlpha"/><feOffset/><feGaussianBlur stdDeviation="10"/><feComposite in2="hardAlpha" operator="out"/><feColorMatrix values="0 0 0 0 1 0 0 0 0 1 0 0 0 0 1 0 0 0 1 0"/><feBlend in2="BackgroundImageFix" result="effect1_dropShadow_931_366"/><feBlend in="SourceGraphic" in2="effect1_dropShadow_931_366" result="shape"/></filter></defs></svg>