<svg width="264" height="232" fill="none" xmlns="http://www.w3.org/2000/svg"><path d="M144.712 214.501c-9.524 4.989-17.233 5.442-26.756 0l-94.78-56.686c-3.628-3.628-4.074-8.613 0-10.884l94.78-56.233c9.069-5.442 17.232-4.989 26.756 0l89.791 52.151c10.884 5.896 7.71 12.245-1.814 18.593l-87.977 53.059Z" fill="#CECECE" stroke="#fff" stroke-width=".5"/><g filter="url(#a)"><path d="M104.45 88.397c6.754-4.206 14.247-4.883 22.664-3.904 12.941 1.505 24.754 7.841 35.297 15.494l4.683 3.399c24.976 18.13 41.185 52.362 14.333 67.577-30.535 17.302-78.724 18.22-85.866 13.161l-33.336-19.899a20.974 20.974 0 0 1-8.84-25.499l1.008-2.637a36.251 36.251 0 0 1 10.677-14.923l39.38-32.77Z" fill="#7A7A7A"/></g><g filter="url(#b)"><path d="M237.224 144.662c6.157 5.947 4.672 9.56-3.628 16.326v13.151l7.256-4.081c2.008-1.803 2.338-3.041 2.267-5.442v-9.977c-.064-5.94-1.714-7.797-5.895-9.977Z" fill="#fff"/></g><g filter="url(#c)"><path d="M46.756 171.419v13.152l-24.035-14.512c-2.268-1.814-2.721-3.628-2.721-6.803v-11.337c.907 2.268 2.267 4.989 3.628 5.442l23.128 14.058Z" fill="#fff"/></g><g filter="url(#d)"><path d="M58.094 191.372v-12.698l7.256 4.535v12.698l-7.256-4.535Z" fill="#fff"/></g><path d="m46.756 184.57 70.745 42.628m0 0v-12.862m0 12.862c8.244 5.012 19.046 4.989 27.209 0m0 0 2.074-1.238m-2.074 1.238v-1.814m0-10.884v3.175m77.548-36.768 11.337-19.919v3.628m-11.337 16.291 3.174-1.895m-3.174 1.895-3.097 1.849m6.271-3.744 8.163-14.396m-8.163 14.396 3.175-1.895m4.988-12.501v3.175m0 0-4.988 9.326m4.988-9.326v3.174m-4.988 6.152 2.494-1.489m0 0 2.494-1.488v-3.175m-2.494 4.663 2.494-4.663m-14.434 11.791 10.806-19.5m-10.806 19.5-2.799 1.67m0 0 9.977-18.903m-9.977 18.903-3.628 2.166m0 0 9.07-18.348m-9.07 18.348-3.628 2.166m0 0 8.617-18.246m-8.617 18.246-3.174 1.895m0 0 7.709-17.874m-7.709 17.874-3.885 2.319m0 0 7.513-17.472m-7.513 17.472-4.158 2.482m0 0 7.589-17.686m-7.589 17.686-3.294 1.966m0 0 6.802-16.932m-6.802 16.932-3.175 1.895m0 0 6.469-17.013m-6.469 17.013-3.174 1.895m0 0 5.442-16.187m-5.442 16.187-3.272 1.953m0 0 5.086-15.872m-5.086 15.872L181.897 205m0 0 4.535-15.442M181.897 205l-2.721 1.624m0 0 3.628-14.798m-3.628 14.798-3.175 1.895m0 0 3.175-14.879m-3.175 14.879-3.942 2.354m0 0 3.942-15.419m-3.942 15.419-3.767 2.248m0 0 3.767-15.164m-3.767 15.164-3.83 2.286m0 0 3.83-14.965m-3.83 14.965-3.798 2.268m0 0c-.065-.363 2.64-10.128 4-14.965m-4 14.965-4.163 2.485m0 0 3.628-14.729m-3.628 14.729-3.434 2.05m0 0 3.888-14.965m-3.888 14.965-3.368 2.01m0 0 3.628-14.708m-3.628 14.708-2.915 1.74m0 0 3.368-14.634m-5.442 14.058 2.721-12.263m-2.721 12.263v-7.709m0 0 .907-3.628" stroke="#fff" stroke-width=".5"/><path d="M162.677 149.656c-6.8 3.048-14.501 5.131-23.113 6.005a92.61 92.61 0 0 1-9.336.462c-3.541 0-6.948-.19-10.221-.557-8.442-.944-15.996-3.06-22.672-6.111-12.122-5.54-21.349-14.162-27.738-24.446a69.888 69.888 0 0 1-6.413-13.334 75.9 75.9 0 0 1-.52-1.502c-3.337-10.003-4.548-20.778-3.671-31.39.775-9.38 3.181-18.633 7.192-27.112a71.439 71.439 0 0 1 6.846-11.557 66.65 66.65 0 0 1 9.688-10.667c6.529-5.775 14.372-10.373 23.509-13.305a71.718 71.718 0 0 1 6.668-1.787c5.384-1.171 11.163-1.798 17.332-1.798 6.683 0 12.908.736 18.67 2.102 11.45 2.716 21.074 7.92 28.838 14.788a66.565 66.565 0 0 1 9.361 10.223 71.301 71.301 0 0 1 7.173 12c4.011 8.48 6.418 17.733 7.193 27.114.715 8.653.041 17.416-2.042 25.779a75.31 75.31 0 0 1-1.63 5.61c-1.735 5.198-4.044 10.187-6.933 14.836-6.467 10.409-15.84 19.116-28.181 24.647Z" fill="#CECECE"/><path d="M130.228 23.224c1.162 0 2.123.166 2.888.445m-2.888-.445c-1.235 0-2.221.166-2.981.445m2.981-.445v-6.667m0-4v4m0-4c-8.797 0-16.8 1.275-24 3.585m24-3.585c19.961 0 35.836 6.566 47.508 16.89m-44.62-5.778c4.365-4.377 8.671-8.446 15.782-9.01 40.448 14.748 15.996 44.568-18.67 44.568-34.667 0-55.113-25.335-24-43.085m26.888 7.527c1.044.38 1.723.969 2.05 1.628m-7.919-1.628c-4.239-4.373-8.129-7.112-14.351-9.314m14.351 9.314c-1.037.38-1.653.969-1.906 1.628m4.887-8.74c-28.891.889-26.668 25.335 0 25.335 28.447 0 26.225-25.78 0-25.335Zm-4.887 8.74c-22.334-2.004-33.85 1.145-52.31 14.817m52.31-14.817c-.184.479-.176.995 0 1.495m-52.31 13.322a66.65 66.65 0 0 1 9.688-10.667m-9.688 10.667a71.439 71.439 0 0 0-6.846 11.557m68.981-26.374c25.818-1.046 37.015 2.306 51.931 14.373m-51.931-14.373c.236.475.29.987.166 1.483m51.765 12.89a66.565 66.565 0 0 0-9.361-10.223m9.361 10.223a71.301 71.301 0 0 1 7.173 12m-58.938-24.89c42.013 14.668 60.681 44.892 62.459 83.393M135.332 26.78c-.164.66-.642 1.294-1.42 1.778m63.879 81.615a75.31 75.31 0 0 0 1.63-5.61m-1.63 5.61c-1.735 5.198-4.044 10.187-6.933 14.836m-56.946-96.451c41.21 36.891 48.322 100.007 28.765 121.098M133.912 28.558c-.695.431-1.629.744-2.793.85m31.558 120.248c-6.8 3.048-14.501 5.131-23.113 6.005m23.113-6.005c12.341-5.531 21.714-14.238 28.181-24.647m-59.739-95.602a9.87 9.87 0 0 1-.891.04c-.472 0-.916-.042-1.331-.118m2.222.078c14.668 47.154 19.557 112.937 8.445 126.254m0 0a92.61 92.61 0 0 1-9.336.462c-3.541 0-6.948-.19-10.221-.557m8.89-126.237c-11.112 44.12-20.446 99.236-8.89 126.237m8.89-126.237c-.884-.162-1.634-.48-2.223-.891m-6.667 127.128c-8.442-.944-15.996-3.06-22.672-6.111m29.339-121.017c-33.78 26.344-51.114 97.016-29.339 121.017m29.339-121.017c-.663-.463-1.12-1.043-1.333-1.646M97.335 149.455c-12.122-5.54-21.349-14.162-27.738-24.446m55.744-98.217c-37.78 11.989-62.713 41.862-62.157 84.883m0 0a73.728 73.728 0 0 1-.52-1.502m.52 1.502a69.888 69.888 0 0 0 6.413 13.334m36.631-108.867c-9.137 2.932-16.98 7.53-23.508 13.305m0 0c-19.161 23.557 8.84 47.508 47.508 47.508 33.782 0 68.007-19.95 47.508-47.508M66.186 51.67c-7.021 25.284 27.153 45.78 64.042 45.78 35.56 0 67.563-14.667 64.042-45.78m-128.085 0c-4.01 8.48-6.417 17.732-7.192 27.113M194.27 51.67c4.011 8.48 6.418 17.732 7.193 27.113m0 0c-6.339 26.668-40.119 37.78-71.235 37.78-29.778 0-64.043-11.112-71.235-37.78m142.47 0c.715 8.653.041 17.416-2.042 25.779M58.993 78.783c-.877 10.612.334 21.387 3.672 31.39m136.756-5.61c-17.011 20.526-34.966 29.336-69.193 29.336-28 0-51.113-8.89-67.563-23.726m128.193 14.836c-19.292 17.335-34.404 22.668-60.63 22.668-26.227 0-42.223-7.111-60.631-22.668" stroke="#4E4E4E" stroke-width=".5"/><path d="M168.456 59.67h-13.335v12.89h13.335V59.67ZM214.237 129.454v-12.446h13.334v12.446h-13.334ZM157.344 120.564v-12.89h13.334v12.89h-13.334ZM82.672 121.009h12.445v11.556H82.672v-11.556ZM100.006 75.228V61.893h13.335v13.335h-13.335ZM87.116 89.895V78.34h12.446v11.556H87.116ZM200.013 1v12h12.446V1h-12.446ZM62.226 8.556v12.445h-12.89V8.556h12.89Z" fill="#fff"/><path d="M155.121 72.56h13.335V59.67h-13.335v12.89Zm0 0-6.222 7.112m30.224 16.446 35.114 20.89m0 0v12.446h13.334v-12.446h-13.334Zm-64.449-15.556 7.556 6.222m0 0v12.89h13.334v-12.89h-13.334Zm-52.893-.444-9.334 13.779m0 0H82.672v11.556h12.445v-11.556Zm85.339-89.34L200.013 13m0 0V1h12.446v12h-12.446ZM76.449 34.78 62.226 21m0 0V8.556h-12.89v12.445h12.89Zm37.78 40.892v13.335h13.335V61.893h-13.335ZM87.116 78.34v11.556h12.446V78.34H87.116Z" stroke="#fff"/><defs><filter id="a" x="36.002" y="68.098" width="175.285" height="134.708" filterUnits="userSpaceOnUse" color-interpolation-filters="sRGB"><feFlood flood-opacity="0" result="BackgroundImageFix"/><feBlend in="SourceGraphic" in2="BackgroundImageFix" result="shape"/><feGaussianBlur stdDeviation="8" result="effect1_foregroundBlur_374_3480"/></filter><filter id="b" x="213.596" y="124.662" width="49.531" height="69.477" filterUnits="userSpaceOnUse" color-interpolation-filters="sRGB"><feFlood flood-opacity="0" result="BackgroundImageFix"/><feColorMatrix in="SourceAlpha" values="0 0 0 0 0 0 0 0 0 0 0 0 0 0 0 0 0 0 127 0" result="hardAlpha"/><feOffset/><feGaussianBlur stdDeviation="10"/><feComposite in2="hardAlpha" operator="out"/><feColorMatrix values="0 0 0 0 1 0 0 0 0 1 0 0 0 0 1 0 0 0 1 0"/><feBlend in2="BackgroundImageFix" result="effect1_dropShadow_374_3480"/><feBlend in="SourceGraphic" in2="effect1_dropShadow_374_3480" result="shape"/></filter><filter id="c" x="0" y="131.919" width="66.756" height="72.651" filterUnits="userSpaceOnUse" color-interpolation-filters="sRGB"><feFlood flood-opacity="0" result="BackgroundImageFix"/><feColorMatrix in="SourceAlpha" values="0 0 0 0 0 0 0 0 0 0 0 0 0 0 0 0 0 0 127 0" result="hardAlpha"/><feOffset/><feGaussianBlur stdDeviation="10"/><feComposite in2="hardAlpha" operator="out"/><feColorMatrix values="0 0 0 0 1 0 0 0 0 1 0 0 0 0 1 0 0 0 1 0"/><feBlend in2="BackgroundImageFix" result="effect1_dropShadow_374_3480"/><feBlend in="SourceGraphic" in2="effect1_dropShadow_374_3480" result="shape"/></filter><filter id="d" x="38.094" y="158.674" width="47.256" height="57.233" filterUnits="userSpaceOnUse" color-interpolation-filters="sRGB"><feFlood flood-opacity="0" result="BackgroundImageFix"/><feColorMatrix in="SourceAlpha" values="0 0 0 0 0 0 0 0 0 0 0 0 0 0 0 0 0 0 127 0" result="hardAlpha"/><feOffset/><feGaussianBlur stdDeviation="10"/><feComposite in2="hardAlpha" operator="out"/><feColorMatrix values="0 0 0 0 1 0 0 0 0 1 0 0 0 0 1 0 0 0 1 0"/><feBlend in2="BackgroundImageFix" result="effect1_dropShadow_374_3480"/><feBlend in="SourceGraphic" in2="effect1_dropShadow_374_3480" result="shape"/></filter></defs></svg>