<svg width="491" height="194" viewBox="0 0 491 194" fill="none" xmlns="http://www.w3.org/2000/svg">
<g opacity="0.5">
<path d="M-6759.17 1.21987C-6473.17 -2.35643 -5798.14 8.45194 -5385.99 80.2958C-4973.83 152.14 -4445.17 110.231 -4232.36 80.2958C-3901.92 48.5065 -3151.33 10.7567 -2792.51 114.072C-2343.99 243.216 -1686.7 249.176 -1219.32 198.314C-751.94 147.451 -215.886 114.072 87.186 114.072C487.219 114.072 1254.29 96.4977 1726.38 198.314C2116.98 282.555 2837.58 232.09 3228.86 198.314C3693.8 158.179 4208.6 47.7117 4711.81 232.09" stroke="white" stroke-width="0.5"/>
<path d="M-6776 433.553C-6576.88 385.869 -6086.52 288.594 -5718 280.964C-5257.36 271.427 -4627 433.553 -4376.48 433.553C-4125.95 433.553 -3738.04 376.332 -3374.38 280.964C-3010.71 185.596 -2024.77 185.597 -1475.23 309.575C-925.691 433.553 -269.126 423.876 27.2489 347.722C528.3 218.975 1815.01 32.9307 2185 200.3C2669.89 419.646 3344.02 433.553 3735.3 280.964C4389.15 25.9764 5124.64 219.374 5315.22 309.575" stroke="white" stroke-width="0.5"/>
<path d="M-6759.65 5.63758C-6476.16 0.787989 -5806.47 8.4762 -5395.57 78.0258C-4982.02 147.52 -4450.42 111.501 -4236.52 82.4307C-3908.38 51.5591 -3168.26 13.2472 -2809.31 110.827C-2363.23 233.49 -1696.45 239.278 -1226.7 193.463C-756.954 147.647 -217.42 114.952 85.4579 112.754C488.407 109.037 1270.48 86.5998 1739.62 190.308C2132.95 278.45 2852.2 229.843 3243.48 192.637C3713.87 146.3 4235.05 44.6044 4729.23 226.264" stroke="white" stroke-width="0.5"/>
<path d="M-6760.17 10.6004C-6479.35 4.39481 -5815.33 8.7602 -5405.78 75.8665C-4990.73 142.859 -4456.01 113.113 -4240.95 84.9625C-3915.27 55.0682 -3186.3 16.1577 -2827.2 107.629C-2383.73 223.39 -1706.85 228.995 -1234.57 188.555C-762.296 148.114 -219.058 116.148 83.6145 111.609C489.669 103.934 1287.71 76.3171 1753.72 182.041C2149.94 274.336 2867.77 227.708 3259.05 186.849C3735.25 133.907 4263.21 41.5534 4747.78 220.317" stroke="white" stroke-width="0.5"/>
<path d="M-6760.72 16.1864C-6482.74 8.54211 -5824.74 9.38201 -5416.61 73.8961C-4999.98 138.234 -4461.94 115.143 -4245.65 87.9692C-3922.58 59.1118 -3205.44 19.5662 -2846.18 104.557C-2405.48 212.995 -1717.88 218.405 -1242.92 183.668C-767.965 148.93 -220.796 117.738 81.6583 110.714C491.008 98.8399 1306 65.7278 1768.68 173.59C2167.98 270.292 2884.29 225.763 3275.57 181.029C3757.93 121.079 4293.09 38.6368 4767.46 214.329" stroke="white" stroke-width="0.5"/>
<path d="M-6761.3 22.479C-6486.31 13.3133 -5834.69 10.425 -5428.06 72.1978C-5009.76 133.729 -4468.21 117.676 -4250.62 91.5342C-3930.31 63.7733 -3225.68 23.5561 -2866.25 101.694C-2428.48 202.387 -1729.54 207.592 -1251.75 178.886C-773.957 150.179 -222.632 119.804 79.5912 110.153C492.425 93.8384 1325.34 54.9152 1784.5 165.038C2187.05 266.401 2901.76 224.092 3293.04 175.26C3781.91 107.899 4324.68 35.938 4788.27 208.382" stroke="white" stroke-width="0.5"/>
<path d="M-6761.91 29.5595C-6490.09 18.7896 -5845.18 11.9705 -5440.14 70.853C-5020.08 129.424 -4474.83 120.792 -4255.86 95.7388C-3938.46 69.1341 -3247.02 28.2087 -2887.41 99.1206C-2452.73 191.649 -1741.83 196.637 -1261.06 174.289C-780.278 151.941 -224.569 122.428 77.4107 110.008C493.919 89.0107 1345.74 43.9605 1801.17 156.468C2207.16 262.744 2920.17 222.777 3311.45 169.623C3807.2 94.4479 4358 33.5383 4810.22 202.557" stroke="white" stroke-width="0.5"/>
<path d="M-6762.56 37.5029C-6494.05 25.0462 -5856.2 14.0936 -5452.84 69.9367C-5030.92 125.396 -4481.78 124.566 -4261.38 100.658C-3947.02 75.269 -3269.46 33.599 -2909.66 96.9125C-2478.22 180.855 -1754.76 185.615 -1270.84 169.954C-786.923 154.292 -226.606 125.686 75.1174 110.353C495.489 84.4321 1367.18 32.939 1818.71 147.953C2228.3 259.396 2939.54 221.891 3330.82 164.193C3833.79 80.8014 4393.03 31.5127 4833.3 196.93" stroke="white" stroke-width="0.5"/>
<path d="M-6763.23 46.3802C-6498.21 32.154 -5867.77 16.8652 -5466.15 69.52C-5042.29 121.714 -4489.07 129.07 -4267.16 106.363C-3956.01 82.2493 -3292.99 39.7981 -2933 95.1408C-2504.97 170.076 -1768.32 174.597 -1281.11 165.95C-793.892 157.303 -228.74 129.647 72.7152 111.26C497.139 80.1734 1389.68 21.9215 1837.12 139.565C2250.48 256.428 2959.86 221.506 3351.14 159.042C3861.69 67.0304 4429.78 29.9323 4857.51 191.571" stroke="white" stroke-width="0.5"/>
<path d="M-6763.94 56.2491C-6502.57 40.1706 -5879.88 20.343 -5480.1 69.6604C-5054.2 118.437 -4496.71 134.361 -4273.21 112.911C-3965.42 90.1324 -3317.63 46.8635 -2957.44 93.8628C-2532.97 159.37 -1782.52 163.641 -1291.86 162.336C-801.189 161.031 -230.976 134.371 70.197 112.785C498.863 76.2923 1413.22 10.9657 1856.37 131.362C2273.7 253.899 2981.13 221.68 3372.41 154.226C3890.89 53.1923 4468.25 28.8546 4882.84 186.538" stroke="white" stroke-width="0.5"/>
<path d="M-6764.68 67.1623C-6507.12 49.1489 -5892.53 24.5798 -5494.66 70.4108C-5066.64 115.618 -4504.69 140.492 -4279.53 120.355C-3975.25 98.9713 -3343.37 54.8482 -2982.96 93.1315C-2562.22 148.789 -1797.35 152.799 -1303.08 159.164C-808.81 165.53 -233.311 139.909 67.5685 114.982C500.666 72.8416 1437.82 0.124402 1876.49 123.397C2297.96 251.86 3003.35 222.465 3394.62 149.8C3921.4 39.3401 4508.43 28.3325 4909.32 181.885" stroke="white" stroke-width="0.5"/>
<path d="M-6765.45 81.3784C-6511.86 61.3474 -5905.72 31.8341 -5509.85 74.0297C-5079.6 115.514 -4513 149.722 -4286.12 130.954C-3985.49 111.024 -3370.21 66.0106 -3009.58 95.2053C-2592.71 140.593 -1812.82 144.33 -1314.79 158.693C-816.758 173.056 -235.746 148.52 64.8273 120.11C502.546 72.0798 1463.47 -8.34393 1897.47 117.927C2323.25 252.571 3026.51 226.12 3417.79 148.02C3953.21 27.7321 4550.34 30.6245 4936.92 179.869" stroke="white" stroke-width="0.5"/>
<path d="M-6766.25 107.57C-6516.8 85.4384 -5919.46 50.7783 -5525.66 89.1894C-5093.11 126.798 -4521.66 170.722 -4292.99 153.38C-3996.16 134.964 -3398.15 89.023 -3037.29 108.757C-2624.46 143.453 -1828.92 146.907 -1326.97 169.596C-825.032 192.284 -238.282 168.877 61.9726 136.84C504.502 82.6793 1490.17 -5.76677 1919.31 123.626C2349.58 264.703 3050.63 241.318 3441.91 157.56C3986.32 27.0409 4593.96 44.403 4965.65 189.163" stroke="white" stroke-width="0.5"/>
<path d="M-6767.08 134.952C-6521.93 110.637 -5933.73 70.6274 -5542.09 105.105C-5107.14 138.686 -4530.66 192.708 -4300.12 176.848C-4007.25 160.005 -3427.19 113.101 -3066.09 123.001C-2657.46 146.585 -1845.65 149.744 -1339.64 181.086C-833.633 212.429 -240.918 190.194 59.0051 154.388C506.534 93.8551 1517.93 -2.92927 1942.01 129.708C2376.94 277.472 3075.69 257.273 3466.97 167.634C4020.73 26.4814 4639.3 58.8829 4995.52 198.982" stroke="white" stroke-width="0.5"/>
<path d="M-6767.95 163.511C-6527.26 136.931 -5948.54 91.369 -5559.15 121.764C-5121.71 151.165 -4540.01 215.668 -4307.52 201.346C-4018.76 186.136 -3457.33 138.231 -3095.98 137.925C-2691.71 149.976 -1863.02 152.828 -1352.79 193.152C-842.56 233.476 -243.654 212.459 55.9249 172.742C508.643 105.595 1546.73 0.156288 1965.57 136.161C2405.35 290.865 3101.71 273.973 3492.99 178.231C4056.45 26.0412 4686.35 74.052 5026.51 209.313" stroke="white" stroke-width="0.5"/>
<path d="M-6768.84 193.242C-6532.78 164.313 -5963.9 112.996 -5576.83 139.16C-5136.8 164.227 -4549.69 239.595 -4315.2 226.866C-4030.69 213.349 -3488.56 164.407 -3126.96 153.522C-2727.21 153.62 -1881.02 156.155 -1366.41 205.788C-851.81 255.421 -246.487 235.666 52.735 191.894C510.832 117.892 1576.58 3.48309 1989.99 142.978C2434.79 304.876 3128.67 291.411 3519.95 189.343C4093.48 25.7135 4735.13 89.9034 5058.64 220.15" stroke="white" stroke-width="0.5"/>
<path d="M-6769.77 224.135C-6538.5 192.775 -5979.79 135.501 -5595.13 157.284C-5152.43 177.866 -4559.71 264.48 -4323.14 253.401C-4043.04 241.636 -3520.9 191.621 -3159.03 169.785C-2763.96 157.508 -1899.65 159.714 -1380.52 218.984C-861.387 278.254 -249.423 259.806 49.4305 211.836C513.095 130.738 1607.49 7.0429 2015.27 150.151C2465.26 319.496 3156.59 309.579 3547.87 200.962C4131.8 25.4902 4785.62 106.429 5091.9 231.484" stroke="white" stroke-width="0.5"/>
<path d="M-6770.73 256.184C-6544.41 222.31 -5996.23 158.876 -5614.05 176.13C-5168.59 192.073 -4570.07 290.315 -4331.35 280.943C-4055.81 270.99 -3554.34 219.865 -3192.19 186.705C-2801.96 161.632 -1918.92 163.498 -1395.1 232.734C-871.289 301.969 -252.456 284.871 46.0157 232.561C515.438 144.125 1639.45 10.8281 2041.41 157.673C2496.78 334.718 3185.45 328.469 3576.73 213.081C4171.44 25.3636 4837.83 123.621 5126.3 243.309" stroke="white" stroke-width="0.5"/>
<path d="M-6771.72 289.38C-6550.52 252.91 -6013.2 183.113 -5633.59 195.688C-5185.28 206.84 -4580.78 317.094 -4339.84 309.484C-4069 301.402 -3588.88 249.131 -3226.45 204.274C-2841.21 165.984 -1938.82 167.5 -1410.17 247.028C-881.518 326.556 -255.59 310.854 42.487 254.061C517.856 158.045 1672.46 14.8307 2068.41 165.534C2529.32 350.533 3215.27 348.074 3606.54 225.691C4212.37 25.3256 4891.75 141.471 5161.82 255.615" stroke="white" stroke-width="0.5"/>
<path d="M-6772.74 323.721C-6556.82 284.571 -6030.72 208.209 -5653.76 215.956C-5202.5 222.165 -4591.82 344.813 -4348.59 339.021C-4082.61 332.87 -3624.52 279.417 -3261.79 222.491C-2881.71 170.563 -1959.36 171.717 -1425.72 261.866C-892.073 352.015 -258.825 337.752 38.8454 276.333C520.351 172.496 1706.52 19.0483 2096.26 173.734C2562.91 366.939 3246.03 368.391 3637.31 238.791C4254.61 25.374 4947.4 159.978 5198.47 268.401" stroke="white" stroke-width="0.5"/>
<path d="M-6773.8 359.2C-6563.31 317.288 -6048.78 234.157 -5674.55 236.928C-5220.26 238.041 -4603.21 373.466 -4357.62 369.548C-4096.64 365.388 -3661.26 310.715 -3298.23 241.348C-2923.46 175.361 -1980.53 176.142 -1441.74 277.239C-902.954 378.336 -262.16 365.558 35.0916 299.37C522.923 187.472 1741.63 23.4739 2124.98 182.264C2597.53 383.93 3277.74 389.413 3669.02 252.373C4298.15 25.5016 5004.76 179.133 5236.26 281.659" stroke="white" stroke-width="0.5"/>
<path d="M-6774.88 395.812C-6570 351.055 -6067.38 260.954 -5695.97 258.599C-5238.54 254.463 -4614.94 403.047 -4366.91 401.06C-4111.08 398.95 -3699.1 343.022 -3335.76 260.841C-2966.46 180.374 -2002.33 180.77 -1458.25 293.144C-914.159 405.517 -265.592 394.268 31.2269 323.168C525.573 202.966 1777.8 28.1028 2154.56 191.121C2633.19 401.501 3310.41 411.135 3701.68 266.432C4343 25.7039 5063.84 198.933 5275.17 295.385" stroke="white" stroke-width="0.5"/>
</g>
</svg>
