<svg width="491" height="194" viewBox="0 0 491 194" fill="none" xmlns="http://www.w3.org/2000/svg">
<g opacity="0.5">
<path d="M-2599.16 1.21987C-2313.17 -2.35643 -1638.14 8.45194 -1225.99 80.2958C-813.833 152.14 -285.17 110.231 -72.3578 80.2958C258.085 48.5065 1008.67 10.7567 1367.49 114.072C1816.01 243.216 2473.31 249.176 2940.68 198.314C3408.06 147.451 3944.12 114.072 4247.19 114.072C4647.22 114.072 5414.29 96.4977 5886.38 198.314C6276.98 282.555 6997.58 232.09 7388.86 198.314C7853.8 158.179 8368.6 47.7117 8871.81 232.09" stroke="white" stroke-width="0.5"/>
<path d="M-2616 433.553C-2416.88 385.869 -1926.52 288.594 -1558 280.964C-1097.36 271.427 -467.002 433.553 -216.477 433.553C34.0487 433.553 421.959 376.332 785.625 280.964C1149.29 185.596 2135.23 185.597 2684.77 309.575C3234.31 433.553 3890.88 423.876 4187.25 347.722C4688.3 218.975 5975.02 32.9307 6345 200.3C6829.89 419.646 7504.02 433.553 7895.3 280.964C8549.15 25.9764 9284.64 219.374 9475.23 309.575" stroke="white" stroke-width="0.5"/>
<path d="M-2599.65 5.63758C-2316.16 0.787989 -1646.47 8.4762 -1235.57 78.0258C-822.016 147.52 -290.417 111.501 -76.5163 82.4307C251.619 51.5591 991.738 13.2472 1350.7 110.827C1796.77 233.49 2463.55 239.278 2933.3 193.463C3403.05 147.647 3942.58 114.952 4245.46 112.754C4648.41 109.037 5430.48 86.5998 5899.62 190.308C6292.95 278.45 7012.2 229.843 7403.48 192.637C7873.87 146.3 8395.05 44.6044 8889.23 226.264" stroke="white" stroke-width="0.5"/>
<path d="M-2600.17 10.6004C-2319.35 4.39481 -1655.33 8.7602 -1245.78 75.8665C-830.732 142.859 -296.007 113.113 -80.9473 84.9625C244.731 55.0682 973.701 16.1577 1332.81 107.629C1776.27 223.39 2453.15 228.995 2925.43 188.555C3397.71 148.114 3940.94 116.148 4243.62 111.609C4649.67 103.934 5447.72 76.3171 5913.72 182.041C6309.94 274.336 7027.77 227.708 7419.05 186.849C7895.25 133.907 8423.21 41.5534 8907.78 220.317" stroke="white" stroke-width="0.5"/>
<path d="M-2600.72 16.1864C-2322.74 8.54211 -1664.74 9.38201 -1256.61 73.8961C-839.982 138.234 -301.94 115.143 -85.6498 87.9692C237.422 59.1118 954.561 19.5662 1313.83 104.557C1754.52 212.995 2442.13 218.405 2917.08 183.668C3392.04 148.93 3939.21 117.738 4241.66 110.714C4651.01 98.8399 5466 65.7278 5928.68 173.59C6327.98 270.292 7044.29 225.763 7435.57 181.029C7917.93 121.079 8453.09 38.6368 8927.46 214.329" stroke="white" stroke-width="0.5"/>
<path d="M-2601.3 22.479C-2326.31 13.3133 -1674.69 10.425 -1268.06 72.1978C-849.761 133.729 -308.211 117.676 -90.6201 91.5342C229.695 63.7733 934.324 23.5561 1293.76 101.694C1731.52 202.387 2430.46 207.592 2908.25 178.886C3386.04 150.179 3937.37 119.804 4239.59 110.153C4652.43 93.8384 5485.35 54.9152 5944.5 165.038C6347.05 266.401 7061.76 224.092 7453.04 175.26C7941.92 107.899 8484.69 35.938 8948.28 208.382" stroke="white" stroke-width="0.5"/>
<path d="M-2601.91 29.5595C-2330.08 18.7896 -1685.17 11.9705 -1280.14 70.853C-860.073 129.424 -314.825 120.792 -95.8626 95.7388C221.546 69.1341 912.986 28.2087 1272.59 99.1206C1707.28 191.649 2418.17 196.637 2898.95 174.289C3379.72 151.941 3935.43 122.428 4237.41 110.008C4653.92 89.0107 5505.74 43.9605 5961.18 156.468C6367.16 262.744 7080.18 222.777 7471.45 169.623C7967.2 94.4479 8518 33.5383 8970.22 202.557" stroke="white" stroke-width="0.5"/>
<path d="M-2602.55 37.5029C-2334.05 25.0462 -1696.2 14.0936 -1292.83 69.9367C-870.917 125.396 -321.78 124.566 -101.375 100.658C212.977 75.269 890.547 33.599 1250.34 96.9125C1681.78 180.855 2405.24 185.615 2889.16 169.954C3373.08 154.292 3933.4 125.686 4235.12 110.353C4655.49 84.4321 5527.18 32.939 5978.71 147.953C6388.3 259.396 7099.54 221.891 7490.82 164.193C7993.8 80.8014 8553.03 31.5127 8993.3 196.93" stroke="white" stroke-width="0.5"/>
<path d="M-2603.23 46.3802C-2338.21 32.154 -1707.77 16.8652 -1306.15 69.52C-882.29 121.714 -329.073 129.07 -107.155 106.363C203.991 82.2493 867.011 39.7981 1227 95.1408C1655.03 170.076 2391.68 174.597 2878.89 165.95C3366.11 157.303 3931.26 129.647 4232.72 111.26C4657.14 80.1734 5549.68 21.9215 5997.12 139.565C6410.49 256.428 7119.86 221.506 7511.14 159.042C8021.7 67.0304 8589.78 29.9323 9017.51 191.571" stroke="white" stroke-width="0.5"/>
<path d="M-2603.94 56.2491C-2342.57 40.1706 -1719.88 20.343 -1320.1 69.6604C-894.196 118.437 -336.709 134.361 -113.208 112.911C194.583 90.1324 842.371 46.8635 1202.56 93.8628C1627.03 159.37 2377.48 163.641 2868.15 162.336C3358.81 161.031 3929.03 134.371 4230.2 112.785C4658.87 76.2923 5573.22 10.9657 6016.37 131.362C6433.7 253.899 7141.13 221.68 7532.41 154.226C8050.89 53.1923 8628.25 28.8546 9042.85 186.538" stroke="white" stroke-width="0.5"/>
<path d="M-2604.67 67.1623C-2347.12 49.1489 -1732.53 24.5798 -1334.66 70.4108C-906.634 115.618 -344.686 140.492 -119.529 120.355C184.755 98.9713 816.634 54.8482 1177.04 93.1315C1597.79 148.789 2362.65 152.799 2856.92 159.164C3351.19 165.53 3926.69 139.909 4227.57 114.982C4660.67 72.8416 5597.82 0.124402 6036.5 123.397C6457.96 251.86 7163.35 222.465 7554.63 149.8C8081.4 39.3401 8668.44 28.3325 9069.32 181.885" stroke="white" stroke-width="0.5"/>
<path d="M-2605.44 81.3784C-2351.86 61.3474 -1745.72 31.8341 -1349.85 74.0297C-919.603 115.514 -353.003 149.722 -126.121 130.954C174.507 111.024 789.796 66.0106 1150.42 95.2053C1567.29 140.593 2347.19 144.33 2845.21 158.693C3343.24 173.056 3924.26 148.52 4224.83 120.11C4662.55 72.0798 5623.47 -8.34393 6057.47 117.927C6483.25 252.571 7186.52 226.12 7577.79 148.02C8113.21 27.7321 8710.34 30.6245 9096.92 179.869" stroke="white" stroke-width="0.5"/>
<path d="M-2606.25 107.57C-2356.8 85.4384 -1759.45 50.7783 -1365.66 89.1894C-933.105 126.798 -361.662 170.722 -132.985 153.38C163.838 134.964 761.856 89.023 1122.71 108.757C1535.54 143.453 2331.09 146.907 2833.03 169.596C3334.97 192.284 3921.72 168.877 4221.97 136.84C4664.5 82.6793 5650.18 -5.76677 6079.31 123.626C6509.58 264.703 7210.63 241.318 7601.91 157.56C8146.32 27.0409 8753.96 44.403 9125.66 189.163" stroke="white" stroke-width="0.5"/>
<path d="M-2607.08 134.952C-2361.93 110.637 -1773.73 70.6274 -1382.09 105.105C-947.138 138.686 -370.663 192.708 -140.119 176.848C152.749 160.005 732.816 113.101 1093.91 123.001C1502.54 146.585 2314.35 149.744 2820.36 181.086C3326.37 212.429 3919.08 190.194 4219.01 154.388C4666.54 93.8551 5677.93 -2.92927 6102.01 129.708C6536.95 277.472 7235.7 257.273 7626.97 167.634C8180.74 26.4814 8799.3 58.8829 9155.52 198.982" stroke="white" stroke-width="0.5"/>
<path d="M-2607.95 163.511C-2367.26 136.931 -1788.54 91.369 -1399.15 121.764C-961.703 151.165 -380.004 215.668 -147.523 201.346C141.24 186.136 702.677 138.231 1064.02 137.925C1468.29 149.976 2296.98 152.828 2807.21 193.152C3317.44 233.476 3916.35 212.459 4215.93 172.742C4668.64 105.595 5706.73 0.156288 6125.57 136.161C6565.35 290.865 7261.71 273.973 7652.99 178.231C8216.45 26.0412 8846.35 74.052 9186.51 209.313" stroke="white" stroke-width="0.5"/>
<path d="M-2608.84 193.242C-2372.78 164.313 -1803.9 112.996 -1416.82 139.16C-976.799 164.227 -389.685 239.595 -155.196 226.866C129.311 213.349 671.438 164.407 1033.04 153.522C1432.79 153.62 2278.98 156.155 2793.59 205.788C3308.19 255.421 3913.51 235.666 4212.74 191.894C4670.83 117.892 5736.59 3.48309 6149.99 142.978C6594.79 304.876 7288.68 291.411 7679.95 189.343C8253.48 25.7135 8895.13 89.9034 9218.65 220.15" stroke="white" stroke-width="0.5"/>
<path d="M-2609.77 224.135C-2378.5 192.775 -1819.79 135.501 -1435.13 157.284C-992.427 177.866 -399.708 264.48 -163.14 253.401C116.963 241.636 639.098 191.621 1000.97 169.785C1396.04 157.508 2260.35 159.714 2779.48 218.984C3298.61 278.254 3910.58 259.806 4209.43 211.836C4673.1 130.738 5767.49 7.0429 6175.27 150.151C6625.26 319.496 7316.59 309.579 7707.87 200.962C8291.81 25.4902 8945.62 106.429 9251.9 231.484" stroke="white" stroke-width="0.5"/>
<path d="M-2610.73 256.184C-2384.41 222.31 -1836.23 158.876 -1454.05 176.13C-1008.59 192.073 -410.07 290.315 -171.353 280.943C104.195 270.99 605.66 219.865 967.808 186.705C1358.04 161.632 2241.08 163.498 2764.9 232.734C3288.71 301.969 3907.55 284.871 4206.02 232.561C4675.44 144.125 5799.45 10.8281 6201.41 157.673C6656.78 334.718 7345.46 328.469 7736.73 213.081C8331.44 25.3636 8997.83 123.621 9286.3 243.309" stroke="white" stroke-width="0.5"/>
<path d="M-2611.72 289.38C-2390.51 252.91 -1853.2 183.113 -1473.59 195.688C-1025.28 206.84 -420.774 317.094 -179.837 309.484C91.0062 301.402 571.12 249.131 933.554 204.274C1318.79 165.984 2221.18 167.5 2749.83 247.028C3278.48 326.556 3904.41 310.854 4202.49 254.061C4677.86 158.045 5832.46 14.8307 6228.41 165.534C6689.33 350.533 7375.27 348.074 7766.55 225.691C8372.37 25.3256 9051.75 141.471 9321.82 255.615" stroke="white" stroke-width="0.5"/>
<path d="M-2612.74 323.721C-2396.81 284.571 -1870.72 208.209 -1493.76 215.956C-1042.5 222.165 -431.82 344.813 -188.592 339.021C77.3963 332.87 535.48 279.417 898.208 222.491C1278.29 170.563 2200.64 171.717 2734.29 261.866C3267.93 352.015 3901.18 337.752 4198.85 276.333C4680.35 172.496 5866.52 19.0483 6256.27 173.734C6722.91 366.939 7406.03 368.391 7797.31 238.791C8414.61 25.374 9107.4 159.978 9358.47 268.401" stroke="white" stroke-width="0.5"/>
<path d="M-2613.8 359.2C-2403.31 317.288 -1888.78 234.157 -1514.55 236.928C-1060.25 238.041 -443.207 373.466 -197.617 369.548C63.3668 365.388 498.739 310.715 861.771 241.348C1236.54 175.361 2179.47 176.142 2718.26 277.239C3257.05 378.336 3897.84 365.558 4195.09 299.37C4682.92 187.472 5901.64 23.4739 6284.98 182.264C6757.53 383.93 7437.74 389.413 7829.02 252.373C8458.16 25.5016 9164.76 179.133 9396.26 281.659" stroke="white" stroke-width="0.5"/>
<path d="M-2614.88 395.812C-2410 351.055 -1907.38 260.954 -1535.97 258.599C-1078.54 254.463 -454.934 403.047 -206.912 401.06C48.9178 398.95 460.899 343.022 824.244 260.841C1193.54 180.374 2157.67 180.77 2701.76 293.144C3245.84 405.517 3894.41 394.268 4191.23 323.168C4685.58 202.966 5937.8 28.1028 6314.56 191.121C6793.19 401.501 7470.41 411.135 7861.69 266.432C8503 25.7039 9223.84 198.933 9435.18 295.385" stroke="white" stroke-width="0.5"/>
</g>
</svg>
