<svg width="259" height="249" viewBox="0 0 259 249" fill="none" xmlns="http://www.w3.org/2000/svg">
<path d="M142.606 232.621C133.294 237.499 125.755 237.943 116.443 232.621L23.762 177.19C20.2144 173.642 19.7787 168.768 23.7621 166.547L116.443 111.56C125.312 106.238 133.294 106.682 142.606 111.56L230.409 162.556C241.052 168.321 237.948 174.529 228.635 180.738L142.606 232.621Z" fill="#CECECE" stroke="white" stroke-width="0.5"/>
<g filter="url(#filter0_d_561_1061)">
<path d="M233.071 164.331C239.092 170.146 237.64 173.679 229.523 180.295V193.155L236.619 189.164C238.583 187.401 238.905 186.19 238.836 183.842V174.086C238.773 168.278 237.16 166.462 233.071 164.331Z" fill="#CECECE"/>
</g>
<g filter="url(#filter1_d_561_1061)">
<path d="M46.8217 190.494V203.354L23.3189 189.163C21.1016 187.389 20.6583 185.616 20.6582 182.511V171.425C21.5451 173.643 22.8754 176.303 24.2058 176.747L46.8217 190.494Z" fill="#CECECE"/>
</g>
<g filter="url(#filter2_d_561_1061)">
<path d="M57.9082 210.005V197.589L65.0034 202.023V214.44L57.9082 210.005Z" fill="#CECECE"/>
</g>
<path d="M46.8223 203.354L116 245.038M116 245.038V232.461M116 245.038C124.062 249.939 134.625 249.916 142.607 245.038M142.607 245.038L144.635 243.828M142.607 245.038V243.264M142.607 232.622V235.726M218.437 199.772L229.523 180.295V183.842M218.437 199.772L221.541 197.92M218.437 199.772L215.409 201.58M221.541 197.92L229.523 183.842M221.541 197.92L224.645 196.067M229.523 183.842V186.946M229.523 186.946L224.645 196.067M229.523 186.946V190.051M224.645 196.067L227.084 194.611M227.084 194.611L229.523 193.155V190.051M227.084 194.611L229.523 190.051M215.409 201.58L225.976 182.512M215.409 201.58L212.672 203.214M212.672 203.214L222.428 184.729M212.672 203.214L209.125 205.331M209.125 205.331L217.994 187.39M209.125 205.331L205.577 207.449M205.577 207.449L214.003 189.607M205.577 207.449L202.473 209.302M202.473 209.302L210.011 191.824M202.473 209.302L198.674 211.57M198.674 211.57L206.02 194.485M198.674 211.57L194.608 213.997M194.608 213.997L202.029 196.702M194.608 213.997L191.387 215.92M191.387 215.92L198.038 199.363M191.387 215.92L188.282 217.773M188.282 217.773L194.608 201.137M188.282 217.773L185.178 219.626M185.178 219.626L190.5 203.797M185.178 219.626L181.979 221.535M181.979 221.535L186.952 206.015M181.979 221.535L178.97 223.332M178.97 223.332L183.405 208.232M178.97 223.332L176.309 224.92M176.309 224.92L179.857 210.449M176.309 224.92L173.205 226.773M173.205 226.773L176.309 212.223M173.205 226.773L169.351 229.074M169.351 229.074L173.205 213.997M169.351 229.074L165.667 231.273M165.667 231.273L169.351 216.444M165.667 231.273L161.922 233.509M161.922 233.509L165.667 218.875M161.922 233.509L158.208 235.726M158.208 235.726C158.144 235.371 160.789 225.822 162.119 221.092M158.208 235.726L154.137 238.156M154.137 238.156L157.685 223.753M154.137 238.156L150.779 240.16M150.779 240.16L154.58 225.526M150.779 240.16L147.485 242.126M147.485 242.126L151.033 227.744M147.485 242.126L144.635 243.828M144.635 243.828L147.929 229.518M142.607 243.264L145.268 231.273M142.607 243.264V235.726M142.607 235.726L143.494 232.178" stroke="white" stroke-width="0.5"/>
<g filter="url(#filter3_f_561_1061)">
<path d="M147.35 196.851C149.916 194.33 148.905 192.858 144.383 190.174L150.317 186.28L153.099 188.69C155.517 190.37 156.926 190.998 159.775 190.174L171.088 182.014C172.455 181.032 172.059 180.576 171.088 179.789L168.677 176.08L172.386 172.927L176.28 176.08C178.914 177.46 180.322 177.285 182.771 176.08C182.771 176.08 191.487 170.739 192.785 169.218C194.083 167.698 195.55 167.148 194.083 164.767L187.407 160.317L81.9192 131.161L53.9164 148.779C51.3571 150.179 50.5783 153.044 53.9164 155.641L129.547 202.043C133.023 203.668 134.972 203.912 138.449 202.043L147.35 196.851Z" fill="#797979"/>
</g>
<path d="M191.945 145.093L176.803 153.624L161.66 144.879L176.803 135.495L191.945 145.093Z" fill="#CECECE" stroke="white" stroke-width="0.3"/>
<path d="M161.66 144.878L176.803 153.622V172.39L161.66 163.433V144.878Z" fill="#B8B8B8" stroke="white" stroke-width="0.3"/>
<path d="M191.943 163.22V145.092L176.801 153.623V172.391L191.943 163.22Z" fill="#CECECE" stroke="white" stroke-width="0.3"/>
<path d="M172.658 160.983L172.711 156.592L168.822 154.369L168.954 158.867L172.658 160.983Z" fill="white" stroke="white" stroke-width="0.3"/>
<path d="M172.896 165.296L172.658 160.984L168.955 158.868L168.823 154.37L164.934 152.148L165.304 160.957L172.896 165.296Z" fill="#797979" stroke="white" stroke-width="0.3"/>
<path d="M168.945 159.093L153.803 167.624L138.66 158.879L153.803 149.495L168.945 159.093Z" fill="#CECECE" stroke="white" stroke-width="0.3"/>
<path d="M138.66 158.878L153.803 167.622V186.39L138.66 177.433V158.878Z" fill="#B8B8B8" stroke="white" stroke-width="0.3"/>
<path d="M168.943 177.22V159.092L153.801 167.623V186.391L168.943 177.22Z" fill="#CECECE" stroke="white" stroke-width="0.3"/>
<path d="M149.658 174.983L149.711 170.592L145.822 168.369L145.954 172.867L149.658 174.983Z" fill="white" stroke="white" stroke-width="0.3"/>
<path d="M149.896 179.296L149.658 174.984L145.955 172.868L145.823 168.37L141.934 166.148L142.304 174.957L149.896 179.296Z" fill="#797979" stroke="white" stroke-width="0.3"/>
<path d="M100.945 145.093L85.8027 153.624L70.6602 144.879L85.8027 135.495L100.945 145.093Z" fill="#CECECE" stroke="white" stroke-width="0.3"/>
<path d="M70.6602 144.878L85.8027 153.622V172.39L70.6602 163.433V144.878Z" fill="#B8B8B8" stroke="white" stroke-width="0.3"/>
<path d="M100.943 163.22V145.092L85.8008 153.623V172.391L100.943 163.22Z" fill="#CECECE" stroke="white" stroke-width="0.3"/>
<path d="M81.6576 160.983L81.7108 156.592L77.8223 154.369L77.9542 158.867L81.6576 160.983Z" fill="white" stroke="white" stroke-width="0.3"/>
<path d="M81.8956 165.296L81.6579 160.984L77.9545 158.868L77.8226 154.37L73.9341 152.148L74.3038 160.957L81.8956 165.296Z" fill="#797979" stroke="white" stroke-width="0.3"/>
<path d="M122.945 159.093L107.803 167.624L92.6602 158.879L107.803 149.495L122.945 159.093Z" fill="#CECECE" stroke="white" stroke-width="0.3"/>
<path d="M92.6602 158.878L107.803 167.622V186.39L92.6602 177.433V158.878Z" fill="#B8B8B8" stroke="white" stroke-width="0.3"/>
<path d="M122.943 177.22V159.092L107.801 167.623V186.391L122.943 177.22Z" fill="#CECECE" stroke="white" stroke-width="0.3"/>
<path d="M103.658 174.983L103.711 170.592L99.8223 168.369L99.9542 172.867L103.658 174.983Z" fill="white" stroke="white" stroke-width="0.3"/>
<path d="M103.896 179.296L103.658 174.984L99.9545 172.868L99.8226 168.37L95.9341 166.148L96.3038 174.957L103.896 179.296Z" fill="#797979" stroke="white" stroke-width="0.3"/>
<path d="M145.945 172.093L130.803 180.624L115.66 171.879L130.803 162.495L145.945 172.093Z" fill="#CECECE" stroke="white" stroke-width="0.3"/>
<path d="M115.66 171.878L130.803 180.622V199.39L115.66 190.433V171.878Z" fill="#B8B8B8" stroke="white" stroke-width="0.3"/>
<path d="M145.943 190.22V172.092L130.801 180.623V199.391L145.943 190.22Z" fill="#CECECE" stroke="white" stroke-width="0.3"/>
<path d="M126.658 187.983L126.711 183.592L122.822 181.369L122.954 185.867L126.658 187.983Z" fill="white" stroke="white" stroke-width="0.3"/>
<path d="M126.896 192.296L126.658 187.984L122.955 185.868L122.823 181.37L118.934 179.148L119.304 187.957L126.896 192.296Z" fill="#797979" stroke="white" stroke-width="0.3"/>
<path d="M114.87 91.3774L129.83 100.226L129.828 117.712L114.13 109.29L114.87 91.3774Z" fill="#CECECE" stroke="white" stroke-width="0.3"/>
<path d="M129.828 117.713L129.83 100.227L146.083 90.8425L145.897 108.435L129.828 117.713Z" fill="#B8B8B8" stroke="white" stroke-width="0.3"/>
<path d="M130.572 82.3144L114.872 91.3786L129.831 100.227L146.085 90.8428L130.572 82.3144Z" fill="#B8B8B8" stroke="white" stroke-width="0.3"/>
<path d="M138.278 100.136L134.449 102.286L134.468 106.764L138.297 104.402L138.278 100.136Z" fill="white" stroke="white" stroke-width="0.3"/>
<path d="M141.892 97.7718L138.277 100.134L138.296 104.399L134.467 106.762L134.487 111.241L141.931 106.516L141.892 97.7718Z" fill="#797979" stroke="white" stroke-width="0.3"/>
<path d="M140.87 100.377L155.83 109.225L155.828 126.711L140.13 118.29L140.87 100.377Z" fill="#CECECE" stroke="white" stroke-width="0.3"/>
<path d="M155.828 126.712L155.83 109.226L172.083 99.8423L171.897 117.435L155.828 126.712Z" fill="#B8B8B8" stroke="white" stroke-width="0.3"/>
<path d="M156.572 91.3141L140.872 100.378L155.831 109.227L172.085 99.8425L156.572 91.3141Z" fill="#B8B8B8" stroke="white" stroke-width="0.3"/>
<path d="M164.278 109.136L160.449 111.285L160.468 115.764L164.297 113.401L164.278 109.136Z" fill="white" stroke="white" stroke-width="0.3"/>
<path d="M167.892 106.772L164.277 109.133L164.296 113.399L160.467 115.762L160.487 120.24L167.931 115.516L167.892 106.772Z" fill="#797979" stroke="white" stroke-width="0.3"/>
<path d="M161.87 112.377L176.83 121.225L176.828 138.711L161.13 130.29L161.87 112.377Z" fill="#CECECE" stroke="white" stroke-width="0.3"/>
<path d="M176.828 138.712L176.83 121.226L193.083 111.842L192.897 129.435L176.828 138.712Z" fill="#B8B8B8" stroke="white" stroke-width="0.3"/>
<path d="M177.572 103.314L161.872 112.378L176.831 121.227L193.085 111.843L177.572 103.314Z" fill="#B8B8B8" stroke="white" stroke-width="0.3"/>
<path d="M185.278 121.136L181.449 123.285L181.468 127.764L185.297 125.401L185.278 121.136Z" fill="white" stroke="white" stroke-width="0.3"/>
<path d="M188.892 118.772L185.277 121.133L185.296 125.399L181.467 127.762L181.487 132.24L188.931 127.516L188.892 118.772Z" fill="#797979" stroke="white" stroke-width="0.3"/>
<path d="M90.8702 104.377L105.83 113.225L105.828 130.711L90.1299 122.29L90.8702 104.377Z" fill="#CECECE" stroke="white" stroke-width="0.3"/>
<path d="M105.828 130.712L105.83 113.226L122.083 103.842L121.897 121.435L105.828 130.712Z" fill="#B8B8B8" stroke="white" stroke-width="0.3"/>
<path d="M106.572 95.3141L90.8721 104.378L105.831 113.227L122.085 103.843L106.572 95.3141Z" fill="#B8B8B8" stroke="white" stroke-width="0.3"/>
<path d="M114.278 113.136L110.449 115.285L110.468 119.764L114.297 117.401L114.278 113.136Z" fill="white" stroke="white" stroke-width="0.3"/>
<path d="M117.892 110.772L114.277 113.133L114.296 117.399L110.467 119.762L110.487 124.24L117.931 119.516L117.892 110.772Z" fill="#797979" stroke="white" stroke-width="0.3"/>
<path d="M116.585 113.566L131.544 122.414L131.543 139.9L115.845 131.478L116.585 113.566Z" fill="#CECECE" stroke="white" stroke-width="0.3"/>
<path d="M131.543 139.901L131.544 122.415L147.798 113.03L147.612 130.623L131.543 139.901Z" fill="#150F0F" stroke="white" stroke-width="0.3"/>
<path d="M132.285 104.503L116.585 113.567L131.544 122.415L147.798 113.031L132.285 104.503Z" fill="#B9B9B9" stroke="white" stroke-width="0.3"/>
<path d="M139.991 122.325L136.162 124.474L136.181 128.953L140.01 126.59L139.991 122.325Z" fill="#F73737" stroke="white" stroke-width="0.3"/>
<path d="M143.605 119.96L139.99 122.322L140.008 126.588L136.18 128.951L136.199 133.429L143.643 128.705L143.605 119.96Z" fill="#161616" stroke="white" stroke-width="0.3"/>
<path d="M138.87 125.377L153.83 134.225L153.828 151.711L138.13 143.29L138.87 125.377Z" fill="#CECECE" stroke="white" stroke-width="0.3"/>
<path d="M153.828 151.712L153.83 134.226L170.083 124.842L169.897 142.435L153.828 151.712Z" fill="#B8B8B8" stroke="white" stroke-width="0.3"/>
<path d="M154.572 116.314L138.872 125.378L153.831 134.227L170.085 124.843L154.572 116.314Z" fill="#B8B8B8" stroke="white" stroke-width="0.3"/>
<path d="M162.278 134.136L158.449 136.285L158.468 140.764L162.297 138.401L162.278 134.136Z" fill="white" stroke="white" stroke-width="0.3"/>
<path d="M165.892 131.772L162.277 134.133L162.296 138.399L158.467 140.762L158.487 145.24L165.931 140.516L165.892 131.772Z" fill="#797979" stroke="white" stroke-width="0.3"/>
<path d="M68.8702 117.377L83.8296 126.225L83.8281 143.711L68.1299 135.29L68.8702 117.377Z" fill="#CECECE" stroke="white" stroke-width="0.3"/>
<path d="M83.8281 143.712L83.8296 126.226L100.083 116.842L99.8972 134.435L83.8281 143.712Z" fill="#B8B8B8" stroke="white" stroke-width="0.3"/>
<path d="M84.5718 108.314L68.8721 117.378L83.8314 126.227L100.085 116.843L84.5718 108.314Z" fill="#B8B8B8" stroke="white" stroke-width="0.3"/>
<path d="M92.2784 126.136L88.4488 128.285L88.4684 132.764L92.297 130.401L92.2784 126.136Z" fill="white" stroke="white" stroke-width="0.3"/>
<path d="M95.8923 123.772L92.2769 126.133L92.2956 130.399L88.4669 132.762L88.4865 137.24L95.9306 132.516L95.8923 123.772Z" fill="#797979" stroke="white" stroke-width="0.3"/>
<path d="M93.8702 127.377L108.83 136.225L108.828 153.711L93.1299 145.29L93.8702 127.377Z" fill="#CECECE" stroke="white" stroke-width="0.3"/>
<path d="M108.828 153.712L108.83 136.226L125.083 126.842L124.897 144.435L108.828 153.712Z" fill="#B8B8B8" stroke="white" stroke-width="0.3"/>
<path d="M109.572 118.314L93.8721 127.378L108.831 136.227L125.085 126.843L109.572 118.314Z" fill="#B8B8B8" stroke="white" stroke-width="0.3"/>
<path d="M117.278 136.136L113.449 138.285L113.468 142.764L117.297 140.401L117.278 136.136Z" fill="white" stroke="white" stroke-width="0.3"/>
<path d="M120.892 133.772L117.277 136.133L117.296 140.399L113.467 142.762L113.487 147.24L120.931 142.516L120.892 133.772Z" fill="#797979" stroke="white" stroke-width="0.3"/>
<path d="M115.87 139.377L130.83 148.225L130.828 165.711L115.13 157.29L115.87 139.377Z" fill="#CECECE" stroke="white" stroke-width="0.3"/>
<path d="M130.828 165.712L130.83 148.226L147.083 138.842L146.897 156.435L130.828 165.712Z" fill="#B8B8B8" stroke="white" stroke-width="0.3"/>
<path d="M131.572 130.314L115.872 139.378L130.831 148.227L147.085 138.843L131.572 130.314Z" fill="#B8B8B8" stroke="white" stroke-width="0.3"/>
<path d="M139.278 148.136L135.449 150.285L135.468 154.764L139.297 152.401L139.278 148.136Z" fill="white" stroke="white" stroke-width="0.3"/>
<path d="M142.892 145.772L139.277 148.133L139.296 152.399L135.467 154.762L135.487 159.24L142.931 154.516L142.892 145.772Z" fill="#797979" stroke="white" stroke-width="0.3"/>
<g filter="url(#filter4_f_561_1061)">
<path d="M110.578 125.967C107.503 124.21 108.47 121.75 112.687 120.08L123.319 126.494L126.306 121.31C127.304 119.709 128.395 119.632 130.436 119.641L149.239 121.31L155.917 125.528C156.725 126.65 156.751 127.19 155.917 128.076L147.306 133.348L143.88 139.235L140.101 136.511L136.938 139.235C134.914 140.869 133.778 140.356 131.754 139.235L126.306 135.281L124.198 136.511L110.578 125.967Z" fill="#797979"/>
</g>
<path d="M98.9453 91.093L83.8027 99.624L68.6602 90.8797L83.8027 81.4956L98.9453 91.093Z" fill="#CECECE" stroke="white" stroke-width="0.3"/>
<path d="M68.6602 90.8779L83.8027 99.6222V118.39L68.6602 109.433V90.8779Z" fill="#B8B8B8" stroke="white" stroke-width="0.3"/>
<path d="M98.9434 109.221V91.0923L83.8008 99.6233V118.392L98.9434 109.221Z" fill="#CECECE" stroke="white" stroke-width="0.3"/>
<path d="M79.6576 106.983L79.7108 102.592L75.8223 100.37L75.9542 104.867L79.6576 106.983Z" fill="white" stroke="white" stroke-width="0.3"/>
<path d="M79.8956 111.296L79.6579 106.984L75.9545 104.868L75.8226 100.371L71.9341 98.1482L72.3038 106.957L79.8956 111.296Z" fill="#797979" stroke="white" stroke-width="0.3"/>
<path d="M153.482 113.571L136.537 117.439L124.51 104.746L141.698 100.06L153.482 113.571Z" fill="#CECECE" stroke="white" stroke-width="0.3"/>
<path d="M124.51 104.744L136.537 117.437L131.194 135.429L119.228 122.532L124.51 104.744Z" fill="#B9B9B9" stroke="white" stroke-width="0.3"/>
<path d="M148.321 130.949L153.481 113.571L136.536 117.438L131.194 135.43L148.321 130.949Z" fill="#CECECE" stroke="white" stroke-width="0.3"/>
<path d="M130.467 123.315L131.768 119.12L128.673 115.883L127.52 120.231L130.467 123.315Z" fill="#9F9F9F" stroke="white" stroke-width="0.3"/>
<path d="M129.47 127.516L130.469 123.315L127.522 120.232L128.675 115.883L125.58 112.646L123.427 121.196L129.47 127.516Z" fill="#797979" stroke="white" stroke-width="0.3"/>
<path d="M172.621 60.0655L159.474 71.4336L142.897 65.8703L155.874 53.6661L172.621 60.0655Z" fill="#CECECE" stroke="white" stroke-width="0.3"/>
<path d="M142.896 65.8694L159.474 71.4326L163.201 89.8271L146.581 84.0549L142.896 65.8694Z" fill="#B9B9B9" stroke="white" stroke-width="0.3"/>
<path d="M176.222 77.8327L172.622 60.0653L159.475 71.4334L163.202 89.8279L176.222 77.8327Z" fill="#CECECE" stroke="white" stroke-width="0.3"/>
<path d="M156.873 79.4706L156.053 75.1562L151.801 73.7502L152.823 78.1316L156.873 79.4706Z" fill="#9F9F9F" stroke="white" stroke-width="0.3"/>
<path d="M157.965 83.6496L156.876 79.4707L152.826 78.1317L151.804 73.7503L147.551 72.3443L149.663 80.9046L157.965 83.6496Z" fill="#797979" stroke="white" stroke-width="0.3"/>
<path d="M143.981 9.87728L131.691 22.1669L114.755 17.8178L126.815 4.70656L143.981 9.87728Z" fill="#CECECE" stroke="white" stroke-width="0.3"/>
<path d="M114.754 17.8169L131.69 22.166L136.739 40.2425L119.745 35.6881L114.754 17.8169Z" fill="#B9B9B9" stroke="white" stroke-width="0.3"/>
<path d="M148.857 27.3373L143.981 9.87697L131.691 22.1666L136.739 40.2432L148.857 27.3373Z" fill="#CECECE" stroke="white" stroke-width="0.3"/>
<path d="M129.679 30.371L128.549 26.1272L124.206 25.0326L125.543 29.3285L129.679 30.371Z" fill="#9F9F9F" stroke="white" stroke-width="0.3"/>
<path d="M131.07 34.46L129.681 30.3709L125.545 29.3284L124.209 25.0325L119.866 23.9379L122.591 32.3229L131.07 34.46Z" fill="#797979" stroke="white" stroke-width="0.3"/>
<path d="M124.482 60.5706L107.537 64.4384L95.5104 51.7454L112.698 47.0599L124.482 60.5706Z" fill="#CECECE" stroke="white" stroke-width="0.3"/>
<path d="M95.5098 51.7441L107.537 64.4371L102.194 82.4289L90.2281 69.5315L95.5098 51.7441Z" fill="#B9B9B9" stroke="white" stroke-width="0.3"/>
<path d="M119.321 77.9489L124.481 60.5704L107.536 64.4381L102.194 82.43L119.321 77.9489Z" fill="#CECECE" stroke="white" stroke-width="0.3"/>
<path d="M101.467 70.3143L102.768 66.1198L99.6733 62.8825L98.5197 67.2311L101.467 70.3143Z" fill="#9F9F9F" stroke="white" stroke-width="0.3"/>
<path d="M100.47 74.5161L101.469 70.3148L98.5215 67.2316L99.6752 62.883L96.5801 59.6457L94.427 68.1956L100.47 74.5161Z" fill="#797979" stroke="white" stroke-width="0.3"/>
<defs>
<filter id="filter0_d_561_1061" x="209.523" y="144.331" width="49.3203" height="68.8242" filterUnits="userSpaceOnUse" color-interpolation-filters="sRGB">
<feFlood flood-opacity="0" result="BackgroundImageFix"/>
<feColorMatrix in="SourceAlpha" type="matrix" values="0 0 0 0 0 0 0 0 0 0 0 0 0 0 0 0 0 0 127 0" result="hardAlpha"/>
<feOffset/>
<feGaussianBlur stdDeviation="10"/>
<feComposite in2="hardAlpha" operator="out"/>
<feColorMatrix type="matrix" values="0 0 0 0 1 0 0 0 0 1 0 0 0 0 1 0 0 0 1 0"/>
<feBlend mode="normal" in2="BackgroundImageFix" result="effect1_dropShadow_561_1061"/>
<feBlend mode="normal" in="SourceGraphic" in2="effect1_dropShadow_561_1061" result="shape"/>
</filter>
<filter id="filter1_d_561_1061" x="0.658203" y="151.425" width="66.1641" height="71.9282" filterUnits="userSpaceOnUse" color-interpolation-filters="sRGB">
<feFlood flood-opacity="0" result="BackgroundImageFix"/>
<feColorMatrix in="SourceAlpha" type="matrix" values="0 0 0 0 0 0 0 0 0 0 0 0 0 0 0 0 0 0 127 0" result="hardAlpha"/>
<feOffset/>
<feGaussianBlur stdDeviation="10"/>
<feComposite in2="hardAlpha" operator="out"/>
<feColorMatrix type="matrix" values="0 0 0 0 1 0 0 0 0 1 0 0 0 0 1 0 0 0 1 0"/>
<feBlend mode="normal" in2="BackgroundImageFix" result="effect1_dropShadow_561_1061"/>
<feBlend mode="normal" in="SourceGraphic" in2="effect1_dropShadow_561_1061" result="shape"/>
</filter>
<filter id="filter2_d_561_1061" x="37.9082" y="177.589" width="47.0957" height="56.8511" filterUnits="userSpaceOnUse" color-interpolation-filters="sRGB">
<feFlood flood-opacity="0" result="BackgroundImageFix"/>
<feColorMatrix in="SourceAlpha" type="matrix" values="0 0 0 0 0 0 0 0 0 0 0 0 0 0 0 0 0 0 127 0" result="hardAlpha"/>
<feOffset/>
<feGaussianBlur stdDeviation="10"/>
<feComposite in2="hardAlpha" operator="out"/>
<feColorMatrix type="matrix" values="0 0 0 0 1 0 0 0 0 1 0 0 0 0 1 0 0 0 1 0"/>
<feBlend mode="normal" in2="BackgroundImageFix" result="effect1_dropShadow_561_1061"/>
<feBlend mode="normal" in="SourceGraphic" in2="effect1_dropShadow_561_1061" result="shape"/>
</filter>
<filter id="filter3_f_561_1061" x="41.6953" y="121.161" width="163" height="92.1934" filterUnits="userSpaceOnUse" color-interpolation-filters="sRGB">
<feFlood flood-opacity="0" result="BackgroundImageFix"/>
<feBlend mode="normal" in="SourceGraphic" in2="BackgroundImageFix" result="shape"/>
<feGaussianBlur stdDeviation="5" result="effect1_foregroundBlur_561_1061"/>
</filter>
<filter id="filter4_f_561_1061" x="98.7773" y="109.64" width="67.7559" height="40.6365" filterUnits="userSpaceOnUse" color-interpolation-filters="sRGB">
<feFlood flood-opacity="0" result="BackgroundImageFix"/>
<feBlend mode="normal" in="SourceGraphic" in2="BackgroundImageFix" result="shape"/>
<feGaussianBlur stdDeviation="5" result="effect1_foregroundBlur_561_1061"/>
</filter>
</defs>
</svg>
