<svg width="491" height="194" viewBox="0 0 491 194" fill="none" xmlns="http://www.w3.org/2000/svg">
<path d="M-8317.16 1.21987C-8031.17 -2.35643 -7356.14 8.45194 -6943.99 80.2958C-6531.83 152.14 -6003.17 110.231 -5790.36 80.2958C-5459.92 48.5065 -4709.33 10.7567 -4350.51 114.072C-3901.99 243.216 -3244.69 249.176 -2777.32 198.314C-2309.94 147.451 -1773.88 114.072 -1470.81 114.072C-1070.78 114.072 -303.712 96.4977 168.379 198.314C558.984 282.555 1279.58 232.09 1670.86 198.314C2135.8 158.179 2650.6 47.7117 3153.81 232.09" stroke="#505050" stroke-width="0.5"/>
<path d="M-8334 433.553C-8134.88 385.869 -7644.52 288.594 -7276 280.964C-6815.36 271.427 -6185 433.553 -5934.48 433.553C-5683.95 433.553 -5296.04 376.332 -4932.37 280.964C-4568.71 185.596 -3582.77 185.597 -3033.23 309.575C-2483.69 433.553 -1827.12 423.876 -1530.75 347.722C-1029.7 218.975 257.016 32.9307 627.003 200.3C1111.89 419.646 1786.02 433.553 2177.3 280.964C2831.15 25.9764 3566.64 219.374 3757.23 309.575" stroke="#505050" stroke-width="0.5"/>
<path d="M-8317.65 5.63758C-8034.16 0.787989 -7364.47 8.4762 -6953.57 78.0258C-6540.02 147.52 -6008.42 111.501 -5794.52 82.4307C-5466.38 51.5591 -4726.26 13.2472 -4367.3 110.827C-3921.23 233.49 -3254.45 239.278 -2784.7 193.463C-2314.95 147.647 -1775.42 114.952 -1472.54 112.754C-1069.59 109.037 -287.522 86.5998 181.621 190.308C574.948 278.45 1294.2 229.843 1685.48 192.637C2155.87 146.3 2677.05 44.6044 3171.23 226.264" stroke="#505050" stroke-width="0.5"/>
<path d="M-8318.17 10.6004C-8037.35 4.39481 -7373.33 8.7602 -6963.78 75.8665C-6548.73 142.859 -6014.01 113.113 -5798.95 84.9625C-5473.27 55.0682 -4744.3 16.1577 -4385.19 107.629C-3941.73 223.39 -3264.85 228.995 -2792.57 188.555C-2320.29 148.114 -1777.06 116.148 -1474.38 111.609C-1068.33 103.934 -270.285 76.3171 195.72 182.041C591.945 274.336 1309.77 227.708 1701.05 186.849C2177.25 133.907 2705.21 41.5534 3189.78 220.317" stroke="#505050" stroke-width="0.5"/>
<path d="M-8318.72 16.1864C-8040.74 8.54211 -7382.74 9.38201 -6974.61 73.8961C-6557.98 138.234 -6019.94 115.143 -5803.65 87.9692C-5480.58 59.1118 -4763.44 19.5662 -4404.17 104.557C-3963.48 212.995 -3275.87 218.405 -2800.92 183.668C-2325.96 148.93 -1778.79 117.738 -1476.34 110.714C-1066.99 98.8399 -251.996 65.7278 210.678 173.59C609.978 270.292 1326.29 225.763 1717.57 181.029C2199.93 121.079 2735.09 38.6368 3209.46 214.329" stroke="#505050" stroke-width="0.5"/>
<path d="M-8319.3 22.479C-8044.31 13.3133 -7392.69 10.425 -6986.06 72.1978C-6567.76 133.729 -6026.21 117.676 -5808.62 91.5342C-5488.31 63.7733 -4783.68 23.5561 -4424.24 101.694C-3986.48 202.387 -3287.54 207.592 -2809.75 178.886C-2331.96 150.179 -1780.63 119.804 -1478.41 110.153C-1065.57 93.8384 -232.654 54.9152 226.498 165.038C629.05 266.401 1343.76 224.092 1735.04 175.26C2223.92 107.899 2766.69 35.938 3230.28 208.382" stroke="#505050" stroke-width="0.5"/>
<path d="M-8319.91 29.5595C-8048.08 18.7896 -7403.17 11.9705 -6998.14 70.853C-6578.07 129.424 -6032.83 120.792 -5813.86 95.7388C-5496.45 69.1341 -4805.01 28.2087 -4445.41 99.1206C-4010.72 191.649 -3299.83 196.637 -2819.05 174.289C-2338.28 151.941 -1782.57 122.428 -1480.59 110.008C-1064.08 89.0107 -212.262 43.9605 243.177 156.468C649.158 262.744 1362.18 222.777 1753.45 169.623C2249.2 94.4479 2800 33.5383 3252.22 202.557" stroke="#505050" stroke-width="0.5"/>
<path d="M-8320.55 37.5029C-8052.05 25.0462 -7414.2 14.0936 -7010.83 69.9367C-6588.92 125.396 -6039.78 124.566 -5819.37 100.658C-5505.02 75.269 -4827.45 33.599 -4467.66 96.9125C-4036.22 180.855 -3312.76 185.615 -2828.84 169.954C-2344.92 154.292 -1784.6 125.686 -1482.88 110.353C-1062.51 84.4321 -190.819 32.939 260.715 147.953C670.302 259.396 1381.54 221.891 1772.82 164.193C2275.8 80.8014 2835.03 31.5127 3275.3 196.93" stroke="#505050" stroke-width="0.5"/>
<path d="M-8321.23 46.3802C-8056.21 32.154 -7425.77 16.8652 -7024.15 69.52C-6600.29 121.714 -6047.07 129.07 -5825.15 106.363C-5514.01 82.2493 -4850.99 39.7981 -4491 95.1408C-4062.97 170.076 -3326.32 174.597 -2839.11 165.95C-2351.89 157.303 -1786.74 129.647 -1485.28 111.26C-1060.86 80.1734 -168.321 21.9215 279.117 139.565C692.486 256.428 1401.86 221.506 1793.14 159.042C2303.7 67.0304 2871.78 29.9323 3299.51 191.571" stroke="#505050" stroke-width="0.5"/>
<path d="M-8321.94 56.2491C-8060.57 40.1706 -7437.88 20.343 -7038.1 69.6604C-6612.2 118.437 -6054.71 134.361 -5831.21 112.911C-5523.42 90.1324 -4875.63 46.8635 -4515.44 93.8628C-4090.97 159.37 -3340.52 163.641 -2849.85 162.336C-2359.19 161.031 -1788.97 134.371 -1487.8 112.785C-1059.13 76.2923 -144.775 10.9657 298.375 131.362C715.703 253.899 1423.13 221.68 1814.41 154.226C2332.89 53.1923 2910.25 28.8546 3324.85 186.538" stroke="#505050" stroke-width="0.5"/>
<path d="M-8322.67 67.1623C-8065.12 49.1489 -7450.53 24.5798 -7052.66 70.4108C-6624.63 115.618 -6062.69 140.492 -5837.53 120.355C-5533.24 98.9713 -4901.37 54.8482 -4540.96 93.1315C-4120.21 148.789 -3355.35 152.799 -2861.08 159.164C-2366.81 165.53 -1791.31 139.909 -1490.43 114.982C-1057.33 72.8416 -120.176 0.124402 318.495 123.397C739.96 251.86 1445.35 222.465 1836.63 149.8C2363.4 39.3401 2950.44 28.3325 3351.32 181.885" stroke="#505050" stroke-width="0.5"/>
<path d="M-8323.44 81.3784C-8069.86 61.3474 -7463.72 31.8341 -7067.85 74.0297C-6637.6 115.514 -6071 149.722 -5844.12 130.954C-5543.49 111.024 -4928.2 66.0106 -4567.58 95.2053C-4150.71 140.593 -3370.81 144.33 -2872.79 158.693C-2374.76 173.056 -1793.74 148.52 -1493.17 120.11C-1055.45 72.0798 -94.5255 -8.34393 339.475 117.927C765.253 252.571 1468.52 226.12 1859.79 148.02C2395.21 27.7321 2992.34 30.6245 3378.92 179.869" stroke="#505050" stroke-width="0.5"/>
<path d="M-8324.25 107.57C-8074.8 85.4384 -7477.45 50.7783 -7083.66 89.1894C-6651.1 126.798 -6079.66 170.722 -5850.98 153.38C-5554.16 134.964 -4956.14 89.023 -4595.29 108.757C-4182.46 143.453 -3386.91 146.907 -2884.97 169.596C-2383.03 192.284 -1796.28 168.877 -1496.03 136.84C-1053.5 82.6793 -67.8244 -5.76677 361.314 123.626C791.582 264.703 1492.63 241.318 1883.91 157.56C2428.32 27.0409 3035.96 44.403 3407.66 189.163" stroke="#505050" stroke-width="0.5"/>
<path d="M-8325.08 134.952C-8079.93 110.637 -7491.73 70.6274 -7100.09 105.105C-6665.14 138.686 -6088.66 192.708 -5858.12 176.848C-5565.25 160.005 -4985.18 113.101 -4624.09 123.001C-4215.46 146.585 -3403.65 149.744 -2897.64 181.086C-2391.63 212.429 -1798.92 190.194 -1498.99 154.388C-1051.46 93.8551 -40.0728 -2.92927 384.012 129.708C818.946 277.472 1517.7 257.273 1908.97 167.634C2462.74 26.4814 3081.3 58.8829 3437.52 198.982" stroke="#505050" stroke-width="0.5"/>
<path d="M-8325.95 163.511C-8085.26 136.931 -7506.54 91.369 -7117.15 121.764C-6679.7 151.165 -6098 215.668 -5865.52 201.346C-5576.76 186.136 -5015.32 138.231 -4653.98 137.925C-4249.71 149.976 -3421.02 152.828 -2910.79 193.152C-2400.56 233.476 -1801.65 212.459 -1502.07 172.742C-1049.36 105.595 -11.2698 0.156288 407.57 136.161C847.347 290.865 1543.71 273.973 1934.99 178.231C2498.45 26.0412 3128.35 74.052 3468.51 209.313" stroke="#505050" stroke-width="0.5"/>
<path d="M-8326.84 193.242C-8090.78 164.313 -7521.9 112.996 -7134.82 139.16C-6694.8 164.227 -6107.69 239.595 -5873.2 226.866C-5588.69 213.349 -5046.56 164.407 -4684.96 153.522C-4285.21 153.62 -3439.02 156.155 -2924.41 205.788C-2409.81 255.421 -1804.49 235.666 -1505.26 191.894C-1047.17 117.892 18.5867 3.48309 431.99 142.978C876.788 304.876 1570.68 291.411 1961.95 189.343C2535.48 25.7135 3177.13 89.9034 3500.65 220.15" stroke="#505050" stroke-width="0.5"/>
<path d="M-8327.77 224.135C-8096.5 192.775 -7537.79 135.501 -7153.13 157.284C-6710.43 177.866 -6117.71 264.48 -5881.14 253.401C-5601.04 241.636 -5078.9 191.621 -4717.03 169.785C-4321.96 157.508 -3457.65 159.714 -2938.52 218.984C-2419.39 278.254 -1807.42 259.806 -1508.57 211.836C-1044.9 130.738 49.4936 7.0429 457.269 150.151C907.263 319.496 1598.59 309.579 1989.87 200.962C2573.81 25.4902 3227.62 106.429 3533.9 231.484" stroke="#505050" stroke-width="0.5"/>
<path d="M-8328.73 256.184C-8102.41 222.31 -7554.23 158.876 -7172.05 176.13C-6726.59 192.073 -6128.07 290.315 -5889.35 280.943C-5613.81 270.99 -5112.34 219.865 -4750.19 186.705C-4359.96 161.632 -3476.92 163.498 -2953.1 232.734C-2429.29 301.969 -1810.45 284.871 -1511.98 232.561C-1042.56 144.125 81.4535 10.8281 483.41 157.673C938.778 334.718 1627.46 328.469 2018.73 213.081C2613.44 25.3636 3279.83 123.621 3568.3 243.309" stroke="#505050" stroke-width="0.5"/>
<path d="M-8329.72 289.38C-8108.51 252.91 -7571.2 183.113 -7191.59 195.688C-6743.28 206.84 -6138.77 317.094 -5897.84 309.484C-5626.99 301.402 -5146.88 249.131 -4784.45 204.274C-4399.21 165.984 -3496.82 167.5 -2968.17 247.028C-2439.52 326.556 -1813.59 310.854 -1515.51 254.061C-1040.14 158.045 114.462 14.8307 510.408 165.534C971.326 350.533 1657.27 348.074 2048.55 225.691C2654.37 25.3256 3333.75 141.471 3603.82 255.615" stroke="#505050" stroke-width="0.5"/>
<path d="M-8330.74 323.721C-8114.81 284.571 -7588.72 208.209 -7211.76 215.956C-6760.5 222.165 -6149.82 344.813 -5906.59 339.021C-5640.6 332.87 -5182.52 279.417 -4819.79 222.491C-4439.71 170.563 -3517.36 171.717 -2983.71 261.866C-2450.07 352.015 -1816.82 337.752 -1519.15 276.333C-1037.65 172.496 148.523 19.0483 538.266 173.734C1004.91 366.939 1688.03 368.391 2079.31 238.791C2696.61 25.374 3389.4 159.978 3640.47 268.401" stroke="#505050" stroke-width="0.5"/>
<path d="M-8331.8 359.2C-8121.31 317.288 -7606.78 234.157 -7232.55 236.928C-6778.25 238.041 -6161.21 373.466 -5915.62 369.548C-5654.63 365.388 -5219.26 310.715 -4856.23 241.348C-4481.46 175.361 -3538.53 176.142 -2999.74 277.239C-2460.95 378.336 -1820.16 365.558 -1522.91 299.37C-1035.08 187.472 183.635 23.4739 566.985 182.264C1039.53 383.93 1719.74 389.413 2111.02 252.373C2740.16 25.5016 3446.76 179.133 3678.26 281.659" stroke="#505050" stroke-width="0.5"/>
<path d="M-8332.88 395.812C-8128 351.055 -7625.38 260.954 -7253.97 258.599C-6796.54 254.463 -6172.93 403.047 -5924.91 401.06C-5669.08 398.95 -5257.1 343.022 -4893.76 260.841C-4524.46 180.374 -3560.33 180.77 -3016.24 293.144C-2472.16 405.517 -1823.59 394.268 -1526.77 323.168C-1032.42 202.966 219.8 28.1028 596.564 191.121C1075.19 401.501 1752.41 411.135 2143.69 266.432C2785 25.7039 3505.84 198.933 3717.18 295.385" stroke="#505050" stroke-width="0.5"/>
</svg>
