<svg width="264" height="239" fill="none" xmlns="http://www.w3.org/2000/svg"><path d="M144.712 221.501c-9.524 4.989-17.233 5.442-26.756 0l-94.78-56.686c-3.628-3.628-4.074-8.613 0-10.884l94.78-56.233c9.069-5.442 17.232-4.989 26.756 0l89.791 52.151c10.884 5.896 7.71 12.245-1.814 18.593l-87.977 53.059Z" fill="#CECECE" stroke="#fff" stroke-width=".5"/><g opacity=".5" filter="url(#a)"><path d="M104.45 95.397c6.754-4.206 14.247-4.883 22.664-3.904 12.941 1.505 24.754 7.841 35.297 15.494l4.683 3.399c24.976 18.13 41.185 52.362 14.333 67.577-30.535 17.302-78.724 18.22-85.866 13.161l-33.336-19.899a20.974 20.974 0 0 1-8.84-25.499l1.008-2.637a36.251 36.251 0 0 1 10.677-14.923l39.38-32.77Z" fill="#7A7A7A"/></g><g filter="url(#b)"><path d="M237.224 151.662c6.157 5.947 4.672 9.56-3.628 16.326v13.151l7.256-4.081c2.008-1.803 2.338-3.041 2.267-5.442v-9.977c-.064-5.94-1.714-7.797-5.895-9.977Z" fill="#fff"/></g><g filter="url(#c)"><path d="M46.756 178.419v13.152l-24.035-14.512c-2.268-1.814-2.721-3.628-2.721-6.803v-11.337c.907 2.268 2.267 4.989 3.628 5.442l23.128 14.058Z" fill="#fff"/></g><g filter="url(#d)"><path d="M58.094 198.372v-12.698l7.256 4.535v12.698l-7.256-4.535Z" fill="#fff"/></g><path d="m46.756 191.57 70.745 42.628m0 0v-12.862m0 12.862c8.244 5.012 19.046 4.989 27.209 0m0 0 2.074-1.238m-2.074 1.238v-1.814m0-10.884v3.175m77.548-36.768 11.337-19.919v3.628m-11.337 16.291 3.174-1.895m-3.174 1.895-3.097 1.849m6.271-3.744 8.163-14.396m-8.163 14.396 3.175-1.895m4.988-12.501v3.175m0 0-4.988 9.326m4.988-9.326v3.174m-4.988 6.152 2.494-1.489m0 0 2.494-1.488v-3.175m-2.494 4.663 2.494-4.663m-14.434 11.791 10.806-19.5m-10.806 19.5-2.799 1.67m0 0 9.977-18.903m-9.977 18.903-3.628 2.166m0 0 9.07-18.348m-9.07 18.348-3.628 2.166m0 0 8.617-18.246m-8.617 18.246-3.174 1.895m0 0 7.709-17.874m-7.709 17.874-3.885 2.319m0 0 7.513-17.472m-7.513 17.472-4.158 2.482m0 0 7.589-17.686m-7.589 17.686-3.294 1.966m0 0 6.802-16.932m-6.802 16.932-3.175 1.895m0 0 6.469-17.013m-6.469 17.013-3.174 1.895m0 0 5.442-16.187m-5.442 16.187-3.272 1.953m0 0 5.086-15.872m-5.086 15.872L181.897 212m0 0 4.535-15.442M181.897 212l-2.721 1.624m0 0 3.628-14.798m-3.628 14.798-3.175 1.895m0 0 3.175-14.879m-3.175 14.879-3.942 2.354m0 0 3.942-15.419m-3.942 15.419-3.767 2.248m0 0 3.767-15.164m-3.767 15.164-3.83 2.286m0 0 3.83-14.965m-3.83 14.965-3.798 2.268m0 0c-.065-.363 2.64-10.128 4-14.965m-4 14.965-4.163 2.485m0 0 3.628-14.729m-3.628 14.729-3.434 2.05m0 0 3.888-14.965m-3.888 14.965-3.368 2.01m0 0 3.628-14.708m-3.628 14.708-2.915 1.74m0 0 3.368-14.634m-5.442 14.058 2.721-12.263m-2.721 12.263v-7.709m0 0 .907-3.628" stroke="#fff" stroke-width=".5"/><g filter="url(#e)"><ellipse cx="123.334" cy="171.021" rx="34.744" ry="21.207" transform="rotate(11.846 123.334 171.021)" fill="#7A7A7A"/></g><g filter="url(#f)"><ellipse cx="150.406" cy="140.339" rx="34.744" ry="21.207" transform="rotate(11.846 150.406 140.339)" fill="#7A7A7A"/></g><path d="M151.756 149.902c7.199 6.572 36.084 9.281 45.122-3.159m1.354 6.768c-12.183 11.732-26.171 12.183-40.159 8.122M161.684 148.548v4.061m4.512-3.159v3.159m4.512-2.256v2.256m4.061-2.256v2.707m4.512-3.158v3.158m4.512-3.61v2.708m4.061-4.061v2.707m4.964-4.061v1.805M161.232 156.671v4.512m4.513-3.61v4.061m4.512-3.609v3.609m4.512-2.707v2.707m4.512-2.707v2.256m4.061-3.158v2.256m4.061-2.708v1.354m4.512-3.158v.902" stroke="#fff" stroke-width=".5"/><g filter="url(#g)"><path d="M154.463 154.413v-11.28l2.707 1.353v14.439l-2.707-4.512Z" fill="#fff"/></g><path d="M131.66 106.585c-.05 9.089-10.857 18.5-29.99 18.5-18.404 0-27.874-8.5-28.246-17.146m58.236-1.354c.047-8.487-9.29-16.695-29.99-16.695-19.276 0-28.632 9.102-28.246 18.049m58.236-1.354v20.757m-58.236-19.403v22.11m31.856 23.915c-26.622-1.805-31.856-10.83-31.856-18.049 0 9.517 1.146 16.43 7.942 20.63m19.853 4.638a93.462 93.462 0 0 1-1.804-.114m-13.537-14.776c-10.045-7.119-8.573-17.598 1.805-21.208m-10.83 2.708c12.184-11.281 38.354-13.086 50.988 0m-8.122-1.354c8.122 5.415 8.922 12.127 2.257 18.049m9.684-8.573v3.61m0 6.768v-6.768m-4.721 6.768c2.299-2.437 3.358-3.908 4.721-6.768m-50.294 14.439v2.581m0 0c1.29.797 2.784 1.497 4.512 2.098m0-3.777v3.777m0 0c1.355.471 2.854.882 4.512 1.232m0-3.33v3.33m0 0c1.39.293 2.89.543 4.512.751m0-4.081v4.081m0 0c1.411.18 2.913.328 4.513.443m0-3.496v3.496m11.462-91.935c-1.055-9.179 9.23-18.951 30.05-18.951 18.432 0 27.913 8.837 27.921 17.598m-57.971 1.353c.936 8.13 10.765 15.793 30.05 15.793 18.787 0 27.929-8.536 27.921-17.146m-57.971 1.353v15.793m57.971-17.146V112m-38.75-76.256c-19.907 0-30.195-9.143-29.952-18.049m50.256 13.085c4.983-3.321 7.692-7.754 7.975-12.182m0 0C158.941 9.79 149.914 1 130.098 1c-19.998 0-29.721 8.24-29.952 16.695m58.231.903c0 9.024.599 10.829-3.462 16.244-11.732 11.28-37.452 13.536-51.891 0-2.878-4.061-2.878-7.22-2.878-17.147M119.27 181.938v4.512m4.061-3.159v4.512m4.512-3.609v3.158m4.512-3.158v3.158m4.512-3.61v3.159m4.061-3.159v2.708m4.512-3.61v1.805m4.061-3.61v.903M155.366 178.779c-8.818 11.758-31.705 13.746-46.475 5.964" stroke="#fff" stroke-width=".5"/><g filter="url(#h)" fill="#fff"><path d="M112.049 186v-7.67c.902.451 1.594.781 2.707.902v8.122c-1.214-.367-1.818-.658-2.707-1.354ZM154.464 181.037v-8.122c2.859-3.396 3.705-5.551 4.06-9.476v10.83c0 2.707-1.58 4.301-4.06 6.768Z"/></g><g filter="url(#i)"><path d="M196.879 154.866v-16.695c2.859-3.396 3.706-5.552 4.061-9.476v10.829c0 2.708 2.256 12.635-4.061 15.342Z" fill="#fff"/></g><path d="M172.965 112.001c-41.965 0-38.806 34.293 0 34.293 36.998-.903 36.998-34.293 0-34.293Z" fill="#CECECE" stroke="#fff" stroke-width=".5"/><path d="M181.086 116.513c-27.975-5.866-41.152 12.908-26.622 23.012m11.732 3.61c17.494 1.908 40.61-8.574 22.561-23.464" stroke="#4E4E4E" stroke-width=".5"/><g filter="url(#j)"><path d="M142.281 147.647v-18.5c.99 6.932 3.839 9.344 9.476 13.085v9.927c-3.655-2.534-5.738-3.431-9.476-4.512Z" fill="#fff"/></g><path d="M129.647 146.291c-38.703.071-37.817 34.81 0 34.744 37.817-.066 37.451-34.813 0-34.744Z" fill="#CECECE" stroke="#fff" stroke-width=".5"/><path d="M138.67 150.807c-27.525-6.77-41.964 13.083-26.622 23.012M146.342 153.963c14.439 10.378 1.694 25.271-22.561 23.463" stroke="#4E4E4E" stroke-width=".5"/><g filter="url(#k)"><path d="M100.768 176.075c-.45-4.061-.901-7.671-.45-13.537 0 6.317 2.603 8.89 8.572 13.988v8.573c-4.821-2.956-6.194-4.606-8.122-9.024Z" fill="#fff"/></g><defs><filter id="f" x="106.121" y="108.386" width="88.57" height="63.906" filterUnits="userSpaceOnUse" color-interpolation-filters="sRGB"><feFlood flood-opacity="0" result="BackgroundImageFix"/><feBlend in="SourceGraphic" in2="BackgroundImageFix" result="shape"/><feGaussianBlur stdDeviation="5" result="effect1_foregroundBlur_374_3536"/></filter><filter id="a" x="36.002" y="75.098" width="175.285" height="134.708" filterUnits="userSpaceOnUse" color-interpolation-filters="sRGB"><feFlood flood-opacity="0" result="BackgroundImageFix"/><feBlend in="SourceGraphic" in2="BackgroundImageFix" result="shape"/><feGaussianBlur stdDeviation="8" result="effect1_foregroundBlur_374_3536"/></filter><filter id="c" x="0" y="138.919" width="66.756" height="72.651" filterUnits="userSpaceOnUse" color-interpolation-filters="sRGB"><feFlood flood-opacity="0" result="BackgroundImageFix"/><feColorMatrix in="SourceAlpha" values="0 0 0 0 0 0 0 0 0 0 0 0 0 0 0 0 0 0 127 0" result="hardAlpha"/><feOffset/><feGaussianBlur stdDeviation="10"/><feComposite in2="hardAlpha" operator="out"/><feColorMatrix values="0 0 0 0 1 0 0 0 0 1 0 0 0 0 1 0 0 0 1 0"/><feBlend in2="BackgroundImageFix" result="effect1_dropShadow_374_3536"/><feBlend in="SourceGraphic" in2="effect1_dropShadow_374_3536" result="shape"/></filter><filter id="d" x="38.094" y="165.674" width="47.256" height="57.233" filterUnits="userSpaceOnUse" color-interpolation-filters="sRGB"><feFlood flood-opacity="0" result="BackgroundImageFix"/><feColorMatrix in="SourceAlpha" values="0 0 0 0 0 0 0 0 0 0 0 0 0 0 0 0 0 0 127 0" result="hardAlpha"/><feOffset/><feGaussianBlur stdDeviation="10"/><feComposite in2="hardAlpha" operator="out"/><feColorMatrix values="0 0 0 0 1 0 0 0 0 1 0 0 0 0 1 0 0 0 1 0"/><feBlend in2="BackgroundImageFix" result="effect1_dropShadow_374_3536"/><feBlend in="SourceGraphic" in2="effect1_dropShadow_374_3536" result="shape"/></filter><filter id="e" x="79.049" y="139.068" width="88.57" height="63.906" filterUnits="userSpaceOnUse" color-interpolation-filters="sRGB"><feFlood flood-opacity="0" result="BackgroundImageFix"/><feBlend in="SourceGraphic" in2="BackgroundImageFix" result="shape"/><feGaussianBlur stdDeviation="5" result="effect1_foregroundBlur_374_3536"/></filter><filter id="b" x="213.596" y="131.662" width="49.531" height="69.477" filterUnits="userSpaceOnUse" color-interpolation-filters="sRGB"><feFlood flood-opacity="0" result="BackgroundImageFix"/><feColorMatrix in="SourceAlpha" values="0 0 0 0 0 0 0 0 0 0 0 0 0 0 0 0 0 0 127 0" result="hardAlpha"/><feOffset/><feGaussianBlur stdDeviation="10"/><feComposite in2="hardAlpha" operator="out"/><feColorMatrix values="0 0 0 0 1 0 0 0 0 1 0 0 0 0 1 0 0 0 1 0"/><feBlend in2="BackgroundImageFix" result="effect1_dropShadow_374_3536"/><feBlend in="SourceGraphic" in2="effect1_dropShadow_374_3536" result="shape"/></filter><filter id="g" x="134.463" y="123.133" width="42.707" height="55.793" filterUnits="userSpaceOnUse" color-interpolation-filters="sRGB"><feFlood flood-opacity="0" result="BackgroundImageFix"/><feColorMatrix in="SourceAlpha" values="0 0 0 0 0 0 0 0 0 0 0 0 0 0 0 0 0 0 127 0" result="hardAlpha"/><feOffset/><feGaussianBlur stdDeviation="10"/><feComposite in2="hardAlpha" operator="out"/><feColorMatrix values="0 0 0 0 1 0 0 0 0 1 0 0 0 0 1 0 0 0 1 0"/><feBlend in2="BackgroundImageFix" result="effect1_dropShadow_374_3536"/><feBlend in="SourceGraphic" in2="effect1_dropShadow_374_3536" result="shape"/></filter><filter id="h" x="92.049" y="143.439" width="86.477" height="63.915" filterUnits="userSpaceOnUse" color-interpolation-filters="sRGB"><feFlood flood-opacity="0" result="BackgroundImageFix"/><feColorMatrix in="SourceAlpha" values="0 0 0 0 0 0 0 0 0 0 0 0 0 0 0 0 0 0 127 0" result="hardAlpha"/><feOffset/><feGaussianBlur stdDeviation="10"/><feComposite in2="hardAlpha" operator="out"/><feColorMatrix values="0 0 0 0 1 0 0 0 0 1 0 0 0 0 1 0 0 0 1 0"/><feBlend in2="BackgroundImageFix" result="effect1_dropShadow_374_3536"/><feBlend in="SourceGraphic" in2="effect1_dropShadow_374_3536" result="shape"/></filter><filter id="i" x="176.879" y="108.695" width="44.453" height="66.171" filterUnits="userSpaceOnUse" color-interpolation-filters="sRGB"><feFlood flood-opacity="0" result="BackgroundImageFix"/><feColorMatrix in="SourceAlpha" values="0 0 0 0 0 0 0 0 0 0 0 0 0 0 0 0 0 0 127 0" result="hardAlpha"/><feOffset/><feGaussianBlur stdDeviation="10"/><feComposite in2="hardAlpha" operator="out"/><feColorMatrix values="0 0 0 0 1 0 0 0 0 1 0 0 0 0 1 0 0 0 1 0"/><feBlend in2="BackgroundImageFix" result="effect1_dropShadow_374_3536"/><feBlend in="SourceGraphic" in2="effect1_dropShadow_374_3536" result="shape"/></filter><filter id="j" x="122.281" y="109.147" width="49.477" height="63.012" filterUnits="userSpaceOnUse" color-interpolation-filters="sRGB"><feFlood flood-opacity="0" result="BackgroundImageFix"/><feColorMatrix in="SourceAlpha" values="0 0 0 0 0 0 0 0 0 0 0 0 0 0 0 0 0 0 127 0" result="hardAlpha"/><feOffset/><feGaussianBlur stdDeviation="10"/><feComposite in2="hardAlpha" operator="out"/><feColorMatrix values="0 0 0 0 1 0 0 0 0 1 0 0 0 0 1 0 0 0 1 0"/><feBlend in2="BackgroundImageFix" result="effect1_dropShadow_374_3536"/><feBlend in="SourceGraphic" in2="effect1_dropShadow_374_3536" result="shape"/></filter><filter id="k" x="80.131" y="142.538" width="48.76" height="62.561" filterUnits="userSpaceOnUse" color-interpolation-filters="sRGB"><feFlood flood-opacity="0" result="BackgroundImageFix"/><feColorMatrix in="SourceAlpha" values="0 0 0 0 0 0 0 0 0 0 0 0 0 0 0 0 0 0 127 0" result="hardAlpha"/><feOffset/><feGaussianBlur stdDeviation="10"/><feComposite in2="hardAlpha" operator="out"/><feColorMatrix values="0 0 0 0 1 0 0 0 0 1 0 0 0 0 1 0 0 0 1 0"/><feBlend in2="BackgroundImageFix" result="effect1_dropShadow_374_3536"/><feBlend in="SourceGraphic" in2="effect1_dropShadow_374_3536" result="shape"/></filter></defs></svg>