<svg width="491" height="194" viewBox="0 0 491 194" fill="none" xmlns="http://www.w3.org/2000/svg">
<path d="M-9357.16 1.21987C-9071.17 -2.35643 -8396.14 8.45194 -7983.99 80.2958C-7571.83 152.14 -7043.17 110.231 -6830.36 80.2958C-6499.91 48.5065 -5749.32 10.7567 -5390.51 114.072C-4941.99 243.216 -4284.69 249.176 -3817.31 198.314C-3349.94 147.451 -2813.88 114.072 -2510.81 114.072C-2110.78 114.072 -1343.71 96.4977 -871.619 198.314C-481.014 282.555 239.584 232.09 630.861 198.314C1095.8 158.179 1610.6 47.7117 2113.81 232.09" stroke="#505050" stroke-width="0.5"/>
<path d="M-9374 433.553C-9174.88 385.869 -8684.51 288.594 -8316 280.964C-7855.36 271.427 -7225 433.553 -6974.47 433.553C-6723.95 433.553 -6336.04 376.332 -5972.37 280.964C-5608.71 185.596 -4622.77 185.597 -4073.23 309.575C-3523.69 433.553 -2867.12 423.876 -2570.75 347.722C-2069.7 218.975 -782.982 32.9307 -412.995 200.3C71.8935 419.646 746.023 433.553 1137.3 280.964C1791.16 25.9764 2526.64 219.374 2717.23 309.575" stroke="#505050" stroke-width="0.5"/>
<path d="M-9357.65 5.63758C-9074.16 0.787989 -8404.46 8.4762 -7993.57 78.0258C-7580.01 147.52 -7048.42 111.501 -6834.51 82.4307C-6506.38 51.5591 -5766.26 13.2472 -5407.3 110.827C-4961.23 233.49 -4294.45 239.278 -3824.7 193.463C-3354.95 147.647 -2815.42 114.952 -2512.54 112.754C-2109.59 109.037 -1327.52 86.5998 -858.377 190.308C-465.05 278.45 254.206 229.843 645.484 192.637C1115.88 146.3 1637.05 44.6044 2131.23 226.264" stroke="#505050" stroke-width="0.5"/>
<path d="M-9358.16 10.6004C-9077.35 4.39481 -8413.33 8.7602 -8003.78 75.8665C-7588.73 142.859 -7054.01 113.113 -6838.95 84.9625C-6513.27 55.0682 -5784.3 16.1577 -5425.19 107.629C-4981.73 223.39 -4304.84 228.995 -3832.57 188.555C-3360.29 148.114 -2817.05 116.148 -2514.38 111.609C-2108.33 103.934 -1310.28 76.3171 -844.278 182.041C-448.053 274.336 269.774 227.708 661.052 186.849C1137.25 133.907 1665.21 41.5534 2149.78 220.317" stroke="#505050" stroke-width="0.5"/>
<path d="M-9358.71 16.1864C-9080.73 8.54211 -8422.74 9.38201 -8014.61 73.8961C-7597.98 138.234 -7059.94 115.143 -6843.65 87.9692C-6520.58 59.1118 -5803.44 19.5662 -5444.17 104.557C-5003.48 212.995 -4315.87 218.405 -3840.92 183.668C-3365.96 148.93 -2818.79 117.738 -2516.34 110.714C-2106.99 98.8399 -1291.99 65.7278 -829.32 173.59C-430.02 270.292 286.292 225.763 677.57 181.029C1159.93 121.079 1695.09 38.6368 2169.46 214.329" stroke="#505050" stroke-width="0.5"/>
<path d="M-9359.29 22.479C-9084.31 13.3133 -8432.68 10.425 -8026.06 72.1978C-7607.76 133.729 -7066.21 117.676 -6848.62 91.5342C-6528.3 63.7733 -5823.67 23.5561 -5464.24 101.694C-5026.47 202.387 -4327.53 207.592 -3849.74 178.886C-3371.95 150.179 -2820.63 119.804 -2518.4 110.153C-2105.57 93.8384 -1272.65 54.9152 -813.5 165.038C-410.948 266.401 303.761 224.092 695.039 175.26C1183.92 107.899 1726.69 35.938 2190.28 208.382" stroke="#505050" stroke-width="0.5"/>
<path d="M-9359.91 29.5595C-9088.08 18.7896 -8443.17 11.9705 -8038.13 70.853C-7618.07 129.424 -7072.82 120.792 -6853.86 95.7388C-6536.45 69.1341 -5845.01 28.2087 -5485.4 99.1206C-5050.72 191.649 -4339.83 196.637 -3859.05 174.289C-3378.27 151.941 -2822.56 122.428 -2520.59 110.008C-2104.08 89.0107 -1252.26 43.9605 -796.821 156.468C-390.84 262.744 322.179 222.777 713.457 169.623C1209.21 94.4479 1760 33.5383 2212.22 202.557" stroke="#505050" stroke-width="0.5"/>
<path d="M-9360.55 37.5029C-9092.05 25.0462 -8454.2 14.0936 -8050.83 69.9367C-7628.91 125.396 -7079.78 124.566 -6859.37 100.658C-6545.02 75.269 -5867.45 33.599 -5507.66 96.9125C-5076.22 180.855 -4352.76 185.615 -3868.84 169.954C-3384.92 154.292 -2824.6 125.686 -2522.88 110.353C-2102.51 84.4321 -1230.82 32.939 -779.283 147.953C-369.696 259.396 341.546 221.891 732.824 164.193C1235.8 80.8014 1795.03 31.5127 2235.3 196.93" stroke="#505050" stroke-width="0.5"/>
<path d="M-9361.23 46.3802C-9096.21 32.154 -8465.77 16.8652 -8064.15 69.52C-7640.29 121.714 -7087.07 129.07 -6865.15 106.363C-6554.01 82.2493 -5890.99 39.7981 -5531 95.1408C-5102.97 170.076 -4366.32 174.597 -3879.1 165.95C-3391.89 157.303 -2826.74 129.647 -2525.28 111.26C-2100.86 80.1734 -1208.32 21.9215 -760.881 139.565C-347.512 256.428 361.867 221.506 753.144 159.042C1263.7 67.0304 1831.79 29.9323 2259.51 191.571" stroke="#505050" stroke-width="0.5"/>
<path d="M-9361.93 56.2491C-9100.56 40.1706 -8477.88 20.343 -8078.09 69.6604C-7652.19 118.437 -7094.71 134.361 -6871.21 112.911C-6563.42 90.1324 -5915.63 46.8635 -5555.43 93.8628C-5130.97 159.37 -4380.52 163.641 -3889.85 162.336C-3399.19 161.031 -2828.97 134.371 -2527.8 112.785C-2099.13 76.2923 -1184.77 10.9657 -741.623 131.362C-324.295 253.899 383.132 221.68 774.41 154.226C1292.9 53.1923 1870.25 28.8546 2284.85 186.538" stroke="#505050" stroke-width="0.5"/>
<path d="M-9362.67 67.1623C-9105.11 49.1489 -8490.53 24.5798 -8092.66 70.4108C-7664.63 115.618 -7102.68 140.492 -6877.53 120.355C-6573.24 98.9713 -5941.36 54.8482 -5580.96 93.1315C-5160.21 148.789 -4395.35 152.799 -3901.08 159.164C-3406.81 165.53 -2831.31 139.909 -2530.43 114.982C-2097.33 72.8416 -1160.17 0.124402 -721.503 123.397C-300.038 251.86 405.35 222.465 796.628 149.8C1323.4 39.3401 1910.44 28.3325 2311.32 181.885" stroke="#505050" stroke-width="0.5"/>
<path d="M-9363.44 81.3784C-9109.86 61.3474 -8503.72 31.8341 -8107.84 74.0297C-7677.6 115.514 -7111 149.722 -6884.12 130.954C-6583.49 111.024 -5968.2 66.0106 -5607.58 95.2053C-5190.71 140.593 -4410.81 144.33 -3912.78 158.693C-3414.75 173.056 -2833.74 148.52 -2533.17 120.11C-2095.45 72.0798 -1134.52 -8.34393 -700.523 117.927C-274.745 252.571 428.517 226.12 819.795 148.02C1355.21 27.7321 1952.34 30.6245 2338.92 179.869" stroke="#505050" stroke-width="0.5"/>
<path d="M-9364.24 107.57C-9114.8 85.4384 -8517.45 50.7783 -8123.66 89.1894C-7691.1 126.798 -7119.66 170.722 -6890.98 153.38C-6594.16 134.964 -5996.14 89.023 -5635.28 108.757C-5222.46 143.453 -4426.91 146.907 -3924.97 169.596C-3423.03 192.284 -2836.28 168.877 -2536.02 136.84C-2093.49 82.6793 -1107.82 -5.76677 -678.684 123.626C-248.417 264.703 452.633 241.318 843.911 157.56C1388.32 27.0409 1995.96 44.403 2367.66 189.163" stroke="#505050" stroke-width="0.5"/>
<path d="M-9365.08 134.952C-9119.93 110.637 -8531.73 70.6274 -8140.09 105.105C-7705.14 138.686 -7128.66 192.708 -6898.12 176.848C-6605.25 160.005 -6025.18 113.101 -5664.08 123.001C-5255.46 146.585 -4443.65 149.744 -3937.64 181.086C-3431.63 212.429 -2838.91 190.194 -2538.99 154.388C-2091.46 93.8551 -1080.07 -2.92927 -655.986 129.708C-221.052 277.472 477.697 257.273 868.975 167.634C1422.74 26.4814 2041.3 58.8829 2397.52 198.982" stroke="#505050" stroke-width="0.5"/>
<path d="M-9365.94 163.511C-9125.26 136.931 -8546.54 91.369 -8157.15 121.764C-7719.7 151.165 -7138 215.668 -6905.52 201.346C-6616.76 186.136 -6055.32 138.231 -5693.98 137.925C-5289.71 149.976 -4461.01 152.828 -3950.78 193.152C-3440.56 233.476 -2841.65 212.459 -2542.07 172.742C-2089.35 105.595 -1051.27 0.156288 -632.428 136.161C-192.651 290.865 503.711 273.973 894.989 178.231C1458.46 26.0412 2088.35 74.052 2428.52 209.313" stroke="#505050" stroke-width="0.5"/>
<path d="M-9366.84 193.242C-9130.78 164.313 -8561.89 112.996 -8174.82 139.16C-7734.8 164.227 -7147.68 239.595 -6913.19 226.866C-6628.69 213.349 -6086.56 164.407 -5724.96 153.522C-5325.21 153.62 -4479.01 156.155 -3964.41 205.788C-3449.81 255.421 -2844.48 235.666 -2545.26 191.894C-2087.16 117.892 -1021.41 3.48309 -608.008 142.978C-163.21 304.876 530.678 291.411 921.956 189.343C1495.48 25.7135 2137.13 89.9034 2460.65 220.15" stroke="#505050" stroke-width="0.5"/>
<path d="M-9367.77 224.135C-9136.5 192.775 -8577.79 135.501 -8193.12 157.284C-7750.42 177.866 -7157.71 264.48 -6921.14 253.401C-6641.04 241.636 -6118.9 191.621 -5757.03 169.785C-5361.96 157.508 -4497.65 159.714 -3978.52 218.984C-3459.38 278.254 -2847.42 259.806 -2548.57 211.836C-2084.9 130.738 -990.504 7.0429 -582.729 150.151C-132.735 319.496 558.592 309.579 949.87 200.962C1533.81 25.4902 2187.62 106.429 2493.91 231.484" stroke="#505050" stroke-width="0.5"/>
<path d="M-9368.73 256.184C-9142.41 222.31 -8594.22 158.876 -8212.05 176.13C-7766.58 192.073 -7168.07 290.315 -6929.35 280.943C-6653.8 270.99 -6152.34 219.865 -5790.19 186.705C-5399.96 161.632 -4516.92 163.498 -3993.1 232.734C-3469.29 301.969 -2850.45 284.871 -2551.98 232.561C-2082.56 144.125 -958.545 10.8281 -556.588 157.673C-101.22 334.718 587.458 328.469 978.736 213.081C1573.44 25.3636 2239.83 123.621 2528.3 243.309" stroke="#505050" stroke-width="0.5"/>
<path d="M-9369.72 289.38C-9148.51 252.91 -8611.2 183.113 -8231.59 195.688C-7783.27 206.84 -7178.77 317.094 -6937.83 309.484C-6666.99 301.402 -6186.88 249.131 -5824.44 204.274C-5439.21 165.984 -4536.82 167.5 -4008.17 247.028C-3479.51 326.556 -2853.59 310.854 -2555.51 254.061C-2080.14 158.045 -925.536 14.8307 -529.59 165.534C-68.672 350.533 617.271 348.074 1008.55 225.691C1614.38 25.3256 2293.76 141.471 2563.82 255.615" stroke="#505050" stroke-width="0.5"/>
<path d="M-9370.74 323.721C-9154.81 284.571 -8628.72 208.209 -8251.76 215.956C-7800.5 222.165 -7189.82 344.813 -6946.59 339.021C-6680.6 332.87 -6222.52 279.417 -5859.79 222.491C-5479.71 170.563 -4557.36 171.717 -4023.71 261.866C-3490.07 352.015 -2856.82 337.752 -2559.15 276.333C-2077.65 172.496 -891.475 19.0483 -501.732 173.734C-35.0865 366.939 648.034 368.391 1039.31 238.791C1656.62 25.374 2349.4 159.978 2600.48 268.401" stroke="#505050" stroke-width="0.5"/>
<path d="M-9371.79 359.2C-9161.31 317.288 -8646.78 234.157 -8272.55 236.928C-7818.25 238.041 -7201.21 373.466 -6955.62 369.548C-6694.63 365.388 -6259.26 310.715 -5896.23 241.348C-5521.46 175.361 -4578.53 176.142 -4039.74 277.239C-3500.95 378.336 -2860.16 365.558 -2562.9 299.37C-2075.07 187.472 -856.363 23.4739 -473.013 182.264C-0.463679 383.93 679.746 389.413 1071.02 252.373C1700.16 25.5016 2406.76 179.133 2638.26 281.659" stroke="#505050" stroke-width="0.5"/>
<path d="M-9372.88 395.812C-9168 351.055 -8665.37 260.954 -8293.96 258.599C-7836.54 254.463 -7212.93 403.047 -6964.91 401.06C-6709.08 398.95 -6297.1 343.022 -5933.75 260.841C-5564.46 180.374 -4600.33 180.77 -4056.24 293.144C-3512.16 405.517 -2863.59 394.268 -2566.77 323.168C-2072.42 202.966 -820.198 28.1028 -443.434 191.121C35.1966 401.501 712.41 411.135 1103.69 266.432C1745.01 25.7039 2465.84 198.933 2677.18 295.385" stroke="#505050" stroke-width="0.5"/>
</svg>
