<svg width="491" height="194" viewBox="0 0 491 194" fill="none" xmlns="http://www.w3.org/2000/svg">
<g opacity="0.5">
<path d="M0.835938 1.21987C286.83 -2.35643 961.857 8.45194 1374.01 80.2958C1786.17 152.14 2314.83 110.231 2527.64 80.2958C2858.08 48.5065 3608.67 10.7567 3967.49 114.072C4416.01 243.216 5073.31 249.176 5540.68 198.314C6008.06 147.451 6544.12 114.072 6847.19 114.072C7247.22 114.072 8014.29 96.4977 8486.38 198.314C8876.98 282.555 9597.58 232.09 9988.86 198.314C10453.8 158.179 10968.6 47.7117 11471.8 232.09" stroke="white" stroke-width="0.5"/>
<path d="M-16 433.553C183.118 385.869 673.484 288.594 1042 280.964C1502.64 271.427 2133 433.553 2383.52 433.553C2634.05 433.553 3021.96 376.332 3385.63 280.964C3749.29 185.596 4735.23 185.597 5284.77 309.575C5834.31 433.553 6490.88 423.876 6787.25 347.722C7288.3 218.975 8575.02 32.9307 8945 200.3C9429.89 419.646 10104 433.553 10495.3 280.964C11149.2 25.9764 11884.6 219.374 12075.2 309.575" stroke="white" stroke-width="0.5"/>
<path d="M0.351562 5.63758C283.838 0.787989 953.534 8.4762 1364.43 78.0258C1777.98 147.52 2309.58 111.501 2523.48 82.4307C2851.62 51.5591 3591.74 13.2472 3950.7 110.827C4396.77 233.49 5063.55 239.278 5533.3 193.463C6003.05 147.647 6542.58 114.952 6845.46 112.754C7248.41 109.037 8030.48 86.5998 8499.62 190.308C8892.95 278.45 9612.2 229.843 10003.5 192.637C10473.9 146.3 10995 44.6044 11489.2 226.264" stroke="white" stroke-width="0.5"/>
<path d="M-0.166016 10.6004C280.649 4.39481 944.669 8.7602 1354.22 75.8665C1769.27 142.859 2303.99 113.113 2519.05 84.9625C2844.73 55.0682 3573.7 16.1577 3932.81 107.629C4376.27 223.39 5053.15 228.995 5525.43 188.555C5997.71 148.114 6540.94 116.148 6843.62 111.609C7249.67 103.934 8047.72 76.3171 8513.72 182.041C8909.94 274.336 9627.77 227.708 10019.1 186.849C10495.3 133.907 11023.2 41.5534 11507.8 220.317" stroke="white" stroke-width="0.5"/>
<path d="M-0.716797 16.1864C277.265 8.54211 935.261 9.38201 1343.39 73.8961C1760.02 138.234 2298.06 115.143 2514.35 87.9692C2837.42 59.1118 3554.56 19.5662 3913.83 104.557C4354.52 212.995 5042.13 218.405 5517.08 183.668C5992.04 148.93 6539.21 117.738 6841.66 110.714C7251.01 98.8399 8066 65.7278 8528.68 173.59C8927.98 270.292 9644.29 225.763 10035.6 181.029C10517.9 121.079 11053.1 38.6368 11527.5 214.329" stroke="white" stroke-width="0.5"/>
<path d="M-1.29688 22.479C273.688 13.3133 925.315 10.425 1331.94 72.1978C1750.24 133.729 2291.79 117.676 2509.38 91.5342C2829.69 63.7733 3534.32 23.5561 3893.76 101.694C4331.52 202.387 5030.46 207.592 5508.25 178.886C5986.04 150.179 6537.37 119.804 6839.59 110.153C7252.43 93.8384 8085.35 54.9152 8544.5 165.038C8947.05 266.401 9661.76 224.092 10053 175.26C10541.9 107.899 11084.7 35.938 11548.3 208.382" stroke="white" stroke-width="0.5"/>
<path d="M-1.91016 29.5595C269.915 18.7896 914.826 11.9705 1319.86 70.853C1739.93 129.424 2285.17 120.792 2504.14 95.7388C2821.55 69.1341 3512.99 28.2087 3872.59 99.1206C4307.28 191.649 5018.17 196.637 5498.95 174.289C5979.72 151.941 6535.43 122.428 6837.41 110.008C7253.92 89.0107 8105.74 43.9605 8561.18 156.468C8967.16 262.744 9680.18 222.777 10071.5 169.623C10567.2 94.4479 11118 33.5383 11570.2 202.557" stroke="white" stroke-width="0.5"/>
<path d="M-2.55469 37.5029C265.948 25.0462 903.797 14.0936 1307.17 69.9367C1729.08 125.396 2278.22 124.566 2498.63 100.658C2812.98 75.269 3490.55 33.599 3850.34 96.9125C4281.78 180.855 5005.24 185.615 5489.16 169.954C5973.08 154.292 6533.4 125.686 6835.12 110.353C7255.49 84.4321 8127.18 32.939 8578.71 147.953C8988.3 259.396 9699.54 221.891 10090.8 164.193C10593.8 80.8014 11153 31.5127 11593.3 196.93" stroke="white" stroke-width="0.5"/>
<path d="M-3.22852 46.3802C261.789 32.154 892.23 16.8652 1293.85 69.52C1717.71 121.714 2270.93 129.07 2492.85 106.363C2803.99 82.2493 3467.01 39.7981 3827 95.1408C4255.03 170.076 4991.68 174.597 5478.89 165.95C5966.11 157.303 6531.26 129.647 6832.72 111.26C7257.14 80.1734 8149.68 21.9215 8597.12 139.565C9010.49 256.428 9719.86 221.506 10111.1 159.042C10621.7 67.0304 11189.8 29.9323 11617.5 191.571" stroke="white" stroke-width="0.5"/>
<path d="M-3.93555 56.2491C257.434 40.1706 880.119 20.343 1279.9 69.6604C1705.8 118.437 2263.29 134.361 2486.79 112.911C2794.58 90.1324 3442.37 46.8635 3802.56 93.8628C4227.03 159.37 4977.48 163.641 5468.15 162.336C5958.81 161.031 6529.03 134.371 6830.2 112.785C7258.87 76.2923 8173.22 10.9657 8616.37 131.362C9033.7 253.899 9741.13 221.68 10132.4 154.226C10650.9 53.1923 11228.2 28.8546 11642.8 186.538" stroke="white" stroke-width="0.5"/>
<path d="M-4.67383 67.1623C252.885 49.1489 867.469 24.5798 1265.34 70.4108C1693.37 115.618 2255.31 140.492 2480.47 120.355C2784.76 98.9713 3416.63 54.8482 3777.04 93.1315C4197.79 148.789 4962.65 152.799 5456.92 159.164C5951.19 165.53 6526.69 139.909 6827.57 114.982C7260.67 72.8416 8197.82 0.124402 8636.5 123.397C9057.96 251.86 9763.35 222.465 10154.6 149.8C10681.4 39.3401 11268.4 28.3325 11669.3 181.885" stroke="white" stroke-width="0.5"/>
<path d="M-5.44336 81.3784C248.141 61.3474 854.279 31.8341 1250.15 74.0297C1680.4 115.514 2247 149.722 2473.88 130.954C2774.51 111.024 3389.8 66.0106 3750.42 95.2053C4167.29 140.593 4947.19 144.33 5445.21 158.693C5943.24 173.056 6524.26 148.52 6824.83 120.11C7262.55 72.0798 8223.47 -8.34393 8657.47 117.927C9083.25 252.571 9786.52 226.12 10177.8 148.02C10713.2 27.7321 11310.3 30.6245 11696.9 179.869" stroke="white" stroke-width="0.5"/>
<path d="M-6.24609 107.57C243.201 85.4384 840.545 50.7783 1234.34 89.1894C1666.9 126.798 2238.34 170.722 2467.02 153.38C2763.84 134.964 3361.86 89.023 3722.71 108.757C4135.54 143.453 4931.09 146.907 5433.03 169.596C5934.97 192.284 6521.72 168.877 6821.97 136.84C7264.5 82.6793 8250.18 -5.76677 8679.31 123.626C9109.58 264.703 9810.63 241.318 10201.9 157.56C10746.3 27.0409 11354 44.403 11725.7 189.163" stroke="white" stroke-width="0.5"/>
<path d="M-7.08008 134.952C238.068 110.637 826.272 70.6274 1217.91 105.105C1652.86 138.686 2229.34 192.708 2459.88 176.848C2752.75 160.005 3332.82 113.101 3693.91 123.001C4102.54 146.585 4914.35 149.744 5420.36 181.086C5926.37 212.429 6519.08 190.194 6819.01 154.388C7266.54 93.8551 8277.93 -2.92927 8702.01 129.708C9136.95 277.472 9835.7 257.273 10227 167.634C10780.7 26.4814 11399.3 58.8829 11755.5 198.982" stroke="white" stroke-width="0.5"/>
<path d="M-7.94531 163.511C232.74 136.931 811.458 91.369 1200.85 121.764C1638.3 151.165 2220 215.668 2452.48 201.346C2741.24 186.136 3302.68 138.231 3664.02 137.925C4068.29 149.976 4896.98 152.828 5407.21 193.152C5917.44 233.476 6516.35 212.459 6815.93 172.742C7268.64 105.595 8306.73 0.156288 8725.57 136.161C9165.35 290.865 9861.71 273.973 10253 178.231C10816.5 26.0412 11446.4 74.052 11786.5 209.313" stroke="white" stroke-width="0.5"/>
<path d="M-8.8418 193.242C227.217 164.313 796.104 112.996 1183.18 139.16C1623.2 164.227 2210.31 239.595 2444.8 226.866C2729.31 213.349 3271.44 164.407 3633.04 153.522C4032.79 153.62 4878.98 156.155 5393.59 205.788C5908.19 255.421 6513.51 235.666 6812.74 191.894C7270.83 117.892 8336.59 3.48309 8749.99 142.978C9194.79 304.876 9888.68 291.411 10280 189.343C10853.5 25.7135 11495.1 89.9034 11818.6 220.15" stroke="white" stroke-width="0.5"/>
<path d="M-9.76953 224.135C221.501 192.775 780.209 135.501 1164.87 157.284C1607.57 177.866 2200.29 264.48 2436.86 253.401C2716.96 241.636 3239.1 191.621 3600.97 169.785C3996.04 157.508 4860.35 159.714 5379.48 218.984C5898.61 278.254 6510.58 259.806 6809.43 211.836C7273.1 130.738 8367.49 7.0429 8775.27 150.151C9225.26 319.496 9916.59 309.579 10307.9 200.962C10891.8 25.4902 11545.6 106.429 11851.9 231.484" stroke="white" stroke-width="0.5"/>
<path d="M-10.7285 256.184C215.591 222.31 763.774 158.876 1145.95 176.13C1591.41 192.073 2189.93 290.315 2428.65 280.943C2704.19 270.99 3205.66 219.865 3567.81 186.705C3958.04 161.632 4841.08 163.498 5364.9 232.734C5888.71 301.969 6507.55 284.871 6806.02 232.561C7275.44 144.125 8399.45 10.8281 8801.41 157.673C9256.78 334.718 9945.46 328.469 10336.7 213.081C10931.4 25.3636 11597.8 123.621 11886.3 243.309" stroke="white" stroke-width="0.5"/>
<path d="M-11.7188 289.38C209.486 252.91 746.798 183.113 1126.41 195.688C1574.72 206.84 2179.23 317.094 2420.16 309.484C2691.01 301.402 3171.12 249.131 3533.55 204.274C3918.79 165.984 4821.18 167.5 5349.83 247.028C5878.48 326.556 6504.41 310.854 6802.49 254.061C7277.86 158.045 8432.46 14.8307 8828.41 165.534C9289.33 350.533 9975.27 348.074 10366.5 225.691C10972.4 25.3256 11651.8 141.471 11921.8 255.615" stroke="white" stroke-width="0.5"/>
<path d="M-12.7422 323.721C203.185 284.571 729.28 208.209 1106.24 215.956C1557.5 222.165 2168.18 344.813 2411.41 339.021C2677.4 332.87 3135.48 279.417 3498.21 222.491C3878.29 170.563 4800.64 171.717 5334.29 261.866C5867.93 352.015 6501.18 337.752 6798.85 276.333C7280.35 172.496 8466.52 19.0483 8856.27 173.734C9322.91 366.939 10006 368.391 10397.3 238.791C11014.6 25.374 11707.4 159.978 11958.5 268.401" stroke="white" stroke-width="0.5"/>
<path d="M-13.7969 359.2C196.691 317.288 711.222 234.157 1085.45 236.928C1539.75 238.041 2156.79 373.466 2402.38 369.548C2663.37 365.388 3098.74 310.715 3461.77 241.348C3836.54 175.361 4779.47 176.142 5318.26 277.239C5857.05 378.336 6497.84 365.558 6795.09 299.37C7282.92 187.472 8501.64 23.4739 8884.98 182.264C9357.53 383.93 10037.7 389.413 10429 252.373C11058.2 25.5016 11764.8 179.133 11996.3 281.659" stroke="white" stroke-width="0.5"/>
<path d="M-14.8828 395.812C190.002 351.055 692.623 260.954 1064.03 258.599C1521.46 254.463 2145.07 403.047 2393.09 401.06C2648.92 398.95 3060.9 343.022 3424.24 260.841C3793.54 180.374 4757.67 180.77 5301.76 293.144C5845.84 405.517 6494.41 394.268 6791.23 323.168C7285.58 202.966 8537.8 28.1028 8914.56 191.121C9393.19 401.501 10070.4 411.135 10461.7 266.432C11103 25.7039 11823.8 198.933 12035.2 295.385" stroke="white" stroke-width="0.5"/>
</g>
</svg>
