<svg width="491" height="194" viewBox="0 0 491 194" fill="none" xmlns="http://www.w3.org/2000/svg">
<g opacity="0.5">
<path d="M-3119.16 1.21987C-2833.17 -2.35643 -2158.14 8.45194 -1745.99 80.2958C-1333.83 152.14 -805.168 110.231 -592.356 80.2958C-261.913 48.5065 488.675 10.7567 847.493 114.072C1296.01 243.216 1953.31 249.176 2420.69 198.314C2888.06 147.451 3424.12 114.072 3727.19 114.072C4127.22 114.072 4894.29 96.4977 5366.38 198.314C5756.99 282.555 6477.58 232.09 6868.86 198.314C7333.8 158.179 7848.6 47.7117 8351.81 232.09" stroke="white" stroke-width="0.5"/>
<path d="M-3136 433.553C-2936.88 385.869 -2446.51 288.594 -2078 280.964C-1617.36 271.427 -987 433.553 -736.475 433.553C-485.949 433.553 -98.0388 376.332 265.627 280.964C629.294 185.596 1615.23 185.597 2164.77 309.575C2714.31 433.553 3370.88 423.876 3667.25 347.722C4168.3 218.975 5455.02 32.9307 5825.01 200.3C6309.89 419.646 6984.02 433.553 7375.3 280.964C8029.16 25.9764 8764.64 219.374 8955.23 309.575" stroke="white" stroke-width="0.5"/>
<path d="M-3119.65 5.63758C-2836.16 0.787989 -2166.46 8.4762 -1755.57 78.0258C-1342.01 147.52 -810.415 111.501 -596.514 82.4307C-268.379 51.5591 471.74 13.2472 830.697 110.827C1276.77 233.49 1943.55 239.278 2413.3 193.463C2883.05 147.647 3422.58 114.952 3725.46 112.754C4128.41 109.037 4910.48 86.5998 5379.62 190.308C5772.95 278.45 6492.21 229.843 6883.48 192.637C7353.88 146.3 7875.05 44.6044 8369.23 226.264" stroke="white" stroke-width="0.5"/>
<path d="M-3120.16 10.6004C-2839.35 4.39481 -2175.33 8.7602 -1765.78 75.8665C-1350.73 142.859 -816.006 113.113 -600.945 84.9625C-275.267 55.0682 453.702 16.1577 812.809 107.629C1256.27 223.39 1933.16 228.995 2405.43 188.555C2877.71 148.114 3420.95 116.148 3723.62 111.609C4129.67 103.934 4927.72 76.3171 5393.72 182.041C5789.95 274.336 6507.77 227.708 6899.05 186.849C7375.25 133.907 7903.21 41.5534 8387.78 220.317" stroke="white" stroke-width="0.5"/>
<path d="M-3120.71 16.1864C-2842.73 8.54211 -2184.74 9.38201 -1776.61 73.8961C-1359.98 138.234 -821.938 115.143 -605.648 87.9692C-282.576 59.1118 434.563 19.5662 793.828 104.557C1234.52 212.995 1922.13 218.405 2397.08 183.668C2872.04 148.93 3419.21 117.738 3721.66 110.714C4131.01 98.8399 4946.01 65.7278 5408.68 173.59C5807.98 270.292 6524.29 225.763 6915.57 181.029C7397.93 121.079 7933.09 38.6368 8407.46 214.329" stroke="white" stroke-width="0.5"/>
<path d="M-3121.29 22.479C-2846.31 13.3133 -2194.68 10.425 -1788.06 72.1978C-1369.76 133.729 -828.209 117.676 -610.618 91.5342C-290.303 63.7733 414.326 23.5561 773.758 101.694C1211.53 202.387 1910.47 207.592 2388.26 178.886C2866.05 150.179 3417.37 119.804 3719.6 110.153C4132.43 93.8384 4965.35 54.9152 5424.5 165.038C5827.05 266.401 6541.76 224.092 6933.04 175.26C7421.92 107.899 7964.69 35.938 8428.28 208.382" stroke="white" stroke-width="0.5"/>
<path d="M-3121.91 29.5595C-2850.08 18.7896 -2205.17 11.9705 -1800.13 70.853C-1380.07 129.424 -834.823 120.792 -615.861 95.7388C-298.452 69.1341 392.988 28.2087 752.596 99.1206C1187.28 191.649 1898.17 196.637 2378.95 174.289C2859.73 151.941 3415.44 122.428 3717.41 110.008C4133.92 89.0107 4985.74 43.9605 5441.18 156.468C5847.16 262.744 6560.18 222.777 6951.46 169.623C7447.21 94.4479 7998 33.5383 8450.22 202.557" stroke="white" stroke-width="0.5"/>
<path d="M-3122.55 37.5029C-2854.05 25.0462 -2216.2 14.0936 -1812.83 69.9367C-1390.91 125.396 -841.778 124.566 -621.373 100.658C-307.021 75.269 370.549 33.599 730.342 96.9125C1161.78 180.855 1885.24 185.615 2369.16 169.954C2853.08 154.292 3413.4 125.686 3715.12 110.353C4135.49 84.4321 5007.18 32.939 5458.72 147.953C5868.3 259.396 6579.55 221.891 6970.82 164.193C7473.8 80.8014 8033.03 31.5127 8473.3 196.93" stroke="white" stroke-width="0.5"/>
<path d="M-3123.23 46.3802C-2858.21 32.154 -2227.77 16.8652 -1826.15 69.52C-1402.29 121.714 -849.071 129.07 -627.153 106.363C-316.007 82.2493 347.012 39.7981 707.001 95.1408C1135.03 170.076 1871.68 174.597 2358.9 165.95C2846.11 157.303 3411.26 129.647 3712.72 111.26C4137.14 80.1734 5029.68 21.9215 5477.12 139.565C5890.49 256.428 6599.87 221.506 6991.14 159.042C7501.7 67.0304 8069.79 29.9323 8497.51 191.571" stroke="white" stroke-width="0.5"/>
<path d="M-3123.93 56.2491C-2862.56 40.1706 -2239.88 20.343 -1840.09 69.6604C-1414.19 118.437 -856.707 134.361 -633.206 112.911C-325.415 90.1324 322.373 46.8635 682.565 93.8628C1107.03 159.37 1857.48 163.641 2348.15 162.336C2838.81 161.031 3409.03 134.371 3710.2 112.785C4138.87 76.2923 5053.23 10.9657 5496.38 131.362C5913.71 253.899 6621.13 221.68 7012.41 154.226C7530.9 53.1923 8108.25 28.8546 8522.85 186.538" stroke="white" stroke-width="0.5"/>
<path d="M-3124.67 67.1623C-2867.11 49.1489 -2252.53 24.5798 -1854.66 70.4108C-1426.63 115.618 -864.684 140.492 -639.527 120.355C-335.243 98.9713 296.636 54.8482 657.04 93.1315C1077.79 148.789 1842.65 152.799 2336.92 159.164C2831.19 165.53 3406.69 139.909 3707.57 114.982C4140.67 72.8416 5077.83 0.124402 5516.5 123.397C5937.96 251.86 6643.35 222.465 7034.63 149.8C7561.4 39.3401 8148.44 28.3325 8549.32 181.885" stroke="white" stroke-width="0.5"/>
<path d="M-3125.44 81.3784C-2871.86 61.3474 -2265.72 31.8341 -1869.84 74.0297C-1439.6 115.514 -873.001 149.722 -646.119 130.954C-345.491 111.024 269.798 66.0106 630.424 95.2053C1047.29 140.593 1827.19 144.33 2325.22 158.693C2823.25 173.056 3404.26 148.52 3704.83 120.11C4142.55 72.0798 5103.48 -8.34393 5537.48 117.927C5963.25 252.571 6666.52 226.12 7057.79 148.02C7593.21 27.7321 8190.34 30.6245 8576.92 179.869" stroke="white" stroke-width="0.5"/>
<path d="M-3126.24 107.57C-2876.8 85.4384 -2279.45 50.7783 -1885.66 89.1894C-1453.1 126.798 -881.66 170.722 -652.983 153.38C-356.16 134.964 241.858 89.023 602.715 108.757C1015.54 143.453 1811.09 146.907 2313.03 169.596C2814.97 192.284 3401.72 168.877 3701.98 136.84C4144.51 82.6793 5130.18 -5.76677 5559.32 123.626C5989.58 264.703 6690.63 241.318 7081.91 157.56C7626.32 27.0409 8233.96 44.403 8605.66 189.163" stroke="white" stroke-width="0.5"/>
<path d="M-3127.08 134.952C-2881.93 110.637 -2293.73 70.6274 -1902.09 105.105C-1467.14 138.686 -890.661 192.708 -660.117 176.848C-367.249 160.005 212.818 113.101 573.915 123.001C982.54 146.585 1794.35 149.744 2300.36 181.086C2806.37 212.429 3399.09 190.194 3699.01 154.388C4146.54 93.8551 5157.93 -2.92927 5582.01 129.708C6016.95 277.472 6715.7 257.273 7106.98 167.634C7660.74 26.4814 8279.3 58.8829 8635.52 198.982" stroke="white" stroke-width="0.5"/>
<path d="M-3127.94 163.511C-2887.26 136.931 -2308.54 91.369 -1919.15 121.764C-1481.7 151.165 -900.002 215.668 -667.521 201.346C-378.759 186.136 182.678 138.231 544.025 137.925C948.29 149.976 1776.99 152.828 2287.22 193.152C2797.44 233.476 3396.35 212.459 3695.93 172.742C4148.65 105.595 5186.73 0.156288 5605.57 136.161C6045.35 290.865 6741.71 273.973 7132.99 178.231C7696.46 26.0412 8326.35 74.052 8666.52 209.313" stroke="white" stroke-width="0.5"/>
<path d="M-3128.84 193.242C-2892.78 164.313 -2323.89 112.996 -1936.82 139.16C-1496.8 164.227 -909.683 239.595 -675.194 226.866C-390.687 213.349 151.44 164.407 513.044 153.522C912.792 153.62 1758.99 156.155 2273.59 205.788C2788.19 255.421 3393.52 235.666 3692.74 191.894C4150.84 117.892 5216.59 3.48309 5629.99 142.978C6074.79 304.876 6768.68 291.411 7159.96 189.343C7733.48 25.7135 8375.13 89.9034 8698.65 220.15" stroke="white" stroke-width="0.5"/>
<path d="M-3129.77 224.135C-2898.5 192.775 -2339.79 135.501 -1955.12 157.284C-1512.42 177.866 -919.706 264.48 -683.138 253.401C-403.035 241.636 119.1 191.621 480.972 169.785C876.042 157.508 1740.35 159.714 2259.48 218.984C2778.62 278.254 3390.58 259.806 3689.43 211.836C4153.1 130.738 5247.5 7.0429 5655.27 150.151C6105.27 319.496 6796.59 309.579 7187.87 200.962C7771.81 25.4902 8425.62 106.429 8731.91 231.484" stroke="white" stroke-width="0.5"/>
<path d="M-3130.73 256.184C-2904.41 222.31 -2356.22 158.876 -1974.05 176.13C-1528.58 192.073 -930.068 290.315 -691.351 280.943C-415.803 270.99 85.6616 219.865 447.81 186.705C838.044 161.632 1721.08 163.498 2244.9 232.734C2768.71 301.969 3387.55 284.871 3686.02 232.561C4155.44 144.125 5279.46 10.8281 5681.41 157.673C6136.78 334.718 6825.46 328.469 7216.74 213.081C7811.44 25.3636 8477.83 123.621 8766.3 243.309" stroke="white" stroke-width="0.5"/>
<path d="M-3131.72 289.38C-2910.51 252.91 -2373.2 183.113 -1993.59 195.688C-1545.27 206.84 -940.772 317.094 -699.835 309.484C-428.992 301.402 51.1223 249.131 413.556 204.274C798.795 165.984 1701.18 167.5 2229.83 247.028C2758.49 326.556 3384.41 310.854 3682.49 254.061C4157.86 158.045 5312.46 14.8307 5708.41 165.534C6169.33 350.533 6855.27 348.074 7246.55 225.691C7852.38 25.3256 8531.76 141.471 8801.82 255.615" stroke="white" stroke-width="0.5"/>
<path d="M-3132.74 323.721C-2916.81 284.571 -2390.72 208.209 -2013.76 215.956C-1562.5 222.165 -951.819 344.813 -708.59 339.021C-442.602 332.87 15.4817 279.417 378.21 222.491C758.294 170.563 1680.64 171.717 2214.29 261.866C2747.93 352.015 3381.18 337.752 3678.85 276.333C4160.35 172.496 5346.52 19.0483 5736.27 173.734C6202.91 366.939 6886.03 368.391 7277.31 238.791C7894.62 25.374 8587.4 159.978 8838.48 268.401" stroke="white" stroke-width="0.5"/>
<path d="M-3133.79 359.2C-2923.31 317.288 -2408.78 234.157 -2034.55 236.928C-1580.25 238.041 -963.205 373.466 -717.615 369.548C-456.631 365.388 -21.2587 310.715 341.773 241.348C716.544 175.361 1659.47 176.142 2198.26 277.239C2737.05 378.336 3377.84 365.558 3675.1 299.37C4162.93 187.472 5381.64 23.4739 5764.99 182.264C6237.54 383.93 6917.75 389.413 7309.02 252.373C7938.16 25.5016 8644.76 179.133 8876.26 281.659" stroke="white" stroke-width="0.5"/>
<path d="M-3134.88 395.812C-2930 351.055 -2427.37 260.954 -2055.96 258.599C-1598.54 254.463 -974.932 403.047 -726.91 401.06C-471.08 398.95 -59.0987 343.022 304.246 260.841C673.544 180.374 1637.67 180.77 2181.76 293.144C2725.84 405.517 3374.41 394.268 3671.23 323.168C4165.58 202.966 5417.8 28.1028 5794.57 191.121C6273.2 401.501 6950.41 411.135 7341.69 266.432C7983.01 25.7039 8703.84 198.933 8915.18 295.385" stroke="white" stroke-width="0.5"/>
</g>
</svg>
