<svg width="171" height="28" viewBox="0 0 171 28" fill="none" xmlns="http://www.w3.org/2000/svg">
<rect x="63.3965" y="3.67773" width="11.4395" height="3.10478" fill="white"/>
<rect x="63.3965" y="18.9424" width="11.4395" height="3.10478" fill="white"/>
<path d="M0.939453 3.67773H22.7386V6.78251H11.839H0.939453V3.67773Z" fill="white"/>
<rect x="7.02344" y="0.873047" width="3.74515" height="21.138" fill="white"/>
<rect x="24.002" y="3.67773" width="3.74515" height="18.3337" fill="white"/>
<rect x="138.408" y="3.67773" width="3.74515" height="18.3337" fill="white"/>
<rect x="63.4785" y="3.77832" width="3.74515" height="18.3337" fill="white"/>
<rect x="81.9258" y="3.77832" width="3.74515" height="18.3337" fill="white"/>
<rect x="157.471" y="3.77832" width="3.74515" height="18.3337" fill="white"/>
<rect x="133.125" y="13.0869" width="3.74515" height="12.0284" fill="white"/>
<rect x="129.066" y="13.0869" width="7.80471" height="3.0909" fill="white"/>
<rect x="81.9258" y="3.77832" width="11.1238" height="3.00372" fill="white"/>
<rect x="157.471" y="3.77832" width="11.1238" height="3.00372" fill="white"/>
<rect x="81.9258" y="9.53516" width="11.1238" height="3.00372" fill="white"/>
<rect x="157.471" y="9.53516" width="11.1238" height="3.00372" fill="white"/>
<rect x="81.9258" y="19.1084" width="12.5928" height="3.00372" fill="white"/>
<rect x="157.471" y="19.1084" width="12.5928" height="3.00372" fill="white"/>
<path d="M51.4902 2.21996L51.4906 8.5474L44.2309 22.0098L40.3186 22.0098L51.4902 2.21996Z" fill="white"/>
<path d="M51.4941 2.21484L51.4598 8.48789L60.5743 25.378L64.7119 25.3782L51.4941 2.21484Z" fill="white"/>
<rect x="24.002" y="3.67773" width="11.4395" height="3.10478" fill="white"/>
<rect x="138.408" y="3.67773" width="11.4395" height="3.10478" fill="white"/>
<rect x="24.002" y="13.1094" width="11.4395" height="3.10478" fill="white"/>
<rect x="138.408" y="13.1094" width="11.4395" height="3.10478" fill="white"/>
<rect x="45.8887" y="15.8369" width="11.4395" height="3.10478" fill="white"/>
<path d="M34.2907 14.6049L40.9665 25.3427L37.1246 25.3428L31.6357 16.2144L34.2907 14.6049Z" fill="white"/>
<path d="M148.699 14.6049L155.375 25.3427L151.533 25.3428L146.044 16.2144L148.699 14.6049Z" fill="white"/>
<path d="M34.9288 3.67773C35.752 3.67773 36.5672 3.83988 37.3277 4.15491C38.0883 4.46994 38.7793 4.93169 39.3614 5.51378C39.9435 6.09588 40.4053 6.78694 40.7203 7.54749C41.0353 8.30804 41.1975 9.12319 41.1975 9.9464C41.1975 10.7696 41.0353 11.5848 40.7203 12.3453C40.4053 13.1059 39.9435 13.7969 39.3614 14.379C38.7793 14.9611 38.0883 15.4229 37.3277 15.7379C36.5672 16.0529 35.752 16.2151 34.9288 16.2151L34.9288 13.0807C35.3404 13.0807 35.748 12.9997 36.1283 12.8421C36.5086 12.6846 36.8541 12.4538 37.1451 12.1627C37.4362 11.8717 37.6671 11.5261 37.8246 11.1459C37.9821 10.7656 38.0632 10.358 38.0632 9.9464C38.0632 9.5348 37.9821 9.12722 37.8246 8.74694C37.6671 8.36667 37.4362 8.02114 37.1451 7.73009C36.8541 7.43904 36.5086 7.20817 36.1283 7.05065C35.748 6.89314 35.3404 6.81207 34.9288 6.81207V3.67773Z" fill="white"/>
<path d="M149.337 3.67773C150.16 3.67773 150.975 3.83988 151.736 4.15491C152.496 4.46994 153.188 4.93169 153.77 5.51378C154.352 6.09588 154.813 6.78694 155.129 7.54749C155.444 8.30804 155.606 9.12319 155.606 9.9464C155.606 10.7696 155.444 11.5848 155.129 12.3453C154.813 13.1059 154.352 13.7969 153.77 14.379C153.188 14.9611 152.496 15.4229 151.736 15.7379C150.975 16.0529 150.16 16.2151 149.337 16.2151L149.337 13.0807C149.749 13.0807 150.156 12.9997 150.536 12.8421C150.917 12.6846 151.262 12.4538 151.553 12.1627C151.844 11.8717 152.075 11.5261 152.233 11.1459C152.39 10.7656 152.471 10.358 152.471 9.9464C152.471 9.5348 152.39 9.12722 152.233 8.74694C152.075 8.36667 151.844 8.02114 151.553 7.73009C151.262 7.43904 150.917 7.20817 150.536 7.05065C150.156 6.89314 149.749 6.81207 149.337 6.81207V3.67773Z" fill="white"/>
<path d="M74.1484 3.67773C74.9717 3.67773 75.7868 3.91482 76.5474 4.37546C77.3079 4.83609 77.999 5.51126 78.5811 6.36241C79.1632 7.21355 79.6249 8.22401 79.9399 9.33608C80.255 10.4482 80.4171 11.6401 80.4171 12.8438C80.4171 14.0475 80.255 15.2394 79.9399 16.3515C79.6249 17.4635 79.1632 18.474 78.5811 19.3251C77.999 20.1763 77.3079 20.8515 76.5474 21.3121C75.7868 21.7727 74.9717 22.0098 74.1484 22.0098L74.1484 18.8937C74.6918 18.8937 74.5436 18.7372 75.0456 18.4332C75.5476 18.1292 76.0037 17.6835 76.3879 17.1217C76.7721 16.56 77.0769 15.893 77.2848 15.159C77.4928 14.425 77.5998 13.6383 77.5998 12.8438C77.5998 12.0493 77.4928 11.2626 77.2848 10.5286C77.0769 9.79454 76.7721 9.1276 76.3879 8.56581C76.0037 8.00402 75.5476 7.55838 75.0456 7.25434C74.5436 6.9503 74.6918 6.79381 74.1484 6.79381V3.67773Z" fill="white"/>
<path d="M114.479 12.7541C114.479 16.561 110.822 20.1117 105.697 20.1117C100.572 20.1117 96.916 16.561 96.916 12.7541C96.916 8.94715 100.572 5.39648 105.697 5.39648C110.822 5.39648 114.479 8.94715 114.479 12.7541Z" stroke="white" stroke-width="4"/>
<mask id="path-31-inside-1_428_302" fill="white">
<path d="M136.873 13.2242C136.71 15.3479 135.847 17.3574 134.419 18.9381C132.992 20.5188 131.08 21.5813 128.984 21.9592C126.888 22.337 124.726 22.0089 122.836 21.0262C120.946 20.0435 119.436 18.4617 118.542 16.5287C117.648 14.5956 117.42 12.4205 117.894 10.3441C118.368 8.26774 119.518 6.40735 121.163 5.0544C122.808 3.70146 124.855 2.93241 126.984 2.86772C129.113 2.80303 131.203 3.44637 132.928 4.69694L131.082 7.24105C129.921 6.39887 128.513 5.96562 127.08 6.00918C125.646 6.05275 124.267 6.57066 123.16 7.48178C122.052 8.39291 121.277 9.64577 120.958 11.0441C120.639 12.4424 120.792 13.9072 121.394 15.209C121.997 16.5108 123.014 17.576 124.286 18.2378C125.559 18.8996 127.015 19.1206 128.426 18.8661C129.838 18.6116 131.125 17.8961 132.087 16.8316C133.048 15.7671 133.629 14.4138 133.739 12.9837L136.873 13.2242Z"/>
</mask>
<path d="M136.873 13.2242C136.71 15.3479 135.847 17.3574 134.419 18.9381C132.992 20.5188 131.08 21.5813 128.984 21.9592C126.888 22.337 124.726 22.0089 122.836 21.0262C120.946 20.0435 119.436 18.4617 118.542 16.5287C117.648 14.5956 117.42 12.4205 117.894 10.3441C118.368 8.26774 119.518 6.40735 121.163 5.0544C122.808 3.70146 124.855 2.93241 126.984 2.86772C129.113 2.80303 131.203 3.44637 132.928 4.69694L131.082 7.24105C129.921 6.39887 128.513 5.96562 127.08 6.00918C125.646 6.05275 124.267 6.57066 123.16 7.48178C122.052 8.39291 121.277 9.64577 120.958 11.0441C120.639 12.4424 120.792 13.9072 121.394 15.209C121.997 16.5108 123.014 17.576 124.286 18.2378C125.559 18.8996 127.015 19.1206 128.426 18.8661C129.838 18.6116 131.125 17.8961 132.087 16.8316C133.048 15.7671 133.629 14.4138 133.739 12.9837L136.873 13.2242Z" stroke="white" stroke-width="18" mask="url(#path-31-inside-1_428_302)"/>
</svg>
