<svg width="273" height="76" fill="none" xmlns="http://www.w3.org/2000/svg"><path opacity=".6" fill-rule="evenodd" clip-rule="evenodd" d="M97.787 30.276v30.277h14.428V49.099c0-6.3.149-12.205.332-13.121.701-3.515 4.155-5.605 7.184-4.347 2.948 1.224 3.171 2.372 3.171 16.318v12.634l7.347-.15 7.347-.148-.02-15.004c-.014-10.215-.23-15.716-.675-17.232-1.091-3.713-3.809-7.217-6.774-8.735-4.939-2.53-13.47-1.579-16.277 1.814-.383.463-.909.843-1.166.843-.258 0-.469-4.944-.469-10.986V0H97.787v30.276Zm157.135-29.07c-.261.663-3.589 8.69-7.397 17.84-3.807 9.148-7.091 17.166-7.297 17.817l-.375 1.183 8.72-.002 8.719-.003 4.914-11.92c2.702-6.557 6.236-15.116 7.853-19.02L273 0h-8.802c-8.632 0-8.812.024-9.276 1.206ZM61.624 18.455c-3.276 1.027-5.658 2.666-8.653 5.953-5.62 6.166-7.078 15.724-3.76 24.646 1.605 4.313 7.036 9.863 10.904 11.141 6.412 2.12 11.942 1.584 16.042-1.555l2.393-1.831v3.744h13.894V18.755H78.55v3.192l-2.52-1.603c-1.385-.88-3.369-1.839-4.408-2.128-2.58-.72-7.302-.606-9.998.239Zm94.942.088c-8.251 2.213-13.979 8.778-15.571 17.845-1.171 6.67 1.405 14.255 6.449 18.986 8.8 8.256 23.062 8.12 31.69-.303 10.02-9.782 7.312-28.425-5.052-34.765-4.984-2.557-11.946-3.257-17.516-1.764Zm47.036 0c-1.609.433-3.902 1.362-5.094 2.063-3.117 1.832-7.055 6.27-8.716 9.821-1.293 2.768-1.432 3.662-1.432 9.238 0 5.88.083 6.342 1.732 9.702 8.721 17.764 36.609 15.39 41.524-3.534 3.885-14.954-6.329-28.235-21.614-28.108-1.911.016-4.79.384-6.4.817ZM0 19.216c0 .255 3.883 9.599 8.63 20.765 4.745 11.167 8.632 20.544 8.637 20.839.005.294-1.353 3.68-3.018 7.522-1.665 3.842-3.027 7.164-3.027 7.382 0 .218 3.514.33 7.81.248l7.81-.148 11.682-28.133c6.425-15.473 11.687-28.314 11.694-28.535.006-.22-3.452-.402-7.686-.402h-7.696L30.153 30.52c-2.576 6.47-4.842 11.667-5.036 11.547-.193-.12-2.376-5.414-4.851-11.765l-4.5-11.547H7.883c-4.335 0-7.883.208-7.883.462Zm65.945 12.877c-4.148 2.536-5.46 6.908-3.352 11.17 2.23 4.507 7.62 6.206 11.894 3.75 5.596-3.218 5.464-12.13-.222-14.995-2.454-1.236-6.231-1.202-8.32.075Zm93.409-.153c-2.639 1.35-4.037 3.683-4.278 7.142-.231 3.308.889 5.593 3.8 7.756 2.165 1.609 6.448 1.545 8.79-.13 6.586-4.71 3.987-14.8-3.98-15.454-1.716-.14-3.164.089-4.332.686Zm46.779.214c-2.774 1.511-4.345 4.708-4.013 8.17.267 2.782 1.4 4.724 3.813 6.53 2.055 1.539 6.624 1.53 8.705-.016 5.209-3.87 5.245-10.474.079-14.31-2.09-1.553-6.099-1.728-8.584-.374Zm34.06 10.402c-3.389 1.517-5.611 5.035-5.611 8.886 0 3.74 2.072 7.12 5.45 8.89 2.316 1.213 6.662.962 9.204-.532 6.326-3.718 6.097-13.733-.388-16.88-2.635-1.28-6.268-1.432-8.655-.364Z" fill="#fff"/></svg>